<?xml version="1.0" encoding="UTF-8" standalone="no"?>
<!DOCTYPE svg PUBLIC "-//W3C//DTD SVG 1.1//EN"
 "http://www.w3.org/Graphics/SVG/1.1/DTD/svg11.dtd">
<!-- Generated by graphviz version 2.43.0 (0)
 -->
<!-- Title: basic_pipes.hpp Pages: 1 -->
<svg width="1390pt" height="159pt"
 viewBox="0.00 0.00 1390.00 159.00" xmlns="http://www.w3.org/2000/svg" xmlns:xlink="http://www.w3.org/1999/xlink">
<g id="graph0" class="graph" transform="scale(1 1) rotate(0) translate(4 155)">
<title>basic_pipes.hpp</title>
<!-- Node1 -->
<g id="Node000001" class="node">
<title>Node1</title>
<g id="a_Node000001"><a xlink:title=" ">
<polygon fill="#999999" stroke="#666666" points="798,-151 703,-151 703,-132 798,-132 798,-151"/>
<text text-anchor="middle" x="750.5" y="-139" font-family="Helvetica,sans-Serif" font-size="10.00">basic_pipes.hpp</text>
</a>
</g>
</g>
<!-- Node2 -->
<g id="Node000002" class="node">
<title>Node2</title>
<g id="a_Node000002"><a xlink:title=" ">
<polygon fill="#e0e0e0" stroke="#999999" points="119,-90.5 0,-90.5 0,-71.5 119,-71.5 119,-90.5"/>
<text text-anchor="middle" x="59.5" y="-78.5" font-family="Helvetica,sans-Serif" font-size="10.00">containers/variable.h</text>
</a>
</g>
</g>
<!-- Node1&#45;&gt;Node2 -->
<g id="edge1_Node000001_Node000002" class="edge">
<title>Node1&#45;&gt;Node2</title>
<g id="a_edge1_Node000001_Node000002"><a xlink:title=" ">
<path fill="none" stroke="#63b8ff" d="M702.99,-139.24C598.5,-136 340.99,-125.47 127.5,-96 120.68,-95.06 113.52,-93.84 106.51,-92.52"/>
<polygon fill="#63b8ff" stroke="#63b8ff" points="106.89,-89.02 96.4,-90.52 105.54,-95.89 106.89,-89.02"/>
</a>
</g>
</g>
<!-- Node3 -->
<g id="Node000003" class="node">
<title>Node3</title>
<g id="a_Node000003"><a xlink:title=" ">
<polygon fill="#e0e0e0" stroke="#999999" points="268,-90.5 137,-90.5 137,-71.5 268,-71.5 268,-90.5"/>
<text text-anchor="middle" x="202.5" y="-78.5" font-family="Helvetica,sans-Serif" font-size="10.00">includes/process_info.h</text>
</a>
</g>
</g>
<!-- Node1&#45;&gt;Node3 -->
<g id="edge2_Node000001_Node000003" class="edge">
<title>Node1&#45;&gt;Node3</title>
<g id="a_edge2_Node000001_Node000003"><a xlink:title=" ">
<path fill="none" stroke="#63b8ff" d="M702.67,-137.44C617.1,-131.65 432.29,-117.68 277.5,-96 270.02,-94.95 262.15,-93.68 254.44,-92.33"/>
<polygon fill="#63b8ff" stroke="#63b8ff" points="254.9,-88.85 244.44,-90.52 253.66,-95.74 254.9,-88.85"/>
</a>
</g>
</g>
<!-- Node4 -->
<g id="Node000004" class="node">
<title>Node4</title>
<g id="a_Node000004"><a xlink:title=" ">
<polygon fill="#e0e0e0" stroke="#999999" points="396.5,-90.5 286.5,-90.5 286.5,-71.5 396.5,-71.5 396.5,-90.5"/>
<text text-anchor="middle" x="341.5" y="-78.5" font-family="Helvetica,sans-Serif" font-size="10.00">containers/model.h</text>
</a>
</g>
</g>
<!-- Node1&#45;&gt;Node4 -->
<g id="edge3_Node000001_Node000004" class="edge">
<title>Node1&#45;&gt;Node4</title>
<g id="a_edge3_Node000001_Node000004"><a xlink:title=" ">
<path fill="none" stroke="#63b8ff" d="M702.87,-135.68C636.13,-128.63 511.12,-114.33 405.5,-96 399.76,-95 393.75,-93.84 387.81,-92.63"/>
<polygon fill="#63b8ff" stroke="#63b8ff" points="388.45,-89.19 377.94,-90.55 387.01,-96.04 388.45,-89.19"/>
</a>
</g>
</g>
<!-- Node5 -->
<g id="Node000005" class="node">
<title>Node5</title>
<g id="a_Node000005"><a xlink:title=" ">
<polygon fill="#e0e0e0" stroke="#999999" points="540,-90.5 415,-90.5 415,-71.5 540,-71.5 540,-90.5"/>
<text text-anchor="middle" x="477.5" y="-78.5" font-family="Helvetica,sans-Serif" font-size="10.00">includes/model_part.h</text>
</a>
</g>
</g>
<!-- Node1&#45;&gt;Node5 -->
<g id="edge4_Node000001_Node000005" class="edge">
<title>Node1&#45;&gt;Node5</title>
<g id="a_edge4_Node000001_Node000005"><a xlink:title=" ">
<path fill="none" stroke="#63b8ff" d="M710.8,-131.99C662.18,-121.57 579.79,-103.92 527.05,-92.62"/>
<polygon fill="#63b8ff" stroke="#63b8ff" points="527.76,-89.19 517.24,-90.52 526.29,-96.03 527.76,-89.19"/>
</a>
</g>
</g>
<!-- Node6 -->
<g id="Node000006" class="node">
<title>Node6</title>
<g id="a_Node000006"><a xlink:title=" ">
<polygon fill="#e0e0e0" stroke="#999999" points="655,-24.5 494,-24.5 494,-5.5 655,-5.5 655,-24.5"/>
<text text-anchor="middle" x="574.5" y="-12.5" font-family="Helvetica,sans-Serif" font-size="10.00">includes/kratos_parameters.h</text>
</a>
</g>
</g>
<!-- Node1&#45;&gt;Node6 -->
<g id="edge5_Node000001_Node000006" class="edge">
<title>Node1&#45;&gt;Node6</title>
<g id="a_edge5_Node000001_Node000006"><a xlink:title=" ">
<path fill="none" stroke="#63b8ff" d="M702.72,-140.39C666.15,-137.62 617.25,-127.61 588.5,-96 573.49,-79.49 571.69,-52.82 572.5,-34.86"/>
<polygon fill="#63b8ff" stroke="#63b8ff" points="576,-34.98 573.27,-24.74 569.02,-34.45 576,-34.98"/>
</a>
</g>
</g>
<!-- Node7 -->
<g id="Node000007" class="node">
<title>Node7</title>
<g id="a_Node000007"><a xlink:title=" ">
<polygon fill="#e0e0e0" stroke="#999999" points="1012.5,-96 918.5,-96 918.5,-66 1012.5,-66 1012.5,-96"/>
<text text-anchor="start" x="926.5" y="-84" font-family="Helvetica,sans-Serif" font-size="10.00">utilities/interval</text>
<text text-anchor="middle" x="965.5" y="-73" font-family="Helvetica,sans-Serif" font-size="10.00">_utility.h</text>
</a>
</g>
</g>
<!-- Node1&#45;&gt;Node7 -->
<g id="edge6_Node000001_Node000007" class="edge">
<title>Node1&#45;&gt;Node7</title>
<g id="a_edge6_Node000001_Node000007"><a xlink:title=" ">
<path fill="none" stroke="#63b8ff" d="M781.76,-131.99C814.9,-122.98 867.95,-108.54 908.55,-97.5"/>
<polygon fill="#63b8ff" stroke="#63b8ff" points="909.59,-100.84 918.32,-94.84 907.75,-94.09 909.59,-100.84"/>
</a>
</g>
</g>
<!-- Node8 -->
<g id="Node000008" class="node">
<title>Node8</title>
<g id="a_Node000008"><a xlink:href="pipe_8hpp.html" target="_top" xlink:title=" ">
<polygon fill="white" stroke="#666666" points="900.5,-90.5 762.5,-90.5 762.5,-71.5 900.5,-71.5 900.5,-90.5"/>
<text text-anchor="middle" x="831.5" y="-78.5" font-family="Helvetica,sans-Serif" font-size="10.00">wrapp/pipes/inc/pipe.hpp</text>
</a>
</g>
</g>
<!-- Node1&#45;&gt;Node8 -->
<g id="edge7_Node000001_Node000008" class="edge">
<title>Node1&#45;&gt;Node8</title>
<g id="a_edge7_Node000001_Node000008"><a xlink:title=" ">
<path fill="none" stroke="#63b8ff" d="M762.45,-131.87C775.25,-122.62 795.8,-107.78 811.15,-96.69"/>
<polygon fill="#63b8ff" stroke="#63b8ff" points="813.44,-99.36 819.5,-90.67 809.34,-93.68 813.44,-99.36"/>
</a>
</g>
</g>
<!-- Node13 -->
<g id="Node000013" class="node">
<title>Node13</title>
<g id="a_Node000013"><a xlink:href="IntervalUtility_8hpp.html" target="_top" xlink:title=" ">
<polygon fill="white" stroke="#666666" points="744,-96 597,-96 597,-66 744,-66 744,-96"/>
<text text-anchor="start" x="605" y="-84" font-family="Helvetica,sans-Serif" font-size="10.00">wrapp/numeric/inc/Interval</text>
<text text-anchor="middle" x="670.5" y="-73" font-family="Helvetica,sans-Serif" font-size="10.00">Utility.hpp</text>
</a>
</g>
</g>
<!-- Node1&#45;&gt;Node13 -->
<g id="edge13_Node000001_Node000013" class="edge">
<title>Node1&#45;&gt;Node13</title>
<g id="a_edge13_Node000001_Node000013"><a xlink:title=" ">
<path fill="none" stroke="#63b8ff" d="M738.7,-131.87C728.04,-124.08 711.96,-112.32 698.09,-102.17"/>
<polygon fill="#63b8ff" stroke="#63b8ff" points="699.94,-99.19 689.8,-96.11 695.81,-104.84 699.94,-99.19"/>
</a>
</g>
</g>
<!-- Node14 -->
<g id="Node000014" class="node">
<title>Node14</title>
<g id="a_Node000014"><a xlink:title=" ">
<polygon fill="#e0e0e0" stroke="#999999" points="1086.5,-90.5 1030.5,-90.5 1030.5,-71.5 1086.5,-71.5 1086.5,-90.5"/>
<text text-anchor="middle" x="1058.5" y="-78.5" font-family="Helvetica,sans-Serif" font-size="10.00">optional</text>
</a>
</g>
</g>
<!-- Node1&#45;&gt;Node14 -->
<g id="edge16_Node000001_Node000014" class="edge">
<title>Node1&#45;&gt;Node14</title>
<g id="a_edge16_Node000001_Node000014"><a xlink:title=" ">
<path fill="none" stroke="#63b8ff" d="M798.1,-135.59C852.7,-129.29 944.6,-116.64 1021.5,-96 1023.79,-95.38 1026.14,-94.68 1028.49,-93.92"/>
<polygon fill="#63b8ff" stroke="#63b8ff" points="1029.72,-97.2 1038,-90.59 1027.4,-90.59 1029.72,-97.2"/>
</a>
</g>
</g>
<!-- Node15 -->
<g id="Node000015" class="node">
<title>Node15</title>
<g id="a_Node000015"><a xlink:title=" ">
<polygon fill="#e0e0e0" stroke="#999999" points="1170,-90.5 1105,-90.5 1105,-71.5 1170,-71.5 1170,-90.5"/>
<text text-anchor="middle" x="1137.5" y="-78.5" font-family="Helvetica,sans-Serif" font-size="10.00">functional</text>
</a>
</g>
</g>
<!-- Node1&#45;&gt;Node15 -->
<g id="edge17_Node000001_Node000015" class="edge">
<title>Node1&#45;&gt;Node15</title>
<g id="a_edge17_Node000001_Node000015"><a xlink:title=" ">
<path fill="none" stroke="#63b8ff" d="M798.17,-137.28C865.2,-132.1 990.86,-119.95 1095.5,-96 1098.55,-95.3 1101.69,-94.47 1104.81,-93.57"/>
<polygon fill="#63b8ff" stroke="#63b8ff" points="1106.11,-96.83 1114.62,-90.52 1104.03,-90.15 1106.11,-96.83"/>
</a>
</g>
</g>
<!-- Node16 -->
<g id="Node000016" class="node">
<title>Node16</title>
<g id="a_Node000016"><a xlink:title=" ">
<polygon fill="#e0e0e0" stroke="#999999" points="1235,-90.5 1188,-90.5 1188,-71.5 1235,-71.5 1235,-90.5"/>
<text text-anchor="middle" x="1211.5" y="-78.5" font-family="Helvetica,sans-Serif" font-size="10.00">cmath</text>
</a>
</g>
</g>
<!-- Node1&#45;&gt;Node16 -->
<g id="edge18_Node000001_Node000016" class="edge">
<title>Node1&#45;&gt;Node16</title>
<g id="a_edge18_Node000001_Node000016"><a xlink:title=" ">
<path fill="none" stroke="#63b8ff" d="M798.01,-140.32C878.05,-138.98 1044.29,-131.66 1179.5,-96 1181.39,-95.5 1183.31,-94.91 1185.23,-94.25"/>
<polygon fill="#63b8ff" stroke="#63b8ff" points="1186.56,-97.48 1194.58,-90.56 1183.99,-90.97 1186.56,-97.48"/>
</a>
</g>
</g>
<!-- Node17 -->
<g id="Node000017" class="node">
<title>Node17</title>
<g id="a_Node000017"><a xlink:title=" ">
<polygon fill="#e0e0e0" stroke="#999999" points="1382,-96 1253,-96 1253,-66 1382,-66 1382,-96"/>
<text text-anchor="start" x="1261" y="-84" font-family="Helvetica,sans-Serif" font-size="10.00">wrapp/pipes/impl/basic</text>
<text text-anchor="middle" x="1317.5" y="-73" font-family="Helvetica,sans-Serif" font-size="10.00">_pipes_impl.hpp</text>
</a>
</g>
</g>
<!-- Node1&#45;&gt;Node17 -->
<g id="edge19_Node000001_Node000017" class="edge">
<title>Node1&#45;&gt;Node17</title>
<g id="a_edge19_Node000001_Node000017"><a xlink:title=" ">
<path fill="none" stroke="#63b8ff" d="M798.02,-137.8C884.57,-132.54 1073.83,-119.45 1242.62,-96.18"/>
<polygon fill="#63b8ff" stroke="#63b8ff" points="1243.26,-99.63 1252.68,-94.78 1242.29,-92.69 1243.26,-99.63"/>
</a>
</g>
</g>
<!-- Node8&#45;&gt;Node6 -->
<g id="edge8_Node000008_Node000006" class="edge">
<title>Node8&#45;&gt;Node6</title>
<g id="a_edge8_Node000008_Node000006"><a xlink:title=" ">
<path fill="none" stroke="#63b8ff" d="M797.11,-71.44C751.04,-59.96 669.26,-39.6 618.68,-27"/>
<polygon fill="#63b8ff" stroke="#63b8ff" points="619.24,-23.53 608.69,-24.51 617.55,-30.33 619.24,-23.53"/>
</a>
</g>
</g>
<!-- Node9 -->
<g id="Node000009" class="node">
<title>Node9</title>
<g id="a_Node000009"><a xlink:title=" ">
<polygon fill="#e0e0e0" stroke="#999999" points="772,-24.5 673,-24.5 673,-5.5 772,-5.5 772,-24.5"/>
<text text-anchor="middle" x="722.5" y="-12.5" font-family="Helvetica,sans-Serif" font-size="10.00">includes/define.h</text>
</a>
</g>
</g>
<!-- Node8&#45;&gt;Node9 -->
<g id="edge9_Node000008_Node000009" class="edge">
<title>Node8&#45;&gt;Node9</title>
<g id="a_edge9_Node000008_Node000009"><a xlink:title=" ">
<path fill="none" stroke="#63b8ff" d="M816.8,-71.37C798.68,-60.73 767.65,-42.51 746.16,-29.89"/>
<polygon fill="#63b8ff" stroke="#63b8ff" points="747.71,-26.74 737.32,-24.7 744.17,-32.78 747.71,-26.74"/>
</a>
</g>
</g>
<!-- Node10 -->
<g id="Node000010" class="node">
<title>Node10</title>
<g id="a_Node000010"><a xlink:title=" ">
<polygon fill="#e0e0e0" stroke="#999999" points="859,-24.5 790,-24.5 790,-5.5 859,-5.5 859,-24.5"/>
<text text-anchor="middle" x="824.5" y="-12.5" font-family="Helvetica,sans-Serif" font-size="10.00">type_traits</text>
</a>
</g>
</g>
<!-- Node8&#45;&gt;Node10 -->
<g id="edge10_Node000008_Node000010" class="edge">
<title>Node8&#45;&gt;Node10</title>
<g id="a_edge10_Node000008_Node000010"><a xlink:title=" ">
<path fill="none" stroke="#63b8ff" d="M830.56,-71.37C829.54,-62.07 827.89,-46.98 826.57,-34.9"/>
<polygon fill="#63b8ff" stroke="#63b8ff" points="830.04,-34.47 825.47,-24.91 823.08,-35.23 830.04,-34.47"/>
</a>
</g>
</g>
<!-- Node11 -->
<g id="Node000011" class="node">
<title>Node11</title>
<g id="a_Node000011"><a xlink:title=" ">
<polygon fill="#e0e0e0" stroke="#999999" points="922,-24.5 877,-24.5 877,-5.5 922,-5.5 922,-24.5"/>
<text text-anchor="middle" x="899.5" y="-12.5" font-family="Helvetica,sans-Serif" font-size="10.00">utility</text>
</a>
</g>
</g>
<!-- Node8&#45;&gt;Node11 -->
<g id="edge11_Node000008_Node000011" class="edge">
<title>Node8&#45;&gt;Node11</title>
<g id="a_edge11_Node000008_Node000011"><a xlink:title=" ">
<path fill="none" stroke="#63b8ff" d="M840.67,-71.37C851.36,-61.31 869.24,-44.48 882.49,-32.01"/>
<polygon fill="#63b8ff" stroke="#63b8ff" points="885.15,-34.31 890.04,-24.91 880.36,-29.21 885.15,-34.31"/>
</a>
</g>
</g>
<!-- Node12 -->
<g id="Node000012" class="node">
<title>Node12</title>
<g id="a_Node000012"><a xlink:title=" ">
<polygon fill="#e0e0e0" stroke="#999999" points="1065,-30 940,-30 940,0 1065,0 1065,-30"/>
<text text-anchor="start" x="948" y="-18" font-family="Helvetica,sans-Serif" font-size="10.00">wrapp/pipes/impl/pipe</text>
<text text-anchor="middle" x="1002.5" y="-7" font-family="Helvetica,sans-Serif" font-size="10.00">_impl.hpp</text>
</a>
</g>
</g>
<!-- Node8&#45;&gt;Node12 -->
<g id="edge12_Node000008_Node000012" class="edge">
<title>Node8&#45;&gt;Node12</title>
<g id="a_edge12_Node000008_Node000012"><a xlink:title=" ">
<path fill="none" stroke="#63b8ff" d="M854.56,-71.37C880.28,-61.74 922.58,-45.91 955.38,-33.64"/>
<polygon fill="#63b8ff" stroke="#63b8ff" points="956.65,-36.9 964.78,-30.12 954.19,-30.34 956.65,-36.9"/>
</a>
</g>
</g>
<!-- Node13&#45;&gt;Node6 -->
<g id="edge15_Node000013_Node000006" class="edge">
<title>Node13&#45;&gt;Node6</title>
<g id="a_edge15_Node000013_Node000006"><a xlink:title=" ">
<path fill="none" stroke="#63b8ff" d="M649.19,-65.8C633.4,-55.27 611.96,-40.97 596.1,-30.4"/>
<polygon fill="#63b8ff" stroke="#63b8ff" points="597.75,-27.29 587.49,-24.66 593.87,-33.12 597.75,-27.29"/>
</a>
</g>
</g>
<!-- Node13&#45;&gt;Node9 -->
<g id="edge14_Node000013_Node000009" class="edge">
<title>Node13&#45;&gt;Node9</title>
<g id="a_edge14_Node000013_Node000009"><a xlink:title=" ">
<path fill="none" stroke="#63b8ff" d="M682.04,-65.8C689.99,-56.01 700.58,-42.98 708.93,-32.7"/>
<polygon fill="#63b8ff" stroke="#63b8ff" points="711.72,-34.81 715.31,-24.84 706.29,-30.4 711.72,-34.81"/>
</a>
</g>
</g>
</g>
</svg>
