<?xml version="1.0" encoding="UTF-8" standalone="no"?>
<!DOCTYPE svg PUBLIC "-//W3C//DTD SVG 1.1//EN"
 "http://www.w3.org/Graphics/SVG/1.1/DTD/svg11.dtd">
<!-- Generated by graphviz version 2.43.0 (0)
 -->
<!-- Title: basic_pipes.hpp Pages: 1 -->
<!--zoomable 162 -->
<svg id="main" version="1.1" xmlns="http://www.w3.org/2000/svg" xmlns:xlink="http://www.w3.org/1999/xlink" xml:space="preserve" onload="init(evt)">
<style type="text/css"><![CDATA[
.edge:hover path { stroke: red; }
.edge:hover polygon { stroke: red; fill: red; }
]]></style>
<script type="text/javascript"><![CDATA[
var edges = document.getElementsByTagName('g');
if (edges && edges.length) {
  for (var i=0;i<edges.length;i++) {
    if (edges[i].id.substr(0,4)=='edge') {
      edges[i].setAttribute('class','edge');
    }
  }
}
]]></script>
        <defs>
                <circle id="rim" cx="0" cy="0" r="7"/>
                <circle id="rim2" cx="0" cy="0" r="3.5"/>
                <g id="zoomPlus">
                        <use xlink:href="#rim" fill="#404040">
                                <set attributeName="fill" to="#808080" begin="zoomplus.mouseover" end="zoomplus.mouseout"/>
                        </use>
                        <path d="M-4,0h8M0,-4v8" fill="none" stroke="white" stroke-width="1.5" pointer-events="none"/>
                </g>
                <g id="zoomMin">
                        <use xlink:href="#rim" fill="#404040">
                                <set attributeName="fill" to="#808080" begin="zoomminus.mouseover" end="zoomminus.mouseout"/>
                        </use>
                        <path d="M-4,0h8" fill="none" stroke="white" stroke-width="1.5" pointer-events="none"/>
                </g>
                <g id="dirArrow">
                        <path fill="none" stroke="white" stroke-width="1.5" d="M0,-3.0v7 M-2.5,-0.5L0,-3.0L2.5,-0.5"/>
                </g>
               <g id="resetDef">
                       <use xlink:href="#rim2" fill="#404040">
                               <set attributeName="fill" to="#808080" begin="reset.mouseover" end="reset.mouseout"/>
                       </use>
               </g>
        </defs>

<script type="text/javascript">
var viewWidth = 1390;
var viewHeight = 162;
var sectionId = 'dynsection-0';
</script>
<script xlink:href="svgpan.js"/>
<svg id="graph" class="graph">
<g id="viewport">
<title>basic_pipes.hpp</title>
<polygon fill="white" stroke="transparent" points="-4,4 -4,-158 1386,-158 1386,4 -4,4"/>
<!-- Node1 -->
<g id="node1" class="node">
<title>Node1</title>
<g id="a_node1"><a xlink:title=" ">
<polygon fill="#bfbfbf" stroke="black" points="703,-134.5 703,-153.5 798,-153.5 798,-134.5 703,-134.5"/>
<text text-anchor="middle" x="750.5" y="-141.5" font-family="Helvetica,sans-Serif" font-size="10.00">basic_pipes.hpp</text>
</a>
</g>
</g>
<!-- Node2 -->
<g id="node2" class="node">
<title>Node2</title>
<g id="a_node2"><a xlink:title=" ">
<polygon fill="white" stroke="#bfbfbf" points="0,-73 0,-92 119,-92 119,-73 0,-73"/>
<text text-anchor="middle" x="59.5" y="-80" font-family="Helvetica,sans-Serif" font-size="10.00">containers/variable.h</text>
</a>
</g>
</g>
<!-- Node1&#45;&gt;Node2 -->
<g id="edge1" class="edge">
<title>Node1&#45;&gt;Node2</title>
<path fill="none" stroke="midnightblue" d="M702.98,-141.8C598.45,-138.68 340.89,-128.31 127.5,-98 120.19,-96.96 112.49,-95.59 105,-94.11"/>
<polygon fill="midnightblue" stroke="midnightblue" points="105.48,-90.63 94.98,-92.03 104.06,-97.49 105.48,-90.63"/>
</g>
<!-- Node3 -->
<g id="node3" class="node">
<title>Node3</title>
<g id="a_node3"><a xlink:title=" ">
<polygon fill="white" stroke="#bfbfbf" points="137,-73 137,-92 268,-92 268,-73 137,-73"/>
<text text-anchor="middle" x="202.5" y="-80" font-family="Helvetica,sans-Serif" font-size="10.00">includes/process_info.h</text>
</a>
</g>
</g>
<!-- Node1&#45;&gt;Node3 -->
<g id="edge2" class="edge">
<title>Node1&#45;&gt;Node3</title>
<path fill="none" stroke="midnightblue" d="M702.99,-140C617.55,-134.26 432.43,-120.29 277.5,-98 269.47,-96.85 261,-95.41 252.76,-93.91"/>
<polygon fill="midnightblue" stroke="midnightblue" points="253.34,-90.45 242.86,-92.04 252.04,-97.33 253.34,-90.45"/>
</g>
<!-- Node4 -->
<g id="node4" class="node">
<title>Node4</title>
<g id="a_node4"><a xlink:title=" ">
<polygon fill="white" stroke="#bfbfbf" points="286.5,-73 286.5,-92 396.5,-92 396.5,-73 286.5,-73"/>
<text text-anchor="middle" x="341.5" y="-80" font-family="Helvetica,sans-Serif" font-size="10.00">containers/model.h</text>
</a>
</g>
</g>
<!-- Node1&#45;&gt;Node4 -->
<g id="edge3" class="edge">
<title>Node1&#45;&gt;Node4</title>
<path fill="none" stroke="midnightblue" d="M702.85,-138.2C636.09,-131.16 511.05,-116.8 405.5,-98 399.32,-96.9 392.83,-95.6 386.45,-94.24"/>
<polygon fill="midnightblue" stroke="midnightblue" points="387.11,-90.8 376.59,-92.07 385.61,-97.64 387.11,-90.8"/>
</g>
<!-- Node5 -->
<g id="node5" class="node">
<title>Node5</title>
<g id="a_node5"><a xlink:title=" ">
<polygon fill="white" stroke="#bfbfbf" points="415,-73 415,-92 540,-92 540,-73 415,-73"/>
<text text-anchor="middle" x="477.5" y="-80" font-family="Helvetica,sans-Serif" font-size="10.00">includes/model_part.h</text>
</a>
</g>
</g>
<!-- Node1&#45;&gt;Node5 -->
<g id="edge4" class="edge">
<title>Node1&#45;&gt;Node5</title>
<path fill="none" stroke="midnightblue" d="M711.39,-134.48C662.63,-123.85 579.29,-105.68 526.38,-94.15"/>
<polygon fill="midnightblue" stroke="midnightblue" points="527.06,-90.72 516.54,-92.01 525.57,-97.56 527.06,-90.72"/>
</g>
<!-- Node6 -->
<g id="node6" class="node">
<title>Node6</title>
<g id="a_node6"><a xlink:title=" ">
<polygon fill="white" stroke="#bfbfbf" points="494,-6 494,-25 655,-25 655,-6 494,-6"/>
<text text-anchor="middle" x="574.5" y="-13" font-family="Helvetica,sans-Serif" font-size="10.00">includes/kratos_parameters.h</text>
</a>
</g>
</g>
<!-- Node1&#45;&gt;Node6 -->
<g id="edge5" class="edge">
<title>Node1&#45;&gt;Node6</title>
<path fill="none" stroke="midnightblue" d="M702.68,-142.76C666.08,-139.88 617.18,-129.72 588.5,-98 573.19,-81.07 571.5,-53.73 572.41,-35.44"/>
<polygon fill="midnightblue" stroke="midnightblue" points="575.91,-35.65 573.22,-25.4 568.93,-35.09 575.91,-35.65"/>
</g>
<!-- Node7 -->
<g id="node7" class="node">
<title>Node7</title>
<g id="a_node7"><a xlink:title=" ">
<polygon fill="white" stroke="#bfbfbf" points="918.5,-67.5 918.5,-97.5 1012.5,-97.5 1012.5,-67.5 918.5,-67.5"/>
<text text-anchor="start" x="926.5" y="-85.5" font-family="Helvetica,sans-Serif" font-size="10.00">utilities/interval</text>
<text text-anchor="middle" x="965.5" y="-74.5" font-family="Helvetica,sans-Serif" font-size="10.00">_utility.h</text>
</a>
</g>
</g>
<!-- Node1&#45;&gt;Node7 -->
<g id="edge6" class="edge">
<title>Node1&#45;&gt;Node7</title>
<path fill="none" stroke="midnightblue" d="M781.3,-134.48C814.34,-125.33 867.55,-110.61 908.3,-99.33"/>
<polygon fill="midnightblue" stroke="midnightblue" points="909.41,-102.66 918.11,-96.62 907.54,-95.91 909.41,-102.66"/>
</g>
<!-- Node8 -->
<g id="node8" class="node">
<title>Node8</title>
<g id="a_node8"><a xlink:href="pipe_8hpp.html" target="_top" xlink:title=" ">
<polygon fill="white" stroke="black" points="762.5,-73 762.5,-92 900.5,-92 900.5,-73 762.5,-73"/>
<text text-anchor="middle" x="831.5" y="-80" font-family="Helvetica,sans-Serif" font-size="10.00">wrapp/pipes/inc/pipe.hpp</text>
</a>
</g>
</g>
<!-- Node1&#45;&gt;Node8 -->
<g id="edge7" class="edge">
<title>Node1&#45;&gt;Node8</title>
<path fill="none" stroke="midnightblue" d="M762.11,-134.48C774.98,-125.02 795.97,-109.6 811.51,-98.19"/>
<polygon fill="midnightblue" stroke="midnightblue" points="813.93,-100.75 819.92,-92.01 809.78,-95.11 813.93,-100.75"/>
</g>
<!-- Node13 -->
<g id="node13" class="node">
<title>Node13</title>
<g id="a_node13"><a xlink:href="IntervalUtility_8hpp.html" target="_top" xlink:title=" ">
<polygon fill="white" stroke="black" points="597,-67.5 597,-97.5 744,-97.5 744,-67.5 597,-67.5"/>
<text text-anchor="start" x="605" y="-85.5" font-family="Helvetica,sans-Serif" font-size="10.00">wrapp/numeric/inc/Interval</text>
<text text-anchor="middle" x="670.5" y="-74.5" font-family="Helvetica,sans-Serif" font-size="10.00">Utility.hpp</text>
</a>
</g>
</g>
<!-- Node1&#45;&gt;Node13 -->
<g id="edge13" class="edge">
<title>Node1&#45;&gt;Node13</title>
<path fill="none" stroke="midnightblue" d="M739.04,-134.48C728.3,-126.49 711.85,-114.25 697.75,-103.77"/>
<polygon fill="midnightblue" stroke="midnightblue" points="699.47,-100.68 689.35,-97.52 695.29,-106.3 699.47,-100.68"/>
</g>
<!-- Node14 -->
<g id="node14" class="node">
<title>Node14</title>
<g id="a_node14"><a xlink:title=" ">
<polygon fill="white" stroke="#bfbfbf" points="1030.5,-73 1030.5,-92 1086.5,-92 1086.5,-73 1030.5,-73"/>
<text text-anchor="middle" x="1058.5" y="-80" font-family="Helvetica,sans-Serif" font-size="10.00">optional</text>
</a>
</g>
</g>
<!-- Node1&#45;&gt;Node14 -->
<g id="edge16" class="edge">
<title>Node1&#45;&gt;Node14</title>
<path fill="none" stroke="midnightblue" d="M798.15,-138.14C852.79,-131.87 944.72,-119.17 1021.5,-98 1024.09,-97.29 1026.75,-96.45 1029.4,-95.55"/>
<polygon fill="midnightblue" stroke="midnightblue" points="1030.61,-98.84 1038.79,-92.1 1028.19,-92.27 1030.61,-98.84"/>
</g>
<!-- Node15 -->
<g id="node15" class="node">
<title>Node15</title>
<g id="a_node15"><a xlink:title=" ">
<polygon fill="white" stroke="#bfbfbf" points="1105,-73 1105,-92 1170,-92 1170,-73 1105,-73"/>
<text text-anchor="middle" x="1137.5" y="-80" font-family="Helvetica,sans-Serif" font-size="10.00">functional</text>
</a>
</g>
</g>
<!-- Node1&#45;&gt;Node15 -->
<g id="edge17" class="edge">
<title>Node1&#45;&gt;Node15</title>
<path fill="none" stroke="midnightblue" d="M798.2,-139.85C865.28,-134.73 990.99,-122.59 1095.5,-98 1098.91,-97.2 1102.43,-96.23 1105.91,-95.17"/>
<polygon fill="midnightblue" stroke="midnightblue" points="1107.1,-98.46 1115.51,-92.03 1104.92,-91.81 1107.1,-98.46"/>
</g>
<!-- Node16 -->
<g id="node16" class="node">
<title>Node16</title>
<g id="a_node16"><a xlink:title=" ">
<polygon fill="white" stroke="#bfbfbf" points="1188,-73 1188,-92 1235,-92 1235,-73 1188,-73"/>
<text text-anchor="middle" x="1211.5" y="-80" font-family="Helvetica,sans-Serif" font-size="10.00">cmath</text>
</a>
</g>
</g>
<!-- Node1&#45;&gt;Node16 -->
<g id="edge18" class="edge">
<title>Node1&#45;&gt;Node16</title>
<path fill="none" stroke="midnightblue" d="M798.06,-142.94C878.18,-141.76 1044.53,-134.63 1179.5,-98 1181.65,-97.42 1183.84,-96.7 1186.02,-95.91"/>
<polygon fill="midnightblue" stroke="midnightblue" points="1187.37,-99.14 1195.27,-92.07 1184.69,-92.67 1187.37,-99.14"/>
</g>
<!-- Node17 -->
<g id="node17" class="node">
<title>Node17</title>
<g id="a_node17"><a xlink:title=" ">
<polygon fill="white" stroke="#bfbfbf" points="1253,-67.5 1253,-97.5 1382,-97.5 1382,-67.5 1253,-67.5"/>
<text text-anchor="start" x="1261" y="-85.5" font-family="Helvetica,sans-Serif" font-size="10.00">wrapp/pipes/impl/basic</text>
<text text-anchor="middle" x="1317.5" y="-74.5" font-family="Helvetica,sans-Serif" font-size="10.00">_pipes_impl.hpp</text>
</a>
</g>
</g>
<!-- Node1&#45;&gt;Node17 -->
<g id="edge19" class="edge">
<title>Node1&#45;&gt;Node17</title>
<path fill="none" stroke="midnightblue" d="M798.04,-140.34C884.61,-135.13 1073.91,-122.07 1242.62,-98.18"/>
<polygon fill="midnightblue" stroke="midnightblue" points="1243.28,-101.63 1252.68,-96.74 1242.29,-94.7 1243.28,-101.63"/>
</g>
<!-- Node8&#45;&gt;Node6 -->
<g id="edge8" class="edge">
<title>Node8&#45;&gt;Node6</title>
<path fill="none" stroke="midnightblue" d="M797.64,-72.94C751.51,-61.27 668.87,-40.37 618.14,-27.54"/>
<polygon fill="midnightblue" stroke="midnightblue" points="618.99,-24.14 608.44,-25.08 617.27,-30.93 618.99,-24.14"/>
</g>
<!-- Node9 -->
<g id="node9" class="node">
<title>Node9</title>
<g id="a_node9"><a xlink:title=" ">
<polygon fill="white" stroke="#bfbfbf" points="673,-6 673,-25 772,-25 772,-6 673,-6"/>
<text text-anchor="middle" x="722.5" y="-13" font-family="Helvetica,sans-Serif" font-size="10.00">includes/define.h</text>
</a>
</g>
</g>
<!-- Node8&#45;&gt;Node9 -->
<g id="edge9" class="edge">
<title>Node8&#45;&gt;Node9</title>
<path fill="none" stroke="midnightblue" d="M816.8,-72.73C798.58,-61.87 767.3,-43.22 745.8,-30.39"/>
<polygon fill="midnightblue" stroke="midnightblue" points="747.35,-27.24 736.97,-25.13 743.76,-33.26 747.35,-27.24"/>
</g>
<!-- Node10 -->
<g id="node10" class="node">
<title>Node10</title>
<g id="a_node10"><a xlink:title=" ">
<polygon fill="white" stroke="#bfbfbf" points="790,-6 790,-25 859,-25 859,-6 790,-6"/>
<text text-anchor="middle" x="824.5" y="-13" font-family="Helvetica,sans-Serif" font-size="10.00">type_traits</text>
</a>
</g>
</g>
<!-- Node8&#45;&gt;Node10 -->
<g id="edge10" class="edge">
<title>Node8&#45;&gt;Node10</title>
<path fill="none" stroke="midnightblue" d="M830.56,-72.73C829.53,-63.18 827.85,-47.62 826.52,-35.28"/>
<polygon fill="midnightblue" stroke="midnightblue" points="829.98,-34.7 825.43,-25.13 823.02,-35.44 829.98,-34.7"/>
</g>
<!-- Node11 -->
<g id="node11" class="node">
<title>Node11</title>
<g id="a_node11"><a xlink:title=" ">
<polygon fill="white" stroke="#bfbfbf" points="877,-6 877,-25 922,-25 922,-6 877,-6"/>
<text text-anchor="middle" x="899.5" y="-13" font-family="Helvetica,sans-Serif" font-size="10.00">utility</text>
</a>
</g>
</g>
<!-- Node8&#45;&gt;Node11 -->
<g id="edge11" class="edge">
<title>Node8&#45;&gt;Node11</title>
<path fill="none" stroke="midnightblue" d="M840.67,-72.73C851.48,-62.4 869.65,-45.04 882.94,-32.33"/>
<polygon fill="midnightblue" stroke="midnightblue" points="885.66,-34.57 890.47,-25.13 880.83,-29.51 885.66,-34.57"/>
</g>
<!-- Node12 -->
<g id="node12" class="node">
<title>Node12</title>
<g id="a_node12"><a xlink:title=" ">
<polygon fill="white" stroke="#bfbfbf" points="940,-0.5 940,-30.5 1065,-30.5 1065,-0.5 940,-0.5"/>
<text text-anchor="start" x="948" y="-18.5" font-family="Helvetica,sans-Serif" font-size="10.00">wrapp/pipes/impl/pipe</text>
<text text-anchor="middle" x="1002.5" y="-7.5" font-family="Helvetica,sans-Serif" font-size="10.00">_impl.hpp</text>
</a>
</g>
</g>
<!-- Node8&#45;&gt;Node12 -->
<g id="edge12" class="edge">
<title>Node8&#45;&gt;Node12</title>
<path fill="none" stroke="midnightblue" d="M854.21,-72.87C880.09,-63.03 923.08,-46.69 956.13,-34.13"/>
<polygon fill="midnightblue" stroke="midnightblue" points="957.49,-37.35 965.6,-30.53 955,-30.81 957.49,-37.35"/>
</g>
<!-- Node13&#45;&gt;Node6 -->
<g id="edge15" class="edge">
<title>Node13&#45;&gt;Node6</title>
<path fill="none" stroke="midnightblue" d="M649.67,-67.4C633.72,-56.6 611.8,-41.76 595.75,-30.89"/>
<polygon fill="midnightblue" stroke="midnightblue" points="597.31,-27.72 587.06,-25.01 593.38,-33.51 597.31,-27.72"/>
</g>
<!-- Node13&#45;&gt;Node9 -->
<g id="edge14" class="edge">
<title>Node13&#45;&gt;Node9</title>
<path fill="none" stroke="midnightblue" d="M681.78,-67.4C689.81,-57.36 700.63,-43.84 709.1,-33.25"/>
<polygon fill="midnightblue" stroke="midnightblue" points="712.03,-35.19 715.54,-25.19 706.56,-30.82 712.03,-35.19"/>
</g>
</g>
</svg>
        <g id="navigator" transform="translate(0 0)" fill="#404254">
                <rect fill="#f2f5e9" fill-opacity="0.5" stroke="#606060" stroke-width=".5" x="0" y="0" width="60" height="60"/>
                <use id="zoomplus" xlink:href="#zoomPlus" x="17" y="9" onmousedown="handleZoom(evt,'in')"/>
                <use id="zoomminus" xlink:href="#zoomMin" x="42" y="9" onmousedown="handleZoom(evt,'out')"/>
                <use id="reset" xlink:href="#resetDef" x="30" y="36" onmousedown="handleReset()"/>
                <g id="arrowUp" xlink:href="#dirArrow" transform="translate(30 24)" onmousedown="handlePan(0,-1)">
                  <use xlink:href="#rim" fill="#404040">
                        <set attributeName="fill" to="#808080" begin="arrowUp.mouseover" end="arrowUp.mouseout"/>
                  </use>
                  <path fill="none" stroke="white" stroke-width="1.5" d="M0,-3.0v7 M-2.5,-0.5L0,-3.0L2.5,-0.5"/>
                </g>
                <g id="arrowRight" xlink:href="#dirArrow" transform="rotate(90) translate(36 -43)" onmousedown="handlePan(1,0)">
                  <use xlink:href="#rim" fill="#404040">
                        <set attributeName="fill" to="#808080" begin="arrowRight.mouseover" end="arrowRight.mouseout"/>
                  </use>
                  <path fill="none" stroke="white" stroke-width="1.5" d="M0,-3.0v7 M-2.5,-0.5L0,-3.0L2.5,-0.5"/>
                </g>
                <g id="arrowDown" xlink:href="#dirArrow" transform="rotate(180) translate(-30 -48)" onmousedown="handlePan(0,1)">
                  <use xlink:href="#rim" fill="#404040">
                        <set attributeName="fill" to="#808080" begin="arrowDown.mouseover" end="arrowDown.mouseout"/>
                  </use>
                  <path fill="none" stroke="white" stroke-width="1.5" d="M0,-3.0v7 M-2.5,-0.5L0,-3.0L2.5,-0.5"/>
                </g>
                <g id="arrowLeft" xlink:href="#dirArrow" transform="rotate(270) translate(-36 17)" onmousedown="handlePan(-1,0)">
                  <use xlink:href="#rim" fill="#404040">
                        <set attributeName="fill" to="#808080" begin="arrowLeft.mouseover" end="arrowLeft.mouseout"/>
                  </use>
                  <path fill="none" stroke="white" stroke-width="1.5" d="M0,-3.0v7 M-2.5,-0.5L0,-3.0L2.5,-0.5"/>
                </g>
        </g>
        <svg viewBox="0 0 15 15" width="100%" height="30px" preserveAspectRatio="xMaxYMin meet">
         <g id="arrow_out" transform="scale(0.3 0.3)">
          <a xlink:href="basic__pipes_8hpp__incl_org.svg" target="_base">
           <rect id="button" ry="5" rx="5" y="6" x="6" height="38" width="38"
                fill="#f2f5e9" fill-opacity="0.5" stroke="#606060" stroke-width="1.0"/>
           <path id="arrow"
             d="M 11.500037,31.436501 C 11.940474,20.09759 22.043105,11.32322 32.158766,21.979434 L 37.068811,17.246167 C 37.068811,17.246167 37.088388,32 37.088388,32 L 22.160133,31.978069 C 22.160133,31.978069 26.997745,27.140456 26.997745,27.140456 C 18.528582,18.264221 13.291696,25.230495 11.500037,31.436501 z"
             style="fill:#404040;"/>
          </a>
         </g>
        </svg>
</svg>
