<?xml version="1.0" encoding="UTF-8" standalone="no"?>
<!DOCTYPE svg PUBLIC "-//W3C//DTD SVG 1.1//EN"
 "http://www.w3.org/Graphics/SVG/1.1/DTD/svg11.dtd">
<!-- Generated by graphviz version 2.43.0 (0)
 -->
<!-- Title: DataType Pages: 1 -->
<svg width="326pt" height="227pt"
 viewBox="0.00 0.00 326.00 227.00" xmlns="http://www.w3.org/2000/svg" xmlns:xlink="http://www.w3.org/1999/xlink">

<svg id="main" version="1.1" xmlns="http://www.w3.org/2000/svg" xmlns:xlink="http://www.w3.org/1999/xlink" xml:space="preserve" onload="init(evt)">
<style type="text/css"><![CDATA[
.node, .edge {opacity: 0.7;}
.node.selected, .edge.selected {opacity: 1;}
.edge:hover path { stroke: red; }
.edge:hover polygon { stroke: red; fill: red; }
]]></style>
<script type="application/ecmascript" xlink:href="svg.min.js"/>
<svg id="graph" class="graph">
<g id="graph0" class="graph" transform="scale(1 1) rotate(0) translate(4 223)">
<title>DataType</title>
<!-- Node1 -->
<g id="Node000001" class="node">
<title>Node1</title>
<g id="a_Node000001"><a xlink:title=" ">
<polygon fill="#999999" stroke="transparent" points="206,-134 112,-134 112,-85 206,-85 206,-134"/>
<text text-anchor="start" x="136" y="-121.5" font-family="Helvetica,sans-Serif" font-size="10.00">DataType</text>
<text text-anchor="start" x="157" y="-106.5" font-family="Helvetica,sans-Serif" font-size="10.00"> </text>
<text text-anchor="start" x="116" y="-91.5" font-family="Helvetica,sans-Serif" font-size="10.00">+</text>
<text text-anchor="start" x="129" y="-91.5" font-family="Helvetica,sans-Serif" font-size="10.00">GetAttributes()</text>
<polygon fill="#666666" stroke="#666666" points="112,-116.5 112,-116.5 206,-116.5 206,-116.5 112,-116.5"/>
<polygon fill="#666666" stroke="#666666" points="112,-101.5 112,-101.5 206,-101.5 206,-101.5 112,-101.5"/>
<polygon fill="none" stroke="#666666" points="112,-85 112,-134 206,-134 206,-85 112,-85"/>
</a>
</g>
</g>
<!-- Node3 -->
<g id="Node000003" class="node">
<title>Node3</title>
<g id="a_Node000003"><a xlink:href="classpython__scripts_1_1xdmf_1_1DataType_1_1Float.html" target="_top" xlink:title=" ">
<polygon fill="white" stroke="transparent" points="94,-49 0,-49 0,0 94,0 94,-49"/>
<text text-anchor="start" x="34.5" y="-36.5" font-family="Helvetica,sans-Serif" font-size="10.00">Float</text>
<text text-anchor="start" x="45" y="-21.5" font-family="Helvetica,sans-Serif" font-size="10.00"> </text>
<text text-anchor="start" x="4" y="-6.5" font-family="Helvetica,sans-Serif" font-size="10.00">+</text>
<text text-anchor="start" x="17" y="-6.5" font-family="Helvetica,sans-Serif" font-size="10.00">GetAttributes()</text>
<polygon fill="#666666" stroke="#666666" points="0,-31.5 0,-31.5 94,-31.5 94,-31.5 0,-31.5"/>
<polygon fill="#666666" stroke="#666666" points="0,-16.5 0,-16.5 94,-16.5 94,-16.5 0,-16.5"/>
<polygon fill="none" stroke="#666666" points="0,0 0,-49 94,-49 94,0 0,0"/>
</a>
</g>
</g>
<!-- Node1&#45;&gt;Node3 -->
<g id="edge2_Node000001_Node000003" class="edge">
<title>Node1&#45;&gt;Node3</title>
<g id="a_edge2_Node000001_Node000003"><a xlink:title=" ">
<path fill="none" stroke="#63b8ff" d="M118.8,-78.71C105.68,-68.98 91.3,-58.33 78.87,-49.12"/>
<polygon fill="none" stroke="#63b8ff" points="117.09,-81.8 127.2,-84.94 121.25,-76.17 117.09,-81.8"/>
</a>
</g>
</g>
<!-- Node4 -->
<g id="Node000004" class="node">
<title>Node4</title>
<g id="a_Node000004"><a xlink:href="classpython__scripts_1_1xdmf_1_1DataType_1_1Int.html" target="_top" xlink:title=" ">
<polygon fill="white" stroke="transparent" points="206,-49 112,-49 112,0 206,0 206,-49"/>
<text text-anchor="start" x="152.5" y="-36.5" font-family="Helvetica,sans-Serif" font-size="10.00">Int</text>
<text text-anchor="start" x="157" y="-21.5" font-family="Helvetica,sans-Serif" font-size="10.00"> </text>
<text text-anchor="start" x="116" y="-6.5" font-family="Helvetica,sans-Serif" font-size="10.00">+</text>
<text text-anchor="start" x="129" y="-6.5" font-family="Helvetica,sans-Serif" font-size="10.00">GetAttributes()</text>
<polygon fill="#666666" stroke="#666666" points="112,-31.5 112,-31.5 206,-31.5 206,-31.5 112,-31.5"/>
<polygon fill="#666666" stroke="#666666" points="112,-16.5 112,-16.5 206,-16.5 206,-16.5 112,-16.5"/>
<polygon fill="none" stroke="#666666" points="112,0 112,-49 206,-49 206,0 112,0"/>
</a>
</g>
</g>
<!-- Node1&#45;&gt;Node4 -->
<g id="edge3_Node000001_Node000004" class="edge">
<title>Node1&#45;&gt;Node4</title>
<g id="a_edge3_Node000001_Node000004"><a xlink:title=" ">
<path fill="none" stroke="#63b8ff" d="M159,-74.77C159,-66.17 159,-57.1 159,-49.12"/>
<polygon fill="none" stroke="#63b8ff" points="155.5,-74.94 159,-84.94 162.5,-74.94 155.5,-74.94"/>
</a>
</g>
</g>
<!-- Node5 -->
<g id="Node000005" class="node">
<title>Node5</title>
<g id="a_Node000005"><a xlink:href="classpython__scripts_1_1xdmf_1_1DataType_1_1UInt.html" target="_top" xlink:title=" ">
<polygon fill="white" stroke="transparent" points="318,-49 224,-49 224,0 318,0 318,-49"/>
<text text-anchor="start" x="260.5" y="-36.5" font-family="Helvetica,sans-Serif" font-size="10.00">UInt</text>
<text text-anchor="start" x="269" y="-21.5" font-family="Helvetica,sans-Serif" font-size="10.00"> </text>
<text text-anchor="start" x="228" y="-6.5" font-family="Helvetica,sans-Serif" font-size="10.00">+</text>
<text text-anchor="start" x="241" y="-6.5" font-family="Helvetica,sans-Serif" font-size="10.00">GetAttributes()</text>
<polygon fill="#666666" stroke="#666666" points="224,-31.5 224,-31.5 318,-31.5 318,-31.5 224,-31.5"/>
<polygon fill="#666666" stroke="#666666" points="224,-16.5 224,-16.5 318,-16.5 318,-16.5 224,-16.5"/>
<polygon fill="none" stroke="#666666" points="224,0 224,-49 318,-49 318,0 224,0"/>
</a>
</g>
</g>
<!-- Node1&#45;&gt;Node5 -->
<g id="edge4_Node000001_Node000005" class="edge">
<title>Node1&#45;&gt;Node5</title>
<g id="a_edge4_Node000001_Node000005"><a xlink:title=" ">
<path fill="none" stroke="#63b8ff" d="M199.2,-78.71C212.32,-68.98 226.7,-58.33 239.13,-49.12"/>
<polygon fill="none" stroke="#63b8ff" points="196.75,-76.17 190.8,-84.94 200.91,-81.8 196.75,-76.17"/>
</a>
</g>
</g>
<!-- Node2 -->
<g id="Node000002" class="node">
<title>Node2</title>
<g id="a_Node000002"><a xlink:title=" ">
<polygon fill="white" stroke="transparent" points="174.5,-219 143.5,-219 143.5,-170 174.5,-170 174.5,-219"/>
<text text-anchor="start" x="149" y="-206.5" font-family="Helvetica,sans-Serif" font-size="10.00">ABC</text>
<text text-anchor="start" x="157.5" y="-191.5" font-family="Helvetica,sans-Serif" font-size="10.00"> </text>
<text text-anchor="start" x="157.5" y="-176.5" font-family="Helvetica,sans-Serif" font-size="10.00"> </text>
<polygon fill="#666666" stroke="#666666" points="144,-201.5 144,-201.5 175,-201.5 175,-201.5 144,-201.5"/>
<polygon fill="#666666" stroke="#666666" points="144,-186.5 144,-186.5 175,-186.5 175,-186.5 144,-186.5"/>
<polygon fill="none" stroke="#666666" points="143.5,-170 143.5,-219 174.5,-219 174.5,-170 143.5,-170"/>
</a>
</g>
</g>
<!-- Node2&#45;&gt;Node1 -->
<g id="edge1_Node000001_Node000002" class="edge">
<title>Node2&#45;&gt;Node1</title>
<g id="a_edge1_Node000001_Node000002"><a xlink:title=" ">
<path fill="none" stroke="#63b8ff" d="M159,-159.77C159,-151.17 159,-142.1 159,-134.12"/>
<polygon fill="none" stroke="#63b8ff" points="155.5,-159.94 159,-169.94 162.5,-159.94 155.5,-159.94"/>
</a>
</g>
</g>
</g>
</svg>
</svg>

<style type='text/css'>
<![CDATA[
[data-mouse-over-selected='false'] { opacity: 0.7; }
[data-mouse-over-selected='true']  { opacity: 1.0; }
]]>
</style>
<script type="application/ecmascript"><![CDATA[
document.addEventListener('DOMContentLoaded', (event) => {
  highlightEdges();
  highlightAdjacentNodes();
});
]]></script>
</svg>
