<?xml version="1.0" encoding="UTF-8" standalone="no"?>
<!DOCTYPE svg PUBLIC "-//W3C//DTD SVG 1.1//EN"
 "http://www.w3.org/Graphics/SVG/1.1/DTD/svg11.dtd">
<!-- Generated by graphviz version 2.43.0 (0)
 -->
<!-- Title: SnapshotInMemoryIO Pages: 1 -->
<svg width="306pt" height="403pt"
 viewBox="0.00 0.00 306.00 403.00" xmlns="http://www.w3.org/2000/svg" xmlns:xlink="http://www.w3.org/1999/xlink">
<g id="graph0" class="graph" transform="scale(1 1) rotate(0) translate(4 399)">
<title>SnapshotInMemoryIO</title>
<polygon fill="white" stroke="transparent" points="-4,4 -4,-399 302,-399 302,4 -4,4"/>
<!-- Node1 -->
<g id="node1" class="node">
<title>Node1</title>
<g id="a_node1"><a xlink:title="Base class for Snapshot input/output operations in memory.">
<polygon fill="#bfbfbf" stroke="black" points="75,-105.5 75,-206.5 219,-206.5 219,-105.5 75,-105.5"/>
<text text-anchor="middle" x="147" y="-194.5" font-family="Helvetica,sans-Serif" font-size="10.00">SnapshotInMemoryIO</text>
<polyline fill="none" stroke="black" points="75,-187.5 219,-187.5 "/>
<text text-anchor="middle" x="147" y="-175.5" font-family="Helvetica,sans-Serif" font-size="10.00"> </text>
<polyline fill="none" stroke="black" points="75,-168.5 219,-168.5 "/>
<text text-anchor="start" x="83" y="-156.5" font-family="Helvetica,sans-Serif" font-size="10.00">+ Erase()</text>
<text text-anchor="start" x="83" y="-145.5" font-family="Helvetica,sans-Serif" font-size="10.00">+ Exists()</text>
<text text-anchor="start" x="83" y="-134.5" font-family="Helvetica,sans-Serif" font-size="10.00">+ Glob()</text>
<text text-anchor="start" x="83" y="-123.5" font-family="Helvetica,sans-Serif" font-size="10.00">+ Clear()</text>
<text text-anchor="start" x="83" y="-112.5" font-family="Helvetica,sans-Serif" font-size="10.00">+ GetDefaultParameters()</text>
</a>
</g>
</g>
<!-- Node4 -->
<g id="node4" class="node">
<title>Node4</title>
<g id="a_node4"><a xlink:href="classpython__scripts_1_1checkpoint_1_1SnapshotInMemoryIO_1_1SnapshotInMemoryInput.html" target="_top" xlink:title="Implements Snapshot input operations in memory.">
<polygon fill="white" stroke="black" points="0,-0.5 0,-68.5 136,-68.5 136,-0.5 0,-0.5"/>
<text text-anchor="middle" x="68" y="-56.5" font-family="Helvetica,sans-Serif" font-size="10.00">SnapshotInMemoryInput</text>
<polyline fill="none" stroke="black" points="0,-49.5 136,-49.5 "/>
<text text-anchor="middle" x="68" y="-37.5" font-family="Helvetica,sans-Serif" font-size="10.00"> </text>
<polyline fill="none" stroke="black" points="0,-30.5 136,-30.5 "/>
<text text-anchor="start" x="8" y="-18.5" font-family="Helvetica,sans-Serif" font-size="10.00">+ GetEntry()</text>
<text text-anchor="start" x="8" y="-7.5" font-family="Helvetica,sans-Serif" font-size="10.00">+ GetExpression()</text>
</a>
</g>
</g>
<!-- Node1&#45;&gt;Node4 -->
<g id="edge3" class="edge">
<title>Node1&#45;&gt;Node4</title>
<path fill="none" stroke="midnightblue" d="M108.61,-96.93C102.23,-87.28 95.82,-77.58 90.03,-68.83"/>
<polygon fill="none" stroke="midnightblue" points="105.75,-98.95 114.18,-105.36 111.59,-95.09 105.75,-98.95"/>
</g>
<!-- Node5 -->
<g id="node5" class="node">
<title>Node5</title>
<g id="a_node5"><a xlink:href="classpython__scripts_1_1checkpoint_1_1SnapshotInMemoryIO_1_1SnapshotInMemoryOutput.html" target="_top" xlink:title="Implements Snapshot output operations in memory.">
<polygon fill="white" stroke="black" points="154,-6 154,-63 298,-63 298,-6 154,-6"/>
<text text-anchor="middle" x="226" y="-51" font-family="Helvetica,sans-Serif" font-size="10.00">SnapshotInMemoryOutput</text>
<polyline fill="none" stroke="black" points="154,-44 298,-44 "/>
<text text-anchor="middle" x="226" y="-32" font-family="Helvetica,sans-Serif" font-size="10.00"> </text>
<polyline fill="none" stroke="black" points="154,-25 298,-25 "/>
<text text-anchor="middle" x="226" y="-13" font-family="Helvetica,sans-Serif" font-size="10.00"> </text>
</a>
</g>
</g>
<!-- Node1&#45;&gt;Node5 -->
<g id="edge4" class="edge">
<title>Node1&#45;&gt;Node5</title>
<path fill="none" stroke="midnightblue" d="M185.42,-96.88C193.16,-85.17 200.96,-73.38 207.62,-63.31"/>
<polygon fill="none" stroke="midnightblue" points="182.41,-95.09 179.82,-105.36 188.25,-98.95 182.41,-95.09"/>
</g>
<!-- Node2 -->
<g id="node2" class="node">
<title>Node2</title>
<g id="a_node2"><a xlink:href="classpython__scripts_1_1checkpoint_1_1SnapshotIO_1_1SnapshotIO.html" target="_top" xlink:title="Interface for performing Snapshot input/output operations.">
<polygon fill="white" stroke="black" points="75,-243.5 75,-300.5 219,-300.5 219,-243.5 75,-243.5"/>
<text text-anchor="middle" x="147" y="-288.5" font-family="Helvetica,sans-Serif" font-size="10.00">SnapshotIO</text>
<polyline fill="none" stroke="black" points="75,-281.5 219,-281.5 "/>
<text text-anchor="middle" x="147" y="-269.5" font-family="Helvetica,sans-Serif" font-size="10.00"> </text>
<polyline fill="none" stroke="black" points="75,-262.5 219,-262.5 "/>
<text text-anchor="start" x="83" y="-250.5" font-family="Helvetica,sans-Serif" font-size="10.00">+ GetDefaultParameters()</text>
</a>
</g>
</g>
<!-- Node2&#45;&gt;Node1 -->
<g id="edge1" class="edge">
<title>Node2&#45;&gt;Node1</title>
<path fill="none" stroke="midnightblue" d="M147,-233.35C147,-224.8 147,-215.58 147,-206.61"/>
<polygon fill="none" stroke="midnightblue" points="143.5,-233.4 147,-243.4 150.5,-233.4 143.5,-233.4"/>
</g>
<!-- Node3 -->
<g id="node3" class="node">
<title>Node3</title>
<g id="a_node3"><a xlink:title=" ">
<polygon fill="white" stroke="#bfbfbf" points="108,-337.5 108,-394.5 186,-394.5 186,-337.5 108,-337.5"/>
<text text-anchor="middle" x="147" y="-382.5" font-family="Helvetica,sans-Serif" font-size="10.00">WRAppClass</text>
<polyline fill="none" stroke="#bfbfbf" points="108,-375.5 186,-375.5 "/>
<text text-anchor="middle" x="147" y="-363.5" font-family="Helvetica,sans-Serif" font-size="10.00"> </text>
<polyline fill="none" stroke="#bfbfbf" points="108,-356.5 186,-356.5 "/>
<text text-anchor="middle" x="147" y="-344.5" font-family="Helvetica,sans-Serif" font-size="10.00"> </text>
</a>
</g>
</g>
<!-- Node3&#45;&gt;Node2 -->
<g id="edge2" class="edge">
<title>Node3&#45;&gt;Node2</title>
<path fill="none" stroke="midnightblue" d="M147,-327.21C147,-318.29 147,-308.95 147,-300.58"/>
<polygon fill="none" stroke="midnightblue" points="143.5,-327.4 147,-337.4 150.5,-327.4 143.5,-327.4"/>
</g>
</g>
</svg>
