<?xml version="1.0" encoding="UTF-8" standalone="no"?>
<!DOCTYPE svg PUBLIC "-//W3C//DTD SVG 1.1//EN"
 "http://www.w3.org/Graphics/SVG/1.1/DTD/svg11.dtd">
<!-- Generated by graphviz version 2.43.0 (0)
 -->
<!-- Title: WorkingDirectoryOperation Pages: 1 -->
<svg width="170pt" height="171pt"
 viewBox="0.00 0.00 169.50 171.00" xmlns="http://www.w3.org/2000/svg" xmlns:xlink="http://www.w3.org/1999/xlink">
<g id="graph0" class="graph" transform="scale(1 1) rotate(0) translate(4 167)">
<title>WorkingDirectoryOperation</title>
<polygon fill="white" stroke="transparent" points="-4,4 -4,-167 165.5,-167 165.5,4 -4,4"/>
<!-- Node1 -->
<g id="node1" class="node">
<title>Node1</title>
<g id="a_node1"><a xlink:title="Change the working directory.">
<polygon fill="#bfbfbf" stroke="black" points="3,-0.5 3,-68.5 152,-68.5 152,-0.5 3,-0.5"/>
<text text-anchor="middle" x="77.5" y="-56.5" font-family="Helvetica,sans-Serif" font-size="10.00">WorkingDirectoryOperation</text>
<polyline fill="none" stroke="black" points="3,-49.5 152,-49.5 "/>
<text text-anchor="middle" x="77.5" y="-37.5" font-family="Helvetica,sans-Serif" font-size="10.00"> </text>
<polyline fill="none" stroke="black" points="3,-30.5 152,-30.5 "/>
<text text-anchor="start" x="11" y="-18.5" font-family="Helvetica,sans-Serif" font-size="10.00">+ Execute()</text>
<text text-anchor="start" x="11" y="-7.5" font-family="Helvetica,sans-Serif" font-size="10.00">+ GetDefaultParameters()</text>
</a>
</g>
</g>
<!-- Node2 -->
<g id="node2" class="node">
<title>Node2</title>
<g id="a_node2"><a xlink:title=" ">
<polygon fill="white" stroke="#bfbfbf" points="0,-105.5 0,-162.5 65,-162.5 65,-105.5 0,-105.5"/>
<text text-anchor="middle" x="32.5" y="-150.5" font-family="Helvetica,sans-Serif" font-size="10.00">Operation</text>
<polyline fill="none" stroke="#bfbfbf" points="0,-143.5 65,-143.5 "/>
<text text-anchor="middle" x="32.5" y="-131.5" font-family="Helvetica,sans-Serif" font-size="10.00"> </text>
<polyline fill="none" stroke="#bfbfbf" points="0,-124.5 65,-124.5 "/>
<text text-anchor="middle" x="32.5" y="-112.5" font-family="Helvetica,sans-Serif" font-size="10.00"> </text>
</a>
</g>
</g>
<!-- Node2&#45;&gt;Node1 -->
<g id="edge1" class="edge">
<title>Node2&#45;&gt;Node1</title>
<path fill="none" stroke="midnightblue" d="M49.48,-96.2C53.64,-87.2 58.06,-77.61 62.14,-68.79"/>
<polygon fill="none" stroke="midnightblue" points="46.29,-94.77 45.27,-105.32 52.64,-97.71 46.29,-94.77"/>
</g>
<!-- Node3 -->
<g id="node3" class="node">
<title>Node3</title>
<g id="a_node3"><a xlink:title=" ">
<polygon fill="white" stroke="#bfbfbf" points="83.5,-105.5 83.5,-162.5 161.5,-162.5 161.5,-105.5 83.5,-105.5"/>
<text text-anchor="middle" x="122.5" y="-150.5" font-family="Helvetica,sans-Serif" font-size="10.00">WRAppClass</text>
<polyline fill="none" stroke="#bfbfbf" points="83.5,-143.5 161.5,-143.5 "/>
<text text-anchor="middle" x="122.5" y="-131.5" font-family="Helvetica,sans-Serif" font-size="10.00"> </text>
<polyline fill="none" stroke="#bfbfbf" points="83.5,-124.5 161.5,-124.5 "/>
<text text-anchor="middle" x="122.5" y="-112.5" font-family="Helvetica,sans-Serif" font-size="10.00"> </text>
</a>
</g>
</g>
<!-- Node3&#45;&gt;Node1 -->
<g id="edge2" class="edge">
<title>Node3&#45;&gt;Node1</title>
<path fill="none" stroke="midnightblue" d="M105.52,-96.2C101.36,-87.2 96.94,-77.61 92.86,-68.79"/>
<polygon fill="none" stroke="midnightblue" points="102.36,-97.71 109.73,-105.32 108.71,-94.77 102.36,-97.71"/>
</g>
</g>
</svg>
