<?xml version="1.0" encoding="UTF-8" standalone="no"?>
<!DOCTYPE svg PUBLIC "-//W3C//DTD SVG 1.1//EN"
 "http://www.w3.org/Graphics/SVG/1.1/DTD/svg11.dtd">
<!-- Generated by graphviz version 2.43.0 (0)
 -->
<!-- Title: CoordinateDataItem Pages: 1 -->
<svg width="119pt" height="227pt"
 viewBox="0.00 0.00 118.50 227.00" xmlns="http://www.w3.org/2000/svg" xmlns:xlink="http://www.w3.org/1999/xlink">

<svg id="main" version="1.1" xmlns="http://www.w3.org/2000/svg" xmlns:xlink="http://www.w3.org/1999/xlink" xml:space="preserve" onload="init(evt)">
<style type="text/css"><![CDATA[
.node, .edge {opacity: 0.7;}
.node.selected, .edge.selected {opacity: 1;}
.edge:hover path { stroke: red; }
.edge:hover polygon { stroke: red; fill: red; }
]]></style>
<script type="application/ecmascript" xlink:href="svg.min.js"/>
<svg id="graph" class="graph">
<g id="graph0" class="graph" transform="scale(1 1) rotate(0) translate(4 223)">
<title>CoordinateDataItem</title>
<!-- Node1 -->
<g id="Node000001" class="node">
<title>Node1</title>
<g id="a_Node000001"><a xlink:title=" ">
<polygon fill="#999999" stroke="transparent" points="110,-49 0,-49 0,0 110,0 110,-49"/>
<text text-anchor="start" x="5" y="-36.5" font-family="Helvetica,sans-Serif" font-size="10.00">CoordinateDataItem</text>
<text text-anchor="start" x="53" y="-21.5" font-family="Helvetica,sans-Serif" font-size="10.00"> </text>
<text text-anchor="start" x="12.5" y="-6.5" font-family="Helvetica,sans-Serif" font-size="10.00">+</text>
<text text-anchor="start" x="34" y="-6.5" font-family="Helvetica,sans-Serif" font-size="10.00">GetShape()</text>
<polygon fill="#666666" stroke="#666666" points="0,-31.5 0,-31.5 110,-31.5 110,-31.5 0,-31.5"/>
<polygon fill="#666666" stroke="#666666" points="0,-16.5 0,-16.5 110,-16.5 110,-16.5 0,-16.5"/>
<polygon fill="none" stroke="#666666" points="0,0 0,-49 110,-49 110,0 0,0"/>
</a>
</g>
</g>
<!-- Node2 -->
<g id="Node000002" class="node">
<title>Node2</title>
<g id="a_Node000002"><a xlink:href="classpython__scripts_1_1xdmf_1_1DataItem_1_1DataItem.html" target="_top" xlink:title=" ">
<polygon fill="white" stroke="transparent" points="93,-134 17,-134 17,-85 93,-85 93,-134"/>
<text text-anchor="start" x="32" y="-121.5" font-family="Helvetica,sans-Serif" font-size="10.00">DataItem</text>
<text text-anchor="start" x="53" y="-106.5" font-family="Helvetica,sans-Serif" font-size="10.00"> </text>
<text text-anchor="start" x="21" y="-91.5" font-family="Helvetica,sans-Serif" font-size="10.00">+</text>
<text text-anchor="start" x="34" y="-91.5" font-family="Helvetica,sans-Serif" font-size="10.00">GetShape()</text>
<polygon fill="#666666" stroke="#666666" points="17,-116.5 17,-116.5 93,-116.5 93,-116.5 17,-116.5"/>
<polygon fill="#666666" stroke="#666666" points="17,-101.5 17,-101.5 93,-101.5 93,-101.5 17,-101.5"/>
<polygon fill="none" stroke="#666666" points="17,-85 17,-134 93,-134 93,-85 17,-85"/>
</a>
</g>
</g>
<!-- Node2&#45;&gt;Node1 -->
<g id="edge1_Node000001_Node000002" class="edge">
<title>Node2&#45;&gt;Node1</title>
<g id="a_edge1_Node000001_Node000002"><a xlink:title=" ">
<path fill="none" stroke="#63b8ff" d="M55,-74.77C55,-66.17 55,-57.1 55,-49.12"/>
<polygon fill="none" stroke="#63b8ff" points="51.5,-74.94 55,-84.94 58.5,-74.94 51.5,-74.94"/>
</a>
</g>
</g>
<!-- Node3 -->
<g id="Node000003" class="node">
<title>Node3</title>
<g id="a_Node000003"><a xlink:title=" ">
<polygon fill="white" stroke="transparent" points="41.5,-219 10.5,-219 10.5,-170 41.5,-170 41.5,-219"/>
<text text-anchor="start" x="16" y="-206.5" font-family="Helvetica,sans-Serif" font-size="10.00">ABC</text>
<text text-anchor="start" x="24.5" y="-191.5" font-family="Helvetica,sans-Serif" font-size="10.00"> </text>
<text text-anchor="start" x="24.5" y="-176.5" font-family="Helvetica,sans-Serif" font-size="10.00"> </text>
<polygon fill="#666666" stroke="#666666" points="11,-201.5 11,-201.5 42,-201.5 42,-201.5 11,-201.5"/>
<polygon fill="#666666" stroke="#666666" points="11,-186.5 11,-186.5 42,-186.5 42,-186.5 11,-186.5"/>
<polygon fill="none" stroke="#666666" points="10.5,-170 10.5,-219 41.5,-219 41.5,-170 10.5,-170"/>
</a>
</g>
</g>
<!-- Node3&#45;&gt;Node2 -->
<g id="edge2_Node000002_Node000003" class="edge">
<title>Node3&#45;&gt;Node2</title>
<g id="a_edge2_Node000002_Node000003"><a xlink:title=" ">
<path fill="none" stroke="#63b8ff" d="M37.59,-160.34C40.65,-151.57 43.9,-142.28 46.75,-134.12"/>
<polygon fill="none" stroke="#63b8ff" points="34.23,-159.34 34.23,-169.94 40.84,-161.65 34.23,-159.34"/>
</a>
</g>
</g>
<!-- Node4 -->
<g id="Node000004" class="node">
<title>Node4</title>
<g id="a_Node000004"><a xlink:title=" ">
<polygon fill="white" stroke="transparent" points="110.5,-219 59.5,-219 59.5,-170 110.5,-170 110.5,-219"/>
<text text-anchor="start" x="65" y="-206.5" font-family="Helvetica,sans-Serif" font-size="10.00">Element</text>
<text text-anchor="start" x="83.5" y="-191.5" font-family="Helvetica,sans-Serif" font-size="10.00"> </text>
<text text-anchor="start" x="83.5" y="-176.5" font-family="Helvetica,sans-Serif" font-size="10.00"> </text>
<polygon fill="#666666" stroke="#666666" points="60,-201.5 60,-201.5 111,-201.5 111,-201.5 60,-201.5"/>
<polygon fill="#666666" stroke="#666666" points="60,-186.5 60,-186.5 111,-186.5 111,-186.5 60,-186.5"/>
<polygon fill="none" stroke="#666666" points="59.5,-170 59.5,-219 110.5,-219 110.5,-170 59.5,-170"/>
</a>
</g>
</g>
<!-- Node4&#45;&gt;Node2 -->
<g id="edge3_Node000002_Node000004" class="edge">
<title>Node4&#45;&gt;Node2</title>
<g id="a_edge3_Node000002_Node000004"><a xlink:title=" ">
<path fill="none" stroke="#63b8ff" d="M73.01,-160.34C69.84,-151.57 66.48,-142.28 63.54,-134.12"/>
<polygon fill="none" stroke="#63b8ff" points="69.79,-161.72 76.48,-169.94 76.38,-159.34 69.79,-161.72"/>
</a>
</g>
</g>
</g>
</svg>
</svg>

<style type='text/css'>
<![CDATA[
[data-mouse-over-selected='false'] { opacity: 0.7; }
[data-mouse-over-selected='true']  { opacity: 1.0; }
]]>
</style>
<script type="application/ecmascript"><![CDATA[
document.addEventListener('DOMContentLoaded', (event) => {
  highlightEdges();
  highlightAdjacentNodes();
});
]]></script>
</svg>
