<?xml version="1.0" encoding="UTF-8" standalone="no"?>
<!DOCTYPE svg PUBLIC "-//W3C//DTD SVG 1.1//EN"
 "http://www.w3.org/Graphics/SVG/1.1/DTD/svg11.dtd">
<!-- Generated by graphviz version 2.43.0 (0)
 -->
<!-- Title: GenerateXDMF Pages: 1 -->
<svg width="242pt" height="171pt"
 viewBox="0.00 0.00 242.00 171.00" xmlns="http://www.w3.org/2000/svg" xmlns:xlink="http://www.w3.org/1999/xlink">
<g id="graph0" class="graph" transform="scale(1 1) rotate(0) translate(4 167)">
<title>GenerateXDMF</title>
<polygon fill="white" stroke="transparent" points="-4,4 -4,-167 238,-167 238,4 -4,4"/>
<!-- Node1 -->
<g id="node1" class="node">
<title>Node1</title>
<g id="a_node1"><a xlink:title="Generate XDMF output for an existing set of HDF5 output files.">
<polygon fill="#bfbfbf" stroke="black" points="33,-0.5 33,-68.5 177,-68.5 177,-0.5 33,-0.5"/>
<text text-anchor="middle" x="105" y="-56.5" font-family="Helvetica,sans-Serif" font-size="10.00">GenerateXDMF</text>
<polyline fill="none" stroke="black" points="33,-49.5 177,-49.5 "/>
<text text-anchor="middle" x="105" y="-37.5" font-family="Helvetica,sans-Serif" font-size="10.00"> </text>
<polyline fill="none" stroke="black" points="33,-30.5 177,-30.5 "/>
<text text-anchor="start" x="41" y="-18.5" font-family="Helvetica,sans-Serif" font-size="10.00">+ Execute()</text>
<text text-anchor="start" x="41" y="-7.5" font-family="Helvetica,sans-Serif" font-size="10.00">+ GetDefaultParameters()</text>
</a>
</g>
</g>
<!-- Node2 -->
<g id="node2" class="node">
<title>Node2</title>
<g id="a_node2"><a xlink:title=" ">
<polygon fill="white" stroke="#bfbfbf" points="0,-105.5 0,-162.5 54,-162.5 54,-105.5 0,-105.5"/>
<text text-anchor="middle" x="27" y="-150.5" font-family="Helvetica,sans-Serif" font-size="10.00">Process</text>
<polyline fill="none" stroke="#bfbfbf" points="0,-143.5 54,-143.5 "/>
<text text-anchor="middle" x="27" y="-131.5" font-family="Helvetica,sans-Serif" font-size="10.00"> </text>
<polyline fill="none" stroke="#bfbfbf" points="0,-124.5 54,-124.5 "/>
<text text-anchor="middle" x="27" y="-112.5" font-family="Helvetica,sans-Serif" font-size="10.00"> </text>
</a>
</g>
</g>
<!-- Node2&#45;&gt;Node1 -->
<g id="edge1" class="edge">
<title>Node2&#45;&gt;Node1</title>
<path fill="none" stroke="midnightblue" d="M55.53,-97.34C62.99,-88.01 71.01,-77.99 78.37,-68.79"/>
<polygon fill="none" stroke="midnightblue" points="52.66,-95.33 49.14,-105.32 58.12,-99.7 52.66,-95.33"/>
</g>
<!-- Node3 -->
<g id="node3" class="node">
<title>Node3</title>
<g id="a_node3"><a xlink:title=" ">
<polygon fill="white" stroke="#bfbfbf" points="72.5,-105.5 72.5,-162.5 137.5,-162.5 137.5,-105.5 72.5,-105.5"/>
<text text-anchor="middle" x="105" y="-150.5" font-family="Helvetica,sans-Serif" font-size="10.00">Operation</text>
<polyline fill="none" stroke="#bfbfbf" points="72.5,-143.5 137.5,-143.5 "/>
<text text-anchor="middle" x="105" y="-131.5" font-family="Helvetica,sans-Serif" font-size="10.00"> </text>
<polyline fill="none" stroke="#bfbfbf" points="72.5,-124.5 137.5,-124.5 "/>
<text text-anchor="middle" x="105" y="-112.5" font-family="Helvetica,sans-Serif" font-size="10.00"> </text>
</a>
</g>
</g>
<!-- Node3&#45;&gt;Node1 -->
<g id="edge2" class="edge">
<title>Node3&#45;&gt;Node1</title>
<path fill="none" stroke="midnightblue" d="M105,-95.06C105,-86.39 105,-77.24 105,-68.79"/>
<polygon fill="none" stroke="midnightblue" points="101.5,-95.32 105,-105.32 108.5,-95.32 101.5,-95.32"/>
</g>
<!-- Node4 -->
<g id="node4" class="node">
<title>Node4</title>
<g id="a_node4"><a xlink:title=" ">
<polygon fill="white" stroke="#bfbfbf" points="156,-105.5 156,-162.5 234,-162.5 234,-105.5 156,-105.5"/>
<text text-anchor="middle" x="195" y="-150.5" font-family="Helvetica,sans-Serif" font-size="10.00">WRAppClass</text>
<polyline fill="none" stroke="#bfbfbf" points="156,-143.5 234,-143.5 "/>
<text text-anchor="middle" x="195" y="-131.5" font-family="Helvetica,sans-Serif" font-size="10.00"> </text>
<polyline fill="none" stroke="#bfbfbf" points="156,-124.5 234,-124.5 "/>
<text text-anchor="middle" x="195" y="-112.5" font-family="Helvetica,sans-Serif" font-size="10.00"> </text>
</a>
</g>
</g>
<!-- Node4&#45;&gt;Node1 -->
<g id="edge3" class="edge">
<title>Node4&#45;&gt;Node1</title>
<path fill="none" stroke="midnightblue" d="M162.6,-97.9C153.84,-88.41 144.39,-78.17 135.73,-68.79"/>
<polygon fill="none" stroke="midnightblue" points="160.1,-100.35 169.45,-105.32 165.24,-95.6 160.1,-100.35"/>
</g>
</g>
</svg>
