<?xml version="1.0" encoding="UTF-8" standalone="no"?>
<!DOCTYPE svg PUBLIC "-//W3C//DTD SVG 1.1//EN"
 "http://www.w3.org/Graphics/SVG/1.1/DTD/svg11.dtd">
<!-- Generated by graphviz version 2.43.0 (0)
 -->
<!-- Title: SnapshotManager Pages: 1 -->
<svg width="324pt" height="320pt"
 viewBox="0.00 0.00 324.00 320.00" xmlns="http://www.w3.org/2000/svg" xmlns:xlink="http://www.w3.org/1999/xlink">
<g id="graph0" class="graph" transform="scale(1 1) rotate(0) translate(4 316)">
<title>SnapshotManager</title>
<polygon fill="white" stroke="transparent" points="-4,4 -4,-316 320,-316 320,4 -4,4"/>
<!-- Node1 -->
<g id="node1" class="node">
<title>Node1</title>
<g id="a_node1"><a xlink:title="Interface for Snapshot lifetime management.">
<polygon fill="#bfbfbf" stroke="black" points="83,-116.5 83,-217.5 227,-217.5 227,-116.5 83,-116.5"/>
<text text-anchor="middle" x="155" y="-205.5" font-family="Helvetica,sans-Serif" font-size="10.00">SnapshotManager</text>
<polyline fill="none" stroke="black" points="83,-198.5 227,-198.5 "/>
<text text-anchor="middle" x="155" y="-186.5" font-family="Helvetica,sans-Serif" font-size="10.00"> </text>
<polyline fill="none" stroke="black" points="83,-179.5 227,-179.5 "/>
<text text-anchor="start" x="91" y="-167.5" font-family="Helvetica,sans-Serif" font-size="10.00">+ Add()</text>
<text text-anchor="start" x="91" y="-156.5" font-family="Helvetica,sans-Serif" font-size="10.00">+ Get()</text>
<text text-anchor="start" x="91" y="-145.5" font-family="Helvetica,sans-Serif" font-size="10.00">+ Erase()</text>
<text text-anchor="start" x="91" y="-134.5" font-family="Helvetica,sans-Serif" font-size="10.00">+ EraseObsolete()</text>
<text text-anchor="start" x="91" y="-123.5" font-family="Helvetica,sans-Serif" font-size="10.00">+ GetDefaultParameters()</text>
</a>
</g>
</g>
<!-- Node4 -->
<g id="node4" class="node">
<title>Node4</title>
<g id="a_node4"><a xlink:href="classpython__scripts_1_1checkpoint_1_1HDF5Snapshot_1_1HDF5SnapshotManager.html" target="_top" xlink:title="Snapshot manager specialized for HDF5Snapshot.">
<polygon fill="white" stroke="black" points="0,-0.5 0,-79.5 144,-79.5 144,-0.5 0,-0.5"/>
<text text-anchor="middle" x="72" y="-67.5" font-family="Helvetica,sans-Serif" font-size="10.00">HDF5SnapshotManager</text>
<polyline fill="none" stroke="black" points="0,-60.5 144,-60.5 "/>
<text text-anchor="middle" x="72" y="-48.5" font-family="Helvetica,sans-Serif" font-size="10.00"> </text>
<polyline fill="none" stroke="black" points="0,-41.5 144,-41.5 "/>
<text text-anchor="start" x="8" y="-29.5" font-family="Helvetica,sans-Serif" font-size="10.00">+ Get()</text>
<text text-anchor="start" x="8" y="-18.5" font-family="Helvetica,sans-Serif" font-size="10.00">+ Erase()</text>
<text text-anchor="start" x="8" y="-7.5" font-family="Helvetica,sans-Serif" font-size="10.00">+ GetDefaultParameters()</text>
</a>
</g>
</g>
<!-- Node1&#45;&gt;Node4 -->
<g id="edge3" class="edge">
<title>Node1&#45;&gt;Node4</title>
<path fill="none" stroke="midnightblue" d="M116.24,-107.63C109.98,-98.19 103.63,-88.63 97.77,-79.81"/>
<polygon fill="none" stroke="midnightblue" points="113.51,-109.84 121.96,-116.24 119.34,-105.97 113.51,-109.84"/>
</g>
<!-- Node5 -->
<g id="node5" class="node">
<title>Node5</title>
<g id="a_node5"><a xlink:href="classpython__scripts_1_1checkpoint_1_1SnapshotInMemory_1_1SnapshotInMemoryManager.html" target="_top" xlink:title=" ">
<polygon fill="white" stroke="black" points="162,-6 162,-74 316,-74 316,-6 162,-6"/>
<text text-anchor="middle" x="239" y="-62" font-family="Helvetica,sans-Serif" font-size="10.00">SnapshotInMemoryManager</text>
<polyline fill="none" stroke="black" points="162,-55 316,-55 "/>
<text text-anchor="middle" x="239" y="-43" font-family="Helvetica,sans-Serif" font-size="10.00"> </text>
<polyline fill="none" stroke="black" points="162,-36 316,-36 "/>
<text text-anchor="start" x="170" y="-24" font-family="Helvetica,sans-Serif" font-size="10.00">+ Erase()</text>
<text text-anchor="start" x="170" y="-13" font-family="Helvetica,sans-Serif" font-size="10.00">+ GetDefaultParameters()</text>
</a>
</g>
</g>
<!-- Node1&#45;&gt;Node5 -->
<g id="edge4" class="edge">
<title>Node1&#45;&gt;Node5</title>
<path fill="none" stroke="midnightblue" d="M194.07,-107.86C201.86,-96.27 209.78,-84.48 216.76,-74.1"/>
<polygon fill="none" stroke="midnightblue" points="191.11,-105.99 188.44,-116.24 196.92,-109.89 191.11,-105.99"/>
</g>
<!-- Node2 -->
<g id="node2" class="node">
<title>Node2</title>
<g id="a_node2"><a xlink:title=" ">
<polygon fill="white" stroke="#bfbfbf" points="80.5,-254.5 80.5,-311.5 147.5,-311.5 147.5,-254.5 80.5,-254.5"/>
<text text-anchor="middle" x="114" y="-299.5" font-family="Helvetica,sans-Serif" font-size="10.00">metaclass</text>
<polyline fill="none" stroke="#bfbfbf" points="80.5,-292.5 147.5,-292.5 "/>
<text text-anchor="middle" x="114" y="-280.5" font-family="Helvetica,sans-Serif" font-size="10.00"> </text>
<polyline fill="none" stroke="#bfbfbf" points="80.5,-273.5 147.5,-273.5 "/>
<text text-anchor="middle" x="114" y="-261.5" font-family="Helvetica,sans-Serif" font-size="10.00"> </text>
</a>
</g>
</g>
<!-- Node2&#45;&gt;Node1 -->
<g id="edge1" class="edge">
<title>Node2&#45;&gt;Node1</title>
<path fill="none" stroke="midnightblue" d="M127.34,-244.92C130.47,-236.2 133.86,-226.78 137.16,-217.61"/>
<polygon fill="none" stroke="midnightblue" points="124.02,-243.81 123.92,-254.4 130.6,-246.18 124.02,-243.81"/>
</g>
<!-- Node3 -->
<g id="node3" class="node">
<title>Node3</title>
<g id="a_node3"><a xlink:title=" ">
<polygon fill="white" stroke="#bfbfbf" points="166,-254.5 166,-311.5 228,-311.5 228,-254.5 166,-254.5"/>
<text text-anchor="middle" x="197" y="-299.5" font-family="Helvetica,sans-Serif" font-size="10.00">ABCMeta</text>
<polyline fill="none" stroke="#bfbfbf" points="166,-292.5 228,-292.5 "/>
<text text-anchor="middle" x="197" y="-280.5" font-family="Helvetica,sans-Serif" font-size="10.00"> </text>
<polyline fill="none" stroke="#bfbfbf" points="166,-273.5 228,-273.5 "/>
<text text-anchor="middle" x="197" y="-261.5" font-family="Helvetica,sans-Serif" font-size="10.00"> </text>
</a>
</g>
</g>
<!-- Node3&#45;&gt;Node1 -->
<g id="edge2" class="edge">
<title>Node3&#45;&gt;Node1</title>
<path fill="none" stroke="midnightblue" d="M183.34,-244.92C180.13,-236.2 176.65,-226.78 173.28,-217.61"/>
<polygon fill="none" stroke="midnightblue" points="180.09,-246.23 186.83,-254.4 186.66,-243.81 180.09,-246.23"/>
</g>
</g>
</svg>
