<?xml version="1.0" encoding="UTF-8" standalone="no"?>
<!DOCTYPE svg PUBLIC "-//W3C//DTD SVG 1.1//EN"
 "http://www.w3.org/Graphics/SVG/1.1/DTD/svg11.dtd">
<!-- Generated by graphviz version 2.43.0 (0)
 -->
<!-- Title: Data Pages: 1 -->
<svg width="214pt" height="287pt"
 viewBox="0.00 0.00 214.00 287.00" xmlns="http://www.w3.org/2000/svg" xmlns:xlink="http://www.w3.org/1999/xlink">

<svg id="main" version="1.1" xmlns="http://www.w3.org/2000/svg" xmlns:xlink="http://www.w3.org/1999/xlink" xml:space="preserve" onload="init(evt)">
<style type="text/css"><![CDATA[
.node, .edge {opacity: 0.7;}
.node.selected, .edge.selected {opacity: 1;}
.edge:hover path { stroke: red; }
.edge:hover polygon { stroke: red; fill: red; }
]]></style>
<script type="application/ecmascript" xlink:href="svg.min.js"/>
<svg id="graph" class="graph">
<g id="graph0" class="graph" transform="scale(1 1) rotate(0) translate(4 283)">
<title>Data</title>
<!-- Node1 -->
<g id="Node000001" class="node">
<title>Node1</title>
<g id="a_Node000001"><a xlink:title=" ">
<polygon fill="#999999" stroke="transparent" points="150,-194 56,-194 56,-115 150,-115 150,-194"/>
<text text-anchor="start" x="91" y="-181.5" font-family="Helvetica,sans-Serif" font-size="10.00">Data</text>
<text text-anchor="start" x="101" y="-166.5" font-family="Helvetica,sans-Serif" font-size="10.00"> </text>
<text text-anchor="start" x="60" y="-151.5" font-family="Helvetica,sans-Serif" font-size="10.00">+</text>
<text text-anchor="start" x="73" y="-151.5" font-family="Helvetica,sans-Serif" font-size="10.00">GetAttributes()</text>
<text text-anchor="start" x="60" y="-136.5" font-family="Helvetica,sans-Serif" font-size="10.00">+</text>
<text text-anchor="start" x="73" y="-136.5" font-family="Helvetica,sans-Serif" font-size="10.00">GetShape()</text>
<text text-anchor="start" x="60" y="-121.5" font-family="Helvetica,sans-Serif" font-size="10.00">+</text>
<text text-anchor="start" x="73" y="-121.5" font-family="Helvetica,sans-Serif" font-size="10.00">GetText()</text>
<polygon fill="#666666" stroke="#666666" points="56,-176.5 56,-176.5 150,-176.5 150,-176.5 56,-176.5"/>
<polygon fill="#666666" stroke="#666666" points="56,-161.5 56,-161.5 150,-161.5 150,-161.5 56,-161.5"/>
<polygon fill="none" stroke="#666666" points="56,-115 56,-194 150,-194 150,-115 56,-115"/>
</a>
</g>
</g>
<!-- Node3 -->
<g id="Node000003" class="node">
<title>Node3</title>
<g id="a_Node000003"><a xlink:href="classpython__scripts_1_1xdmf_1_1Data_1_1HDF5Data.html" target="_top" xlink:title=" ">
<polygon fill="white" stroke="transparent" points="94,-79 0,-79 0,0 94,0 94,-79"/>
<text text-anchor="start" x="21.5" y="-66.5" font-family="Helvetica,sans-Serif" font-size="10.00">HDF5Data</text>
<text text-anchor="start" x="45" y="-51.5" font-family="Helvetica,sans-Serif" font-size="10.00"> </text>
<text text-anchor="start" x="4" y="-36.5" font-family="Helvetica,sans-Serif" font-size="10.00">+</text>
<text text-anchor="start" x="17" y="-36.5" font-family="Helvetica,sans-Serif" font-size="10.00">GetAttributes()</text>
<text text-anchor="start" x="4" y="-21.5" font-family="Helvetica,sans-Serif" font-size="10.00">+</text>
<text text-anchor="start" x="17" y="-21.5" font-family="Helvetica,sans-Serif" font-size="10.00">GetText()</text>
<text text-anchor="start" x="4" y="-6.5" font-family="Helvetica,sans-Serif" font-size="10.00">+</text>
<text text-anchor="start" x="17" y="-6.5" font-family="Helvetica,sans-Serif" font-size="10.00">FromDataset()</text>
<polygon fill="#666666" stroke="#666666" points="0,-61.5 0,-61.5 94,-61.5 94,-61.5 0,-61.5"/>
<polygon fill="#666666" stroke="#666666" points="0,-46.5 0,-46.5 94,-46.5 94,-46.5 0,-46.5"/>
<polygon fill="none" stroke="#666666" points="0,0 0,-79 94,-79 94,0 0,0"/>
</a>
</g>
</g>
<!-- Node1&#45;&gt;Node3 -->
<g id="edge2_Node000001_Node000003" class="edge">
<title>Node1&#45;&gt;Node3</title>
<g id="a_edge2_Node000001_Node000003"><a xlink:title=" ">
<path fill="none" stroke="#63b8ff" d="M79.38,-105.84C74.99,-96.99 70.46,-87.83 66.22,-79.28"/>
<polygon fill="none" stroke="#63b8ff" points="76.31,-107.52 83.88,-114.93 82.58,-104.41 76.31,-107.52"/>
</a>
</g>
</g>
<!-- Node4 -->
<g id="Node000004" class="node">
<title>Node4</title>
<g id="a_Node000004"><a xlink:href="classpython__scripts_1_1xdmf_1_1Data_1_1XmlData.html" target="_top" xlink:title=" ">
<polygon fill="white" stroke="transparent" points="206,-71.5 112,-71.5 112,-7.5 206,-7.5 206,-71.5"/>
<text text-anchor="start" x="137.5" y="-59.5" font-family="Helvetica,sans-Serif" font-size="10.00">XmlData</text>
<text text-anchor="start" x="157" y="-44.5" font-family="Helvetica,sans-Serif" font-size="10.00"> </text>
<text text-anchor="start" x="116" y="-29.5" font-family="Helvetica,sans-Serif" font-size="10.00">+</text>
<text text-anchor="start" x="129" y="-29.5" font-family="Helvetica,sans-Serif" font-size="10.00">GetAttributes()</text>
<text text-anchor="start" x="116" y="-14.5" font-family="Helvetica,sans-Serif" font-size="10.00">+</text>
<text text-anchor="start" x="129" y="-14.5" font-family="Helvetica,sans-Serif" font-size="10.00">GetText()</text>
<polygon fill="#666666" stroke="#666666" points="112,-54.5 112,-54.5 206,-54.5 206,-54.5 112,-54.5"/>
<polygon fill="#666666" stroke="#666666" points="112,-39.5 112,-39.5 206,-39.5 206,-39.5 112,-39.5"/>
<polygon fill="none" stroke="#666666" points="112,-7.5 112,-71.5 206,-71.5 206,-7.5 112,-7.5"/>
</a>
</g>
</g>
<!-- Node1&#45;&gt;Node4 -->
<g id="edge3_Node000001_Node000004" class="edge">
<title>Node1&#45;&gt;Node4</title>
<g id="a_edge3_Node000001_Node000004"><a xlink:title=" ">
<path fill="none" stroke="#63b8ff" d="M126.62,-105.84C132.32,-94.34 138.27,-82.33 143.49,-71.79"/>
<polygon fill="none" stroke="#63b8ff" points="123.42,-104.41 122.12,-114.93 129.69,-107.52 123.42,-104.41"/>
</a>
</g>
</g>
<!-- Node2 -->
<g id="Node000002" class="node">
<title>Node2</title>
<g id="a_Node000002"><a xlink:title=" ">
<polygon fill="white" stroke="transparent" points="118.5,-279 87.5,-279 87.5,-230 118.5,-230 118.5,-279"/>
<text text-anchor="start" x="93" y="-266.5" font-family="Helvetica,sans-Serif" font-size="10.00">ABC</text>
<text text-anchor="start" x="101.5" y="-251.5" font-family="Helvetica,sans-Serif" font-size="10.00"> </text>
<text text-anchor="start" x="101.5" y="-236.5" font-family="Helvetica,sans-Serif" font-size="10.00"> </text>
<polygon fill="#666666" stroke="#666666" points="88,-261.5 88,-261.5 119,-261.5 119,-261.5 88,-261.5"/>
<polygon fill="#666666" stroke="#666666" points="88,-246.5 88,-246.5 119,-246.5 119,-246.5 88,-246.5"/>
<polygon fill="none" stroke="#666666" points="87.5,-230 87.5,-279 118.5,-279 118.5,-230 87.5,-230"/>
</a>
</g>
</g>
<!-- Node2&#45;&gt;Node1 -->
<g id="edge1_Node000001_Node000002" class="edge">
<title>Node2&#45;&gt;Node1</title>
<g id="a_edge1_Node000001_Node000002"><a xlink:title=" ">
<path fill="none" stroke="#63b8ff" d="M103,-219.52C103,-211.38 103,-202.63 103,-194.29"/>
<polygon fill="none" stroke="#63b8ff" points="99.5,-219.78 103,-229.78 106.5,-219.78 99.5,-219.78"/>
</a>
</g>
</g>
</g>
</svg>
</svg>

<style type='text/css'>
<![CDATA[
[data-mouse-over-selected='false'] { opacity: 0.7; }
[data-mouse-over-selected='true']  { opacity: 1.0; }
]]>
</style>
<script type="application/ecmascript"><![CDATA[
document.addEventListener('DOMContentLoaded', (event) => {
  highlightEdges();
  highlightAdjacentNodes();
});
]]></script>
</svg>
