<?xml version="1.0" encoding="UTF-8" standalone="no"?>
<!DOCTYPE svg PUBLIC "-//W3C//DTD SVG 1.1//EN"
 "http://www.w3.org/Graphics/SVG/1.1/DTD/svg11.dtd">
<!-- Generated by graphviz version 2.43.0 (0)
 -->
<!-- Title: Dataset Pages: 1 -->
<svg width="314pt" height="342pt"
 viewBox="0.00 0.00 314.00 342.00" xmlns="http://www.w3.org/2000/svg" xmlns:xlink="http://www.w3.org/1999/xlink">
<g id="graph0" class="graph" transform="scale(1 1) rotate(0) translate(4 338)">
<title>Dataset</title>
<polygon fill="white" stroke="transparent" points="-4,4 -4,-338 310,-338 310,4 -4,4"/>
<!-- Node1 -->
<g id="node1" class="node">
<title>Node1</title>
<g id="a_node1"><a xlink:title="Class representing a dataset that can be operated on during coupling.">
<polygon fill="#bfbfbf" stroke="black" points="108.5,-138.5 108.5,-239.5 197.5,-239.5 197.5,-138.5 108.5,-138.5"/>
<text text-anchor="middle" x="153" y="-227.5" font-family="Helvetica,sans-Serif" font-size="10.00">Dataset</text>
<polyline fill="none" stroke="black" points="108.5,-220.5 197.5,-220.5 "/>
<text text-anchor="middle" x="153" y="-208.5" font-family="Helvetica,sans-Serif" font-size="10.00"> </text>
<polyline fill="none" stroke="black" points="108.5,-201.5 197.5,-201.5 "/>
<text text-anchor="start" x="116.5" y="-189.5" font-family="Helvetica,sans-Serif" font-size="10.00">+ Factory()</text>
<text text-anchor="start" x="116.5" y="-178.5" font-family="Helvetica,sans-Serif" font-size="10.00">+ Fetch()</text>
<text text-anchor="start" x="116.5" y="-167.5" font-family="Helvetica,sans-Serif" font-size="10.00">+ Assign()</text>
<text text-anchor="start" x="116.5" y="-156.5" font-family="Helvetica,sans-Serif" font-size="10.00">+ expression()</text>
<text text-anchor="start" x="116.5" y="-145.5" font-family="Helvetica,sans-Serif" font-size="10.00">+ expression()</text>
</a>
</g>
</g>
<!-- Node3 -->
<g id="node3" class="node">
<title>Node3</title>
<g id="a_node3"><a xlink:href="classpython__scripts_1_1coupling_1_1Dataset_1_1CachedDataset.html" target="_top" xlink:title="Dataset that stores into and fetches from a static cache.">
<polygon fill="white" stroke="black" points="0,-0.5 0,-101.5 144,-101.5 144,-0.5 0,-0.5"/>
<text text-anchor="middle" x="72" y="-89.5" font-family="Helvetica,sans-Serif" font-size="10.00">CachedDataset</text>
<polyline fill="none" stroke="black" points="0,-82.5 144,-82.5 "/>
<text text-anchor="middle" x="72" y="-70.5" font-family="Helvetica,sans-Serif" font-size="10.00"> </text>
<polyline fill="none" stroke="black" points="0,-63.5 144,-63.5 "/>
<text text-anchor="start" x="8" y="-51.5" font-family="Helvetica,sans-Serif" font-size="10.00">+ Fetch()</text>
<text text-anchor="start" x="8" y="-40.5" font-family="Helvetica,sans-Serif" font-size="10.00">+ Assign()</text>
<text text-anchor="start" x="8" y="-29.5" font-family="Helvetica,sans-Serif" font-size="10.00">+ expression()</text>
<text text-anchor="start" x="8" y="-18.5" font-family="Helvetica,sans-Serif" font-size="10.00">+ expression()</text>
<text text-anchor="start" x="8" y="-7.5" font-family="Helvetica,sans-Serif" font-size="10.00">+ GetDefaultParameters()</text>
</a>
</g>
</g>
<!-- Node1&#45;&gt;Node3 -->
<g id="edge2" class="edge">
<title>Node1&#45;&gt;Node3</title>
<path fill="none" stroke="midnightblue" d="M118.11,-129.42C112.64,-120.24 107.04,-110.82 101.7,-101.86"/>
<polygon fill="none" stroke="midnightblue" points="115.17,-131.33 123.3,-138.13 121.19,-127.75 115.17,-131.33"/>
</g>
<!-- Node4 -->
<g id="node4" class="node">
<title>Node4</title>
<g id="a_node4"><a xlink:href="classpython__scripts_1_1coupling_1_1Dataset_1_1KratosDataset.html" target="_top" xlink:title="Class representing a Variable stored in a ModelPart.">
<polygon fill="white" stroke="black" points="162,-0.5 162,-101.5 306,-101.5 306,-0.5 162,-0.5"/>
<text text-anchor="middle" x="234" y="-89.5" font-family="Helvetica,sans-Serif" font-size="10.00">KratosDataset</text>
<polyline fill="none" stroke="black" points="162,-82.5 306,-82.5 "/>
<text text-anchor="middle" x="234" y="-70.5" font-family="Helvetica,sans-Serif" font-size="10.00"> </text>
<polyline fill="none" stroke="black" points="162,-63.5 306,-63.5 "/>
<text text-anchor="start" x="170" y="-51.5" font-family="Helvetica,sans-Serif" font-size="10.00">+ GetDefaultParameters()</text>
<text text-anchor="start" x="170" y="-40.5" font-family="Helvetica,sans-Serif" font-size="10.00">+ Fetch()</text>
<text text-anchor="start" x="170" y="-29.5" font-family="Helvetica,sans-Serif" font-size="10.00">+ Assign()</text>
<text text-anchor="start" x="170" y="-18.5" font-family="Helvetica,sans-Serif" font-size="10.00">+ expression()</text>
<text text-anchor="start" x="170" y="-7.5" font-family="Helvetica,sans-Serif" font-size="10.00">+ expression()</text>
</a>
</g>
</g>
<!-- Node1&#45;&gt;Node4 -->
<g id="edge3" class="edge">
<title>Node1&#45;&gt;Node4</title>
<path fill="none" stroke="midnightblue" d="M187.89,-129.42C193.36,-120.24 198.96,-110.82 204.3,-101.86"/>
<polygon fill="none" stroke="midnightblue" points="184.81,-127.75 182.7,-138.13 190.83,-131.33 184.81,-127.75"/>
</g>
<!-- Node2 -->
<g id="node2" class="node">
<title>Node2</title>
<g id="a_node2"><a xlink:title=" ">
<polygon fill="white" stroke="#bfbfbf" points="114,-276.5 114,-333.5 192,-333.5 192,-276.5 114,-276.5"/>
<text text-anchor="middle" x="153" y="-321.5" font-family="Helvetica,sans-Serif" font-size="10.00">WRAppClass</text>
<polyline fill="none" stroke="#bfbfbf" points="114,-314.5 192,-314.5 "/>
<text text-anchor="middle" x="153" y="-302.5" font-family="Helvetica,sans-Serif" font-size="10.00"> </text>
<polyline fill="none" stroke="#bfbfbf" points="114,-295.5 192,-295.5 "/>
<text text-anchor="middle" x="153" y="-283.5" font-family="Helvetica,sans-Serif" font-size="10.00"> </text>
</a>
</g>
</g>
<!-- Node2&#45;&gt;Node1 -->
<g id="edge1" class="edge">
<title>Node2&#45;&gt;Node1</title>
<path fill="none" stroke="midnightblue" d="M153,-266.35C153,-257.8 153,-248.58 153,-239.61"/>
<polygon fill="none" stroke="midnightblue" points="149.5,-266.4 153,-276.4 156.5,-266.4 149.5,-266.4"/>
</g>
</g>
</svg>
