<?xml version="1.0" encoding="UTF-8" standalone="no"?>
<!DOCTYPE svg PUBLIC "-//W3C//DTD SVG 1.1//EN"
 "http://www.w3.org/Graphics/SVG/1.1/DTD/svg11.dtd">
<!-- Generated by graphviz version 2.43.0 (0)
 -->
<!-- Title: CheckpointSelector Pages: 1 -->
<svg width="149pt" height="227pt"
 viewBox="0.00 0.00 149.00 227.00" xmlns="http://www.w3.org/2000/svg" xmlns:xlink="http://www.w3.org/1999/xlink">

<svg id="main" version="1.1" xmlns="http://www.w3.org/2000/svg" xmlns:xlink="http://www.w3.org/1999/xlink" xml:space="preserve" onload="init(evt)">
<style type="text/css"><![CDATA[
.node, .edge {opacity: 0.7;}
.node.selected, .edge.selected {opacity: 1;}
.edge:hover path { stroke: red; }
.edge:hover polygon { stroke: red; fill: red; }
]]></style>
<script type="application/ecmascript" xlink:href="svg.min.js"/>
<svg id="graph" class="graph">
<g id="graph0" class="graph" transform="scale(1 1) rotate(0) translate(4 223)">
<title>CheckpointSelector</title>
<!-- Node1 -->
<g id="Node000001" class="node">
<title>Node1</title>
<g id="a_Node000001"><a xlink:title="A functor taking a Model and returning a CheckpointID to load or None.">
<polygon fill="#999999" stroke="transparent" points="123,-134 18,-134 18,-85 123,-85 123,-134"/>
<text text-anchor="start" x="23.5" y="-121.5" font-family="Helvetica,sans-Serif" font-size="10.00">CheckpointSelector</text>
<text text-anchor="start" x="69" y="-106.5" font-family="Helvetica,sans-Serif" font-size="10.00"> </text>
<text text-anchor="start" x="69" y="-91.5" font-family="Helvetica,sans-Serif" font-size="10.00"> </text>
<polygon fill="#666666" stroke="#666666" points="18.5,-116.5 18.5,-116.5 123.5,-116.5 123.5,-116.5 18.5,-116.5"/>
<polygon fill="#666666" stroke="#666666" points="18.5,-101.5 18.5,-101.5 123.5,-101.5 123.5,-101.5 18.5,-101.5"/>
<polygon fill="none" stroke="#666666" points="18,-85 18,-134 123,-134 123,-85 18,-85"/>
</a>
</g>
</g>
<!-- Node3 -->
<g id="Node000003" class="node">
<title>Node3</title>
<g id="a_Node000003"><a xlink:href="classDefaultCheckpointSelector.html" target="_top" xlink:title="Always returns None, i.e.">
<polygon fill="white" stroke="transparent" points="141,-49 0,-49 0,0 141,0 141,-49"/>
<text text-anchor="start" x="5.5" y="-36.5" font-family="Helvetica,sans-Serif" font-size="10.00">DefaultCheckpointSelector</text>
<text text-anchor="start" x="69" y="-21.5" font-family="Helvetica,sans-Serif" font-size="10.00"> </text>
<text text-anchor="start" x="69" y="-6.5" font-family="Helvetica,sans-Serif" font-size="10.00"> </text>
<polygon fill="#666666" stroke="#666666" points="0.5,-31.5 0.5,-31.5 141.5,-31.5 141.5,-31.5 0.5,-31.5"/>
<polygon fill="#666666" stroke="#666666" points="0.5,-16.5 0.5,-16.5 141.5,-16.5 141.5,-16.5 0.5,-16.5"/>
<polygon fill="none" stroke="#666666" points="0,0 0,-49 141,-49 141,0 0,0"/>
</a>
</g>
</g>
<!-- Node1&#45;&gt;Node3 -->
<g id="edge2_Node000001_Node000003" class="edge">
<title>Node1&#45;&gt;Node3</title>
<g id="a_edge2_Node000001_Node000003"><a xlink:title=" ">
<path fill="none" stroke="#63b8ff" d="M70.5,-74.77C70.5,-66.17 70.5,-57.1 70.5,-49.12"/>
<polygon fill="none" stroke="#63b8ff" points="67,-74.94 70.5,-84.94 74,-74.94 67,-74.94"/>
</a>
</g>
</g>
<!-- Node2 -->
<g id="Node000002" class="node">
<title>Node2</title>
<g id="a_Node000002"><a xlink:title=" ">
<polygon fill="white" stroke="transparent" points="106.5,-219 34.5,-219 34.5,-170 106.5,-170 106.5,-219"/>
<text text-anchor="start" x="39.5" y="-206.5" font-family="Helvetica,sans-Serif" font-size="10.00">WRAppClass</text>
<text text-anchor="start" x="68.5" y="-191.5" font-family="Helvetica,sans-Serif" font-size="10.00"> </text>
<text text-anchor="start" x="68.5" y="-176.5" font-family="Helvetica,sans-Serif" font-size="10.00"> </text>
<polygon fill="#666666" stroke="#666666" points="34.5,-201.5 34.5,-201.5 106.5,-201.5 106.5,-201.5 34.5,-201.5"/>
<polygon fill="#666666" stroke="#666666" points="34.5,-186.5 34.5,-186.5 106.5,-186.5 106.5,-186.5 34.5,-186.5"/>
<polygon fill="none" stroke="#666666" points="34.5,-170 34.5,-219 106.5,-219 106.5,-170 34.5,-170"/>
</a>
</g>
</g>
<!-- Node2&#45;&gt;Node1 -->
<g id="edge1_Node000001_Node000002" class="edge">
<title>Node2&#45;&gt;Node1</title>
<g id="a_edge1_Node000001_Node000002"><a xlink:title=" ">
<path fill="none" stroke="#63b8ff" d="M70.5,-159.77C70.5,-151.17 70.5,-142.1 70.5,-134.12"/>
<polygon fill="none" stroke="#63b8ff" points="67,-159.94 70.5,-169.94 74,-159.94 67,-159.94"/>
</a>
</g>
</g>
</g>
</svg>
</svg>

<style type='text/css'>
<![CDATA[
[data-mouse-over-selected='false'] { opacity: 0.7; }
[data-mouse-over-selected='true']  { opacity: 1.0; }
]]>
</style>
<script type="application/ecmascript"><![CDATA[
document.addEventListener('DOMContentLoaded', (event) => {
  highlightEdges();
  highlightAdjacentNodes();
});
]]></script>
</svg>
