<?xml version="1.0" encoding="UTF-8" standalone="no"?>
<!DOCTYPE svg PUBLIC "-//W3C//DTD SVG 1.1//EN"
 "http://www.w3.org/Graphics/SVG/1.1/DTD/svg11.dtd">
<!-- Generated by graphviz version 2.43.0 (0)
 -->
<!-- Title: AsyncSolver.SynchronizeScope Pages: 1 -->
<svg width="175pt" height="348pt"
 viewBox="0.00 0.00 175.00 348.00" xmlns="http://www.w3.org/2000/svg" xmlns:xlink="http://www.w3.org/1999/xlink">
<g id="graph0" class="graph" transform="scale(1 1) rotate(0) translate(4 344)">
<title>AsyncSolver.SynchronizeScope</title>
<polygon fill="white" stroke="transparent" points="-4,4 -4,-344 171,-344 171,4 -4,4"/>
<!-- Node1 -->
<g id="node1" class="node">
<title>Node1</title>
<g id="a_node1"><a xlink:title="Embed AsyncSolver._Synchronize in a SolutionStageScope.">
<polygon fill="#bfbfbf" stroke="black" points="0,-0.5 0,-57.5 167,-57.5 167,-0.5 0,-0.5"/>
<text text-anchor="middle" x="83.5" y="-45.5" font-family="Helvetica,sans-Serif" font-size="10.00">AsyncSolver.SynchronizeScope</text>
<polyline fill="none" stroke="black" points="0,-38.5 167,-38.5 "/>
<text text-anchor="middle" x="83.5" y="-26.5" font-family="Helvetica,sans-Serif" font-size="10.00"> </text>
<polyline fill="none" stroke="black" points="0,-19.5 167,-19.5 "/>
<text text-anchor="start" x="8" y="-7.5" font-family="Helvetica,sans-Serif" font-size="10.00">+ WriteInfo()</text>
</a>
</g>
</g>
<!-- Node2 -->
<g id="node2" class="node">
<title>Node2</title>
<g id="a_node2"><a xlink:href="classpython__scripts_1_1async__analysis_1_1AsyncSolver_1_1AsyncSolver_1_1SolverScope.html" target="_top" xlink:title="Embed some part of AsyncSolver in a SolutionStageScope.">
<polygon fill="white" stroke="black" points="14,-94.5 14,-151.5 153,-151.5 153,-94.5 14,-94.5"/>
<text text-anchor="middle" x="83.5" y="-139.5" font-family="Helvetica,sans-Serif" font-size="10.00">AsyncSolver.SolverScope</text>
<polyline fill="none" stroke="black" points="14,-132.5 153,-132.5 "/>
<text text-anchor="middle" x="83.5" y="-120.5" font-family="Helvetica,sans-Serif" font-size="10.00"> </text>
<polyline fill="none" stroke="black" points="14,-113.5 153,-113.5 "/>
<text text-anchor="start" x="22" y="-101.5" font-family="Helvetica,sans-Serif" font-size="10.00">+ WriteInfo()</text>
</a>
</g>
</g>
<!-- Node2&#45;&gt;Node1 -->
<g id="edge1" class="edge">
<title>Node2&#45;&gt;Node1</title>
<path fill="none" stroke="midnightblue" d="M83.5,-84.21C83.5,-75.29 83.5,-65.95 83.5,-57.58"/>
<polygon fill="none" stroke="midnightblue" points="80,-84.4 83.5,-94.4 87,-84.4 80,-84.4"/>
</g>
<!-- Node3 -->
<g id="node3" class="node">
<title>Node3</title>
<g id="a_node3"><a xlink:href="classpython__scripts_1_1async__analysis_1_1SolutionStageScope_1_1SolutionStageScope.html" target="_top" xlink:title="RAII context manager for tasks during solver execution.">
<polygon fill="white" stroke="black" points="27,-188.5 27,-245.5 140,-245.5 140,-188.5 27,-188.5"/>
<text text-anchor="middle" x="83.5" y="-233.5" font-family="Helvetica,sans-Serif" font-size="10.00">SolutionStageScope</text>
<polyline fill="none" stroke="black" points="27,-226.5 140,-226.5 "/>
<text text-anchor="middle" x="83.5" y="-214.5" font-family="Helvetica,sans-Serif" font-size="10.00"> </text>
<polyline fill="none" stroke="black" points="27,-207.5 140,-207.5 "/>
<text text-anchor="start" x="35" y="-195.5" font-family="Helvetica,sans-Serif" font-size="10.00">+ WriteInfo()</text>
</a>
</g>
</g>
<!-- Node3&#45;&gt;Node2 -->
<g id="edge2" class="edge">
<title>Node3&#45;&gt;Node2</title>
<path fill="none" stroke="midnightblue" d="M83.5,-178.21C83.5,-169.29 83.5,-159.95 83.5,-151.58"/>
<polygon fill="none" stroke="midnightblue" points="80,-178.4 83.5,-188.4 87,-178.4 80,-178.4"/>
</g>
<!-- Node4 -->
<g id="node4" class="node">
<title>Node4</title>
<g id="a_node4"><a xlink:title=" ">
<polygon fill="white" stroke="#bfbfbf" points="65,-282.5 65,-339.5 102,-339.5 102,-282.5 65,-282.5"/>
<text text-anchor="middle" x="83.5" y="-327.5" font-family="Helvetica,sans-Serif" font-size="10.00">ABC</text>
<polyline fill="none" stroke="#bfbfbf" points="65,-320.5 102,-320.5 "/>
<text text-anchor="middle" x="83.5" y="-308.5" font-family="Helvetica,sans-Serif" font-size="10.00"> </text>
<polyline fill="none" stroke="#bfbfbf" points="65,-301.5 102,-301.5 "/>
<text text-anchor="middle" x="83.5" y="-289.5" font-family="Helvetica,sans-Serif" font-size="10.00"> </text>
</a>
</g>
</g>
<!-- Node4&#45;&gt;Node3 -->
<g id="edge3" class="edge">
<title>Node4&#45;&gt;Node3</title>
<path fill="none" stroke="midnightblue" d="M83.5,-272.21C83.5,-263.29 83.5,-253.95 83.5,-245.58"/>
<polygon fill="none" stroke="midnightblue" points="80,-272.4 83.5,-282.4 87,-272.4 80,-272.4"/>
</g>
</g>
</svg>
