<?xml version="1.0" encoding="UTF-8" standalone="no"?>
<!DOCTYPE svg PUBLIC "-//W3C//DTD SVG 1.1//EN"
 "http://www.w3.org/Graphics/SVG/1.1/DTD/svg11.dtd">
<!-- Generated by graphviz version 2.43.0 (0)
 -->
<!-- Title: CoSimCoupling Pages: 1 -->
<svg width="218pt" height="298pt"
 viewBox="0.00 0.00 217.50 298.00" xmlns="http://www.w3.org/2000/svg" xmlns:xlink="http://www.w3.org/1999/xlink">
<g id="graph0" class="graph" transform="scale(1 1) rotate(0) translate(4 294)">
<title>CoSimCoupling</title>
<polygon fill="white" stroke="transparent" points="-4,4 -4,-294 213.5,-294 213.5,4 -4,4"/>
<!-- Node1 -->
<g id="node1" class="node">
<title>Node1</title>
<g id="a_node1"><a xlink:title="Wrapper for CoSimulationApplication coupling procedures.">
<polygon fill="#bfbfbf" stroke="black" points="41.5,-0.5 41.5,-101.5 185.5,-101.5 185.5,-0.5 41.5,-0.5"/>
<text text-anchor="middle" x="113.5" y="-89.5" font-family="Helvetica,sans-Serif" font-size="10.00">CoSimCoupling</text>
<polyline fill="none" stroke="black" points="41.5,-82.5 185.5,-82.5 "/>
<text text-anchor="middle" x="113.5" y="-70.5" font-family="Helvetica,sans-Serif" font-size="10.00"> </text>
<polyline fill="none" stroke="black" points="41.5,-63.5 185.5,-63.5 "/>
<text text-anchor="start" x="49.5" y="-51.5" font-family="Helvetica,sans-Serif" font-size="10.00">+ WriteInfo()</text>
<text text-anchor="start" x="49.5" y="-40.5" font-family="Helvetica,sans-Serif" font-size="10.00">+ parameters()</text>
<text text-anchor="start" x="49.5" y="-29.5" font-family="Helvetica,sans-Serif" font-size="10.00">+ GetDefaultParameters()</text>
<text text-anchor="start" x="49.5" y="-18.5" font-family="Helvetica,sans-Serif" font-size="10.00">* parameters()</text>
<text text-anchor="start" x="49.5" y="-7.5" font-family="Helvetica,sans-Serif" font-size="10.00">* GetDefaultParameters()</text>
</a>
</g>
</g>
<!-- Node2 -->
<g id="node2" class="node">
<title>Node2</title>
<g id="a_node2"><a xlink:href="classpython__scripts_1_1async__analysis_1_1SolutionStageScope_1_1SolutionStageScope.html" target="_top" xlink:title="RAII context manager for tasks during solver execution.">
<polygon fill="white" stroke="black" points="0,-138.5 0,-195.5 113,-195.5 113,-138.5 0,-138.5"/>
<text text-anchor="middle" x="56.5" y="-183.5" font-family="Helvetica,sans-Serif" font-size="10.00">SolutionStageScope</text>
<polyline fill="none" stroke="black" points="0,-176.5 113,-176.5 "/>
<text text-anchor="middle" x="56.5" y="-164.5" font-family="Helvetica,sans-Serif" font-size="10.00"> </text>
<polyline fill="none" stroke="black" points="0,-157.5 113,-157.5 "/>
<text text-anchor="start" x="8" y="-145.5" font-family="Helvetica,sans-Serif" font-size="10.00">+ WriteInfo()</text>
</a>
</g>
</g>
<!-- Node2&#45;&gt;Node1 -->
<g id="edge1" class="edge">
<title>Node2&#45;&gt;Node1</title>
<path fill="none" stroke="midnightblue" d="M74.9,-129.2C79.3,-120.4 84.06,-110.87 88.7,-101.61"/>
<polygon fill="none" stroke="midnightblue" points="71.64,-127.89 70.3,-138.4 77.9,-131.02 71.64,-127.89"/>
</g>
<!-- Node3 -->
<g id="node3" class="node">
<title>Node3</title>
<g id="a_node3"><a xlink:title=" ">
<polygon fill="white" stroke="#bfbfbf" points="38,-232.5 38,-289.5 75,-289.5 75,-232.5 38,-232.5"/>
<text text-anchor="middle" x="56.5" y="-277.5" font-family="Helvetica,sans-Serif" font-size="10.00">ABC</text>
<polyline fill="none" stroke="#bfbfbf" points="38,-270.5 75,-270.5 "/>
<text text-anchor="middle" x="56.5" y="-258.5" font-family="Helvetica,sans-Serif" font-size="10.00"> </text>
<polyline fill="none" stroke="#bfbfbf" points="38,-251.5 75,-251.5 "/>
<text text-anchor="middle" x="56.5" y="-239.5" font-family="Helvetica,sans-Serif" font-size="10.00"> </text>
</a>
</g>
</g>
<!-- Node3&#45;&gt;Node2 -->
<g id="edge2" class="edge">
<title>Node3&#45;&gt;Node2</title>
<path fill="none" stroke="midnightblue" d="M56.5,-222.21C56.5,-213.29 56.5,-203.95 56.5,-195.58"/>
<polygon fill="none" stroke="midnightblue" points="53,-222.4 56.5,-232.4 60,-222.4 53,-222.4"/>
</g>
<!-- Node4 -->
<g id="node4" class="node">
<title>Node4</title>
<g id="a_node4"><a xlink:title=" ">
<polygon fill="white" stroke="#bfbfbf" points="131.5,-138.5 131.5,-195.5 209.5,-195.5 209.5,-138.5 131.5,-138.5"/>
<text text-anchor="middle" x="170.5" y="-183.5" font-family="Helvetica,sans-Serif" font-size="10.00">WRAppClass</text>
<polyline fill="none" stroke="#bfbfbf" points="131.5,-176.5 209.5,-176.5 "/>
<text text-anchor="middle" x="170.5" y="-164.5" font-family="Helvetica,sans-Serif" font-size="10.00"> </text>
<polyline fill="none" stroke="#bfbfbf" points="131.5,-157.5 209.5,-157.5 "/>
<text text-anchor="middle" x="170.5" y="-145.5" font-family="Helvetica,sans-Serif" font-size="10.00"> </text>
</a>
</g>
</g>
<!-- Node4&#45;&gt;Node1 -->
<g id="edge3" class="edge">
<title>Node4&#45;&gt;Node1</title>
<path fill="none" stroke="midnightblue" d="M152.1,-129.2C147.7,-120.4 142.94,-110.87 138.3,-101.61"/>
<polygon fill="none" stroke="midnightblue" points="149.1,-131.02 156.7,-138.4 155.36,-127.89 149.1,-131.02"/>
</g>
</g>
</svg>
