<?xml version="1.0" encoding="UTF-8" standalone="no"?>
<!DOCTYPE svg PUBLIC "-//W3C//DTD SVG 1.1//EN"
 "http://www.w3.org/Graphics/SVG/1.1/DTD/svg11.dtd">
<!-- Generated by graphviz version 2.43.0 (0)
 -->
<!-- Title: WRAppMeta Pages: 1 -->
<svg width="234pt" height="254pt"
 viewBox="0.00 0.00 233.50 254.00" xmlns="http://www.w3.org/2000/svg" xmlns:xlink="http://www.w3.org/1999/xlink">
<g id="graph0" class="graph" transform="scale(1 1) rotate(0) translate(4 250)">
<title>WRAppMeta</title>
<polygon fill="white" stroke="transparent" points="-4,4 -4,-250 229.5,-250 229.5,4 -4,4"/>
<!-- Node1 -->
<g id="node1" class="node">
<title>Node1</title>
<g id="a_node1"><a xlink:title="Metaclass replacing that of the C++ WRAppClass to provide derived classes access to abc....">
<polygon fill="#bfbfbf" stroke="black" points="33.5,-94.5 33.5,-151.5 110.5,-151.5 110.5,-94.5 33.5,-94.5"/>
<text text-anchor="middle" x="72" y="-139.5" font-family="Helvetica,sans-Serif" font-size="10.00">WRAppMeta</text>
<polyline fill="none" stroke="black" points="33.5,-132.5 110.5,-132.5 "/>
<text text-anchor="middle" x="72" y="-120.5" font-family="Helvetica,sans-Serif" font-size="10.00"> </text>
<polyline fill="none" stroke="black" points="33.5,-113.5 110.5,-113.5 "/>
<text text-anchor="middle" x="72" y="-101.5" font-family="Helvetica,sans-Serif" font-size="10.00"> </text>
</a>
</g>
</g>
<!-- Node5 -->
<g id="node5" class="node">
<title>Node5</title>
<g id="a_node5"><a xlink:href="classpython__scripts_1_1WRAppClass.html" target="_top" xlink:title="WRApp::WRAppClass with a replaced metaclass for compatibility with abc.">
<polygon fill="white" stroke="black" points="0,-0.5 0,-57.5 144,-57.5 144,-0.5 0,-0.5"/>
<text text-anchor="middle" x="72" y="-45.5" font-family="Helvetica,sans-Serif" font-size="10.00">WRAppClass</text>
<polyline fill="none" stroke="black" points="0,-38.5 144,-38.5 "/>
<text text-anchor="middle" x="72" y="-26.5" font-family="Helvetica,sans-Serif" font-size="10.00"> </text>
<polyline fill="none" stroke="black" points="0,-19.5 144,-19.5 "/>
<text text-anchor="start" x="8" y="-7.5" font-family="Helvetica,sans-Serif" font-size="10.00">+ GetDefaultParameters()</text>
</a>
</g>
</g>
<!-- Node1&#45;&gt;Node5 -->
<g id="edge5" class="edge">
<title>Node1&#45;&gt;Node5</title>
<path fill="none" stroke="midnightblue" d="M72,-84.21C72,-75.29 72,-65.95 72,-57.58"/>
<polygon fill="none" stroke="midnightblue" points="68.5,-84.4 72,-94.4 75.5,-84.4 68.5,-84.4"/>
</g>
<!-- Node2 -->
<g id="node2" class="node">
<title>Node2</title>
<g id="a_node2"><a xlink:title=" ">
<polygon fill="white" stroke="#bfbfbf" points="25,-188.5 25,-245.5 63,-245.5 63,-188.5 25,-188.5"/>
<text text-anchor="middle" x="44" y="-233.5" font-family="Helvetica,sans-Serif" font-size="10.00">type</text>
<polyline fill="none" stroke="#bfbfbf" points="25,-226.5 63,-226.5 "/>
<text text-anchor="middle" x="44" y="-214.5" font-family="Helvetica,sans-Serif" font-size="10.00"> </text>
<polyline fill="none" stroke="#bfbfbf" points="25,-207.5 63,-207.5 "/>
<text text-anchor="middle" x="44" y="-195.5" font-family="Helvetica,sans-Serif" font-size="10.00"> </text>
</a>
</g>
</g>
<!-- Node2&#45;&gt;Node1 -->
<g id="edge1" class="edge">
<title>Node2&#45;&gt;Node1</title>
<path fill="none" stroke="midnightblue" d="M48.77,-178.5C51.29,-169.5 54.3,-160.04 57.36,-151.58"/>
<polygon fill="none" stroke="midnightblue" points="45.32,-177.83 46.16,-188.4 52.09,-179.62 45.32,-177.83"/>
</g>
<!-- Node2&#45;&gt;Node1 -->
<g id="edge3" class="edge">
<title>Node2&#45;&gt;Node1</title>
<path fill="none" stroke="midnightblue" d="M61.96,-178.79C64.96,-169.7 67.74,-160.13 69.85,-151.58"/>
<polygon fill="none" stroke="midnightblue" points="58.6,-177.8 58.65,-188.4 65.22,-180.09 58.6,-177.8"/>
</g>
<!-- Node3 -->
<g id="node3" class="node">
<title>Node3</title>
<g id="a_node3"><a xlink:title=" ">
<polygon fill="white" stroke="#bfbfbf" points="81.5,-188.5 81.5,-245.5 118.5,-245.5 118.5,-188.5 81.5,-188.5"/>
<text text-anchor="middle" x="100" y="-233.5" font-family="Helvetica,sans-Serif" font-size="10.00">ABC</text>
<polyline fill="none" stroke="#bfbfbf" points="81.5,-226.5 118.5,-226.5 "/>
<text text-anchor="middle" x="100" y="-214.5" font-family="Helvetica,sans-Serif" font-size="10.00"> </text>
<polyline fill="none" stroke="#bfbfbf" points="81.5,-207.5 118.5,-207.5 "/>
<text text-anchor="middle" x="100" y="-195.5" font-family="Helvetica,sans-Serif" font-size="10.00"> </text>
</a>
</g>
</g>
<!-- Node3&#45;&gt;Node1 -->
<g id="edge2" class="edge">
<title>Node3&#45;&gt;Node1</title>
<path fill="none" stroke="midnightblue" d="M88.68,-178.79C85.91,-169.7 83,-160.13 80.39,-151.58"/>
<polygon fill="none" stroke="midnightblue" points="85.34,-179.85 91.6,-188.4 92.04,-177.81 85.34,-179.85"/>
</g>
<!-- Node4 -->
<g id="node4" class="node">
<title>Node4</title>
<g id="a_node4"><a xlink:title=" ">
<polygon fill="white" stroke="#bfbfbf" points="136.5,-188.5 136.5,-245.5 225.5,-245.5 225.5,-188.5 136.5,-188.5"/>
<text text-anchor="middle" x="181" y="-233.5" font-family="Helvetica,sans-Serif" font-size="10.00">__WRAppClass</text>
<polyline fill="none" stroke="#bfbfbf" points="136.5,-226.5 225.5,-226.5 "/>
<text text-anchor="middle" x="181" y="-214.5" font-family="Helvetica,sans-Serif" font-size="10.00"> </text>
<polyline fill="none" stroke="#bfbfbf" points="136.5,-207.5 225.5,-207.5 "/>
<text text-anchor="middle" x="181" y="-195.5" font-family="Helvetica,sans-Serif" font-size="10.00"> </text>
</a>
</g>
</g>
<!-- Node4&#45;&gt;Node1 -->
<g id="edge4" class="edge">
<title>Node4&#45;&gt;Node1</title>
<path fill="none" stroke="midnightblue" d="M140.33,-181.67C128.57,-171.75 115.89,-161.04 104.68,-151.58"/>
<polygon fill="none" stroke="midnightblue" points="138.4,-184.62 148.3,-188.4 142.91,-179.27 138.4,-184.62"/>
</g>
</g>
</svg>
