<?xml version="1.0" encoding="UTF-8" standalone="no"?>
<!DOCTYPE svg PUBLIC "-//W3C//DTD SVG 1.1//EN"
 "http://www.w3.org/Graphics/SVG/1.1/DTD/svg11.dtd">
<!-- Generated by graphviz version 2.43.0 (0)
 -->
<!-- Title: DatasetLookup Pages: 1 -->
<svg width="225pt" height="287pt"
 viewBox="0.00 0.00 224.50 287.00" xmlns="http://www.w3.org/2000/svg" xmlns:xlink="http://www.w3.org/1999/xlink">
<g id="graph0" class="graph" transform="scale(1 1) rotate(0) translate(4 283)">
<title>DatasetLookup</title>
<polygon fill="white" stroke="transparent" points="-4,4 -4,-283 220.5,-283 220.5,4 -4,4"/>
<!-- Node1 -->
<g id="node1" class="node">
<title>Node1</title>
<g id="a_node1"><a xlink:title="Store, retrieve, and interpolate datasets.">
<polygon fill="#bfbfbf" stroke="black" points="57,-0.5 57,-68.5 201,-68.5 201,-0.5 57,-0.5"/>
<text text-anchor="middle" x="129" y="-56.5" font-family="Helvetica,sans-Serif" font-size="10.00">DatasetLookup</text>
<polyline fill="none" stroke="black" points="57,-49.5 201,-49.5 "/>
<text text-anchor="middle" x="129" y="-37.5" font-family="Helvetica,sans-Serif" font-size="10.00"> </text>
<polyline fill="none" stroke="black" points="57,-30.5 201,-30.5 "/>
<text text-anchor="start" x="65" y="-18.5" font-family="Helvetica,sans-Serif" font-size="10.00">+ Execute()</text>
<text text-anchor="start" x="65" y="-7.5" font-family="Helvetica,sans-Serif" font-size="10.00">+ GetDefaultParameters()</text>
</a>
</g>
</g>
<!-- Node2 -->
<g id="node2" class="node">
<title>Node2</title>
<g id="a_node2"><a xlink:href="classpython__scripts_1_1coupling_1_1DatasetTransfer_1_1DatasetTransform.html" target="_top" xlink:title="Fetch, transform and assign data between ModelPart s.">
<polygon fill="white" stroke="black" points="57,-105.5 57,-184.5 201,-184.5 201,-105.5 57,-105.5"/>
<text text-anchor="middle" x="129" y="-172.5" font-family="Helvetica,sans-Serif" font-size="10.00">DatasetTransform</text>
<polyline fill="none" stroke="black" points="57,-165.5 201,-165.5 "/>
<text text-anchor="middle" x="129" y="-153.5" font-family="Helvetica,sans-Serif" font-size="10.00"> </text>
<polyline fill="none" stroke="black" points="57,-146.5 201,-146.5 "/>
<text text-anchor="start" x="65" y="-134.5" font-family="Helvetica,sans-Serif" font-size="10.00">+ Execute()</text>
<text text-anchor="start" x="65" y="-123.5" font-family="Helvetica,sans-Serif" font-size="10.00">+ Factory()</text>
<text text-anchor="start" x="65" y="-112.5" font-family="Helvetica,sans-Serif" font-size="10.00">+ GetDefaultParameters()</text>
</a>
</g>
</g>
<!-- Node2&#45;&gt;Node1 -->
<g id="edge1" class="edge">
<title>Node2&#45;&gt;Node1</title>
<path fill="none" stroke="midnightblue" d="M129,-95.35C129,-86.28 129,-77 129,-68.54"/>
<polygon fill="none" stroke="midnightblue" points="125.5,-95.44 129,-105.44 132.5,-95.44 125.5,-95.44"/>
</g>
<!-- Node3 -->
<g id="node3" class="node">
<title>Node3</title>
<g id="a_node3"><a xlink:title=" ">
<polygon fill="white" stroke="#bfbfbf" points="0,-221.5 0,-278.5 78,-278.5 78,-221.5 0,-221.5"/>
<text text-anchor="middle" x="39" y="-266.5" font-family="Helvetica,sans-Serif" font-size="10.00">WRAppClass</text>
<polyline fill="none" stroke="#bfbfbf" points="0,-259.5 78,-259.5 "/>
<text text-anchor="middle" x="39" y="-247.5" font-family="Helvetica,sans-Serif" font-size="10.00"> </text>
<polyline fill="none" stroke="#bfbfbf" points="0,-240.5 78,-240.5 "/>
<text text-anchor="middle" x="39" y="-228.5" font-family="Helvetica,sans-Serif" font-size="10.00"> </text>
</a>
</g>
</g>
<!-- Node3&#45;&gt;Node2 -->
<g id="edge2" class="edge">
<title>Node3&#45;&gt;Node2</title>
<path fill="none" stroke="midnightblue" d="M69.83,-213.72C78.05,-204.31 86.98,-194.09 95.34,-184.52"/>
<polygon fill="none" stroke="midnightblue" points="67.06,-211.56 63.12,-221.4 72.33,-216.17 67.06,-211.56"/>
</g>
<!-- Node4 -->
<g id="node4" class="node">
<title>Node4</title>
<g id="a_node4"><a xlink:title=" ">
<polygon fill="white" stroke="#bfbfbf" points="96.5,-221.5 96.5,-278.5 161.5,-278.5 161.5,-221.5 96.5,-221.5"/>
<text text-anchor="middle" x="129" y="-266.5" font-family="Helvetica,sans-Serif" font-size="10.00">Operation</text>
<polyline fill="none" stroke="#bfbfbf" points="96.5,-259.5 161.5,-259.5 "/>
<text text-anchor="middle" x="129" y="-247.5" font-family="Helvetica,sans-Serif" font-size="10.00"> </text>
<polyline fill="none" stroke="#bfbfbf" points="96.5,-240.5 161.5,-240.5 "/>
<text text-anchor="middle" x="129" y="-228.5" font-family="Helvetica,sans-Serif" font-size="10.00"> </text>
</a>
</g>
</g>
<!-- Node4&#45;&gt;Node2 -->
<g id="edge3" class="edge">
<title>Node4&#45;&gt;Node2</title>
<path fill="none" stroke="midnightblue" d="M129,-211.16C129,-202.47 129,-193.23 129,-184.52"/>
<polygon fill="none" stroke="midnightblue" points="125.5,-211.4 129,-221.4 132.5,-211.4 125.5,-211.4"/>
</g>
<!-- Node5 -->
<g id="node5" class="node">
<title>Node5</title>
<g id="a_node5"><a xlink:title=" ">
<polygon fill="white" stroke="#bfbfbf" points="179.5,-221.5 179.5,-278.5 216.5,-278.5 216.5,-221.5 179.5,-221.5"/>
<text text-anchor="middle" x="198" y="-266.5" font-family="Helvetica,sans-Serif" font-size="10.00">ABC</text>
<polyline fill="none" stroke="#bfbfbf" points="179.5,-259.5 216.5,-259.5 "/>
<text text-anchor="middle" x="198" y="-247.5" font-family="Helvetica,sans-Serif" font-size="10.00"> </text>
<polyline fill="none" stroke="#bfbfbf" points="179.5,-240.5 216.5,-240.5 "/>
<text text-anchor="middle" x="198" y="-228.5" font-family="Helvetica,sans-Serif" font-size="10.00"> </text>
</a>
</g>
</g>
<!-- Node5&#45;&gt;Node2 -->
<g id="edge4" class="edge">
<title>Node5&#45;&gt;Node2</title>
<path fill="none" stroke="midnightblue" d="M173.79,-212.87C167.65,-203.69 161.03,-193.81 154.8,-184.52"/>
<polygon fill="none" stroke="midnightblue" points="171.04,-215.04 179.51,-221.4 176.85,-211.14 171.04,-215.04"/>
</g>
</g>
</svg>
