<?xml version="1.0" encoding="UTF-8" standalone="no"?>
<!DOCTYPE svg PUBLIC "-//W3C//DTD SVG 1.1//EN"
 "http://www.w3.org/Graphics/SVG/1.1/DTD/svg11.dtd">
<!-- Generated by graphviz version 2.43.0 (0)
 -->
<!-- Title: HDF5Data Pages: 1 -->
<svg width="109pt" height="287pt"
 viewBox="0.00 0.00 109.00 287.00" xmlns="http://www.w3.org/2000/svg" xmlns:xlink="http://www.w3.org/1999/xlink">
<g id="graph0" class="graph" transform="scale(1 1) rotate(0) translate(4 283)">
<title>HDF5Data</title>
<polygon fill="white" stroke="transparent" points="-4,4 -4,-283 105,-283 105,4 -4,4"/>
<!-- Node1 -->
<g id="node1" class="node">
<title>Node1</title>
<g id="a_node1"><a xlink:title=" ">
<polygon fill="#bfbfbf" stroke="black" points="0,-0.5 0,-68.5 101,-68.5 101,-0.5 0,-0.5"/>
<text text-anchor="middle" x="50.5" y="-56.5" font-family="Helvetica,sans-Serif" font-size="10.00">HDF5Data</text>
<polyline fill="none" stroke="black" points="0,-49.5 101,-49.5 "/>
<text text-anchor="middle" x="50.5" y="-37.5" font-family="Helvetica,sans-Serif" font-size="10.00"> </text>
<polyline fill="none" stroke="black" points="0,-30.5 101,-30.5 "/>
<text text-anchor="start" x="8" y="-18.5" font-family="Helvetica,sans-Serif" font-size="10.00">+ GetAttributes()</text>
<text text-anchor="start" x="8" y="-7.5" font-family="Helvetica,sans-Serif" font-size="10.00">+ GetText()</text>
</a>
</g>
</g>
<!-- Node2 -->
<g id="node2" class="node">
<title>Node2</title>
<g id="a_node2"><a xlink:href="classpython__scripts_1_1xdmf_1_1Data_1_1Data.html" target="_top" xlink:title=" ">
<polygon fill="white" stroke="black" points="0,-105.5 0,-184.5 101,-184.5 101,-105.5 0,-105.5"/>
<text text-anchor="middle" x="50.5" y="-172.5" font-family="Helvetica,sans-Serif" font-size="10.00">Data</text>
<polyline fill="none" stroke="black" points="0,-165.5 101,-165.5 "/>
<text text-anchor="middle" x="50.5" y="-153.5" font-family="Helvetica,sans-Serif" font-size="10.00"> </text>
<polyline fill="none" stroke="black" points="0,-146.5 101,-146.5 "/>
<text text-anchor="start" x="8" y="-134.5" font-family="Helvetica,sans-Serif" font-size="10.00">+ GetAttributes()</text>
<text text-anchor="start" x="8" y="-123.5" font-family="Helvetica,sans-Serif" font-size="10.00">+ GetShape()</text>
<text text-anchor="start" x="8" y="-112.5" font-family="Helvetica,sans-Serif" font-size="10.00">+ GetText()</text>
</a>
</g>
</g>
<!-- Node2&#45;&gt;Node1 -->
<g id="edge1" class="edge">
<title>Node2&#45;&gt;Node1</title>
<path fill="none" stroke="midnightblue" d="M50.5,-95.35C50.5,-86.28 50.5,-77 50.5,-68.54"/>
<polygon fill="none" stroke="midnightblue" points="47,-95.44 50.5,-105.44 54,-95.44 47,-95.44"/>
</g>
<!-- Node3 -->
<g id="node3" class="node">
<title>Node3</title>
<g id="a_node3"><a xlink:title=" ">
<polygon fill="white" stroke="#bfbfbf" points="32,-221.5 32,-278.5 69,-278.5 69,-221.5 32,-221.5"/>
<text text-anchor="middle" x="50.5" y="-266.5" font-family="Helvetica,sans-Serif" font-size="10.00">ABC</text>
<polyline fill="none" stroke="#bfbfbf" points="32,-259.5 69,-259.5 "/>
<text text-anchor="middle" x="50.5" y="-247.5" font-family="Helvetica,sans-Serif" font-size="10.00"> </text>
<polyline fill="none" stroke="#bfbfbf" points="32,-240.5 69,-240.5 "/>
<text text-anchor="middle" x="50.5" y="-228.5" font-family="Helvetica,sans-Serif" font-size="10.00"> </text>
</a>
</g>
</g>
<!-- Node3&#45;&gt;Node2 -->
<g id="edge2" class="edge">
<title>Node3&#45;&gt;Node2</title>
<path fill="none" stroke="midnightblue" d="M50.5,-211.16C50.5,-202.47 50.5,-193.23 50.5,-184.52"/>
<polygon fill="none" stroke="midnightblue" points="47,-211.4 50.5,-221.4 54,-211.4 47,-211.4"/>
</g>
</g>
</svg>
