<?xml version="1.0" encoding="UTF-8" standalone="no"?>
<!DOCTYPE svg PUBLIC "-//W3C//DTD SVG 1.1//EN"
 "http://www.w3.org/Graphics/SVG/1.1/DTD/svg11.dtd">
<!-- Generated by graphviz version 2.43.0 (0)
 -->
<!-- Title: AsyncSolver.SynchronizeScope Pages: 1 -->
<!--zoomable 453 -->
<svg id="main" version="1.1" xmlns="http://www.w3.org/2000/svg" xmlns:xlink="http://www.w3.org/1999/xlink" xml:space="preserve" onload="init(evt)">
<style type="text/css"><![CDATA[
.edge:hover path { stroke: red; }
.edge:hover polygon { stroke: red; fill: red; }
]]></style>
<script type="text/javascript"><![CDATA[
var edges = document.getElementsByTagName('g');
if (edges && edges.length) {
  for (var i=0;i<edges.length;i++) {
    if (edges[i].id.substr(0,4)=='edge') {
      edges[i].setAttribute('class','edge');
    }
  }
}
]]></script>
        <defs>
                <circle id="rim" cx="0" cy="0" r="7"/>
                <circle id="rim2" cx="0" cy="0" r="3.5"/>
                <g id="zoomPlus">
                        <use xlink:href="#rim" fill="#404040">
                                <set attributeName="fill" to="#808080" begin="zoomplus.mouseover" end="zoomplus.mouseout"/>
                        </use>
                        <path d="M-4,0h8M0,-4v8" fill="none" stroke="white" stroke-width="1.5" pointer-events="none"/>
                </g>
                <g id="zoomMin">
                        <use xlink:href="#rim" fill="#404040">
                                <set attributeName="fill" to="#808080" begin="zoomminus.mouseover" end="zoomminus.mouseout"/>
                        </use>
                        <path d="M-4,0h8" fill="none" stroke="white" stroke-width="1.5" pointer-events="none"/>
                </g>
                <g id="dirArrow">
                        <path fill="none" stroke="white" stroke-width="1.5" d="M0,-3.0v7 M-2.5,-0.5L0,-3.0L2.5,-0.5"/>
                </g>
               <g id="resetDef">
                       <use xlink:href="#rim2" fill="#404040">
                               <set attributeName="fill" to="#808080" begin="reset.mouseover" end="reset.mouseout"/>
                       </use>
               </g>
        </defs>

<script type="text/javascript">
var viewWidth = 368;
var viewHeight = 453;
var sectionId = 'dynsection-0';
</script>
<script xlink:href="svgpan.js"/>
<svg id="graph" class="graph">
<g id="viewport">
<title>AsyncSolver.SynchronizeScope</title>
<polygon fill="white" stroke="transparent" points="-4,4 -4,-449 364,-449 364,4 -4,4"/>
<!-- Node1 -->
<g id="node1" class="node">
<title>Node1</title>
<g id="a_node1"><a xlink:title="Embed AsyncSolver._Synchronize in a SolutionStageScope.">
<polygon fill="#bfbfbf" stroke="black" points="99.5,-105.5 99.5,-162.5 266.5,-162.5 266.5,-105.5 99.5,-105.5"/>
<text text-anchor="middle" x="183" y="-150.5" font-family="Helvetica,sans-Serif" font-size="10.00">AsyncSolver.SynchronizeScope</text>
<polyline fill="none" stroke="black" points="99.5,-143.5 266.5,-143.5 "/>
<text text-anchor="middle" x="183" y="-131.5" font-family="Helvetica,sans-Serif" font-size="10.00"> </text>
<polyline fill="none" stroke="black" points="99.5,-124.5 266.5,-124.5 "/>
<text text-anchor="start" x="107.5" y="-112.5" font-family="Helvetica,sans-Serif" font-size="10.00">+ WriteInfo()</text>
</a>
</g>
</g>
<!-- Node5 -->
<g id="node5" class="node">
<title>Node5</title>
<g id="a_node5"><a xlink:href="classpython__scripts_1_1async__analysis_1_1CoupledAsyncSolver_1_1CoupledAsyncSolver_1_1SynchronizeScope.html" target="_top" xlink:title=" ">
<polygon fill="white" stroke="black" points="0,-0.5 0,-68.5 178,-68.5 178,-0.5 0,-0.5"/>
<text text-anchor="start" x="8" y="-56.5" font-family="Helvetica,sans-Serif" font-size="10.00">CoupledAsyncSolver.Synchronize</text>
<text text-anchor="middle" x="89" y="-45.5" font-family="Helvetica,sans-Serif" font-size="10.00">Scope</text>
<polyline fill="none" stroke="black" points="0,-38.5 178,-38.5 "/>
<text text-anchor="middle" x="89" y="-26.5" font-family="Helvetica,sans-Serif" font-size="10.00"> </text>
<polyline fill="none" stroke="black" points="0,-19.5 178,-19.5 "/>
<text text-anchor="start" x="8" y="-7.5" font-family="Helvetica,sans-Serif" font-size="10.00">+ WriteInfo()</text>
</a>
</g>
</g>
<!-- Node1&#45;&gt;Node5 -->
<g id="edge4" class="edge">
<title>Node1&#45;&gt;Node5</title>
<path fill="none" stroke="midnightblue" d="M149.16,-97.9C140.01,-88.41 130.14,-78.17 121.09,-68.79"/>
<polygon fill="none" stroke="midnightblue" points="146.85,-100.55 156.31,-105.32 151.89,-95.69 146.85,-100.55"/>
</g>
<!-- Node6 -->
<g id="node6" class="node">
<title>Node6</title>
<g id="a_node6"><a xlink:href="classpython__scripts_1_1async__analysis_1_1WrappedAnalysis_1_1WrappedAnalysis_1_1SynchronizeScope.html" target="_top" xlink:title="Sandwich AnalysisStage.SolveSolutionStage between &quot;initialization&quot; and &quot;finalization&quot;.">
<polygon fill="white" stroke="black" points="196,-0.5 196,-68.5 360,-68.5 360,-0.5 196,-0.5"/>
<text text-anchor="start" x="204" y="-56.5" font-family="Helvetica,sans-Serif" font-size="10.00">WrappedAnalysis.Synchronize</text>
<text text-anchor="middle" x="278" y="-45.5" font-family="Helvetica,sans-Serif" font-size="10.00">Scope</text>
<polyline fill="none" stroke="black" points="196,-38.5 360,-38.5 "/>
<text text-anchor="middle" x="278" y="-26.5" font-family="Helvetica,sans-Serif" font-size="10.00"> </text>
<polyline fill="none" stroke="black" points="196,-19.5 360,-19.5 "/>
<text text-anchor="start" x="204" y="-7.5" font-family="Helvetica,sans-Serif" font-size="10.00">+ WriteInfo()</text>
</a>
</g>
</g>
<!-- Node1&#45;&gt;Node6 -->
<g id="edge5" class="edge">
<title>Node1&#45;&gt;Node6</title>
<path fill="none" stroke="midnightblue" d="M217.2,-97.9C226.44,-88.41 236.42,-78.17 245.57,-68.79"/>
<polygon fill="none" stroke="midnightblue" points="214.44,-95.72 209.97,-105.32 219.45,-100.6 214.44,-95.72"/>
</g>
<!-- Node2 -->
<g id="node2" class="node">
<title>Node2</title>
<g id="a_node2"><a xlink:href="classpython__scripts_1_1async__analysis_1_1AsyncSolver_1_1AsyncSolver_1_1SolverScope.html" target="_top" xlink:title="Embed some part of AsyncSolver in a SolutionStageScope.">
<polygon fill="white" stroke="black" points="113.5,-199.5 113.5,-256.5 252.5,-256.5 252.5,-199.5 113.5,-199.5"/>
<text text-anchor="middle" x="183" y="-244.5" font-family="Helvetica,sans-Serif" font-size="10.00">AsyncSolver.SolverScope</text>
<polyline fill="none" stroke="black" points="113.5,-237.5 252.5,-237.5 "/>
<text text-anchor="middle" x="183" y="-225.5" font-family="Helvetica,sans-Serif" font-size="10.00"> </text>
<polyline fill="none" stroke="black" points="113.5,-218.5 252.5,-218.5 "/>
<text text-anchor="start" x="121.5" y="-206.5" font-family="Helvetica,sans-Serif" font-size="10.00">+ WriteInfo()</text>
</a>
</g>
</g>
<!-- Node2&#45;&gt;Node1 -->
<g id="edge1" class="edge">
<title>Node2&#45;&gt;Node1</title>
<path fill="none" stroke="midnightblue" d="M183,-189.21C183,-180.29 183,-170.95 183,-162.58"/>
<polygon fill="none" stroke="midnightblue" points="179.5,-189.4 183,-199.4 186.5,-189.4 179.5,-189.4"/>
</g>
<!-- Node3 -->
<g id="node3" class="node">
<title>Node3</title>
<g id="a_node3"><a xlink:href="classpython__scripts_1_1async__analysis_1_1SolutionStageScope_1_1SolutionStageScope.html" target="_top" xlink:title="RAII context manager for tasks during solver execution.">
<polygon fill="white" stroke="black" points="126.5,-293.5 126.5,-350.5 239.5,-350.5 239.5,-293.5 126.5,-293.5"/>
<text text-anchor="middle" x="183" y="-338.5" font-family="Helvetica,sans-Serif" font-size="10.00">SolutionStageScope</text>
<polyline fill="none" stroke="black" points="126.5,-331.5 239.5,-331.5 "/>
<text text-anchor="middle" x="183" y="-319.5" font-family="Helvetica,sans-Serif" font-size="10.00"> </text>
<polyline fill="none" stroke="black" points="126.5,-312.5 239.5,-312.5 "/>
<text text-anchor="start" x="134.5" y="-300.5" font-family="Helvetica,sans-Serif" font-size="10.00">+ WriteInfo()</text>
</a>
</g>
</g>
<!-- Node3&#45;&gt;Node2 -->
<g id="edge2" class="edge">
<title>Node3&#45;&gt;Node2</title>
<path fill="none" stroke="midnightblue" d="M183,-283.21C183,-274.29 183,-264.95 183,-256.58"/>
<polygon fill="none" stroke="midnightblue" points="179.5,-283.4 183,-293.4 186.5,-283.4 179.5,-283.4"/>
</g>
<!-- Node4 -->
<g id="node4" class="node">
<title>Node4</title>
<g id="a_node4"><a xlink:title=" ">
<polygon fill="white" stroke="#bfbfbf" points="164.5,-387.5 164.5,-444.5 201.5,-444.5 201.5,-387.5 164.5,-387.5"/>
<text text-anchor="middle" x="183" y="-432.5" font-family="Helvetica,sans-Serif" font-size="10.00">ABC</text>
<polyline fill="none" stroke="#bfbfbf" points="164.5,-425.5 201.5,-425.5 "/>
<text text-anchor="middle" x="183" y="-413.5" font-family="Helvetica,sans-Serif" font-size="10.00"> </text>
<polyline fill="none" stroke="#bfbfbf" points="164.5,-406.5 201.5,-406.5 "/>
<text text-anchor="middle" x="183" y="-394.5" font-family="Helvetica,sans-Serif" font-size="10.00"> </text>
</a>
</g>
</g>
<!-- Node4&#45;&gt;Node3 -->
<g id="edge3" class="edge">
<title>Node4&#45;&gt;Node3</title>
<path fill="none" stroke="midnightblue" d="M183,-377.21C183,-368.29 183,-358.95 183,-350.58"/>
<polygon fill="none" stroke="midnightblue" points="179.5,-377.4 183,-387.4 186.5,-377.4 179.5,-377.4"/>
</g>
</g>
</svg>
        <g id="navigator" transform="translate(0 0)" fill="#404254">
                <rect fill="#f2f5e9" fill-opacity="0.5" stroke="#606060" stroke-width=".5" x="0" y="0" width="60" height="60"/>
                <use id="zoomplus" xlink:href="#zoomPlus" x="17" y="9" onmousedown="handleZoom(evt,'in')"/>
                <use id="zoomminus" xlink:href="#zoomMin" x="42" y="9" onmousedown="handleZoom(evt,'out')"/>
                <use id="reset" xlink:href="#resetDef" x="30" y="36" onmousedown="handleReset()"/>
                <g id="arrowUp" xlink:href="#dirArrow" transform="translate(30 24)" onmousedown="handlePan(0,-1)">
                  <use xlink:href="#rim" fill="#404040">
                        <set attributeName="fill" to="#808080" begin="arrowUp.mouseover" end="arrowUp.mouseout"/>
                  </use>
                  <path fill="none" stroke="white" stroke-width="1.5" d="M0,-3.0v7 M-2.5,-0.5L0,-3.0L2.5,-0.5"/>
                </g>
                <g id="arrowRight" xlink:href="#dirArrow" transform="rotate(90) translate(36 -43)" onmousedown="handlePan(1,0)">
                  <use xlink:href="#rim" fill="#404040">
                        <set attributeName="fill" to="#808080" begin="arrowRight.mouseover" end="arrowRight.mouseout"/>
                  </use>
                  <path fill="none" stroke="white" stroke-width="1.5" d="M0,-3.0v7 M-2.5,-0.5L0,-3.0L2.5,-0.5"/>
                </g>
                <g id="arrowDown" xlink:href="#dirArrow" transform="rotate(180) translate(-30 -48)" onmousedown="handlePan(0,1)">
                  <use xlink:href="#rim" fill="#404040">
                        <set attributeName="fill" to="#808080" begin="arrowDown.mouseover" end="arrowDown.mouseout"/>
                  </use>
                  <path fill="none" stroke="white" stroke-width="1.5" d="M0,-3.0v7 M-2.5,-0.5L0,-3.0L2.5,-0.5"/>
                </g>
                <g id="arrowLeft" xlink:href="#dirArrow" transform="rotate(270) translate(-36 17)" onmousedown="handlePan(-1,0)">
                  <use xlink:href="#rim" fill="#404040">
                        <set attributeName="fill" to="#808080" begin="arrowLeft.mouseover" end="arrowLeft.mouseout"/>
                  </use>
                  <path fill="none" stroke="white" stroke-width="1.5" d="M0,-3.0v7 M-2.5,-0.5L0,-3.0L2.5,-0.5"/>
                </g>
        </g>
        <svg viewBox="0 0 15 15" width="100%" height="30px" preserveAspectRatio="xMaxYMin meet">
         <g id="arrow_out" transform="scale(0.3 0.3)">
          <a xlink:href="classpython__scripts_1_1async__analysis_1_1AsyncSolver_1_1AsyncSolver_1_1SynchronizeScope__inherit__graph_org.svg" target="_base">
           <rect id="button" ry="5" rx="5" y="6" x="6" height="38" width="38"
                fill="#f2f5e9" fill-opacity="0.5" stroke="#606060" stroke-width="1.0"/>
           <path id="arrow"
             d="M 11.500037,31.436501 C 11.940474,20.09759 22.043105,11.32322 32.158766,21.979434 L 37.068811,17.246167 C 37.068811,17.246167 37.088388,32 37.088388,32 L 22.160133,31.978069 C 22.160133,31.978069 26.997745,27.140456 26.997745,27.140456 C 18.528582,18.264221 13.291696,25.230495 11.500037,31.436501 z"
             style="fill:#404040;"/>
          </a>
         </g>
        </svg>
</svg>
