<?xml version="1.0" encoding="UTF-8" standalone="no"?>
<!DOCTYPE svg PUBLIC "-//W3C//DTD SVG 1.1//EN"
 "http://www.w3.org/Graphics/SVG/1.1/DTD/svg11.dtd">
<!-- Generated by graphviz version 2.43.0 (0)
 -->
<!-- Title: Time Pages: 1 -->
<svg width="214pt" height="227pt"
 viewBox="0.00 0.00 214.00 227.00" xmlns="http://www.w3.org/2000/svg" xmlns:xlink="http://www.w3.org/1999/xlink">
<g id="graph0" class="graph" transform="scale(1 1) rotate(0) translate(4 223)">
<title>Time</title>
<!-- Node1 -->
<g id="Node000001" class="node">
<title>Node1</title>
<g id="a_Node000001"><a xlink:title=" ">
<polygon fill="#999999" stroke="transparent" points="118.5,-134 83.5,-134 83.5,-85 118.5,-85 118.5,-134"/>
<text text-anchor="start" x="89" y="-121.5" font-family="Helvetica,sans-Serif" font-size="10.00">Time</text>
<text text-anchor="start" x="99.5" y="-106.5" font-family="Helvetica,sans-Serif" font-size="10.00"> </text>
<text text-anchor="start" x="99.5" y="-91.5" font-family="Helvetica,sans-Serif" font-size="10.00"> </text>
<polygon fill="#666666" stroke="#666666" points="84,-116.5 84,-116.5 119,-116.5 119,-116.5 84,-116.5"/>
<polygon fill="#666666" stroke="#666666" points="84,-101.5 84,-101.5 119,-101.5 119,-101.5 84,-101.5"/>
<polygon fill="none" stroke="#666666" points="83.5,-85 83.5,-134 118.5,-134 118.5,-85 83.5,-85"/>
</a>
</g>
</g>
<!-- Node3 -->
<g id="Node000003" class="node">
<title>Node3</title>
<g id="a_Node000003"><a xlink:href="classpython__scripts_1_1xdmf_1_1Time_1_1TimeGrid.html" target="_top" xlink:title=" ">
<polygon fill="white" stroke="transparent" points="56,-49 0,-49 0,0 56,0 56,-49"/>
<text text-anchor="start" x="5" y="-36.5" font-family="Helvetica,sans-Serif" font-size="10.00">TimeGrid</text>
<text text-anchor="start" x="26" y="-21.5" font-family="Helvetica,sans-Serif" font-size="10.00"> </text>
<text text-anchor="start" x="26" y="-6.5" font-family="Helvetica,sans-Serif" font-size="10.00"> </text>
<polygon fill="#666666" stroke="#666666" points="0,-31.5 0,-31.5 56,-31.5 56,-31.5 0,-31.5"/>
<polygon fill="#666666" stroke="#666666" points="0,-16.5 0,-16.5 56,-16.5 56,-16.5 0,-16.5"/>
<polygon fill="none" stroke="#666666" points="0,0 0,-49 56,-49 56,0 0,0"/>
</a>
</g>
</g>
<!-- Node1&#45;&gt;Node3 -->
<g id="edge2_Node000001_Node000003" class="edge">
<title>Node1&#45;&gt;Node3</title>
<g id="a_edge2_Node000001_Node000003"><a xlink:title=" ">
<path fill="none" stroke="#63b8ff" d="M76.7,-80.87C67.69,-70.63 57.56,-59.11 48.88,-49.24"/>
<polygon fill="none" stroke="#63b8ff" points="74.1,-83.21 83.33,-88.41 79.35,-78.59 74.1,-83.21"/>
</a>
</g>
</g>
<!-- Node4 -->
<g id="Node000004" class="node">
<title>Node4</title>
<g id="a_Node000004"><a xlink:href="classpython__scripts_1_1xdmf_1_1Time_1_1TimeList.html" target="_top" xlink:title=" ">
<polygon fill="white" stroke="transparent" points="127.5,-49 74.5,-49 74.5,0 127.5,0 127.5,-49"/>
<text text-anchor="start" x="80" y="-36.5" font-family="Helvetica,sans-Serif" font-size="10.00">TimeList</text>
<text text-anchor="start" x="99.5" y="-21.5" font-family="Helvetica,sans-Serif" font-size="10.00"> </text>
<text text-anchor="start" x="99.5" y="-6.5" font-family="Helvetica,sans-Serif" font-size="10.00"> </text>
<polygon fill="#666666" stroke="#666666" points="75,-31.5 75,-31.5 128,-31.5 128,-31.5 75,-31.5"/>
<polygon fill="#666666" stroke="#666666" points="75,-16.5 75,-16.5 128,-16.5 128,-16.5 75,-16.5"/>
<polygon fill="none" stroke="#666666" points="74.5,0 74.5,-49 127.5,-49 127.5,0 74.5,0"/>
</a>
</g>
</g>
<!-- Node1&#45;&gt;Node4 -->
<g id="edge3_Node000001_Node000004" class="edge">
<title>Node1&#45;&gt;Node4</title>
<g id="a_edge3_Node000001_Node000004"><a xlink:title=" ">
<path fill="none" stroke="#63b8ff" d="M101,-74.77C101,-66.17 101,-57.1 101,-49.12"/>
<polygon fill="none" stroke="#63b8ff" points="97.5,-74.94 101,-84.94 104.5,-74.94 97.5,-74.94"/>
</a>
</g>
</g>
<!-- Node5 -->
<g id="Node000005" class="node">
<title>Node5</title>
<g id="a_Node000005"><a xlink:href="classpython__scripts_1_1xdmf_1_1Time_1_1TimePoint.html" target="_top" xlink:title=" ">
<polygon fill="white" stroke="transparent" points="206,-49 146,-49 146,0 206,0 206,-49"/>
<text text-anchor="start" x="151" y="-36.5" font-family="Helvetica,sans-Serif" font-size="10.00">TimePoint</text>
<text text-anchor="start" x="174" y="-21.5" font-family="Helvetica,sans-Serif" font-size="10.00"> </text>
<text text-anchor="start" x="174" y="-6.5" font-family="Helvetica,sans-Serif" font-size="10.00"> </text>
<polygon fill="#666666" stroke="#666666" points="146,-31.5 146,-31.5 206,-31.5 206,-31.5 146,-31.5"/>
<polygon fill="#666666" stroke="#666666" points="146,-16.5 146,-16.5 206,-16.5 206,-16.5 146,-16.5"/>
<polygon fill="none" stroke="#666666" points="146,0 146,-49 206,-49 206,0 146,0"/>
</a>
</g>
</g>
<!-- Node1&#45;&gt;Node5 -->
<g id="edge4_Node000001_Node000005" class="edge">
<title>Node1&#45;&gt;Node5</title>
<g id="a_edge4_Node000001_Node000005"><a xlink:title=" ">
<path fill="none" stroke="#63b8ff" d="M125.65,-81.22C135.01,-70.87 145.58,-59.16 154.61,-49.17"/>
<polygon fill="none" stroke="#63b8ff" points="122.88,-79.06 118.77,-88.83 128.08,-83.76 122.88,-79.06"/>
</a>
</g>
</g>
<!-- Node2 -->
<g id="Node000002" class="node">
<title>Node2</title>
<g id="a_Node000002"><a xlink:title=" ">
<polygon fill="white" stroke="transparent" points="126.5,-219 75.5,-219 75.5,-170 126.5,-170 126.5,-219"/>
<text text-anchor="start" x="81" y="-206.5" font-family="Helvetica,sans-Serif" font-size="10.00">Element</text>
<text text-anchor="start" x="99.5" y="-191.5" font-family="Helvetica,sans-Serif" font-size="10.00"> </text>
<text text-anchor="start" x="99.5" y="-176.5" font-family="Helvetica,sans-Serif" font-size="10.00"> </text>
<polygon fill="#666666" stroke="#666666" points="76,-201.5 76,-201.5 127,-201.5 127,-201.5 76,-201.5"/>
<polygon fill="#666666" stroke="#666666" points="76,-186.5 76,-186.5 127,-186.5 127,-186.5 76,-186.5"/>
<polygon fill="none" stroke="#666666" points="75.5,-170 75.5,-219 126.5,-219 126.5,-170 75.5,-170"/>
</a>
</g>
</g>
<!-- Node2&#45;&gt;Node1 -->
<g id="edge1_Node000001_Node000002" class="edge">
<title>Node2&#45;&gt;Node1</title>
<g id="a_edge1_Node000001_Node000002"><a xlink:title=" ">
<path fill="none" stroke="#63b8ff" d="M101,-159.77C101,-151.17 101,-142.1 101,-134.12"/>
<polygon fill="none" stroke="#63b8ff" points="97.5,-159.94 101,-169.94 104.5,-159.94 97.5,-159.94"/>
</a>
</g>
</g>
</g>
</svg>
