<?xml version="1.0" encoding="UTF-8" standalone="no"?>
<!DOCTYPE svg PUBLIC "-//W3C//DTD SVG 1.1//EN"
 "http://www.w3.org/Graphics/SVG/1.1/DTD/svg11.dtd">
<!-- Generated by graphviz version 2.43.0 (0)
 -->
<!-- Title: WorkingDirectoryOperation Pages: 1 -->
<svg width="158pt" height="157pt"
 viewBox="0.00 0.00 157.50 157.00" xmlns="http://www.w3.org/2000/svg" xmlns:xlink="http://www.w3.org/1999/xlink">
<g id="graph0" class="graph" transform="scale(1 1) rotate(0) translate(4 153)">
<title>WorkingDirectoryOperation</title>
<!-- Node1 -->
<g id="Node000001" class="node">
<title>Node1</title>
<g id="a_Node000001"><a xlink:title="Change the working directory.">
<polygon fill="#999999" stroke="transparent" points="143,-64 0,-64 0,0 143,0 143,-64"/>
<text text-anchor="start" x="5.5" y="-52" font-family="Helvetica,sans-Serif" font-size="10.00">WorkingDirectoryOperation</text>
<text text-anchor="start" x="70" y="-37" font-family="Helvetica,sans-Serif" font-size="10.00"> </text>
<text text-anchor="start" x="5.5" y="-22" font-family="Helvetica,sans-Serif" font-size="10.00">+</text>
<text text-anchor="start" x="19.5" y="-22" font-family="Helvetica,sans-Serif" font-size="10.00">Execute()</text>
<text text-anchor="start" x="5.5" y="-7" font-family="Helvetica,sans-Serif" font-size="10.00">+</text>
<text text-anchor="start" x="19.5" y="-7" font-family="Helvetica,sans-Serif" font-size="10.00">GetDefaultParameters()</text>
<polygon fill="#666666" stroke="#666666" points="0.5,-47 0.5,-47 143.5,-47 143.5,-47 0.5,-47"/>
<polygon fill="#666666" stroke="#666666" points="0.5,-32 0.5,-32 143.5,-32 143.5,-32 0.5,-32"/>
<polygon fill="none" stroke="#666666" points="0,0 0,-64 143,-64 143,0 0,0"/>
</a>
</g>
</g>
<!-- Node2 -->
<g id="Node000002" class="node">
<title>Node2</title>
<g id="a_Node000002"><a xlink:title=" ">
<polygon fill="white" stroke="transparent" points="59,-149 0,-149 0,-100 59,-100 59,-149"/>
<text text-anchor="start" x="5.5" y="-136.5" font-family="Helvetica,sans-Serif" font-size="10.00">Operation</text>
<text text-anchor="start" x="28" y="-121.5" font-family="Helvetica,sans-Serif" font-size="10.00"> </text>
<text text-anchor="start" x="28" y="-106.5" font-family="Helvetica,sans-Serif" font-size="10.00"> </text>
<polygon fill="#666666" stroke="#666666" points="0.5,-131.5 0.5,-131.5 59.5,-131.5 59.5,-131.5 0.5,-131.5"/>
<polygon fill="#666666" stroke="#666666" points="0.5,-116.5 0.5,-116.5 59.5,-116.5 59.5,-116.5 0.5,-116.5"/>
<polygon fill="none" stroke="#666666" points="0,-100 0,-149 59,-149 59,-100 0,-100"/>
</a>
</g>
</g>
<!-- Node2&#45;&gt;Node1 -->
<g id="edge1_Node000001_Node000002" class="edge">
<title>Node2&#45;&gt;Node1</title>
<g id="a_edge1_Node000001_Node000002"><a xlink:title=" ">
<path fill="none" stroke="#63b8ff" d="M44.74,-90.65C48.76,-81.99 53.09,-72.68 57.06,-64.11"/>
<polygon fill="none" stroke="#63b8ff" points="41.57,-89.18 40.54,-99.72 47.92,-92.12 41.57,-89.18"/>
</a>
</g>
</g>
<!-- Node3 -->
<g id="Node000003" class="node">
<title>Node3</title>
<g id="a_Node000003"><a xlink:title=" ">
<polygon fill="white" stroke="transparent" points="149.5,-149 77.5,-149 77.5,-100 149.5,-100 149.5,-149"/>
<text text-anchor="start" x="82.5" y="-136.5" font-family="Helvetica,sans-Serif" font-size="10.00">WRAppClass</text>
<text text-anchor="start" x="111.5" y="-121.5" font-family="Helvetica,sans-Serif" font-size="10.00"> </text>
<text text-anchor="start" x="111.5" y="-106.5" font-family="Helvetica,sans-Serif" font-size="10.00"> </text>
<polygon fill="#666666" stroke="#666666" points="77.5,-131.5 77.5,-131.5 149.5,-131.5 149.5,-131.5 77.5,-131.5"/>
<polygon fill="#666666" stroke="#666666" points="77.5,-116.5 77.5,-116.5 149.5,-116.5 149.5,-116.5 77.5,-116.5"/>
<polygon fill="none" stroke="#666666" points="77.5,-100 77.5,-149 149.5,-149 149.5,-100 77.5,-100"/>
</a>
</g>
</g>
<!-- Node3&#45;&gt;Node1 -->
<g id="edge2_Node000001_Node000003" class="edge">
<title>Node3&#45;&gt;Node1</title>
<g id="a_edge2_Node000001_Node000003"><a xlink:title=" ">
<path fill="none" stroke="#63b8ff" d="M98.26,-90.65C94.24,-81.99 89.91,-72.68 85.94,-64.11"/>
<polygon fill="none" stroke="#63b8ff" points="95.08,-92.12 102.46,-99.72 101.43,-89.18 95.08,-92.12"/>
</a>
</g>
</g>
</g>
</svg>
