<?xml version="1.0" encoding="UTF-8" standalone="no"?>
<!DOCTYPE svg PUBLIC "-//W3C//DTD SVG 1.1//EN"
 "http://www.w3.org/Graphics/SVG/1.1/DTD/svg11.dtd">
<!-- Generated by graphviz version 2.43.0 (0)
 -->
<!-- Title: SnapshotInMemoryInput Pages: 1 -->
<svg width="138pt" height="172pt"
 viewBox="0.00 0.00 138.00 172.00" xmlns="http://www.w3.org/2000/svg" xmlns:xlink="http://www.w3.org/1999/xlink">
<g id="graph0" class="graph" transform="scale(1 1) rotate(0) translate(4 168)">
<title>SnapshotInMemoryInput</title>
<!-- Node1 -->
<g id="Node000001" class="node">
<title>Node1</title>
<g id="a_Node000001"><a xlink:title="Implements Snapshot input operations in memory.">
<polygon fill="#999999" stroke="transparent" points="130,-79 0,-79 0,0 130,0 130,-79"/>
<text text-anchor="start" x="5" y="-66.5" font-family="Helvetica,sans-Serif" font-size="10.00">SnapshotInMemoryInput</text>
<text text-anchor="start" x="11.5" y="-51.5" font-family="Helvetica,sans-Serif" font-size="10.00">#</text>
<text text-anchor="start" x="32" y="-51.5" font-family="Helvetica,sans-Serif" font-size="10.00">_parameters</text>
<text text-anchor="start" x="11.5" y="-36.5" font-family="Helvetica,sans-Serif" font-size="10.00">+</text>
<text text-anchor="start" x="32" y="-36.5" font-family="Helvetica,sans-Serif" font-size="10.00">GetEntry()</text>
<text text-anchor="start" x="11.5" y="-21.5" font-family="Helvetica,sans-Serif" font-size="10.00">+</text>
<text text-anchor="start" x="32" y="-21.5" font-family="Helvetica,sans-Serif" font-size="10.00">GetExpression()</text>
<text text-anchor="start" x="11.5" y="-6.5" font-family="Helvetica,sans-Serif" font-size="10.00">#</text>
<text text-anchor="start" x="32" y="-6.5" font-family="Helvetica,sans-Serif" font-size="10.00">_GetOperation()</text>
<polygon fill="#666666" stroke="#666666" points="0,-61.5 0,-61.5 130,-61.5 130,-61.5 0,-61.5"/>
<polygon fill="#666666" stroke="#666666" points="0,-46.5 0,-46.5 30,-46.5 30,-46.5 0,-46.5"/>
<polygon fill="#666666" stroke="#666666" points="30,-46.5 30,-46.5 130,-46.5 130,-46.5 30,-46.5"/>
<polygon fill="none" stroke="#666666" points="0,0 0,-79 130,-79 130,0 0,0"/>
</a>
</g>
</g>
<!-- Node2 -->
<g id="Node000002" class="node">
<title>Node2</title>
<g id="a_Node000002"><a xlink:title=" ">
<polygon fill="white" stroke="transparent" points="123,-164 7,-164 7,-115 123,-115 123,-164"/>
<text text-anchor="start" x="12" y="-151.5" font-family="Helvetica,sans-Serif" font-size="10.00">SnapshotInMemoryIO</text>
<text text-anchor="start" x="63" y="-136.5" font-family="Helvetica,sans-Serif" font-size="10.00"> </text>
<text text-anchor="start" x="63" y="-121.5" font-family="Helvetica,sans-Serif" font-size="10.00"> </text>
<polygon fill="#666666" stroke="#666666" points="7,-146.5 7,-146.5 123,-146.5 123,-146.5 7,-146.5"/>
<polygon fill="#666666" stroke="#666666" points="7,-131.5 7,-131.5 123,-131.5 123,-131.5 7,-131.5"/>
<polygon fill="none" stroke="#666666" points="7,-115 7,-164 123,-164 123,-115 7,-115"/>
</a>
</g>
</g>
<!-- Node2&#45;&gt;Node1 -->
<g id="edge1_Node000001_Node000002" class="edge">
<title>Node2&#45;&gt;Node1</title>
<g id="a_edge1_Node000001_Node000002"><a xlink:title=" ">
<path fill="none" stroke="#63b8ff" d="M65,-104.52C65,-96.38 65,-87.63 65,-79.29"/>
<polygon fill="none" stroke="#63b8ff" points="61.5,-104.78 65,-114.78 68.5,-104.78 61.5,-104.78"/>
</a>
</g>
</g>
</g>
</svg>
