<?xml version="1.0" encoding="UTF-8" standalone="no"?>
<!DOCTYPE svg PUBLIC "-//W3C//DTD SVG 1.1//EN"
 "http://www.w3.org/Graphics/SVG/1.1/DTD/svg11.dtd">
<!-- Generated by graphviz version 2.43.0 (0)
 -->
<!-- Title: GenerateXDMFProcess Pages: 1 -->
<svg width="146pt" height="142pt"
 viewBox="0.00 0.00 146.00 142.00" xmlns="http://www.w3.org/2000/svg" xmlns:xlink="http://www.w3.org/1999/xlink">
<g id="graph0" class="graph" transform="scale(1 1) rotate(0) translate(4 138)">
<title>GenerateXDMFProcess</title>
<!-- Node1 -->
<g id="Node000001" class="node">
<title>Node1</title>
<g id="a_Node000001"><a xlink:title="Generate XDMF output for an existing set of HDF5 output files.">
<polygon fill="#999999" stroke="transparent" points="124,-49 2,-49 2,0 124,0 124,-49"/>
<text text-anchor="start" x="7" y="-36.5" font-family="Helvetica,sans-Serif" font-size="10.00">GenerateXDMFProcess</text>
<text text-anchor="start" x="61" y="-21.5" font-family="Helvetica,sans-Serif" font-size="10.00"> </text>
<text text-anchor="start" x="61" y="-6.5" font-family="Helvetica,sans-Serif" font-size="10.00"> </text>
<polygon fill="#666666" stroke="#666666" points="2,-31.5 2,-31.5 124,-31.5 124,-31.5 2,-31.5"/>
<polygon fill="#666666" stroke="#666666" points="2,-16.5 2,-16.5 124,-16.5 124,-16.5 2,-16.5"/>
<polygon fill="none" stroke="#666666" points="2,0 2,-49 124,-49 124,0 2,0"/>
</a>
</g>
</g>
<!-- Node2 -->
<g id="Node000002" class="node">
<title>Node2</title>
<g id="a_Node000002"><a xlink:title=" ">
<polygon fill="white" stroke="transparent" points="48,-134 0,-134 0,-85 48,-85 48,-134"/>
<text text-anchor="start" x="5" y="-121.5" font-family="Helvetica,sans-Serif" font-size="10.00">Process</text>
<text text-anchor="start" x="22" y="-106.5" font-family="Helvetica,sans-Serif" font-size="10.00"> </text>
<text text-anchor="start" x="22" y="-91.5" font-family="Helvetica,sans-Serif" font-size="10.00"> </text>
<polygon fill="#666666" stroke="#666666" points="0,-116.5 0,-116.5 48,-116.5 48,-116.5 0,-116.5"/>
<polygon fill="#666666" stroke="#666666" points="0,-101.5 0,-101.5 48,-101.5 48,-101.5 0,-101.5"/>
<polygon fill="none" stroke="#666666" points="0,-85 0,-134 48,-134 48,-85 0,-85"/>
</a>
</g>
</g>
<!-- Node2&#45;&gt;Node1 -->
<g id="edge1_Node000001_Node000002" class="edge">
<title>Node2&#45;&gt;Node1</title>
<g id="a_edge1_Node000001_Node000002"><a xlink:title=" ">
<path fill="none" stroke="#63b8ff" d="M39.45,-75.62C43.61,-66.77 48.03,-57.36 51.9,-49.12"/>
<polygon fill="none" stroke="#63b8ff" points="36.16,-74.4 35.07,-84.94 42.49,-77.38 36.16,-74.4"/>
</a>
</g>
</g>
<!-- Node3 -->
<g id="Node000003" class="node">
<title>Node3</title>
<g id="a_Node000003"><a xlink:title=" ">
<polygon fill="white" stroke="transparent" points="138,-134 66,-134 66,-85 138,-85 138,-134"/>
<text text-anchor="start" x="71" y="-121.5" font-family="Helvetica,sans-Serif" font-size="10.00">WRAppClass</text>
<text text-anchor="start" x="100" y="-106.5" font-family="Helvetica,sans-Serif" font-size="10.00"> </text>
<text text-anchor="start" x="100" y="-91.5" font-family="Helvetica,sans-Serif" font-size="10.00"> </text>
<polygon fill="#666666" stroke="#666666" points="66,-116.5 66,-116.5 138,-116.5 138,-116.5 66,-116.5"/>
<polygon fill="#666666" stroke="#666666" points="66,-101.5 66,-101.5 138,-101.5 138,-101.5 66,-101.5"/>
<polygon fill="none" stroke="#666666" points="66,-85 66,-134 138,-134 138,-85 66,-85"/>
</a>
</g>
</g>
<!-- Node3&#45;&gt;Node1 -->
<g id="edge2_Node000001_Node000003" class="edge">
<title>Node3&#45;&gt;Node1</title>
<g id="a_edge2_Node000001_Node000003"><a xlink:title=" ">
<path fill="none" stroke="#63b8ff" d="M86.55,-75.62C82.39,-66.77 77.97,-57.36 74.1,-49.12"/>
<polygon fill="none" stroke="#63b8ff" points="83.51,-77.38 90.93,-84.94 89.84,-74.4 83.51,-77.38"/>
</a>
</g>
</g>
</g>
</svg>
