<?xml version="1.0" encoding="UTF-8" standalone="no"?>
<!DOCTYPE svg PUBLIC "-//W3C//DTD SVG 1.1//EN"
 "http://www.w3.org/Graphics/SVG/1.1/DTD/svg11.dtd">
<!-- Generated by graphviz version 2.43.0 (0)
 -->
<!-- Title: WRAppClass Pages: 1 -->
<svg width="258pt" height="254pt"
 viewBox="0.00 0.00 258.00 254.00" xmlns="http://www.w3.org/2000/svg" xmlns:xlink="http://www.w3.org/1999/xlink">
<g id="graph0" class="graph" transform="scale(1 1) rotate(0) translate(4 250)">
<title>WRAppClass</title>
<polygon fill="white" stroke="transparent" points="-4,4 -4,-250 254,-250 254,4 -4,4"/>
<!-- Node1 -->
<g id="node1" class="node">
<title>Node1</title>
<g id="a_node1"><a xlink:title="WRApp::WRAppClass with a replaced metaclass for compatibility with abc.">
<polygon fill="#bfbfbf" stroke="black" points="54.5,-0.5 54.5,-57.5 198.5,-57.5 198.5,-0.5 54.5,-0.5"/>
<text text-anchor="middle" x="126.5" y="-45.5" font-family="Helvetica,sans-Serif" font-size="10.00">WRAppClass</text>
<polyline fill="none" stroke="black" points="54.5,-38.5 198.5,-38.5 "/>
<text text-anchor="middle" x="126.5" y="-26.5" font-family="Helvetica,sans-Serif" font-size="10.00"> </text>
<polyline fill="none" stroke="black" points="54.5,-19.5 198.5,-19.5 "/>
<text text-anchor="start" x="62.5" y="-7.5" font-family="Helvetica,sans-Serif" font-size="10.00">+ GetDefaultParameters()</text>
</a>
</g>
</g>
<!-- Node2 -->
<g id="node2" class="node">
<title>Node2</title>
<g id="a_node2"><a xlink:title=" ">
<polygon fill="white" stroke="#bfbfbf" points="0,-188.5 0,-245.5 89,-245.5 89,-188.5 0,-188.5"/>
<text text-anchor="middle" x="44.5" y="-233.5" font-family="Helvetica,sans-Serif" font-size="10.00">__WRAppClass</text>
<polyline fill="none" stroke="#bfbfbf" points="0,-226.5 89,-226.5 "/>
<text text-anchor="middle" x="44.5" y="-214.5" font-family="Helvetica,sans-Serif" font-size="10.00"> </text>
<polyline fill="none" stroke="#bfbfbf" points="0,-207.5 89,-207.5 "/>
<text text-anchor="middle" x="44.5" y="-195.5" font-family="Helvetica,sans-Serif" font-size="10.00"> </text>
</a>
</g>
</g>
<!-- Node2&#45;&gt;Node1 -->
<g id="edge1" class="edge">
<title>Node2&#45;&gt;Node1</title>
<path fill="none" stroke="midnightblue" d="M51.24,-178.19C56.57,-153.4 65.32,-120.75 78.5,-94 84.82,-81.17 93.83,-68.3 102.33,-57.5"/>
<polygon fill="none" stroke="midnightblue" points="47.75,-177.79 49.17,-188.29 54.61,-179.2 47.75,-177.79"/>
</g>
<!-- Node4 -->
<g id="node4" class="node">
<title>Node4</title>
<g id="a_node4"><a xlink:href="classpython__scripts_1_1WRAppMeta.html" target="_top" xlink:title="Metaclass replacing that of the C++ WRAppClass to provide derived classes access to abc....">
<polygon fill="white" stroke="black" points="88,-94.5 88,-151.5 165,-151.5 165,-94.5 88,-94.5"/>
<text text-anchor="middle" x="126.5" y="-139.5" font-family="Helvetica,sans-Serif" font-size="10.00">WRAppMeta</text>
<polyline fill="none" stroke="black" points="88,-132.5 165,-132.5 "/>
<text text-anchor="middle" x="126.5" y="-120.5" font-family="Helvetica,sans-Serif" font-size="10.00"> </text>
<polyline fill="none" stroke="black" points="88,-113.5 165,-113.5 "/>
<text text-anchor="middle" x="126.5" y="-101.5" font-family="Helvetica,sans-Serif" font-size="10.00"> </text>
</a>
</g>
</g>
<!-- Node2&#45;&gt;Node4 -->
<g id="edge7" class="edge">
<title>Node2&#45;&gt;Node4</title>
<path fill="none" stroke="midnightblue" d="M75.86,-180.81C84.49,-171.13 93.73,-160.77 101.91,-151.58"/>
<polygon fill="none" stroke="midnightblue" points="73.14,-178.6 69.1,-188.4 78.37,-183.26 73.14,-178.6"/>
</g>
<!-- Node3 -->
<g id="node3" class="node">
<title>Node3</title>
<g id="a_node3"><a xlink:title=" ">
<polygon fill="white" stroke="#bfbfbf" points="183,-94.5 183,-151.5 250,-151.5 250,-94.5 183,-94.5"/>
<text text-anchor="middle" x="216.5" y="-139.5" font-family="Helvetica,sans-Serif" font-size="10.00">metaclass</text>
<polyline fill="none" stroke="#bfbfbf" points="183,-132.5 250,-132.5 "/>
<text text-anchor="middle" x="216.5" y="-120.5" font-family="Helvetica,sans-Serif" font-size="10.00"> </text>
<polyline fill="none" stroke="#bfbfbf" points="183,-113.5 250,-113.5 "/>
<text text-anchor="middle" x="216.5" y="-101.5" font-family="Helvetica,sans-Serif" font-size="10.00"> </text>
</a>
</g>
</g>
<!-- Node3&#45;&gt;Node1 -->
<g id="edge2" class="edge">
<title>Node3&#45;&gt;Node1</title>
<path fill="none" stroke="midnightblue" d="M182.36,-87.1C172.81,-77.34 162.56,-66.86 153.48,-57.58"/>
<polygon fill="none" stroke="midnightblue" points="180,-89.7 189.5,-94.4 185.01,-84.8 180,-89.7"/>
</g>
<!-- Node4&#45;&gt;Node1 -->
<g id="edge3" class="edge">
<title>Node4&#45;&gt;Node1</title>
<path fill="none" stroke="midnightblue" d="M126.5,-84.21C126.5,-75.29 126.5,-65.95 126.5,-57.58"/>
<polygon fill="none" stroke="midnightblue" points="123,-84.4 126.5,-94.4 130,-84.4 123,-84.4"/>
</g>
<!-- Node5 -->
<g id="node5" class="node">
<title>Node5</title>
<g id="a_node5"><a xlink:title=" ">
<polygon fill="white" stroke="#bfbfbf" points="107.5,-188.5 107.5,-245.5 145.5,-245.5 145.5,-188.5 107.5,-188.5"/>
<text text-anchor="middle" x="126.5" y="-233.5" font-family="Helvetica,sans-Serif" font-size="10.00">type</text>
<polyline fill="none" stroke="#bfbfbf" points="107.5,-226.5 145.5,-226.5 "/>
<text text-anchor="middle" x="126.5" y="-214.5" font-family="Helvetica,sans-Serif" font-size="10.00"> </text>
<polyline fill="none" stroke="#bfbfbf" points="107.5,-207.5 145.5,-207.5 "/>
<text text-anchor="middle" x="126.5" y="-195.5" font-family="Helvetica,sans-Serif" font-size="10.00"> </text>
</a>
</g>
</g>
<!-- Node5&#45;&gt;Node4 -->
<g id="edge4" class="edge">
<title>Node5&#45;&gt;Node4</title>
<path fill="none" stroke="midnightblue" d="M119.85,-178.21C119.63,-169.29 119.77,-159.95 120.26,-151.58"/>
<polygon fill="none" stroke="midnightblue" points="116.36,-178.55 120.25,-188.4 123.35,-178.26 116.36,-178.55"/>
</g>
<!-- Node5&#45;&gt;Node4 -->
<g id="edge6" class="edge">
<title>Node5&#45;&gt;Node4</title>
<path fill="none" stroke="midnightblue" d="M133.15,-178.21C133.37,-169.29 133.23,-159.95 132.74,-151.58"/>
<polygon fill="none" stroke="midnightblue" points="129.65,-178.26 132.75,-188.4 136.64,-178.55 129.65,-178.26"/>
</g>
<!-- Node6 -->
<g id="node6" class="node">
<title>Node6</title>
<g id="a_node6"><a xlink:title=" ">
<polygon fill="white" stroke="#bfbfbf" points="164,-188.5 164,-245.5 201,-245.5 201,-188.5 164,-188.5"/>
<text text-anchor="middle" x="182.5" y="-233.5" font-family="Helvetica,sans-Serif" font-size="10.00">ABC</text>
<polyline fill="none" stroke="#bfbfbf" points="164,-226.5 201,-226.5 "/>
<text text-anchor="middle" x="182.5" y="-214.5" font-family="Helvetica,sans-Serif" font-size="10.00"> </text>
<polyline fill="none" stroke="#bfbfbf" points="164,-207.5 201,-207.5 "/>
<text text-anchor="middle" x="182.5" y="-195.5" font-family="Helvetica,sans-Serif" font-size="10.00"> </text>
</a>
</g>
</g>
<!-- Node6&#45;&gt;Node4 -->
<g id="edge5" class="edge">
<title>Node6&#45;&gt;Node4</title>
<path fill="none" stroke="midnightblue" d="M160.38,-179.66C154.69,-170.31 148.66,-160.41 143.29,-151.58"/>
<polygon fill="none" stroke="midnightblue" points="157.51,-181.67 165.7,-188.4 163.49,-178.04 157.51,-181.67"/>
</g>
</g>
</svg>
