<?xml version="1.0" encoding="UTF-8" standalone="no"?>
<!DOCTYPE svg PUBLIC "-//W3C//DTD SVG 1.1//EN"
 "http://www.w3.org/Graphics/SVG/1.1/DTD/svg11.dtd">
<!-- Generated by graphviz version 2.43.0 (0)
 -->
<!-- Title: AsyncSolver.PreprocessScope Pages: 1 -->
<svg width="169pt" height="348pt"
 viewBox="0.00 0.00 169.00 348.00" xmlns="http://www.w3.org/2000/svg" xmlns:xlink="http://www.w3.org/1999/xlink">
<g id="graph0" class="graph" transform="scale(1 1) rotate(0) translate(4 344)">
<title>AsyncSolver.PreprocessScope</title>
<polygon fill="white" stroke="transparent" points="-4,4 -4,-344 165,-344 165,4 -4,4"/>
<!-- Node1 -->
<g id="node1" class="node">
<title>Node1</title>
<g id="a_node1"><a xlink:title="Embed AsyncSolver._Preprocess in a SolutionStageScope.">
<polygon fill="#bfbfbf" stroke="black" points="0,-0.5 0,-57.5 161,-57.5 161,-0.5 0,-0.5"/>
<text text-anchor="middle" x="80.5" y="-45.5" font-family="Helvetica,sans-Serif" font-size="10.00">AsyncSolver.PreprocessScope</text>
<polyline fill="none" stroke="black" points="0,-38.5 161,-38.5 "/>
<text text-anchor="middle" x="80.5" y="-26.5" font-family="Helvetica,sans-Serif" font-size="10.00"> </text>
<polyline fill="none" stroke="black" points="0,-19.5 161,-19.5 "/>
<text text-anchor="middle" x="80.5" y="-7.5" font-family="Helvetica,sans-Serif" font-size="10.00"> </text>
</a>
</g>
</g>
<!-- Node2 -->
<g id="node2" class="node">
<title>Node2</title>
<g id="a_node2"><a xlink:href="classpython__scripts_1_1async__analysis_1_1AsyncSolver_1_1AsyncSolver_1_1SolverScope.html" target="_top" xlink:title="Embed some part of AsyncSolver in a SolutionStageScope.">
<polygon fill="white" stroke="black" points="11,-94.5 11,-151.5 150,-151.5 150,-94.5 11,-94.5"/>
<text text-anchor="middle" x="80.5" y="-139.5" font-family="Helvetica,sans-Serif" font-size="10.00">AsyncSolver.SolverScope</text>
<polyline fill="none" stroke="black" points="11,-132.5 150,-132.5 "/>
<text text-anchor="middle" x="80.5" y="-120.5" font-family="Helvetica,sans-Serif" font-size="10.00"> </text>
<polyline fill="none" stroke="black" points="11,-113.5 150,-113.5 "/>
<text text-anchor="middle" x="80.5" y="-101.5" font-family="Helvetica,sans-Serif" font-size="10.00"> </text>
</a>
</g>
</g>
<!-- Node2&#45;&gt;Node1 -->
<g id="edge1" class="edge">
<title>Node2&#45;&gt;Node1</title>
<path fill="none" stroke="midnightblue" d="M80.5,-84.21C80.5,-75.29 80.5,-65.95 80.5,-57.58"/>
<polygon fill="none" stroke="midnightblue" points="77,-84.4 80.5,-94.4 84,-84.4 77,-84.4"/>
</g>
<!-- Node3 -->
<g id="node3" class="node">
<title>Node3</title>
<g id="a_node3"><a xlink:href="classpython__scripts_1_1async__analysis_1_1SolutionStageScope_1_1SolutionStageScope.html" target="_top" xlink:title="RAII context manager for tasks during solver execution.">
<polygon fill="white" stroke="black" points="24,-188.5 24,-245.5 137,-245.5 137,-188.5 24,-188.5"/>
<text text-anchor="middle" x="80.5" y="-233.5" font-family="Helvetica,sans-Serif" font-size="10.00">SolutionStageScope</text>
<polyline fill="none" stroke="black" points="24,-226.5 137,-226.5 "/>
<text text-anchor="middle" x="80.5" y="-214.5" font-family="Helvetica,sans-Serif" font-size="10.00"> </text>
<polyline fill="none" stroke="black" points="24,-207.5 137,-207.5 "/>
<text text-anchor="middle" x="80.5" y="-195.5" font-family="Helvetica,sans-Serif" font-size="10.00"> </text>
</a>
</g>
</g>
<!-- Node3&#45;&gt;Node2 -->
<g id="edge2" class="edge">
<title>Node3&#45;&gt;Node2</title>
<path fill="none" stroke="midnightblue" d="M80.5,-178.21C80.5,-169.29 80.5,-159.95 80.5,-151.58"/>
<polygon fill="none" stroke="midnightblue" points="77,-178.4 80.5,-188.4 84,-178.4 77,-178.4"/>
</g>
<!-- Node4 -->
<g id="node4" class="node">
<title>Node4</title>
<g id="a_node4"><a xlink:title=" ">
<polygon fill="white" stroke="#bfbfbf" points="62,-282.5 62,-339.5 99,-339.5 99,-282.5 62,-282.5"/>
<text text-anchor="middle" x="80.5" y="-327.5" font-family="Helvetica,sans-Serif" font-size="10.00">ABC</text>
<polyline fill="none" stroke="#bfbfbf" points="62,-320.5 99,-320.5 "/>
<text text-anchor="middle" x="80.5" y="-308.5" font-family="Helvetica,sans-Serif" font-size="10.00"> </text>
<polyline fill="none" stroke="#bfbfbf" points="62,-301.5 99,-301.5 "/>
<text text-anchor="middle" x="80.5" y="-289.5" font-family="Helvetica,sans-Serif" font-size="10.00"> </text>
</a>
</g>
</g>
<!-- Node4&#45;&gt;Node3 -->
<g id="edge3" class="edge">
<title>Node4&#45;&gt;Node3</title>
<path fill="none" stroke="midnightblue" d="M80.5,-272.21C80.5,-263.29 80.5,-253.95 80.5,-245.58"/>
<polygon fill="none" stroke="midnightblue" points="77,-272.4 80.5,-282.4 84,-272.4 77,-272.4"/>
</g>
</g>
</svg>
