<?xml version="1.0" encoding="UTF-8" standalone="no"?>
<!DOCTYPE svg PUBLIC "-//W3C//DTD SVG 1.1//EN"
 "http://www.w3.org/Graphics/SVG/1.1/DTD/svg11.dtd">
<!-- Generated by graphviz version 2.43.0 (0)
 -->
<!-- Title: AsyncSolver.SynchronizeScope Pages: 1 -->
<svg width="368pt" height="453pt"
 viewBox="0.00 0.00 368.00 453.00" xmlns="http://www.w3.org/2000/svg" xmlns:xlink="http://www.w3.org/1999/xlink">
<g id="graph0" class="graph" transform="scale(1 1) rotate(0) translate(4 449)">
<title>AsyncSolver.SynchronizeScope</title>
<polygon fill="white" stroke="transparent" points="-4,4 -4,-449 364,-449 364,4 -4,4"/>
<!-- Node1 -->
<g id="node1" class="node">
<title>Node1</title>
<g id="a_node1"><a xlink:title="Embed AsyncSolver._Synchronize in a SolutionStageScope.">
<polygon fill="#bfbfbf" stroke="black" points="99.5,-105.5 99.5,-162.5 266.5,-162.5 266.5,-105.5 99.5,-105.5"/>
<text text-anchor="middle" x="183" y="-150.5" font-family="Helvetica,sans-Serif" font-size="10.00">AsyncSolver.SynchronizeScope</text>
<polyline fill="none" stroke="black" points="99.5,-143.5 266.5,-143.5 "/>
<text text-anchor="middle" x="183" y="-131.5" font-family="Helvetica,sans-Serif" font-size="10.00"> </text>
<polyline fill="none" stroke="black" points="99.5,-124.5 266.5,-124.5 "/>
<text text-anchor="start" x="107.5" y="-112.5" font-family="Helvetica,sans-Serif" font-size="10.00">+ WriteInfo()</text>
</a>
</g>
</g>
<!-- Node5 -->
<g id="node5" class="node">
<title>Node5</title>
<g id="a_node5"><a xlink:href="classpython__scripts_1_1async__analysis_1_1CoupledAsyncSolver_1_1CoupledAsyncSolver_1_1SynchronizeScope.html" target="_top" xlink:title=" ">
<polygon fill="white" stroke="black" points="0,-0.5 0,-68.5 178,-68.5 178,-0.5 0,-0.5"/>
<text text-anchor="start" x="8" y="-56.5" font-family="Helvetica,sans-Serif" font-size="10.00">CoupledAsyncSolver.Synchronize</text>
<text text-anchor="middle" x="89" y="-45.5" font-family="Helvetica,sans-Serif" font-size="10.00">Scope</text>
<polyline fill="none" stroke="black" points="0,-38.5 178,-38.5 "/>
<text text-anchor="middle" x="89" y="-26.5" font-family="Helvetica,sans-Serif" font-size="10.00"> </text>
<polyline fill="none" stroke="black" points="0,-19.5 178,-19.5 "/>
<text text-anchor="start" x="8" y="-7.5" font-family="Helvetica,sans-Serif" font-size="10.00">+ WriteInfo()</text>
</a>
</g>
</g>
<!-- Node1&#45;&gt;Node5 -->
<g id="edge4" class="edge">
<title>Node1&#45;&gt;Node5</title>
<path fill="none" stroke="midnightblue" d="M149.16,-97.9C140.01,-88.41 130.14,-78.17 121.09,-68.79"/>
<polygon fill="none" stroke="midnightblue" points="146.85,-100.55 156.31,-105.32 151.89,-95.69 146.85,-100.55"/>
</g>
<!-- Node6 -->
<g id="node6" class="node">
<title>Node6</title>
<g id="a_node6"><a xlink:href="classpython__scripts_1_1async__analysis_1_1WrappedAnalysis_1_1WrappedAnalysis_1_1SynchronizeScope.html" target="_top" xlink:title="Sandwich AnalysisStage.SolveSolutionStage between &quot;initialization&quot; and &quot;finalization&quot;.">
<polygon fill="white" stroke="black" points="196,-0.5 196,-68.5 360,-68.5 360,-0.5 196,-0.5"/>
<text text-anchor="start" x="204" y="-56.5" font-family="Helvetica,sans-Serif" font-size="10.00">WrappedAnalysis.Synchronize</text>
<text text-anchor="middle" x="278" y="-45.5" font-family="Helvetica,sans-Serif" font-size="10.00">Scope</text>
<polyline fill="none" stroke="black" points="196,-38.5 360,-38.5 "/>
<text text-anchor="middle" x="278" y="-26.5" font-family="Helvetica,sans-Serif" font-size="10.00"> </text>
<polyline fill="none" stroke="black" points="196,-19.5 360,-19.5 "/>
<text text-anchor="start" x="204" y="-7.5" font-family="Helvetica,sans-Serif" font-size="10.00">+ WriteInfo()</text>
</a>
</g>
</g>
<!-- Node1&#45;&gt;Node6 -->
<g id="edge5" class="edge">
<title>Node1&#45;&gt;Node6</title>
<path fill="none" stroke="midnightblue" d="M217.2,-97.9C226.44,-88.41 236.42,-78.17 245.57,-68.79"/>
<polygon fill="none" stroke="midnightblue" points="214.44,-95.72 209.97,-105.32 219.45,-100.6 214.44,-95.72"/>
</g>
<!-- Node2 -->
<g id="node2" class="node">
<title>Node2</title>
<g id="a_node2"><a xlink:href="classpython__scripts_1_1async__analysis_1_1AsyncSolver_1_1AsyncSolver_1_1SolverScope.html" target="_top" xlink:title="Embed some part of AsyncSolver in a SolutionStageScope.">
<polygon fill="white" stroke="black" points="113.5,-199.5 113.5,-256.5 252.5,-256.5 252.5,-199.5 113.5,-199.5"/>
<text text-anchor="middle" x="183" y="-244.5" font-family="Helvetica,sans-Serif" font-size="10.00">AsyncSolver.SolverScope</text>
<polyline fill="none" stroke="black" points="113.5,-237.5 252.5,-237.5 "/>
<text text-anchor="middle" x="183" y="-225.5" font-family="Helvetica,sans-Serif" font-size="10.00"> </text>
<polyline fill="none" stroke="black" points="113.5,-218.5 252.5,-218.5 "/>
<text text-anchor="start" x="121.5" y="-206.5" font-family="Helvetica,sans-Serif" font-size="10.00">+ WriteInfo()</text>
</a>
</g>
</g>
<!-- Node2&#45;&gt;Node1 -->
<g id="edge1" class="edge">
<title>Node2&#45;&gt;Node1</title>
<path fill="none" stroke="midnightblue" d="M183,-189.21C183,-180.29 183,-170.95 183,-162.58"/>
<polygon fill="none" stroke="midnightblue" points="179.5,-189.4 183,-199.4 186.5,-189.4 179.5,-189.4"/>
</g>
<!-- Node3 -->
<g id="node3" class="node">
<title>Node3</title>
<g id="a_node3"><a xlink:href="classpython__scripts_1_1async__analysis_1_1SolutionStageScope_1_1SolutionStageScope.html" target="_top" xlink:title="RAII context manager for tasks during solver execution.">
<polygon fill="white" stroke="black" points="126.5,-293.5 126.5,-350.5 239.5,-350.5 239.5,-293.5 126.5,-293.5"/>
<text text-anchor="middle" x="183" y="-338.5" font-family="Helvetica,sans-Serif" font-size="10.00">SolutionStageScope</text>
<polyline fill="none" stroke="black" points="126.5,-331.5 239.5,-331.5 "/>
<text text-anchor="middle" x="183" y="-319.5" font-family="Helvetica,sans-Serif" font-size="10.00"> </text>
<polyline fill="none" stroke="black" points="126.5,-312.5 239.5,-312.5 "/>
<text text-anchor="start" x="134.5" y="-300.5" font-family="Helvetica,sans-Serif" font-size="10.00">+ WriteInfo()</text>
</a>
</g>
</g>
<!-- Node3&#45;&gt;Node2 -->
<g id="edge2" class="edge">
<title>Node3&#45;&gt;Node2</title>
<path fill="none" stroke="midnightblue" d="M183,-283.21C183,-274.29 183,-264.95 183,-256.58"/>
<polygon fill="none" stroke="midnightblue" points="179.5,-283.4 183,-293.4 186.5,-283.4 179.5,-283.4"/>
</g>
<!-- Node4 -->
<g id="node4" class="node">
<title>Node4</title>
<g id="a_node4"><a xlink:title=" ">
<polygon fill="white" stroke="#bfbfbf" points="164.5,-387.5 164.5,-444.5 201.5,-444.5 201.5,-387.5 164.5,-387.5"/>
<text text-anchor="middle" x="183" y="-432.5" font-family="Helvetica,sans-Serif" font-size="10.00">ABC</text>
<polyline fill="none" stroke="#bfbfbf" points="164.5,-425.5 201.5,-425.5 "/>
<text text-anchor="middle" x="183" y="-413.5" font-family="Helvetica,sans-Serif" font-size="10.00"> </text>
<polyline fill="none" stroke="#bfbfbf" points="164.5,-406.5 201.5,-406.5 "/>
<text text-anchor="middle" x="183" y="-394.5" font-family="Helvetica,sans-Serif" font-size="10.00"> </text>
</a>
</g>
</g>
<!-- Node4&#45;&gt;Node3 -->
<g id="edge3" class="edge">
<title>Node4&#45;&gt;Node3</title>
<path fill="none" stroke="midnightblue" d="M183,-377.21C183,-368.29 183,-358.95 183,-350.58"/>
<polygon fill="none" stroke="midnightblue" points="179.5,-377.4 183,-387.4 186.5,-377.4 179.5,-377.4"/>
</g>
</g>
</svg>
