<?xml version="1.0" encoding="UTF-8" standalone="no"?>
<!DOCTYPE svg PUBLIC "-//W3C//DTD SVG 1.1//EN"
 "http://www.w3.org/Graphics/SVG/1.1/DTD/svg11.dtd">
<!-- Generated by graphviz version 2.43.0 (0)
 -->
<!-- Title: HDF5SnapshotInput Pages: 1 -->
<svg width="115pt" height="227pt"
 viewBox="0.00 0.00 115.00 227.00" xmlns="http://www.w3.org/2000/svg" xmlns:xlink="http://www.w3.org/1999/xlink">
<g id="graph0" class="graph" transform="scale(1 1) rotate(0) translate(4 223)">
<title>HDF5SnapshotInput</title>
<!-- Node1 -->
<g id="Node000001" class="node">
<title>Node1</title>
<g id="a_Node000001"><a xlink:title="Input class for reading most data from an HDF5 snapshot to a model part.">
<polygon fill="#999999" stroke="transparent" points="107,-49 0,-49 0,0 107,0 107,-49"/>
<text text-anchor="start" x="5.5" y="-36.5" font-family="Helvetica,sans-Serif" font-size="10.00">HDF5SnapshotInput</text>
<text text-anchor="start" x="52" y="-21.5" font-family="Helvetica,sans-Serif" font-size="10.00"> </text>
<text text-anchor="start" x="52" y="-6.5" font-family="Helvetica,sans-Serif" font-size="10.00"> </text>
<polygon fill="#666666" stroke="#666666" points="0.5,-31.5 0.5,-31.5 107.5,-31.5 107.5,-31.5 0.5,-31.5"/>
<polygon fill="#666666" stroke="#666666" points="0.5,-16.5 0.5,-16.5 107.5,-16.5 107.5,-16.5 0.5,-16.5"/>
<polygon fill="none" stroke="#666666" points="0,0 0,-49 107,-49 107,0 0,0"/>
</a>
</g>
</g>
<!-- Node2 -->
<g id="Node000002" class="node">
<title>Node2</title>
<g id="a_Node000002"><a xlink:href="classHDF5SnapshotIO.html" target="_top" xlink:title="Base class with common functionality to writing/loading snapshots to/from disk.">
<polygon fill="white" stroke="transparent" points="100,-134 7,-134 7,-85 100,-85 100,-134"/>
<text text-anchor="start" x="12.5" y="-121.5" font-family="Helvetica,sans-Serif" font-size="10.00">HDF5SnapshotIO</text>
<text text-anchor="start" x="52" y="-106.5" font-family="Helvetica,sans-Serif" font-size="10.00"> </text>
<text text-anchor="start" x="52" y="-91.5" font-family="Helvetica,sans-Serif" font-size="10.00"> </text>
<polygon fill="#666666" stroke="#666666" points="7.5,-116.5 7.5,-116.5 100.5,-116.5 100.5,-116.5 7.5,-116.5"/>
<polygon fill="#666666" stroke="#666666" points="7.5,-101.5 7.5,-101.5 100.5,-101.5 100.5,-101.5 7.5,-101.5"/>
<polygon fill="none" stroke="#666666" points="7,-85 7,-134 100,-134 100,-85 7,-85"/>
</a>
</g>
</g>
<!-- Node2&#45;&gt;Node1 -->
<g id="edge1_Node000001_Node000002" class="edge">
<title>Node2&#45;&gt;Node1</title>
<g id="a_edge1_Node000001_Node000002"><a xlink:title=" ">
<path fill="none" stroke="#63b8ff" d="M53.5,-74.77C53.5,-66.17 53.5,-57.1 53.5,-49.12"/>
<polygon fill="none" stroke="#63b8ff" points="50,-74.94 53.5,-84.94 57,-74.94 50,-74.94"/>
</a>
</g>
</g>
<!-- Node3 -->
<g id="Node000003" class="node">
<title>Node3</title>
<g id="a_Node000003"><a xlink:title=" ">
<polygon fill="white" stroke="transparent" points="92,-219 15,-219 15,-170 92,-170 92,-219"/>
<text text-anchor="start" x="20.5" y="-206.5" font-family="Helvetica,sans-Serif" font-size="10.00">SnapshotFSIO</text>
<text text-anchor="start" x="52" y="-191.5" font-family="Helvetica,sans-Serif" font-size="10.00"> </text>
<text text-anchor="start" x="52" y="-176.5" font-family="Helvetica,sans-Serif" font-size="10.00"> </text>
<polygon fill="#666666" stroke="#666666" points="15.5,-201.5 15.5,-201.5 92.5,-201.5 92.5,-201.5 15.5,-201.5"/>
<polygon fill="#666666" stroke="#666666" points="15.5,-186.5 15.5,-186.5 92.5,-186.5 92.5,-186.5 15.5,-186.5"/>
<polygon fill="none" stroke="#666666" points="15,-170 15,-219 92,-219 92,-170 15,-170"/>
</a>
</g>
</g>
<!-- Node3&#45;&gt;Node2 -->
<g id="edge2_Node000002_Node000003" class="edge">
<title>Node3&#45;&gt;Node2</title>
<g id="a_edge2_Node000002_Node000003"><a xlink:title=" ">
<path fill="none" stroke="#63b8ff" d="M53.5,-159.77C53.5,-151.17 53.5,-142.1 53.5,-134.12"/>
<polygon fill="none" stroke="#63b8ff" points="50,-159.94 53.5,-169.94 57,-159.94 50,-159.94"/>
</a>
</g>
</g>
</g>
</svg>
