<?xml version="1.0" encoding="UTF-8" standalone="no"?>
<!DOCTYPE svg PUBLIC "-//W3C//DTD SVG 1.1//EN"
 "http://www.w3.org/Graphics/SVG/1.1/DTD/svg11.dtd">
<!-- Generated by graphviz version 2.43.0 (0)
 -->
<!-- Title: IntervalPredicate&lt; TValue &gt; Pages: 1 -->
<svg width="152pt" height="237pt"
 viewBox="0.00 0.00 152.00 237.00" xmlns="http://www.w3.org/2000/svg" xmlns:xlink="http://www.w3.org/1999/xlink">
<g id="graph0" class="graph" transform="scale(1 1) rotate(0) translate(4 233)">
<title>IntervalPredicate&lt; TValue &gt;</title>
<polygon fill="white" stroke="transparent" points="-4,4 -4,-233 148,-233 148,4 -4,4"/>
<!-- Node1 -->
<g id="node1" class="node">
<title>Node1</title>
<g id="a_node1"><a xlink:title="Pipe wrapper for Detail::IntervalUtility.">
<polygon fill="#bfbfbf" stroke="black" points="0,-0.5 0,-134.5 144,-134.5 144,-0.5 0,-0.5"/>
<text text-anchor="start" x="8" y="-122.5" font-family="Helvetica,sans-Serif" font-size="10.00">IntervalPredicate&lt;</text>
<text text-anchor="middle" x="72" y="-111.5" font-family="Helvetica,sans-Serif" font-size="10.00"> TValue &gt;</text>
<polyline fill="none" stroke="black" points="0,-104.5 144,-104.5 "/>
<text text-anchor="middle" x="72" y="-92.5" font-family="Helvetica,sans-Serif" font-size="10.00"> </text>
<polyline fill="none" stroke="black" points="0,-85.5 144,-85.5 "/>
<text text-anchor="start" x="8" y="-73.5" font-family="Helvetica,sans-Serif" font-size="10.00">+ IntervalPredicate()</text>
<text text-anchor="start" x="8" y="-62.5" font-family="Helvetica,sans-Serif" font-size="10.00">+ IntervalPredicate()</text>
<text text-anchor="start" x="8" y="-51.5" font-family="Helvetica,sans-Serif" font-size="10.00">+ IntervalPredicate()</text>
<text text-anchor="start" x="8" y="-40.5" font-family="Helvetica,sans-Serif" font-size="10.00">+ IntervalPredicate()</text>
<text text-anchor="start" x="8" y="-29.5" font-family="Helvetica,sans-Serif" font-size="10.00">+ IntervalPredicate()</text>
<text text-anchor="start" x="8" y="-18.5" font-family="Helvetica,sans-Serif" font-size="10.00">+ operator()()</text>
<text text-anchor="start" x="8" y="-7.5" font-family="Helvetica,sans-Serif" font-size="10.00">+ GetDefaultParameters()</text>
</a>
</g>
</g>
<!-- Node2 -->
<g id="node2" class="node">
<title>Node2</title>
<g id="a_node2"><a xlink:href="structKratos_1_1Pipes_1_1Traits.html" target="_top" xlink:title=" ">
<polygon fill="white" stroke="black" points="9.5,-171.5 9.5,-228.5 134.5,-228.5 134.5,-171.5 9.5,-171.5"/>
<text text-anchor="middle" x="72" y="-216.5" font-family="Helvetica,sans-Serif" font-size="10.00">Traits&lt; TValue, bool &gt;</text>
<polyline fill="none" stroke="black" points="9.5,-209.5 134.5,-209.5 "/>
<text text-anchor="middle" x="72" y="-197.5" font-family="Helvetica,sans-Serif" font-size="10.00"> </text>
<polyline fill="none" stroke="black" points="9.5,-190.5 134.5,-190.5 "/>
<text text-anchor="middle" x="72" y="-178.5" font-family="Helvetica,sans-Serif" font-size="10.00"> </text>
</a>
</g>
</g>
<!-- Node2&#45;&gt;Node1 -->
<g id="edge1" class="edge">
<title>Node2&#45;&gt;Node1</title>
<path fill="none" stroke="midnightblue" d="M72,-161.16C72,-152.78 72,-143.67 72,-134.53"/>
<polygon fill="none" stroke="midnightblue" points="68.5,-161.32 72,-171.32 75.5,-161.32 68.5,-161.32"/>
</g>
</g>
</svg>
