<?xml version="1.0" encoding="UTF-8" standalone="no"?>
<!DOCTYPE svg PUBLIC "-//W3C//DTD SVG 1.1//EN"
 "http://www.w3.org/Graphics/SVG/1.1/DTD/svg11.dtd">
<!-- Generated by graphviz version 2.43.0 (0)
 -->
<!-- Title: SnapshotInMemoryManager Pages: 1 -->
<svg width="162pt" height="309pt"
 viewBox="0.00 0.00 162.00 309.00" xmlns="http://www.w3.org/2000/svg" xmlns:xlink="http://www.w3.org/1999/xlink">
<g id="graph0" class="graph" transform="scale(1 1) rotate(0) translate(4 305)">
<title>SnapshotInMemoryManager</title>
<polygon fill="white" stroke="transparent" points="-4,4 -4,-305 158,-305 158,4 -4,4"/>
<!-- Node1 -->
<g id="node1" class="node">
<title>Node1</title>
<g id="a_node1"><a xlink:title=" ">
<polygon fill="#bfbfbf" stroke="black" points="0,-0.5 0,-68.5 154,-68.5 154,-0.5 0,-0.5"/>
<text text-anchor="middle" x="77" y="-56.5" font-family="Helvetica,sans-Serif" font-size="10.00">SnapshotInMemoryManager</text>
<polyline fill="none" stroke="black" points="0,-49.5 154,-49.5 "/>
<text text-anchor="middle" x="77" y="-37.5" font-family="Helvetica,sans-Serif" font-size="10.00"> </text>
<polyline fill="none" stroke="black" points="0,-30.5 154,-30.5 "/>
<text text-anchor="start" x="8" y="-18.5" font-family="Helvetica,sans-Serif" font-size="10.00">+ Erase()</text>
<text text-anchor="start" x="8" y="-7.5" font-family="Helvetica,sans-Serif" font-size="10.00">+ GetDefaultParameters()</text>
</a>
</g>
</g>
<!-- Node2 -->
<g id="node2" class="node">
<title>Node2</title>
<g id="a_node2"><a xlink:href="classpython__scripts_1_1checkpoint_1_1Snapshot_1_1SnapshotManager.html" target="_top" xlink:title="Interface for Snapshot lifetime management.">
<polygon fill="white" stroke="black" points="5,-105.5 5,-206.5 149,-206.5 149,-105.5 5,-105.5"/>
<text text-anchor="middle" x="77" y="-194.5" font-family="Helvetica,sans-Serif" font-size="10.00">SnapshotManager</text>
<polyline fill="none" stroke="black" points="5,-187.5 149,-187.5 "/>
<text text-anchor="middle" x="77" y="-175.5" font-family="Helvetica,sans-Serif" font-size="10.00"> </text>
<polyline fill="none" stroke="black" points="5,-168.5 149,-168.5 "/>
<text text-anchor="start" x="13" y="-156.5" font-family="Helvetica,sans-Serif" font-size="10.00">+ Add()</text>
<text text-anchor="start" x="13" y="-145.5" font-family="Helvetica,sans-Serif" font-size="10.00">+ Get()</text>
<text text-anchor="start" x="13" y="-134.5" font-family="Helvetica,sans-Serif" font-size="10.00">+ Erase()</text>
<text text-anchor="start" x="13" y="-123.5" font-family="Helvetica,sans-Serif" font-size="10.00">+ EraseObsolete()</text>
<text text-anchor="start" x="13" y="-112.5" font-family="Helvetica,sans-Serif" font-size="10.00">+ GetDefaultParameters()</text>
</a>
</g>
</g>
<!-- Node2&#45;&gt;Node1 -->
<g id="edge1" class="edge">
<title>Node2&#45;&gt;Node1</title>
<path fill="none" stroke="midnightblue" d="M77,-95.17C77,-86.11 77,-77.05 77,-68.83"/>
<polygon fill="none" stroke="midnightblue" points="73.5,-95.36 77,-105.36 80.5,-95.36 73.5,-95.36"/>
</g>
<!-- Node3 -->
<g id="node3" class="node">
<title>Node3</title>
<g id="a_node3"><a xlink:title=" ">
<polygon fill="white" stroke="#bfbfbf" points="2.5,-243.5 2.5,-300.5 69.5,-300.5 69.5,-243.5 2.5,-243.5"/>
<text text-anchor="middle" x="36" y="-288.5" font-family="Helvetica,sans-Serif" font-size="10.00">metaclass</text>
<polyline fill="none" stroke="#bfbfbf" points="2.5,-281.5 69.5,-281.5 "/>
<text text-anchor="middle" x="36" y="-269.5" font-family="Helvetica,sans-Serif" font-size="10.00"> </text>
<polyline fill="none" stroke="#bfbfbf" points="2.5,-262.5 69.5,-262.5 "/>
<text text-anchor="middle" x="36" y="-250.5" font-family="Helvetica,sans-Serif" font-size="10.00"> </text>
</a>
</g>
</g>
<!-- Node3&#45;&gt;Node2 -->
<g id="edge2" class="edge">
<title>Node3&#45;&gt;Node2</title>
<path fill="none" stroke="midnightblue" d="M49.34,-233.92C52.47,-225.2 55.86,-215.78 59.16,-206.61"/>
<polygon fill="none" stroke="midnightblue" points="46.02,-232.81 45.92,-243.4 52.6,-235.18 46.02,-232.81"/>
</g>
<!-- Node4 -->
<g id="node4" class="node">
<title>Node4</title>
<g id="a_node4"><a xlink:title=" ">
<polygon fill="white" stroke="#bfbfbf" points="88,-243.5 88,-300.5 150,-300.5 150,-243.5 88,-243.5"/>
<text text-anchor="middle" x="119" y="-288.5" font-family="Helvetica,sans-Serif" font-size="10.00">ABCMeta</text>
<polyline fill="none" stroke="#bfbfbf" points="88,-281.5 150,-281.5 "/>
<text text-anchor="middle" x="119" y="-269.5" font-family="Helvetica,sans-Serif" font-size="10.00"> </text>
<polyline fill="none" stroke="#bfbfbf" points="88,-262.5 150,-262.5 "/>
<text text-anchor="middle" x="119" y="-250.5" font-family="Helvetica,sans-Serif" font-size="10.00"> </text>
</a>
</g>
</g>
<!-- Node4&#45;&gt;Node2 -->
<g id="edge3" class="edge">
<title>Node4&#45;&gt;Node2</title>
<path fill="none" stroke="midnightblue" d="M105.34,-233.92C102.13,-225.2 98.65,-215.78 95.28,-206.61"/>
<polygon fill="none" stroke="midnightblue" points="102.09,-235.23 108.83,-243.4 108.66,-232.81 102.09,-235.23"/>
</g>
</g>
</svg>
