<?xml version="1.0" encoding="UTF-8" standalone="no"?>
<!DOCTYPE svg PUBLIC "-//W3C//DTD SVG 1.1//EN"
 "http://www.w3.org/Graphics/SVG/1.1/DTD/svg11.dtd">
<!-- Generated by graphviz version 2.43.0 (0)
 -->
<!-- Title: AsyncSolver.SolverScope Pages: 1 -->
<svg width="147pt" height="254pt"
 viewBox="0.00 0.00 147.00 254.00" xmlns="http://www.w3.org/2000/svg" xmlns:xlink="http://www.w3.org/1999/xlink">
<g id="graph0" class="graph" transform="scale(1 1) rotate(0) translate(4 250)">
<title>AsyncSolver.SolverScope</title>
<polygon fill="white" stroke="transparent" points="-4,4 -4,-250 143,-250 143,4 -4,4"/>
<!-- Node1 -->
<g id="node1" class="node">
<title>Node1</title>
<g id="a_node1"><a xlink:title="Embed some part of AsyncSolver in a SolutionStageScope.">
<polygon fill="#bfbfbf" stroke="black" points="0,-0.5 0,-57.5 139,-57.5 139,-0.5 0,-0.5"/>
<text text-anchor="middle" x="69.5" y="-45.5" font-family="Helvetica,sans-Serif" font-size="10.00">AsyncSolver.SolverScope</text>
<polyline fill="none" stroke="black" points="0,-38.5 139,-38.5 "/>
<text text-anchor="middle" x="69.5" y="-26.5" font-family="Helvetica,sans-Serif" font-size="10.00"> </text>
<polyline fill="none" stroke="black" points="0,-19.5 139,-19.5 "/>
<text text-anchor="start" x="8" y="-7.5" font-family="Helvetica,sans-Serif" font-size="10.00">+ WriteInfo()</text>
</a>
</g>
</g>
<!-- Node2 -->
<g id="node2" class="node">
<title>Node2</title>
<g id="a_node2"><a xlink:href="classpython__scripts_1_1async__analysis_1_1SolutionStageScope_1_1SolutionStageScope.html" target="_top" xlink:title="RAII context manager for tasks during solver execution.">
<polygon fill="white" stroke="black" points="13,-94.5 13,-151.5 126,-151.5 126,-94.5 13,-94.5"/>
<text text-anchor="middle" x="69.5" y="-139.5" font-family="Helvetica,sans-Serif" font-size="10.00">SolutionStageScope</text>
<polyline fill="none" stroke="black" points="13,-132.5 126,-132.5 "/>
<text text-anchor="middle" x="69.5" y="-120.5" font-family="Helvetica,sans-Serif" font-size="10.00"> </text>
<polyline fill="none" stroke="black" points="13,-113.5 126,-113.5 "/>
<text text-anchor="start" x="21" y="-101.5" font-family="Helvetica,sans-Serif" font-size="10.00">+ WriteInfo()</text>
</a>
</g>
</g>
<!-- Node2&#45;&gt;Node1 -->
<g id="edge1" class="edge">
<title>Node2&#45;&gt;Node1</title>
<path fill="none" stroke="midnightblue" d="M69.5,-84.21C69.5,-75.29 69.5,-65.95 69.5,-57.58"/>
<polygon fill="none" stroke="midnightblue" points="66,-84.4 69.5,-94.4 73,-84.4 66,-84.4"/>
</g>
<!-- Node3 -->
<g id="node3" class="node">
<title>Node3</title>
<g id="a_node3"><a xlink:title=" ">
<polygon fill="white" stroke="#bfbfbf" points="51,-188.5 51,-245.5 88,-245.5 88,-188.5 51,-188.5"/>
<text text-anchor="middle" x="69.5" y="-233.5" font-family="Helvetica,sans-Serif" font-size="10.00">ABC</text>
<polyline fill="none" stroke="#bfbfbf" points="51,-226.5 88,-226.5 "/>
<text text-anchor="middle" x="69.5" y="-214.5" font-family="Helvetica,sans-Serif" font-size="10.00"> </text>
<polyline fill="none" stroke="#bfbfbf" points="51,-207.5 88,-207.5 "/>
<text text-anchor="middle" x="69.5" y="-195.5" font-family="Helvetica,sans-Serif" font-size="10.00"> </text>
</a>
</g>
</g>
<!-- Node3&#45;&gt;Node2 -->
<g id="edge2" class="edge">
<title>Node3&#45;&gt;Node2</title>
<path fill="none" stroke="midnightblue" d="M69.5,-178.21C69.5,-169.29 69.5,-159.95 69.5,-151.58"/>
<polygon fill="none" stroke="midnightblue" points="66,-178.4 69.5,-188.4 73,-178.4 66,-178.4"/>
</g>
</g>
</svg>
