<?xml version="1.0" encoding="UTF-8" standalone="no"?>
<!DOCTYPE svg PUBLIC "-//W3C//DTD SVG 1.1//EN"
 "http://www.w3.org/Graphics/SVG/1.1/DTD/svg11.dtd">
<!-- Generated by graphviz version 2.43.0 (0)
 -->
<!-- Title: ModelPredicatePipe&lt; TPipe &gt; Pages: 1 -->
<svg width="441pt" height="370pt"
 viewBox="0.00 0.00 441.00 370.00" xmlns="http://www.w3.org/2000/svg" xmlns:xlink="http://www.w3.org/1999/xlink">
<g id="graph0" class="graph" transform="scale(1 1) rotate(0) translate(4 366)">
<title>ModelPredicatePipe&lt; TPipe &gt;</title>
<!-- Node1 -->
<g id="Node000001" class="node">
<title>Node1</title>
<g id="a_Node000001"><a xlink:title=" ">
<polygon fill="#999999" stroke="transparent" points="289,-161 144,-161 144,0 289,0 289,-161"/>
<text text-anchor="start" x="168.5" y="-148.5" font-family="Helvetica,sans-Serif" font-size="10.00">ModelPredicatePipe</text>
<text text-anchor="start" x="192" y="-137.5" font-family="Helvetica,sans-Serif" font-size="10.00">&lt; TPipe &gt;</text>
<text text-anchor="start" x="215" y="-122.5" font-family="Helvetica,sans-Serif" font-size="10.00"> </text>
<text text-anchor="start" x="148.5" y="-107.5" font-family="Helvetica,sans-Serif" font-size="10.00">+</text>
<text text-anchor="start" x="161.5" y="-107.5" font-family="Helvetica,sans-Serif" font-size="10.00">KRATOS_CLASS_POINTER</text>
<text text-anchor="start" x="161.5" y="-96.5" font-family="Helvetica,sans-Serif" font-size="10.00">_DEFINITION()</text>
<text text-anchor="start" x="148.5" y="-81.5" font-family="Helvetica,sans-Serif" font-size="10.00">+</text>
<text text-anchor="start" x="161.5" y="-81.5" font-family="Helvetica,sans-Serif" font-size="10.00">ModelPredicatePipe()</text>
<text text-anchor="start" x="148.5" y="-66.5" font-family="Helvetica,sans-Serif" font-size="10.00">+</text>
<text text-anchor="start" x="161.5" y="-66.5" font-family="Helvetica,sans-Serif" font-size="10.00">ModelPredicatePipe()</text>
<text text-anchor="start" x="148.5" y="-51.5" font-family="Helvetica,sans-Serif" font-size="10.00">+</text>
<text text-anchor="start" x="161.5" y="-51.5" font-family="Helvetica,sans-Serif" font-size="10.00">ModelPredicatePipe()</text>
<text text-anchor="start" x="148.5" y="-36.5" font-family="Helvetica,sans-Serif" font-size="10.00">+</text>
<text text-anchor="start" x="161.5" y="-36.5" font-family="Helvetica,sans-Serif" font-size="10.00">ModelPredicatePipe()</text>
<text text-anchor="start" x="148.5" y="-21.5" font-family="Helvetica,sans-Serif" font-size="10.00">+</text>
<text text-anchor="start" x="161.5" y="-21.5" font-family="Helvetica,sans-Serif" font-size="10.00">operator()()</text>
<text text-anchor="start" x="148.5" y="-6.5" font-family="Helvetica,sans-Serif" font-size="10.00">+</text>
<text text-anchor="start" x="161.5" y="-6.5" font-family="Helvetica,sans-Serif" font-size="10.00">GetDefaultParameters()</text>
<polygon fill="#666666" stroke="#666666" points="144.5,-132.5 144.5,-132.5 289.5,-132.5 289.5,-132.5 144.5,-132.5"/>
<polygon fill="#666666" stroke="#666666" points="144.5,-117.5 144.5,-117.5 289.5,-117.5 289.5,-117.5 144.5,-117.5"/>
<polygon fill="none" stroke="#666666" points="144,0 144,-161 289,-161 289,0 144,0"/>
</a>
</g>
</g>
<!-- Node2 -->
<g id="Node000002" class="node">
<title>Node2</title>
<g id="a_Node000002"><a xlink:href="structKratos_1_1WRApp_1_1ModelPredicate.html" target="_top" xlink:title="Base class for functors that take a Model and return a bool.">
<polygon fill="white" stroke="transparent" points="145,-324.5 0,-324.5 0,-234.5 145,-234.5 145,-324.5"/>
<text text-anchor="start" x="35" y="-312.5" font-family="Helvetica,sans-Serif" font-size="10.00">ModelPredicate</text>
<text text-anchor="start" x="71" y="-297.5" font-family="Helvetica,sans-Serif" font-size="10.00"> </text>
<text text-anchor="start" x="4.5" y="-282.5" font-family="Helvetica,sans-Serif" font-size="10.00">+</text>
<text text-anchor="start" x="17.5" y="-282.5" font-family="Helvetica,sans-Serif" font-size="10.00">KRATOS_CLASS_POINTER</text>
<text text-anchor="start" x="17.5" y="-271.5" font-family="Helvetica,sans-Serif" font-size="10.00">_DEFINITION()</text>
<text text-anchor="start" x="4.5" y="-256.5" font-family="Helvetica,sans-Serif" font-size="10.00">+</text>
<text text-anchor="start" x="17.5" y="-256.5" font-family="Helvetica,sans-Serif" font-size="10.00">~ModelPredicate()</text>
<text text-anchor="start" x="4.5" y="-241.5" font-family="Helvetica,sans-Serif" font-size="10.00">+</text>
<text text-anchor="start" x="17.5" y="-241.5" font-family="Helvetica,sans-Serif" font-size="10.00">operator()()</text>
<polygon fill="#666666" stroke="#666666" points="0.5,-307.5 0.5,-307.5 145.5,-307.5 145.5,-307.5 0.5,-307.5"/>
<polygon fill="#666666" stroke="#666666" points="0.5,-292.5 0.5,-292.5 145.5,-292.5 145.5,-292.5 0.5,-292.5"/>
<polygon fill="none" stroke="#666666" points="0,-234.5 0,-324.5 145,-324.5 145,-234.5 0,-234.5"/>
</a>
</g>
</g>
<!-- Node2&#45;&gt;Node1 -->
<g id="edge1_Node000001_Node000002" class="edge">
<title>Node2&#45;&gt;Node1</title>
<g id="a_edge1_Node000001_Node000002"><a xlink:title=" ">
<path fill="none" stroke="#63b8ff" d="M110.89,-225.98C125.41,-206.11 142.29,-183.02 158.24,-161.21"/>
<polygon fill="none" stroke="#63b8ff" points="107.89,-224.15 104.82,-234.29 113.54,-228.28 107.89,-224.15"/>
</a>
</g>
</g>
<!-- Node3 -->
<g id="Node000003" class="node">
<title>Node3</title>
<g id="a_Node000003"><a xlink:href="structKratos_1_1Pipes_1_1Traits.html" target="_top" xlink:title=" ">
<polygon fill="white" stroke="transparent" points="270,-309.5 163,-309.5 163,-249.5 270,-249.5 270,-309.5"/>
<text text-anchor="start" x="168.5" y="-297.5" font-family="Helvetica,sans-Serif" font-size="10.00">Traits&lt; const Model</text>
<text text-anchor="start" x="192.5" y="-286.5" font-family="Helvetica,sans-Serif" font-size="10.00"> &amp;, bool &gt;</text>
<text text-anchor="start" x="215" y="-271.5" font-family="Helvetica,sans-Serif" font-size="10.00"> </text>
<text text-anchor="start" x="215" y="-256.5" font-family="Helvetica,sans-Serif" font-size="10.00"> </text>
<polygon fill="#666666" stroke="#666666" points="163.5,-281.5 163.5,-281.5 270.5,-281.5 270.5,-281.5 163.5,-281.5"/>
<polygon fill="#666666" stroke="#666666" points="163.5,-266.5 163.5,-266.5 270.5,-266.5 270.5,-266.5 163.5,-266.5"/>
<polygon fill="none" stroke="#666666" points="163,-249.5 163,-309.5 270,-309.5 270,-249.5 163,-249.5"/>
</a>
</g>
</g>
<!-- Node3&#45;&gt;Node1 -->
<g id="edge2_Node000001_Node000003" class="edge">
<title>Node3&#45;&gt;Node1</title>
<g id="a_edge2_Node000001_Node000003"><a xlink:title=" ">
<path fill="none" stroke="#63b8ff" d="M216.5,-239.35C216.5,-217.04 216.5,-188.25 216.5,-161.37"/>
<polygon fill="none" stroke="#63b8ff" points="213,-239.43 216.5,-249.43 220,-239.43 213,-239.43"/>
</a>
</g>
</g>
<!-- Node4 -->
<g id="Node000004" class="node">
<title>Node4</title>
<g id="a_Node000004"><a xlink:href="structKratos_1_1WRApp_1_1WRAppClass.html" target="_top" xlink:title="Dummy base class for registering and exporting exposed classes in WRApplication.">
<polygon fill="white" stroke="transparent" points="433,-362 288,-362 288,-197 433,-197 433,-362"/>
<text text-anchor="start" x="330" y="-349.5" font-family="Helvetica,sans-Serif" font-size="10.00">WRAppClass</text>
<text text-anchor="start" x="359" y="-334.5" font-family="Helvetica,sans-Serif" font-size="10.00"> </text>
<text text-anchor="start" x="292.5" y="-319.5" font-family="Helvetica,sans-Serif" font-size="10.00">+</text>
<text text-anchor="start" x="305.5" y="-319.5" font-family="Helvetica,sans-Serif" font-size="10.00">KRATOS_CLASS_POINTER</text>
<text text-anchor="start" x="305.5" y="-308.5" font-family="Helvetica,sans-Serif" font-size="10.00">_DEFINITION()</text>
<text text-anchor="start" x="292.5" y="-293.5" font-family="Helvetica,sans-Serif" font-size="10.00">+</text>
<text text-anchor="start" x="305.5" y="-293.5" font-family="Helvetica,sans-Serif" font-size="10.00">WRAppClass()</text>
<text text-anchor="start" x="292.5" y="-278.5" font-family="Helvetica,sans-Serif" font-size="10.00">+</text>
<text text-anchor="start" x="305.5" y="-278.5" font-family="Helvetica,sans-Serif" font-size="10.00">WRAppClass()</text>
<text text-anchor="start" x="292.5" y="-263.5" font-family="Helvetica,sans-Serif" font-size="10.00">+</text>
<text text-anchor="start" x="305.5" y="-263.5" font-family="Helvetica,sans-Serif" font-size="10.00">WRAppClass()</text>
<text text-anchor="start" x="292.5" y="-248.5" font-family="Helvetica,sans-Serif" font-size="10.00">+</text>
<text text-anchor="start" x="305.5" y="-248.5" font-family="Helvetica,sans-Serif" font-size="10.00">~WRAppClass()</text>
<text text-anchor="start" x="292.5" y="-233.5" font-family="Helvetica,sans-Serif" font-size="10.00">+</text>
<text text-anchor="start" x="305.5" y="-233.5" font-family="Helvetica,sans-Serif" font-size="10.00">operator=()</text>
<text text-anchor="start" x="292.5" y="-218.5" font-family="Helvetica,sans-Serif" font-size="10.00">+</text>
<text text-anchor="start" x="305.5" y="-218.5" font-family="Helvetica,sans-Serif" font-size="10.00">operator=()</text>
<text text-anchor="start" x="292.5" y="-203.5" font-family="Helvetica,sans-Serif" font-size="10.00">+</text>
<text text-anchor="start" x="305.5" y="-203.5" font-family="Helvetica,sans-Serif" font-size="10.00">GetDefaultParameters()</text>
<polygon fill="#666666" stroke="#666666" points="288.5,-344.5 288.5,-344.5 433.5,-344.5 433.5,-344.5 288.5,-344.5"/>
<polygon fill="#666666" stroke="#666666" points="288.5,-329.5 288.5,-329.5 433.5,-329.5 433.5,-329.5 288.5,-329.5"/>
<polygon fill="none" stroke="#666666" points="288,-197 288,-362 433,-362 433,-197 288,-197"/>
</a>
</g>
</g>
<!-- Node4&#45;&gt;Node1 -->
<g id="edge3_Node000001_Node000004" class="edge">
<title>Node4&#45;&gt;Node1</title>
<g id="a_edge3_Node000001_Node000004"><a xlink:title=" ">
<path fill="none" stroke="#63b8ff" d="M294.97,-188.85C288.2,-179.59 281.35,-170.23 274.67,-161.09"/>
<polygon fill="none" stroke="#63b8ff" points="292.16,-190.94 300.89,-196.95 297.81,-186.81 292.16,-190.94"/>
</a>
</g>
</g>
</g>
</svg>
