<?xml version="1.0" encoding="UTF-8" standalone="no"?>
<!DOCTYPE svg PUBLIC "-//W3C//DTD SVG 1.1//EN"
 "http://www.w3.org/Graphics/SVG/1.1/DTD/svg11.dtd">
<!-- Generated by graphviz version 2.43.0 (0)
 -->
<!-- Title: SolutionStageScope Pages: 1 -->
<svg width="961pt" height="508pt"
 viewBox="0.00 0.00 961.00 508.00" xmlns="http://www.w3.org/2000/svg" xmlns:xlink="http://www.w3.org/1999/xlink">
<g id="graph0" class="graph" transform="scale(1 1) rotate(0) translate(4 504)">
<title>SolutionStageScope</title>
<polygon fill="white" stroke="transparent" points="-4,4 -4,-504 957,-504 957,4 -4,4"/>
<!-- Node1 -->
<g id="node1" class="node">
<title>Node1</title>
<g id="a_node1"><a xlink:title="RAII context manager for tasks during solver execution.">
<polygon fill="#bfbfbf" stroke="black" points="536.5,-348.5 536.5,-405.5 649.5,-405.5 649.5,-348.5 536.5,-348.5"/>
<text text-anchor="middle" x="593" y="-393.5" font-family="Helvetica,sans-Serif" font-size="10.00">SolutionStageScope</text>
<polyline fill="none" stroke="black" points="536.5,-386.5 649.5,-386.5 "/>
<text text-anchor="middle" x="593" y="-374.5" font-family="Helvetica,sans-Serif" font-size="10.00"> </text>
<polyline fill="none" stroke="black" points="536.5,-367.5 649.5,-367.5 "/>
<text text-anchor="start" x="544.5" y="-355.5" font-family="Helvetica,sans-Serif" font-size="10.00">+ WriteInfo()</text>
</a>
</g>
</g>
<!-- Node3 -->
<g id="node3" class="node">
<title>Node3</title>
<g id="a_node3"><a xlink:href="classpython__scripts_1_1async__analysis_1_1AsyncSolver_1_1AsyncSolver_1_1SolverScope.html" target="_top" xlink:title="Embed some part of AsyncSolver in a SolutionStageScope.">
<polygon fill="white" stroke="black" points="363.5,-232.5 363.5,-289.5 502.5,-289.5 502.5,-232.5 363.5,-232.5"/>
<text text-anchor="middle" x="433" y="-277.5" font-family="Helvetica,sans-Serif" font-size="10.00">AsyncSolver.SolverScope</text>
<polyline fill="none" stroke="black" points="363.5,-270.5 502.5,-270.5 "/>
<text text-anchor="middle" x="433" y="-258.5" font-family="Helvetica,sans-Serif" font-size="10.00"> </text>
<polyline fill="none" stroke="black" points="363.5,-251.5 502.5,-251.5 "/>
<text text-anchor="start" x="371.5" y="-239.5" font-family="Helvetica,sans-Serif" font-size="10.00">+ WriteInfo()</text>
</a>
</g>
</g>
<!-- Node1&#45;&gt;Node3 -->
<g id="edge2" class="edge">
<title>Node1&#45;&gt;Node3</title>
<path fill="none" stroke="midnightblue" d="M546.11,-342.59C522.43,-325.72 494.06,-305.5 471.65,-289.54"/>
<polygon fill="none" stroke="midnightblue" points="544.09,-345.45 554.27,-348.4 548.16,-339.75 544.09,-345.45"/>
</g>
<!-- Node11 -->
<g id="node11" class="node">
<title>Node11</title>
<g id="a_node11"><a xlink:href="classpython__scripts_1_1async__analysis_1_1CoSimCoupling_1_1CoSimCoupling.html" target="_top" xlink:title="Wrapper for CoSimulationApplication coupling procedures.">
<polygon fill="white" stroke="black" points="521,-210.5 521,-311.5 665,-311.5 665,-210.5 521,-210.5"/>
<text text-anchor="middle" x="593" y="-299.5" font-family="Helvetica,sans-Serif" font-size="10.00">CoSimCoupling</text>
<polyline fill="none" stroke="black" points="521,-292.5 665,-292.5 "/>
<text text-anchor="middle" x="593" y="-280.5" font-family="Helvetica,sans-Serif" font-size="10.00"> </text>
<polyline fill="none" stroke="black" points="521,-273.5 665,-273.5 "/>
<text text-anchor="start" x="529" y="-261.5" font-family="Helvetica,sans-Serif" font-size="10.00">+ WriteInfo()</text>
<text text-anchor="start" x="529" y="-250.5" font-family="Helvetica,sans-Serif" font-size="10.00">+ parameters()</text>
<text text-anchor="start" x="529" y="-239.5" font-family="Helvetica,sans-Serif" font-size="10.00">+ GetDefaultParameters()</text>
<text text-anchor="start" x="529" y="-228.5" font-family="Helvetica,sans-Serif" font-size="10.00">* parameters()</text>
<text text-anchor="start" x="529" y="-217.5" font-family="Helvetica,sans-Serif" font-size="10.00">* GetDefaultParameters()</text>
</a>
</g>
</g>
<!-- Node1&#45;&gt;Node11 -->
<g id="edge10" class="edge">
<title>Node1&#45;&gt;Node11</title>
<path fill="none" stroke="midnightblue" d="M593,-338.35C593,-329.8 593,-320.58 593,-311.61"/>
<polygon fill="none" stroke="midnightblue" points="589.5,-338.4 593,-348.4 596.5,-338.4 589.5,-338.4"/>
</g>
<!-- Node12 -->
<g id="node12" class="node">
<title>Node12</title>
<g id="a_node12"><a xlink:href="classpython__scripts_1_1async__analysis_1_1SolutionStageScope_1_1AggregateSolutionStageScope.html" target="_top" xlink:title="Enter multiple SolutionStageScope contexts at once.">
<polygon fill="white" stroke="black" points="683,-232.5 683,-289.5 847,-289.5 847,-232.5 683,-232.5"/>
<text text-anchor="middle" x="765" y="-277.5" font-family="Helvetica,sans-Serif" font-size="10.00">AggregateSolutionStageScope</text>
<polyline fill="none" stroke="black" points="683,-270.5 847,-270.5 "/>
<text text-anchor="middle" x="765" y="-258.5" font-family="Helvetica,sans-Serif" font-size="10.00"> </text>
<polyline fill="none" stroke="black" points="683,-251.5 847,-251.5 "/>
<text text-anchor="start" x="691" y="-239.5" font-family="Helvetica,sans-Serif" font-size="10.00">+ WriteInfo()</text>
</a>
</g>
</g>
<!-- Node1&#45;&gt;Node12 -->
<g id="edge11" class="edge">
<title>Node1&#45;&gt;Node12</title>
<path fill="none" stroke="midnightblue" d="M643.08,-342.81C668.59,-325.9 699.26,-305.57 723.45,-289.54"/>
<polygon fill="none" stroke="midnightblue" points="641.04,-339.96 634.64,-348.4 644.91,-345.8 641.04,-339.96"/>
</g>
<!-- Node2 -->
<g id="node2" class="node">
<title>Node2</title>
<g id="a_node2"><a xlink:title=" ">
<polygon fill="white" stroke="#bfbfbf" points="574.5,-442.5 574.5,-499.5 611.5,-499.5 611.5,-442.5 574.5,-442.5"/>
<text text-anchor="middle" x="593" y="-487.5" font-family="Helvetica,sans-Serif" font-size="10.00">ABC</text>
<polyline fill="none" stroke="#bfbfbf" points="574.5,-480.5 611.5,-480.5 "/>
<text text-anchor="middle" x="593" y="-468.5" font-family="Helvetica,sans-Serif" font-size="10.00"> </text>
<polyline fill="none" stroke="#bfbfbf" points="574.5,-461.5 611.5,-461.5 "/>
<text text-anchor="middle" x="593" y="-449.5" font-family="Helvetica,sans-Serif" font-size="10.00"> </text>
</a>
</g>
</g>
<!-- Node2&#45;&gt;Node1 -->
<g id="edge1" class="edge">
<title>Node2&#45;&gt;Node1</title>
<path fill="none" stroke="midnightblue" d="M593,-432.21C593,-423.29 593,-413.95 593,-405.58"/>
<polygon fill="none" stroke="midnightblue" points="589.5,-432.4 593,-442.4 596.5,-432.4 589.5,-432.4"/>
</g>
<!-- Node4 -->
<g id="node4" class="node">
<title>Node4</title>
<g id="a_node4"><a xlink:href="classpython__scripts_1_1async__analysis_1_1AsyncSolver_1_1AsyncSolver_1_1AdvanceScope.html" target="_top" xlink:title="Embed AsyncSolver._Advance in a SolutionStageScope.">
<polygon fill="white" stroke="black" points="0,-111 0,-168 150,-168 150,-111 0,-111"/>
<text text-anchor="middle" x="75" y="-156" font-family="Helvetica,sans-Serif" font-size="10.00">AsyncSolver.AdvanceScope</text>
<polyline fill="none" stroke="black" points="0,-149 150,-149 "/>
<text text-anchor="middle" x="75" y="-137" font-family="Helvetica,sans-Serif" font-size="10.00"> </text>
<polyline fill="none" stroke="black" points="0,-130 150,-130 "/>
<text text-anchor="start" x="8" y="-118" font-family="Helvetica,sans-Serif" font-size="10.00">+ WriteInfo()</text>
</a>
</g>
</g>
<!-- Node3&#45;&gt;Node4 -->
<g id="edge3" class="edge">
<title>Node3&#45;&gt;Node4</title>
<path fill="none" stroke="midnightblue" d="M353.54,-237C298.31,-220.56 223.21,-197.31 158,-174 152.73,-172.12 147.3,-170.1 141.87,-168.03"/>
<polygon fill="none" stroke="midnightblue" points="352.68,-240.39 363.26,-239.88 354.67,-233.68 352.68,-240.39"/>
</g>
<!-- Node5 -->
<g id="node5" class="node">
<title>Node5</title>
<g id="a_node5"><a xlink:href="classpython__scripts_1_1async__analysis_1_1AsyncSolver_1_1AsyncSolver_1_1PostprocessScope.html" target="_top" xlink:title="Embed AsyncSolver._Postprocess in a SolutionStageScope.">
<polygon fill="white" stroke="black" points="167.5,-111 167.5,-168 334.5,-168 334.5,-111 167.5,-111"/>
<text text-anchor="middle" x="251" y="-156" font-family="Helvetica,sans-Serif" font-size="10.00">AsyncSolver.PostprocessScope</text>
<polyline fill="none" stroke="black" points="167.5,-149 334.5,-149 "/>
<text text-anchor="middle" x="251" y="-137" font-family="Helvetica,sans-Serif" font-size="10.00"> </text>
<polyline fill="none" stroke="black" points="167.5,-130 334.5,-130 "/>
<text text-anchor="start" x="175.5" y="-118" font-family="Helvetica,sans-Serif" font-size="10.00">+ WriteInfo()</text>
</a>
</g>
</g>
<!-- Node3&#45;&gt;Node5 -->
<g id="edge4" class="edge">
<title>Node3&#45;&gt;Node5</title>
<path fill="none" stroke="midnightblue" d="M382.28,-226.7C354.15,-208.23 319.58,-185.53 292.98,-168.07"/>
<polygon fill="none" stroke="midnightblue" points="380.51,-229.72 390.79,-232.28 384.35,-223.87 380.51,-229.72"/>
</g>
<!-- Node6 -->
<g id="node6" class="node">
<title>Node6</title>
<g id="a_node6"><a xlink:href="classpython__scripts_1_1async__analysis_1_1AsyncSolver_1_1AsyncSolver_1_1PreprocessScope.html" target="_top" xlink:title="Embed AsyncSolver._Preprocess in a SolutionStageScope.">
<polygon fill="white" stroke="black" points="352.5,-111 352.5,-168 513.5,-168 513.5,-111 352.5,-111"/>
<text text-anchor="middle" x="433" y="-156" font-family="Helvetica,sans-Serif" font-size="10.00">AsyncSolver.PreprocessScope</text>
<polyline fill="none" stroke="black" points="352.5,-149 513.5,-149 "/>
<text text-anchor="middle" x="433" y="-137" font-family="Helvetica,sans-Serif" font-size="10.00"> </text>
<polyline fill="none" stroke="black" points="352.5,-130 513.5,-130 "/>
<text text-anchor="start" x="360.5" y="-118" font-family="Helvetica,sans-Serif" font-size="10.00">+ WriteInfo()</text>
</a>
</g>
</g>
<!-- Node3&#45;&gt;Node6 -->
<g id="edge5" class="edge">
<title>Node3&#45;&gt;Node6</title>
<path fill="none" stroke="midnightblue" d="M433,-221.83C433,-204.35 433,-184.03 433,-168.07"/>
<polygon fill="none" stroke="midnightblue" points="429.5,-222.28 433,-232.28 436.5,-222.28 429.5,-222.28"/>
</g>
<!-- Node7 -->
<g id="node7" class="node">
<title>Node7</title>
<g id="a_node7"><a xlink:href="classpython__scripts_1_1async__analysis_1_1AsyncSolver_1_1AsyncSolver_1_1SolutionLoopScope.html" target="_top" xlink:title="Embed AsyncSolver.Run in a SolutionStageScope.">
<polygon fill="white" stroke="black" points="532,-105.5 532,-173.5 674,-173.5 674,-105.5 532,-105.5"/>
<text text-anchor="start" x="540" y="-161.5" font-family="Helvetica,sans-Serif" font-size="10.00">AsyncSolver.SolutionLoop</text>
<text text-anchor="middle" x="603" y="-150.5" font-family="Helvetica,sans-Serif" font-size="10.00">Scope</text>
<polyline fill="none" stroke="black" points="532,-143.5 674,-143.5 "/>
<text text-anchor="middle" x="603" y="-131.5" font-family="Helvetica,sans-Serif" font-size="10.00"> </text>
<polyline fill="none" stroke="black" points="532,-124.5 674,-124.5 "/>
<text text-anchor="start" x="540" y="-112.5" font-family="Helvetica,sans-Serif" font-size="10.00">+ WriteInfo()</text>
</a>
</g>
</g>
<!-- Node3&#45;&gt;Node7 -->
<g id="edge6" class="edge">
<title>Node3&#45;&gt;Node7</title>
<path fill="none" stroke="midnightblue" d="M480.85,-226.36C504.34,-209.85 532.54,-190.03 555.93,-173.59"/>
<polygon fill="none" stroke="midnightblue" points="478.6,-223.67 472.43,-232.28 482.62,-229.4 478.6,-223.67"/>
</g>
<!-- Node8 -->
<g id="node8" class="node">
<title>Node8</title>
<g id="a_node8"><a xlink:href="classpython__scripts_1_1async__analysis_1_1AsyncSolver_1_1AsyncSolver_1_1SynchronizeScope.html" target="_top" xlink:title="Embed AsyncSolver._Synchronize in a SolutionStageScope.">
<polygon fill="white" stroke="black" points="692.5,-111 692.5,-168 859.5,-168 859.5,-111 692.5,-111"/>
<text text-anchor="middle" x="776" y="-156" font-family="Helvetica,sans-Serif" font-size="10.00">AsyncSolver.SynchronizeScope</text>
<polyline fill="none" stroke="black" points="692.5,-149 859.5,-149 "/>
<text text-anchor="middle" x="776" y="-137" font-family="Helvetica,sans-Serif" font-size="10.00"> </text>
<polyline fill="none" stroke="black" points="692.5,-130 859.5,-130 "/>
<text text-anchor="start" x="700.5" y="-118" font-family="Helvetica,sans-Serif" font-size="10.00">+ WriteInfo()</text>
</a>
</g>
</g>
<!-- Node3&#45;&gt;Node8 -->
<g id="edge7" class="edge">
<title>Node3&#45;&gt;Node8</title>
<path fill="none" stroke="midnightblue" d="M479.05,-227.03C489.51,-220.64 500.84,-214.53 512,-210 583.95,-180.77 608.29,-195.21 683,-174 689.36,-172.2 695.9,-170.18 702.44,-168.05"/>
<polygon fill="none" stroke="midnightblue" points="477.07,-224.14 470.49,-232.43 480.81,-230.06 477.07,-224.14"/>
</g>
<!-- Node9 -->
<g id="node9" class="node">
<title>Node9</title>
<g id="a_node9"><a xlink:href="classpython__scripts_1_1async__analysis_1_1CoupledAsyncSolver_1_1CoupledAsyncSolver_1_1SynchronizeScope.html" target="_top" xlink:title=" ">
<polygon fill="white" stroke="black" points="593,-0.5 593,-68.5 771,-68.5 771,-0.5 593,-0.5"/>
<text text-anchor="start" x="601" y="-56.5" font-family="Helvetica,sans-Serif" font-size="10.00">CoupledAsyncSolver.Synchronize</text>
<text text-anchor="middle" x="682" y="-45.5" font-family="Helvetica,sans-Serif" font-size="10.00">Scope</text>
<polyline fill="none" stroke="black" points="593,-38.5 771,-38.5 "/>
<text text-anchor="middle" x="682" y="-26.5" font-family="Helvetica,sans-Serif" font-size="10.00"> </text>
<polyline fill="none" stroke="black" points="593,-19.5 771,-19.5 "/>
<text text-anchor="start" x="601" y="-7.5" font-family="Helvetica,sans-Serif" font-size="10.00">+ WriteInfo()</text>
</a>
</g>
</g>
<!-- Node8&#45;&gt;Node9 -->
<g id="edge8" class="edge">
<title>Node8&#45;&gt;Node9</title>
<path fill="none" stroke="midnightblue" d="M743.92,-103.35C733.68,-92.13 722.39,-79.75 712.28,-68.68"/>
<polygon fill="none" stroke="midnightblue" points="741.48,-105.87 750.81,-110.9 746.65,-101.15 741.48,-105.87"/>
</g>
<!-- Node10 -->
<g id="node10" class="node">
<title>Node10</title>
<g id="a_node10"><a xlink:href="classpython__scripts_1_1async__analysis_1_1WrappedAnalysis_1_1WrappedAnalysis_1_1SynchronizeScope.html" target="_top" xlink:title="Sandwich AnalysisStage.SolveSolutionStage between &quot;initialization&quot; and &quot;finalization&quot;.">
<polygon fill="white" stroke="black" points="789,-0.5 789,-68.5 953,-68.5 953,-0.5 789,-0.5"/>
<text text-anchor="start" x="797" y="-56.5" font-family="Helvetica,sans-Serif" font-size="10.00">WrappedAnalysis.Synchronize</text>
<text text-anchor="middle" x="871" y="-45.5" font-family="Helvetica,sans-Serif" font-size="10.00">Scope</text>
<polyline fill="none" stroke="black" points="789,-38.5 953,-38.5 "/>
<text text-anchor="middle" x="871" y="-26.5" font-family="Helvetica,sans-Serif" font-size="10.00"> </text>
<polyline fill="none" stroke="black" points="789,-19.5 953,-19.5 "/>
<text text-anchor="start" x="797" y="-7.5" font-family="Helvetica,sans-Serif" font-size="10.00">+ WriteInfo()</text>
</a>
</g>
</g>
<!-- Node8&#45;&gt;Node10 -->
<g id="edge9" class="edge">
<title>Node8&#45;&gt;Node10</title>
<path fill="none" stroke="midnightblue" d="M808.42,-103.35C818.77,-92.13 830.18,-79.75 840.4,-68.68"/>
<polygon fill="none" stroke="midnightblue" points="805.67,-101.17 801.46,-110.9 810.81,-105.92 805.67,-101.17"/>
</g>
</g>
</svg>
