<?xml version="1.0" encoding="UTF-8" standalone="no"?>
<!DOCTYPE svg PUBLIC "-//W3C//DTD SVG 1.1//EN"
 "http://www.w3.org/Graphics/SVG/1.1/DTD/svg11.dtd">
<!-- Generated by graphviz version 2.43.0 (0)
 -->
<!-- Title: WRAppMeta Pages: 1 -->
<svg width="209pt" height="160pt"
 viewBox="0.00 0.00 208.50 160.00" xmlns="http://www.w3.org/2000/svg" xmlns:xlink="http://www.w3.org/1999/xlink">
<g id="graph0" class="graph" transform="scale(1 1) rotate(0) translate(4 156)">
<title>WRAppMeta</title>
<polygon fill="white" stroke="transparent" points="-4,4 -4,-156 204.5,-156 204.5,4 -4,4"/>
<!-- Node1 -->
<g id="node1" class="node">
<title>Node1</title>
<g id="a_node1"><a xlink:title="Metaclass replacing that of the C++ WRAppClass to provide derived classes access to abc....">
<polygon fill="#bfbfbf" stroke="black" points="8.5,-0.5 8.5,-57.5 85.5,-57.5 85.5,-0.5 8.5,-0.5"/>
<text text-anchor="middle" x="47" y="-45.5" font-family="Helvetica,sans-Serif" font-size="10.00">WRAppMeta</text>
<polyline fill="none" stroke="black" points="8.5,-38.5 85.5,-38.5 "/>
<text text-anchor="middle" x="47" y="-26.5" font-family="Helvetica,sans-Serif" font-size="10.00"> </text>
<polyline fill="none" stroke="black" points="8.5,-19.5 85.5,-19.5 "/>
<text text-anchor="middle" x="47" y="-7.5" font-family="Helvetica,sans-Serif" font-size="10.00"> </text>
</a>
</g>
</g>
<!-- Node2 -->
<g id="node2" class="node">
<title>Node2</title>
<g id="a_node2"><a xlink:title=" ">
<polygon fill="white" stroke="#bfbfbf" points="0,-94.5 0,-151.5 38,-151.5 38,-94.5 0,-94.5"/>
<text text-anchor="middle" x="19" y="-139.5" font-family="Helvetica,sans-Serif" font-size="10.00">type</text>
<polyline fill="none" stroke="#bfbfbf" points="0,-132.5 38,-132.5 "/>
<text text-anchor="middle" x="19" y="-120.5" font-family="Helvetica,sans-Serif" font-size="10.00"> </text>
<polyline fill="none" stroke="#bfbfbf" points="0,-113.5 38,-113.5 "/>
<text text-anchor="middle" x="19" y="-101.5" font-family="Helvetica,sans-Serif" font-size="10.00"> </text>
</a>
</g>
</g>
<!-- Node2&#45;&gt;Node1 -->
<g id="edge1" class="edge">
<title>Node2&#45;&gt;Node1</title>
<path fill="none" stroke="midnightblue" d="M23.77,-84.5C26.29,-75.5 29.3,-66.04 32.36,-57.58"/>
<polygon fill="none" stroke="midnightblue" points="20.32,-83.83 21.16,-94.4 27.09,-85.62 20.32,-83.83"/>
</g>
<!-- Node2&#45;&gt;Node1 -->
<g id="edge3" class="edge">
<title>Node2&#45;&gt;Node1</title>
<path fill="none" stroke="midnightblue" d="M36.96,-84.79C39.96,-75.7 42.74,-66.13 44.85,-57.58"/>
<polygon fill="none" stroke="midnightblue" points="33.6,-83.8 33.65,-94.4 40.22,-86.09 33.6,-83.8"/>
</g>
<!-- Node3 -->
<g id="node3" class="node">
<title>Node3</title>
<g id="a_node3"><a xlink:title=" ">
<polygon fill="white" stroke="#bfbfbf" points="56.5,-94.5 56.5,-151.5 93.5,-151.5 93.5,-94.5 56.5,-94.5"/>
<text text-anchor="middle" x="75" y="-139.5" font-family="Helvetica,sans-Serif" font-size="10.00">ABC</text>
<polyline fill="none" stroke="#bfbfbf" points="56.5,-132.5 93.5,-132.5 "/>
<text text-anchor="middle" x="75" y="-120.5" font-family="Helvetica,sans-Serif" font-size="10.00"> </text>
<polyline fill="none" stroke="#bfbfbf" points="56.5,-113.5 93.5,-113.5 "/>
<text text-anchor="middle" x="75" y="-101.5" font-family="Helvetica,sans-Serif" font-size="10.00"> </text>
</a>
</g>
</g>
<!-- Node3&#45;&gt;Node1 -->
<g id="edge2" class="edge">
<title>Node3&#45;&gt;Node1</title>
<path fill="none" stroke="midnightblue" d="M63.68,-84.79C60.91,-75.7 58,-66.13 55.39,-57.58"/>
<polygon fill="none" stroke="midnightblue" points="60.34,-85.85 66.6,-94.4 67.04,-83.81 60.34,-85.85"/>
</g>
<!-- Node4 -->
<g id="node4" class="node">
<title>Node4</title>
<g id="a_node4"><a xlink:title=" ">
<polygon fill="white" stroke="#bfbfbf" points="111.5,-94.5 111.5,-151.5 200.5,-151.5 200.5,-94.5 111.5,-94.5"/>
<text text-anchor="middle" x="156" y="-139.5" font-family="Helvetica,sans-Serif" font-size="10.00">__WRAppClass</text>
<polyline fill="none" stroke="#bfbfbf" points="111.5,-132.5 200.5,-132.5 "/>
<text text-anchor="middle" x="156" y="-120.5" font-family="Helvetica,sans-Serif" font-size="10.00"> </text>
<polyline fill="none" stroke="#bfbfbf" points="111.5,-113.5 200.5,-113.5 "/>
<text text-anchor="middle" x="156" y="-101.5" font-family="Helvetica,sans-Serif" font-size="10.00"> </text>
</a>
</g>
</g>
<!-- Node4&#45;&gt;Node1 -->
<g id="edge4" class="edge">
<title>Node4&#45;&gt;Node1</title>
<path fill="none" stroke="midnightblue" d="M115.33,-87.67C103.57,-77.75 90.89,-67.04 79.68,-57.58"/>
<polygon fill="none" stroke="midnightblue" points="113.4,-90.62 123.3,-94.4 117.91,-85.27 113.4,-90.62"/>
</g>
</g>
</svg>
