<?xml version="1.0" encoding="UTF-8" standalone="no"?>
<!DOCTYPE svg PUBLIC "-//W3C//DTD SVG 1.1//EN"
 "http://www.w3.org/Graphics/SVG/1.1/DTD/svg11.dtd">
<!-- Generated by graphviz version 2.43.0 (0)
 -->
<!-- Title: HDF5SnapshotIO Pages: 1 -->
<svg width="163pt" height="403pt"
 viewBox="0.00 0.00 163.00 403.00" xmlns="http://www.w3.org/2000/svg" xmlns:xlink="http://www.w3.org/1999/xlink">
<g id="graph0" class="graph" transform="scale(1 1) rotate(0) translate(4 399)">
<title>HDF5SnapshotIO</title>
<polygon fill="white" stroke="transparent" points="-4,4 -4,-399 159,-399 159,4 -4,4"/>
<!-- Node1 -->
<g id="node1" class="node">
<title>Node1</title>
<g id="a_node1"><a xlink:title="Base class with common functionality to writing/loading snapshots to/from disk.">
<polygon fill="#bfbfbf" stroke="black" points="0,-0.5 0,-101.5 155,-101.5 155,-0.5 0,-0.5"/>
<text text-anchor="middle" x="77.5" y="-89.5" font-family="Helvetica,sans-Serif" font-size="10.00">HDF5SnapshotIO</text>
<polyline fill="none" stroke="black" points="0,-82.5 155,-82.5 "/>
<text text-anchor="middle" x="77.5" y="-70.5" font-family="Helvetica,sans-Serif" font-size="10.00"> </text>
<polyline fill="none" stroke="black" points="0,-63.5 155,-63.5 "/>
<text text-anchor="start" x="8" y="-51.5" font-family="Helvetica,sans-Serif" font-size="10.00">+ GetID()</text>
<text text-anchor="start" x="8" y="-40.5" font-family="Helvetica,sans-Serif" font-size="10.00">+ GetPath()</text>
<text text-anchor="start" x="8" y="-29.5" font-family="Helvetica,sans-Serif" font-size="10.00">+ GetDefaultParameters()</text>
<text text-anchor="start" x="8" y="-18.5" font-family="Helvetica,sans-Serif" font-size="10.00">+ parameters()</text>
<text text-anchor="start" x="8" y="-7.5" font-family="Helvetica,sans-Serif" font-size="10.00">+ GetDefaultIOParameters()</text>
</a>
</g>
</g>
<!-- Node2 -->
<g id="node2" class="node">
<title>Node2</title>
<g id="a_node2"><a xlink:href="classpython__scripts_1_1checkpoint_1_1SnapshotIO_1_1SnapshotFSIO.html" target="_top" xlink:title="Base class for Snapshot s that store their data on the filesystem.">
<polygon fill="white" stroke="black" points="36,-138.5 36,-206.5 119,-206.5 119,-138.5 36,-138.5"/>
<text text-anchor="middle" x="77.5" y="-194.5" font-family="Helvetica,sans-Serif" font-size="10.00">SnapshotFSIO</text>
<polyline fill="none" stroke="black" points="36,-187.5 119,-187.5 "/>
<text text-anchor="middle" x="77.5" y="-175.5" font-family="Helvetica,sans-Serif" font-size="10.00"> </text>
<polyline fill="none" stroke="black" points="36,-168.5 119,-168.5 "/>
<text text-anchor="start" x="44" y="-156.5" font-family="Helvetica,sans-Serif" font-size="10.00">+ GetID()</text>
<text text-anchor="start" x="44" y="-145.5" font-family="Helvetica,sans-Serif" font-size="10.00">+ GetPath()</text>
</a>
</g>
</g>
<!-- Node2&#45;&gt;Node1 -->
<g id="edge1" class="edge">
<title>Node2&#45;&gt;Node1</title>
<path fill="none" stroke="midnightblue" d="M77.5,-128.05C77.5,-119.47 77.5,-110.41 77.5,-101.65"/>
<polygon fill="none" stroke="midnightblue" points="74,-128.21 77.5,-138.21 81,-128.21 74,-128.21"/>
</g>
<!-- Node3 -->
<g id="node3" class="node">
<title>Node3</title>
<g id="a_node3"><a xlink:href="classpython__scripts_1_1checkpoint_1_1SnapshotIO_1_1SnapshotIO.html" target="_top" xlink:title="Interface for performing Snapshot input/output operations.">
<polygon fill="white" stroke="black" points="5.5,-243.5 5.5,-300.5 149.5,-300.5 149.5,-243.5 5.5,-243.5"/>
<text text-anchor="middle" x="77.5" y="-288.5" font-family="Helvetica,sans-Serif" font-size="10.00">SnapshotIO</text>
<polyline fill="none" stroke="black" points="5.5,-281.5 149.5,-281.5 "/>
<text text-anchor="middle" x="77.5" y="-269.5" font-family="Helvetica,sans-Serif" font-size="10.00"> </text>
<polyline fill="none" stroke="black" points="5.5,-262.5 149.5,-262.5 "/>
<text text-anchor="start" x="13.5" y="-250.5" font-family="Helvetica,sans-Serif" font-size="10.00">+ GetDefaultParameters()</text>
</a>
</g>
</g>
<!-- Node3&#45;&gt;Node2 -->
<g id="edge2" class="edge">
<title>Node3&#45;&gt;Node2</title>
<path fill="none" stroke="midnightblue" d="M77.5,-233.06C77.5,-224.39 77.5,-215.24 77.5,-206.79"/>
<polygon fill="none" stroke="midnightblue" points="74,-233.32 77.5,-243.32 81,-233.32 74,-233.32"/>
</g>
<!-- Node4 -->
<g id="node4" class="node">
<title>Node4</title>
<g id="a_node4"><a xlink:title=" ">
<polygon fill="white" stroke="#bfbfbf" points="38.5,-337.5 38.5,-394.5 116.5,-394.5 116.5,-337.5 38.5,-337.5"/>
<text text-anchor="middle" x="77.5" y="-382.5" font-family="Helvetica,sans-Serif" font-size="10.00">WRAppClass</text>
<polyline fill="none" stroke="#bfbfbf" points="38.5,-375.5 116.5,-375.5 "/>
<text text-anchor="middle" x="77.5" y="-363.5" font-family="Helvetica,sans-Serif" font-size="10.00"> </text>
<polyline fill="none" stroke="#bfbfbf" points="38.5,-356.5 116.5,-356.5 "/>
<text text-anchor="middle" x="77.5" y="-344.5" font-family="Helvetica,sans-Serif" font-size="10.00"> </text>
</a>
</g>
</g>
<!-- Node4&#45;&gt;Node3 -->
<g id="edge3" class="edge">
<title>Node4&#45;&gt;Node3</title>
<path fill="none" stroke="midnightblue" d="M77.5,-327.21C77.5,-318.29 77.5,-308.95 77.5,-300.58"/>
<polygon fill="none" stroke="midnightblue" points="74,-327.4 77.5,-337.4 81,-327.4 74,-327.4"/>
</g>
</g>
</svg>
