<?xml version="1.0" encoding="UTF-8" standalone="no"?>
<!DOCTYPE svg PUBLIC "-//W3C//DTD SVG 1.1//EN"
 "http://www.w3.org/Graphics/SVG/1.1/DTD/svg11.dtd">
<!-- Generated by graphviz version 2.43.0 (0)
 -->
<!-- Title: NodeAttribute Pages: 1 -->
<svg width="93pt" height="254pt"
 viewBox="0.00 0.00 93.00 254.00" xmlns="http://www.w3.org/2000/svg" xmlns:xlink="http://www.w3.org/1999/xlink">
<g id="graph0" class="graph" transform="scale(1 1) rotate(0) translate(4 250)">
<title>NodeAttribute</title>
<polygon fill="white" stroke="transparent" points="-4,4 -4,-250 89,-250 89,4 -4,4"/>
<!-- Node1 -->
<g id="node1" class="node">
<title>Node1</title>
<g id="a_node1"><a xlink:title=" ">
<polygon fill="#bfbfbf" stroke="black" points="0,-0.5 0,-57.5 85,-57.5 85,-0.5 0,-0.5"/>
<text text-anchor="middle" x="42.5" y="-45.5" font-family="Helvetica,sans-Serif" font-size="10.00">NodeAttribute</text>
<polyline fill="none" stroke="black" points="0,-38.5 85,-38.5 "/>
<text text-anchor="middle" x="42.5" y="-26.5" font-family="Helvetica,sans-Serif" font-size="10.00"> </text>
<polyline fill="none" stroke="black" points="0,-19.5 85,-19.5 "/>
<text text-anchor="middle" x="42.5" y="-7.5" font-family="Helvetica,sans-Serif" font-size="10.00"> </text>
</a>
</g>
</g>
<!-- Node2 -->
<g id="node2" class="node">
<title>Node2</title>
<g id="a_node2"><a xlink:href="classpython__scripts_1_1xdmf_1_1Attribute_1_1Attribute.html" target="_top" xlink:title=" ">
<polygon fill="white" stroke="black" points="13,-94.5 13,-151.5 72,-151.5 72,-94.5 13,-94.5"/>
<text text-anchor="middle" x="42.5" y="-139.5" font-family="Helvetica,sans-Serif" font-size="10.00">Attribute</text>
<polyline fill="none" stroke="black" points="13,-132.5 72,-132.5 "/>
<text text-anchor="middle" x="42.5" y="-120.5" font-family="Helvetica,sans-Serif" font-size="10.00"> </text>
<polyline fill="none" stroke="black" points="13,-113.5 72,-113.5 "/>
<text text-anchor="middle" x="42.5" y="-101.5" font-family="Helvetica,sans-Serif" font-size="10.00"> </text>
</a>
</g>
</g>
<!-- Node2&#45;&gt;Node1 -->
<g id="edge1" class="edge">
<title>Node2&#45;&gt;Node1</title>
<path fill="none" stroke="midnightblue" d="M42.5,-84.21C42.5,-75.29 42.5,-65.95 42.5,-57.58"/>
<polygon fill="none" stroke="midnightblue" points="39,-84.4 42.5,-94.4 46,-84.4 39,-84.4"/>
</g>
<!-- Node3 -->
<g id="node3" class="node">
<title>Node3</title>
<g id="a_node3"><a xlink:title=" ">
<polygon fill="white" stroke="#bfbfbf" points="14,-188.5 14,-245.5 71,-245.5 71,-188.5 14,-188.5"/>
<text text-anchor="middle" x="42.5" y="-233.5" font-family="Helvetica,sans-Serif" font-size="10.00">Element</text>
<polyline fill="none" stroke="#bfbfbf" points="14,-226.5 71,-226.5 "/>
<text text-anchor="middle" x="42.5" y="-214.5" font-family="Helvetica,sans-Serif" font-size="10.00"> </text>
<polyline fill="none" stroke="#bfbfbf" points="14,-207.5 71,-207.5 "/>
<text text-anchor="middle" x="42.5" y="-195.5" font-family="Helvetica,sans-Serif" font-size="10.00"> </text>
</a>
</g>
</g>
<!-- Node3&#45;&gt;Node2 -->
<g id="edge2" class="edge">
<title>Node3&#45;&gt;Node2</title>
<path fill="none" stroke="midnightblue" d="M42.5,-178.21C42.5,-169.29 42.5,-159.95 42.5,-151.58"/>
<polygon fill="none" stroke="midnightblue" points="39,-178.4 42.5,-188.4 46,-178.4 39,-178.4"/>
</g>
</g>
</svg>
