<?xml version="1.0" encoding="UTF-8" standalone="no"?>
<!DOCTYPE svg PUBLIC "-//W3C//DTD SVG 1.1//EN"
 "http://www.w3.org/Graphics/SVG/1.1/DTD/svg11.dtd">
<!-- Generated by graphviz version 2.43.0 (0)
 -->
<!-- Title: CoordinateDataItem Pages: 1 -->
<svg width="128pt" height="254pt"
 viewBox="0.00 0.00 127.50 254.00" xmlns="http://www.w3.org/2000/svg" xmlns:xlink="http://www.w3.org/1999/xlink">
<g id="graph0" class="graph" transform="scale(1 1) rotate(0) translate(4 250)">
<title>CoordinateDataItem</title>
<polygon fill="white" stroke="transparent" points="-4,4 -4,-250 123.5,-250 123.5,4 -4,4"/>
<!-- Node1 -->
<g id="node1" class="node">
<title>Node1</title>
<g id="a_node1"><a xlink:title=" ">
<polygon fill="#bfbfbf" stroke="black" points="0,-0.5 0,-57.5 116,-57.5 116,-0.5 0,-0.5"/>
<text text-anchor="middle" x="58" y="-45.5" font-family="Helvetica,sans-Serif" font-size="10.00">CoordinateDataItem</text>
<polyline fill="none" stroke="black" points="0,-38.5 116,-38.5 "/>
<text text-anchor="middle" x="58" y="-26.5" font-family="Helvetica,sans-Serif" font-size="10.00"> </text>
<polyline fill="none" stroke="black" points="0,-19.5 116,-19.5 "/>
<text text-anchor="start" x="8" y="-7.5" font-family="Helvetica,sans-Serif" font-size="10.00">+ GetShape()</text>
</a>
</g>
</g>
<!-- Node2 -->
<g id="node2" class="node">
<title>Node2</title>
<g id="a_node2"><a xlink:href="classpython__scripts_1_1xdmf_1_1DataItem_1_1DataItem.html" target="_top" xlink:title=" ">
<polygon fill="white" stroke="black" points="16.5,-94.5 16.5,-151.5 99.5,-151.5 99.5,-94.5 16.5,-94.5"/>
<text text-anchor="middle" x="58" y="-139.5" font-family="Helvetica,sans-Serif" font-size="10.00">DataItem</text>
<polyline fill="none" stroke="black" points="16.5,-132.5 99.5,-132.5 "/>
<text text-anchor="middle" x="58" y="-120.5" font-family="Helvetica,sans-Serif" font-size="10.00"> </text>
<polyline fill="none" stroke="black" points="16.5,-113.5 99.5,-113.5 "/>
<text text-anchor="start" x="24.5" y="-101.5" font-family="Helvetica,sans-Serif" font-size="10.00">+ GetShape()</text>
</a>
</g>
</g>
<!-- Node2&#45;&gt;Node1 -->
<g id="edge1" class="edge">
<title>Node2&#45;&gt;Node1</title>
<path fill="none" stroke="midnightblue" d="M58,-84.21C58,-75.29 58,-65.95 58,-57.58"/>
<polygon fill="none" stroke="midnightblue" points="54.5,-84.4 58,-94.4 61.5,-84.4 54.5,-84.4"/>
</g>
<!-- Node3 -->
<g id="node3" class="node">
<title>Node3</title>
<g id="a_node3"><a xlink:title=" ">
<polygon fill="white" stroke="#bfbfbf" points="7.5,-188.5 7.5,-245.5 44.5,-245.5 44.5,-188.5 7.5,-188.5"/>
<text text-anchor="middle" x="26" y="-233.5" font-family="Helvetica,sans-Serif" font-size="10.00">ABC</text>
<polyline fill="none" stroke="#bfbfbf" points="7.5,-226.5 44.5,-226.5 "/>
<text text-anchor="middle" x="26" y="-214.5" font-family="Helvetica,sans-Serif" font-size="10.00"> </text>
<polyline fill="none" stroke="#bfbfbf" points="7.5,-207.5 44.5,-207.5 "/>
<text text-anchor="middle" x="26" y="-195.5" font-family="Helvetica,sans-Serif" font-size="10.00"> </text>
</a>
</g>
</g>
<!-- Node3&#45;&gt;Node2 -->
<g id="edge2" class="edge">
<title>Node3&#45;&gt;Node2</title>
<path fill="none" stroke="midnightblue" d="M38.94,-178.79C42.1,-169.7 45.43,-160.13 48.41,-151.58"/>
<polygon fill="none" stroke="midnightblue" points="35.58,-177.8 35.6,-188.4 42.19,-180.1 35.58,-177.8"/>
</g>
<!-- Node4 -->
<g id="node4" class="node">
<title>Node4</title>
<g id="a_node4"><a xlink:title=" ">
<polygon fill="white" stroke="#bfbfbf" points="62.5,-188.5 62.5,-245.5 119.5,-245.5 119.5,-188.5 62.5,-188.5"/>
<text text-anchor="middle" x="91" y="-233.5" font-family="Helvetica,sans-Serif" font-size="10.00">Element</text>
<polyline fill="none" stroke="#bfbfbf" points="62.5,-226.5 119.5,-226.5 "/>
<text text-anchor="middle" x="91" y="-214.5" font-family="Helvetica,sans-Serif" font-size="10.00"> </text>
<polyline fill="none" stroke="#bfbfbf" points="62.5,-207.5 119.5,-207.5 "/>
<text text-anchor="middle" x="91" y="-195.5" font-family="Helvetica,sans-Serif" font-size="10.00"> </text>
</a>
</g>
</g>
<!-- Node4&#45;&gt;Node2 -->
<g id="edge3" class="edge">
<title>Node4&#45;&gt;Node2</title>
<path fill="none" stroke="midnightblue" d="M77.65,-178.79C74.39,-169.7 70.96,-160.13 67.89,-151.58"/>
<polygon fill="none" stroke="midnightblue" points="74.43,-180.17 81.1,-188.4 81.02,-177.8 74.43,-180.17"/>
</g>
</g>
</svg>
