<?xml version="1.0" encoding="UTF-8" standalone="no"?>
<!DOCTYPE svg PUBLIC "-//W3C//DTD SVG 1.1//EN"
 "http://www.w3.org/Graphics/SVG/1.1/DTD/svg11.dtd">
<!-- Generated by graphviz version 2.43.0 (0)
 -->
<!-- Title: SnapshotFSIO Pages: 1 -->
<svg width="152pt" height="265pt"
 viewBox="0.00 0.00 152.00 265.00" xmlns="http://www.w3.org/2000/svg" xmlns:xlink="http://www.w3.org/1999/xlink">
<g id="graph0" class="graph" transform="scale(1 1) rotate(0) translate(4 261)">
<title>SnapshotFSIO</title>
<polygon fill="white" stroke="transparent" points="-4,4 -4,-261 148,-261 148,4 -4,4"/>
<!-- Node1 -->
<g id="node1" class="node">
<title>Node1</title>
<g id="a_node1"><a xlink:title="Base class for Snapshot s that store their data on the filesystem.">
<polygon fill="#bfbfbf" stroke="black" points="30.5,-0.5 30.5,-68.5 113.5,-68.5 113.5,-0.5 30.5,-0.5"/>
<text text-anchor="middle" x="72" y="-56.5" font-family="Helvetica,sans-Serif" font-size="10.00">SnapshotFSIO</text>
<polyline fill="none" stroke="black" points="30.5,-49.5 113.5,-49.5 "/>
<text text-anchor="middle" x="72" y="-37.5" font-family="Helvetica,sans-Serif" font-size="10.00"> </text>
<polyline fill="none" stroke="black" points="30.5,-30.5 113.5,-30.5 "/>
<text text-anchor="start" x="38.5" y="-18.5" font-family="Helvetica,sans-Serif" font-size="10.00">+ GetID()</text>
<text text-anchor="start" x="38.5" y="-7.5" font-family="Helvetica,sans-Serif" font-size="10.00">+ GetPath()</text>
</a>
</g>
</g>
<!-- Node2 -->
<g id="node2" class="node">
<title>Node2</title>
<g id="a_node2"><a xlink:href="classpython__scripts_1_1checkpoint_1_1SnapshotIO_1_1SnapshotIO.html" target="_top" xlink:title="Interface for performing Snapshot input/output operations.">
<polygon fill="white" stroke="black" points="0,-105.5 0,-162.5 144,-162.5 144,-105.5 0,-105.5"/>
<text text-anchor="middle" x="72" y="-150.5" font-family="Helvetica,sans-Serif" font-size="10.00">SnapshotIO</text>
<polyline fill="none" stroke="black" points="0,-143.5 144,-143.5 "/>
<text text-anchor="middle" x="72" y="-131.5" font-family="Helvetica,sans-Serif" font-size="10.00"> </text>
<polyline fill="none" stroke="black" points="0,-124.5 144,-124.5 "/>
<text text-anchor="start" x="8" y="-112.5" font-family="Helvetica,sans-Serif" font-size="10.00">+ GetDefaultParameters()</text>
</a>
</g>
</g>
<!-- Node2&#45;&gt;Node1 -->
<g id="edge1" class="edge">
<title>Node2&#45;&gt;Node1</title>
<path fill="none" stroke="midnightblue" d="M72,-95.06C72,-86.39 72,-77.24 72,-68.79"/>
<polygon fill="none" stroke="midnightblue" points="68.5,-95.32 72,-105.32 75.5,-95.32 68.5,-95.32"/>
</g>
<!-- Node3 -->
<g id="node3" class="node">
<title>Node3</title>
<g id="a_node3"><a xlink:title=" ">
<polygon fill="white" stroke="#bfbfbf" points="33,-199.5 33,-256.5 111,-256.5 111,-199.5 33,-199.5"/>
<text text-anchor="middle" x="72" y="-244.5" font-family="Helvetica,sans-Serif" font-size="10.00">WRAppClass</text>
<polyline fill="none" stroke="#bfbfbf" points="33,-237.5 111,-237.5 "/>
<text text-anchor="middle" x="72" y="-225.5" font-family="Helvetica,sans-Serif" font-size="10.00"> </text>
<polyline fill="none" stroke="#bfbfbf" points="33,-218.5 111,-218.5 "/>
<text text-anchor="middle" x="72" y="-206.5" font-family="Helvetica,sans-Serif" font-size="10.00"> </text>
</a>
</g>
</g>
<!-- Node3&#45;&gt;Node2 -->
<g id="edge2" class="edge">
<title>Node3&#45;&gt;Node2</title>
<path fill="none" stroke="midnightblue" d="M72,-189.21C72,-180.29 72,-170.95 72,-162.58"/>
<polygon fill="none" stroke="midnightblue" points="68.5,-189.4 72,-199.4 75.5,-189.4 68.5,-189.4"/>
</g>
</g>
</svg>
