<?xml version="1.0" encoding="UTF-8" standalone="no"?>
<!DOCTYPE svg PUBLIC "-//W3C//DTD SVG 1.1//EN"
 "http://www.w3.org/Graphics/SVG/1.1/DTD/svg11.dtd">
<!-- Generated by graphviz version 2.43.0 (0)
 -->
<!-- Title: CompoundPipe&lt; TInputPipe, TOutputPipe &gt; Pages: 1 -->
<svg width="158pt" height="280pt"
 viewBox="0.00 0.00 158.00 280.00" xmlns="http://www.w3.org/2000/svg" xmlns:xlink="http://www.w3.org/1999/xlink">

<svg id="main" version="1.1" xmlns="http://www.w3.org/2000/svg" xmlns:xlink="http://www.w3.org/1999/xlink" xml:space="preserve" onload="init(evt)">
<style type="text/css"><![CDATA[
.node, .edge {opacity: 0.7;}
.node.selected, .edge.selected {opacity: 1;}
.edge:hover path { stroke: red; }
.edge:hover polygon { stroke: red; fill: red; }
]]></style>
<script type="application/ecmascript" xlink:href="svg.min.js"/>
<svg id="graph" class="graph">
<g id="graph0" class="graph" transform="scale(1 1) rotate(0) translate(4 276)">
<title>CompoundPipe&lt; TInputPipe, TOutputPipe &gt;</title>
<!-- Node1 -->
<g id="Node000001" class="node">
<title>Node1</title>
<g id="a_Node000001"><a xlink:title="A composable pipe that takes the output of one pipe and feeds its result into another.">
<polygon fill="#999999" stroke="transparent" points="150,-165 0,-165 0,0 150,0 150,-165"/>
<text text-anchor="start" x="5" y="-152.5" font-family="Helvetica,sans-Serif" font-size="10.00">CompoundPipe&lt; TInputPipe,</text>
<text text-anchor="start" x="37.5" y="-141.5" font-family="Helvetica,sans-Serif" font-size="10.00"> TOutputPipe &gt;</text>
<text text-anchor="start" x="73" y="-126.5" font-family="Helvetica,sans-Serif" font-size="10.00"> </text>
<text text-anchor="start" x="7" y="-111.5" font-family="Helvetica,sans-Serif" font-size="10.00">+</text>
<text text-anchor="start" x="23" y="-111.5" font-family="Helvetica,sans-Serif" font-size="10.00">CompoundPipe()</text>
<text text-anchor="start" x="7" y="-96.5" font-family="Helvetica,sans-Serif" font-size="10.00">+</text>
<text text-anchor="start" x="23" y="-96.5" font-family="Helvetica,sans-Serif" font-size="10.00">CompoundPipe()</text>
<text text-anchor="start" x="7" y="-81.5" font-family="Helvetica,sans-Serif" font-size="10.00">+</text>
<text text-anchor="start" x="23" y="-81.5" font-family="Helvetica,sans-Serif" font-size="10.00">CompoundPipe()</text>
<text text-anchor="start" x="7" y="-66.5" font-family="Helvetica,sans-Serif" font-size="10.00">+</text>
<text text-anchor="start" x="23" y="-66.5" font-family="Helvetica,sans-Serif" font-size="10.00">CompoundPipe()</text>
<text text-anchor="start" x="7" y="-51.5" font-family="Helvetica,sans-Serif" font-size="10.00">+</text>
<text text-anchor="start" x="23" y="-51.5" font-family="Helvetica,sans-Serif" font-size="10.00">CompoundPipe()</text>
<text text-anchor="start" x="7" y="-36.5" font-family="Helvetica,sans-Serif" font-size="10.00">+</text>
<text text-anchor="start" x="23" y="-36.5" font-family="Helvetica,sans-Serif" font-size="10.00">CompoundPipe()</text>
<text text-anchor="start" x="7" y="-21.5" font-family="Helvetica,sans-Serif" font-size="10.00">+</text>
<text text-anchor="start" x="23" y="-21.5" font-family="Helvetica,sans-Serif" font-size="10.00">operator()()</text>
<text text-anchor="start" x="7" y="-6.5" font-family="Helvetica,sans-Serif" font-size="10.00">+</text>
<text text-anchor="start" x="23" y="-6.5" font-family="Helvetica,sans-Serif" font-size="10.00">GetDefaultParameters()</text>
<polygon fill="#666666" stroke="#666666" points="0,-136.5 0,-136.5 150,-136.5 150,-136.5 0,-136.5"/>
<polygon fill="#666666" stroke="#666666" points="0,-121.5 0,-121.5 150,-121.5 150,-121.5 0,-121.5"/>
<polygon fill="none" stroke="#666666" points="0,0 0,-165 150,-165 150,0 0,0"/>
</a>
</g>
</g>
<!-- Node2 -->
<g id="Node000002" class="node">
<title>Node2</title>
<g id="a_Node000002"><a xlink:href="structKratos_1_1Pipes_1_1Traits.html" target="_top" xlink:title=" ">
<polygon fill="white" stroke="transparent" points="140,-272 10,-272 10,-201 140,-201 140,-272"/>
<text text-anchor="start" x="15" y="-259.5" font-family="Helvetica,sans-Serif" font-size="10.00">Traits&lt; TInputPipe</text>
<text text-anchor="start" x="15" y="-248.5" font-family="Helvetica,sans-Serif" font-size="10.00">::InputType, TOutputPipe</text>
<text text-anchor="start" x="38.5" y="-237.5" font-family="Helvetica,sans-Serif" font-size="10.00">::OutputType &gt;</text>
<text text-anchor="start" x="73" y="-222.5" font-family="Helvetica,sans-Serif" font-size="10.00"> </text>
<text text-anchor="start" x="73" y="-207.5" font-family="Helvetica,sans-Serif" font-size="10.00"> </text>
<polygon fill="#666666" stroke="#666666" points="10,-232.5 10,-232.5 140,-232.5 140,-232.5 10,-232.5"/>
<polygon fill="#666666" stroke="#666666" points="10,-217.5 10,-217.5 140,-217.5 140,-217.5 10,-217.5"/>
<polygon fill="none" stroke="#666666" points="10,-201 10,-272 140,-272 140,-201 10,-201"/>
</a>
</g>
</g>
<!-- Node2&#45;&gt;Node1 -->
<g id="edge1_Node000001_Node000002" class="edge">
<title>Node2&#45;&gt;Node1</title>
<g id="a_edge1_Node000001_Node000002"><a xlink:title=" ">
<path fill="none" stroke="#63b8ff" d="M75,-190.46C75,-182.45 75,-173.89 75,-165.23"/>
<polygon fill="none" stroke="#63b8ff" points="71.5,-190.63 75,-200.63 78.5,-190.63 71.5,-190.63"/>
</a>
</g>
</g>
</g>
</svg>
</svg>

<style type='text/css'>
<![CDATA[
[data-mouse-over-selected='false'] { opacity: 0.7; }
[data-mouse-over-selected='true']  { opacity: 1.0; }
]]>
</style>
<script type="application/ecmascript"><![CDATA[
document.addEventListener('DOMContentLoaded', (event) => {
  highlightEdges();
  highlightAdjacentNodes();
});
]]></script>
</svg>
