<?xml version="1.0" encoding="UTF-8" standalone="no"?>
<!DOCTYPE svg PUBLIC "-//W3C//DTD SVG 1.1//EN"
 "http://www.w3.org/Graphics/SVG/1.1/DTD/svg11.dtd">
<!-- Generated by graphviz version 2.43.0 (0)
 -->
<!-- Title: SnapshotInMemoryInput.Operation Pages: 1 -->
<svg width="195pt" height="254pt"
 viewBox="0.00 0.00 195.00 254.00" xmlns="http://www.w3.org/2000/svg" xmlns:xlink="http://www.w3.org/1999/xlink">
<g id="graph0" class="graph" transform="scale(1 1) rotate(0) translate(4 250)">
<title>SnapshotInMemoryInput.Operation</title>
<polygon fill="white" stroke="transparent" points="-4,4 -4,-250 191,-250 191,4 -4,4"/>
<!-- Node1 -->
<g id="node1" class="node">
<title>Node1</title>
<g id="a_node1"><a xlink:title="Read data from the static cache of SnapshotInMemoryIO.">
<polygon fill="#bfbfbf" stroke="black" points="0,-0.5 0,-57.5 187,-57.5 187,-0.5 0,-0.5"/>
<text text-anchor="middle" x="93.5" y="-45.5" font-family="Helvetica,sans-Serif" font-size="10.00">SnapshotInMemoryInput.Operation</text>
<polyline fill="none" stroke="black" points="0,-38.5 187,-38.5 "/>
<text text-anchor="middle" x="93.5" y="-26.5" font-family="Helvetica,sans-Serif" font-size="10.00"> </text>
<polyline fill="none" stroke="black" points="0,-19.5 187,-19.5 "/>
<text text-anchor="start" x="8" y="-7.5" font-family="Helvetica,sans-Serif" font-size="10.00">+ Execute()</text>
</a>
</g>
</g>
<!-- Node2 -->
<g id="node2" class="node">
<title>Node2</title>
<g id="a_node2"><a xlink:href="classpython__scripts_1_1checkpoint_1_1SnapshotInMemoryIO_1_1SnapshotInMemoryIO_1_1Operation.html" target="_top" xlink:title="Base class for interacting with the static cache of SnapshotInMemoryIO.">
<polygon fill="white" stroke="black" points="7,-94.5 7,-151.5 180,-151.5 180,-94.5 7,-94.5"/>
<text text-anchor="middle" x="93.5" y="-139.5" font-family="Helvetica,sans-Serif" font-size="10.00">SnapshotInMemoryIO.Operation</text>
<polyline fill="none" stroke="black" points="7,-132.5 180,-132.5 "/>
<text text-anchor="middle" x="93.5" y="-120.5" font-family="Helvetica,sans-Serif" font-size="10.00"> </text>
<polyline fill="none" stroke="black" points="7,-113.5 180,-113.5 "/>
<text text-anchor="start" x="15" y="-101.5" font-family="Helvetica,sans-Serif" font-size="10.00">+ GetDefaultParameters()</text>
</a>
</g>
</g>
<!-- Node2&#45;&gt;Node1 -->
<g id="edge1" class="edge">
<title>Node2&#45;&gt;Node1</title>
<path fill="none" stroke="midnightblue" d="M93.5,-84.21C93.5,-75.29 93.5,-65.95 93.5,-57.58"/>
<polygon fill="none" stroke="midnightblue" points="90,-84.4 93.5,-94.4 97,-84.4 90,-84.4"/>
</g>
<!-- Node3 -->
<g id="node3" class="node">
<title>Node3</title>
<g id="a_node3"><a xlink:title=" ">
<polygon fill="white" stroke="#bfbfbf" points="61,-188.5 61,-245.5 126,-245.5 126,-188.5 61,-188.5"/>
<text text-anchor="middle" x="93.5" y="-233.5" font-family="Helvetica,sans-Serif" font-size="10.00">Operation</text>
<polyline fill="none" stroke="#bfbfbf" points="61,-226.5 126,-226.5 "/>
<text text-anchor="middle" x="93.5" y="-214.5" font-family="Helvetica,sans-Serif" font-size="10.00"> </text>
<polyline fill="none" stroke="#bfbfbf" points="61,-207.5 126,-207.5 "/>
<text text-anchor="middle" x="93.5" y="-195.5" font-family="Helvetica,sans-Serif" font-size="10.00"> </text>
</a>
</g>
</g>
<!-- Node3&#45;&gt;Node2 -->
<g id="edge2" class="edge">
<title>Node3&#45;&gt;Node2</title>
<path fill="none" stroke="midnightblue" d="M93.5,-178.21C93.5,-169.29 93.5,-159.95 93.5,-151.58"/>
<polygon fill="none" stroke="midnightblue" points="90,-178.4 93.5,-188.4 97,-178.4 90,-178.4"/>
</g>
</g>
</svg>
