<?xml version="1.0" encoding="UTF-8" standalone="no"?>
<!DOCTYPE svg PUBLIC "-//W3C//DTD SVG 1.1//EN"
 "http://www.w3.org/Graphics/SVG/1.1/DTD/svg11.dtd">
<!-- Generated by graphviz version 2.43.0 (0)
 -->
<!-- Title: DefaultCheckpointSelector Pages: 1 -->
<svg width="155pt" height="254pt"
 viewBox="0.00 0.00 155.00 254.00" xmlns="http://www.w3.org/2000/svg" xmlns:xlink="http://www.w3.org/1999/xlink">
<g id="graph0" class="graph" transform="scale(1 1) rotate(0) translate(4 250)">
<title>DefaultCheckpointSelector</title>
<polygon fill="white" stroke="transparent" points="-4,4 -4,-250 151,-250 151,4 -4,4"/>
<!-- Node1 -->
<g id="node1" class="node">
<title>Node1</title>
<g id="a_node1"><a xlink:title="Always returns None, i.e.">
<polygon fill="#bfbfbf" stroke="black" points="0,-0.5 0,-57.5 147,-57.5 147,-0.5 0,-0.5"/>
<text text-anchor="middle" x="73.5" y="-45.5" font-family="Helvetica,sans-Serif" font-size="10.00">DefaultCheckpointSelector</text>
<polyline fill="none" stroke="black" points="0,-38.5 147,-38.5 "/>
<text text-anchor="middle" x="73.5" y="-26.5" font-family="Helvetica,sans-Serif" font-size="10.00"> </text>
<polyline fill="none" stroke="black" points="0,-19.5 147,-19.5 "/>
<text text-anchor="middle" x="73.5" y="-7.5" font-family="Helvetica,sans-Serif" font-size="10.00"> </text>
</a>
</g>
</g>
<!-- Node2 -->
<g id="node2" class="node">
<title>Node2</title>
<g id="a_node2"><a xlink:href="classpython__scripts_1_1checkpoint_1_1CheckpointProcess_1_1CheckpointSelector.html" target="_top" xlink:title="A functor taking a Model and returning a CheckpointID to load or None.">
<polygon fill="white" stroke="black" points="18,-94.5 18,-151.5 129,-151.5 129,-94.5 18,-94.5"/>
<text text-anchor="middle" x="73.5" y="-139.5" font-family="Helvetica,sans-Serif" font-size="10.00">CheckpointSelector</text>
<polyline fill="none" stroke="black" points="18,-132.5 129,-132.5 "/>
<text text-anchor="middle" x="73.5" y="-120.5" font-family="Helvetica,sans-Serif" font-size="10.00"> </text>
<polyline fill="none" stroke="black" points="18,-113.5 129,-113.5 "/>
<text text-anchor="middle" x="73.5" y="-101.5" font-family="Helvetica,sans-Serif" font-size="10.00"> </text>
</a>
</g>
</g>
<!-- Node2&#45;&gt;Node1 -->
<g id="edge1" class="edge">
<title>Node2&#45;&gt;Node1</title>
<path fill="none" stroke="midnightblue" d="M73.5,-84.21C73.5,-75.29 73.5,-65.95 73.5,-57.58"/>
<polygon fill="none" stroke="midnightblue" points="70,-84.4 73.5,-94.4 77,-84.4 70,-84.4"/>
</g>
<!-- Node3 -->
<g id="node3" class="node">
<title>Node3</title>
<g id="a_node3"><a xlink:title=" ">
<polygon fill="white" stroke="#bfbfbf" points="34.5,-188.5 34.5,-245.5 112.5,-245.5 112.5,-188.5 34.5,-188.5"/>
<text text-anchor="middle" x="73.5" y="-233.5" font-family="Helvetica,sans-Serif" font-size="10.00">WRAppClass</text>
<polyline fill="none" stroke="#bfbfbf" points="34.5,-226.5 112.5,-226.5 "/>
<text text-anchor="middle" x="73.5" y="-214.5" font-family="Helvetica,sans-Serif" font-size="10.00"> </text>
<polyline fill="none" stroke="#bfbfbf" points="34.5,-207.5 112.5,-207.5 "/>
<text text-anchor="middle" x="73.5" y="-195.5" font-family="Helvetica,sans-Serif" font-size="10.00"> </text>
</a>
</g>
</g>
<!-- Node3&#45;&gt;Node2 -->
<g id="edge2" class="edge">
<title>Node3&#45;&gt;Node2</title>
<path fill="none" stroke="midnightblue" d="M73.5,-178.21C73.5,-169.29 73.5,-159.95 73.5,-151.58"/>
<polygon fill="none" stroke="midnightblue" points="70,-178.4 73.5,-188.4 77,-178.4 70,-178.4"/>
</g>
</g>
</svg>
