<?xml version="1.0" encoding="UTF-8" standalone="no"?>
<!DOCTYPE svg PUBLIC "-//W3C//DTD SVG 1.1//EN"
 "http://www.w3.org/Graphics/SVG/1.1/DTD/svg11.dtd">
<!-- Generated by graphviz version 2.43.0 (0)
 -->
<!-- Title: HDF5SnapshotIO Pages: 1 -->
<svg width="101pt" height="142pt"
 viewBox="0.00 0.00 101.00 142.00" xmlns="http://www.w3.org/2000/svg" xmlns:xlink="http://www.w3.org/1999/xlink">
<g id="graph0" class="graph" transform="scale(1 1) rotate(0) translate(4 138)">
<title>HDF5SnapshotIO</title>
<!-- Node1 -->
<g id="Node000001" class="node">
<title>Node1</title>
<g id="a_Node000001"><a xlink:title="Base class with common functionality to writing/loading snapshots to/from disk.">
<polygon fill="#999999" stroke="transparent" points="93,-49 0,-49 0,0 93,0 93,-49"/>
<text text-anchor="start" x="5.5" y="-36.5" font-family="Helvetica,sans-Serif" font-size="10.00">HDF5SnapshotIO</text>
<text text-anchor="start" x="45" y="-21.5" font-family="Helvetica,sans-Serif" font-size="10.00"> </text>
<text text-anchor="start" x="45" y="-6.5" font-family="Helvetica,sans-Serif" font-size="10.00"> </text>
<polygon fill="#666666" stroke="#666666" points="0.5,-31.5 0.5,-31.5 93.5,-31.5 93.5,-31.5 0.5,-31.5"/>
<polygon fill="#666666" stroke="#666666" points="0.5,-16.5 0.5,-16.5 93.5,-16.5 93.5,-16.5 0.5,-16.5"/>
<polygon fill="none" stroke="#666666" points="0,0 0,-49 93,-49 93,0 0,0"/>
</a>
</g>
</g>
<!-- Node2 -->
<g id="Node000002" class="node">
<title>Node2</title>
<g id="a_Node000002"><a xlink:title=" ">
<polygon fill="white" stroke="transparent" points="85,-134 8,-134 8,-85 85,-85 85,-134"/>
<text text-anchor="start" x="13.5" y="-121.5" font-family="Helvetica,sans-Serif" font-size="10.00">SnapshotFSIO</text>
<text text-anchor="start" x="45" y="-106.5" font-family="Helvetica,sans-Serif" font-size="10.00"> </text>
<text text-anchor="start" x="45" y="-91.5" font-family="Helvetica,sans-Serif" font-size="10.00"> </text>
<polygon fill="#666666" stroke="#666666" points="8.5,-116.5 8.5,-116.5 85.5,-116.5 85.5,-116.5 8.5,-116.5"/>
<polygon fill="#666666" stroke="#666666" points="8.5,-101.5 8.5,-101.5 85.5,-101.5 85.5,-101.5 8.5,-101.5"/>
<polygon fill="none" stroke="#666666" points="8,-85 8,-134 85,-134 85,-85 8,-85"/>
</a>
</g>
</g>
<!-- Node2&#45;&gt;Node1 -->
<g id="edge1_Node000001_Node000002" class="edge">
<title>Node2&#45;&gt;Node1</title>
<g id="a_edge1_Node000001_Node000002"><a xlink:title=" ">
<path fill="none" stroke="#63b8ff" d="M46.5,-74.77C46.5,-66.17 46.5,-57.1 46.5,-49.12"/>
<polygon fill="none" stroke="#63b8ff" points="43,-74.94 46.5,-84.94 50,-74.94 43,-74.94"/>
</a>
</g>
</g>
</g>
</svg>
