<?xml version="1.0" encoding="UTF-8" standalone="no"?>
<!DOCTYPE svg PUBLIC "-//W3C//DTD SVG 1.1//EN"
 "http://www.w3.org/Graphics/SVG/1.1/DTD/svg11.dtd">
<!-- Generated by graphviz version 2.43.0 (0)
 -->
<!-- Title: SnapshotIO Pages: 1 -->
<svg width="566pt" height="530pt"
 viewBox="0.00 0.00 565.50 530.00" xmlns="http://www.w3.org/2000/svg" xmlns:xlink="http://www.w3.org/1999/xlink">
<g id="graph0" class="graph" transform="scale(1 1) rotate(0) translate(4 526)">
<title>SnapshotIO</title>
<polygon fill="white" stroke="transparent" points="-4,4 -4,-526 561.5,-526 561.5,4 -4,4"/>
<!-- Node1 -->
<g id="node1" class="node">
<title>Node1</title>
<g id="a_node1"><a xlink:title="Interface for performing Snapshot input/output operations.">
<polygon fill="#bfbfbf" stroke="black" points="173.5,-370.5 173.5,-427.5 317.5,-427.5 317.5,-370.5 173.5,-370.5"/>
<text text-anchor="middle" x="245.5" y="-415.5" font-family="Helvetica,sans-Serif" font-size="10.00">SnapshotIO</text>
<polyline fill="none" stroke="black" points="173.5,-408.5 317.5,-408.5 "/>
<text text-anchor="middle" x="245.5" y="-396.5" font-family="Helvetica,sans-Serif" font-size="10.00"> </text>
<polyline fill="none" stroke="black" points="173.5,-389.5 317.5,-389.5 "/>
<text text-anchor="start" x="181.5" y="-377.5" font-family="Helvetica,sans-Serif" font-size="10.00">+ GetDefaultParameters()</text>
</a>
</g>
</g>
<!-- Node3 -->
<g id="node3" class="node">
<title>Node3</title>
<g id="a_node3"><a xlink:href="classpython__scripts_1_1checkpoint_1_1SnapshotIO_1_1SnapshotFSIO.html" target="_top" xlink:title="Base class for Snapshot s that store their data on the filesystem.">
<polygon fill="white" stroke="black" points="138,-249 138,-317 221,-317 221,-249 138,-249"/>
<text text-anchor="middle" x="179.5" y="-305" font-family="Helvetica,sans-Serif" font-size="10.00">SnapshotFSIO</text>
<polyline fill="none" stroke="black" points="138,-298 221,-298 "/>
<text text-anchor="middle" x="179.5" y="-286" font-family="Helvetica,sans-Serif" font-size="10.00"> </text>
<polyline fill="none" stroke="black" points="138,-279 221,-279 "/>
<text text-anchor="start" x="146" y="-267" font-family="Helvetica,sans-Serif" font-size="10.00">+ GetID()</text>
<text text-anchor="start" x="146" y="-256" font-family="Helvetica,sans-Serif" font-size="10.00">+ GetPath()</text>
</a>
</g>
</g>
<!-- Node1&#45;&gt;Node3 -->
<g id="edge2" class="edge">
<title>Node1&#45;&gt;Node3</title>
<path fill="none" stroke="midnightblue" d="M224.29,-361.37C216.04,-347.11 206.66,-330.91 198.62,-317.02"/>
<polygon fill="none" stroke="midnightblue" points="221.48,-363.5 229.52,-370.4 227.54,-360 221.48,-363.5"/>
</g>
<!-- Node7 -->
<g id="node7" class="node">
<title>Node7</title>
<g id="a_node7"><a xlink:href="classpython__scripts_1_1checkpoint_1_1SnapshotInMemoryIO_1_1SnapshotInMemoryIO.html" target="_top" xlink:title="Base class for Snapshot input/output operations in memory.">
<polygon fill="white" stroke="black" points="255.5,-232.5 255.5,-333.5 399.5,-333.5 399.5,-232.5 255.5,-232.5"/>
<text text-anchor="middle" x="327.5" y="-321.5" font-family="Helvetica,sans-Serif" font-size="10.00">SnapshotInMemoryIO</text>
<polyline fill="none" stroke="black" points="255.5,-314.5 399.5,-314.5 "/>
<text text-anchor="middle" x="327.5" y="-302.5" font-family="Helvetica,sans-Serif" font-size="10.00"> </text>
<polyline fill="none" stroke="black" points="255.5,-295.5 399.5,-295.5 "/>
<text text-anchor="start" x="263.5" y="-283.5" font-family="Helvetica,sans-Serif" font-size="10.00">+ Erase()</text>
<text text-anchor="start" x="263.5" y="-272.5" font-family="Helvetica,sans-Serif" font-size="10.00">+ Exists()</text>
<text text-anchor="start" x="263.5" y="-261.5" font-family="Helvetica,sans-Serif" font-size="10.00">+ Glob()</text>
<text text-anchor="start" x="263.5" y="-250.5" font-family="Helvetica,sans-Serif" font-size="10.00">+ Clear()</text>
<text text-anchor="start" x="263.5" y="-239.5" font-family="Helvetica,sans-Serif" font-size="10.00">+ GetDefaultParameters()</text>
</a>
</g>
</g>
<!-- Node1&#45;&gt;Node7 -->
<g id="edge6" class="edge">
<title>Node1&#45;&gt;Node7</title>
<path fill="none" stroke="midnightblue" d="M271.37,-362.04C277.86,-353.01 284.94,-343.17 291.82,-333.61"/>
<polygon fill="none" stroke="midnightblue" points="268.35,-360.24 265.35,-370.4 274.03,-364.33 268.35,-360.24"/>
</g>
<!-- Node2 -->
<g id="node2" class="node">
<title>Node2</title>
<g id="a_node2"><a xlink:title=" ">
<polygon fill="white" stroke="#bfbfbf" points="206.5,-464.5 206.5,-521.5 284.5,-521.5 284.5,-464.5 206.5,-464.5"/>
<text text-anchor="middle" x="245.5" y="-509.5" font-family="Helvetica,sans-Serif" font-size="10.00">WRAppClass</text>
<polyline fill="none" stroke="#bfbfbf" points="206.5,-502.5 284.5,-502.5 "/>
<text text-anchor="middle" x="245.5" y="-490.5" font-family="Helvetica,sans-Serif" font-size="10.00"> </text>
<polyline fill="none" stroke="#bfbfbf" points="206.5,-483.5 284.5,-483.5 "/>
<text text-anchor="middle" x="245.5" y="-471.5" font-family="Helvetica,sans-Serif" font-size="10.00"> </text>
</a>
</g>
</g>
<!-- Node2&#45;&gt;Node1 -->
<g id="edge1" class="edge">
<title>Node2&#45;&gt;Node1</title>
<path fill="none" stroke="midnightblue" d="M245.5,-454.21C245.5,-445.29 245.5,-435.95 245.5,-427.58"/>
<polygon fill="none" stroke="midnightblue" points="242,-454.4 245.5,-464.4 249,-454.4 242,-454.4"/>
</g>
<!-- Node4 -->
<g id="node4" class="node">
<title>Node4</title>
<g id="a_node4"><a xlink:href="classpython__scripts_1_1checkpoint_1_1HDF5SnapshotIO_1_1HDF5SnapshotIO.html" target="_top" xlink:title="Base class with common functionality to writing/loading snapshots to/from disk.">
<polygon fill="white" stroke="black" points="86,-94.5 86,-195.5 241,-195.5 241,-94.5 86,-94.5"/>
<text text-anchor="middle" x="163.5" y="-183.5" font-family="Helvetica,sans-Serif" font-size="10.00">HDF5SnapshotIO</text>
<polyline fill="none" stroke="black" points="86,-176.5 241,-176.5 "/>
<text text-anchor="middle" x="163.5" y="-164.5" font-family="Helvetica,sans-Serif" font-size="10.00"> </text>
<polyline fill="none" stroke="black" points="86,-157.5 241,-157.5 "/>
<text text-anchor="start" x="94" y="-145.5" font-family="Helvetica,sans-Serif" font-size="10.00">+ GetID()</text>
<text text-anchor="start" x="94" y="-134.5" font-family="Helvetica,sans-Serif" font-size="10.00">+ GetPath()</text>
<text text-anchor="start" x="94" y="-123.5" font-family="Helvetica,sans-Serif" font-size="10.00">+ GetDefaultParameters()</text>
<text text-anchor="start" x="94" y="-112.5" font-family="Helvetica,sans-Serif" font-size="10.00">+ parameters()</text>
<text text-anchor="start" x="94" y="-101.5" font-family="Helvetica,sans-Serif" font-size="10.00">+ GetDefaultIOParameters()</text>
</a>
</g>
</g>
<!-- Node3&#45;&gt;Node4 -->
<g id="edge3" class="edge">
<title>Node3&#45;&gt;Node4</title>
<path fill="none" stroke="midnightblue" d="M174.4,-238.62C172.79,-224.94 171,-209.72 169.34,-195.65"/>
<polygon fill="none" stroke="midnightblue" points="170.94,-239.21 175.59,-248.73 177.89,-238.39 170.94,-239.21"/>
</g>
<!-- Node5 -->
<g id="node5" class="node">
<title>Node5</title>
<g id="a_node5"><a xlink:href="classpython__scripts_1_1checkpoint_1_1HDF5SnapshotIO_1_1HDF5SnapshotInput.html" target="_top" xlink:title="Input class for reading most data from an HDF5 snapshot to a model part.">
<polygon fill="white" stroke="black" points="0,-0.5 0,-57.5 155,-57.5 155,-0.5 0,-0.5"/>
<text text-anchor="middle" x="77.5" y="-45.5" font-family="Helvetica,sans-Serif" font-size="10.00">HDF5SnapshotInput</text>
<polyline fill="none" stroke="black" points="0,-38.5 155,-38.5 "/>
<text text-anchor="middle" x="77.5" y="-26.5" font-family="Helvetica,sans-Serif" font-size="10.00"> </text>
<polyline fill="none" stroke="black" points="0,-19.5 155,-19.5 "/>
<text text-anchor="start" x="8" y="-7.5" font-family="Helvetica,sans-Serif" font-size="10.00">+ GetDefaultIOParameters()</text>
</a>
</g>
</g>
<!-- Node4&#45;&gt;Node5 -->
<g id="edge4" class="edge">
<title>Node4&#45;&gt;Node5</title>
<path fill="none" stroke="midnightblue" d="M119.98,-86.31C112.43,-76.3 104.89,-66.31 98.31,-57.59"/>
<polygon fill="none" stroke="midnightblue" points="117.21,-88.45 126.03,-94.33 122.8,-84.24 117.21,-88.45"/>
</g>
<!-- Node6 -->
<g id="node6" class="node">
<title>Node6</title>
<g id="a_node6"><a xlink:href="classpython__scripts_1_1checkpoint_1_1HDF5SnapshotIO_1_1HDF5SnapshotOutput.html" target="_top" xlink:title="Output class for writing most data in the model part to an HDF5 snapshot.">
<polygon fill="white" stroke="black" points="173,-0.5 173,-57.5 328,-57.5 328,-0.5 173,-0.5"/>
<text text-anchor="middle" x="250.5" y="-45.5" font-family="Helvetica,sans-Serif" font-size="10.00">HDF5SnapshotOutput</text>
<polyline fill="none" stroke="black" points="173,-38.5 328,-38.5 "/>
<text text-anchor="middle" x="250.5" y="-26.5" font-family="Helvetica,sans-Serif" font-size="10.00"> </text>
<polyline fill="none" stroke="black" points="173,-19.5 328,-19.5 "/>
<text text-anchor="start" x="181" y="-7.5" font-family="Helvetica,sans-Serif" font-size="10.00">+ GetDefaultIOParameters()</text>
</a>
</g>
</g>
<!-- Node4&#45;&gt;Node6 -->
<g id="edge5" class="edge">
<title>Node4&#45;&gt;Node6</title>
<path fill="none" stroke="midnightblue" d="M207.52,-86.31C215.17,-76.3 222.79,-66.31 229.44,-57.59"/>
<polygon fill="none" stroke="midnightblue" points="204.69,-84.26 201.41,-94.33 210.26,-88.5 204.69,-84.26"/>
</g>
<!-- Node8 -->
<g id="node8" class="node">
<title>Node8</title>
<g id="a_node8"><a xlink:href="classpython__scripts_1_1checkpoint_1_1SnapshotInMemoryIO_1_1SnapshotInMemoryInput.html" target="_top" xlink:title="Implements Snapshot input operations in memory.">
<polygon fill="white" stroke="black" points="259.5,-111 259.5,-179 395.5,-179 395.5,-111 259.5,-111"/>
<text text-anchor="middle" x="327.5" y="-167" font-family="Helvetica,sans-Serif" font-size="10.00">SnapshotInMemoryInput</text>
<polyline fill="none" stroke="black" points="259.5,-160 395.5,-160 "/>
<text text-anchor="middle" x="327.5" y="-148" font-family="Helvetica,sans-Serif" font-size="10.00"> </text>
<polyline fill="none" stroke="black" points="259.5,-141 395.5,-141 "/>
<text text-anchor="start" x="267.5" y="-129" font-family="Helvetica,sans-Serif" font-size="10.00">+ GetEntry()</text>
<text text-anchor="start" x="267.5" y="-118" font-family="Helvetica,sans-Serif" font-size="10.00">+ GetExpression()</text>
</a>
</g>
</g>
<!-- Node7&#45;&gt;Node8 -->
<g id="edge7" class="edge">
<title>Node7&#45;&gt;Node8</title>
<path fill="none" stroke="midnightblue" d="M327.5,-222.09C327.5,-207.41 327.5,-192.23 327.5,-179.32"/>
<polygon fill="none" stroke="midnightblue" points="324,-222.13 327.5,-232.13 331,-222.13 324,-222.13"/>
</g>
<!-- Node9 -->
<g id="node9" class="node">
<title>Node9</title>
<g id="a_node9"><a xlink:href="classpython__scripts_1_1checkpoint_1_1SnapshotInMemoryIO_1_1SnapshotInMemoryOutput.html" target="_top" xlink:title="Implements Snapshot output operations in memory.">
<polygon fill="white" stroke="black" points="413.5,-116.5 413.5,-173.5 557.5,-173.5 557.5,-116.5 413.5,-116.5"/>
<text text-anchor="middle" x="485.5" y="-161.5" font-family="Helvetica,sans-Serif" font-size="10.00">SnapshotInMemoryOutput</text>
<polyline fill="none" stroke="black" points="413.5,-154.5 557.5,-154.5 "/>
<text text-anchor="middle" x="485.5" y="-142.5" font-family="Helvetica,sans-Serif" font-size="10.00"> </text>
<polyline fill="none" stroke="black" points="413.5,-135.5 557.5,-135.5 "/>
<text text-anchor="middle" x="485.5" y="-123.5" font-family="Helvetica,sans-Serif" font-size="10.00"> </text>
</a>
</g>
</g>
<!-- Node7&#45;&gt;Node9 -->
<g id="edge8" class="edge">
<title>Node7&#45;&gt;Node9</title>
<path fill="none" stroke="midnightblue" d="M393.03,-225.59C413.83,-207.69 435.91,-188.68 453.28,-173.73"/>
<polygon fill="none" stroke="midnightblue" points="390.73,-222.95 385.44,-232.13 395.3,-228.26 390.73,-222.95"/>
</g>
</g>
</svg>
