<?xml version="1.0" encoding="UTF-8" standalone="no"?>
<!DOCTYPE svg PUBLIC "-//W3C//DTD SVG 1.1//EN"
 "http://www.w3.org/Graphics/SVG/1.1/DTD/svg11.dtd">
<!-- Generated by graphviz version 2.43.0 (0)
 -->
<!-- Title: UniformDataItem Pages: 1 -->
<svg width="112pt" height="227pt"
 viewBox="0.00 0.00 111.50 227.00" xmlns="http://www.w3.org/2000/svg" xmlns:xlink="http://www.w3.org/1999/xlink">

<svg id="main" version="1.1" xmlns="http://www.w3.org/2000/svg" xmlns:xlink="http://www.w3.org/1999/xlink" xml:space="preserve" onload="init(evt)">
<style type="text/css"><![CDATA[
.node, .edge {opacity: 0.7;}
.node.selected, .edge.selected {opacity: 1;}
.edge:hover path { stroke: red; }
.edge:hover polygon { stroke: red; fill: red; }
]]></style>
<script type="application/ecmascript" xlink:href="svg.min.js"/>
<svg id="graph" class="graph">
<g id="graph0" class="graph" transform="scale(1 1) rotate(0) translate(4 223)">
<title>UniformDataItem</title>
<!-- Node1 -->
<g id="Node000001" class="node">
<title>Node1</title>
<g id="a_Node000001"><a xlink:title=" ">
<polygon fill="#999999" stroke="transparent" points="96,-49 0,-49 0,0 96,0 96,-49"/>
<text text-anchor="start" x="5" y="-36.5" font-family="Helvetica,sans-Serif" font-size="10.00">UniformDataItem</text>
<text text-anchor="start" x="46" y="-21.5" font-family="Helvetica,sans-Serif" font-size="10.00"> </text>
<text text-anchor="start" x="9" y="-6.5" font-family="Helvetica,sans-Serif" font-size="10.00">+</text>
<text text-anchor="start" x="27" y="-6.5" font-family="Helvetica,sans-Serif" font-size="10.00">GetShape()</text>
<polygon fill="#666666" stroke="#666666" points="0,-31.5 0,-31.5 96,-31.5 96,-31.5 0,-31.5"/>
<polygon fill="#666666" stroke="#666666" points="0,-16.5 0,-16.5 96,-16.5 96,-16.5 0,-16.5"/>
<polygon fill="none" stroke="#666666" points="0,0 0,-49 96,-49 96,0 0,0"/>
</a>
</g>
</g>
<!-- Node2 -->
<g id="Node000002" class="node">
<title>Node2</title>
<g id="a_Node000002"><a xlink:href="classpython__scripts_1_1xdmf_1_1DataItem_1_1DataItem.html" target="_top" xlink:title=" ">
<polygon fill="white" stroke="transparent" points="86,-134 10,-134 10,-85 86,-85 86,-134"/>
<text text-anchor="start" x="25" y="-121.5" font-family="Helvetica,sans-Serif" font-size="10.00">DataItem</text>
<text text-anchor="start" x="46" y="-106.5" font-family="Helvetica,sans-Serif" font-size="10.00"> </text>
<text text-anchor="start" x="14" y="-91.5" font-family="Helvetica,sans-Serif" font-size="10.00">+</text>
<text text-anchor="start" x="27" y="-91.5" font-family="Helvetica,sans-Serif" font-size="10.00">GetShape()</text>
<polygon fill="#666666" stroke="#666666" points="10,-116.5 10,-116.5 86,-116.5 86,-116.5 10,-116.5"/>
<polygon fill="#666666" stroke="#666666" points="10,-101.5 10,-101.5 86,-101.5 86,-101.5 10,-101.5"/>
<polygon fill="none" stroke="#666666" points="10,-85 10,-134 86,-134 86,-85 10,-85"/>
</a>
</g>
</g>
<!-- Node2&#45;&gt;Node1 -->
<g id="edge1_Node000001_Node000002" class="edge">
<title>Node2&#45;&gt;Node1</title>
<g id="a_edge1_Node000001_Node000002"><a xlink:title=" ">
<path fill="none" stroke="#63b8ff" d="M48,-74.77C48,-66.17 48,-57.1 48,-49.12"/>
<polygon fill="none" stroke="#63b8ff" points="44.5,-74.94 48,-84.94 51.5,-74.94 44.5,-74.94"/>
</a>
</g>
</g>
<!-- Node3 -->
<g id="Node000003" class="node">
<title>Node3</title>
<g id="a_Node000003"><a xlink:title=" ">
<polygon fill="white" stroke="transparent" points="34.5,-219 3.5,-219 3.5,-170 34.5,-170 34.5,-219"/>
<text text-anchor="start" x="9" y="-206.5" font-family="Helvetica,sans-Serif" font-size="10.00">ABC</text>
<text text-anchor="start" x="17.5" y="-191.5" font-family="Helvetica,sans-Serif" font-size="10.00"> </text>
<text text-anchor="start" x="17.5" y="-176.5" font-family="Helvetica,sans-Serif" font-size="10.00"> </text>
<polygon fill="#666666" stroke="#666666" points="4,-201.5 4,-201.5 35,-201.5 35,-201.5 4,-201.5"/>
<polygon fill="#666666" stroke="#666666" points="4,-186.5 4,-186.5 35,-186.5 35,-186.5 4,-186.5"/>
<polygon fill="none" stroke="#666666" points="3.5,-170 3.5,-219 34.5,-219 34.5,-170 3.5,-170"/>
</a>
</g>
</g>
<!-- Node3&#45;&gt;Node2 -->
<g id="edge2_Node000002_Node000003" class="edge">
<title>Node3&#45;&gt;Node2</title>
<g id="a_edge2_Node000002_Node000003"><a xlink:title=" ">
<path fill="none" stroke="#63b8ff" d="M30.59,-160.34C33.65,-151.57 36.9,-142.28 39.75,-134.12"/>
<polygon fill="none" stroke="#63b8ff" points="27.23,-159.34 27.23,-169.94 33.84,-161.65 27.23,-159.34"/>
</a>
</g>
</g>
<!-- Node4 -->
<g id="Node000004" class="node">
<title>Node4</title>
<g id="a_Node000004"><a xlink:title=" ">
<polygon fill="white" stroke="transparent" points="103.5,-219 52.5,-219 52.5,-170 103.5,-170 103.5,-219"/>
<text text-anchor="start" x="58" y="-206.5" font-family="Helvetica,sans-Serif" font-size="10.00">Element</text>
<text text-anchor="start" x="76.5" y="-191.5" font-family="Helvetica,sans-Serif" font-size="10.00"> </text>
<text text-anchor="start" x="76.5" y="-176.5" font-family="Helvetica,sans-Serif" font-size="10.00"> </text>
<polygon fill="#666666" stroke="#666666" points="53,-201.5 53,-201.5 104,-201.5 104,-201.5 53,-201.5"/>
<polygon fill="#666666" stroke="#666666" points="53,-186.5 53,-186.5 104,-186.5 104,-186.5 53,-186.5"/>
<polygon fill="none" stroke="#666666" points="52.5,-170 52.5,-219 103.5,-219 103.5,-170 52.5,-170"/>
</a>
</g>
</g>
<!-- Node4&#45;&gt;Node2 -->
<g id="edge3_Node000002_Node000004" class="edge">
<title>Node4&#45;&gt;Node2</title>
<g id="a_edge3_Node000002_Node000004"><a xlink:title=" ">
<path fill="none" stroke="#63b8ff" d="M66.01,-160.34C62.84,-151.57 59.48,-142.28 56.54,-134.12"/>
<polygon fill="none" stroke="#63b8ff" points="62.79,-161.72 69.48,-169.94 69.38,-159.34 62.79,-161.72"/>
</a>
</g>
</g>
</g>
</svg>
</svg>

<style type='text/css'>
<![CDATA[
[data-mouse-over-selected='false'] { opacity: 0.7; }
[data-mouse-over-selected='true']  { opacity: 1.0; }
]]>
</style>
<script type="application/ecmascript"><![CDATA[
document.addEventListener('DOMContentLoaded', (event) => {
  highlightEdges();
  highlightAdjacentNodes();
});
]]></script>
</svg>
