<?xml version="1.0" encoding="UTF-8" standalone="no"?>
<!DOCTYPE svg PUBLIC "-//W3C//DTD SVG 1.1//EN"
 "http://www.w3.org/Graphics/SVG/1.1/DTD/svg11.dtd">
<!-- Generated by graphviz version 2.43.0 (0)
 -->
<!-- Title: TimeList Pages: 1 -->
<svg width="67pt" height="254pt"
 viewBox="0.00 0.00 67.00 254.00" xmlns="http://www.w3.org/2000/svg" xmlns:xlink="http://www.w3.org/1999/xlink">
<g id="graph0" class="graph" transform="scale(1 1) rotate(0) translate(4 250)">
<title>TimeList</title>
<polygon fill="white" stroke="transparent" points="-4,4 -4,-250 63,-250 63,4 -4,4"/>
<!-- Node1 -->
<g id="node1" class="node">
<title>Node1</title>
<g id="a_node1"><a xlink:title=" ">
<polygon fill="#bfbfbf" stroke="black" points="0,-0.5 0,-57.5 59,-57.5 59,-0.5 0,-0.5"/>
<text text-anchor="middle" x="29.5" y="-45.5" font-family="Helvetica,sans-Serif" font-size="10.00">TimeList</text>
<polyline fill="none" stroke="black" points="0,-38.5 59,-38.5 "/>
<text text-anchor="middle" x="29.5" y="-26.5" font-family="Helvetica,sans-Serif" font-size="10.00"> </text>
<polyline fill="none" stroke="black" points="0,-19.5 59,-19.5 "/>
<text text-anchor="middle" x="29.5" y="-7.5" font-family="Helvetica,sans-Serif" font-size="10.00"> </text>
</a>
</g>
</g>
<!-- Node2 -->
<g id="node2" class="node">
<title>Node2</title>
<g id="a_node2"><a xlink:href="classpython__scripts_1_1xdmf_1_1Time_1_1Time.html" target="_top" xlink:title=" ">
<polygon fill="white" stroke="black" points="9,-94.5 9,-151.5 50,-151.5 50,-94.5 9,-94.5"/>
<text text-anchor="middle" x="29.5" y="-139.5" font-family="Helvetica,sans-Serif" font-size="10.00">Time</text>
<polyline fill="none" stroke="black" points="9,-132.5 50,-132.5 "/>
<text text-anchor="middle" x="29.5" y="-120.5" font-family="Helvetica,sans-Serif" font-size="10.00"> </text>
<polyline fill="none" stroke="black" points="9,-113.5 50,-113.5 "/>
<text text-anchor="middle" x="29.5" y="-101.5" font-family="Helvetica,sans-Serif" font-size="10.00"> </text>
</a>
</g>
</g>
<!-- Node2&#45;&gt;Node1 -->
<g id="edge1" class="edge">
<title>Node2&#45;&gt;Node1</title>
<path fill="none" stroke="midnightblue" d="M29.5,-84.21C29.5,-75.29 29.5,-65.95 29.5,-57.58"/>
<polygon fill="none" stroke="midnightblue" points="26,-84.4 29.5,-94.4 33,-84.4 26,-84.4"/>
</g>
<!-- Node3 -->
<g id="node3" class="node">
<title>Node3</title>
<g id="a_node3"><a xlink:title=" ">
<polygon fill="white" stroke="#bfbfbf" points="1,-188.5 1,-245.5 58,-245.5 58,-188.5 1,-188.5"/>
<text text-anchor="middle" x="29.5" y="-233.5" font-family="Helvetica,sans-Serif" font-size="10.00">Element</text>
<polyline fill="none" stroke="#bfbfbf" points="1,-226.5 58,-226.5 "/>
<text text-anchor="middle" x="29.5" y="-214.5" font-family="Helvetica,sans-Serif" font-size="10.00"> </text>
<polyline fill="none" stroke="#bfbfbf" points="1,-207.5 58,-207.5 "/>
<text text-anchor="middle" x="29.5" y="-195.5" font-family="Helvetica,sans-Serif" font-size="10.00"> </text>
</a>
</g>
</g>
<!-- Node3&#45;&gt;Node2 -->
<g id="edge2" class="edge">
<title>Node3&#45;&gt;Node2</title>
<path fill="none" stroke="midnightblue" d="M29.5,-178.21C29.5,-169.29 29.5,-159.95 29.5,-151.58"/>
<polygon fill="none" stroke="midnightblue" points="26,-178.4 29.5,-188.4 33,-178.4 26,-178.4"/>
</g>
</g>
</svg>
