<?xml version="1.0" encoding="UTF-8" standalone="no"?>
<!DOCTYPE svg PUBLIC "-//W3C//DTD SVG 1.1//EN"
 "http://www.w3.org/Graphics/SVG/1.1/DTD/svg11.dtd">
<!-- Generated by graphviz version 2.43.0 (0)
 -->
<!-- Title: CheckpointProcess Pages: 1 -->
<svg width="339pt" height="193pt"
 viewBox="0.00 0.00 338.50 193.00" xmlns="http://www.w3.org/2000/svg" xmlns:xlink="http://www.w3.org/1999/xlink">
<g id="graph0" class="graph" transform="scale(1 1) rotate(0) translate(4 189)">
<title>CheckpointProcess</title>
<polygon fill="white" stroke="transparent" points="-4,4 -4,-189 334.5,-189 334.5,4 -4,4"/>
<!-- Node1 -->
<g id="node1" class="node">
<title>Node1</title>
<g id="a_node1"><a xlink:title="Main interface process for checkpointing.">
<polygon fill="#bfbfbf" stroke="black" points="69.5,-0.5 69.5,-90.5 242.5,-90.5 242.5,-0.5 69.5,-0.5"/>
<text text-anchor="middle" x="156" y="-78.5" font-family="Helvetica,sans-Serif" font-size="10.00">CheckpointProcess</text>
<polyline fill="none" stroke="black" points="69.5,-71.5 242.5,-71.5 "/>
<text text-anchor="middle" x="156" y="-59.5" font-family="Helvetica,sans-Serif" font-size="10.00"> </text>
<polyline fill="none" stroke="black" points="69.5,-52.5 242.5,-52.5 "/>
<text text-anchor="start" x="77.5" y="-40.5" font-family="Helvetica,sans-Serif" font-size="10.00">+ ExecuteInitializeSolution</text>
<text text-anchor="start" x="77.5" y="-29.5" font-family="Helvetica,sans-Serif" font-size="10.00">Step()</text>
<text text-anchor="start" x="77.5" y="-18.5" font-family="Helvetica,sans-Serif" font-size="10.00">+ ExecuteFinalizeSolutionStep()</text>
<text text-anchor="start" x="77.5" y="-7.5" font-family="Helvetica,sans-Serif" font-size="10.00">+ GetDefaultParameters()</text>
</a>
</g>
</g>
<!-- Node2 -->
<g id="node2" class="node">
<title>Node2</title>
<g id="a_node2"><a xlink:title=" ">
<polygon fill="white" stroke="#bfbfbf" points="0,-127.5 0,-184.5 54,-184.5 54,-127.5 0,-127.5"/>
<text text-anchor="middle" x="27" y="-172.5" font-family="Helvetica,sans-Serif" font-size="10.00">Process</text>
<polyline fill="none" stroke="#bfbfbf" points="0,-165.5 54,-165.5 "/>
<text text-anchor="middle" x="27" y="-153.5" font-family="Helvetica,sans-Serif" font-size="10.00"> </text>
<polyline fill="none" stroke="#bfbfbf" points="0,-146.5 54,-146.5 "/>
<text text-anchor="middle" x="27" y="-134.5" font-family="Helvetica,sans-Serif" font-size="10.00"> </text>
</a>
</g>
</g>
<!-- Node2&#45;&gt;Node1 -->
<g id="edge1" class="edge">
<title>Node2&#45;&gt;Node1</title>
<path fill="none" stroke="midnightblue" d="M61.74,-125.78C74.57,-114.99 89.4,-102.52 103.45,-90.7"/>
<polygon fill="none" stroke="midnightblue" points="59.44,-123.14 54.04,-132.25 63.95,-128.5 59.44,-123.14"/>
</g>
<!-- Node3 -->
<g id="node3" class="node">
<title>Node3</title>
<g id="a_node3"><a xlink:title=" ">
<polygon fill="white" stroke="#bfbfbf" points="72,-127.5 72,-184.5 150,-184.5 150,-127.5 72,-127.5"/>
<text text-anchor="middle" x="111" y="-172.5" font-family="Helvetica,sans-Serif" font-size="10.00">WRAppClass</text>
<polyline fill="none" stroke="#bfbfbf" points="72,-165.5 150,-165.5 "/>
<text text-anchor="middle" x="111" y="-153.5" font-family="Helvetica,sans-Serif" font-size="10.00"> </text>
<polyline fill="none" stroke="#bfbfbf" points="72,-146.5 150,-146.5 "/>
<text text-anchor="middle" x="111" y="-134.5" font-family="Helvetica,sans-Serif" font-size="10.00"> </text>
</a>
</g>
</g>
<!-- Node3&#45;&gt;Node1 -->
<g id="edge2" class="edge">
<title>Node3&#45;&gt;Node1</title>
<path fill="none" stroke="midnightblue" d="M126.32,-118.06C129.99,-109.22 133.94,-99.69 137.73,-90.55"/>
<polygon fill="none" stroke="midnightblue" points="123.07,-116.76 122.47,-127.34 129.54,-119.44 123.07,-116.76"/>
</g>
<!-- Node4 -->
<g id="node4" class="node">
<title>Node4</title>
<g id="a_node4"><a xlink:title=" ">
<polygon fill="white" stroke="#bfbfbf" points="168.5,-127.5 168.5,-184.5 235.5,-184.5 235.5,-127.5 168.5,-127.5"/>
<text text-anchor="middle" x="202" y="-172.5" font-family="Helvetica,sans-Serif" font-size="10.00">metaclass</text>
<polyline fill="none" stroke="#bfbfbf" points="168.5,-165.5 235.5,-165.5 "/>
<text text-anchor="middle" x="202" y="-153.5" font-family="Helvetica,sans-Serif" font-size="10.00"> </text>
<polyline fill="none" stroke="#bfbfbf" points="168.5,-146.5 235.5,-146.5 "/>
<text text-anchor="middle" x="202" y="-134.5" font-family="Helvetica,sans-Serif" font-size="10.00"> </text>
</a>
</g>
</g>
<!-- Node4&#45;&gt;Node1 -->
<g id="edge3" class="edge">
<title>Node4&#45;&gt;Node1</title>
<path fill="none" stroke="midnightblue" d="M186.34,-118.06C182.59,-109.22 178.55,-99.69 174.68,-90.55"/>
<polygon fill="none" stroke="midnightblue" points="183.15,-119.5 190.27,-127.34 189.59,-116.77 183.15,-119.5"/>
</g>
<!-- Node5 -->
<g id="node5" class="node">
<title>Node5</title>
<g id="a_node5"><a xlink:title=" ">
<polygon fill="white" stroke="#bfbfbf" points="253.5,-127.5 253.5,-184.5 330.5,-184.5 330.5,-127.5 253.5,-127.5"/>
<text text-anchor="middle" x="292" y="-172.5" font-family="Helvetica,sans-Serif" font-size="10.00">WRAppMeta</text>
<polyline fill="none" stroke="#bfbfbf" points="253.5,-165.5 330.5,-165.5 "/>
<text text-anchor="middle" x="292" y="-153.5" font-family="Helvetica,sans-Serif" font-size="10.00"> </text>
<polyline fill="none" stroke="#bfbfbf" points="253.5,-146.5 330.5,-146.5 "/>
<text text-anchor="middle" x="292" y="-134.5" font-family="Helvetica,sans-Serif" font-size="10.00"> </text>
</a>
</g>
</g>
<!-- Node5&#45;&gt;Node1 -->
<g id="edge4" class="edge">
<title>Node5&#45;&gt;Node1</title>
<path fill="none" stroke="midnightblue" d="M249.21,-120.86C237.16,-111.25 223.88,-100.66 211.22,-90.55"/>
<polygon fill="none" stroke="midnightblue" points="247.33,-123.84 257.33,-127.34 251.7,-118.37 247.33,-123.84"/>
</g>
</g>
</svg>
