<?xml version="1.0" encoding="UTF-8" standalone="no"?>
<!DOCTYPE svg PUBLIC "-//W3C//DTD SVG 1.1//EN"
 "http://www.w3.org/Graphics/SVG/1.1/DTD/svg11.dtd">
<!-- Generated by graphviz version 2.43.0 (0)
 -->
<!-- Title: ModelPredicatePipe&lt; TPipe &gt; Pages: 1 -->
<svg width="462pt" height="336pt"
 viewBox="0.00 0.00 462.00 336.00" xmlns="http://www.w3.org/2000/svg" xmlns:xlink="http://www.w3.org/1999/xlink">
<g id="graph0" class="graph" transform="scale(1 1) rotate(0) translate(4 332)">
<title>ModelPredicatePipe&lt; TPipe &gt;</title>
<polygon fill="white" stroke="transparent" points="-4,4 -4,-332 458,-332 458,4 -4,4"/>
<!-- Node1 -->
<g id="node1" class="node">
<title>Node1</title>
<g id="a_node1"><a xlink:title=" ">
<polygon fill="#bfbfbf" stroke="black" points="151,-0.5 151,-145.5 303,-145.5 303,-0.5 151,-0.5"/>
<text text-anchor="start" x="159" y="-133.5" font-family="Helvetica,sans-Serif" font-size="10.00">ModelPredicatePipe</text>
<text text-anchor="middle" x="227" y="-122.5" font-family="Helvetica,sans-Serif" font-size="10.00">&lt; TPipe &gt;</text>
<polyline fill="none" stroke="black" points="151,-115.5 303,-115.5 "/>
<text text-anchor="middle" x="227" y="-103.5" font-family="Helvetica,sans-Serif" font-size="10.00"> </text>
<polyline fill="none" stroke="black" points="151,-96.5 303,-96.5 "/>
<text text-anchor="start" x="159" y="-84.5" font-family="Helvetica,sans-Serif" font-size="10.00">+ KRATOS_CLASS_POINTER</text>
<text text-anchor="start" x="159" y="-73.5" font-family="Helvetica,sans-Serif" font-size="10.00">_DEFINITION()</text>
<text text-anchor="start" x="159" y="-62.5" font-family="Helvetica,sans-Serif" font-size="10.00">+ ModelPredicatePipe()</text>
<text text-anchor="start" x="159" y="-51.5" font-family="Helvetica,sans-Serif" font-size="10.00">+ ModelPredicatePipe()</text>
<text text-anchor="start" x="159" y="-40.5" font-family="Helvetica,sans-Serif" font-size="10.00">+ ModelPredicatePipe()</text>
<text text-anchor="start" x="159" y="-29.5" font-family="Helvetica,sans-Serif" font-size="10.00">+ ModelPredicatePipe()</text>
<text text-anchor="start" x="159" y="-18.5" font-family="Helvetica,sans-Serif" font-size="10.00">+ operator()()</text>
<text text-anchor="start" x="159" y="-7.5" font-family="Helvetica,sans-Serif" font-size="10.00">+ GetDefaultParameters()</text>
</a>
</g>
</g>
<!-- Node2 -->
<g id="node2" class="node">
<title>Node2</title>
<g id="a_node2"><a xlink:href="structKratos_1_1WRApp_1_1ModelPredicate.html" target="_top" xlink:title="Base class for functors that take a Model and return a bool.">
<polygon fill="white" stroke="black" points="0,-210 0,-300 152,-300 152,-210 0,-210"/>
<text text-anchor="middle" x="76" y="-288" font-family="Helvetica,sans-Serif" font-size="10.00">ModelPredicate</text>
<polyline fill="none" stroke="black" points="0,-281 152,-281 "/>
<text text-anchor="middle" x="76" y="-269" font-family="Helvetica,sans-Serif" font-size="10.00"> </text>
<polyline fill="none" stroke="black" points="0,-262 152,-262 "/>
<text text-anchor="start" x="8" y="-250" font-family="Helvetica,sans-Serif" font-size="10.00">+ KRATOS_CLASS_POINTER</text>
<text text-anchor="start" x="8" y="-239" font-family="Helvetica,sans-Serif" font-size="10.00">_DEFINITION()</text>
<text text-anchor="start" x="8" y="-228" font-family="Helvetica,sans-Serif" font-size="10.00">+ ~ModelPredicate()</text>
<text text-anchor="start" x="8" y="-217" font-family="Helvetica,sans-Serif" font-size="10.00">+ operator()()</text>
</a>
</g>
</g>
<!-- Node2&#45;&gt;Node1 -->
<g id="edge1" class="edge">
<title>Node2&#45;&gt;Node1</title>
<path fill="none" stroke="midnightblue" d="M119.57,-202.06C134.33,-184.46 151.09,-164.48 166.91,-145.63"/>
<polygon fill="none" stroke="midnightblue" points="116.68,-200.06 112.94,-209.97 122.05,-204.56 116.68,-200.06"/>
</g>
<!-- Node3 -->
<g id="node3" class="node">
<title>Node3</title>
<g id="a_node3"><a xlink:href="structKratos_1_1Pipes_1_1Traits.html" target="_top" xlink:title=" ">
<polygon fill="white" stroke="black" points="170.5,-221 170.5,-289 283.5,-289 283.5,-221 170.5,-221"/>
<text text-anchor="start" x="178.5" y="-277" font-family="Helvetica,sans-Serif" font-size="10.00">Traits&lt; const Model</text>
<text text-anchor="middle" x="227" y="-266" font-family="Helvetica,sans-Serif" font-size="10.00"> &amp;, bool &gt;</text>
<polyline fill="none" stroke="black" points="170.5,-259 283.5,-259 "/>
<text text-anchor="middle" x="227" y="-247" font-family="Helvetica,sans-Serif" font-size="10.00"> </text>
<polyline fill="none" stroke="black" points="170.5,-240 283.5,-240 "/>
<text text-anchor="middle" x="227" y="-228" font-family="Helvetica,sans-Serif" font-size="10.00"> </text>
</a>
</g>
</g>
<!-- Node3&#45;&gt;Node1 -->
<g id="edge2" class="edge">
<title>Node3&#45;&gt;Node1</title>
<path fill="none" stroke="midnightblue" d="M227,-210.88C227,-191.33 227,-167.69 227,-145.59"/>
<polygon fill="none" stroke="midnightblue" points="223.5,-210.99 227,-220.99 230.5,-210.99 223.5,-210.99"/>
</g>
<!-- Node4 -->
<g id="node4" class="node">
<title>Node4</title>
<g id="a_node4"><a xlink:href="structKratos_1_1WRApp_1_1WRAppClass.html" target="_top" xlink:title="Dummy base class for registering and exporting exposed classes in WRApplication.">
<polygon fill="white" stroke="black" points="302,-182.5 302,-327.5 454,-327.5 454,-182.5 302,-182.5"/>
<text text-anchor="middle" x="378" y="-315.5" font-family="Helvetica,sans-Serif" font-size="10.00">WRAppClass</text>
<polyline fill="none" stroke="black" points="302,-308.5 454,-308.5 "/>
<text text-anchor="middle" x="378" y="-296.5" font-family="Helvetica,sans-Serif" font-size="10.00"> </text>
<polyline fill="none" stroke="black" points="302,-289.5 454,-289.5 "/>
<text text-anchor="start" x="310" y="-277.5" font-family="Helvetica,sans-Serif" font-size="10.00">+ KRATOS_CLASS_POINTER</text>
<text text-anchor="start" x="310" y="-266.5" font-family="Helvetica,sans-Serif" font-size="10.00">_DEFINITION()</text>
<text text-anchor="start" x="310" y="-255.5" font-family="Helvetica,sans-Serif" font-size="10.00">+ WRAppClass()</text>
<text text-anchor="start" x="310" y="-244.5" font-family="Helvetica,sans-Serif" font-size="10.00">+ WRAppClass()</text>
<text text-anchor="start" x="310" y="-233.5" font-family="Helvetica,sans-Serif" font-size="10.00">+ WRAppClass()</text>
<text text-anchor="start" x="310" y="-222.5" font-family="Helvetica,sans-Serif" font-size="10.00">+ ~WRAppClass()</text>
<text text-anchor="start" x="310" y="-211.5" font-family="Helvetica,sans-Serif" font-size="10.00">+ operator=()</text>
<text text-anchor="start" x="310" y="-200.5" font-family="Helvetica,sans-Serif" font-size="10.00">+ operator=()</text>
<text text-anchor="start" x="310" y="-189.5" font-family="Helvetica,sans-Serif" font-size="10.00">+ GetDefaultParameters()</text>
</a>
</g>
</g>
<!-- Node4&#45;&gt;Node1 -->
<g id="edge3" class="edge">
<title>Node4&#45;&gt;Node1</title>
<path fill="none" stroke="midnightblue" d="M311.44,-174.66C303.36,-165.02 295.14,-155.22 287.15,-145.71"/>
<polygon fill="none" stroke="midnightblue" points="308.78,-176.93 317.89,-182.34 314.14,-172.43 308.78,-176.93"/>
</g>
</g>
</svg>
