<?xml version="1.0" encoding="UTF-8" standalone="no"?>
<!DOCTYPE svg PUBLIC "-//W3C//DTD SVG 1.1//EN"
 "http://www.w3.org/Graphics/SVG/1.1/DTD/svg11.dtd">
<!-- Generated by graphviz version 2.43.0 (0)
 -->
<!-- Title: DatasetTransform Pages: 1 -->
<svg width="225pt" height="182pt"
 viewBox="0.00 0.00 224.50 182.00" xmlns="http://www.w3.org/2000/svg" xmlns:xlink="http://www.w3.org/1999/xlink">
<g id="graph0" class="graph" transform="scale(1 1) rotate(0) translate(4 178)">
<title>DatasetTransform</title>
<polygon fill="white" stroke="transparent" points="-4,4 -4,-178 220.5,-178 220.5,4 -4,4"/>
<!-- Node1 -->
<g id="node1" class="node">
<title>Node1</title>
<g id="a_node1"><a xlink:title="Fetch, transform and assign data between ModelPart s.">
<polygon fill="#bfbfbf" stroke="black" points="57,-0.5 57,-79.5 201,-79.5 201,-0.5 57,-0.5"/>
<text text-anchor="middle" x="129" y="-67.5" font-family="Helvetica,sans-Serif" font-size="10.00">DatasetTransform</text>
<polyline fill="none" stroke="black" points="57,-60.5 201,-60.5 "/>
<text text-anchor="middle" x="129" y="-48.5" font-family="Helvetica,sans-Serif" font-size="10.00"> </text>
<polyline fill="none" stroke="black" points="57,-41.5 201,-41.5 "/>
<text text-anchor="start" x="65" y="-29.5" font-family="Helvetica,sans-Serif" font-size="10.00">+ Execute()</text>
<text text-anchor="start" x="65" y="-18.5" font-family="Helvetica,sans-Serif" font-size="10.00">+ Factory()</text>
<text text-anchor="start" x="65" y="-7.5" font-family="Helvetica,sans-Serif" font-size="10.00">+ GetDefaultParameters()</text>
</a>
</g>
</g>
<!-- Node2 -->
<g id="node2" class="node">
<title>Node2</title>
<g id="a_node2"><a xlink:title=" ">
<polygon fill="white" stroke="#bfbfbf" points="0,-116.5 0,-173.5 78,-173.5 78,-116.5 0,-116.5"/>
<text text-anchor="middle" x="39" y="-161.5" font-family="Helvetica,sans-Serif" font-size="10.00">WRAppClass</text>
<polyline fill="none" stroke="#bfbfbf" points="0,-154.5 78,-154.5 "/>
<text text-anchor="middle" x="39" y="-142.5" font-family="Helvetica,sans-Serif" font-size="10.00"> </text>
<polyline fill="none" stroke="#bfbfbf" points="0,-135.5 78,-135.5 "/>
<text text-anchor="middle" x="39" y="-123.5" font-family="Helvetica,sans-Serif" font-size="10.00"> </text>
</a>
</g>
</g>
<!-- Node2&#45;&gt;Node1 -->
<g id="edge1" class="edge">
<title>Node2&#45;&gt;Node1</title>
<path fill="none" stroke="midnightblue" d="M69.83,-108.72C78.05,-99.31 86.98,-89.09 95.34,-79.52"/>
<polygon fill="none" stroke="midnightblue" points="67.06,-106.56 63.12,-116.4 72.33,-111.17 67.06,-106.56"/>
</g>
<!-- Node3 -->
<g id="node3" class="node">
<title>Node3</title>
<g id="a_node3"><a xlink:title=" ">
<polygon fill="white" stroke="#bfbfbf" points="96.5,-116.5 96.5,-173.5 161.5,-173.5 161.5,-116.5 96.5,-116.5"/>
<text text-anchor="middle" x="129" y="-161.5" font-family="Helvetica,sans-Serif" font-size="10.00">Operation</text>
<polyline fill="none" stroke="#bfbfbf" points="96.5,-154.5 161.5,-154.5 "/>
<text text-anchor="middle" x="129" y="-142.5" font-family="Helvetica,sans-Serif" font-size="10.00"> </text>
<polyline fill="none" stroke="#bfbfbf" points="96.5,-135.5 161.5,-135.5 "/>
<text text-anchor="middle" x="129" y="-123.5" font-family="Helvetica,sans-Serif" font-size="10.00"> </text>
</a>
</g>
</g>
<!-- Node3&#45;&gt;Node1 -->
<g id="edge2" class="edge">
<title>Node3&#45;&gt;Node1</title>
<path fill="none" stroke="midnightblue" d="M129,-106.16C129,-97.47 129,-88.23 129,-79.52"/>
<polygon fill="none" stroke="midnightblue" points="125.5,-106.4 129,-116.4 132.5,-106.4 125.5,-106.4"/>
</g>
<!-- Node4 -->
<g id="node4" class="node">
<title>Node4</title>
<g id="a_node4"><a xlink:title=" ">
<polygon fill="white" stroke="#bfbfbf" points="179.5,-116.5 179.5,-173.5 216.5,-173.5 216.5,-116.5 179.5,-116.5"/>
<text text-anchor="middle" x="198" y="-161.5" font-family="Helvetica,sans-Serif" font-size="10.00">ABC</text>
<polyline fill="none" stroke="#bfbfbf" points="179.5,-154.5 216.5,-154.5 "/>
<text text-anchor="middle" x="198" y="-142.5" font-family="Helvetica,sans-Serif" font-size="10.00"> </text>
<polyline fill="none" stroke="#bfbfbf" points="179.5,-135.5 216.5,-135.5 "/>
<text text-anchor="middle" x="198" y="-123.5" font-family="Helvetica,sans-Serif" font-size="10.00"> </text>
</a>
</g>
</g>
<!-- Node4&#45;&gt;Node1 -->
<g id="edge3" class="edge">
<title>Node4&#45;&gt;Node1</title>
<path fill="none" stroke="midnightblue" d="M173.79,-107.87C167.65,-98.69 161.03,-88.81 154.8,-79.52"/>
<polygon fill="none" stroke="midnightblue" points="171.04,-110.04 179.51,-116.4 176.85,-106.14 171.04,-110.04"/>
</g>
</g>
</svg>
