<?xml version="1.0" encoding="UTF-8" standalone="no"?>
<!DOCTYPE svg PUBLIC "-//W3C//DTD SVG 1.1//EN"
 "http://www.w3.org/Graphics/SVG/1.1/DTD/svg11.dtd">
<!-- Generated by graphviz version 2.43.0 (0)
 -->
<!-- Title: DatasetMap Pages: 1 -->
<svg width="207pt" height="227pt"
 viewBox="0.00 0.00 206.50 227.00" xmlns="http://www.w3.org/2000/svg" xmlns:xlink="http://www.w3.org/1999/xlink">

<svg id="main" version="1.1" xmlns="http://www.w3.org/2000/svg" xmlns:xlink="http://www.w3.org/1999/xlink" xml:space="preserve" onload="init(evt)">
<style type="text/css"><![CDATA[
.node, .edge {opacity: 0.7;}
.node.selected, .edge.selected {opacity: 1;}
.edge:hover path { stroke: red; }
.edge:hover polygon { stroke: red; fill: red; }
]]></style>
<script type="application/ecmascript" xlink:href="svg.min.js"/>
<svg id="graph" class="graph">
<g id="graph0" class="graph" transform="scale(1 1) rotate(0) translate(4 223)">
<title>DatasetMap</title>
<!-- Node1 -->
<g id="Node000001" class="node">
<title>Node1</title>
<g id="a_Node000001"><a xlink:title="DatasetTransform that uses a Mapper to map datasets before assigning them to the target ModelPart.">
<polygon fill="#999999" stroke="transparent" points="155,-49 85,-49 85,0 155,0 155,-49"/>
<text text-anchor="start" x="90" y="-36.5" font-family="Helvetica,sans-Serif" font-size="10.00">DatasetMap</text>
<text text-anchor="start" x="118" y="-21.5" font-family="Helvetica,sans-Serif" font-size="10.00"> </text>
<text text-anchor="start" x="118" y="-6.5" font-family="Helvetica,sans-Serif" font-size="10.00"> </text>
<polygon fill="#666666" stroke="#666666" points="85,-31.5 85,-31.5 155,-31.5 155,-31.5 85,-31.5"/>
<polygon fill="#666666" stroke="#666666" points="85,-16.5 85,-16.5 155,-16.5 155,-16.5 85,-16.5"/>
<polygon fill="none" stroke="#666666" points="85,0 85,-49 155,-49 155,0 85,0"/>
</a>
</g>
</g>
<!-- Node2 -->
<g id="Node000002" class="node">
<title>Node2</title>
<g id="a_Node000002"><a xlink:href="classDatasetTransform.html" target="_top" xlink:title="Fetch, transform and assign data between ModelPart s.">
<polygon fill="white" stroke="transparent" points="169,-134 71,-134 71,-85 169,-85 169,-134"/>
<text text-anchor="start" x="76" y="-121.5" font-family="Helvetica,sans-Serif" font-size="10.00">DatasetTransform</text>
<text text-anchor="start" x="118" y="-106.5" font-family="Helvetica,sans-Serif" font-size="10.00"> </text>
<text text-anchor="start" x="118" y="-91.5" font-family="Helvetica,sans-Serif" font-size="10.00"> </text>
<polygon fill="#666666" stroke="#666666" points="71,-116.5 71,-116.5 169,-116.5 169,-116.5 71,-116.5"/>
<polygon fill="#666666" stroke="#666666" points="71,-101.5 71,-101.5 169,-101.5 169,-101.5 71,-101.5"/>
<polygon fill="none" stroke="#666666" points="71,-85 71,-134 169,-134 169,-85 71,-85"/>
</a>
</g>
</g>
<!-- Node2&#45;&gt;Node1 -->
<g id="edge1_Node000001_Node000002" class="edge">
<title>Node2&#45;&gt;Node1</title>
<g id="a_edge1_Node000001_Node000002"><a xlink:title=" ">
<path fill="none" stroke="#63b8ff" d="M120,-74.77C120,-66.17 120,-57.1 120,-49.12"/>
<polygon fill="none" stroke="#63b8ff" points="116.5,-74.94 120,-84.94 123.5,-74.94 116.5,-74.94"/>
</a>
</g>
</g>
<!-- Node3 -->
<g id="Node000003" class="node">
<title>Node3</title>
<g id="a_Node000003"><a xlink:title=" ">
<polygon fill="white" stroke="transparent" points="72,-219 0,-219 0,-170 72,-170 72,-219"/>
<text text-anchor="start" x="5" y="-206.5" font-family="Helvetica,sans-Serif" font-size="10.00">WRAppClass</text>
<text text-anchor="start" x="34" y="-191.5" font-family="Helvetica,sans-Serif" font-size="10.00"> </text>
<text text-anchor="start" x="34" y="-176.5" font-family="Helvetica,sans-Serif" font-size="10.00"> </text>
<polygon fill="#666666" stroke="#666666" points="0,-201.5 0,-201.5 72,-201.5 72,-201.5 0,-201.5"/>
<polygon fill="#666666" stroke="#666666" points="0,-186.5 0,-186.5 72,-186.5 72,-186.5 0,-186.5"/>
<polygon fill="none" stroke="#666666" points="0,-170 0,-219 72,-219 72,-170 0,-170"/>
</a>
</g>
</g>
<!-- Node3&#45;&gt;Node2 -->
<g id="edge2_Node000002_Node000003" class="edge">
<title>Node3&#45;&gt;Node2</title>
<g id="a_edge2_Node000002_Node000003"><a xlink:title=" ">
<path fill="none" stroke="#63b8ff" d="M67,-162.87C76.61,-153.38 87.04,-143.06 96.09,-134.12"/>
<polygon fill="none" stroke="#63b8ff" points="64.5,-160.42 59.85,-169.94 69.42,-165.4 64.5,-160.42"/>
</a>
</g>
</g>
<!-- Node4 -->
<g id="Node000004" class="node">
<title>Node4</title>
<g id="a_Node000004"><a xlink:title=" ">
<polygon fill="white" stroke="transparent" points="149.5,-219 90.5,-219 90.5,-170 149.5,-170 149.5,-219"/>
<text text-anchor="start" x="96" y="-206.5" font-family="Helvetica,sans-Serif" font-size="10.00">Operation</text>
<text text-anchor="start" x="118.5" y="-191.5" font-family="Helvetica,sans-Serif" font-size="10.00"> </text>
<text text-anchor="start" x="118.5" y="-176.5" font-family="Helvetica,sans-Serif" font-size="10.00"> </text>
<polygon fill="#666666" stroke="#666666" points="91,-201.5 91,-201.5 150,-201.5 150,-201.5 91,-201.5"/>
<polygon fill="#666666" stroke="#666666" points="91,-186.5 91,-186.5 150,-186.5 150,-186.5 91,-186.5"/>
<polygon fill="none" stroke="#666666" points="90.5,-170 90.5,-219 149.5,-219 149.5,-170 90.5,-170"/>
</a>
</g>
</g>
<!-- Node4&#45;&gt;Node2 -->
<g id="edge3_Node000002_Node000004" class="edge">
<title>Node4&#45;&gt;Node2</title>
<g id="a_edge3_Node000002_Node000004"><a xlink:title=" ">
<path fill="none" stroke="#63b8ff" d="M120,-159.77C120,-151.17 120,-142.1 120,-134.12"/>
<polygon fill="none" stroke="#63b8ff" points="116.5,-159.94 120,-169.94 123.5,-159.94 116.5,-159.94"/>
</a>
</g>
</g>
<!-- Node5 -->
<g id="Node000005" class="node">
<title>Node5</title>
<g id="a_Node000005"><a xlink:title=" ">
<polygon fill="white" stroke="transparent" points="198.5,-219 167.5,-219 167.5,-170 198.5,-170 198.5,-219"/>
<text text-anchor="start" x="173" y="-206.5" font-family="Helvetica,sans-Serif" font-size="10.00">ABC</text>
<text text-anchor="start" x="181.5" y="-191.5" font-family="Helvetica,sans-Serif" font-size="10.00"> </text>
<text text-anchor="start" x="181.5" y="-176.5" font-family="Helvetica,sans-Serif" font-size="10.00"> </text>
<polygon fill="#666666" stroke="#666666" points="168,-201.5 168,-201.5 199,-201.5 199,-201.5 168,-201.5"/>
<polygon fill="#666666" stroke="#666666" points="168,-186.5 168,-186.5 199,-186.5 199,-186.5 168,-186.5"/>
<polygon fill="none" stroke="#666666" points="167.5,-170 167.5,-219 198.5,-219 198.5,-170 167.5,-170"/>
</a>
</g>
</g>
<!-- Node5&#45;&gt;Node2 -->
<g id="edge4_Node000002_Node000005" class="edge">
<title>Node5&#45;&gt;Node2</title>
<g id="a_edge4_Node000002_Node000005"><a xlink:title=" ">
<path fill="none" stroke="#63b8ff" d="M161.25,-164.85C153.61,-154.79 145.13,-143.6 137.84,-134.01"/>
<polygon fill="none" stroke="#63b8ff" points="158.59,-167.13 167.43,-172.98 164.17,-162.9 158.59,-167.13"/>
</a>
</g>
</g>
</g>
</svg>
</svg>

<style type='text/css'>
<![CDATA[
[data-mouse-over-selected='false'] { opacity: 0.7; }
[data-mouse-over-selected='true']  { opacity: 1.0; }
]]>
</style>
<script type="application/ecmascript"><![CDATA[
document.addEventListener('DOMContentLoaded', (event) => {
  highlightEdges();
  highlightAdjacentNodes();
});
]]></script>
</svg>
