<?xml version="1.0" encoding="UTF-8" standalone="no"?>
<!DOCTYPE svg PUBLIC "-//W3C//DTD SVG 1.1//EN"
 "http://www.w3.org/Graphics/SVG/1.1/DTD/svg11.dtd">
<!-- Generated by graphviz version 2.43.0 (0)
 -->
<!-- Title: DatasetTransform Pages: 1 -->
<svg width="207pt" height="142pt"
 viewBox="0.00 0.00 206.50 142.00" xmlns="http://www.w3.org/2000/svg" xmlns:xlink="http://www.w3.org/1999/xlink">

<svg id="main" version="1.1" xmlns="http://www.w3.org/2000/svg" xmlns:xlink="http://www.w3.org/1999/xlink" xml:space="preserve" onload="init(evt)">
<style type="text/css"><![CDATA[
.node, .edge {opacity: 0.7;}
.node.selected, .edge.selected {opacity: 1;}
.edge:hover path { stroke: red; }
.edge:hover polygon { stroke: red; fill: red; }
]]></style>
<script type="application/ecmascript" xlink:href="svg.min.js"/>
<svg id="graph" class="graph">
<g id="graph0" class="graph" transform="scale(1 1) rotate(0) translate(4 138)">
<title>DatasetTransform</title>
<!-- Node1 -->
<g id="Node000001" class="node">
<title>Node1</title>
<g id="a_Node000001"><a xlink:title="Fetch, transform and assign data between ModelPart s.">
<polygon fill="#999999" stroke="transparent" points="169,-49 71,-49 71,0 169,0 169,-49"/>
<text text-anchor="start" x="76" y="-36.5" font-family="Helvetica,sans-Serif" font-size="10.00">DatasetTransform</text>
<text text-anchor="start" x="118" y="-21.5" font-family="Helvetica,sans-Serif" font-size="10.00"> </text>
<text text-anchor="start" x="118" y="-6.5" font-family="Helvetica,sans-Serif" font-size="10.00"> </text>
<polygon fill="#666666" stroke="#666666" points="71,-31.5 71,-31.5 169,-31.5 169,-31.5 71,-31.5"/>
<polygon fill="#666666" stroke="#666666" points="71,-16.5 71,-16.5 169,-16.5 169,-16.5 71,-16.5"/>
<polygon fill="none" stroke="#666666" points="71,0 71,-49 169,-49 169,0 71,0"/>
</a>
</g>
</g>
<!-- Node2 -->
<g id="Node000002" class="node">
<title>Node2</title>
<g id="a_Node000002"><a xlink:title=" ">
<polygon fill="white" stroke="transparent" points="72,-134 0,-134 0,-85 72,-85 72,-134"/>
<text text-anchor="start" x="5" y="-121.5" font-family="Helvetica,sans-Serif" font-size="10.00">WRAppClass</text>
<text text-anchor="start" x="34" y="-106.5" font-family="Helvetica,sans-Serif" font-size="10.00"> </text>
<text text-anchor="start" x="34" y="-91.5" font-family="Helvetica,sans-Serif" font-size="10.00"> </text>
<polygon fill="#666666" stroke="#666666" points="0,-116.5 0,-116.5 72,-116.5 72,-116.5 0,-116.5"/>
<polygon fill="#666666" stroke="#666666" points="0,-101.5 0,-101.5 72,-101.5 72,-101.5 0,-101.5"/>
<polygon fill="none" stroke="#666666" points="0,-85 0,-134 72,-134 72,-85 0,-85"/>
</a>
</g>
</g>
<!-- Node2&#45;&gt;Node1 -->
<g id="edge1_Node000001_Node000002" class="edge">
<title>Node2&#45;&gt;Node1</title>
<g id="a_edge1_Node000001_Node000002"><a xlink:title=" ">
<path fill="none" stroke="#63b8ff" d="M67,-77.87C76.61,-68.38 87.04,-58.06 96.09,-49.12"/>
<polygon fill="none" stroke="#63b8ff" points="64.5,-75.42 59.85,-84.94 69.42,-80.4 64.5,-75.42"/>
</a>
</g>
</g>
<!-- Node3 -->
<g id="Node000003" class="node">
<title>Node3</title>
<g id="a_Node000003"><a xlink:title=" ">
<polygon fill="white" stroke="transparent" points="149.5,-134 90.5,-134 90.5,-85 149.5,-85 149.5,-134"/>
<text text-anchor="start" x="96" y="-121.5" font-family="Helvetica,sans-Serif" font-size="10.00">Operation</text>
<text text-anchor="start" x="118.5" y="-106.5" font-family="Helvetica,sans-Serif" font-size="10.00"> </text>
<text text-anchor="start" x="118.5" y="-91.5" font-family="Helvetica,sans-Serif" font-size="10.00"> </text>
<polygon fill="#666666" stroke="#666666" points="91,-116.5 91,-116.5 150,-116.5 150,-116.5 91,-116.5"/>
<polygon fill="#666666" stroke="#666666" points="91,-101.5 91,-101.5 150,-101.5 150,-101.5 91,-101.5"/>
<polygon fill="none" stroke="#666666" points="90.5,-85 90.5,-134 149.5,-134 149.5,-85 90.5,-85"/>
</a>
</g>
</g>
<!-- Node3&#45;&gt;Node1 -->
<g id="edge2_Node000001_Node000003" class="edge">
<title>Node3&#45;&gt;Node1</title>
<g id="a_edge2_Node000001_Node000003"><a xlink:title=" ">
<path fill="none" stroke="#63b8ff" d="M120,-74.77C120,-66.17 120,-57.1 120,-49.12"/>
<polygon fill="none" stroke="#63b8ff" points="116.5,-74.94 120,-84.94 123.5,-74.94 116.5,-74.94"/>
</a>
</g>
</g>
<!-- Node4 -->
<g id="Node000004" class="node">
<title>Node4</title>
<g id="a_Node000004"><a xlink:title=" ">
<polygon fill="white" stroke="transparent" points="198.5,-134 167.5,-134 167.5,-85 198.5,-85 198.5,-134"/>
<text text-anchor="start" x="173" y="-121.5" font-family="Helvetica,sans-Serif" font-size="10.00">ABC</text>
<text text-anchor="start" x="181.5" y="-106.5" font-family="Helvetica,sans-Serif" font-size="10.00"> </text>
<text text-anchor="start" x="181.5" y="-91.5" font-family="Helvetica,sans-Serif" font-size="10.00"> </text>
<polygon fill="#666666" stroke="#666666" points="168,-116.5 168,-116.5 199,-116.5 199,-116.5 168,-116.5"/>
<polygon fill="#666666" stroke="#666666" points="168,-101.5 168,-101.5 199,-101.5 199,-101.5 168,-101.5"/>
<polygon fill="none" stroke="#666666" points="167.5,-85 167.5,-134 198.5,-134 198.5,-85 167.5,-85"/>
</a>
</g>
</g>
<!-- Node4&#45;&gt;Node1 -->
<g id="edge3_Node000001_Node000004" class="edge">
<title>Node4&#45;&gt;Node1</title>
<g id="a_edge3_Node000001_Node000004"><a xlink:title=" ">
<path fill="none" stroke="#63b8ff" d="M161.25,-79.85C153.61,-69.79 145.13,-58.6 137.84,-49.01"/>
<polygon fill="none" stroke="#63b8ff" points="158.59,-82.13 167.43,-87.98 164.17,-77.9 158.59,-82.13"/>
</a>
</g>
</g>
</g>
</svg>
</svg>

<style type='text/css'>
<![CDATA[
[data-mouse-over-selected='false'] { opacity: 0.7; }
[data-mouse-over-selected='true']  { opacity: 1.0; }
]]>
</style>
<script type="application/ecmascript"><![CDATA[
document.addEventListener('DOMContentLoaded', (event) => {
  highlightEdges();
  highlightAdjacentNodes();
});
]]></script>
</svg>
