<?xml version="1.0" encoding="UTF-8" standalone="no"?>
<!DOCTYPE svg PUBLIC "-//W3C//DTD SVG 1.1//EN"
 "http://www.w3.org/Graphics/SVG/1.1/DTD/svg11.dtd">
<!-- Generated by graphviz version 2.43.0 (0)
 -->
<!-- Title: AsyncSolver.SolutionLoopScope Pages: 1 -->
<svg width="150pt" height="359pt"
 viewBox="0.00 0.00 150.00 359.00" xmlns="http://www.w3.org/2000/svg" xmlns:xlink="http://www.w3.org/1999/xlink">
<g id="graph0" class="graph" transform="scale(1 1) rotate(0) translate(4 355)">
<title>AsyncSolver.SolutionLoopScope</title>
<polygon fill="white" stroke="transparent" points="-4,4 -4,-355 146,-355 146,4 -4,4"/>
<!-- Node1 -->
<g id="node1" class="node">
<title>Node1</title>
<g id="a_node1"><a xlink:title="Embed AsyncSolver.Run in a SolutionStageScope.">
<polygon fill="#bfbfbf" stroke="black" points="0,-0.5 0,-68.5 142,-68.5 142,-0.5 0,-0.5"/>
<text text-anchor="start" x="8" y="-56.5" font-family="Helvetica,sans-Serif" font-size="10.00">AsyncSolver.SolutionLoop</text>
<text text-anchor="middle" x="71" y="-45.5" font-family="Helvetica,sans-Serif" font-size="10.00">Scope</text>
<polyline fill="none" stroke="black" points="0,-38.5 142,-38.5 "/>
<text text-anchor="middle" x="71" y="-26.5" font-family="Helvetica,sans-Serif" font-size="10.00"> </text>
<polyline fill="none" stroke="black" points="0,-19.5 142,-19.5 "/>
<text text-anchor="middle" x="71" y="-7.5" font-family="Helvetica,sans-Serif" font-size="10.00"> </text>
</a>
</g>
</g>
<!-- Node2 -->
<g id="node2" class="node">
<title>Node2</title>
<g id="a_node2"><a xlink:href="classpython__scripts_1_1async__analysis_1_1AsyncSolver_1_1AsyncSolver_1_1SolverScope.html" target="_top" xlink:title="Embed some part of AsyncSolver in a SolutionStageScope.">
<polygon fill="white" stroke="black" points="1.5,-105.5 1.5,-162.5 140.5,-162.5 140.5,-105.5 1.5,-105.5"/>
<text text-anchor="middle" x="71" y="-150.5" font-family="Helvetica,sans-Serif" font-size="10.00">AsyncSolver.SolverScope</text>
<polyline fill="none" stroke="black" points="1.5,-143.5 140.5,-143.5 "/>
<text text-anchor="middle" x="71" y="-131.5" font-family="Helvetica,sans-Serif" font-size="10.00"> </text>
<polyline fill="none" stroke="black" points="1.5,-124.5 140.5,-124.5 "/>
<text text-anchor="middle" x="71" y="-112.5" font-family="Helvetica,sans-Serif" font-size="10.00"> </text>
</a>
</g>
</g>
<!-- Node2&#45;&gt;Node1 -->
<g id="edge1" class="edge">
<title>Node2&#45;&gt;Node1</title>
<path fill="none" stroke="midnightblue" d="M71,-95.06C71,-86.39 71,-77.24 71,-68.79"/>
<polygon fill="none" stroke="midnightblue" points="67.5,-95.32 71,-105.32 74.5,-95.32 67.5,-95.32"/>
</g>
<!-- Node3 -->
<g id="node3" class="node">
<title>Node3</title>
<g id="a_node3"><a xlink:href="classpython__scripts_1_1async__analysis_1_1SolutionStageScope_1_1SolutionStageScope.html" target="_top" xlink:title="RAII context manager for tasks during solver execution.">
<polygon fill="white" stroke="black" points="14.5,-199.5 14.5,-256.5 127.5,-256.5 127.5,-199.5 14.5,-199.5"/>
<text text-anchor="middle" x="71" y="-244.5" font-family="Helvetica,sans-Serif" font-size="10.00">SolutionStageScope</text>
<polyline fill="none" stroke="black" points="14.5,-237.5 127.5,-237.5 "/>
<text text-anchor="middle" x="71" y="-225.5" font-family="Helvetica,sans-Serif" font-size="10.00"> </text>
<polyline fill="none" stroke="black" points="14.5,-218.5 127.5,-218.5 "/>
<text text-anchor="middle" x="71" y="-206.5" font-family="Helvetica,sans-Serif" font-size="10.00"> </text>
</a>
</g>
</g>
<!-- Node3&#45;&gt;Node2 -->
<g id="edge2" class="edge">
<title>Node3&#45;&gt;Node2</title>
<path fill="none" stroke="midnightblue" d="M71,-189.21C71,-180.29 71,-170.95 71,-162.58"/>
<polygon fill="none" stroke="midnightblue" points="67.5,-189.4 71,-199.4 74.5,-189.4 67.5,-189.4"/>
</g>
<!-- Node4 -->
<g id="node4" class="node">
<title>Node4</title>
<g id="a_node4"><a xlink:title=" ">
<polygon fill="white" stroke="#bfbfbf" points="52.5,-293.5 52.5,-350.5 89.5,-350.5 89.5,-293.5 52.5,-293.5"/>
<text text-anchor="middle" x="71" y="-338.5" font-family="Helvetica,sans-Serif" font-size="10.00">ABC</text>
<polyline fill="none" stroke="#bfbfbf" points="52.5,-331.5 89.5,-331.5 "/>
<text text-anchor="middle" x="71" y="-319.5" font-family="Helvetica,sans-Serif" font-size="10.00"> </text>
<polyline fill="none" stroke="#bfbfbf" points="52.5,-312.5 89.5,-312.5 "/>
<text text-anchor="middle" x="71" y="-300.5" font-family="Helvetica,sans-Serif" font-size="10.00"> </text>
</a>
</g>
</g>
<!-- Node4&#45;&gt;Node3 -->
<g id="edge3" class="edge">
<title>Node4&#45;&gt;Node3</title>
<path fill="none" stroke="midnightblue" d="M71,-283.21C71,-274.29 71,-264.95 71,-256.58"/>
<polygon fill="none" stroke="midnightblue" points="67.5,-283.4 71,-293.4 74.5,-283.4 67.5,-283.4"/>
</g>
</g>
</svg>
