<?xml version="1.0" encoding="UTF-8" standalone="no"?>
<!DOCTYPE svg PUBLIC "-//W3C//DTD SVG 1.1//EN"
 "http://www.w3.org/Graphics/SVG/1.1/DTD/svg11.dtd">
<!-- Generated by graphviz version 2.43.0 (0)
 -->
<!-- Title: Grid Pages: 1 -->
<svg width="338pt" height="227pt"
 viewBox="0.00 0.00 337.50 227.00" xmlns="http://www.w3.org/2000/svg" xmlns:xlink="http://www.w3.org/1999/xlink">
<g id="graph0" class="graph" transform="scale(1 1) rotate(0) translate(4 223)">
<title>Grid</title>
<!-- Node1 -->
<g id="Node000001" class="node">
<title>Node1</title>
<g id="a_Node000001"><a xlink:title=" ">
<polygon fill="#999999" stroke="transparent" points="187.5,-134 156.5,-134 156.5,-85 187.5,-85 187.5,-134"/>
<text text-anchor="start" x="162" y="-121.5" font-family="Helvetica,sans-Serif" font-size="10.00">Grid</text>
<text text-anchor="start" x="170.5" y="-106.5" font-family="Helvetica,sans-Serif" font-size="10.00"> </text>
<text text-anchor="start" x="170.5" y="-91.5" font-family="Helvetica,sans-Serif" font-size="10.00"> </text>
<polygon fill="#666666" stroke="#666666" points="157,-116.5 157,-116.5 188,-116.5 188,-116.5 157,-116.5"/>
<polygon fill="#666666" stroke="#666666" points="157,-101.5 157,-101.5 188,-101.5 188,-101.5 157,-101.5"/>
<polygon fill="none" stroke="#666666" points="156.5,-85 156.5,-134 187.5,-134 187.5,-85 156.5,-85"/>
</a>
</g>
</g>
<!-- Node3 -->
<g id="Node000003" class="node">
<title>Node3</title>
<g id="a_Node000003"><a xlink:href="classpython__scripts_1_1xdmf_1_1Grid_1_1GridCollection.html" target="_top" xlink:title=" ">
<polygon fill="white" stroke="transparent" points="80,-49 0,-49 0,0 80,0 80,-49"/>
<text text-anchor="start" x="5" y="-36.5" font-family="Helvetica,sans-Serif" font-size="10.00">GridCollection</text>
<text text-anchor="start" x="38" y="-21.5" font-family="Helvetica,sans-Serif" font-size="10.00"> </text>
<text text-anchor="start" x="7.5" y="-6.5" font-family="Helvetica,sans-Serif" font-size="10.00">+</text>
<text text-anchor="start" x="24" y="-6.5" font-family="Helvetica,sans-Serif" font-size="10.00">append()</text>
<polygon fill="#666666" stroke="#666666" points="0,-31.5 0,-31.5 80,-31.5 80,-31.5 0,-31.5"/>
<polygon fill="#666666" stroke="#666666" points="0,-16.5 0,-16.5 80,-16.5 80,-16.5 0,-16.5"/>
<polygon fill="none" stroke="#666666" points="0,0 0,-49 80,-49 80,0 0,0"/>
</a>
</g>
</g>
<!-- Node1&#45;&gt;Node3 -->
<g id="edge2_Node000001_Node000003" class="edge">
<title>Node1&#45;&gt;Node3</title>
<g id="a_edge2_Node000001_Node000003"><a xlink:title=" ">
<path fill="none" stroke="#63b8ff" d="M147.67,-93.2C127.99,-80.83 99.94,-63.19 77.4,-49.02"/>
<polygon fill="none" stroke="#63b8ff" points="146.01,-96.29 156.34,-98.65 149.74,-90.37 146.01,-96.29"/>
</a>
</g>
</g>
<!-- Node4 -->
<g id="Node000004" class="node">
<title>Node4</title>
<g id="a_Node000004"><a xlink:href="classpython__scripts_1_1xdmf_1_1Grid_1_1GridLeaf.html" target="_top" xlink:title=" ">
<polygon fill="white" stroke="transparent" points="163.5,-49 98.5,-49 98.5,0 163.5,0 163.5,-49"/>
<text text-anchor="start" x="110.5" y="-36.5" font-family="Helvetica,sans-Serif" font-size="10.00">GridLeaf</text>
<text text-anchor="start" x="129.5" y="-21.5" font-family="Helvetica,sans-Serif" font-size="10.00"> </text>
<text text-anchor="start" x="103" y="-6.5" font-family="Helvetica,sans-Serif" font-size="10.00">+</text>
<text text-anchor="start" x="116" y="-6.5" font-family="Helvetica,sans-Serif" font-size="10.00">append()</text>
<polygon fill="#666666" stroke="#666666" points="99,-31.5 99,-31.5 164,-31.5 164,-31.5 99,-31.5"/>
<polygon fill="#666666" stroke="#666666" points="99,-16.5 99,-16.5 164,-16.5 164,-16.5 99,-16.5"/>
<polygon fill="none" stroke="#666666" points="98.5,0 98.5,-49 163.5,-49 163.5,0 98.5,0"/>
</a>
</g>
</g>
<!-- Node1&#45;&gt;Node4 -->
<g id="edge3_Node000001_Node000004" class="edge">
<title>Node1&#45;&gt;Node4</title>
<g id="a_edge3_Node000001_Node000004"><a xlink:title=" ">
<path fill="none" stroke="#63b8ff" d="M155.9,-75.91C151.48,-66.97 146.78,-57.45 142.67,-49.12"/>
<polygon fill="none" stroke="#63b8ff" points="152.79,-77.52 160.36,-84.94 159.07,-74.42 152.79,-77.52"/>
</a>
</g>
</g>
<!-- Node5 -->
<g id="Node000005" class="node">
<title>Node5</title>
<g id="a_Node000005"><a xlink:href="classpython__scripts_1_1xdmf_1_1Grid_1_1GridSubset.html" target="_top" xlink:title=" ">
<polygon fill="white" stroke="transparent" points="246.5,-49 181.5,-49 181.5,0 246.5,0 246.5,-49"/>
<text text-anchor="start" x="187.5" y="-36.5" font-family="Helvetica,sans-Serif" font-size="10.00">GridSubset</text>
<text text-anchor="start" x="212.5" y="-21.5" font-family="Helvetica,sans-Serif" font-size="10.00"> </text>
<text text-anchor="start" x="186" y="-6.5" font-family="Helvetica,sans-Serif" font-size="10.00">+</text>
<text text-anchor="start" x="199" y="-6.5" font-family="Helvetica,sans-Serif" font-size="10.00">append()</text>
<polygon fill="#666666" stroke="#666666" points="182,-31.5 182,-31.5 247,-31.5 247,-31.5 182,-31.5"/>
<polygon fill="#666666" stroke="#666666" points="182,-16.5 182,-16.5 247,-16.5 247,-16.5 182,-16.5"/>
<polygon fill="none" stroke="#666666" points="181.5,0 181.5,-49 246.5,-49 246.5,0 181.5,0"/>
</a>
</g>
</g>
<!-- Node1&#45;&gt;Node5 -->
<g id="edge4_Node000001_Node000005" class="edge">
<title>Node1&#45;&gt;Node5</title>
<g id="a_edge4_Node000001_Node000005"><a xlink:title=" ">
<path fill="none" stroke="#63b8ff" d="M188.49,-75.91C193.02,-66.97 197.83,-57.45 202.05,-49.12"/>
<polygon fill="none" stroke="#63b8ff" points="185.32,-74.43 183.92,-84.94 191.56,-77.6 185.32,-74.43"/>
</a>
</g>
</g>
<!-- Node6 -->
<g id="Node000006" class="node">
<title>Node6</title>
<g id="a_Node000006"><a xlink:href="classpython__scripts_1_1xdmf_1_1Grid_1_1GridTree.html" target="_top" xlink:title=" ">
<polygon fill="white" stroke="transparent" points="329.5,-49 264.5,-49 264.5,0 329.5,0 329.5,-49"/>
<text text-anchor="start" x="277" y="-36.5" font-family="Helvetica,sans-Serif" font-size="10.00">GridTree</text>
<text text-anchor="start" x="295.5" y="-21.5" font-family="Helvetica,sans-Serif" font-size="10.00"> </text>
<text text-anchor="start" x="269" y="-6.5" font-family="Helvetica,sans-Serif" font-size="10.00">+</text>
<text text-anchor="start" x="282" y="-6.5" font-family="Helvetica,sans-Serif" font-size="10.00">append()</text>
<polygon fill="#666666" stroke="#666666" points="265,-31.5 265,-31.5 330,-31.5 330,-31.5 265,-31.5"/>
<polygon fill="#666666" stroke="#666666" points="265,-16.5 265,-16.5 330,-16.5 330,-16.5 265,-16.5"/>
<polygon fill="none" stroke="#666666" points="264.5,0 264.5,-49 329.5,-49 329.5,0 264.5,0"/>
</a>
</g>
</g>
<!-- Node1&#45;&gt;Node6 -->
<g id="edge5_Node000001_Node000006" class="edge">
<title>Node1&#45;&gt;Node6</title>
<g id="a_edge5_Node000001_Node000006"><a xlink:title=" ">
<path fill="none" stroke="#63b8ff" d="M196.13,-92.47C215.53,-79.59 242.97,-61.37 264.34,-47.19"/>
<polygon fill="none" stroke="#63b8ff" points="193.97,-89.71 187.58,-98.16 197.85,-95.54 193.97,-89.71"/>
</a>
</g>
</g>
<!-- Node2 -->
<g id="Node000002" class="node">
<title>Node2</title>
<g id="a_Node000002"><a xlink:title=" ">
<polygon fill="white" stroke="transparent" points="197.5,-219 146.5,-219 146.5,-170 197.5,-170 197.5,-219"/>
<text text-anchor="start" x="152" y="-206.5" font-family="Helvetica,sans-Serif" font-size="10.00">Element</text>
<text text-anchor="start" x="170.5" y="-191.5" font-family="Helvetica,sans-Serif" font-size="10.00"> </text>
<text text-anchor="start" x="170.5" y="-176.5" font-family="Helvetica,sans-Serif" font-size="10.00"> </text>
<polygon fill="#666666" stroke="#666666" points="147,-201.5 147,-201.5 198,-201.5 198,-201.5 147,-201.5"/>
<polygon fill="#666666" stroke="#666666" points="147,-186.5 147,-186.5 198,-186.5 198,-186.5 147,-186.5"/>
<polygon fill="none" stroke="#666666" points="146.5,-170 146.5,-219 197.5,-219 197.5,-170 146.5,-170"/>
</a>
</g>
</g>
<!-- Node2&#45;&gt;Node1 -->
<g id="edge1_Node000001_Node000002" class="edge">
<title>Node2&#45;&gt;Node1</title>
<g id="a_edge1_Node000001_Node000002"><a xlink:title=" ">
<path fill="none" stroke="#63b8ff" d="M172,-159.77C172,-151.17 172,-142.1 172,-134.12"/>
<polygon fill="none" stroke="#63b8ff" points="168.5,-159.94 172,-169.94 175.5,-159.94 168.5,-159.94"/>
</a>
</g>
</g>
</g>
</svg>
