<?xml version="1.0" encoding="UTF-8" standalone="no"?>
<!DOCTYPE svg PUBLIC "-//W3C//DTD SVG 1.1//EN"
 "http://www.w3.org/Graphics/SVG/1.1/DTD/svg11.dtd">
<!-- Generated by graphviz version 2.43.0 (0)
 -->
<!-- Title: AsyncSolver.AdvanceScope Pages: 1 -->
<svg width="158pt" height="348pt"
 viewBox="0.00 0.00 158.00 348.00" xmlns="http://www.w3.org/2000/svg" xmlns:xlink="http://www.w3.org/1999/xlink">
<g id="graph0" class="graph" transform="scale(1 1) rotate(0) translate(4 344)">
<title>AsyncSolver.AdvanceScope</title>
<polygon fill="white" stroke="transparent" points="-4,4 -4,-344 154,-344 154,4 -4,4"/>
<!-- Node1 -->
<g id="node1" class="node">
<title>Node1</title>
<g id="a_node1"><a xlink:title="Embed AsyncSolver._Advance in a SolutionStageScope.">
<polygon fill="#bfbfbf" stroke="black" points="0,-0.5 0,-57.5 150,-57.5 150,-0.5 0,-0.5"/>
<text text-anchor="middle" x="75" y="-45.5" font-family="Helvetica,sans-Serif" font-size="10.00">AsyncSolver.AdvanceScope</text>
<polyline fill="none" stroke="black" points="0,-38.5 150,-38.5 "/>
<text text-anchor="middle" x="75" y="-26.5" font-family="Helvetica,sans-Serif" font-size="10.00"> </text>
<polyline fill="none" stroke="black" points="0,-19.5 150,-19.5 "/>
<text text-anchor="start" x="8" y="-7.5" font-family="Helvetica,sans-Serif" font-size="10.00">+ WriteInfo()</text>
</a>
</g>
</g>
<!-- Node2 -->
<g id="node2" class="node">
<title>Node2</title>
<g id="a_node2"><a xlink:href="classpython__scripts_1_1async__analysis_1_1AsyncSolver_1_1AsyncSolver_1_1SolverScope.html" target="_top" xlink:title="Embed some part of AsyncSolver in a SolutionStageScope.">
<polygon fill="white" stroke="black" points="5.5,-94.5 5.5,-151.5 144.5,-151.5 144.5,-94.5 5.5,-94.5"/>
<text text-anchor="middle" x="75" y="-139.5" font-family="Helvetica,sans-Serif" font-size="10.00">AsyncSolver.SolverScope</text>
<polyline fill="none" stroke="black" points="5.5,-132.5 144.5,-132.5 "/>
<text text-anchor="middle" x="75" y="-120.5" font-family="Helvetica,sans-Serif" font-size="10.00"> </text>
<polyline fill="none" stroke="black" points="5.5,-113.5 144.5,-113.5 "/>
<text text-anchor="start" x="13.5" y="-101.5" font-family="Helvetica,sans-Serif" font-size="10.00">+ WriteInfo()</text>
</a>
</g>
</g>
<!-- Node2&#45;&gt;Node1 -->
<g id="edge1" class="edge">
<title>Node2&#45;&gt;Node1</title>
<path fill="none" stroke="midnightblue" d="M75,-84.21C75,-75.29 75,-65.95 75,-57.58"/>
<polygon fill="none" stroke="midnightblue" points="71.5,-84.4 75,-94.4 78.5,-84.4 71.5,-84.4"/>
</g>
<!-- Node3 -->
<g id="node3" class="node">
<title>Node3</title>
<g id="a_node3"><a xlink:href="classpython__scripts_1_1async__analysis_1_1SolutionStageScope_1_1SolutionStageScope.html" target="_top" xlink:title="RAII context manager for tasks during solver execution.">
<polygon fill="white" stroke="black" points="18.5,-188.5 18.5,-245.5 131.5,-245.5 131.5,-188.5 18.5,-188.5"/>
<text text-anchor="middle" x="75" y="-233.5" font-family="Helvetica,sans-Serif" font-size="10.00">SolutionStageScope</text>
<polyline fill="none" stroke="black" points="18.5,-226.5 131.5,-226.5 "/>
<text text-anchor="middle" x="75" y="-214.5" font-family="Helvetica,sans-Serif" font-size="10.00"> </text>
<polyline fill="none" stroke="black" points="18.5,-207.5 131.5,-207.5 "/>
<text text-anchor="start" x="26.5" y="-195.5" font-family="Helvetica,sans-Serif" font-size="10.00">+ WriteInfo()</text>
</a>
</g>
</g>
<!-- Node3&#45;&gt;Node2 -->
<g id="edge2" class="edge">
<title>Node3&#45;&gt;Node2</title>
<path fill="none" stroke="midnightblue" d="M75,-178.21C75,-169.29 75,-159.95 75,-151.58"/>
<polygon fill="none" stroke="midnightblue" points="71.5,-178.4 75,-188.4 78.5,-178.4 71.5,-178.4"/>
</g>
<!-- Node4 -->
<g id="node4" class="node">
<title>Node4</title>
<g id="a_node4"><a xlink:title=" ">
<polygon fill="white" stroke="#bfbfbf" points="56.5,-282.5 56.5,-339.5 93.5,-339.5 93.5,-282.5 56.5,-282.5"/>
<text text-anchor="middle" x="75" y="-327.5" font-family="Helvetica,sans-Serif" font-size="10.00">ABC</text>
<polyline fill="none" stroke="#bfbfbf" points="56.5,-320.5 93.5,-320.5 "/>
<text text-anchor="middle" x="75" y="-308.5" font-family="Helvetica,sans-Serif" font-size="10.00"> </text>
<polyline fill="none" stroke="#bfbfbf" points="56.5,-301.5 93.5,-301.5 "/>
<text text-anchor="middle" x="75" y="-289.5" font-family="Helvetica,sans-Serif" font-size="10.00"> </text>
</a>
</g>
</g>
<!-- Node4&#45;&gt;Node3 -->
<g id="edge3" class="edge">
<title>Node4&#45;&gt;Node3</title>
<path fill="none" stroke="midnightblue" d="M75,-272.21C75,-263.29 75,-253.95 75,-245.58"/>
<polygon fill="none" stroke="midnightblue" points="71.5,-272.4 75,-282.4 78.5,-272.4 71.5,-272.4"/>
</g>
</g>
</svg>
