<?xml version="1.0" encoding="UTF-8" standalone="no"?>
<!DOCTYPE svg PUBLIC "-//W3C//DTD SVG 1.1//EN"
 "http://www.w3.org/Graphics/SVG/1.1/DTD/svg11.dtd">
<!-- Generated by graphviz version 2.43.0 (0)
 -->
<!-- Title: LeafDataItem Pages: 1 -->
<svg width="108pt" height="227pt"
 viewBox="0.00 0.00 108.00 227.00" xmlns="http://www.w3.org/2000/svg" xmlns:xlink="http://www.w3.org/1999/xlink">
<g id="graph0" class="graph" transform="scale(1 1) rotate(0) translate(4 223)">
<title>LeafDataItem</title>
<!-- Node1 -->
<g id="Node000001" class="node">
<title>Node1</title>
<g id="a_Node000001"><a xlink:title=" ">
<polygon fill="#999999" stroke="transparent" points="83,-49 6,-49 6,0 83,0 83,-49"/>
<text text-anchor="start" x="11.5" y="-36.5" font-family="Helvetica,sans-Serif" font-size="10.00">LeafDataItem</text>
<text text-anchor="start" x="10.5" y="-21.5" font-family="Helvetica,sans-Serif" font-size="10.00">+</text>
<text text-anchor="start" x="23.5" y="-21.5" font-family="Helvetica,sans-Serif" font-size="10.00">text</text>
<text text-anchor="start" x="10.5" y="-6.5" font-family="Helvetica,sans-Serif" font-size="10.00">+</text>
<text text-anchor="start" x="23.5" y="-6.5" font-family="Helvetica,sans-Serif" font-size="10.00">GetShape()</text>
<polygon fill="#666666" stroke="#666666" points="6.5,-31.5 6.5,-31.5 83.5,-31.5 83.5,-31.5 6.5,-31.5"/>
<polygon fill="#666666" stroke="#666666" points="6.5,-16.5 6.5,-16.5 21.5,-16.5 21.5,-16.5 6.5,-16.5"/>
<polygon fill="#666666" stroke="#666666" points="21.5,-16.5 21.5,-16.5 83.5,-16.5 83.5,-16.5 21.5,-16.5"/>
<polygon fill="none" stroke="#666666" points="6,0 6,-49 83,-49 83,0 6,0"/>
</a>
</g>
</g>
<!-- Node2 -->
<g id="Node000002" class="node">
<title>Node2</title>
<g id="a_Node000002"><a xlink:href="classpython__scripts_1_1xdmf_1_1DataItem_1_1DataItem.html" target="_top" xlink:title=" ">
<polygon fill="white" stroke="transparent" points="82.5,-134 6.5,-134 6.5,-85 82.5,-85 82.5,-134"/>
<text text-anchor="start" x="21.5" y="-121.5" font-family="Helvetica,sans-Serif" font-size="10.00">DataItem</text>
<text text-anchor="start" x="42.5" y="-106.5" font-family="Helvetica,sans-Serif" font-size="10.00"> </text>
<text text-anchor="start" x="10.5" y="-91.5" font-family="Helvetica,sans-Serif" font-size="10.00">+</text>
<text text-anchor="start" x="23.5" y="-91.5" font-family="Helvetica,sans-Serif" font-size="10.00">GetShape()</text>
<polygon fill="#666666" stroke="#666666" points="6.5,-116.5 6.5,-116.5 82.5,-116.5 82.5,-116.5 6.5,-116.5"/>
<polygon fill="#666666" stroke="#666666" points="6.5,-101.5 6.5,-101.5 82.5,-101.5 82.5,-101.5 6.5,-101.5"/>
<polygon fill="none" stroke="#666666" points="6.5,-85 6.5,-134 82.5,-134 82.5,-85 6.5,-85"/>
</a>
</g>
</g>
<!-- Node2&#45;&gt;Node1 -->
<g id="edge1_Node000001_Node000002" class="edge">
<title>Node2&#45;&gt;Node1</title>
<g id="a_edge1_Node000001_Node000002"><a xlink:title=" ">
<path fill="none" stroke="#63b8ff" d="M44.5,-74.77C44.5,-66.17 44.5,-57.1 44.5,-49.12"/>
<polygon fill="none" stroke="#63b8ff" points="41,-74.94 44.5,-84.94 48,-74.94 41,-74.94"/>
</a>
</g>
</g>
<!-- Node3 -->
<g id="Node000003" class="node">
<title>Node3</title>
<g id="a_Node000003"><a xlink:title=" ">
<polygon fill="white" stroke="transparent" points="31,-219 0,-219 0,-170 31,-170 31,-219"/>
<text text-anchor="start" x="5.5" y="-206.5" font-family="Helvetica,sans-Serif" font-size="10.00">ABC</text>
<text text-anchor="start" x="14" y="-191.5" font-family="Helvetica,sans-Serif" font-size="10.00"> </text>
<text text-anchor="start" x="14" y="-176.5" font-family="Helvetica,sans-Serif" font-size="10.00"> </text>
<polygon fill="#666666" stroke="#666666" points="0.5,-201.5 0.5,-201.5 31.5,-201.5 31.5,-201.5 0.5,-201.5"/>
<polygon fill="#666666" stroke="#666666" points="0.5,-186.5 0.5,-186.5 31.5,-186.5 31.5,-186.5 0.5,-186.5"/>
<polygon fill="none" stroke="#666666" points="0,-170 0,-219 31,-219 31,-170 0,-170"/>
</a>
</g>
</g>
<!-- Node3&#45;&gt;Node2 -->
<g id="edge2_Node000002_Node000003" class="edge">
<title>Node3&#45;&gt;Node2</title>
<g id="a_edge2_Node000002_Node000003"><a xlink:title=" ">
<path fill="none" stroke="#63b8ff" d="M27.09,-160.34C30.15,-151.57 33.4,-142.28 36.25,-134.12"/>
<polygon fill="none" stroke="#63b8ff" points="23.73,-159.34 23.73,-169.94 30.34,-161.65 23.73,-159.34"/>
</a>
</g>
</g>
<!-- Node4 -->
<g id="Node000004" class="node">
<title>Node4</title>
<g id="a_Node000004"><a xlink:title=" ">
<polygon fill="white" stroke="transparent" points="100,-219 49,-219 49,-170 100,-170 100,-219"/>
<text text-anchor="start" x="54.5" y="-206.5" font-family="Helvetica,sans-Serif" font-size="10.00">Element</text>
<text text-anchor="start" x="73" y="-191.5" font-family="Helvetica,sans-Serif" font-size="10.00"> </text>
<text text-anchor="start" x="73" y="-176.5" font-family="Helvetica,sans-Serif" font-size="10.00"> </text>
<polygon fill="#666666" stroke="#666666" points="49.5,-201.5 49.5,-201.5 100.5,-201.5 100.5,-201.5 49.5,-201.5"/>
<polygon fill="#666666" stroke="#666666" points="49.5,-186.5 49.5,-186.5 100.5,-186.5 100.5,-186.5 49.5,-186.5"/>
<polygon fill="none" stroke="#666666" points="49,-170 49,-219 100,-219 100,-170 49,-170"/>
</a>
</g>
</g>
<!-- Node4&#45;&gt;Node2 -->
<g id="edge3_Node000002_Node000004" class="edge">
<title>Node4&#45;&gt;Node2</title>
<g id="a_edge3_Node000002_Node000004"><a xlink:title=" ">
<path fill="none" stroke="#63b8ff" d="M62.51,-160.34C59.34,-151.57 55.98,-142.28 53.04,-134.12"/>
<polygon fill="none" stroke="#63b8ff" points="59.29,-161.72 65.98,-169.94 65.88,-159.34 59.29,-161.72"/>
</a>
</g>
</g>
</g>
</svg>
