<?xml version="1.0" encoding="UTF-8" standalone="no"?>
<!DOCTYPE svg PUBLIC "-//W3C//DTD SVG 1.1//EN"
 "http://www.w3.org/Graphics/SVG/1.1/DTD/svg11.dtd">
<!-- Generated by graphviz version 2.43.0 (0)
 -->
<!-- Title: DataType Pages: 1 -->
<svg width="347pt" height="254pt"
 viewBox="0.00 0.00 347.00 254.00" xmlns="http://www.w3.org/2000/svg" xmlns:xlink="http://www.w3.org/1999/xlink">
<g id="graph0" class="graph" transform="scale(1 1) rotate(0) translate(4 250)">
<title>DataType</title>
<polygon fill="white" stroke="transparent" points="-4,4 -4,-250 343,-250 343,4 -4,4"/>
<!-- Node1 -->
<g id="node1" class="node">
<title>Node1</title>
<g id="a_node1"><a xlink:title=" ">
<polygon fill="#bfbfbf" stroke="black" points="119,-94.5 119,-151.5 220,-151.5 220,-94.5 119,-94.5"/>
<text text-anchor="middle" x="169.5" y="-139.5" font-family="Helvetica,sans-Serif" font-size="10.00">DataType</text>
<polyline fill="none" stroke="black" points="119,-132.5 220,-132.5 "/>
<text text-anchor="middle" x="169.5" y="-120.5" font-family="Helvetica,sans-Serif" font-size="10.00"> </text>
<polyline fill="none" stroke="black" points="119,-113.5 220,-113.5 "/>
<text text-anchor="start" x="127" y="-101.5" font-family="Helvetica,sans-Serif" font-size="10.00">+ GetAttributes()</text>
</a>
</g>
</g>
<!-- Node3 -->
<g id="node3" class="node">
<title>Node3</title>
<g id="a_node3"><a xlink:href="classpython__scripts_1_1xdmf_1_1DataType_1_1Float.html" target="_top" xlink:title=" ">
<polygon fill="white" stroke="black" points="0,-0.5 0,-57.5 101,-57.5 101,-0.5 0,-0.5"/>
<text text-anchor="middle" x="50.5" y="-45.5" font-family="Helvetica,sans-Serif" font-size="10.00">Float</text>
<polyline fill="none" stroke="black" points="0,-38.5 101,-38.5 "/>
<text text-anchor="middle" x="50.5" y="-26.5" font-family="Helvetica,sans-Serif" font-size="10.00"> </text>
<polyline fill="none" stroke="black" points="0,-19.5 101,-19.5 "/>
<text text-anchor="start" x="8" y="-7.5" font-family="Helvetica,sans-Serif" font-size="10.00">+ GetAttributes()</text>
</a>
</g>
</g>
<!-- Node1&#45;&gt;Node3 -->
<g id="edge2" class="edge">
<title>Node1&#45;&gt;Node3</title>
<path fill="none" stroke="midnightblue" d="M125.84,-88.25C112.79,-78.16 98.65,-67.22 86.18,-57.58"/>
<polygon fill="none" stroke="midnightblue" points="123.74,-91.05 133.8,-94.4 128.03,-85.51 123.74,-91.05"/>
</g>
<!-- Node4 -->
<g id="node4" class="node">
<title>Node4</title>
<g id="a_node4"><a xlink:href="classpython__scripts_1_1xdmf_1_1DataType_1_1Int.html" target="_top" xlink:title=" ">
<polygon fill="white" stroke="black" points="119,-0.5 119,-57.5 220,-57.5 220,-0.5 119,-0.5"/>
<text text-anchor="middle" x="169.5" y="-45.5" font-family="Helvetica,sans-Serif" font-size="10.00">Int</text>
<polyline fill="none" stroke="black" points="119,-38.5 220,-38.5 "/>
<text text-anchor="middle" x="169.5" y="-26.5" font-family="Helvetica,sans-Serif" font-size="10.00"> </text>
<polyline fill="none" stroke="black" points="119,-19.5 220,-19.5 "/>
<text text-anchor="start" x="127" y="-7.5" font-family="Helvetica,sans-Serif" font-size="10.00">+ GetAttributes()</text>
</a>
</g>
</g>
<!-- Node1&#45;&gt;Node4 -->
<g id="edge3" class="edge">
<title>Node1&#45;&gt;Node4</title>
<path fill="none" stroke="midnightblue" d="M169.5,-84.21C169.5,-75.29 169.5,-65.95 169.5,-57.58"/>
<polygon fill="none" stroke="midnightblue" points="166,-84.4 169.5,-94.4 173,-84.4 166,-84.4"/>
</g>
<!-- Node5 -->
<g id="node5" class="node">
<title>Node5</title>
<g id="a_node5"><a xlink:href="classpython__scripts_1_1xdmf_1_1DataType_1_1UInt.html" target="_top" xlink:title=" ">
<polygon fill="white" stroke="black" points="238,-0.5 238,-57.5 339,-57.5 339,-0.5 238,-0.5"/>
<text text-anchor="middle" x="288.5" y="-45.5" font-family="Helvetica,sans-Serif" font-size="10.00">UInt</text>
<polyline fill="none" stroke="black" points="238,-38.5 339,-38.5 "/>
<text text-anchor="middle" x="288.5" y="-26.5" font-family="Helvetica,sans-Serif" font-size="10.00"> </text>
<polyline fill="none" stroke="black" points="238,-19.5 339,-19.5 "/>
<text text-anchor="start" x="246" y="-7.5" font-family="Helvetica,sans-Serif" font-size="10.00">+ GetAttributes()</text>
</a>
</g>
</g>
<!-- Node1&#45;&gt;Node5 -->
<g id="edge4" class="edge">
<title>Node1&#45;&gt;Node5</title>
<path fill="none" stroke="midnightblue" d="M213.16,-88.25C226.21,-78.16 240.35,-67.22 252.82,-57.58"/>
<polygon fill="none" stroke="midnightblue" points="210.97,-85.51 205.2,-94.4 215.26,-91.05 210.97,-85.51"/>
</g>
<!-- Node2 -->
<g id="node2" class="node">
<title>Node2</title>
<g id="a_node2"><a xlink:title=" ">
<polygon fill="white" stroke="#bfbfbf" points="151,-188.5 151,-245.5 188,-245.5 188,-188.5 151,-188.5"/>
<text text-anchor="middle" x="169.5" y="-233.5" font-family="Helvetica,sans-Serif" font-size="10.00">ABC</text>
<polyline fill="none" stroke="#bfbfbf" points="151,-226.5 188,-226.5 "/>
<text text-anchor="middle" x="169.5" y="-214.5" font-family="Helvetica,sans-Serif" font-size="10.00"> </text>
<polyline fill="none" stroke="#bfbfbf" points="151,-207.5 188,-207.5 "/>
<text text-anchor="middle" x="169.5" y="-195.5" font-family="Helvetica,sans-Serif" font-size="10.00"> </text>
</a>
</g>
</g>
<!-- Node2&#45;&gt;Node1 -->
<g id="edge1" class="edge">
<title>Node2&#45;&gt;Node1</title>
<path fill="none" stroke="midnightblue" d="M169.5,-178.21C169.5,-169.29 169.5,-159.95 169.5,-151.58"/>
<polygon fill="none" stroke="midnightblue" points="166,-178.4 169.5,-188.4 173,-178.4 166,-178.4"/>
</g>
</g>
</svg>
