<?xml version="1.0" encoding="UTF-8" standalone="no"?>
<!DOCTYPE svg PUBLIC "-//W3C//DTD SVG 1.1//EN"
 "http://www.w3.org/Graphics/SVG/1.1/DTD/svg11.dtd">
<!-- Generated by graphviz version 2.43.0 (0)
 -->
<!-- Title: SnapshotFS Pages: 1 -->
<svg width="75pt" height="142pt"
 viewBox="0.00 0.00 75.00 142.00" xmlns="http://www.w3.org/2000/svg" xmlns:xlink="http://www.w3.org/1999/xlink">
<g id="graph0" class="graph" transform="scale(1 1) rotate(0) translate(4 138)">
<title>SnapshotFS</title>
<!-- Node1 -->
<g id="Node000001" class="node">
<title>Node1</title>
<g id="a_Node000001"><a xlink:title="Class representing a snapshot of a ModelPart state and its associated output file on the filesystem.">
<polygon fill="#999999" stroke="transparent" points="67,-49 0,-49 0,0 67,0 67,-49"/>
<text text-anchor="start" x="5.5" y="-36.5" font-family="Helvetica,sans-Serif" font-size="10.00">SnapshotFS</text>
<text text-anchor="start" x="32" y="-21.5" font-family="Helvetica,sans-Serif" font-size="10.00"> </text>
<text text-anchor="start" x="32" y="-6.5" font-family="Helvetica,sans-Serif" font-size="10.00"> </text>
<polygon fill="#666666" stroke="#666666" points="0.5,-31.5 0.5,-31.5 67.5,-31.5 67.5,-31.5 0.5,-31.5"/>
<polygon fill="#666666" stroke="#666666" points="0.5,-16.5 0.5,-16.5 67.5,-16.5 67.5,-16.5 0.5,-16.5"/>
<polygon fill="none" stroke="#666666" points="0,0 0,-49 67,-49 67,0 0,0"/>
</a>
</g>
</g>
<!-- Node2 -->
<g id="Node000002" class="node">
<title>Node2</title>
<g id="a_Node000002"><a xlink:title=" ">
<polygon fill="white" stroke="transparent" points="61.5,-134 5.5,-134 5.5,-85 61.5,-85 61.5,-134"/>
<text text-anchor="start" x="10.5" y="-121.5" font-family="Helvetica,sans-Serif" font-size="10.00">Snapshot</text>
<text text-anchor="start" x="31.5" y="-106.5" font-family="Helvetica,sans-Serif" font-size="10.00"> </text>
<text text-anchor="start" x="31.5" y="-91.5" font-family="Helvetica,sans-Serif" font-size="10.00"> </text>
<polygon fill="#666666" stroke="#666666" points="5.5,-116.5 5.5,-116.5 61.5,-116.5 61.5,-116.5 5.5,-116.5"/>
<polygon fill="#666666" stroke="#666666" points="5.5,-101.5 5.5,-101.5 61.5,-101.5 61.5,-101.5 5.5,-101.5"/>
<polygon fill="none" stroke="#666666" points="5.5,-85 5.5,-134 61.5,-134 61.5,-85 5.5,-85"/>
</a>
</g>
</g>
<!-- Node2&#45;&gt;Node1 -->
<g id="edge1_Node000001_Node000002" class="edge">
<title>Node2&#45;&gt;Node1</title>
<g id="a_edge1_Node000001_Node000002"><a xlink:title=" ">
<path fill="none" stroke="#63b8ff" d="M33.5,-74.77C33.5,-66.17 33.5,-57.1 33.5,-49.12"/>
<polygon fill="none" stroke="#63b8ff" points="30,-74.94 33.5,-84.94 37,-74.94 30,-74.94"/>
</a>
</g>
</g>
</g>
</svg>
