<?xml version="1.0" encoding="UTF-8" standalone="no"?>
<!DOCTYPE svg PUBLIC "-//W3C//DTD SVG 1.1//EN"
 "http://www.w3.org/Graphics/SVG/1.1/DTD/svg11.dtd">
<!-- Generated by graphviz version 2.43.0 (0)
 -->
<!-- Title: CheckpointProcess Pages: 1 -->
<svg width="339pt" height="204pt"
 viewBox="0.00 0.00 338.50 204.00" xmlns="http://www.w3.org/2000/svg" xmlns:xlink="http://www.w3.org/1999/xlink">
<g id="graph0" class="graph" transform="scale(1 1) rotate(0) translate(4 200)">
<title>CheckpointProcess</title>
<polygon fill="white" stroke="transparent" points="-4,4 -4,-200 334.5,-200 334.5,4 -4,4"/>
<!-- Node1 -->
<g id="node1" class="node">
<title>Node1</title>
<g id="a_node1"><a xlink:title="Main interface process for checkpointing.">
<polygon fill="#bfbfbf" stroke="black" points="69.5,-0.5 69.5,-101.5 242.5,-101.5 242.5,-0.5 69.5,-0.5"/>
<text text-anchor="middle" x="156" y="-89.5" font-family="Helvetica,sans-Serif" font-size="10.00">CheckpointProcess</text>
<polyline fill="none" stroke="black" points="69.5,-82.5 242.5,-82.5 "/>
<text text-anchor="middle" x="156" y="-70.5" font-family="Helvetica,sans-Serif" font-size="10.00"> </text>
<polyline fill="none" stroke="black" points="69.5,-63.5 242.5,-63.5 "/>
<text text-anchor="start" x="77.5" y="-51.5" font-family="Helvetica,sans-Serif" font-size="10.00">+ Initialize()</text>
<text text-anchor="start" x="77.5" y="-40.5" font-family="Helvetica,sans-Serif" font-size="10.00">+ ExecuteInitializeSolution</text>
<text text-anchor="start" x="77.5" y="-29.5" font-family="Helvetica,sans-Serif" font-size="10.00">Step()</text>
<text text-anchor="start" x="77.5" y="-18.5" font-family="Helvetica,sans-Serif" font-size="10.00">+ ExecuteFinalizeSolutionStep()</text>
<text text-anchor="start" x="77.5" y="-7.5" font-family="Helvetica,sans-Serif" font-size="10.00">+ GetDefaultParameters()</text>
</a>
</g>
</g>
<!-- Node2 -->
<g id="node2" class="node">
<title>Node2</title>
<g id="a_node2"><a xlink:title=" ">
<polygon fill="white" stroke="#bfbfbf" points="0,-138.5 0,-195.5 54,-195.5 54,-138.5 0,-138.5"/>
<text text-anchor="middle" x="27" y="-183.5" font-family="Helvetica,sans-Serif" font-size="10.00">Process</text>
<polyline fill="none" stroke="#bfbfbf" points="0,-176.5 54,-176.5 "/>
<text text-anchor="middle" x="27" y="-164.5" font-family="Helvetica,sans-Serif" font-size="10.00"> </text>
<polyline fill="none" stroke="#bfbfbf" points="0,-157.5 54,-157.5 "/>
<text text-anchor="middle" x="27" y="-145.5" font-family="Helvetica,sans-Serif" font-size="10.00"> </text>
</a>
</g>
</g>
<!-- Node2&#45;&gt;Node1 -->
<g id="edge1" class="edge">
<title>Node2&#45;&gt;Node1</title>
<path fill="none" stroke="midnightblue" d="M61.84,-135.21C73.52,-124.89 86.87,-113.09 99.76,-101.7"/>
<polygon fill="none" stroke="midnightblue" points="59.22,-132.86 54.04,-142.1 63.85,-138.1 59.22,-132.86"/>
</g>
<!-- Node3 -->
<g id="node3" class="node">
<title>Node3</title>
<g id="a_node3"><a xlink:title=" ">
<polygon fill="white" stroke="#bfbfbf" points="72,-138.5 72,-195.5 150,-195.5 150,-138.5 72,-138.5"/>
<text text-anchor="middle" x="111" y="-183.5" font-family="Helvetica,sans-Serif" font-size="10.00">WRAppClass</text>
<polyline fill="none" stroke="#bfbfbf" points="72,-176.5 150,-176.5 "/>
<text text-anchor="middle" x="111" y="-164.5" font-family="Helvetica,sans-Serif" font-size="10.00"> </text>
<polyline fill="none" stroke="#bfbfbf" points="72,-157.5 150,-157.5 "/>
<text text-anchor="middle" x="111" y="-145.5" font-family="Helvetica,sans-Serif" font-size="10.00"> </text>
</a>
</g>
</g>
<!-- Node3&#45;&gt;Node1 -->
<g id="edge2" class="edge">
<title>Node3&#45;&gt;Node1</title>
<path fill="none" stroke="midnightblue" d="M125.64,-128.92C129.08,-120.2 132.8,-110.78 136.42,-101.61"/>
<polygon fill="none" stroke="midnightblue" points="122.31,-127.82 121.89,-138.4 128.82,-130.39 122.31,-127.82"/>
</g>
<!-- Node4 -->
<g id="node4" class="node">
<title>Node4</title>
<g id="a_node4"><a xlink:title=" ">
<polygon fill="white" stroke="#bfbfbf" points="168.5,-138.5 168.5,-195.5 235.5,-195.5 235.5,-138.5 168.5,-138.5"/>
<text text-anchor="middle" x="202" y="-183.5" font-family="Helvetica,sans-Serif" font-size="10.00">metaclass</text>
<polyline fill="none" stroke="#bfbfbf" points="168.5,-176.5 235.5,-176.5 "/>
<text text-anchor="middle" x="202" y="-164.5" font-family="Helvetica,sans-Serif" font-size="10.00"> </text>
<polyline fill="none" stroke="#bfbfbf" points="168.5,-157.5 235.5,-157.5 "/>
<text text-anchor="middle" x="202" y="-145.5" font-family="Helvetica,sans-Serif" font-size="10.00"> </text>
</a>
</g>
</g>
<!-- Node4&#45;&gt;Node1 -->
<g id="edge3" class="edge">
<title>Node4&#45;&gt;Node1</title>
<path fill="none" stroke="midnightblue" d="M187.04,-128.92C183.52,-120.2 179.72,-110.78 176.02,-101.61"/>
<polygon fill="none" stroke="midnightblue" points="183.88,-130.44 190.86,-138.4 190.37,-127.82 183.88,-130.44"/>
</g>
<!-- Node5 -->
<g id="node5" class="node">
<title>Node5</title>
<g id="a_node5"><a xlink:title=" ">
<polygon fill="white" stroke="#bfbfbf" points="253.5,-138.5 253.5,-195.5 330.5,-195.5 330.5,-138.5 253.5,-138.5"/>
<text text-anchor="middle" x="292" y="-183.5" font-family="Helvetica,sans-Serif" font-size="10.00">WRAppMeta</text>
<polyline fill="none" stroke="#bfbfbf" points="253.5,-176.5 330.5,-176.5 "/>
<text text-anchor="middle" x="292" y="-164.5" font-family="Helvetica,sans-Serif" font-size="10.00"> </text>
<polyline fill="none" stroke="#bfbfbf" points="253.5,-157.5 330.5,-157.5 "/>
<text text-anchor="middle" x="292" y="-145.5" font-family="Helvetica,sans-Serif" font-size="10.00"> </text>
</a>
</g>
</g>
<!-- Node5&#45;&gt;Node1 -->
<g id="edge4" class="edge">
<title>Node5&#45;&gt;Node1</title>
<path fill="none" stroke="midnightblue" d="M251.41,-131.98C240.03,-122.43 227.41,-111.86 215.18,-101.61"/>
<polygon fill="none" stroke="midnightblue" points="249.17,-134.66 259.08,-138.4 253.66,-129.3 249.17,-134.66"/>
</g>
</g>
</svg>
