<?xml version="1.0" encoding="UTF-8" standalone="no"?>
<!DOCTYPE svg PUBLIC "-//W3C//DTD SVG 1.1//EN"
 "http://www.w3.org/Graphics/SVG/1.1/DTD/svg11.dtd">
<!-- Generated by graphviz version 2.43.0 (0)
 -->
<!-- Title: Snapshot Pages: 1 -->
<svg width="251pt" height="601pt"
 viewBox="0.00 0.00 250.50 601.00" xmlns="http://www.w3.org/2000/svg" xmlns:xlink="http://www.w3.org/1999/xlink">
<g id="graph0" class="graph" transform="scale(1 1) rotate(0) translate(4 597)">
<title>Snapshot</title>
<polygon fill="white" stroke="transparent" points="-4,4 -4,-597 246.5,-597 246.5,4 -4,4"/>
<!-- Node1 -->
<g id="node1" class="node">
<title>Node1</title>
<g id="a_node1"><a xlink:title="Class representing a snapshot of a ModelPart state.">
<polygon fill="#bfbfbf" stroke="black" points="51,-298.5 51,-498.5 195,-498.5 195,-298.5 51,-298.5"/>
<text text-anchor="middle" x="123" y="-486.5" font-family="Helvetica,sans-Serif" font-size="10.00">Snapshot</text>
<polyline fill="none" stroke="black" points="51,-479.5 195,-479.5 "/>
<text text-anchor="middle" x="123" y="-467.5" font-family="Helvetica,sans-Serif" font-size="10.00"> </text>
<polyline fill="none" stroke="black" points="51,-460.5 195,-460.5 "/>
<text text-anchor="start" x="59" y="-448.5" font-family="Helvetica,sans-Serif" font-size="10.00">+ Load()</text>
<text text-anchor="start" x="59" y="-437.5" font-family="Helvetica,sans-Serif" font-size="10.00">+ Write()</text>
<text text-anchor="start" x="59" y="-426.5" font-family="Helvetica,sans-Serif" font-size="10.00">+ Erase()</text>
<text text-anchor="start" x="59" y="-415.5" font-family="Helvetica,sans-Serif" font-size="10.00">+ Exists()</text>
<text text-anchor="start" x="59" y="-404.5" font-family="Helvetica,sans-Serif" font-size="10.00">+ IsValid()</text>
<text text-anchor="start" x="59" y="-393.5" font-family="Helvetica,sans-Serif" font-size="10.00">+ GetManagerType()</text>
<text text-anchor="start" x="59" y="-382.5" font-family="Helvetica,sans-Serif" font-size="10.00">+ GetDefaultParameters()</text>
<text text-anchor="start" x="59" y="-371.5" font-family="Helvetica,sans-Serif" font-size="10.00">+ analysis_path()</text>
<text text-anchor="start" x="59" y="-360.5" font-family="Helvetica,sans-Serif" font-size="10.00">+ step()</text>
<text text-anchor="start" x="59" y="-349.5" font-family="Helvetica,sans-Serif" font-size="10.00">+ id()</text>
<text text-anchor="start" x="59" y="-338.5" font-family="Helvetica,sans-Serif" font-size="10.00">+ GetInputType()</text>
<text text-anchor="start" x="59" y="-327.5" font-family="Helvetica,sans-Serif" font-size="10.00">+ GetOutputType()</text>
<text text-anchor="start" x="59" y="-316.5" font-family="Helvetica,sans-Serif" font-size="10.00">+ GetSolutionPath()</text>
<text text-anchor="start" x="59" y="-305.5" font-family="Helvetica,sans-Serif" font-size="10.00">+ FromModelPart()</text>
</a>
</g>
</g>
<!-- Node3 -->
<g id="node3" class="node">
<title>Node3</title>
<g id="a_node3"><a xlink:href="classpython__scripts_1_1checkpoint_1_1Snapshot_1_1SnapshotFS.html" target="_top" xlink:title="Class representing a snapshot of a ModelPart state and its associated output file on the filesystem.">
<polygon fill="white" stroke="black" points="4.5,-127.5 4.5,-261.5 113.5,-261.5 113.5,-127.5 4.5,-127.5"/>
<text text-anchor="middle" x="59" y="-249.5" font-family="Helvetica,sans-Serif" font-size="10.00">SnapshotFS</text>
<polyline fill="none" stroke="black" points="4.5,-242.5 113.5,-242.5 "/>
<text text-anchor="middle" x="59" y="-230.5" font-family="Helvetica,sans-Serif" font-size="10.00"> </text>
<polyline fill="none" stroke="black" points="4.5,-223.5 113.5,-223.5 "/>
<text text-anchor="start" x="12.5" y="-211.5" font-family="Helvetica,sans-Serif" font-size="10.00">+ Write()</text>
<text text-anchor="start" x="12.5" y="-200.5" font-family="Helvetica,sans-Serif" font-size="10.00">+ Load()</text>
<text text-anchor="start" x="12.5" y="-189.5" font-family="Helvetica,sans-Serif" font-size="10.00">+ Erase()</text>
<text text-anchor="start" x="12.5" y="-178.5" font-family="Helvetica,sans-Serif" font-size="10.00">+ Exists()</text>
<text text-anchor="start" x="12.5" y="-167.5" font-family="Helvetica,sans-Serif" font-size="10.00">+ IsValid()</text>
<text text-anchor="start" x="12.5" y="-156.5" font-family="Helvetica,sans-Serif" font-size="10.00">+ FromFile()</text>
<text text-anchor="start" x="12.5" y="-145.5" font-family="Helvetica,sans-Serif" font-size="10.00">+ FromModelPart()</text>
<text text-anchor="start" x="12.5" y="-134.5" font-family="Helvetica,sans-Serif" font-size="10.00">+ Collect()</text>
</a>
</g>
</g>
<!-- Node1&#45;&gt;Node3 -->
<g id="edge2" class="edge">
<title>Node1&#45;&gt;Node3</title>
<path fill="none" stroke="midnightblue" d="M88.51,-288.63C85.58,-279.4 82.69,-270.26 79.91,-261.51"/>
<polygon fill="none" stroke="midnightblue" points="85.21,-289.8 91.56,-298.28 91.88,-287.69 85.21,-289.8"/>
</g>
<!-- Node5 -->
<g id="node5" class="node">
<title>Node5</title>
<g id="a_node5"><a xlink:href="classpython__scripts_1_1checkpoint_1_1Snapshot_1_1SnapshotInMemory.html" target="_top" xlink:title="Class representing a snapshot of a ModelPart state in memory (stores a deep copy of the model part).">
<polygon fill="white" stroke="black" points="131.5,-166 131.5,-223 242.5,-223 242.5,-166 131.5,-166"/>
<text text-anchor="middle" x="187" y="-211" font-family="Helvetica,sans-Serif" font-size="10.00">SnapshotInMemory</text>
<polyline fill="none" stroke="black" points="131.5,-204 242.5,-204 "/>
<text text-anchor="middle" x="187" y="-192" font-family="Helvetica,sans-Serif" font-size="10.00"> </text>
<polyline fill="none" stroke="black" points="131.5,-185 242.5,-185 "/>
<text text-anchor="middle" x="187" y="-173" font-family="Helvetica,sans-Serif" font-size="10.00"> </text>
</a>
</g>
</g>
<!-- Node1&#45;&gt;Node5 -->
<g id="edge4" class="edge">
<title>Node1&#45;&gt;Node5</title>
<path fill="none" stroke="midnightblue" d="M157.5,-288.6C165.19,-264.35 172.67,-240.72 178.18,-223.33"/>
<polygon fill="none" stroke="midnightblue" points="154.12,-287.69 154.44,-298.28 160.79,-289.8 154.12,-287.69"/>
</g>
<!-- Node2 -->
<g id="node2" class="node">
<title>Node2</title>
<g id="a_node2"><a xlink:title=" ">
<polygon fill="white" stroke="#bfbfbf" points="84,-535.5 84,-592.5 162,-592.5 162,-535.5 84,-535.5"/>
<text text-anchor="middle" x="123" y="-580.5" font-family="Helvetica,sans-Serif" font-size="10.00">WRAppClass</text>
<polyline fill="none" stroke="#bfbfbf" points="84,-573.5 162,-573.5 "/>
<text text-anchor="middle" x="123" y="-561.5" font-family="Helvetica,sans-Serif" font-size="10.00"> </text>
<polyline fill="none" stroke="#bfbfbf" points="84,-554.5 162,-554.5 "/>
<text text-anchor="middle" x="123" y="-542.5" font-family="Helvetica,sans-Serif" font-size="10.00"> </text>
</a>
</g>
</g>
<!-- Node2&#45;&gt;Node1 -->
<g id="edge1" class="edge">
<title>Node2&#45;&gt;Node1</title>
<path fill="none" stroke="midnightblue" d="M123,-525.04C123,-516.87 123,-507.87 123,-498.55"/>
<polygon fill="none" stroke="midnightblue" points="119.5,-525.26 123,-535.26 126.5,-525.26 119.5,-525.26"/>
</g>
<!-- Node4 -->
<g id="node4" class="node">
<title>Node4</title>
<g id="a_node4"><a xlink:href="classpython__scripts_1_1checkpoint_1_1HDF5Snapshot_1_1HDF5Snapshot.html" target="_top" xlink:title="Class representing a snapshot of a ModelPart state and its associated output file in HDF5 format.">
<polygon fill="white" stroke="black" points="0,-0.5 0,-90.5 118,-90.5 118,-0.5 0,-0.5"/>
<text text-anchor="middle" x="59" y="-78.5" font-family="Helvetica,sans-Serif" font-size="10.00">HDF5Snapshot</text>
<polyline fill="none" stroke="black" points="0,-71.5 118,-71.5 "/>
<text text-anchor="middle" x="59" y="-59.5" font-family="Helvetica,sans-Serif" font-size="10.00"> </text>
<polyline fill="none" stroke="black" points="0,-52.5 118,-52.5 "/>
<text text-anchor="start" x="8" y="-40.5" font-family="Helvetica,sans-Serif" font-size="10.00">+ Erase()</text>
<text text-anchor="start" x="8" y="-29.5" font-family="Helvetica,sans-Serif" font-size="10.00">+ GetManagerType()</text>
<text text-anchor="start" x="8" y="-18.5" font-family="Helvetica,sans-Serif" font-size="10.00">+ GetInputType()</text>
<text text-anchor="start" x="8" y="-7.5" font-family="Helvetica,sans-Serif" font-size="10.00">+ GetOutputType()</text>
</a>
</g>
</g>
<!-- Node3&#45;&gt;Node4 -->
<g id="edge3" class="edge">
<title>Node3&#45;&gt;Node4</title>
<path fill="none" stroke="midnightblue" d="M59,-117.15C59,-108.15 59,-99.2 59,-90.85"/>
<polygon fill="none" stroke="midnightblue" points="55.5,-117.31 59,-127.31 62.5,-117.31 55.5,-117.31"/>
</g>
</g>
</svg>
