<?xml version="1.0" encoding="UTF-8" standalone="no"?>
<!DOCTYPE svg PUBLIC "-//W3C//DTD SVG 1.1//EN"
 "http://www.w3.org/Graphics/SVG/1.1/DTD/svg11.dtd">
<!-- Generated by graphviz version 2.43.0 (0)
 -->
<!-- Title: DataItem Pages: 1 -->
<svg width="346pt" height="254pt"
 viewBox="0.00 0.00 346.00 254.00" xmlns="http://www.w3.org/2000/svg" xmlns:xlink="http://www.w3.org/1999/xlink">
<g id="graph0" class="graph" transform="scale(1 1) rotate(0) translate(4 250)">
<title>DataItem</title>
<polygon fill="white" stroke="transparent" points="-4,4 -4,-250 342,-250 342,4 -4,4"/>
<!-- Node1 -->
<g id="node1" class="node">
<title>Node1</title>
<g id="a_node1"><a xlink:title=" ">
<polygon fill="#bfbfbf" stroke="black" points="145,-94.5 145,-151.5 207,-151.5 207,-94.5 145,-94.5"/>
<text text-anchor="middle" x="176" y="-139.5" font-family="Helvetica,sans-Serif" font-size="10.00">DataItem</text>
<polyline fill="none" stroke="black" points="145,-132.5 207,-132.5 "/>
<text text-anchor="middle" x="176" y="-120.5" font-family="Helvetica,sans-Serif" font-size="10.00"> </text>
<polyline fill="none" stroke="black" points="145,-113.5 207,-113.5 "/>
<text text-anchor="middle" x="176" y="-101.5" font-family="Helvetica,sans-Serif" font-size="10.00"> </text>
</a>
</g>
</g>
<!-- Node4 -->
<g id="node4" class="node">
<title>Node4</title>
<g id="a_node4"><a xlink:href="classpython__scripts_1_1xdmf_1_1DataItem_1_1CoordinateDataItem.html" target="_top" xlink:title=" ">
<polygon fill="white" stroke="black" points="0,-0.5 0,-57.5 116,-57.5 116,-0.5 0,-0.5"/>
<text text-anchor="middle" x="58" y="-45.5" font-family="Helvetica,sans-Serif" font-size="10.00">CoordinateDataItem</text>
<polyline fill="none" stroke="black" points="0,-38.5 116,-38.5 "/>
<text text-anchor="middle" x="58" y="-26.5" font-family="Helvetica,sans-Serif" font-size="10.00"> </text>
<polyline fill="none" stroke="black" points="0,-19.5 116,-19.5 "/>
<text text-anchor="middle" x="58" y="-7.5" font-family="Helvetica,sans-Serif" font-size="10.00"> </text>
</a>
</g>
</g>
<!-- Node1&#45;&gt;Node4 -->
<g id="edge3" class="edge">
<title>Node1&#45;&gt;Node4</title>
<path fill="none" stroke="midnightblue" d="M136.95,-91.55C122.89,-80.59 107.11,-68.29 93.38,-57.59"/>
<polygon fill="none" stroke="midnightblue" points="134.96,-94.44 145,-97.83 139.26,-88.92 134.96,-94.44"/>
</g>
<!-- Node5 -->
<g id="node5" class="node">
<title>Node5</title>
<g id="a_node5"><a xlink:href="classpython__scripts_1_1xdmf_1_1DataItem_1_1LeafDataItem.html" target="_top" xlink:title=" ">
<polygon fill="white" stroke="black" points="134.5,-0.5 134.5,-57.5 217.5,-57.5 217.5,-0.5 134.5,-0.5"/>
<text text-anchor="middle" x="176" y="-45.5" font-family="Helvetica,sans-Serif" font-size="10.00">LeafDataItem</text>
<polyline fill="none" stroke="black" points="134.5,-38.5 217.5,-38.5 "/>
<text text-anchor="start" x="142.5" y="-26.5" font-family="Helvetica,sans-Serif" font-size="10.00">+ text</text>
<polyline fill="none" stroke="black" points="134.5,-19.5 217.5,-19.5 "/>
<text text-anchor="middle" x="176" y="-7.5" font-family="Helvetica,sans-Serif" font-size="10.00"> </text>
</a>
</g>
</g>
<!-- Node1&#45;&gt;Node5 -->
<g id="edge4" class="edge">
<title>Node1&#45;&gt;Node5</title>
<path fill="none" stroke="midnightblue" d="M176,-84.21C176,-75.29 176,-65.95 176,-57.58"/>
<polygon fill="none" stroke="midnightblue" points="172.5,-84.4 176,-94.4 179.5,-84.4 172.5,-84.4"/>
</g>
<!-- Node6 -->
<g id="node6" class="node">
<title>Node6</title>
<g id="a_node6"><a xlink:href="classpython__scripts_1_1xdmf_1_1DataItem_1_1UniformDataItem.html" target="_top" xlink:title=" ">
<polygon fill="white" stroke="black" points="236,-0.5 236,-57.5 338,-57.5 338,-0.5 236,-0.5"/>
<text text-anchor="middle" x="287" y="-45.5" font-family="Helvetica,sans-Serif" font-size="10.00">UniformDataItem</text>
<polyline fill="none" stroke="black" points="236,-38.5 338,-38.5 "/>
<text text-anchor="middle" x="287" y="-26.5" font-family="Helvetica,sans-Serif" font-size="10.00"> </text>
<polyline fill="none" stroke="black" points="236,-19.5 338,-19.5 "/>
<text text-anchor="middle" x="287" y="-7.5" font-family="Helvetica,sans-Serif" font-size="10.00"> </text>
</a>
</g>
</g>
<!-- Node1&#45;&gt;Node6 -->
<g id="edge5" class="edge">
<title>Node1&#45;&gt;Node6</title>
<path fill="none" stroke="midnightblue" d="M215.26,-89.46C227.82,-79.05 241.6,-67.63 253.69,-57.61"/>
<polygon fill="none" stroke="midnightblue" points="212.68,-87.05 207.22,-96.13 217.15,-92.44 212.68,-87.05"/>
</g>
<!-- Node2 -->
<g id="node2" class="node">
<title>Node2</title>
<g id="a_node2"><a xlink:title=" ">
<polygon fill="white" stroke="#bfbfbf" points="125.5,-188.5 125.5,-245.5 162.5,-245.5 162.5,-188.5 125.5,-188.5"/>
<text text-anchor="middle" x="144" y="-233.5" font-family="Helvetica,sans-Serif" font-size="10.00">ABC</text>
<polyline fill="none" stroke="#bfbfbf" points="125.5,-226.5 162.5,-226.5 "/>
<text text-anchor="middle" x="144" y="-214.5" font-family="Helvetica,sans-Serif" font-size="10.00"> </text>
<polyline fill="none" stroke="#bfbfbf" points="125.5,-207.5 162.5,-207.5 "/>
<text text-anchor="middle" x="144" y="-195.5" font-family="Helvetica,sans-Serif" font-size="10.00"> </text>
</a>
</g>
</g>
<!-- Node2&#45;&gt;Node1 -->
<g id="edge1" class="edge">
<title>Node2&#45;&gt;Node1</title>
<path fill="none" stroke="midnightblue" d="M156.94,-178.79C160.1,-169.7 163.43,-160.13 166.41,-151.58"/>
<polygon fill="none" stroke="midnightblue" points="153.58,-177.8 153.6,-188.4 160.19,-180.1 153.58,-177.8"/>
</g>
<!-- Node3 -->
<g id="node3" class="node">
<title>Node3</title>
<g id="a_node3"><a xlink:title=" ">
<polygon fill="white" stroke="#bfbfbf" points="180.5,-188.5 180.5,-245.5 237.5,-245.5 237.5,-188.5 180.5,-188.5"/>
<text text-anchor="middle" x="209" y="-233.5" font-family="Helvetica,sans-Serif" font-size="10.00">Element</text>
<polyline fill="none" stroke="#bfbfbf" points="180.5,-226.5 237.5,-226.5 "/>
<text text-anchor="middle" x="209" y="-214.5" font-family="Helvetica,sans-Serif" font-size="10.00"> </text>
<polyline fill="none" stroke="#bfbfbf" points="180.5,-207.5 237.5,-207.5 "/>
<text text-anchor="middle" x="209" y="-195.5" font-family="Helvetica,sans-Serif" font-size="10.00"> </text>
</a>
</g>
</g>
<!-- Node3&#45;&gt;Node1 -->
<g id="edge2" class="edge">
<title>Node3&#45;&gt;Node1</title>
<path fill="none" stroke="midnightblue" d="M195.65,-178.79C192.39,-169.7 188.96,-160.13 185.89,-151.58"/>
<polygon fill="none" stroke="midnightblue" points="192.43,-180.17 199.1,-188.4 199.02,-177.8 192.43,-180.17"/>
</g>
</g>
</svg>
