<?xml version="1.0" encoding="UTF-8" standalone="no"?>
<!DOCTYPE svg PUBLIC "-//W3C//DTD SVG 1.1//EN"
 "http://www.w3.org/Graphics/SVG/1.1/DTD/svg11.dtd">
<!-- Generated by graphviz version 2.43.0 (0)
 -->
<!-- Title: GridTree Pages: 1 -->
<svg width="73pt" height="227pt"
 viewBox="0.00 0.00 73.00 227.00" xmlns="http://www.w3.org/2000/svg" xmlns:xlink="http://www.w3.org/1999/xlink">
<g id="graph0" class="graph" transform="scale(1 1) rotate(0) translate(4 223)">
<title>GridTree</title>
<!-- Node1 -->
<g id="Node000001" class="node">
<title>Node1</title>
<g id="a_Node000001"><a xlink:title=" ">
<polygon fill="#999999" stroke="transparent" points="65,-49 0,-49 0,0 65,0 65,-49"/>
<text text-anchor="start" x="12.5" y="-36.5" font-family="Helvetica,sans-Serif" font-size="10.00">GridTree</text>
<text text-anchor="start" x="31" y="-21.5" font-family="Helvetica,sans-Serif" font-size="10.00"> </text>
<text text-anchor="start" x="4.5" y="-6.5" font-family="Helvetica,sans-Serif" font-size="10.00">+</text>
<text text-anchor="start" x="17.5" y="-6.5" font-family="Helvetica,sans-Serif" font-size="10.00">append()</text>
<polygon fill="#666666" stroke="#666666" points="0.5,-31.5 0.5,-31.5 65.5,-31.5 65.5,-31.5 0.5,-31.5"/>
<polygon fill="#666666" stroke="#666666" points="0.5,-16.5 0.5,-16.5 65.5,-16.5 65.5,-16.5 0.5,-16.5"/>
<polygon fill="none" stroke="#666666" points="0,0 0,-49 65,-49 65,0 0,0"/>
</a>
</g>
</g>
<!-- Node2 -->
<g id="Node000002" class="node">
<title>Node2</title>
<g id="a_Node000002"><a xlink:href="classpython__scripts_1_1xdmf_1_1Grid_1_1Grid.html" target="_top" xlink:title=" ">
<polygon fill="white" stroke="transparent" points="48,-134 17,-134 17,-85 48,-85 48,-134"/>
<text text-anchor="start" x="22.5" y="-121.5" font-family="Helvetica,sans-Serif" font-size="10.00">Grid</text>
<text text-anchor="start" x="31" y="-106.5" font-family="Helvetica,sans-Serif" font-size="10.00"> </text>
<text text-anchor="start" x="31" y="-91.5" font-family="Helvetica,sans-Serif" font-size="10.00"> </text>
<polygon fill="#666666" stroke="#666666" points="17.5,-116.5 17.5,-116.5 48.5,-116.5 48.5,-116.5 17.5,-116.5"/>
<polygon fill="#666666" stroke="#666666" points="17.5,-101.5 17.5,-101.5 48.5,-101.5 48.5,-101.5 17.5,-101.5"/>
<polygon fill="none" stroke="#666666" points="17,-85 17,-134 48,-134 48,-85 17,-85"/>
</a>
</g>
</g>
<!-- Node2&#45;&gt;Node1 -->
<g id="edge1_Node000001_Node000002" class="edge">
<title>Node2&#45;&gt;Node1</title>
<g id="a_edge1_Node000001_Node000002"><a xlink:title=" ">
<path fill="none" stroke="#63b8ff" d="M32.5,-74.77C32.5,-66.17 32.5,-57.1 32.5,-49.12"/>
<polygon fill="none" stroke="#63b8ff" points="29,-74.94 32.5,-84.94 36,-74.94 29,-74.94"/>
</a>
</g>
</g>
<!-- Node3 -->
<g id="Node000003" class="node">
<title>Node3</title>
<g id="a_Node000003"><a xlink:title=" ">
<polygon fill="white" stroke="transparent" points="58,-219 7,-219 7,-170 58,-170 58,-219"/>
<text text-anchor="start" x="12.5" y="-206.5" font-family="Helvetica,sans-Serif" font-size="10.00">Element</text>
<text text-anchor="start" x="31" y="-191.5" font-family="Helvetica,sans-Serif" font-size="10.00"> </text>
<text text-anchor="start" x="31" y="-176.5" font-family="Helvetica,sans-Serif" font-size="10.00"> </text>
<polygon fill="#666666" stroke="#666666" points="7.5,-201.5 7.5,-201.5 58.5,-201.5 58.5,-201.5 7.5,-201.5"/>
<polygon fill="#666666" stroke="#666666" points="7.5,-186.5 7.5,-186.5 58.5,-186.5 58.5,-186.5 7.5,-186.5"/>
<polygon fill="none" stroke="#666666" points="7,-170 7,-219 58,-219 58,-170 7,-170"/>
</a>
</g>
</g>
<!-- Node3&#45;&gt;Node2 -->
<g id="edge2_Node000002_Node000003" class="edge">
<title>Node3&#45;&gt;Node2</title>
<g id="a_edge2_Node000002_Node000003"><a xlink:title=" ">
<path fill="none" stroke="#63b8ff" d="M32.5,-159.77C32.5,-151.17 32.5,-142.1 32.5,-134.12"/>
<polygon fill="none" stroke="#63b8ff" points="29,-159.94 32.5,-169.94 36,-159.94 29,-159.94"/>
</a>
</g>
</g>
</g>
</svg>
