<?xml version="1.0" encoding="UTF-8" standalone="no"?>
<!DOCTYPE svg PUBLIC "-//W3C//DTD SVG 1.1//EN"
 "http://www.w3.org/Graphics/SVG/1.1/DTD/svg11.dtd">
<!-- Generated by graphviz version 2.43.0 (0)
 -->
<!-- Title: CheckpointProcess Pages: 1 -->
<svg width="315pt" height="142pt"
 viewBox="0.00 0.00 314.50 142.00" xmlns="http://www.w3.org/2000/svg" xmlns:xlink="http://www.w3.org/1999/xlink">

<svg id="main" version="1.1" xmlns="http://www.w3.org/2000/svg" xmlns:xlink="http://www.w3.org/1999/xlink" xml:space="preserve" onload="init(evt)">
<style type="text/css"><![CDATA[
.node, .edge {opacity: 0.7;}
.node.selected, .edge.selected {opacity: 1;}
.edge:hover path { stroke: red; }
.edge:hover polygon { stroke: red; fill: red; }
]]></style>
<script type="application/ecmascript" xlink:href="svg.min.js"/>
<svg id="graph" class="graph">
<g id="graph0" class="graph" transform="scale(1 1) rotate(0) translate(4 138)">
<title>CheckpointProcess</title>
<!-- Node1 -->
<g id="Node000001" class="node">
<title>Node1</title>
<g id="a_Node000001"><a xlink:title="Main interface process for checkpointing.">
<polygon fill="#999999" stroke="transparent" points="195.5,-49 92.5,-49 92.5,0 195.5,0 195.5,-49"/>
<text text-anchor="start" x="98" y="-36.5" font-family="Helvetica,sans-Serif" font-size="10.00">CheckpointProcess</text>
<text text-anchor="start" x="142.5" y="-21.5" font-family="Helvetica,sans-Serif" font-size="10.00"> </text>
<text text-anchor="start" x="142.5" y="-6.5" font-family="Helvetica,sans-Serif" font-size="10.00"> </text>
<polygon fill="#666666" stroke="#666666" points="93,-31.5 93,-31.5 196,-31.5 196,-31.5 93,-31.5"/>
<polygon fill="#666666" stroke="#666666" points="93,-16.5 93,-16.5 196,-16.5 196,-16.5 93,-16.5"/>
<polygon fill="none" stroke="#666666" points="92.5,0 92.5,-49 195.5,-49 195.5,0 92.5,0"/>
</a>
</g>
</g>
<!-- Node2 -->
<g id="Node000002" class="node">
<title>Node2</title>
<g id="a_Node000002"><a xlink:title=" ">
<polygon fill="white" stroke="transparent" points="48,-134 0,-134 0,-85 48,-85 48,-134"/>
<text text-anchor="start" x="5" y="-121.5" font-family="Helvetica,sans-Serif" font-size="10.00">Process</text>
<text text-anchor="start" x="22" y="-106.5" font-family="Helvetica,sans-Serif" font-size="10.00"> </text>
<text text-anchor="start" x="22" y="-91.5" font-family="Helvetica,sans-Serif" font-size="10.00"> </text>
<polygon fill="#666666" stroke="#666666" points="0,-116.5 0,-116.5 48,-116.5 48,-116.5 0,-116.5"/>
<polygon fill="#666666" stroke="#666666" points="0,-101.5 0,-101.5 48,-101.5 48,-101.5 0,-101.5"/>
<polygon fill="none" stroke="#666666" points="0,-85 0,-134 48,-134 48,-85 0,-85"/>
</a>
</g>
</g>
<!-- Node2&#45;&gt;Node1 -->
<g id="edge1_Node000001_Node000002" class="edge">
<title>Node2&#45;&gt;Node1</title>
<g id="a_edge1_Node000001_Node000002"><a xlink:title=" ">
<path fill="none" stroke="#63b8ff" d="M56.46,-85.38C56.64,-85.25 56.82,-85.13 57,-85 74.11,-73.06 93.23,-59.96 109.18,-49.09"/>
<polygon fill="none" stroke="#63b8ff" points="54.28,-82.63 48.11,-91.25 58.31,-88.36 54.28,-82.63"/>
</a>
</g>
</g>
<!-- Node3 -->
<g id="Node000003" class="node">
<title>Node3</title>
<g id="a_Node000003"><a xlink:title=" ">
<polygon fill="white" stroke="transparent" points="138,-134 66,-134 66,-85 138,-85 138,-134"/>
<text text-anchor="start" x="71" y="-121.5" font-family="Helvetica,sans-Serif" font-size="10.00">WRAppClass</text>
<text text-anchor="start" x="100" y="-106.5" font-family="Helvetica,sans-Serif" font-size="10.00"> </text>
<text text-anchor="start" x="100" y="-91.5" font-family="Helvetica,sans-Serif" font-size="10.00"> </text>
<polygon fill="#666666" stroke="#666666" points="66,-116.5 66,-116.5 138,-116.5 138,-116.5 66,-116.5"/>
<polygon fill="#666666" stroke="#666666" points="66,-101.5 66,-101.5 138,-101.5 138,-101.5 66,-101.5"/>
<polygon fill="none" stroke="#666666" points="66,-85 66,-134 138,-134 138,-85 66,-85"/>
</a>
</g>
</g>
<!-- Node3&#45;&gt;Node1 -->
<g id="edge2_Node000001_Node000003" class="edge">
<title>Node3&#45;&gt;Node1</title>
<g id="a_edge2_Node000001_Node000003"><a xlink:title=" ">
<path fill="none" stroke="#63b8ff" d="M118.49,-75.91C123.02,-66.97 127.83,-57.45 132.05,-49.12"/>
<polygon fill="none" stroke="#63b8ff" points="115.32,-74.43 113.92,-84.94 121.56,-77.6 115.32,-74.43"/>
</a>
</g>
</g>
<!-- Node4 -->
<g id="Node000004" class="node">
<title>Node4</title>
<g id="a_Node000004"><a xlink:title=" ">
<polygon fill="white" stroke="transparent" points="217.5,-134 156.5,-134 156.5,-85 217.5,-85 217.5,-134"/>
<text text-anchor="start" x="162" y="-121.5" font-family="Helvetica,sans-Serif" font-size="10.00">metaclass</text>
<text text-anchor="start" x="185.5" y="-106.5" font-family="Helvetica,sans-Serif" font-size="10.00"> </text>
<text text-anchor="start" x="185.5" y="-91.5" font-family="Helvetica,sans-Serif" font-size="10.00"> </text>
<polygon fill="#666666" stroke="#666666" points="157,-116.5 157,-116.5 218,-116.5 218,-116.5 157,-116.5"/>
<polygon fill="#666666" stroke="#666666" points="157,-101.5 157,-101.5 218,-101.5 218,-101.5 157,-101.5"/>
<polygon fill="none" stroke="#666666" points="156.5,-85 156.5,-134 217.5,-134 217.5,-85 156.5,-85"/>
</a>
</g>
</g>
<!-- Node4&#45;&gt;Node1 -->
<g id="edge3_Node000001_Node000004" class="edge">
<title>Node4&#45;&gt;Node1</title>
<g id="a_edge3_Node000001_Node000004"><a xlink:title=" ">
<path fill="none" stroke="#63b8ff" d="M170.11,-75.91C165.48,-66.97 160.55,-57.45 156.24,-49.12"/>
<polygon fill="none" stroke="#63b8ff" points="167.09,-77.67 174.79,-84.94 173.3,-74.45 167.09,-77.67"/>
</a>
</g>
</g>
<!-- Node5 -->
<g id="Node000005" class="node">
<title>Node5</title>
<g id="a_Node000005"><a xlink:title=" ">
<polygon fill="white" stroke="transparent" points="306.5,-134 235.5,-134 235.5,-85 306.5,-85 306.5,-134"/>
<text text-anchor="start" x="241" y="-121.5" font-family="Helvetica,sans-Serif" font-size="10.00">WRAppMeta</text>
<text text-anchor="start" x="269.5" y="-106.5" font-family="Helvetica,sans-Serif" font-size="10.00"> </text>
<text text-anchor="start" x="269.5" y="-91.5" font-family="Helvetica,sans-Serif" font-size="10.00"> </text>
<polygon fill="#666666" stroke="#666666" points="236,-116.5 236,-116.5 307,-116.5 307,-116.5 236,-116.5"/>
<polygon fill="#666666" stroke="#666666" points="236,-101.5 236,-101.5 307,-101.5 307,-101.5 236,-101.5"/>
<polygon fill="none" stroke="#666666" points="235.5,-85 235.5,-134 306.5,-134 306.5,-85 235.5,-85"/>
</a>
</g>
</g>
<!-- Node5&#45;&gt;Node1 -->
<g id="edge4_Node000001_Node000005" class="edge">
<title>Node5&#45;&gt;Node1</title>
<g id="a_edge4_Node000001_Node000005"><a xlink:title=" ">
<path fill="none" stroke="#63b8ff" d="M226.59,-79.48C211.47,-69.59 194.75,-58.66 180.33,-49.24"/>
<polygon fill="none" stroke="#63b8ff" points="225,-82.62 235.29,-85.16 228.83,-76.76 225,-82.62"/>
</a>
</g>
</g>
</g>
</svg>
</svg>

<style type='text/css'>
<![CDATA[
[data-mouse-over-selected='false'] { opacity: 0.7; }
[data-mouse-over-selected='true']  { opacity: 1.0; }
]]>
</style>
<script type="application/ecmascript"><![CDATA[
document.addEventListener('DOMContentLoaded', (event) => {
  highlightEdges();
  highlightAdjacentNodes();
});
]]></script>
</svg>
