<?xml version="1.0" encoding="UTF-8" standalone="no"?>
<!DOCTYPE svg PUBLIC "-//W3C//DTD SVG 1.1//EN"
 "http://www.w3.org/Graphics/SVG/1.1/DTD/svg11.dtd">
<!-- Generated by graphviz version 2.43.0 (0)
 -->
<!-- Title: HDF5SnapshotIO Pages: 1 -->
<!--zoomable 497 -->
<svg id="main" version="1.1" xmlns="http://www.w3.org/2000/svg" xmlns:xlink="http://www.w3.org/1999/xlink" xml:space="preserve" onload="init(evt)">
<style type="text/css"><![CDATA[
.edge:hover path { stroke: red; }
.edge:hover polygon { stroke: red; fill: red; }
]]></style>
<script type="text/javascript"><![CDATA[
var edges = document.getElementsByTagName('g');
if (edges && edges.length) {
  for (var i=0;i<edges.length;i++) {
    if (edges[i].id.substr(0,4)=='edge') {
      edges[i].setAttribute('class','edge');
    }
  }
}
]]></script>
        <defs>
                <circle id="rim" cx="0" cy="0" r="7"/>
                <circle id="rim2" cx="0" cy="0" r="3.5"/>
                <g id="zoomPlus">
                        <use xlink:href="#rim" fill="#404040">
                                <set attributeName="fill" to="#808080" begin="zoomplus.mouseover" end="zoomplus.mouseout"/>
                        </use>
                        <path d="M-4,0h8M0,-4v8" fill="none" stroke="white" stroke-width="1.5" pointer-events="none"/>
                </g>
                <g id="zoomMin">
                        <use xlink:href="#rim" fill="#404040">
                                <set attributeName="fill" to="#808080" begin="zoomminus.mouseover" end="zoomminus.mouseout"/>
                        </use>
                        <path d="M-4,0h8" fill="none" stroke="white" stroke-width="1.5" pointer-events="none"/>
                </g>
                <g id="dirArrow">
                        <path fill="none" stroke="white" stroke-width="1.5" d="M0,-3.0v7 M-2.5,-0.5L0,-3.0L2.5,-0.5"/>
                </g>
               <g id="resetDef">
                       <use xlink:href="#rim2" fill="#404040">
                               <set attributeName="fill" to="#808080" begin="reset.mouseover" end="reset.mouseout"/>
                       </use>
               </g>
        </defs>

<script type="text/javascript">
var viewWidth = 336;
var viewHeight = 497;
var sectionId = 'dynsection-0';
</script>
<script xlink:href="svgpan.js"/>
<svg id="graph" class="graph">
<g id="viewport">
<title>HDF5SnapshotIO</title>
<polygon fill="white" stroke="transparent" points="-4,4 -4,-493 332,-493 332,4 -4,4"/>
<!-- Node1 -->
<g id="node1" class="node">
<title>Node1</title>
<g id="a_node1"><a xlink:title="Base class with common functionality to writing/loading snapshots to/from disk.">
<polygon fill="#bfbfbf" stroke="black" points="86,-94.5 86,-195.5 241,-195.5 241,-94.5 86,-94.5"/>
<text text-anchor="middle" x="163.5" y="-183.5" font-family="Helvetica,sans-Serif" font-size="10.00">HDF5SnapshotIO</text>
<polyline fill="none" stroke="black" points="86,-176.5 241,-176.5 "/>
<text text-anchor="middle" x="163.5" y="-164.5" font-family="Helvetica,sans-Serif" font-size="10.00"> </text>
<polyline fill="none" stroke="black" points="86,-157.5 241,-157.5 "/>
<text text-anchor="start" x="94" y="-145.5" font-family="Helvetica,sans-Serif" font-size="10.00">+ GetID()</text>
<text text-anchor="start" x="94" y="-134.5" font-family="Helvetica,sans-Serif" font-size="10.00">+ GetPath()</text>
<text text-anchor="start" x="94" y="-123.5" font-family="Helvetica,sans-Serif" font-size="10.00">+ GetDefaultParameters()</text>
<text text-anchor="start" x="94" y="-112.5" font-family="Helvetica,sans-Serif" font-size="10.00">+ parameters()</text>
<text text-anchor="start" x="94" y="-101.5" font-family="Helvetica,sans-Serif" font-size="10.00">+ GetDefaultIOParameters()</text>
</a>
</g>
</g>
<!-- Node5 -->
<g id="node5" class="node">
<title>Node5</title>
<g id="a_node5"><a xlink:href="classpython__scripts_1_1checkpoint_1_1HDF5SnapshotIO_1_1HDF5SnapshotInput.html" target="_top" xlink:title="Input class for reading most data from an HDF5 snapshot to a model part.">
<polygon fill="white" stroke="black" points="0,-0.5 0,-57.5 155,-57.5 155,-0.5 0,-0.5"/>
<text text-anchor="middle" x="77.5" y="-45.5" font-family="Helvetica,sans-Serif" font-size="10.00">HDF5SnapshotInput</text>
<polyline fill="none" stroke="black" points="0,-38.5 155,-38.5 "/>
<text text-anchor="middle" x="77.5" y="-26.5" font-family="Helvetica,sans-Serif" font-size="10.00"> </text>
<polyline fill="none" stroke="black" points="0,-19.5 155,-19.5 "/>
<text text-anchor="start" x="8" y="-7.5" font-family="Helvetica,sans-Serif" font-size="10.00">+ GetDefaultIOParameters()</text>
</a>
</g>
</g>
<!-- Node1&#45;&gt;Node5 -->
<g id="edge4" class="edge">
<title>Node1&#45;&gt;Node5</title>
<path fill="none" stroke="midnightblue" d="M119.98,-86.31C112.43,-76.3 104.89,-66.31 98.31,-57.59"/>
<polygon fill="none" stroke="midnightblue" points="117.21,-88.45 126.03,-94.33 122.8,-84.24 117.21,-88.45"/>
</g>
<!-- Node6 -->
<g id="node6" class="node">
<title>Node6</title>
<g id="a_node6"><a xlink:href="classpython__scripts_1_1checkpoint_1_1HDF5SnapshotIO_1_1HDF5SnapshotOutput.html" target="_top" xlink:title="Output class for writing most data in the model part to an HDF5 snapshot.">
<polygon fill="white" stroke="black" points="173,-0.5 173,-57.5 328,-57.5 328,-0.5 173,-0.5"/>
<text text-anchor="middle" x="250.5" y="-45.5" font-family="Helvetica,sans-Serif" font-size="10.00">HDF5SnapshotOutput</text>
<polyline fill="none" stroke="black" points="173,-38.5 328,-38.5 "/>
<text text-anchor="middle" x="250.5" y="-26.5" font-family="Helvetica,sans-Serif" font-size="10.00"> </text>
<polyline fill="none" stroke="black" points="173,-19.5 328,-19.5 "/>
<text text-anchor="start" x="181" y="-7.5" font-family="Helvetica,sans-Serif" font-size="10.00">+ GetDefaultIOParameters()</text>
</a>
</g>
</g>
<!-- Node1&#45;&gt;Node6 -->
<g id="edge5" class="edge">
<title>Node1&#45;&gt;Node6</title>
<path fill="none" stroke="midnightblue" d="M207.52,-86.31C215.17,-76.3 222.79,-66.31 229.44,-57.59"/>
<polygon fill="none" stroke="midnightblue" points="204.69,-84.26 201.41,-94.33 210.26,-88.5 204.69,-84.26"/>
</g>
<!-- Node2 -->
<g id="node2" class="node">
<title>Node2</title>
<g id="a_node2"><a xlink:href="classpython__scripts_1_1checkpoint_1_1SnapshotIO_1_1SnapshotFSIO.html" target="_top" xlink:title="Base class for Snapshot s that store their data on the filesystem.">
<polygon fill="white" stroke="black" points="122,-232.5 122,-300.5 205,-300.5 205,-232.5 122,-232.5"/>
<text text-anchor="middle" x="163.5" y="-288.5" font-family="Helvetica,sans-Serif" font-size="10.00">SnapshotFSIO</text>
<polyline fill="none" stroke="black" points="122,-281.5 205,-281.5 "/>
<text text-anchor="middle" x="163.5" y="-269.5" font-family="Helvetica,sans-Serif" font-size="10.00"> </text>
<polyline fill="none" stroke="black" points="122,-262.5 205,-262.5 "/>
<text text-anchor="start" x="130" y="-250.5" font-family="Helvetica,sans-Serif" font-size="10.00">+ GetID()</text>
<text text-anchor="start" x="130" y="-239.5" font-family="Helvetica,sans-Serif" font-size="10.00">+ GetPath()</text>
</a>
</g>
</g>
<!-- Node2&#45;&gt;Node1 -->
<g id="edge1" class="edge">
<title>Node2&#45;&gt;Node1</title>
<path fill="none" stroke="midnightblue" d="M163.5,-222.05C163.5,-213.47 163.5,-204.41 163.5,-195.65"/>
<polygon fill="none" stroke="midnightblue" points="160,-222.21 163.5,-232.21 167,-222.21 160,-222.21"/>
</g>
<!-- Node3 -->
<g id="node3" class="node">
<title>Node3</title>
<g id="a_node3"><a xlink:href="classpython__scripts_1_1checkpoint_1_1SnapshotIO_1_1SnapshotIO.html" target="_top" xlink:title="Interface for performing Snapshot input/output operations.">
<polygon fill="white" stroke="black" points="91.5,-337.5 91.5,-394.5 235.5,-394.5 235.5,-337.5 91.5,-337.5"/>
<text text-anchor="middle" x="163.5" y="-382.5" font-family="Helvetica,sans-Serif" font-size="10.00">SnapshotIO</text>
<polyline fill="none" stroke="black" points="91.5,-375.5 235.5,-375.5 "/>
<text text-anchor="middle" x="163.5" y="-363.5" font-family="Helvetica,sans-Serif" font-size="10.00"> </text>
<polyline fill="none" stroke="black" points="91.5,-356.5 235.5,-356.5 "/>
<text text-anchor="start" x="99.5" y="-344.5" font-family="Helvetica,sans-Serif" font-size="10.00">+ GetDefaultParameters()</text>
</a>
</g>
</g>
<!-- Node3&#45;&gt;Node2 -->
<g id="edge2" class="edge">
<title>Node3&#45;&gt;Node2</title>
<path fill="none" stroke="midnightblue" d="M163.5,-327.06C163.5,-318.39 163.5,-309.24 163.5,-300.79"/>
<polygon fill="none" stroke="midnightblue" points="160,-327.32 163.5,-337.32 167,-327.32 160,-327.32"/>
</g>
<!-- Node4 -->
<g id="node4" class="node">
<title>Node4</title>
<g id="a_node4"><a xlink:title=" ">
<polygon fill="white" stroke="#bfbfbf" points="124.5,-431.5 124.5,-488.5 202.5,-488.5 202.5,-431.5 124.5,-431.5"/>
<text text-anchor="middle" x="163.5" y="-476.5" font-family="Helvetica,sans-Serif" font-size="10.00">WRAppClass</text>
<polyline fill="none" stroke="#bfbfbf" points="124.5,-469.5 202.5,-469.5 "/>
<text text-anchor="middle" x="163.5" y="-457.5" font-family="Helvetica,sans-Serif" font-size="10.00"> </text>
<polyline fill="none" stroke="#bfbfbf" points="124.5,-450.5 202.5,-450.5 "/>
<text text-anchor="middle" x="163.5" y="-438.5" font-family="Helvetica,sans-Serif" font-size="10.00"> </text>
</a>
</g>
</g>
<!-- Node4&#45;&gt;Node3 -->
<g id="edge3" class="edge">
<title>Node4&#45;&gt;Node3</title>
<path fill="none" stroke="midnightblue" d="M163.5,-421.21C163.5,-412.29 163.5,-402.95 163.5,-394.58"/>
<polygon fill="none" stroke="midnightblue" points="160,-421.4 163.5,-431.4 167,-421.4 160,-421.4"/>
</g>
</g>
</svg>
        <g id="navigator" transform="translate(0 0)" fill="#404254">
                <rect fill="#f2f5e9" fill-opacity="0.5" stroke="#606060" stroke-width=".5" x="0" y="0" width="60" height="60"/>
                <use id="zoomplus" xlink:href="#zoomPlus" x="17" y="9" onmousedown="handleZoom(evt,'in')"/>
                <use id="zoomminus" xlink:href="#zoomMin" x="42" y="9" onmousedown="handleZoom(evt,'out')"/>
                <use id="reset" xlink:href="#resetDef" x="30" y="36" onmousedown="handleReset()"/>
                <g id="arrowUp" xlink:href="#dirArrow" transform="translate(30 24)" onmousedown="handlePan(0,-1)">
                  <use xlink:href="#rim" fill="#404040">
                        <set attributeName="fill" to="#808080" begin="arrowUp.mouseover" end="arrowUp.mouseout"/>
                  </use>
                  <path fill="none" stroke="white" stroke-width="1.5" d="M0,-3.0v7 M-2.5,-0.5L0,-3.0L2.5,-0.5"/>
                </g>
                <g id="arrowRight" xlink:href="#dirArrow" transform="rotate(90) translate(36 -43)" onmousedown="handlePan(1,0)">
                  <use xlink:href="#rim" fill="#404040">
                        <set attributeName="fill" to="#808080" begin="arrowRight.mouseover" end="arrowRight.mouseout"/>
                  </use>
                  <path fill="none" stroke="white" stroke-width="1.5" d="M0,-3.0v7 M-2.5,-0.5L0,-3.0L2.5,-0.5"/>
                </g>
                <g id="arrowDown" xlink:href="#dirArrow" transform="rotate(180) translate(-30 -48)" onmousedown="handlePan(0,1)">
                  <use xlink:href="#rim" fill="#404040">
                        <set attributeName="fill" to="#808080" begin="arrowDown.mouseover" end="arrowDown.mouseout"/>
                  </use>
                  <path fill="none" stroke="white" stroke-width="1.5" d="M0,-3.0v7 M-2.5,-0.5L0,-3.0L2.5,-0.5"/>
                </g>
                <g id="arrowLeft" xlink:href="#dirArrow" transform="rotate(270) translate(-36 17)" onmousedown="handlePan(-1,0)">
                  <use xlink:href="#rim" fill="#404040">
                        <set attributeName="fill" to="#808080" begin="arrowLeft.mouseover" end="arrowLeft.mouseout"/>
                  </use>
                  <path fill="none" stroke="white" stroke-width="1.5" d="M0,-3.0v7 M-2.5,-0.5L0,-3.0L2.5,-0.5"/>
                </g>
        </g>
        <svg viewBox="0 0 15 15" width="100%" height="30px" preserveAspectRatio="xMaxYMin meet">
         <g id="arrow_out" transform="scale(0.3 0.3)">
          <a xlink:href="classpython__scripts_1_1checkpoint_1_1HDF5SnapshotIO_1_1HDF5SnapshotIO__inherit__graph_org.svg" target="_base">
           <rect id="button" ry="5" rx="5" y="6" x="6" height="38" width="38"
                fill="#f2f5e9" fill-opacity="0.5" stroke="#606060" stroke-width="1.0"/>
           <path id="arrow"
             d="M 11.500037,31.436501 C 11.940474,20.09759 22.043105,11.32322 32.158766,21.979434 L 37.068811,17.246167 C 37.068811,17.246167 37.088388,32 37.088388,32 L 22.160133,31.978069 C 22.160133,31.978069 26.997745,27.140456 26.997745,27.140456 C 18.528582,18.264221 13.291696,25.230495 11.500037,31.436501 z"
             style="fill:#404040;"/>
          </a>
         </g>
        </svg>
</svg>
