<?xml version="1.0" encoding="UTF-8" standalone="no"?>
<!DOCTYPE svg PUBLIC "-//W3C//DTD SVG 1.1//EN"
 "http://www.w3.org/Graphics/SVG/1.1/DTD/svg11.dtd">
<!-- Generated by graphviz version 2.43.0 (0)
 -->
<!-- Title: DataType Pages: 1 -->
<svg width="228pt" height="254pt"
 viewBox="0.00 0.00 228.00 254.00" xmlns="http://www.w3.org/2000/svg" xmlns:xlink="http://www.w3.org/1999/xlink">
<g id="graph0" class="graph" transform="scale(1 1) rotate(0) translate(4 250)">
<title>DataType</title>
<polygon fill="white" stroke="transparent" points="-4,4 -4,-250 224,-250 224,4 -4,4"/>
<!-- Node1 -->
<g id="node1" class="node">
<title>Node1</title>
<g id="a_node1"><a xlink:title=" ">
<polygon fill="#bfbfbf" stroke="black" points="59,-94.5 59,-151.5 160,-151.5 160,-94.5 59,-94.5"/>
<text text-anchor="middle" x="109.5" y="-139.5" font-family="Helvetica,sans-Serif" font-size="10.00">DataType</text>
<polyline fill="none" stroke="black" points="59,-132.5 160,-132.5 "/>
<text text-anchor="middle" x="109.5" y="-120.5" font-family="Helvetica,sans-Serif" font-size="10.00"> </text>
<polyline fill="none" stroke="black" points="59,-113.5 160,-113.5 "/>
<text text-anchor="start" x="67" y="-101.5" font-family="Helvetica,sans-Serif" font-size="10.00">+ GetAttributes()</text>
</a>
</g>
</g>
<!-- Node3 -->
<g id="node3" class="node">
<title>Node3</title>
<g id="a_node3"><a xlink:href="classpython__scripts_1_1xdmf_1_1DataType_1_1Double.html" target="_top" xlink:title=" ">
<polygon fill="white" stroke="black" points="0,-0.5 0,-57.5 101,-57.5 101,-0.5 0,-0.5"/>
<text text-anchor="middle" x="50.5" y="-45.5" font-family="Helvetica,sans-Serif" font-size="10.00">Double</text>
<polyline fill="none" stroke="black" points="0,-38.5 101,-38.5 "/>
<text text-anchor="middle" x="50.5" y="-26.5" font-family="Helvetica,sans-Serif" font-size="10.00"> </text>
<polyline fill="none" stroke="black" points="0,-19.5 101,-19.5 "/>
<text text-anchor="start" x="8" y="-7.5" font-family="Helvetica,sans-Serif" font-size="10.00">+ GetAttributes()</text>
</a>
</g>
</g>
<!-- Node1&#45;&gt;Node3 -->
<g id="edge2" class="edge">
<title>Node1&#45;&gt;Node3</title>
<path fill="none" stroke="midnightblue" d="M86.38,-85.95C80.33,-76.52 73.91,-66.5 68.19,-57.58"/>
<polygon fill="none" stroke="midnightblue" points="83.45,-87.87 91.8,-94.4 89.35,-84.09 83.45,-87.87"/>
</g>
<!-- Node4 -->
<g id="node4" class="node">
<title>Node4</title>
<g id="a_node4"><a xlink:href="classpython__scripts_1_1xdmf_1_1DataType_1_1Int.html" target="_top" xlink:title=" ">
<polygon fill="white" stroke="black" points="119,-0.5 119,-57.5 220,-57.5 220,-0.5 119,-0.5"/>
<text text-anchor="middle" x="169.5" y="-45.5" font-family="Helvetica,sans-Serif" font-size="10.00">Int</text>
<polyline fill="none" stroke="black" points="119,-38.5 220,-38.5 "/>
<text text-anchor="middle" x="169.5" y="-26.5" font-family="Helvetica,sans-Serif" font-size="10.00"> </text>
<polyline fill="none" stroke="black" points="119,-19.5 220,-19.5 "/>
<text text-anchor="start" x="127" y="-7.5" font-family="Helvetica,sans-Serif" font-size="10.00">+ GetAttributes()</text>
</a>
</g>
</g>
<!-- Node1&#45;&gt;Node4 -->
<g id="edge3" class="edge">
<title>Node1&#45;&gt;Node4</title>
<path fill="none" stroke="midnightblue" d="M133.01,-85.95C139.16,-76.52 145.7,-66.5 151.51,-57.58"/>
<polygon fill="none" stroke="midnightblue" points="130.03,-84.11 127.5,-94.4 135.9,-87.93 130.03,-84.11"/>
</g>
<!-- Node2 -->
<g id="node2" class="node">
<title>Node2</title>
<g id="a_node2"><a xlink:title=" ">
<polygon fill="white" stroke="#bfbfbf" points="91,-188.5 91,-245.5 128,-245.5 128,-188.5 91,-188.5"/>
<text text-anchor="middle" x="109.5" y="-233.5" font-family="Helvetica,sans-Serif" font-size="10.00">ABC</text>
<polyline fill="none" stroke="#bfbfbf" points="91,-226.5 128,-226.5 "/>
<text text-anchor="middle" x="109.5" y="-214.5" font-family="Helvetica,sans-Serif" font-size="10.00"> </text>
<polyline fill="none" stroke="#bfbfbf" points="91,-207.5 128,-207.5 "/>
<text text-anchor="middle" x="109.5" y="-195.5" font-family="Helvetica,sans-Serif" font-size="10.00"> </text>
</a>
</g>
</g>
<!-- Node2&#45;&gt;Node1 -->
<g id="edge1" class="edge">
<title>Node2&#45;&gt;Node1</title>
<path fill="none" stroke="midnightblue" d="M109.5,-178.21C109.5,-169.29 109.5,-159.95 109.5,-151.58"/>
<polygon fill="none" stroke="midnightblue" points="106,-178.4 109.5,-188.4 113,-178.4 106,-178.4"/>
</g>
</g>
</svg>
