<?xml version="1.0" encoding="UTF-8" standalone="no"?>
<!DOCTYPE svg PUBLIC "-//W3C//DTD SVG 1.1//EN"
 "http://www.w3.org/Graphics/SVG/1.1/DTD/svg11.dtd">
<!-- Generated by graphviz version 2.43.0 (0)
 -->
<!-- Title: Modulo&lt; TValue &gt; Pages: 1 -->
<svg width="146pt" height="232pt"
 viewBox="0.00 0.00 146.00 232.00" xmlns="http://www.w3.org/2000/svg" xmlns:xlink="http://www.w3.org/1999/xlink">
<g id="graph0" class="graph" transform="scale(1 1) rotate(0) translate(4 228)">
<title>Modulo&lt; TValue &gt;</title>
<!-- Node1 -->
<g id="Node000001" class="node">
<title>Node1</title>
<g id="a_Node000001"><a xlink:title="Compute the mod of the input.">
<polygon fill="#999999" stroke="transparent" points="138,-139 0,-139 0,0 138,0 138,-139"/>
<text text-anchor="start" x="23" y="-126.5" font-family="Helvetica,sans-Serif" font-size="10.00">Modulo&lt; TValue &gt;</text>
<text text-anchor="start" x="67" y="-111.5" font-family="Helvetica,sans-Serif" font-size="10.00"> </text>
<text text-anchor="start" x="4" y="-96.5" font-family="Helvetica,sans-Serif" font-size="10.00">+</text>
<text text-anchor="start" x="17" y="-96.5" font-family="Helvetica,sans-Serif" font-size="10.00">Modulo()</text>
<text text-anchor="start" x="4" y="-81.5" font-family="Helvetica,sans-Serif" font-size="10.00">+</text>
<text text-anchor="start" x="17" y="-81.5" font-family="Helvetica,sans-Serif" font-size="10.00">Modulo()</text>
<text text-anchor="start" x="4" y="-66.5" font-family="Helvetica,sans-Serif" font-size="10.00">+</text>
<text text-anchor="start" x="17" y="-66.5" font-family="Helvetica,sans-Serif" font-size="10.00">Modulo()</text>
<text text-anchor="start" x="4" y="-51.5" font-family="Helvetica,sans-Serif" font-size="10.00">+</text>
<text text-anchor="start" x="17" y="-51.5" font-family="Helvetica,sans-Serif" font-size="10.00">Modulo()</text>
<text text-anchor="start" x="4" y="-36.5" font-family="Helvetica,sans-Serif" font-size="10.00">+</text>
<text text-anchor="start" x="17" y="-36.5" font-family="Helvetica,sans-Serif" font-size="10.00">Modulo()</text>
<text text-anchor="start" x="4" y="-21.5" font-family="Helvetica,sans-Serif" font-size="10.00">+</text>
<text text-anchor="start" x="17" y="-21.5" font-family="Helvetica,sans-Serif" font-size="10.00">operator()()</text>
<text text-anchor="start" x="4" y="-6.5" font-family="Helvetica,sans-Serif" font-size="10.00">+</text>
<text text-anchor="start" x="17" y="-6.5" font-family="Helvetica,sans-Serif" font-size="10.00">GetDefaultParameters()</text>
<polygon fill="#666666" stroke="#666666" points="0,-121.5 0,-121.5 138,-121.5 138,-121.5 0,-121.5"/>
<polygon fill="#666666" stroke="#666666" points="0,-106.5 0,-106.5 138,-106.5 138,-106.5 0,-106.5"/>
<polygon fill="none" stroke="#666666" points="0,0 0,-139 138,-139 138,0 0,0"/>
</a>
</g>
</g>
<!-- Node2 -->
<g id="Node000002" class="node">
<title>Node2</title>
<g id="a_Node000002"><a xlink:href="structKratos_1_1Pipes_1_1Traits.html" target="_top" xlink:title=" ">
<polygon fill="white" stroke="transparent" points="134.5,-224 3.5,-224 3.5,-175 134.5,-175 134.5,-224"/>
<text text-anchor="start" x="9" y="-211.5" font-family="Helvetica,sans-Serif" font-size="10.00">Traits&lt; TValue, TValue &gt;</text>
<text text-anchor="start" x="67.5" y="-196.5" font-family="Helvetica,sans-Serif" font-size="10.00"> </text>
<text text-anchor="start" x="67.5" y="-181.5" font-family="Helvetica,sans-Serif" font-size="10.00"> </text>
<polygon fill="#666666" stroke="#666666" points="4,-206.5 4,-206.5 135,-206.5 135,-206.5 4,-206.5"/>
<polygon fill="#666666" stroke="#666666" points="4,-191.5 4,-191.5 135,-191.5 135,-191.5 4,-191.5"/>
<polygon fill="none" stroke="#666666" points="3.5,-175 3.5,-224 134.5,-224 134.5,-175 3.5,-175"/>
</a>
</g>
</g>
<!-- Node2&#45;&gt;Node1 -->
<g id="edge1_Node000001_Node000002" class="edge">
<title>Node2&#45;&gt;Node1</title>
<g id="a_edge1_Node000001_Node000002"><a xlink:title=" ">
<path fill="none" stroke="#63b8ff" d="M69,-164.48C69,-156.57 69,-147.86 69,-139.04"/>
<polygon fill="none" stroke="#63b8ff" points="65.5,-164.72 69,-174.72 72.5,-164.72 65.5,-164.72"/>
</a>
</g>
</g>
</g>
</svg>
