<?xml version="1.0" encoding="UTF-8" standalone="no"?>
<!DOCTYPE svg PUBLIC "-//W3C//DTD SVG 1.1//EN"
 "http://www.w3.org/Graphics/SVG/1.1/DTD/svg11.dtd">
<!-- Generated by graphviz version 2.43.0 (0)
 -->
<!-- Title: HDF5SnapshotManager Pages: 1 -->
<svg width="156pt" height="320pt"
 viewBox="0.00 0.00 155.50 320.00" xmlns="http://www.w3.org/2000/svg" xmlns:xlink="http://www.w3.org/1999/xlink">
<g id="graph0" class="graph" transform="scale(1 1) rotate(0) translate(4 316)">
<title>HDF5SnapshotManager</title>
<polygon fill="white" stroke="transparent" points="-4,4 -4,-316 151.5,-316 151.5,4 -4,4"/>
<!-- Node1 -->
<g id="node1" class="node">
<title>Node1</title>
<g id="a_node1"><a xlink:title="Snapshot manager specialized for HDF5Snapshot.">
<polygon fill="#bfbfbf" stroke="black" points="2.5,-0.5 2.5,-79.5 146.5,-79.5 146.5,-0.5 2.5,-0.5"/>
<text text-anchor="middle" x="74.5" y="-67.5" font-family="Helvetica,sans-Serif" font-size="10.00">HDF5SnapshotManager</text>
<polyline fill="none" stroke="black" points="2.5,-60.5 146.5,-60.5 "/>
<text text-anchor="middle" x="74.5" y="-48.5" font-family="Helvetica,sans-Serif" font-size="10.00"> </text>
<polyline fill="none" stroke="black" points="2.5,-41.5 146.5,-41.5 "/>
<text text-anchor="start" x="10.5" y="-29.5" font-family="Helvetica,sans-Serif" font-size="10.00">+ Get()</text>
<text text-anchor="start" x="10.5" y="-18.5" font-family="Helvetica,sans-Serif" font-size="10.00">+ Erase()</text>
<text text-anchor="start" x="10.5" y="-7.5" font-family="Helvetica,sans-Serif" font-size="10.00">+ GetDefaultParameters()</text>
</a>
</g>
</g>
<!-- Node2 -->
<g id="node2" class="node">
<title>Node2</title>
<g id="a_node2"><a xlink:href="classpython__scripts_1_1checkpoint_1_1Snapshot_1_1SnapshotManager.html" target="_top" xlink:title="Interface for Snapshot lifetime management.">
<polygon fill="white" stroke="black" points="2.5,-116.5 2.5,-217.5 146.5,-217.5 146.5,-116.5 2.5,-116.5"/>
<text text-anchor="middle" x="74.5" y="-205.5" font-family="Helvetica,sans-Serif" font-size="10.00">SnapshotManager</text>
<polyline fill="none" stroke="black" points="2.5,-198.5 146.5,-198.5 "/>
<text text-anchor="middle" x="74.5" y="-186.5" font-family="Helvetica,sans-Serif" font-size="10.00"> </text>
<polyline fill="none" stroke="black" points="2.5,-179.5 146.5,-179.5 "/>
<text text-anchor="start" x="10.5" y="-167.5" font-family="Helvetica,sans-Serif" font-size="10.00">+ Add()</text>
<text text-anchor="start" x="10.5" y="-156.5" font-family="Helvetica,sans-Serif" font-size="10.00">+ Get()</text>
<text text-anchor="start" x="10.5" y="-145.5" font-family="Helvetica,sans-Serif" font-size="10.00">+ Erase()</text>
<text text-anchor="start" x="10.5" y="-134.5" font-family="Helvetica,sans-Serif" font-size="10.00">+ EraseObsolete()</text>
<text text-anchor="start" x="10.5" y="-123.5" font-family="Helvetica,sans-Serif" font-size="10.00">+ GetDefaultParameters()</text>
</a>
</g>
</g>
<!-- Node2&#45;&gt;Node1 -->
<g id="edge1" class="edge">
<title>Node2&#45;&gt;Node1</title>
<path fill="none" stroke="midnightblue" d="M74.5,-106.19C74.5,-97.22 74.5,-88.18 74.5,-79.81"/>
<polygon fill="none" stroke="midnightblue" points="71,-106.24 74.5,-116.24 78,-106.24 71,-106.24"/>
</g>
<!-- Node3 -->
<g id="node3" class="node">
<title>Node3</title>
<g id="a_node3"><a xlink:title=" ">
<polygon fill="white" stroke="#bfbfbf" points="0,-254.5 0,-311.5 67,-311.5 67,-254.5 0,-254.5"/>
<text text-anchor="middle" x="33.5" y="-299.5" font-family="Helvetica,sans-Serif" font-size="10.00">metaclass</text>
<polyline fill="none" stroke="#bfbfbf" points="0,-292.5 67,-292.5 "/>
<text text-anchor="middle" x="33.5" y="-280.5" font-family="Helvetica,sans-Serif" font-size="10.00"> </text>
<polyline fill="none" stroke="#bfbfbf" points="0,-273.5 67,-273.5 "/>
<text text-anchor="middle" x="33.5" y="-261.5" font-family="Helvetica,sans-Serif" font-size="10.00"> </text>
</a>
</g>
</g>
<!-- Node3&#45;&gt;Node2 -->
<g id="edge2" class="edge">
<title>Node3&#45;&gt;Node2</title>
<path fill="none" stroke="midnightblue" d="M46.84,-244.92C49.97,-236.2 53.36,-226.78 56.66,-217.61"/>
<polygon fill="none" stroke="midnightblue" points="43.52,-243.81 43.42,-254.4 50.1,-246.18 43.52,-243.81"/>
</g>
<!-- Node4 -->
<g id="node4" class="node">
<title>Node4</title>
<g id="a_node4"><a xlink:title=" ">
<polygon fill="white" stroke="#bfbfbf" points="85.5,-254.5 85.5,-311.5 147.5,-311.5 147.5,-254.5 85.5,-254.5"/>
<text text-anchor="middle" x="116.5" y="-299.5" font-family="Helvetica,sans-Serif" font-size="10.00">ABCMeta</text>
<polyline fill="none" stroke="#bfbfbf" points="85.5,-292.5 147.5,-292.5 "/>
<text text-anchor="middle" x="116.5" y="-280.5" font-family="Helvetica,sans-Serif" font-size="10.00"> </text>
<polyline fill="none" stroke="#bfbfbf" points="85.5,-273.5 147.5,-273.5 "/>
<text text-anchor="middle" x="116.5" y="-261.5" font-family="Helvetica,sans-Serif" font-size="10.00"> </text>
</a>
</g>
</g>
<!-- Node4&#45;&gt;Node2 -->
<g id="edge3" class="edge">
<title>Node4&#45;&gt;Node2</title>
<path fill="none" stroke="midnightblue" d="M102.84,-244.92C99.63,-236.2 96.15,-226.78 92.78,-217.61"/>
<polygon fill="none" stroke="midnightblue" points="99.59,-246.23 106.33,-254.4 106.16,-243.81 99.59,-246.23"/>
</g>
</g>
</svg>
