<?xml version="1.0" encoding="UTF-8" standalone="no"?>
<!DOCTYPE svg PUBLIC "-//W3C//DTD SVG 1.1//EN"
 "http://www.w3.org/Graphics/SVG/1.1/DTD/svg11.dtd">
<!-- Generated by graphviz version 2.43.0 (0)
 -->
<!-- Title: Comparison&lt; TValue, TOperator &gt; Pages: 1 -->
<svg width="146pt" height="198pt"
 viewBox="0.00 0.00 146.00 198.00" xmlns="http://www.w3.org/2000/svg" xmlns:xlink="http://www.w3.org/1999/xlink">
<g id="graph0" class="graph" transform="scale(1 1) rotate(0) translate(4 194)">
<title>Comparison&lt; TValue, TOperator &gt;</title>
<!-- Node1 -->
<g id="Node000001" class="node">
<title>Node1</title>
<g id="a_Node000001"><a xlink:title="Perform a comparison operation on the input as the left hand side.">
<polygon fill="#999999" stroke="transparent" points="138,-105 0,-105 0,0 138,0 138,-105"/>
<text text-anchor="start" x="16" y="-92.5" font-family="Helvetica,sans-Serif" font-size="10.00">Comparison&lt; TValue,</text>
<text text-anchor="start" x="37" y="-81.5" font-family="Helvetica,sans-Serif" font-size="10.00"> TOperator &gt;</text>
<text text-anchor="start" x="67" y="-66.5" font-family="Helvetica,sans-Serif" font-size="10.00"> </text>
<text text-anchor="start" x="4" y="-51.5" font-family="Helvetica,sans-Serif" font-size="10.00">+</text>
<text text-anchor="start" x="17" y="-51.5" font-family="Helvetica,sans-Serif" font-size="10.00">Comparison()</text>
<text text-anchor="start" x="4" y="-36.5" font-family="Helvetica,sans-Serif" font-size="10.00">+</text>
<text text-anchor="start" x="17" y="-36.5" font-family="Helvetica,sans-Serif" font-size="10.00">Comparison()</text>
<text text-anchor="start" x="4" y="-21.5" font-family="Helvetica,sans-Serif" font-size="10.00">+</text>
<text text-anchor="start" x="17" y="-21.5" font-family="Helvetica,sans-Serif" font-size="10.00">operator()()</text>
<text text-anchor="start" x="4" y="-6.5" font-family="Helvetica,sans-Serif" font-size="10.00">+</text>
<text text-anchor="start" x="17" y="-6.5" font-family="Helvetica,sans-Serif" font-size="10.00">GetDefaultParameters()</text>
<polygon fill="#666666" stroke="#666666" points="0,-76.5 0,-76.5 138,-76.5 138,-76.5 0,-76.5"/>
<polygon fill="#666666" stroke="#666666" points="0,-61.5 0,-61.5 138,-61.5 138,-61.5 0,-61.5"/>
<polygon fill="none" stroke="#666666" points="0,0 0,-105 138,-105 138,0 0,0"/>
</a>
</g>
</g>
<!-- Node2 -->
<g id="Node000002" class="node">
<title>Node2</title>
<g id="a_Node000002"><a xlink:href="structKratos_1_1Pipes_1_1Traits.html" target="_top" xlink:title=" ">
<polygon fill="white" stroke="transparent" points="128.5,-190 9.5,-190 9.5,-141 128.5,-141 128.5,-190"/>
<text text-anchor="start" x="15" y="-177.5" font-family="Helvetica,sans-Serif" font-size="10.00">Traits&lt; TValue, bool &gt;</text>
<text text-anchor="start" x="67.5" y="-162.5" font-family="Helvetica,sans-Serif" font-size="10.00"> </text>
<text text-anchor="start" x="67.5" y="-147.5" font-family="Helvetica,sans-Serif" font-size="10.00"> </text>
<polygon fill="#666666" stroke="#666666" points="10,-172.5 10,-172.5 129,-172.5 129,-172.5 10,-172.5"/>
<polygon fill="#666666" stroke="#666666" points="10,-157.5 10,-157.5 129,-157.5 129,-157.5 10,-157.5"/>
<polygon fill="none" stroke="#666666" points="9.5,-141 9.5,-190 128.5,-190 128.5,-141 9.5,-141"/>
</a>
</g>
</g>
<!-- Node2&#45;&gt;Node1 -->
<g id="edge1_Node000001_Node000002" class="edge">
<title>Node2&#45;&gt;Node1</title>
<g id="a_edge1_Node000001_Node000002"><a xlink:title=" ">
<path fill="none" stroke="#63b8ff" d="M69,-130.85C69,-122.79 69,-114 69,-105.32"/>
<polygon fill="none" stroke="#63b8ff" points="65.5,-130.96 69,-140.96 72.5,-130.96 65.5,-130.96"/>
</a>
</g>
</g>
</g>
</svg>
