<?xml version="1.0" encoding="UTF-8" standalone="no"?>
<!DOCTYPE svg PUBLIC "-//W3C//DTD SVG 1.1//EN"
 "http://www.w3.org/Graphics/SVG/1.1/DTD/svg11.dtd">
<!-- Generated by graphviz version 2.43.0 (0)
 -->
<!-- Title: WRAppMeta Pages: 1 -->
<svg width="191pt" height="142pt"
 viewBox="0.00 0.00 190.50 142.00" xmlns="http://www.w3.org/2000/svg" xmlns:xlink="http://www.w3.org/1999/xlink">
<g id="graph0" class="graph" transform="scale(1 1) rotate(0) translate(4 138)">
<title>WRAppMeta</title>
<!-- Node1 -->
<g id="Node000001" class="node">
<title>Node1</title>
<g id="a_Node000001"><a xlink:title="Metaclass replacing that of the C++ WRAppClass to provide derived classes access to abc....">
<polygon fill="#999999" stroke="transparent" points="76.5,-49 5.5,-49 5.5,0 76.5,0 76.5,-49"/>
<text text-anchor="start" x="11" y="-36.5" font-family="Helvetica,sans-Serif" font-size="10.00">WRAppMeta</text>
<text text-anchor="start" x="39.5" y="-21.5" font-family="Helvetica,sans-Serif" font-size="10.00"> </text>
<text text-anchor="start" x="39.5" y="-6.5" font-family="Helvetica,sans-Serif" font-size="10.00"> </text>
<polygon fill="#666666" stroke="#666666" points="6,-31.5 6,-31.5 77,-31.5 77,-31.5 6,-31.5"/>
<polygon fill="#666666" stroke="#666666" points="6,-16.5 6,-16.5 77,-16.5 77,-16.5 6,-16.5"/>
<polygon fill="none" stroke="#666666" points="5.5,0 5.5,-49 76.5,-49 76.5,0 5.5,0"/>
</a>
</g>
</g>
<!-- Node2 -->
<g id="Node000002" class="node">
<title>Node2</title>
<g id="a_Node000002"><a xlink:title=" ">
<polygon fill="white" stroke="transparent" points="32,-134 0,-134 0,-85 32,-85 32,-134"/>
<text text-anchor="start" x="5" y="-121.5" font-family="Helvetica,sans-Serif" font-size="10.00">type</text>
<text text-anchor="start" x="14" y="-106.5" font-family="Helvetica,sans-Serif" font-size="10.00"> </text>
<text text-anchor="start" x="14" y="-91.5" font-family="Helvetica,sans-Serif" font-size="10.00"> </text>
<polygon fill="#666666" stroke="#666666" points="0,-116.5 0,-116.5 32,-116.5 32,-116.5 0,-116.5"/>
<polygon fill="#666666" stroke="#666666" points="0,-101.5 0,-101.5 32,-101.5 32,-101.5 0,-101.5"/>
<polygon fill="none" stroke="#666666" points="0,-85 0,-134 32,-134 32,-85 0,-85"/>
</a>
</g>
</g>
<!-- Node2&#45;&gt;Node1 -->
<g id="edge1_Node000001_Node000002" class="edge">
<title>Node2&#45;&gt;Node1</title>
<g id="a_edge1_Node000001_Node000002"><a xlink:title=" ">
<path fill="none" stroke="#63b8ff" d="M19.44,-75.06C21.81,-66.37 24.73,-57.19 27.73,-49.12"/>
<polygon fill="none" stroke="#63b8ff" points="16,-74.38 16.94,-84.94 22.78,-76.1 16,-74.38"/>
</a>
</g>
</g>
<!-- Node2&#45;&gt;Node1 -->
<g id="edge3_Node000001_Node000002" class="edge">
<title>Node2&#45;&gt;Node1</title>
<g id="a_edge3_Node000001_Node000002"><a xlink:title=" ">
<path fill="none" stroke="#63b8ff" d="M32.62,-75.34C35.52,-66.57 38.16,-57.28 40.04,-49.12"/>
<polygon fill="none" stroke="#63b8ff" points="29.26,-74.34 29.25,-84.94 35.86,-76.66 29.26,-74.34"/>
</a>
</g>
</g>
<!-- Node3 -->
<g id="Node000003" class="node">
<title>Node3</title>
<g id="a_Node000003"><a xlink:title=" ">
<polygon fill="white" stroke="transparent" points="81.5,-134 50.5,-134 50.5,-85 81.5,-85 81.5,-134"/>
<text text-anchor="start" x="56" y="-121.5" font-family="Helvetica,sans-Serif" font-size="10.00">ABC</text>
<text text-anchor="start" x="64.5" y="-106.5" font-family="Helvetica,sans-Serif" font-size="10.00"> </text>
<text text-anchor="start" x="64.5" y="-91.5" font-family="Helvetica,sans-Serif" font-size="10.00"> </text>
<polygon fill="#666666" stroke="#666666" points="51,-116.5 51,-116.5 82,-116.5 82,-116.5 51,-116.5"/>
<polygon fill="#666666" stroke="#666666" points="51,-101.5 51,-101.5 82,-101.5 82,-101.5 51,-101.5"/>
<polygon fill="none" stroke="#666666" points="50.5,-85 50.5,-134 81.5,-134 81.5,-85 50.5,-85"/>
</a>
</g>
</g>
<!-- Node3&#45;&gt;Node1 -->
<g id="edge2_Node000001_Node000003" class="edge">
<title>Node3&#45;&gt;Node1</title>
<g id="a_edge2_Node000001_Node000003"><a xlink:title=" ">
<path fill="none" stroke="#63b8ff" d="M56.01,-75.34C53.37,-66.57 50.57,-57.28 48.11,-49.12"/>
<polygon fill="none" stroke="#63b8ff" points="52.67,-76.37 58.9,-84.94 59.37,-74.35 52.67,-76.37"/>
</a>
</g>
</g>
<!-- Node4 -->
<g id="Node000004" class="node">
<title>Node4</title>
<g id="a_Node000004"><a xlink:title=" ">
<polygon fill="white" stroke="transparent" points="182.5,-134 99.5,-134 99.5,-85 182.5,-85 182.5,-134"/>
<text text-anchor="start" x="105" y="-121.5" font-family="Helvetica,sans-Serif" font-size="10.00">__WRAppClass</text>
<text text-anchor="start" x="139.5" y="-106.5" font-family="Helvetica,sans-Serif" font-size="10.00"> </text>
<text text-anchor="start" x="139.5" y="-91.5" font-family="Helvetica,sans-Serif" font-size="10.00"> </text>
<polygon fill="#666666" stroke="#666666" points="100,-116.5 100,-116.5 183,-116.5 183,-116.5 100,-116.5"/>
<polygon fill="#666666" stroke="#666666" points="100,-101.5 100,-101.5 183,-101.5 183,-101.5 100,-101.5"/>
<polygon fill="none" stroke="#666666" points="99.5,-85 99.5,-134 182.5,-134 182.5,-85 99.5,-85"/>
</a>
</g>
</g>
<!-- Node4&#45;&gt;Node1 -->
<g id="edge4_Node000001_Node000004" class="edge">
<title>Node4&#45;&gt;Node1</title>
<g id="a_edge4_Node000001_Node000004"><a xlink:title=" ">
<path fill="none" stroke="#63b8ff" d="M104.77,-78.43C93.15,-68.78 80.45,-58.24 69.46,-49.12"/>
<polygon fill="none" stroke="#63b8ff" points="102.68,-81.24 112.61,-84.94 107.15,-75.86 102.68,-81.24"/>
</a>
</g>
</g>
</g>
</svg>
