<?xml version="1.0" encoding="UTF-8" standalone="no"?>
<!DOCTYPE svg PUBLIC "-//W3C//DTD SVG 1.1//EN"
 "http://www.w3.org/Graphics/SVG/1.1/DTD/svg11.dtd">
<!-- Generated by graphviz version 2.43.0 (0)
 -->
<!-- Title: Hdf5LinSpaceOperation Pages: 1 -->
<svg width="166pt" height="347pt"
 viewBox="0.00 0.00 166.00 347.00" xmlns="http://www.w3.org/2000/svg" xmlns:xlink="http://www.w3.org/1999/xlink">
<g id="graph0" class="graph" transform="scale(1 1) rotate(0) translate(4 343)">
<title>Hdf5LinSpaceOperation</title>
<polygon fill="white" stroke="transparent" points="-4,4 -4,-343 162,-343 162,4 -4,4"/>
<!-- Node1 -->
<g id="node1" class="node">
<title>Node1</title>
<g id="a_node1"><a xlink:title=" ">
<polygon fill="#bfbfbf" stroke="black" points="0,-0.5 0,-156.5 158,-156.5 158,-0.5 0,-0.5"/>
<text text-anchor="middle" x="79" y="-144.5" font-family="Helvetica,sans-Serif" font-size="10.00">Hdf5LinSpaceOperation</text>
<polyline fill="none" stroke="black" points="0,-137.5 158,-137.5 "/>
<text text-anchor="middle" x="79" y="-125.5" font-family="Helvetica,sans-Serif" font-size="10.00"> </text>
<polyline fill="none" stroke="black" points="0,-118.5 158,-118.5 "/>
<text text-anchor="start" x="8" y="-106.5" font-family="Helvetica,sans-Serif" font-size="10.00">+ KRATOS_CLASS_POINTER</text>
<text text-anchor="start" x="8" y="-95.5" font-family="Helvetica,sans-Serif" font-size="10.00">_DEFINITION()</text>
<text text-anchor="start" x="8" y="-84.5" font-family="Helvetica,sans-Serif" font-size="10.00">+ Hdf5LinSpaceOperation()</text>
<text text-anchor="start" x="8" y="-73.5" font-family="Helvetica,sans-Serif" font-size="10.00">+ Hdf5LinSpaceOperation()</text>
<text text-anchor="start" x="8" y="-62.5" font-family="Helvetica,sans-Serif" font-size="10.00">+ Hdf5LinSpaceOperation()</text>
<text text-anchor="start" x="8" y="-51.5" font-family="Helvetica,sans-Serif" font-size="10.00">+ Hdf5LinSpaceOperation()</text>
<text text-anchor="start" x="8" y="-40.5" font-family="Helvetica,sans-Serif" font-size="10.00">+ operator=()</text>
<text text-anchor="start" x="8" y="-29.5" font-family="Helvetica,sans-Serif" font-size="10.00">+ ~Hdf5LinSpaceOperation()</text>
<text text-anchor="start" x="8" y="-18.5" font-family="Helvetica,sans-Serif" font-size="10.00">+ Execute()</text>
<text text-anchor="start" x="8" y="-7.5" font-family="Helvetica,sans-Serif" font-size="10.00">+ GetDefaultParameters()</text>
</a>
</g>
</g>
<!-- Node2 -->
<g id="node2" class="node">
<title>Node2</title>
<g id="a_node2"><a xlink:href="structKratos_1_1WRApp_1_1WRAppClass.html" target="_top" xlink:title="Dummy base class for registering and exporting exposed classes in WRApplication.">
<polygon fill="white" stroke="black" points="3,-193.5 3,-338.5 155,-338.5 155,-193.5 3,-193.5"/>
<text text-anchor="middle" x="79" y="-326.5" font-family="Helvetica,sans-Serif" font-size="10.00">WRAppClass</text>
<polyline fill="none" stroke="black" points="3,-319.5 155,-319.5 "/>
<text text-anchor="middle" x="79" y="-307.5" font-family="Helvetica,sans-Serif" font-size="10.00"> </text>
<polyline fill="none" stroke="black" points="3,-300.5 155,-300.5 "/>
<text text-anchor="start" x="11" y="-288.5" font-family="Helvetica,sans-Serif" font-size="10.00">+ KRATOS_CLASS_POINTER</text>
<text text-anchor="start" x="11" y="-277.5" font-family="Helvetica,sans-Serif" font-size="10.00">_DEFINITION()</text>
<text text-anchor="start" x="11" y="-266.5" font-family="Helvetica,sans-Serif" font-size="10.00">+ WRAppClass()</text>
<text text-anchor="start" x="11" y="-255.5" font-family="Helvetica,sans-Serif" font-size="10.00">+ WRAppClass()</text>
<text text-anchor="start" x="11" y="-244.5" font-family="Helvetica,sans-Serif" font-size="10.00">+ WRAppClass()</text>
<text text-anchor="start" x="11" y="-233.5" font-family="Helvetica,sans-Serif" font-size="10.00">+ ~WRAppClass()</text>
<text text-anchor="start" x="11" y="-222.5" font-family="Helvetica,sans-Serif" font-size="10.00">+ operator=()</text>
<text text-anchor="start" x="11" y="-211.5" font-family="Helvetica,sans-Serif" font-size="10.00">+ operator=()</text>
<text text-anchor="start" x="11" y="-200.5" font-family="Helvetica,sans-Serif" font-size="10.00">+ GetDefaultParameters()</text>
</a>
</g>
</g>
<!-- Node2&#45;&gt;Node1 -->
<g id="edge1" class="edge">
<title>Node2&#45;&gt;Node1</title>
<path fill="none" stroke="midnightblue" d="M79,-183.03C79,-174.23 79,-165.3 79,-156.56"/>
<polygon fill="none" stroke="midnightblue" points="75.5,-183.28 79,-193.28 82.5,-183.28 75.5,-183.28"/>
</g>
</g>
</svg>
