<?xml version="1.0" encoding="UTF-8" standalone="no"?>
<!DOCTYPE svg PUBLIC "-//W3C//DTD SVG 1.1//EN"
 "http://www.w3.org/Graphics/SVG/1.1/DTD/svg11.dtd">
<!-- Generated by graphviz version 2.43.0 (0)
 -->
<!-- Title: SolutionStageScope Pages: 1 -->
<svg width="868pt" height="497pt"
 viewBox="0.00 0.00 867.50 497.00" xmlns="http://www.w3.org/2000/svg" xmlns:xlink="http://www.w3.org/1999/xlink">
<g id="graph0" class="graph" transform="scale(1 1) rotate(0) translate(4 493)">
<title>SolutionStageScope</title>
<polygon fill="white" stroke="transparent" points="-4,4 -4,-493 863.5,-493 863.5,4 -4,4"/>
<!-- Node1 -->
<g id="node1" class="node">
<title>Node1</title>
<g id="a_node1"><a xlink:title="RAII context manager for tasks during solver execution.">
<polygon fill="#bfbfbf" stroke="black" points="546.5,-337.5 546.5,-394.5 659.5,-394.5 659.5,-337.5 546.5,-337.5"/>
<text text-anchor="middle" x="603" y="-382.5" font-family="Helvetica,sans-Serif" font-size="10.00">SolutionStageScope</text>
<polyline fill="none" stroke="black" points="546.5,-375.5 659.5,-375.5 "/>
<text text-anchor="middle" x="603" y="-363.5" font-family="Helvetica,sans-Serif" font-size="10.00"> </text>
<polyline fill="none" stroke="black" points="546.5,-356.5 659.5,-356.5 "/>
<text text-anchor="middle" x="603" y="-344.5" font-family="Helvetica,sans-Serif" font-size="10.00"> </text>
</a>
</g>
</g>
<!-- Node3 -->
<g id="node3" class="node">
<title>Node3</title>
<g id="a_node3"><a xlink:href="classpython__scripts_1_1async__analysis_1_1AsyncSolver_1_1AsyncSolver_1_1SolverScope.html" target="_top" xlink:title="Embed some part of AsyncSolver in a SolutionStageScope.">
<polygon fill="white" stroke="black" points="363.5,-227 363.5,-284 502.5,-284 502.5,-227 363.5,-227"/>
<text text-anchor="middle" x="433" y="-272" font-family="Helvetica,sans-Serif" font-size="10.00">AsyncSolver.SolverScope</text>
<polyline fill="none" stroke="black" points="363.5,-265 502.5,-265 "/>
<text text-anchor="middle" x="433" y="-253" font-family="Helvetica,sans-Serif" font-size="10.00"> </text>
<polyline fill="none" stroke="black" points="363.5,-246 502.5,-246 "/>
<text text-anchor="middle" x="433" y="-234" font-family="Helvetica,sans-Serif" font-size="10.00"> </text>
</a>
</g>
</g>
<!-- Node1&#45;&gt;Node3 -->
<g id="edge2" class="edge">
<title>Node1&#45;&gt;Node3</title>
<path fill="none" stroke="midnightblue" d="M551.05,-331.84C527.11,-316.56 499.03,-298.64 476.26,-284.11"/>
<polygon fill="none" stroke="midnightblue" points="549.35,-334.91 559.66,-337.34 553.12,-329.01 549.35,-334.91"/>
</g>
<!-- Node10 -->
<g id="node10" class="node">
<title>Node10</title>
<g id="a_node10"><a xlink:href="classpython__scripts_1_1async__analysis_1_1SolutionStageScope_1_1AggregateSolutionStageScope.html" target="_top" xlink:title="Enter multiple SolutionStageScope contexts at once.">
<polygon fill="white" stroke="black" points="521,-227 521,-284 685,-284 685,-227 521,-227"/>
<text text-anchor="middle" x="603" y="-272" font-family="Helvetica,sans-Serif" font-size="10.00">AggregateSolutionStageScope</text>
<polyline fill="none" stroke="black" points="521,-265 685,-265 "/>
<text text-anchor="middle" x="603" y="-253" font-family="Helvetica,sans-Serif" font-size="10.00"> </text>
<polyline fill="none" stroke="black" points="521,-246 685,-246 "/>
<text text-anchor="middle" x="603" y="-234" font-family="Helvetica,sans-Serif" font-size="10.00"> </text>
</a>
</g>
</g>
<!-- Node1&#45;&gt;Node10 -->
<g id="edge9" class="edge">
<title>Node1&#45;&gt;Node10</title>
<path fill="none" stroke="midnightblue" d="M603,-326.94C603,-312.83 603,-297.11 603,-284.11"/>
<polygon fill="none" stroke="midnightblue" points="599.5,-327.34 603,-337.34 606.5,-327.34 599.5,-327.34"/>
</g>
<!-- Node11 -->
<g id="node11" class="node">
<title>Node11</title>
<g id="a_node11"><a xlink:href="classpython__scripts_1_1coupling_1_1CoSimCoupling_1_1CoSimCoupling.html" target="_top" xlink:title="Wrapper for CoSimulationApplication coupling procedures.">
<polygon fill="white" stroke="black" points="703,-210.5 703,-300.5 847,-300.5 847,-210.5 703,-210.5"/>
<text text-anchor="middle" x="775" y="-288.5" font-family="Helvetica,sans-Serif" font-size="10.00">CoSimCoupling</text>
<polyline fill="none" stroke="black" points="703,-281.5 847,-281.5 "/>
<text text-anchor="middle" x="775" y="-269.5" font-family="Helvetica,sans-Serif" font-size="10.00"> </text>
<polyline fill="none" stroke="black" points="703,-262.5 847,-262.5 "/>
<text text-anchor="start" x="711" y="-250.5" font-family="Helvetica,sans-Serif" font-size="10.00">+ parameters()</text>
<text text-anchor="start" x="711" y="-239.5" font-family="Helvetica,sans-Serif" font-size="10.00">+ GetDefaultParameters()</text>
<text text-anchor="start" x="711" y="-228.5" font-family="Helvetica,sans-Serif" font-size="10.00">* parameters()</text>
<text text-anchor="start" x="711" y="-217.5" font-family="Helvetica,sans-Serif" font-size="10.00">* GetDefaultParameters()</text>
</a>
</g>
</g>
<!-- Node1&#45;&gt;Node11 -->
<g id="edge10" class="edge">
<title>Node1&#45;&gt;Node11</title>
<path fill="none" stroke="midnightblue" d="M655.37,-331.97C671.06,-322.07 688.53,-311.05 705.16,-300.55"/>
<polygon fill="none" stroke="midnightblue" points="653.44,-329.04 646.85,-337.34 657.17,-334.97 653.44,-329.04"/>
</g>
<!-- Node2 -->
<g id="node2" class="node">
<title>Node2</title>
<g id="a_node2"><a xlink:title=" ">
<polygon fill="white" stroke="#bfbfbf" points="584.5,-431.5 584.5,-488.5 621.5,-488.5 621.5,-431.5 584.5,-431.5"/>
<text text-anchor="middle" x="603" y="-476.5" font-family="Helvetica,sans-Serif" font-size="10.00">ABC</text>
<polyline fill="none" stroke="#bfbfbf" points="584.5,-469.5 621.5,-469.5 "/>
<text text-anchor="middle" x="603" y="-457.5" font-family="Helvetica,sans-Serif" font-size="10.00"> </text>
<polyline fill="none" stroke="#bfbfbf" points="584.5,-450.5 621.5,-450.5 "/>
<text text-anchor="middle" x="603" y="-438.5" font-family="Helvetica,sans-Serif" font-size="10.00"> </text>
</a>
</g>
</g>
<!-- Node2&#45;&gt;Node1 -->
<g id="edge1" class="edge">
<title>Node2&#45;&gt;Node1</title>
<path fill="none" stroke="midnightblue" d="M603,-421.21C603,-412.29 603,-402.95 603,-394.58"/>
<polygon fill="none" stroke="midnightblue" points="599.5,-421.4 603,-431.4 606.5,-421.4 599.5,-421.4"/>
</g>
<!-- Node4 -->
<g id="node4" class="node">
<title>Node4</title>
<g id="a_node4"><a xlink:href="classpython__scripts_1_1async__analysis_1_1AsyncSolver_1_1AsyncSolver_1_1AdvanceScope.html" target="_top" xlink:title="Embed AsyncSolver._Advance in a SolutionStageScope.">
<polygon fill="white" stroke="black" points="0,-111 0,-168 150,-168 150,-111 0,-111"/>
<text text-anchor="middle" x="75" y="-156" font-family="Helvetica,sans-Serif" font-size="10.00">AsyncSolver.AdvanceScope</text>
<polyline fill="none" stroke="black" points="0,-149 150,-149 "/>
<text text-anchor="middle" x="75" y="-137" font-family="Helvetica,sans-Serif" font-size="10.00"> </text>
<polyline fill="none" stroke="black" points="0,-130 150,-130 "/>
<text text-anchor="middle" x="75" y="-118" font-family="Helvetica,sans-Serif" font-size="10.00"> </text>
</a>
</g>
</g>
<!-- Node3&#45;&gt;Node4 -->
<g id="edge3" class="edge">
<title>Node3&#45;&gt;Node4</title>
<path fill="none" stroke="midnightblue" d="M353.72,-233.53C298.43,-218.36 223.17,-196.63 158,-174 152.72,-172.17 147.28,-170.18 141.83,-168.13"/>
<polygon fill="none" stroke="midnightblue" points="352.89,-236.93 363.46,-236.19 354.74,-230.18 352.89,-236.93"/>
</g>
<!-- Node5 -->
<g id="node5" class="node">
<title>Node5</title>
<g id="a_node5"><a xlink:href="classpython__scripts_1_1async__analysis_1_1AsyncSolver_1_1AsyncSolver_1_1PostprocessScope.html" target="_top" xlink:title="Embed AsyncSolver._Postprocess in a SolutionStageScope.">
<polygon fill="white" stroke="black" points="167.5,-111 167.5,-168 334.5,-168 334.5,-111 167.5,-111"/>
<text text-anchor="middle" x="251" y="-156" font-family="Helvetica,sans-Serif" font-size="10.00">AsyncSolver.PostprocessScope</text>
<polyline fill="none" stroke="black" points="167.5,-149 334.5,-149 "/>
<text text-anchor="middle" x="251" y="-137" font-family="Helvetica,sans-Serif" font-size="10.00"> </text>
<polyline fill="none" stroke="black" points="167.5,-130 334.5,-130 "/>
<text text-anchor="middle" x="251" y="-118" font-family="Helvetica,sans-Serif" font-size="10.00"> </text>
</a>
</g>
</g>
<!-- Node3&#45;&gt;Node5 -->
<g id="edge4" class="edge">
<title>Node3&#45;&gt;Node5</title>
<path fill="none" stroke="midnightblue" d="M380.36,-221.53C353.29,-204.57 320.68,-184.14 294.97,-168.04"/>
<polygon fill="none" stroke="midnightblue" points="378.61,-224.56 388.94,-226.9 382.33,-218.63 378.61,-224.56"/>
</g>
<!-- Node6 -->
<g id="node6" class="node">
<title>Node6</title>
<g id="a_node6"><a xlink:href="classpython__scripts_1_1async__analysis_1_1AsyncSolver_1_1AsyncSolver_1_1PreprocessScope.html" target="_top" xlink:title="Embed AsyncSolver._Preprocess in a SolutionStageScope.">
<polygon fill="white" stroke="black" points="352.5,-111 352.5,-168 513.5,-168 513.5,-111 352.5,-111"/>
<text text-anchor="middle" x="433" y="-156" font-family="Helvetica,sans-Serif" font-size="10.00">AsyncSolver.PreprocessScope</text>
<polyline fill="none" stroke="black" points="352.5,-149 513.5,-149 "/>
<text text-anchor="middle" x="433" y="-137" font-family="Helvetica,sans-Serif" font-size="10.00"> </text>
<polyline fill="none" stroke="black" points="352.5,-130 513.5,-130 "/>
<text text-anchor="middle" x="433" y="-118" font-family="Helvetica,sans-Serif" font-size="10.00"> </text>
</a>
</g>
</g>
<!-- Node3&#45;&gt;Node6 -->
<g id="edge5" class="edge">
<title>Node3&#45;&gt;Node6</title>
<path fill="none" stroke="midnightblue" d="M433,-216.86C433,-201 433,-182.85 433,-168.24"/>
<polygon fill="none" stroke="midnightblue" points="429.5,-216.9 433,-226.9 436.5,-216.9 429.5,-216.9"/>
</g>
<!-- Node7 -->
<g id="node7" class="node">
<title>Node7</title>
<g id="a_node7"><a xlink:href="classpython__scripts_1_1async__analysis_1_1AsyncSolver_1_1AsyncSolver_1_1SolutionLoopScope.html" target="_top" xlink:title="Embed AsyncSolver.Run in a SolutionStageScope.">
<polygon fill="white" stroke="black" points="532,-105.5 532,-173.5 674,-173.5 674,-105.5 532,-105.5"/>
<text text-anchor="start" x="540" y="-161.5" font-family="Helvetica,sans-Serif" font-size="10.00">AsyncSolver.SolutionLoop</text>
<text text-anchor="middle" x="603" y="-150.5" font-family="Helvetica,sans-Serif" font-size="10.00">Scope</text>
<polyline fill="none" stroke="black" points="532,-143.5 674,-143.5 "/>
<text text-anchor="middle" x="603" y="-131.5" font-family="Helvetica,sans-Serif" font-size="10.00"> </text>
<polyline fill="none" stroke="black" points="532,-124.5 674,-124.5 "/>
<text text-anchor="middle" x="603" y="-112.5" font-family="Helvetica,sans-Serif" font-size="10.00"> </text>
</a>
</g>
</g>
<!-- Node3&#45;&gt;Node7 -->
<g id="edge6" class="edge">
<title>Node3&#45;&gt;Node7</title>
<path fill="none" stroke="midnightblue" d="M482.53,-221.29C504.95,-206.25 531.38,-188.53 553.76,-173.52"/>
<polygon fill="none" stroke="midnightblue" points="480.51,-218.43 474.15,-226.9 484.41,-224.24 480.51,-218.43"/>
</g>
<!-- Node8 -->
<g id="node8" class="node">
<title>Node8</title>
<g id="a_node8"><a xlink:href="classpython__scripts_1_1async__analysis_1_1AsyncSolver_1_1AsyncSolver_1_1SynchronizeScope.html" target="_top" xlink:title="Embed AsyncSolver._Synchronize in a SolutionStageScope.">
<polygon fill="white" stroke="black" points="692.5,-111 692.5,-168 859.5,-168 859.5,-111 692.5,-111"/>
<text text-anchor="middle" x="776" y="-156" font-family="Helvetica,sans-Serif" font-size="10.00">AsyncSolver.SynchronizeScope</text>
<polyline fill="none" stroke="black" points="692.5,-149 859.5,-149 "/>
<text text-anchor="middle" x="776" y="-137" font-family="Helvetica,sans-Serif" font-size="10.00"> </text>
<polyline fill="none" stroke="black" points="692.5,-130 859.5,-130 "/>
<text text-anchor="middle" x="776" y="-118" font-family="Helvetica,sans-Serif" font-size="10.00"> </text>
</a>
</g>
</g>
<!-- Node3&#45;&gt;Node8 -->
<g id="edge7" class="edge">
<title>Node3&#45;&gt;Node8</title>
<path fill="none" stroke="midnightblue" d="M485.42,-222.07C494.09,-217.56 503.14,-213.34 512,-210 584.68,-182.62 608.29,-195.21 683,-174 689.36,-172.2 695.9,-170.18 702.44,-168.05"/>
<polygon fill="none" stroke="midnightblue" points="483.69,-219.02 476.55,-226.85 487.01,-225.19 483.69,-219.02"/>
</g>
<!-- Node9 -->
<g id="node9" class="node">
<title>Node9</title>
<g id="a_node9"><a xlink:href="classpython__scripts_1_1async__analysis_1_1WrappedAnalysis_1_1WrappedAnalysis_1_1SynchronizeScope.html" target="_top" xlink:title="Sandwich AnalysisStage.SolveSolutionStage between &quot;initialization&quot; and &quot;finalization&quot;.">
<polygon fill="white" stroke="black" points="694,-0.5 694,-68.5 858,-68.5 858,-0.5 694,-0.5"/>
<text text-anchor="start" x="702" y="-56.5" font-family="Helvetica,sans-Serif" font-size="10.00">WrappedAnalysis.Synchronize</text>
<text text-anchor="middle" x="776" y="-45.5" font-family="Helvetica,sans-Serif" font-size="10.00">Scope</text>
<polyline fill="none" stroke="black" points="694,-38.5 858,-38.5 "/>
<text text-anchor="middle" x="776" y="-26.5" font-family="Helvetica,sans-Serif" font-size="10.00"> </text>
<polyline fill="none" stroke="black" points="694,-19.5 858,-19.5 "/>
<text text-anchor="middle" x="776" y="-7.5" font-family="Helvetica,sans-Serif" font-size="10.00"> </text>
</a>
</g>
</g>
<!-- Node8&#45;&gt;Node9 -->
<g id="edge8" class="edge">
<title>Node8&#45;&gt;Node9</title>
<path fill="none" stroke="midnightblue" d="M776,-100.74C776,-90.23 776,-78.9 776,-68.68"/>
<polygon fill="none" stroke="midnightblue" points="772.5,-100.9 776,-110.9 779.5,-100.9 772.5,-100.9"/>
</g>
</g>
</svg>
