<?xml version="1.0" encoding="UTF-8" standalone="no"?>
<!DOCTYPE svg PUBLIC "-//W3C//DTD SVG 1.1//EN"
 "http://www.w3.org/Graphics/SVG/1.1/DTD/svg11.dtd">
<!-- Generated by graphviz version 2.43.0 (0)
 -->
<!-- Title: LeafDataItem Pages: 1 -->
<svg width="120pt" height="254pt"
 viewBox="0.00 0.00 120.00 254.00" xmlns="http://www.w3.org/2000/svg" xmlns:xlink="http://www.w3.org/1999/xlink">
<g id="graph0" class="graph" transform="scale(1 1) rotate(0) translate(4 250)">
<title>LeafDataItem</title>
<polygon fill="white" stroke="transparent" points="-4,4 -4,-250 116,-250 116,4 -4,4"/>
<!-- Node1 -->
<g id="node1" class="node">
<title>Node1</title>
<g id="a_node1"><a xlink:title=" ">
<polygon fill="#bfbfbf" stroke="black" points="9,-0.5 9,-57.5 92,-57.5 92,-0.5 9,-0.5"/>
<text text-anchor="middle" x="50.5" y="-45.5" font-family="Helvetica,sans-Serif" font-size="10.00">LeafDataItem</text>
<polyline fill="none" stroke="black" points="9,-38.5 92,-38.5 "/>
<text text-anchor="start" x="17" y="-26.5" font-family="Helvetica,sans-Serif" font-size="10.00">+ text</text>
<polyline fill="none" stroke="black" points="9,-19.5 92,-19.5 "/>
<text text-anchor="start" x="17" y="-7.5" font-family="Helvetica,sans-Serif" font-size="10.00">+ GetShape()</text>
</a>
</g>
</g>
<!-- Node2 -->
<g id="node2" class="node">
<title>Node2</title>
<g id="a_node2"><a xlink:href="classpython__scripts_1_1xdmf_1_1DataItem_1_1DataItem.html" target="_top" xlink:title=" ">
<polygon fill="white" stroke="black" points="9,-94.5 9,-151.5 92,-151.5 92,-94.5 9,-94.5"/>
<text text-anchor="middle" x="50.5" y="-139.5" font-family="Helvetica,sans-Serif" font-size="10.00">DataItem</text>
<polyline fill="none" stroke="black" points="9,-132.5 92,-132.5 "/>
<text text-anchor="middle" x="50.5" y="-120.5" font-family="Helvetica,sans-Serif" font-size="10.00"> </text>
<polyline fill="none" stroke="black" points="9,-113.5 92,-113.5 "/>
<text text-anchor="start" x="17" y="-101.5" font-family="Helvetica,sans-Serif" font-size="10.00">+ GetShape()</text>
</a>
</g>
</g>
<!-- Node2&#45;&gt;Node1 -->
<g id="edge1" class="edge">
<title>Node2&#45;&gt;Node1</title>
<path fill="none" stroke="midnightblue" d="M50.5,-84.21C50.5,-75.29 50.5,-65.95 50.5,-57.58"/>
<polygon fill="none" stroke="midnightblue" points="47,-84.4 50.5,-94.4 54,-84.4 47,-84.4"/>
</g>
<!-- Node3 -->
<g id="node3" class="node">
<title>Node3</title>
<g id="a_node3"><a xlink:title=" ">
<polygon fill="white" stroke="#bfbfbf" points="0,-188.5 0,-245.5 37,-245.5 37,-188.5 0,-188.5"/>
<text text-anchor="middle" x="18.5" y="-233.5" font-family="Helvetica,sans-Serif" font-size="10.00">ABC</text>
<polyline fill="none" stroke="#bfbfbf" points="0,-226.5 37,-226.5 "/>
<text text-anchor="middle" x="18.5" y="-214.5" font-family="Helvetica,sans-Serif" font-size="10.00"> </text>
<polyline fill="none" stroke="#bfbfbf" points="0,-207.5 37,-207.5 "/>
<text text-anchor="middle" x="18.5" y="-195.5" font-family="Helvetica,sans-Serif" font-size="10.00"> </text>
</a>
</g>
</g>
<!-- Node3&#45;&gt;Node2 -->
<g id="edge2" class="edge">
<title>Node3&#45;&gt;Node2</title>
<path fill="none" stroke="midnightblue" d="M31.44,-178.79C34.6,-169.7 37.93,-160.13 40.91,-151.58"/>
<polygon fill="none" stroke="midnightblue" points="28.08,-177.8 28.1,-188.4 34.69,-180.1 28.08,-177.8"/>
</g>
<!-- Node4 -->
<g id="node4" class="node">
<title>Node4</title>
<g id="a_node4"><a xlink:title=" ">
<polygon fill="white" stroke="#bfbfbf" points="55,-188.5 55,-245.5 112,-245.5 112,-188.5 55,-188.5"/>
<text text-anchor="middle" x="83.5" y="-233.5" font-family="Helvetica,sans-Serif" font-size="10.00">Element</text>
<polyline fill="none" stroke="#bfbfbf" points="55,-226.5 112,-226.5 "/>
<text text-anchor="middle" x="83.5" y="-214.5" font-family="Helvetica,sans-Serif" font-size="10.00"> </text>
<polyline fill="none" stroke="#bfbfbf" points="55,-207.5 112,-207.5 "/>
<text text-anchor="middle" x="83.5" y="-195.5" font-family="Helvetica,sans-Serif" font-size="10.00"> </text>
</a>
</g>
</g>
<!-- Node4&#45;&gt;Node2 -->
<g id="edge3" class="edge">
<title>Node4&#45;&gt;Node2</title>
<path fill="none" stroke="midnightblue" d="M70.15,-178.79C66.89,-169.7 63.46,-160.13 60.39,-151.58"/>
<polygon fill="none" stroke="midnightblue" points="66.93,-180.17 73.6,-188.4 73.52,-177.8 66.93,-180.17"/>
</g>
</g>
</svg>
