<?xml version="1.0" encoding="UTF-8" standalone="no"?>
<!DOCTYPE svg PUBLIC "-//W3C//DTD SVG 1.1//EN"
 "http://www.w3.org/Graphics/SVG/1.1/DTD/svg11.dtd">
<!-- Generated by graphviz version 2.43.0 (0)
 -->
<!-- Title: XmlData Pages: 1 -->
<svg width="102pt" height="272pt"
 viewBox="0.00 0.00 102.00 272.00" xmlns="http://www.w3.org/2000/svg" xmlns:xlink="http://www.w3.org/1999/xlink">

<svg id="main" version="1.1" xmlns="http://www.w3.org/2000/svg" xmlns:xlink="http://www.w3.org/1999/xlink" xml:space="preserve" onload="init(evt)">
<style type="text/css"><![CDATA[
.node, .edge {opacity: 0.7;}
.node.selected, .edge.selected {opacity: 1;}
.edge:hover path { stroke: red; }
.edge:hover polygon { stroke: red; fill: red; }
]]></style>
<script type="application/ecmascript" xlink:href="svg.min.js"/>
<svg id="graph" class="graph">
<g id="graph0" class="graph" transform="scale(1 1) rotate(0) translate(4 268)">
<title>XmlData</title>
<!-- Node1 -->
<g id="Node000001" class="node">
<title>Node1</title>
<g id="a_Node000001"><a xlink:title=" ">
<polygon fill="#999999" stroke="transparent" points="94,-64 0,-64 0,0 94,0 94,-64"/>
<text text-anchor="start" x="25.5" y="-52" font-family="Helvetica,sans-Serif" font-size="10.00">XmlData</text>
<text text-anchor="start" x="45" y="-37" font-family="Helvetica,sans-Serif" font-size="10.00"> </text>
<text text-anchor="start" x="4" y="-22" font-family="Helvetica,sans-Serif" font-size="10.00">+</text>
<text text-anchor="start" x="17" y="-22" font-family="Helvetica,sans-Serif" font-size="10.00">GetAttributes()</text>
<text text-anchor="start" x="4" y="-7" font-family="Helvetica,sans-Serif" font-size="10.00">+</text>
<text text-anchor="start" x="17" y="-7" font-family="Helvetica,sans-Serif" font-size="10.00">GetText()</text>
<polygon fill="#666666" stroke="#666666" points="0,-47 0,-47 94,-47 94,-47 0,-47"/>
<polygon fill="#666666" stroke="#666666" points="0,-32 0,-32 94,-32 94,-32 0,-32"/>
<polygon fill="none" stroke="#666666" points="0,0 0,-64 94,-64 94,0 0,0"/>
</a>
</g>
</g>
<!-- Node2 -->
<g id="Node000002" class="node">
<title>Node2</title>
<g id="a_Node000002"><a xlink:href="classpython__scripts_1_1xdmf_1_1Data_1_1Data.html" target="_top" xlink:title=" ">
<polygon fill="white" stroke="transparent" points="94,-179 0,-179 0,-100 94,-100 94,-179"/>
<text text-anchor="start" x="35" y="-166.5" font-family="Helvetica,sans-Serif" font-size="10.00">Data</text>
<text text-anchor="start" x="45" y="-151.5" font-family="Helvetica,sans-Serif" font-size="10.00"> </text>
<text text-anchor="start" x="4" y="-136.5" font-family="Helvetica,sans-Serif" font-size="10.00">+</text>
<text text-anchor="start" x="17" y="-136.5" font-family="Helvetica,sans-Serif" font-size="10.00">GetAttributes()</text>
<text text-anchor="start" x="4" y="-121.5" font-family="Helvetica,sans-Serif" font-size="10.00">+</text>
<text text-anchor="start" x="17" y="-121.5" font-family="Helvetica,sans-Serif" font-size="10.00">GetShape()</text>
<text text-anchor="start" x="4" y="-106.5" font-family="Helvetica,sans-Serif" font-size="10.00">+</text>
<text text-anchor="start" x="17" y="-106.5" font-family="Helvetica,sans-Serif" font-size="10.00">GetText()</text>
<polygon fill="#666666" stroke="#666666" points="0,-161.5 0,-161.5 94,-161.5 94,-161.5 0,-161.5"/>
<polygon fill="#666666" stroke="#666666" points="0,-146.5 0,-146.5 94,-146.5 94,-146.5 0,-146.5"/>
<polygon fill="none" stroke="#666666" points="0,-100 0,-179 94,-179 94,-100 0,-100"/>
</a>
</g>
</g>
<!-- Node2&#45;&gt;Node1 -->
<g id="edge1_Node000001_Node000002" class="edge">
<title>Node2&#45;&gt;Node1</title>
<g id="a_edge1_Node000001_Node000002"><a xlink:title=" ">
<path fill="none" stroke="#63b8ff" d="M47,-89.71C47,-81 47,-72.14 47,-64.09"/>
<polygon fill="none" stroke="#63b8ff" points="43.5,-89.81 47,-99.81 50.5,-89.81 43.5,-89.81"/>
</a>
</g>
</g>
<!-- Node3 -->
<g id="Node000003" class="node">
<title>Node3</title>
<g id="a_Node000003"><a xlink:title=" ">
<polygon fill="white" stroke="transparent" points="62.5,-264 31.5,-264 31.5,-215 62.5,-215 62.5,-264"/>
<text text-anchor="start" x="37" y="-251.5" font-family="Helvetica,sans-Serif" font-size="10.00">ABC</text>
<text text-anchor="start" x="45.5" y="-236.5" font-family="Helvetica,sans-Serif" font-size="10.00"> </text>
<text text-anchor="start" x="45.5" y="-221.5" font-family="Helvetica,sans-Serif" font-size="10.00"> </text>
<polygon fill="#666666" stroke="#666666" points="32,-246.5 32,-246.5 63,-246.5 63,-246.5 32,-246.5"/>
<polygon fill="#666666" stroke="#666666" points="32,-231.5 32,-231.5 63,-231.5 63,-231.5 32,-231.5"/>
<polygon fill="none" stroke="#666666" points="31.5,-215 31.5,-264 62.5,-264 62.5,-215 31.5,-215"/>
</a>
</g>
</g>
<!-- Node3&#45;&gt;Node2 -->
<g id="edge2_Node000002_Node000003" class="edge">
<title>Node3&#45;&gt;Node2</title>
<g id="a_edge2_Node000002_Node000003"><a xlink:title=" ">
<path fill="none" stroke="#63b8ff" d="M47,-204.52C47,-196.38 47,-187.63 47,-179.29"/>
<polygon fill="none" stroke="#63b8ff" points="43.5,-204.78 47,-214.78 50.5,-204.78 43.5,-204.78"/>
</a>
</g>
</g>
</g>
</svg>
</svg>

<style type='text/css'>
<![CDATA[
[data-mouse-over-selected='false'] { opacity: 0.7; }
[data-mouse-over-selected='true']  { opacity: 1.0; }
]]>
</style>
<script type="application/ecmascript"><![CDATA[
document.addEventListener('DOMContentLoaded', (event) => {
  highlightEdges();
  highlightAdjacentNodes();
});
]]></script>
</svg>
