<?xml version="1.0" encoding="UTF-8" standalone="no"?>
<!DOCTYPE svg PUBLIC "-//W3C//DTD SVG 1.1//EN"
 "http://www.w3.org/Graphics/SVG/1.1/DTD/svg11.dtd">
<!-- Generated by graphviz version 2.43.0 (0)
 -->
<!-- Title: GenerateHDF5Journal Pages: 1 -->
<svg width="242pt" height="171pt"
 viewBox="0.00 0.00 241.50 171.00" xmlns="http://www.w3.org/2000/svg" xmlns:xlink="http://www.w3.org/1999/xlink">
<g id="graph0" class="graph" transform="scale(1 1) rotate(0) translate(4 167)">
<title>GenerateHDF5Journal</title>
<polygon fill="white" stroke="transparent" points="-4,4 -4,-167 237.5,-167 237.5,4 -4,4"/>
<!-- Node1 -->
<g id="node1" class="node">
<title>Node1</title>
<g id="a_node1"><a xlink:title="Generate a Kratos::Journal from globbed HDF5 results.">
<polygon fill="#bfbfbf" stroke="black" points="39,-0.5 39,-68.5 183,-68.5 183,-0.5 39,-0.5"/>
<text text-anchor="middle" x="111" y="-56.5" font-family="Helvetica,sans-Serif" font-size="10.00">GenerateHDF5Journal</text>
<polyline fill="none" stroke="black" points="39,-49.5 183,-49.5 "/>
<text text-anchor="middle" x="111" y="-37.5" font-family="Helvetica,sans-Serif" font-size="10.00"> </text>
<polyline fill="none" stroke="black" points="39,-30.5 183,-30.5 "/>
<text text-anchor="start" x="47" y="-18.5" font-family="Helvetica,sans-Serif" font-size="10.00">+ Execute()</text>
<text text-anchor="start" x="47" y="-7.5" font-family="Helvetica,sans-Serif" font-size="10.00">+ GetDefaultParameters()</text>
</a>
</g>
</g>
<!-- Node2 -->
<g id="node2" class="node">
<title>Node2</title>
<g id="a_node2"><a xlink:title=" ">
<polygon fill="white" stroke="#bfbfbf" points="0,-105.5 0,-162.5 54,-162.5 54,-105.5 0,-105.5"/>
<text text-anchor="middle" x="27" y="-150.5" font-family="Helvetica,sans-Serif" font-size="10.00">Process</text>
<polyline fill="none" stroke="#bfbfbf" points="0,-143.5 54,-143.5 "/>
<text text-anchor="middle" x="27" y="-131.5" font-family="Helvetica,sans-Serif" font-size="10.00"> </text>
<polyline fill="none" stroke="#bfbfbf" points="0,-124.5 54,-124.5 "/>
<text text-anchor="middle" x="27" y="-112.5" font-family="Helvetica,sans-Serif" font-size="10.00"> </text>
</a>
</g>
</g>
<!-- Node2&#45;&gt;Node1 -->
<g id="edge1" class="edge">
<title>Node2&#45;&gt;Node1</title>
<path fill="none" stroke="midnightblue" d="M57.48,-97.62C65.59,-88.21 74.32,-78.08 82.32,-68.79"/>
<polygon fill="none" stroke="midnightblue" points="54.72,-95.46 50.85,-105.32 60.03,-100.03 54.72,-95.46"/>
</g>
<!-- Node3 -->
<g id="node3" class="node">
<title>Node3</title>
<g id="a_node3"><a xlink:title=" ">
<polygon fill="white" stroke="#bfbfbf" points="72,-105.5 72,-162.5 150,-162.5 150,-105.5 72,-105.5"/>
<text text-anchor="middle" x="111" y="-150.5" font-family="Helvetica,sans-Serif" font-size="10.00">WRAppClass</text>
<polyline fill="none" stroke="#bfbfbf" points="72,-143.5 150,-143.5 "/>
<text text-anchor="middle" x="111" y="-131.5" font-family="Helvetica,sans-Serif" font-size="10.00"> </text>
<polyline fill="none" stroke="#bfbfbf" points="72,-124.5 150,-124.5 "/>
<text text-anchor="middle" x="111" y="-112.5" font-family="Helvetica,sans-Serif" font-size="10.00"> </text>
</a>
</g>
</g>
<!-- Node3&#45;&gt;Node1 -->
<g id="edge2" class="edge">
<title>Node3&#45;&gt;Node1</title>
<path fill="none" stroke="midnightblue" d="M111,-95.06C111,-86.39 111,-77.24 111,-68.79"/>
<polygon fill="none" stroke="midnightblue" points="107.5,-95.32 111,-105.32 114.5,-95.32 107.5,-95.32"/>
</g>
<!-- Node4 -->
<g id="node4" class="node">
<title>Node4</title>
<g id="a_node4"><a xlink:title=" ">
<polygon fill="white" stroke="#bfbfbf" points="168.5,-105.5 168.5,-162.5 233.5,-162.5 233.5,-105.5 168.5,-105.5"/>
<text text-anchor="middle" x="201" y="-150.5" font-family="Helvetica,sans-Serif" font-size="10.00">Operation</text>
<polyline fill="none" stroke="#bfbfbf" points="168.5,-143.5 233.5,-143.5 "/>
<text text-anchor="middle" x="201" y="-131.5" font-family="Helvetica,sans-Serif" font-size="10.00"> </text>
<polyline fill="none" stroke="#bfbfbf" points="168.5,-124.5 233.5,-124.5 "/>
<text text-anchor="middle" x="201" y="-112.5" font-family="Helvetica,sans-Serif" font-size="10.00"> </text>
</a>
</g>
</g>
<!-- Node4&#45;&gt;Node1 -->
<g id="edge3" class="edge">
<title>Node4&#45;&gt;Node1</title>
<path fill="none" stroke="midnightblue" d="M168.6,-97.9C159.84,-88.41 150.39,-78.17 141.73,-68.79"/>
<polygon fill="none" stroke="midnightblue" points="166.1,-100.35 175.45,-105.32 171.24,-95.6 166.1,-100.35"/>
</g>
</g>
</svg>
