<?xml version="1.0" encoding="UTF-8" standalone="no"?>
<!DOCTYPE svg PUBLIC "-//W3C//DTD SVG 1.1//EN"
 "http://www.w3.org/Graphics/SVG/1.1/DTD/svg11.dtd">
<!-- Generated by graphviz version 2.43.0 (0)
 -->
<!-- Title: SnapshotInMemory Pages: 1 -->
<svg width="148pt" height="142pt"
 viewBox="0.00 0.00 148.00 142.00" xmlns="http://www.w3.org/2000/svg" xmlns:xlink="http://www.w3.org/1999/xlink">
<g id="graph0" class="graph" transform="scale(1 1) rotate(0) translate(4 138)">
<title>SnapshotInMemory</title>
<!-- Node1 -->
<g id="Node000001" class="node">
<title>Node1</title>
<g id="a_Node000001"><a xlink:title="Snapshot that stores/fetches its data in/from memory.">
<polygon fill="#999999" stroke="transparent" points="119.5,-49 14.5,-49 14.5,0 119.5,0 119.5,-49"/>
<text text-anchor="start" x="20" y="-36.5" font-family="Helvetica,sans-Serif" font-size="10.00">SnapshotInMemory</text>
<text text-anchor="start" x="65.5" y="-21.5" font-family="Helvetica,sans-Serif" font-size="10.00"> </text>
<text text-anchor="start" x="65.5" y="-6.5" font-family="Helvetica,sans-Serif" font-size="10.00"> </text>
<polygon fill="#666666" stroke="#666666" points="15,-31.5 15,-31.5 120,-31.5 120,-31.5 15,-31.5"/>
<polygon fill="#666666" stroke="#666666" points="15,-16.5 15,-16.5 120,-16.5 120,-16.5 15,-16.5"/>
<polygon fill="none" stroke="#666666" points="14.5,0 14.5,-49 119.5,-49 119.5,0 14.5,0"/>
</a>
</g>
</g>
<!-- Node2 -->
<g id="Node000002" class="node">
<title>Node2</title>
<g id="a_Node000002"><a xlink:title=" ">
<polygon fill="white" stroke="transparent" points="56,-134 0,-134 0,-85 56,-85 56,-134"/>
<text text-anchor="start" x="5" y="-121.5" font-family="Helvetica,sans-Serif" font-size="10.00">Snapshot</text>
<text text-anchor="start" x="26" y="-106.5" font-family="Helvetica,sans-Serif" font-size="10.00"> </text>
<text text-anchor="start" x="26" y="-91.5" font-family="Helvetica,sans-Serif" font-size="10.00"> </text>
<polygon fill="#666666" stroke="#666666" points="0,-116.5 0,-116.5 56,-116.5 56,-116.5 0,-116.5"/>
<polygon fill="#666666" stroke="#666666" points="0,-101.5 0,-101.5 56,-101.5 56,-101.5 0,-101.5"/>
<polygon fill="none" stroke="#666666" points="0,-85 0,-134 56,-134 56,-85 0,-85"/>
</a>
</g>
</g>
<!-- Node2&#45;&gt;Node1 -->
<g id="edge1_Node000001_Node000002" class="edge">
<title>Node2&#45;&gt;Node1</title>
<g id="a_edge1_Node000001_Node000002"><a xlink:title=" ">
<path fill="none" stroke="#63b8ff" d="M43.45,-75.62C47.61,-66.77 52.03,-57.36 55.9,-49.12"/>
<polygon fill="none" stroke="#63b8ff" points="40.16,-74.4 39.07,-84.94 46.49,-77.38 40.16,-74.4"/>
</a>
</g>
</g>
<!-- Node3 -->
<g id="Node000003" class="node">
<title>Node3</title>
<g id="a_Node000003"><a xlink:title=" ">
<polygon fill="white" stroke="transparent" points="140,-134 74,-134 74,-85 140,-85 140,-134"/>
<text text-anchor="start" x="79" y="-121.5" font-family="Helvetica,sans-Serif" font-size="10.00">SnapshotIO</text>
<text text-anchor="start" x="105" y="-106.5" font-family="Helvetica,sans-Serif" font-size="10.00"> </text>
<text text-anchor="start" x="105" y="-91.5" font-family="Helvetica,sans-Serif" font-size="10.00"> </text>
<polygon fill="#666666" stroke="#666666" points="74,-116.5 74,-116.5 140,-116.5 140,-116.5 74,-116.5"/>
<polygon fill="#666666" stroke="#666666" points="74,-101.5 74,-101.5 140,-101.5 140,-101.5 74,-101.5"/>
<polygon fill="none" stroke="#666666" points="74,-85 74,-134 140,-134 140,-85 74,-85"/>
</a>
</g>
</g>
<!-- Node3&#45;&gt;Node1 -->
<g id="edge2_Node000001_Node000003" class="edge">
<title>Node3&#45;&gt;Node1</title>
<g id="a_edge2_Node000001_Node000003"><a xlink:title=" ">
<path fill="none" stroke="#63b8ff" d="M91.29,-75.91C86.98,-66.97 82.4,-57.45 78.38,-49.12"/>
<polygon fill="none" stroke="#63b8ff" points="88.15,-77.45 95.64,-84.94 94.46,-74.41 88.15,-77.45"/>
</a>
</g>
</g>
</g>
</svg>
