<?xml version="1.0" encoding="UTF-8" standalone="no"?>
<!DOCTYPE svg PUBLIC "-//W3C//DTD SVG 1.1//EN"
 "http://www.w3.org/Graphics/SVG/1.1/DTD/svg11.dtd">
<!-- Generated by graphviz version 2.43.0 (0)
 -->
<!-- Title: SnapshotFS Pages: 1 -->
<svg width="152pt" height="474pt"
 viewBox="0.00 0.00 152.00 474.00" xmlns="http://www.w3.org/2000/svg" xmlns:xlink="http://www.w3.org/1999/xlink">
<g id="graph0" class="graph" transform="scale(1 1) rotate(0) translate(4 470)">
<title>SnapshotFS</title>
<polygon fill="white" stroke="transparent" points="-4,4 -4,-470 148,-470 148,4 -4,4"/>
<!-- Node1 -->
<g id="node1" class="node">
<title>Node1</title>
<g id="a_node1"><a xlink:title="Class representing a snapshot of a ModelPart state and its associated output file on the filesystem.">
<polygon fill="#bfbfbf" stroke="black" points="17.5,-0.5 17.5,-134.5 126.5,-134.5 126.5,-0.5 17.5,-0.5"/>
<text text-anchor="middle" x="72" y="-122.5" font-family="Helvetica,sans-Serif" font-size="10.00">SnapshotFS</text>
<polyline fill="none" stroke="black" points="17.5,-115.5 126.5,-115.5 "/>
<text text-anchor="middle" x="72" y="-103.5" font-family="Helvetica,sans-Serif" font-size="10.00"> </text>
<polyline fill="none" stroke="black" points="17.5,-96.5 126.5,-96.5 "/>
<text text-anchor="start" x="25.5" y="-84.5" font-family="Helvetica,sans-Serif" font-size="10.00">+ Write()</text>
<text text-anchor="start" x="25.5" y="-73.5" font-family="Helvetica,sans-Serif" font-size="10.00">+ Load()</text>
<text text-anchor="start" x="25.5" y="-62.5" font-family="Helvetica,sans-Serif" font-size="10.00">+ Erase()</text>
<text text-anchor="start" x="25.5" y="-51.5" font-family="Helvetica,sans-Serif" font-size="10.00">+ Exists()</text>
<text text-anchor="start" x="25.5" y="-40.5" font-family="Helvetica,sans-Serif" font-size="10.00">+ IsValid()</text>
<text text-anchor="start" x="25.5" y="-29.5" font-family="Helvetica,sans-Serif" font-size="10.00">+ FromFile()</text>
<text text-anchor="start" x="25.5" y="-18.5" font-family="Helvetica,sans-Serif" font-size="10.00">+ FromModelPart()</text>
<text text-anchor="start" x="25.5" y="-7.5" font-family="Helvetica,sans-Serif" font-size="10.00">+ Collect()</text>
</a>
</g>
</g>
<!-- Node2 -->
<g id="node2" class="node">
<title>Node2</title>
<g id="a_node2"><a xlink:href="classpython__scripts_1_1checkpoint_1_1Snapshot_1_1Snapshot.html" target="_top" xlink:title="Class representing a snapshot of a ModelPart state.">
<polygon fill="white" stroke="black" points="0,-171.5 0,-371.5 144,-371.5 144,-171.5 0,-171.5"/>
<text text-anchor="middle" x="72" y="-359.5" font-family="Helvetica,sans-Serif" font-size="10.00">Snapshot</text>
<polyline fill="none" stroke="black" points="0,-352.5 144,-352.5 "/>
<text text-anchor="middle" x="72" y="-340.5" font-family="Helvetica,sans-Serif" font-size="10.00"> </text>
<polyline fill="none" stroke="black" points="0,-333.5 144,-333.5 "/>
<text text-anchor="start" x="8" y="-321.5" font-family="Helvetica,sans-Serif" font-size="10.00">+ Load()</text>
<text text-anchor="start" x="8" y="-310.5" font-family="Helvetica,sans-Serif" font-size="10.00">+ Write()</text>
<text text-anchor="start" x="8" y="-299.5" font-family="Helvetica,sans-Serif" font-size="10.00">+ Erase()</text>
<text text-anchor="start" x="8" y="-288.5" font-family="Helvetica,sans-Serif" font-size="10.00">+ Exists()</text>
<text text-anchor="start" x="8" y="-277.5" font-family="Helvetica,sans-Serif" font-size="10.00">+ IsValid()</text>
<text text-anchor="start" x="8" y="-266.5" font-family="Helvetica,sans-Serif" font-size="10.00">+ GetManagerType()</text>
<text text-anchor="start" x="8" y="-255.5" font-family="Helvetica,sans-Serif" font-size="10.00">+ GetDefaultParameters()</text>
<text text-anchor="start" x="8" y="-244.5" font-family="Helvetica,sans-Serif" font-size="10.00">+ analysis_path()</text>
<text text-anchor="start" x="8" y="-233.5" font-family="Helvetica,sans-Serif" font-size="10.00">+ step()</text>
<text text-anchor="start" x="8" y="-222.5" font-family="Helvetica,sans-Serif" font-size="10.00">+ id()</text>
<text text-anchor="start" x="8" y="-211.5" font-family="Helvetica,sans-Serif" font-size="10.00">+ GetInputType()</text>
<text text-anchor="start" x="8" y="-200.5" font-family="Helvetica,sans-Serif" font-size="10.00">+ GetOutputType()</text>
<text text-anchor="start" x="8" y="-189.5" font-family="Helvetica,sans-Serif" font-size="10.00">+ GetSolutionPath()</text>
<text text-anchor="start" x="8" y="-178.5" font-family="Helvetica,sans-Serif" font-size="10.00">+ FromModelPart()</text>
</a>
</g>
</g>
<!-- Node2&#45;&gt;Node1 -->
<g id="edge1" class="edge">
<title>Node2&#45;&gt;Node1</title>
<path fill="none" stroke="midnightblue" d="M72,-161.05C72,-152.02 72,-143.07 72,-134.51"/>
<polygon fill="none" stroke="midnightblue" points="68.5,-161.28 72,-171.28 75.5,-161.28 68.5,-161.28"/>
</g>
<!-- Node3 -->
<g id="node3" class="node">
<title>Node3</title>
<g id="a_node3"><a xlink:title=" ">
<polygon fill="white" stroke="#bfbfbf" points="33,-408.5 33,-465.5 111,-465.5 111,-408.5 33,-408.5"/>
<text text-anchor="middle" x="72" y="-453.5" font-family="Helvetica,sans-Serif" font-size="10.00">WRAppClass</text>
<polyline fill="none" stroke="#bfbfbf" points="33,-446.5 111,-446.5 "/>
<text text-anchor="middle" x="72" y="-434.5" font-family="Helvetica,sans-Serif" font-size="10.00"> </text>
<polyline fill="none" stroke="#bfbfbf" points="33,-427.5 111,-427.5 "/>
<text text-anchor="middle" x="72" y="-415.5" font-family="Helvetica,sans-Serif" font-size="10.00"> </text>
</a>
</g>
</g>
<!-- Node3&#45;&gt;Node2 -->
<g id="edge2" class="edge">
<title>Node3&#45;&gt;Node2</title>
<path fill="none" stroke="midnightblue" d="M72,-398.04C72,-389.87 72,-380.87 72,-371.55"/>
<polygon fill="none" stroke="midnightblue" points="68.5,-398.26 72,-408.26 75.5,-398.26 68.5,-398.26"/>
</g>
</g>
</svg>
