<?xml version="1.0" encoding="UTF-8" standalone="no"?>
<!DOCTYPE svg PUBLIC "-//W3C//DTD SVG 1.1//EN"
 "http://www.w3.org/Graphics/SVG/1.1/DTD/svg11.dtd">
<!-- Generated by graphviz version 2.43.0 (0)
 -->
<!-- Title: KratosDataset Pages: 1 -->
<svg width="152pt" height="342pt"
 viewBox="0.00 0.00 152.00 342.00" xmlns="http://www.w3.org/2000/svg" xmlns:xlink="http://www.w3.org/1999/xlink">
<g id="graph0" class="graph" transform="scale(1 1) rotate(0) translate(4 338)">
<title>KratosDataset</title>
<polygon fill="white" stroke="transparent" points="-4,4 -4,-338 148,-338 148,4 -4,4"/>
<!-- Node1 -->
<g id="node1" class="node">
<title>Node1</title>
<g id="a_node1"><a xlink:title="Class representing a Variable stored in a ModelPart.">
<polygon fill="#bfbfbf" stroke="black" points="0,-0.5 0,-101.5 144,-101.5 144,-0.5 0,-0.5"/>
<text text-anchor="middle" x="72" y="-89.5" font-family="Helvetica,sans-Serif" font-size="10.00">KratosDataset</text>
<polyline fill="none" stroke="black" points="0,-82.5 144,-82.5 "/>
<text text-anchor="middle" x="72" y="-70.5" font-family="Helvetica,sans-Serif" font-size="10.00"> </text>
<polyline fill="none" stroke="black" points="0,-63.5 144,-63.5 "/>
<text text-anchor="start" x="8" y="-51.5" font-family="Helvetica,sans-Serif" font-size="10.00">+ GetDefaultParameters()</text>
<text text-anchor="start" x="8" y="-40.5" font-family="Helvetica,sans-Serif" font-size="10.00">+ Fetch()</text>
<text text-anchor="start" x="8" y="-29.5" font-family="Helvetica,sans-Serif" font-size="10.00">+ Assign()</text>
<text text-anchor="start" x="8" y="-18.5" font-family="Helvetica,sans-Serif" font-size="10.00">+ expression()</text>
<text text-anchor="start" x="8" y="-7.5" font-family="Helvetica,sans-Serif" font-size="10.00">+ expression()</text>
</a>
</g>
</g>
<!-- Node2 -->
<g id="node2" class="node">
<title>Node2</title>
<g id="a_node2"><a xlink:href="classpython__scripts_1_1coupling_1_1Dataset_1_1Dataset.html" target="_top" xlink:title="Class representing a dataset that can be operated on during coupling.">
<polygon fill="white" stroke="black" points="27.5,-138.5 27.5,-239.5 116.5,-239.5 116.5,-138.5 27.5,-138.5"/>
<text text-anchor="middle" x="72" y="-227.5" font-family="Helvetica,sans-Serif" font-size="10.00">Dataset</text>
<polyline fill="none" stroke="black" points="27.5,-220.5 116.5,-220.5 "/>
<text text-anchor="middle" x="72" y="-208.5" font-family="Helvetica,sans-Serif" font-size="10.00"> </text>
<polyline fill="none" stroke="black" points="27.5,-201.5 116.5,-201.5 "/>
<text text-anchor="start" x="35.5" y="-189.5" font-family="Helvetica,sans-Serif" font-size="10.00">+ Factory()</text>
<text text-anchor="start" x="35.5" y="-178.5" font-family="Helvetica,sans-Serif" font-size="10.00">+ Fetch()</text>
<text text-anchor="start" x="35.5" y="-167.5" font-family="Helvetica,sans-Serif" font-size="10.00">+ Assign()</text>
<text text-anchor="start" x="35.5" y="-156.5" font-family="Helvetica,sans-Serif" font-size="10.00">+ expression()</text>
<text text-anchor="start" x="35.5" y="-145.5" font-family="Helvetica,sans-Serif" font-size="10.00">+ expression()</text>
</a>
</g>
</g>
<!-- Node2&#45;&gt;Node1 -->
<g id="edge1" class="edge">
<title>Node2&#45;&gt;Node1</title>
<path fill="none" stroke="midnightblue" d="M72,-128C72,-119.27 72,-110.36 72,-101.86"/>
<polygon fill="none" stroke="midnightblue" points="68.5,-128.13 72,-138.13 75.5,-128.13 68.5,-128.13"/>
</g>
<!-- Node3 -->
<g id="node3" class="node">
<title>Node3</title>
<g id="a_node3"><a xlink:title=" ">
<polygon fill="white" stroke="#bfbfbf" points="33,-276.5 33,-333.5 111,-333.5 111,-276.5 33,-276.5"/>
<text text-anchor="middle" x="72" y="-321.5" font-family="Helvetica,sans-Serif" font-size="10.00">WRAppClass</text>
<polyline fill="none" stroke="#bfbfbf" points="33,-314.5 111,-314.5 "/>
<text text-anchor="middle" x="72" y="-302.5" font-family="Helvetica,sans-Serif" font-size="10.00"> </text>
<polyline fill="none" stroke="#bfbfbf" points="33,-295.5 111,-295.5 "/>
<text text-anchor="middle" x="72" y="-283.5" font-family="Helvetica,sans-Serif" font-size="10.00"> </text>
</a>
</g>
</g>
<!-- Node3&#45;&gt;Node2 -->
<g id="edge2" class="edge">
<title>Node3&#45;&gt;Node2</title>
<path fill="none" stroke="midnightblue" d="M72,-266.35C72,-257.8 72,-248.58 72,-239.61"/>
<polygon fill="none" stroke="midnightblue" points="68.5,-266.4 72,-276.4 75.5,-266.4 68.5,-266.4"/>
</g>
</g>
</svg>
