<?xml version="1.0" encoding="UTF-8" standalone="no"?>
<!DOCTYPE svg PUBLIC "-//W3C//DTD SVG 1.1//EN"
 "http://www.w3.org/Graphics/SVG/1.1/DTD/svg11.dtd">
<!-- Generated by graphviz version 2.43.0 (0)
 -->
<!-- Title: DatasetMap Pages: 1 -->
<svg width="225pt" height="298pt"
 viewBox="0.00 0.00 224.50 298.00" xmlns="http://www.w3.org/2000/svg" xmlns:xlink="http://www.w3.org/1999/xlink">
<g id="graph0" class="graph" transform="scale(1 1) rotate(0) translate(4 294)">
<title>DatasetMap</title>
<polygon fill="white" stroke="transparent" points="-4,4 -4,-294 220.5,-294 220.5,4 -4,4"/>
<!-- Node1 -->
<g id="node1" class="node">
<title>Node1</title>
<g id="a_node1"><a xlink:title="DatasetTransform that uses a Mapper to map datasets before assigning them to the target ModelPart.">
<polygon fill="#bfbfbf" stroke="black" points="57,-0.5 57,-79.5 201,-79.5 201,-0.5 57,-0.5"/>
<text text-anchor="middle" x="129" y="-67.5" font-family="Helvetica,sans-Serif" font-size="10.00">DatasetMap</text>
<polyline fill="none" stroke="black" points="57,-60.5 201,-60.5 "/>
<text text-anchor="middle" x="129" y="-48.5" font-family="Helvetica,sans-Serif" font-size="10.00"> </text>
<polyline fill="none" stroke="black" points="57,-41.5 201,-41.5 "/>
<text text-anchor="start" x="65" y="-29.5" font-family="Helvetica,sans-Serif" font-size="10.00">+ Execute()</text>
<text text-anchor="start" x="65" y="-18.5" font-family="Helvetica,sans-Serif" font-size="10.00">+ Factory()</text>
<text text-anchor="start" x="65" y="-7.5" font-family="Helvetica,sans-Serif" font-size="10.00">+ GetDefaultParameters()</text>
</a>
</g>
</g>
<!-- Node2 -->
<g id="node2" class="node">
<title>Node2</title>
<g id="a_node2"><a xlink:href="classpython__scripts_1_1coupling_1_1DatasetTransfer_1_1DatasetTransform.html" target="_top" xlink:title="Fetch, transform and assign data between ModelPart s.">
<polygon fill="white" stroke="black" points="57,-116.5 57,-195.5 201,-195.5 201,-116.5 57,-116.5"/>
<text text-anchor="middle" x="129" y="-183.5" font-family="Helvetica,sans-Serif" font-size="10.00">DatasetTransform</text>
<polyline fill="none" stroke="black" points="57,-176.5 201,-176.5 "/>
<text text-anchor="middle" x="129" y="-164.5" font-family="Helvetica,sans-Serif" font-size="10.00"> </text>
<polyline fill="none" stroke="black" points="57,-157.5 201,-157.5 "/>
<text text-anchor="start" x="65" y="-145.5" font-family="Helvetica,sans-Serif" font-size="10.00">+ Execute()</text>
<text text-anchor="start" x="65" y="-134.5" font-family="Helvetica,sans-Serif" font-size="10.00">+ Factory()</text>
<text text-anchor="start" x="65" y="-123.5" font-family="Helvetica,sans-Serif" font-size="10.00">+ GetDefaultParameters()</text>
</a>
</g>
</g>
<!-- Node2&#45;&gt;Node1 -->
<g id="edge1" class="edge">
<title>Node2&#45;&gt;Node1</title>
<path fill="none" stroke="midnightblue" d="M129,-106.15C129,-97.26 129,-88.1 129,-79.56"/>
<polygon fill="none" stroke="midnightblue" points="125.5,-106.4 129,-116.4 132.5,-106.4 125.5,-106.4"/>
</g>
<!-- Node3 -->
<g id="node3" class="node">
<title>Node3</title>
<g id="a_node3"><a xlink:title=" ">
<polygon fill="white" stroke="#bfbfbf" points="0,-232.5 0,-289.5 78,-289.5 78,-232.5 0,-232.5"/>
<text text-anchor="middle" x="39" y="-277.5" font-family="Helvetica,sans-Serif" font-size="10.00">WRAppClass</text>
<polyline fill="none" stroke="#bfbfbf" points="0,-270.5 78,-270.5 "/>
<text text-anchor="middle" x="39" y="-258.5" font-family="Helvetica,sans-Serif" font-size="10.00"> </text>
<polyline fill="none" stroke="#bfbfbf" points="0,-251.5 78,-251.5 "/>
<text text-anchor="middle" x="39" y="-239.5" font-family="Helvetica,sans-Serif" font-size="10.00"> </text>
</a>
</g>
</g>
<!-- Node3&#45;&gt;Node2 -->
<g id="edge2" class="edge">
<title>Node3&#45;&gt;Node2</title>
<path fill="none" stroke="midnightblue" d="M69.83,-224.72C78.05,-215.31 86.98,-205.09 95.34,-195.52"/>
<polygon fill="none" stroke="midnightblue" points="67.06,-222.56 63.12,-232.4 72.33,-227.17 67.06,-222.56"/>
</g>
<!-- Node4 -->
<g id="node4" class="node">
<title>Node4</title>
<g id="a_node4"><a xlink:title=" ">
<polygon fill="white" stroke="#bfbfbf" points="96.5,-232.5 96.5,-289.5 161.5,-289.5 161.5,-232.5 96.5,-232.5"/>
<text text-anchor="middle" x="129" y="-277.5" font-family="Helvetica,sans-Serif" font-size="10.00">Operation</text>
<polyline fill="none" stroke="#bfbfbf" points="96.5,-270.5 161.5,-270.5 "/>
<text text-anchor="middle" x="129" y="-258.5" font-family="Helvetica,sans-Serif" font-size="10.00"> </text>
<polyline fill="none" stroke="#bfbfbf" points="96.5,-251.5 161.5,-251.5 "/>
<text text-anchor="middle" x="129" y="-239.5" font-family="Helvetica,sans-Serif" font-size="10.00"> </text>
</a>
</g>
</g>
<!-- Node4&#45;&gt;Node2 -->
<g id="edge3" class="edge">
<title>Node4&#45;&gt;Node2</title>
<path fill="none" stroke="midnightblue" d="M129,-222.16C129,-213.47 129,-204.23 129,-195.52"/>
<polygon fill="none" stroke="midnightblue" points="125.5,-222.4 129,-232.4 132.5,-222.4 125.5,-222.4"/>
</g>
<!-- Node5 -->
<g id="node5" class="node">
<title>Node5</title>
<g id="a_node5"><a xlink:title=" ">
<polygon fill="white" stroke="#bfbfbf" points="179.5,-232.5 179.5,-289.5 216.5,-289.5 216.5,-232.5 179.5,-232.5"/>
<text text-anchor="middle" x="198" y="-277.5" font-family="Helvetica,sans-Serif" font-size="10.00">ABC</text>
<polyline fill="none" stroke="#bfbfbf" points="179.5,-270.5 216.5,-270.5 "/>
<text text-anchor="middle" x="198" y="-258.5" font-family="Helvetica,sans-Serif" font-size="10.00"> </text>
<polyline fill="none" stroke="#bfbfbf" points="179.5,-251.5 216.5,-251.5 "/>
<text text-anchor="middle" x="198" y="-239.5" font-family="Helvetica,sans-Serif" font-size="10.00"> </text>
</a>
</g>
</g>
<!-- Node5&#45;&gt;Node2 -->
<g id="edge4" class="edge">
<title>Node5&#45;&gt;Node2</title>
<path fill="none" stroke="midnightblue" d="M173.79,-223.87C167.65,-214.69 161.03,-204.81 154.8,-195.52"/>
<polygon fill="none" stroke="midnightblue" points="171.04,-226.04 179.51,-232.4 176.85,-222.14 171.04,-226.04"/>
</g>
</g>
</svg>
