<?xml version="1.0" encoding="UTF-8" standalone="no"?>
<!DOCTYPE svg PUBLIC "-//W3C//DTD SVG 1.1//EN"
 "http://www.w3.org/Graphics/SVG/1.1/DTD/svg11.dtd">
<!-- Generated by graphviz version 2.43.0 (0)
 -->
<!-- Title: ConstPredicate&lt; TInput &gt; Pages: 1 -->
<svg width="152pt" height="226pt"
 viewBox="0.00 0.00 152.00 226.00" xmlns="http://www.w3.org/2000/svg" xmlns:xlink="http://www.w3.org/1999/xlink">
<g id="graph0" class="graph" transform="scale(1 1) rotate(0) translate(4 222)">
<title>ConstPredicate&lt; TInput &gt;</title>
<polygon fill="white" stroke="transparent" points="-4,4 -4,-222 148,-222 148,4 -4,4"/>
<!-- Node1 -->
<g id="node1" class="node">
<title>Node1</title>
<g id="a_node1"><a xlink:title="Return a bool regardless of the input.">
<polygon fill="#bfbfbf" stroke="black" points="0,-0.5 0,-123.5 144,-123.5 144,-0.5 0,-0.5"/>
<text text-anchor="middle" x="72" y="-111.5" font-family="Helvetica,sans-Serif" font-size="10.00">ConstPredicate&lt; TInput &gt;</text>
<polyline fill="none" stroke="black" points="0,-104.5 144,-104.5 "/>
<text text-anchor="middle" x="72" y="-92.5" font-family="Helvetica,sans-Serif" font-size="10.00"> </text>
<polyline fill="none" stroke="black" points="0,-85.5 144,-85.5 "/>
<text text-anchor="start" x="8" y="-73.5" font-family="Helvetica,sans-Serif" font-size="10.00">+ ConstPredicate()</text>
<text text-anchor="start" x="8" y="-62.5" font-family="Helvetica,sans-Serif" font-size="10.00">+ ConstPredicate()</text>
<text text-anchor="start" x="8" y="-51.5" font-family="Helvetica,sans-Serif" font-size="10.00">+ ConstPredicate()</text>
<text text-anchor="start" x="8" y="-40.5" font-family="Helvetica,sans-Serif" font-size="10.00">+ ConstPredicate()</text>
<text text-anchor="start" x="8" y="-29.5" font-family="Helvetica,sans-Serif" font-size="10.00">+ ConstPredicate()</text>
<text text-anchor="start" x="8" y="-18.5" font-family="Helvetica,sans-Serif" font-size="10.00">+ operator()()</text>
<text text-anchor="start" x="8" y="-7.5" font-family="Helvetica,sans-Serif" font-size="10.00">+ GetDefaultParameters()</text>
</a>
</g>
</g>
<!-- Node2 -->
<g id="node2" class="node">
<title>Node2</title>
<g id="a_node2"><a xlink:href="structKratos_1_1Pipes_1_1Traits.html" target="_top" xlink:title=" ">
<polygon fill="white" stroke="black" points="10.5,-160.5 10.5,-217.5 133.5,-217.5 133.5,-160.5 10.5,-160.5"/>
<text text-anchor="middle" x="72" y="-205.5" font-family="Helvetica,sans-Serif" font-size="10.00">Traits&lt; TInput, bool &gt;</text>
<polyline fill="none" stroke="black" points="10.5,-198.5 133.5,-198.5 "/>
<text text-anchor="middle" x="72" y="-186.5" font-family="Helvetica,sans-Serif" font-size="10.00"> </text>
<polyline fill="none" stroke="black" points="10.5,-179.5 133.5,-179.5 "/>
<text text-anchor="middle" x="72" y="-167.5" font-family="Helvetica,sans-Serif" font-size="10.00"> </text>
</a>
</g>
</g>
<!-- Node2&#45;&gt;Node1 -->
<g id="edge1" class="edge">
<title>Node2&#45;&gt;Node1</title>
<path fill="none" stroke="midnightblue" d="M72,-150.1C72,-141.74 72,-132.68 72,-123.67"/>
<polygon fill="none" stroke="midnightblue" points="68.5,-150.26 72,-160.26 75.5,-150.26 68.5,-150.26"/>
</g>
</g>
</svg>
