<?xml version="1.0" encoding="UTF-8" standalone="no"?>
<!DOCTYPE svg PUBLIC "-//W3C//DTD SVG 1.1//EN"
 "http://www.w3.org/Graphics/SVG/1.1/DTD/svg11.dtd">
<!-- Generated by graphviz version 2.43.0 (0)
 -->
<!-- Title: WRAppMeta Pages: 1 -->
<svg width="191pt" height="227pt"
 viewBox="0.00 0.00 190.50 227.00" xmlns="http://www.w3.org/2000/svg" xmlns:xlink="http://www.w3.org/1999/xlink">
<g id="graph0" class="graph" transform="scale(1 1) rotate(0) translate(4 223)">
<title>WRAppMeta</title>
<!-- Node1 -->
<g id="Node000001" class="node">
<title>Node1</title>
<g id="a_Node000001"><a xlink:title="Metaclass replacing that of the C++ WRAppClass to provide derived classes access to abc....">
<polygon fill="#999999" stroke="transparent" points="76.5,-134 5.5,-134 5.5,-85 76.5,-85 76.5,-134"/>
<text text-anchor="start" x="11" y="-121.5" font-family="Helvetica,sans-Serif" font-size="10.00">WRAppMeta</text>
<text text-anchor="start" x="39.5" y="-106.5" font-family="Helvetica,sans-Serif" font-size="10.00"> </text>
<text text-anchor="start" x="39.5" y="-91.5" font-family="Helvetica,sans-Serif" font-size="10.00"> </text>
<polygon fill="#666666" stroke="#666666" points="6,-116.5 6,-116.5 77,-116.5 77,-116.5 6,-116.5"/>
<polygon fill="#666666" stroke="#666666" points="6,-101.5 6,-101.5 77,-101.5 77,-101.5 6,-101.5"/>
<polygon fill="none" stroke="#666666" points="5.5,-85 5.5,-134 76.5,-134 76.5,-85 5.5,-85"/>
</a>
</g>
</g>
<!-- Node5 -->
<g id="Node000005" class="node">
<title>Node5</title>
<g id="a_Node000005"><a xlink:href="classWRAppClass.html" target="_top" xlink:title="WRApp::WRAppClass with a replaced metaclass for compatibility with abc.">
<polygon fill="white" stroke="transparent" points="77,-49 5,-49 5,0 77,0 77,-49"/>
<text text-anchor="start" x="10" y="-36.5" font-family="Helvetica,sans-Serif" font-size="10.00">WRAppClass</text>
<text text-anchor="start" x="39" y="-21.5" font-family="Helvetica,sans-Serif" font-size="10.00"> </text>
<text text-anchor="start" x="39" y="-6.5" font-family="Helvetica,sans-Serif" font-size="10.00"> </text>
<polygon fill="#666666" stroke="#666666" points="5,-31.5 5,-31.5 77,-31.5 77,-31.5 5,-31.5"/>
<polygon fill="#666666" stroke="#666666" points="5,-16.5 5,-16.5 77,-16.5 77,-16.5 5,-16.5"/>
<polygon fill="none" stroke="#666666" points="5,0 5,-49 77,-49 77,0 5,0"/>
</a>
</g>
</g>
<!-- Node1&#45;&gt;Node5 -->
<g id="edge5_Node000001_Node000005" class="edge">
<title>Node1&#45;&gt;Node5</title>
<g id="a_edge5_Node000001_Node000005"><a xlink:title=" ">
<path fill="none" stroke="#63b8ff" d="M41,-74.77C41,-66.17 41,-57.1 41,-49.12"/>
<polygon fill="none" stroke="#63b8ff" points="37.5,-74.94 41,-84.94 44.5,-74.94 37.5,-74.94"/>
</a>
</g>
</g>
<!-- Node2 -->
<g id="Node000002" class="node">
<title>Node2</title>
<g id="a_Node000002"><a xlink:title=" ">
<polygon fill="white" stroke="transparent" points="32,-219 0,-219 0,-170 32,-170 32,-219"/>
<text text-anchor="start" x="5" y="-206.5" font-family="Helvetica,sans-Serif" font-size="10.00">type</text>
<text text-anchor="start" x="14" y="-191.5" font-family="Helvetica,sans-Serif" font-size="10.00"> </text>
<text text-anchor="start" x="14" y="-176.5" font-family="Helvetica,sans-Serif" font-size="10.00"> </text>
<polygon fill="#666666" stroke="#666666" points="0,-201.5 0,-201.5 32,-201.5 32,-201.5 0,-201.5"/>
<polygon fill="#666666" stroke="#666666" points="0,-186.5 0,-186.5 32,-186.5 32,-186.5 0,-186.5"/>
<polygon fill="none" stroke="#666666" points="0,-170 0,-219 32,-219 32,-170 0,-170"/>
</a>
</g>
</g>
<!-- Node2&#45;&gt;Node1 -->
<g id="edge1_Node000001_Node000002" class="edge">
<title>Node2&#45;&gt;Node1</title>
<g id="a_edge1_Node000001_Node000002"><a xlink:title=" ">
<path fill="none" stroke="#63b8ff" d="M19.44,-160.06C21.81,-151.37 24.73,-142.19 27.73,-134.12"/>
<polygon fill="none" stroke="#63b8ff" points="16,-159.38 16.94,-169.94 22.78,-161.1 16,-159.38"/>
</a>
</g>
</g>
<!-- Node2&#45;&gt;Node1 -->
<g id="edge3_Node000001_Node000002" class="edge">
<title>Node2&#45;&gt;Node1</title>
<g id="a_edge3_Node000001_Node000002"><a xlink:title=" ">
<path fill="none" stroke="#63b8ff" d="M32.62,-160.34C35.52,-151.57 38.16,-142.28 40.04,-134.12"/>
<polygon fill="none" stroke="#63b8ff" points="29.26,-159.34 29.25,-169.94 35.86,-161.66 29.26,-159.34"/>
</a>
</g>
</g>
<!-- Node3 -->
<g id="Node000003" class="node">
<title>Node3</title>
<g id="a_Node000003"><a xlink:title=" ">
<polygon fill="white" stroke="transparent" points="81.5,-219 50.5,-219 50.5,-170 81.5,-170 81.5,-219"/>
<text text-anchor="start" x="56" y="-206.5" font-family="Helvetica,sans-Serif" font-size="10.00">ABC</text>
<text text-anchor="start" x="64.5" y="-191.5" font-family="Helvetica,sans-Serif" font-size="10.00"> </text>
<text text-anchor="start" x="64.5" y="-176.5" font-family="Helvetica,sans-Serif" font-size="10.00"> </text>
<polygon fill="#666666" stroke="#666666" points="51,-201.5 51,-201.5 82,-201.5 82,-201.5 51,-201.5"/>
<polygon fill="#666666" stroke="#666666" points="51,-186.5 51,-186.5 82,-186.5 82,-186.5 51,-186.5"/>
<polygon fill="none" stroke="#666666" points="50.5,-170 50.5,-219 81.5,-219 81.5,-170 50.5,-170"/>
</a>
</g>
</g>
<!-- Node3&#45;&gt;Node1 -->
<g id="edge2_Node000001_Node000003" class="edge">
<title>Node3&#45;&gt;Node1</title>
<g id="a_edge2_Node000001_Node000003"><a xlink:title=" ">
<path fill="none" stroke="#63b8ff" d="M56.01,-160.34C53.37,-151.57 50.57,-142.28 48.11,-134.12"/>
<polygon fill="none" stroke="#63b8ff" points="52.67,-161.37 58.9,-169.94 59.37,-159.35 52.67,-161.37"/>
</a>
</g>
</g>
<!-- Node4 -->
<g id="Node000004" class="node">
<title>Node4</title>
<g id="a_Node000004"><a xlink:title=" ">
<polygon fill="white" stroke="transparent" points="182.5,-219 99.5,-219 99.5,-170 182.5,-170 182.5,-219"/>
<text text-anchor="start" x="105" y="-206.5" font-family="Helvetica,sans-Serif" font-size="10.00">__WRAppClass</text>
<text text-anchor="start" x="139.5" y="-191.5" font-family="Helvetica,sans-Serif" font-size="10.00"> </text>
<text text-anchor="start" x="139.5" y="-176.5" font-family="Helvetica,sans-Serif" font-size="10.00"> </text>
<polygon fill="#666666" stroke="#666666" points="100,-201.5 100,-201.5 183,-201.5 183,-201.5 100,-201.5"/>
<polygon fill="#666666" stroke="#666666" points="100,-186.5 100,-186.5 183,-186.5 183,-186.5 100,-186.5"/>
<polygon fill="none" stroke="#666666" points="99.5,-170 99.5,-219 182.5,-219 182.5,-170 99.5,-170"/>
</a>
</g>
</g>
<!-- Node4&#45;&gt;Node1 -->
<g id="edge4_Node000001_Node000004" class="edge">
<title>Node4&#45;&gt;Node1</title>
<g id="a_edge4_Node000001_Node000004"><a xlink:title=" ">
<path fill="none" stroke="#63b8ff" d="M104.77,-163.43C93.15,-153.78 80.45,-143.24 69.46,-134.12"/>
<polygon fill="none" stroke="#63b8ff" points="102.68,-166.24 112.61,-169.94 107.15,-160.86 102.68,-166.24"/>
</a>
</g>
</g>
</g>
</svg>
