<?xml version="1.0" encoding="UTF-8" standalone="no"?>
<!DOCTYPE svg PUBLIC "-//W3C//DTD SVG 1.1//EN"
 "http://www.w3.org/Graphics/SVG/1.1/DTD/svg11.dtd">
<!-- Generated by graphviz version 2.43.0 (0)
 -->
<!-- Title: AsyncSolver.SolverScope Pages: 1 -->
<!--zoomable 464 -->
<svg id="main" version="1.1" xmlns="http://www.w3.org/2000/svg" xmlns:xlink="http://www.w3.org/1999/xlink" xml:space="preserve" onload="init(evt)">
<style type="text/css"><![CDATA[
.edge:hover path { stroke: red; }
.edge:hover polygon { stroke: red; fill: red; }
]]></style>
<script type="text/javascript"><![CDATA[
var edges = document.getElementsByTagName('g');
if (edges && edges.length) {
  for (var i=0;i<edges.length;i++) {
    if (edges[i].id.substr(0,4)=='edge') {
      edges[i].setAttribute('class','edge');
    }
  }
}
]]></script>
        <defs>
                <circle id="rim" cx="0" cy="0" r="7"/>
                <circle id="rim2" cx="0" cy="0" r="3.5"/>
                <g id="zoomPlus">
                        <use xlink:href="#rim" fill="#404040">
                                <set attributeName="fill" to="#808080" begin="zoomplus.mouseover" end="zoomplus.mouseout"/>
                        </use>
                        <path d="M-4,0h8M0,-4v8" fill="none" stroke="white" stroke-width="1.5" pointer-events="none"/>
                </g>
                <g id="zoomMin">
                        <use xlink:href="#rim" fill="#404040">
                                <set attributeName="fill" to="#808080" begin="zoomminus.mouseover" end="zoomminus.mouseout"/>
                        </use>
                        <path d="M-4,0h8" fill="none" stroke="white" stroke-width="1.5" pointer-events="none"/>
                </g>
                <g id="dirArrow">
                        <path fill="none" stroke="white" stroke-width="1.5" d="M0,-3.0v7 M-2.5,-0.5L0,-3.0L2.5,-0.5"/>
                </g>
               <g id="resetDef">
                       <use xlink:href="#rim2" fill="#404040">
                               <set attributeName="fill" to="#808080" begin="reset.mouseover" end="reset.mouseout"/>
                       </use>
               </g>
        </defs>

<script type="text/javascript">
var viewWidth = 868;
var viewHeight = 464;
var sectionId = 'dynsection-0';
</script>
<script xlink:href="svgpan.js"/>
<svg id="graph" class="graph">
<g id="viewport">
<title>AsyncSolver.SolverScope</title>
<polygon fill="white" stroke="transparent" points="-4,4 -4,-460 863.5,-460 863.5,4 -4,4"/>
<!-- Node1 -->
<g id="node1" class="node">
<title>Node1</title>
<g id="a_node1"><a xlink:title="Embed some part of AsyncSolver in a SolutionStageScope.">
<polygon fill="#bfbfbf" stroke="black" points="363.5,-210.5 363.5,-267.5 502.5,-267.5 502.5,-210.5 363.5,-210.5"/>
<text text-anchor="middle" x="433" y="-255.5" font-family="Helvetica,sans-Serif" font-size="10.00">AsyncSolver.SolverScope</text>
<polyline fill="none" stroke="black" points="363.5,-248.5 502.5,-248.5 "/>
<text text-anchor="middle" x="433" y="-236.5" font-family="Helvetica,sans-Serif" font-size="10.00"> </text>
<polyline fill="none" stroke="black" points="363.5,-229.5 502.5,-229.5 "/>
<text text-anchor="middle" x="433" y="-217.5" font-family="Helvetica,sans-Serif" font-size="10.00"> </text>
</a>
</g>
</g>
<!-- Node4 -->
<g id="node4" class="node">
<title>Node4</title>
<g id="a_node4"><a xlink:href="classpython__scripts_1_1async__analysis_1_1AsyncSolver_1_1AsyncSolver_1_1AdvanceScope.html" target="_top" xlink:title="Embed AsyncSolver._Advance in a SolutionStageScope.">
<polygon fill="white" stroke="black" points="0,-111 0,-168 150,-168 150,-111 0,-111"/>
<text text-anchor="middle" x="75" y="-156" font-family="Helvetica,sans-Serif" font-size="10.00">AsyncSolver.AdvanceScope</text>
<polyline fill="none" stroke="black" points="0,-149 150,-149 "/>
<text text-anchor="middle" x="75" y="-137" font-family="Helvetica,sans-Serif" font-size="10.00"> </text>
<polyline fill="none" stroke="black" points="0,-130 150,-130 "/>
<text text-anchor="middle" x="75" y="-118" font-family="Helvetica,sans-Serif" font-size="10.00"> </text>
</a>
</g>
</g>
<!-- Node1&#45;&gt;Node4 -->
<g id="edge3" class="edge">
<title>Node1&#45;&gt;Node4</title>
<path fill="none" stroke="midnightblue" d="M353.16,-222.83C297.79,-211.49 222.68,-194.44 158,-174 152.37,-172.22 146.58,-170.23 140.81,-168.13"/>
<polygon fill="none" stroke="midnightblue" points="352.76,-226.32 363.26,-224.88 354.16,-219.46 352.76,-226.32"/>
</g>
<!-- Node5 -->
<g id="node5" class="node">
<title>Node5</title>
<g id="a_node5"><a xlink:href="classpython__scripts_1_1async__analysis_1_1AsyncSolver_1_1AsyncSolver_1_1PostprocessScope.html" target="_top" xlink:title="Embed AsyncSolver._Postprocess in a SolutionStageScope.">
<polygon fill="white" stroke="black" points="167.5,-111 167.5,-168 334.5,-168 334.5,-111 167.5,-111"/>
<text text-anchor="middle" x="251" y="-156" font-family="Helvetica,sans-Serif" font-size="10.00">AsyncSolver.PostprocessScope</text>
<polyline fill="none" stroke="black" points="167.5,-149 334.5,-149 "/>
<text text-anchor="middle" x="251" y="-137" font-family="Helvetica,sans-Serif" font-size="10.00"> </text>
<polyline fill="none" stroke="black" points="167.5,-130 334.5,-130 "/>
<text text-anchor="middle" x="251" y="-118" font-family="Helvetica,sans-Serif" font-size="10.00"> </text>
</a>
</g>
</g>
<!-- Node1&#45;&gt;Node5 -->
<g id="edge4" class="edge">
<title>Node1&#45;&gt;Node5</title>
<path fill="none" stroke="midnightblue" d="M372.47,-205.57C349.79,-193.42 324.26,-179.75 302.48,-168.08"/>
<polygon fill="none" stroke="midnightblue" points="370.87,-208.68 381.33,-210.32 374.17,-202.51 370.87,-208.68"/>
</g>
<!-- Node6 -->
<g id="node6" class="node">
<title>Node6</title>
<g id="a_node6"><a xlink:href="classpython__scripts_1_1async__analysis_1_1AsyncSolver_1_1AsyncSolver_1_1PreprocessScope.html" target="_top" xlink:title="Embed AsyncSolver._Preprocess in a SolutionStageScope.">
<polygon fill="white" stroke="black" points="352.5,-111 352.5,-168 513.5,-168 513.5,-111 352.5,-111"/>
<text text-anchor="middle" x="433" y="-156" font-family="Helvetica,sans-Serif" font-size="10.00">AsyncSolver.PreprocessScope</text>
<polyline fill="none" stroke="black" points="352.5,-149 513.5,-149 "/>
<text text-anchor="middle" x="433" y="-137" font-family="Helvetica,sans-Serif" font-size="10.00"> </text>
<polyline fill="none" stroke="black" points="352.5,-130 513.5,-130 "/>
<text text-anchor="middle" x="433" y="-118" font-family="Helvetica,sans-Serif" font-size="10.00"> </text>
</a>
</g>
</g>
<!-- Node1&#45;&gt;Node6 -->
<g id="edge5" class="edge">
<title>Node1&#45;&gt;Node6</title>
<path fill="none" stroke="midnightblue" d="M433,-200.04C433,-189.45 433,-178.14 433,-168.25"/>
<polygon fill="none" stroke="midnightblue" points="429.5,-200.32 433,-210.32 436.5,-200.32 429.5,-200.32"/>
</g>
<!-- Node7 -->
<g id="node7" class="node">
<title>Node7</title>
<g id="a_node7"><a xlink:href="classpython__scripts_1_1async__analysis_1_1AsyncSolver_1_1AsyncSolver_1_1SolutionLoopScope.html" target="_top" xlink:title="Embed AsyncSolver.Run in a SolutionStageScope.">
<polygon fill="white" stroke="black" points="532,-105.5 532,-173.5 674,-173.5 674,-105.5 532,-105.5"/>
<text text-anchor="start" x="540" y="-161.5" font-family="Helvetica,sans-Serif" font-size="10.00">AsyncSolver.SolutionLoop</text>
<text text-anchor="middle" x="603" y="-150.5" font-family="Helvetica,sans-Serif" font-size="10.00">Scope</text>
<polyline fill="none" stroke="black" points="532,-143.5 674,-143.5 "/>
<text text-anchor="middle" x="603" y="-131.5" font-family="Helvetica,sans-Serif" font-size="10.00"> </text>
<polyline fill="none" stroke="black" points="532,-124.5 674,-124.5 "/>
<text text-anchor="middle" x="603" y="-112.5" font-family="Helvetica,sans-Serif" font-size="10.00"> </text>
</a>
</g>
</g>
<!-- Node1&#45;&gt;Node7 -->
<g id="edge6" class="edge">
<title>Node1&#45;&gt;Node7</title>
<path fill="none" stroke="midnightblue" d="M490.34,-205.12C508.04,-194.96 527.54,-183.78 545.27,-173.61"/>
<polygon fill="none" stroke="midnightblue" points="488.19,-202.31 481.26,-210.32 491.68,-208.38 488.19,-202.31"/>
</g>
<!-- Node8 -->
<g id="node8" class="node">
<title>Node8</title>
<g id="a_node8"><a xlink:href="classpython__scripts_1_1async__analysis_1_1AsyncSolver_1_1AsyncSolver_1_1SynchronizeScope.html" target="_top" xlink:title="Embed AsyncSolver._Synchronize in a SolutionStageScope.">
<polygon fill="white" stroke="black" points="692.5,-111 692.5,-168 859.5,-168 859.5,-111 692.5,-111"/>
<text text-anchor="middle" x="776" y="-156" font-family="Helvetica,sans-Serif" font-size="10.00">AsyncSolver.SynchronizeScope</text>
<polyline fill="none" stroke="black" points="692.5,-149 859.5,-149 "/>
<text text-anchor="middle" x="776" y="-137" font-family="Helvetica,sans-Serif" font-size="10.00"> </text>
<polyline fill="none" stroke="black" points="692.5,-130 859.5,-130 "/>
<text text-anchor="middle" x="776" y="-118" font-family="Helvetica,sans-Serif" font-size="10.00"> </text>
</a>
</g>
</g>
<!-- Node1&#45;&gt;Node8 -->
<g id="edge7" class="edge">
<title>Node1&#45;&gt;Node8</title>
<path fill="none" stroke="midnightblue" d="M512.72,-219.64C562.09,-207.77 626.61,-191.33 683,-174 689.07,-172.13 695.33,-170.11 701.59,-168.01"/>
<polygon fill="none" stroke="midnightblue" points="511.65,-216.3 502.74,-222.03 513.28,-223.11 511.65,-216.3"/>
</g>
<!-- Node2 -->
<g id="node2" class="node">
<title>Node2</title>
<g id="a_node2"><a xlink:href="classpython__scripts_1_1async__analysis_1_1SolutionStageScope_1_1SolutionStageScope.html" target="_top" xlink:title="RAII context manager for tasks during solver execution.">
<polygon fill="white" stroke="black" points="376.5,-304.5 376.5,-361.5 489.5,-361.5 489.5,-304.5 376.5,-304.5"/>
<text text-anchor="middle" x="433" y="-349.5" font-family="Helvetica,sans-Serif" font-size="10.00">SolutionStageScope</text>
<polyline fill="none" stroke="black" points="376.5,-342.5 489.5,-342.5 "/>
<text text-anchor="middle" x="433" y="-330.5" font-family="Helvetica,sans-Serif" font-size="10.00"> </text>
<polyline fill="none" stroke="black" points="376.5,-323.5 489.5,-323.5 "/>
<text text-anchor="middle" x="433" y="-311.5" font-family="Helvetica,sans-Serif" font-size="10.00"> </text>
</a>
</g>
</g>
<!-- Node2&#45;&gt;Node1 -->
<g id="edge1" class="edge">
<title>Node2&#45;&gt;Node1</title>
<path fill="none" stroke="midnightblue" d="M433,-294.21C433,-285.29 433,-275.95 433,-267.58"/>
<polygon fill="none" stroke="midnightblue" points="429.5,-294.4 433,-304.4 436.5,-294.4 429.5,-294.4"/>
</g>
<!-- Node3 -->
<g id="node3" class="node">
<title>Node3</title>
<g id="a_node3"><a xlink:title=" ">
<polygon fill="white" stroke="#bfbfbf" points="414.5,-398.5 414.5,-455.5 451.5,-455.5 451.5,-398.5 414.5,-398.5"/>
<text text-anchor="middle" x="433" y="-443.5" font-family="Helvetica,sans-Serif" font-size="10.00">ABC</text>
<polyline fill="none" stroke="#bfbfbf" points="414.5,-436.5 451.5,-436.5 "/>
<text text-anchor="middle" x="433" y="-424.5" font-family="Helvetica,sans-Serif" font-size="10.00"> </text>
<polyline fill="none" stroke="#bfbfbf" points="414.5,-417.5 451.5,-417.5 "/>
<text text-anchor="middle" x="433" y="-405.5" font-family="Helvetica,sans-Serif" font-size="10.00"> </text>
</a>
</g>
</g>
<!-- Node3&#45;&gt;Node2 -->
<g id="edge2" class="edge">
<title>Node3&#45;&gt;Node2</title>
<path fill="none" stroke="midnightblue" d="M433,-388.21C433,-379.29 433,-369.95 433,-361.58"/>
<polygon fill="none" stroke="midnightblue" points="429.5,-388.4 433,-398.4 436.5,-388.4 429.5,-388.4"/>
</g>
<!-- Node9 -->
<g id="node9" class="node">
<title>Node9</title>
<g id="a_node9"><a xlink:href="classpython__scripts_1_1async__analysis_1_1WrappedAnalysis_1_1WrappedAnalysis_1_1SynchronizeScope.html" target="_top" xlink:title="Sandwich AnalysisStage.SolveSolutionStage between &quot;initialization&quot; and &quot;finalization&quot;.">
<polygon fill="white" stroke="black" points="694,-0.5 694,-68.5 858,-68.5 858,-0.5 694,-0.5"/>
<text text-anchor="start" x="702" y="-56.5" font-family="Helvetica,sans-Serif" font-size="10.00">WrappedAnalysis.Synchronize</text>
<text text-anchor="middle" x="776" y="-45.5" font-family="Helvetica,sans-Serif" font-size="10.00">Scope</text>
<polyline fill="none" stroke="black" points="694,-38.5 858,-38.5 "/>
<text text-anchor="middle" x="776" y="-26.5" font-family="Helvetica,sans-Serif" font-size="10.00"> </text>
<polyline fill="none" stroke="black" points="694,-19.5 858,-19.5 "/>
<text text-anchor="middle" x="776" y="-7.5" font-family="Helvetica,sans-Serif" font-size="10.00"> </text>
</a>
</g>
</g>
<!-- Node8&#45;&gt;Node9 -->
<g id="edge8" class="edge">
<title>Node8&#45;&gt;Node9</title>
<path fill="none" stroke="midnightblue" d="M776,-100.74C776,-90.23 776,-78.9 776,-68.68"/>
<polygon fill="none" stroke="midnightblue" points="772.5,-100.9 776,-110.9 779.5,-100.9 772.5,-100.9"/>
</g>
</g>
</svg>
        <g id="navigator" transform="translate(0 0)" fill="#404254">
                <rect fill="#f2f5e9" fill-opacity="0.5" stroke="#606060" stroke-width=".5" x="0" y="0" width="60" height="60"/>
                <use id="zoomplus" xlink:href="#zoomPlus" x="17" y="9" onmousedown="handleZoom(evt,'in')"/>
                <use id="zoomminus" xlink:href="#zoomMin" x="42" y="9" onmousedown="handleZoom(evt,'out')"/>
                <use id="reset" xlink:href="#resetDef" x="30" y="36" onmousedown="handleReset()"/>
                <g id="arrowUp" xlink:href="#dirArrow" transform="translate(30 24)" onmousedown="handlePan(0,-1)">
                  <use xlink:href="#rim" fill="#404040">
                        <set attributeName="fill" to="#808080" begin="arrowUp.mouseover" end="arrowUp.mouseout"/>
                  </use>
                  <path fill="none" stroke="white" stroke-width="1.5" d="M0,-3.0v7 M-2.5,-0.5L0,-3.0L2.5,-0.5"/>
                </g>
                <g id="arrowRight" xlink:href="#dirArrow" transform="rotate(90) translate(36 -43)" onmousedown="handlePan(1,0)">
                  <use xlink:href="#rim" fill="#404040">
                        <set attributeName="fill" to="#808080" begin="arrowRight.mouseover" end="arrowRight.mouseout"/>
                  </use>
                  <path fill="none" stroke="white" stroke-width="1.5" d="M0,-3.0v7 M-2.5,-0.5L0,-3.0L2.5,-0.5"/>
                </g>
                <g id="arrowDown" xlink:href="#dirArrow" transform="rotate(180) translate(-30 -48)" onmousedown="handlePan(0,1)">
                  <use xlink:href="#rim" fill="#404040">
                        <set attributeName="fill" to="#808080" begin="arrowDown.mouseover" end="arrowDown.mouseout"/>
                  </use>
                  <path fill="none" stroke="white" stroke-width="1.5" d="M0,-3.0v7 M-2.5,-0.5L0,-3.0L2.5,-0.5"/>
                </g>
                <g id="arrowLeft" xlink:href="#dirArrow" transform="rotate(270) translate(-36 17)" onmousedown="handlePan(-1,0)">
                  <use xlink:href="#rim" fill="#404040">
                        <set attributeName="fill" to="#808080" begin="arrowLeft.mouseover" end="arrowLeft.mouseout"/>
                  </use>
                  <path fill="none" stroke="white" stroke-width="1.5" d="M0,-3.0v7 M-2.5,-0.5L0,-3.0L2.5,-0.5"/>
                </g>
        </g>
        <svg viewBox="0 0 15 15" width="100%" height="30px" preserveAspectRatio="xMaxYMin meet">
         <g id="arrow_out" transform="scale(0.3 0.3)">
          <a xlink:href="classpython__scripts_1_1async__analysis_1_1AsyncSolver_1_1AsyncSolver_1_1SolverScope__inherit__graph_org.svg" target="_base">
           <rect id="button" ry="5" rx="5" y="6" x="6" height="38" width="38"
                fill="#f2f5e9" fill-opacity="0.5" stroke="#606060" stroke-width="1.0"/>
           <path id="arrow"
             d="M 11.500037,31.436501 C 11.940474,20.09759 22.043105,11.32322 32.158766,21.979434 L 37.068811,17.246167 C 37.068811,17.246167 37.088388,32 37.088388,32 L 22.160133,31.978069 C 22.160133,31.978069 26.997745,27.140456 26.997745,27.140456 C 18.528582,18.264221 13.291696,25.230495 11.500037,31.436501 z"
             style="fill:#404040;"/>
          </a>
         </g>
        </svg>
</svg>
