<?xml version="1.0" encoding="UTF-8" standalone="no"?>
<!DOCTYPE svg PUBLIC "-//W3C//DTD SVG 1.1//EN"
 "http://www.w3.org/Graphics/SVG/1.1/DTD/svg11.dtd">
<!-- Generated by graphviz version 2.43.0 (0)
 -->
<!-- Title: NeverEraseSnapshots Pages: 1 -->
<svg width="131pt" height="254pt"
 viewBox="0.00 0.00 131.00 254.00" xmlns="http://www.w3.org/2000/svg" xmlns:xlink="http://www.w3.org/1999/xlink">
<g id="graph0" class="graph" transform="scale(1 1) rotate(0) translate(4 250)">
<title>NeverEraseSnapshots</title>
<polygon fill="white" stroke="transparent" points="-4,4 -4,-250 127,-250 127,4 -4,4"/>
<!-- Node1 -->
<g id="node1" class="node">
<title>Node1</title>
<g id="a_node1"><a xlink:title="Always returns false.">
<polygon fill="#bfbfbf" stroke="black" points="0,-0.5 0,-57.5 123,-57.5 123,-0.5 0,-0.5"/>
<text text-anchor="middle" x="61.5" y="-45.5" font-family="Helvetica,sans-Serif" font-size="10.00">NeverEraseSnapshots</text>
<polyline fill="none" stroke="black" points="0,-38.5 123,-38.5 "/>
<text text-anchor="middle" x="61.5" y="-26.5" font-family="Helvetica,sans-Serif" font-size="10.00"> </text>
<polyline fill="none" stroke="black" points="0,-19.5 123,-19.5 "/>
<text text-anchor="middle" x="61.5" y="-7.5" font-family="Helvetica,sans-Serif" font-size="10.00"> </text>
</a>
</g>
</g>
<!-- Node2 -->
<g id="node2" class="node">
<title>Node2</title>
<g id="a_node2"><a xlink:href="classpython__scripts_1_1checkpoint_1_1Snapshot_1_1SnapshotPredicate.html" target="_top" xlink:title="Base class for a predicate that takes a CheckpointID.">
<polygon fill="white" stroke="black" points="8,-94.5 8,-151.5 115,-151.5 115,-94.5 8,-94.5"/>
<text text-anchor="middle" x="61.5" y="-139.5" font-family="Helvetica,sans-Serif" font-size="10.00">SnapshotPredicate</text>
<polyline fill="none" stroke="black" points="8,-132.5 115,-132.5 "/>
<text text-anchor="middle" x="61.5" y="-120.5" font-family="Helvetica,sans-Serif" font-size="10.00"> </text>
<polyline fill="none" stroke="black" points="8,-113.5 115,-113.5 "/>
<text text-anchor="middle" x="61.5" y="-101.5" font-family="Helvetica,sans-Serif" font-size="10.00"> </text>
</a>
</g>
</g>
<!-- Node2&#45;&gt;Node1 -->
<g id="edge1" class="edge">
<title>Node2&#45;&gt;Node1</title>
<path fill="none" stroke="midnightblue" d="M61.5,-84.21C61.5,-75.29 61.5,-65.95 61.5,-57.58"/>
<polygon fill="none" stroke="midnightblue" points="58,-84.4 61.5,-94.4 65,-84.4 58,-84.4"/>
</g>
<!-- Node3 -->
<g id="node3" class="node">
<title>Node3</title>
<g id="a_node3"><a xlink:title=" ">
<polygon fill="white" stroke="#bfbfbf" points="22.5,-188.5 22.5,-245.5 100.5,-245.5 100.5,-188.5 22.5,-188.5"/>
<text text-anchor="middle" x="61.5" y="-233.5" font-family="Helvetica,sans-Serif" font-size="10.00">WRAppClass</text>
<polyline fill="none" stroke="#bfbfbf" points="22.5,-226.5 100.5,-226.5 "/>
<text text-anchor="middle" x="61.5" y="-214.5" font-family="Helvetica,sans-Serif" font-size="10.00"> </text>
<polyline fill="none" stroke="#bfbfbf" points="22.5,-207.5 100.5,-207.5 "/>
<text text-anchor="middle" x="61.5" y="-195.5" font-family="Helvetica,sans-Serif" font-size="10.00"> </text>
</a>
</g>
</g>
<!-- Node3&#45;&gt;Node2 -->
<g id="edge2" class="edge">
<title>Node3&#45;&gt;Node2</title>
<path fill="none" stroke="midnightblue" d="M61.5,-178.21C61.5,-169.29 61.5,-159.95 61.5,-151.58"/>
<polygon fill="none" stroke="midnightblue" points="58,-178.4 61.5,-188.4 65,-178.4 58,-178.4"/>
</g>
</g>
</svg>
