<?xml version="1.0" encoding="UTF-8" standalone="no"?>
<!DOCTYPE svg PUBLIC "-//W3C//DTD SVG 1.1//EN"
 "http://www.w3.org/Graphics/SVG/1.1/DTD/svg11.dtd">
<!-- Generated by graphviz version 2.43.0 (0)
 -->
<!-- Title: Hdf5IndexConnectivitiesOperation Pages: 1 -->
<svg width="205pt" height="400pt"
 viewBox="0.00 0.00 205.00 400.00" xmlns="http://www.w3.org/2000/svg" xmlns:xlink="http://www.w3.org/1999/xlink">
<g id="graph0" class="graph" transform="scale(1 1) rotate(0) translate(4 396)">
<title>Hdf5IndexConnectivitiesOperation</title>
<!-- Node1 -->
<g id="Node000001" class="node">
<title>Node1</title>
<g id="a_Node000001"><a xlink:title=" ">
<polygon fill="#999999" stroke="transparent" points="197,-191 0,-191 0,0 197,0 197,-191"/>
<text text-anchor="start" x="14.5" y="-178.5" font-family="Helvetica,sans-Serif" font-size="10.00">Hdf5IndexConnectivitiesOperation</text>
<text text-anchor="start" x="97" y="-163.5" font-family="Helvetica,sans-Serif" font-size="10.00"> </text>
<text text-anchor="start" x="4.5" y="-148.5" font-family="Helvetica,sans-Serif" font-size="10.00">+</text>
<text text-anchor="start" x="17.5" y="-148.5" font-family="Helvetica,sans-Serif" font-size="10.00">KRATOS_CLASS_POINTER</text>
<text text-anchor="start" x="17.5" y="-137.5" font-family="Helvetica,sans-Serif" font-size="10.00">_DEFINITION()</text>
<text text-anchor="start" x="4.5" y="-122.5" font-family="Helvetica,sans-Serif" font-size="10.00">+</text>
<text text-anchor="start" x="17.5" y="-122.5" font-family="Helvetica,sans-Serif" font-size="10.00">Hdf5IndexConnectivitiesOperation()</text>
<text text-anchor="start" x="4.5" y="-107.5" font-family="Helvetica,sans-Serif" font-size="10.00">+</text>
<text text-anchor="start" x="17.5" y="-107.5" font-family="Helvetica,sans-Serif" font-size="10.00">Hdf5IndexConnectivitiesOperation()</text>
<text text-anchor="start" x="4.5" y="-92.5" font-family="Helvetica,sans-Serif" font-size="10.00">+</text>
<text text-anchor="start" x="17.5" y="-92.5" font-family="Helvetica,sans-Serif" font-size="10.00">Hdf5IndexConnectivitiesOperation()</text>
<text text-anchor="start" x="4.5" y="-77.5" font-family="Helvetica,sans-Serif" font-size="10.00">+</text>
<text text-anchor="start" x="17.5" y="-77.5" font-family="Helvetica,sans-Serif" font-size="10.00">Hdf5IndexConnectivitiesOperation()</text>
<text text-anchor="start" x="4.5" y="-62.5" font-family="Helvetica,sans-Serif" font-size="10.00">+</text>
<text text-anchor="start" x="17.5" y="-62.5" font-family="Helvetica,sans-Serif" font-size="10.00">operator=()</text>
<text text-anchor="start" x="4.5" y="-47.5" font-family="Helvetica,sans-Serif" font-size="10.00">+</text>
<text text-anchor="start" x="17.5" y="-47.5" font-family="Helvetica,sans-Serif" font-size="10.00">~Hdf5IndexConnectivities</text>
<text text-anchor="start" x="17.5" y="-36.5" font-family="Helvetica,sans-Serif" font-size="10.00">Operation()</text>
<text text-anchor="start" x="4.5" y="-21.5" font-family="Helvetica,sans-Serif" font-size="10.00">+</text>
<text text-anchor="start" x="17.5" y="-21.5" font-family="Helvetica,sans-Serif" font-size="10.00">Execute()</text>
<text text-anchor="start" x="4.5" y="-6.5" font-family="Helvetica,sans-Serif" font-size="10.00">+</text>
<text text-anchor="start" x="17.5" y="-6.5" font-family="Helvetica,sans-Serif" font-size="10.00">GetDefaultParameters()</text>
<polygon fill="#666666" stroke="#666666" points="0.5,-173.5 0.5,-173.5 197.5,-173.5 197.5,-173.5 0.5,-173.5"/>
<polygon fill="#666666" stroke="#666666" points="0.5,-158.5 0.5,-158.5 197.5,-158.5 197.5,-158.5 0.5,-158.5"/>
<polygon fill="none" stroke="#666666" points="0,0 0,-191 197,-191 197,0 0,0"/>
</a>
</g>
</g>
<!-- Node2 -->
<g id="Node000002" class="node">
<title>Node2</title>
<g id="a_Node000002"><a xlink:href="structKratos_1_1WRApp_1_1WRAppClass.html" target="_top" xlink:title="Dummy base class for registering and exporting exposed classes in WRApplication.">
<polygon fill="white" stroke="transparent" points="171,-392 26,-392 26,-227 171,-227 171,-392"/>
<text text-anchor="start" x="68" y="-379.5" font-family="Helvetica,sans-Serif" font-size="10.00">WRAppClass</text>
<text text-anchor="start" x="97" y="-364.5" font-family="Helvetica,sans-Serif" font-size="10.00"> </text>
<text text-anchor="start" x="30.5" y="-349.5" font-family="Helvetica,sans-Serif" font-size="10.00">+</text>
<text text-anchor="start" x="43.5" y="-349.5" font-family="Helvetica,sans-Serif" font-size="10.00">KRATOS_CLASS_POINTER</text>
<text text-anchor="start" x="43.5" y="-338.5" font-family="Helvetica,sans-Serif" font-size="10.00">_DEFINITION()</text>
<text text-anchor="start" x="30.5" y="-323.5" font-family="Helvetica,sans-Serif" font-size="10.00">+</text>
<text text-anchor="start" x="43.5" y="-323.5" font-family="Helvetica,sans-Serif" font-size="10.00">WRAppClass()</text>
<text text-anchor="start" x="30.5" y="-308.5" font-family="Helvetica,sans-Serif" font-size="10.00">+</text>
<text text-anchor="start" x="43.5" y="-308.5" font-family="Helvetica,sans-Serif" font-size="10.00">WRAppClass()</text>
<text text-anchor="start" x="30.5" y="-293.5" font-family="Helvetica,sans-Serif" font-size="10.00">+</text>
<text text-anchor="start" x="43.5" y="-293.5" font-family="Helvetica,sans-Serif" font-size="10.00">WRAppClass()</text>
<text text-anchor="start" x="30.5" y="-278.5" font-family="Helvetica,sans-Serif" font-size="10.00">+</text>
<text text-anchor="start" x="43.5" y="-278.5" font-family="Helvetica,sans-Serif" font-size="10.00">~WRAppClass()</text>
<text text-anchor="start" x="30.5" y="-263.5" font-family="Helvetica,sans-Serif" font-size="10.00">+</text>
<text text-anchor="start" x="43.5" y="-263.5" font-family="Helvetica,sans-Serif" font-size="10.00">operator=()</text>
<text text-anchor="start" x="30.5" y="-248.5" font-family="Helvetica,sans-Serif" font-size="10.00">+</text>
<text text-anchor="start" x="43.5" y="-248.5" font-family="Helvetica,sans-Serif" font-size="10.00">operator=()</text>
<text text-anchor="start" x="30.5" y="-233.5" font-family="Helvetica,sans-Serif" font-size="10.00">+</text>
<text text-anchor="start" x="43.5" y="-233.5" font-family="Helvetica,sans-Serif" font-size="10.00">GetDefaultParameters()</text>
<polygon fill="#666666" stroke="#666666" points="26.5,-374.5 26.5,-374.5 171.5,-374.5 171.5,-374.5 26.5,-374.5"/>
<polygon fill="#666666" stroke="#666666" points="26.5,-359.5 26.5,-359.5 171.5,-359.5 171.5,-359.5 26.5,-359.5"/>
<polygon fill="none" stroke="#666666" points="26,-227 26,-392 171,-392 171,-227 26,-227"/>
</a>
</g>
</g>
<!-- Node2&#45;&gt;Node1 -->
<g id="edge1_Node000001_Node000002" class="edge">
<title>Node2&#45;&gt;Node1</title>
<g id="a_edge1_Node000001_Node000002"><a xlink:title=" ">
<path fill="none" stroke="#63b8ff" d="M98.5,-216.63C98.5,-208.21 98.5,-199.66 98.5,-191.21"/>
<polygon fill="none" stroke="#63b8ff" points="95,-216.84 98.5,-226.84 102,-216.84 95,-216.84"/>
</a>
</g>
</g>
</g>
</svg>
