<?xml version="1.0" encoding="UTF-8" standalone="no"?>
<!DOCTYPE svg PUBLIC "-//W3C//DTD SVG 1.1//EN"
 "http://www.w3.org/Graphics/SVG/1.1/DTD/svg11.dtd">
<!-- Generated by graphviz version 2.43.0 (0)
 -->
<!-- Title: DataItem Pages: 1 -->
<svg width="478pt" height="254pt"
 viewBox="0.00 0.00 478.00 254.00" xmlns="http://www.w3.org/2000/svg" xmlns:xlink="http://www.w3.org/1999/xlink">
<g id="graph0" class="graph" transform="scale(1 1) rotate(0) translate(4 250)">
<title>DataItem</title>
<polygon fill="white" stroke="transparent" points="-4,4 -4,-250 474,-250 474,4 -4,4"/>
<!-- Node1 -->
<g id="node1" class="node">
<title>Node1</title>
<g id="a_node1"><a xlink:title=" ">
<polygon fill="#bfbfbf" stroke="black" points="189.5,-94.5 189.5,-151.5 272.5,-151.5 272.5,-94.5 189.5,-94.5"/>
<text text-anchor="middle" x="231" y="-139.5" font-family="Helvetica,sans-Serif" font-size="10.00">DataItem</text>
<polyline fill="none" stroke="black" points="189.5,-132.5 272.5,-132.5 "/>
<text text-anchor="middle" x="231" y="-120.5" font-family="Helvetica,sans-Serif" font-size="10.00"> </text>
<polyline fill="none" stroke="black" points="189.5,-113.5 272.5,-113.5 "/>
<text text-anchor="start" x="197.5" y="-101.5" font-family="Helvetica,sans-Serif" font-size="10.00">+ GetShape()</text>
</a>
</g>
</g>
<!-- Node4 -->
<g id="node4" class="node">
<title>Node4</title>
<g id="a_node4"><a xlink:href="classpython__scripts_1_1xdmf_1_1DataItem_1_1CoordinateDataItem.html" target="_top" xlink:title=" ">
<polygon fill="white" stroke="black" points="0,-0.5 0,-57.5 116,-57.5 116,-0.5 0,-0.5"/>
<text text-anchor="middle" x="58" y="-45.5" font-family="Helvetica,sans-Serif" font-size="10.00">CoordinateDataItem</text>
<polyline fill="none" stroke="black" points="0,-38.5 116,-38.5 "/>
<text text-anchor="middle" x="58" y="-26.5" font-family="Helvetica,sans-Serif" font-size="10.00"> </text>
<polyline fill="none" stroke="black" points="0,-19.5 116,-19.5 "/>
<text text-anchor="start" x="8" y="-7.5" font-family="Helvetica,sans-Serif" font-size="10.00">+ GetShape()</text>
</a>
</g>
</g>
<!-- Node1&#45;&gt;Node4 -->
<g id="edge3" class="edge">
<title>Node1&#45;&gt;Node4</title>
<path fill="none" stroke="midnightblue" d="M180.22,-95C158.12,-83.24 132.25,-69.49 110.02,-57.66"/>
<polygon fill="none" stroke="midnightblue" points="178.65,-98.12 189.12,-99.73 181.94,-91.94 178.65,-98.12"/>
</g>
<!-- Node5 -->
<g id="node5" class="node">
<title>Node5</title>
<g id="a_node5"><a xlink:href="classpython__scripts_1_1xdmf_1_1DataItem_1_1LeafDataItem.html" target="_top" xlink:title=" ">
<polygon fill="white" stroke="black" points="134.5,-0.5 134.5,-57.5 217.5,-57.5 217.5,-0.5 134.5,-0.5"/>
<text text-anchor="middle" x="176" y="-45.5" font-family="Helvetica,sans-Serif" font-size="10.00">LeafDataItem</text>
<polyline fill="none" stroke="black" points="134.5,-38.5 217.5,-38.5 "/>
<text text-anchor="start" x="142.5" y="-26.5" font-family="Helvetica,sans-Serif" font-size="10.00">+ text</text>
<polyline fill="none" stroke="black" points="134.5,-19.5 217.5,-19.5 "/>
<text text-anchor="start" x="142.5" y="-7.5" font-family="Helvetica,sans-Serif" font-size="10.00">+ GetShape()</text>
</a>
</g>
</g>
<!-- Node1&#45;&gt;Node5 -->
<g id="edge4" class="edge">
<title>Node1&#45;&gt;Node5</title>
<path fill="none" stroke="midnightblue" d="M209.27,-85.66C203.69,-76.31 197.76,-66.41 192.49,-57.58"/>
<polygon fill="none" stroke="midnightblue" points="206.36,-87.61 214.5,-94.4 212.37,-84.02 206.36,-87.61"/>
</g>
<!-- Node6 -->
<g id="node6" class="node">
<title>Node6</title>
<g id="a_node6"><a xlink:href="classpython__scripts_1_1xdmf_1_1DataItem_1_1UniformDataItem.html" target="_top" xlink:title=" ">
<polygon fill="white" stroke="black" points="236,-0.5 236,-57.5 338,-57.5 338,-0.5 236,-0.5"/>
<text text-anchor="middle" x="287" y="-45.5" font-family="Helvetica,sans-Serif" font-size="10.00">UniformDataItem</text>
<polyline fill="none" stroke="black" points="236,-38.5 338,-38.5 "/>
<text text-anchor="middle" x="287" y="-26.5" font-family="Helvetica,sans-Serif" font-size="10.00"> </text>
<polyline fill="none" stroke="black" points="236,-19.5 338,-19.5 "/>
<text text-anchor="start" x="244" y="-7.5" font-family="Helvetica,sans-Serif" font-size="10.00">+ GetShape()</text>
</a>
</g>
</g>
<!-- Node1&#45;&gt;Node6 -->
<g id="edge5" class="edge">
<title>Node1&#45;&gt;Node6</title>
<path fill="none" stroke="midnightblue" d="M253.12,-85.66C258.81,-76.31 264.84,-66.41 270.21,-57.58"/>
<polygon fill="none" stroke="midnightblue" points="250.01,-84.04 247.8,-94.4 255.99,-87.67 250.01,-84.04"/>
</g>
<!-- Node7 -->
<g id="node7" class="node">
<title>Node7</title>
<g id="a_node7"><a xlink:title=" ">
<polygon fill="white" stroke="#bfbfbf" points="356,-0.5 356,-57.5 470,-57.5 470,-0.5 356,-0.5"/>
<text text-anchor="middle" x="413" y="-45.5" font-family="Helvetica,sans-Serif" font-size="10.00">__FunctionDataItem</text>
<polyline fill="none" stroke="#bfbfbf" points="356,-38.5 470,-38.5 "/>
<text text-anchor="middle" x="413" y="-26.5" font-family="Helvetica,sans-Serif" font-size="10.00"> </text>
<polyline fill="none" stroke="#bfbfbf" points="356,-19.5 470,-19.5 "/>
<text text-anchor="middle" x="413" y="-7.5" font-family="Helvetica,sans-Serif" font-size="10.00"> </text>
</a>
</g>
</g>
<!-- Node1&#45;&gt;Node7 -->
<g id="edge6" class="edge">
<title>Node1&#45;&gt;Node7</title>
<path fill="none" stroke="midnightblue" d="M281.96,-96.24C305.75,-84.22 334.09,-69.89 358.32,-57.64"/>
<polygon fill="none" stroke="midnightblue" points="280.1,-93.26 272.75,-100.89 283.26,-99.51 280.1,-93.26"/>
</g>
<!-- Node2 -->
<g id="node2" class="node">
<title>Node2</title>
<g id="a_node2"><a xlink:title=" ">
<polygon fill="white" stroke="#bfbfbf" points="180.5,-188.5 180.5,-245.5 217.5,-245.5 217.5,-188.5 180.5,-188.5"/>
<text text-anchor="middle" x="199" y="-233.5" font-family="Helvetica,sans-Serif" font-size="10.00">ABC</text>
<polyline fill="none" stroke="#bfbfbf" points="180.5,-226.5 217.5,-226.5 "/>
<text text-anchor="middle" x="199" y="-214.5" font-family="Helvetica,sans-Serif" font-size="10.00"> </text>
<polyline fill="none" stroke="#bfbfbf" points="180.5,-207.5 217.5,-207.5 "/>
<text text-anchor="middle" x="199" y="-195.5" font-family="Helvetica,sans-Serif" font-size="10.00"> </text>
</a>
</g>
</g>
<!-- Node2&#45;&gt;Node1 -->
<g id="edge1" class="edge">
<title>Node2&#45;&gt;Node1</title>
<path fill="none" stroke="midnightblue" d="M211.94,-178.79C215.1,-169.7 218.43,-160.13 221.41,-151.58"/>
<polygon fill="none" stroke="midnightblue" points="208.58,-177.8 208.6,-188.4 215.19,-180.1 208.58,-177.8"/>
</g>
<!-- Node3 -->
<g id="node3" class="node">
<title>Node3</title>
<g id="a_node3"><a xlink:title=" ">
<polygon fill="white" stroke="#bfbfbf" points="235.5,-188.5 235.5,-245.5 292.5,-245.5 292.5,-188.5 235.5,-188.5"/>
<text text-anchor="middle" x="264" y="-233.5" font-family="Helvetica,sans-Serif" font-size="10.00">Element</text>
<polyline fill="none" stroke="#bfbfbf" points="235.5,-226.5 292.5,-226.5 "/>
<text text-anchor="middle" x="264" y="-214.5" font-family="Helvetica,sans-Serif" font-size="10.00"> </text>
<polyline fill="none" stroke="#bfbfbf" points="235.5,-207.5 292.5,-207.5 "/>
<text text-anchor="middle" x="264" y="-195.5" font-family="Helvetica,sans-Serif" font-size="10.00"> </text>
</a>
</g>
</g>
<!-- Node3&#45;&gt;Node1 -->
<g id="edge2" class="edge">
<title>Node3&#45;&gt;Node1</title>
<path fill="none" stroke="midnightblue" d="M250.65,-178.79C247.39,-169.7 243.96,-160.13 240.89,-151.58"/>
<polygon fill="none" stroke="midnightblue" points="247.43,-180.17 254.1,-188.4 254.02,-177.8 247.43,-180.17"/>
</g>
</g>
</svg>
