<?xml version="1.0" encoding="UTF-8" standalone="no"?>
<!DOCTYPE svg PUBLIC "-//W3C//DTD SVG 1.1//EN"
 "http://www.w3.org/Graphics/SVG/1.1/DTD/svg11.dtd">
<!-- Generated by graphviz version 2.43.0 (0)
 -->
<!-- Title: Int Pages: 1 -->
<svg width="109pt" height="254pt"
 viewBox="0.00 0.00 109.00 254.00" xmlns="http://www.w3.org/2000/svg" xmlns:xlink="http://www.w3.org/1999/xlink">
<g id="graph0" class="graph" transform="scale(1 1) rotate(0) translate(4 250)">
<title>Int</title>
<polygon fill="white" stroke="transparent" points="-4,4 -4,-250 105,-250 105,4 -4,4"/>
<!-- Node1 -->
<g id="node1" class="node">
<title>Node1</title>
<g id="a_node1"><a xlink:title=" ">
<polygon fill="#bfbfbf" stroke="black" points="0,-0.5 0,-57.5 101,-57.5 101,-0.5 0,-0.5"/>
<text text-anchor="middle" x="50.5" y="-45.5" font-family="Helvetica,sans-Serif" font-size="10.00">Int</text>
<polyline fill="none" stroke="black" points="0,-38.5 101,-38.5 "/>
<text text-anchor="middle" x="50.5" y="-26.5" font-family="Helvetica,sans-Serif" font-size="10.00"> </text>
<polyline fill="none" stroke="black" points="0,-19.5 101,-19.5 "/>
<text text-anchor="start" x="8" y="-7.5" font-family="Helvetica,sans-Serif" font-size="10.00">+ GetAttributes()</text>
</a>
</g>
</g>
<!-- Node2 -->
<g id="node2" class="node">
<title>Node2</title>
<g id="a_node2"><a xlink:href="classpython__scripts_1_1xdmf_1_1DataType_1_1DataType.html" target="_top" xlink:title=" ">
<polygon fill="white" stroke="black" points="0,-94.5 0,-151.5 101,-151.5 101,-94.5 0,-94.5"/>
<text text-anchor="middle" x="50.5" y="-139.5" font-family="Helvetica,sans-Serif" font-size="10.00">DataType</text>
<polyline fill="none" stroke="black" points="0,-132.5 101,-132.5 "/>
<text text-anchor="middle" x="50.5" y="-120.5" font-family="Helvetica,sans-Serif" font-size="10.00"> </text>
<polyline fill="none" stroke="black" points="0,-113.5 101,-113.5 "/>
<text text-anchor="start" x="8" y="-101.5" font-family="Helvetica,sans-Serif" font-size="10.00">+ GetAttributes()</text>
</a>
</g>
</g>
<!-- Node2&#45;&gt;Node1 -->
<g id="edge1" class="edge">
<title>Node2&#45;&gt;Node1</title>
<path fill="none" stroke="midnightblue" d="M50.5,-84.21C50.5,-75.29 50.5,-65.95 50.5,-57.58"/>
<polygon fill="none" stroke="midnightblue" points="47,-84.4 50.5,-94.4 54,-84.4 47,-84.4"/>
</g>
<!-- Node3 -->
<g id="node3" class="node">
<title>Node3</title>
<g id="a_node3"><a xlink:title=" ">
<polygon fill="white" stroke="#bfbfbf" points="32,-188.5 32,-245.5 69,-245.5 69,-188.5 32,-188.5"/>
<text text-anchor="middle" x="50.5" y="-233.5" font-family="Helvetica,sans-Serif" font-size="10.00">ABC</text>
<polyline fill="none" stroke="#bfbfbf" points="32,-226.5 69,-226.5 "/>
<text text-anchor="middle" x="50.5" y="-214.5" font-family="Helvetica,sans-Serif" font-size="10.00"> </text>
<polyline fill="none" stroke="#bfbfbf" points="32,-207.5 69,-207.5 "/>
<text text-anchor="middle" x="50.5" y="-195.5" font-family="Helvetica,sans-Serif" font-size="10.00"> </text>
</a>
</g>
</g>
<!-- Node3&#45;&gt;Node2 -->
<g id="edge2" class="edge">
<title>Node3&#45;&gt;Node2</title>
<path fill="none" stroke="midnightblue" d="M50.5,-178.21C50.5,-169.29 50.5,-159.95 50.5,-151.58"/>
<polygon fill="none" stroke="midnightblue" points="47,-178.4 50.5,-188.4 54,-178.4 47,-178.4"/>
</g>
</g>
</svg>
