<?xml version="1.0" encoding="UTF-8" standalone="no"?>
<!DOCTYPE svg PUBLIC "-//W3C//DTD SVG 1.1//EN"
 "http://www.w3.org/Graphics/SVG/1.1/DTD/svg11.dtd">
<!-- Generated by graphviz version 2.43.0 (0)
 -->
<!-- Title: DataItem Pages: 1 -->
<svg width="328pt" height="227pt"
 viewBox="0.00 0.00 328.00 227.00" xmlns="http://www.w3.org/2000/svg" xmlns:xlink="http://www.w3.org/1999/xlink">
<g id="graph0" class="graph" transform="scale(1 1) rotate(0) translate(4 223)">
<title>DataItem</title>
<!-- Node1 -->
<g id="Node000001" class="node">
<title>Node1</title>
<g id="a_Node000001"><a xlink:title=" ">
<polygon fill="#999999" stroke="transparent" points="205,-134 129,-134 129,-85 205,-85 205,-134"/>
<text text-anchor="start" x="144" y="-121.5" font-family="Helvetica,sans-Serif" font-size="10.00">DataItem</text>
<text text-anchor="start" x="165" y="-106.5" font-family="Helvetica,sans-Serif" font-size="10.00"> </text>
<text text-anchor="start" x="133" y="-91.5" font-family="Helvetica,sans-Serif" font-size="10.00">+</text>
<text text-anchor="start" x="146" y="-91.5" font-family="Helvetica,sans-Serif" font-size="10.00">GetShape()</text>
<polygon fill="#666666" stroke="#666666" points="129,-116.5 129,-116.5 205,-116.5 205,-116.5 129,-116.5"/>
<polygon fill="#666666" stroke="#666666" points="129,-101.5 129,-101.5 205,-101.5 205,-101.5 129,-101.5"/>
<polygon fill="none" stroke="#666666" points="129,-85 129,-134 205,-134 205,-85 129,-85"/>
</a>
</g>
</g>
<!-- Node4 -->
<g id="Node000004" class="node">
<title>Node4</title>
<g id="a_Node000004"><a xlink:href="classpython__scripts_1_1xdmf_1_1DataItem_1_1CoordinateDataItem.html" target="_top" xlink:title=" ">
<polygon fill="white" stroke="transparent" points="110,-49 0,-49 0,0 110,0 110,-49"/>
<text text-anchor="start" x="5" y="-36.5" font-family="Helvetica,sans-Serif" font-size="10.00">CoordinateDataItem</text>
<text text-anchor="start" x="53" y="-21.5" font-family="Helvetica,sans-Serif" font-size="10.00"> </text>
<text text-anchor="start" x="12.5" y="-6.5" font-family="Helvetica,sans-Serif" font-size="10.00">+</text>
<text text-anchor="start" x="34" y="-6.5" font-family="Helvetica,sans-Serif" font-size="10.00">GetShape()</text>
<polygon fill="#666666" stroke="#666666" points="0,-31.5 0,-31.5 110,-31.5 110,-31.5 0,-31.5"/>
<polygon fill="#666666" stroke="#666666" points="0,-16.5 0,-16.5 110,-16.5 110,-16.5 0,-16.5"/>
<polygon fill="none" stroke="#666666" points="0,0 0,-49 110,-49 110,0 0,0"/>
</a>
</g>
</g>
<!-- Node1&#45;&gt;Node4 -->
<g id="edge3_Node000001_Node000004" class="edge">
<title>Node1&#45;&gt;Node4</title>
<g id="a_edge3_Node000001_Node000004"><a xlink:title=" ">
<path fill="none" stroke="#63b8ff" d="M126.8,-78.71C113.68,-68.98 99.3,-58.33 86.87,-49.12"/>
<polygon fill="none" stroke="#63b8ff" points="125.09,-81.8 135.2,-84.94 129.25,-76.17 125.09,-81.8"/>
</a>
</g>
</g>
<!-- Node5 -->
<g id="Node000005" class="node">
<title>Node5</title>
<g id="a_Node000005"><a xlink:href="classpython__scripts_1_1xdmf_1_1DataItem_1_1LeafDataItem.html" target="_top" xlink:title=" ">
<polygon fill="white" stroke="transparent" points="205.5,-49 128.5,-49 128.5,0 205.5,0 205.5,-49"/>
<text text-anchor="start" x="134" y="-36.5" font-family="Helvetica,sans-Serif" font-size="10.00">LeafDataItem</text>
<text text-anchor="start" x="133" y="-21.5" font-family="Helvetica,sans-Serif" font-size="10.00">+</text>
<text text-anchor="start" x="146" y="-21.5" font-family="Helvetica,sans-Serif" font-size="10.00">text</text>
<text text-anchor="start" x="133" y="-6.5" font-family="Helvetica,sans-Serif" font-size="10.00">+</text>
<text text-anchor="start" x="146" y="-6.5" font-family="Helvetica,sans-Serif" font-size="10.00">GetShape()</text>
<polygon fill="#666666" stroke="#666666" points="129,-31.5 129,-31.5 206,-31.5 206,-31.5 129,-31.5"/>
<polygon fill="#666666" stroke="#666666" points="129,-16.5 129,-16.5 144,-16.5 144,-16.5 129,-16.5"/>
<polygon fill="#666666" stroke="#666666" points="144,-16.5 144,-16.5 206,-16.5 206,-16.5 144,-16.5"/>
<polygon fill="none" stroke="#666666" points="128.5,0 128.5,-49 205.5,-49 205.5,0 128.5,0"/>
</a>
</g>
</g>
<!-- Node1&#45;&gt;Node5 -->
<g id="edge4_Node000001_Node000005" class="edge">
<title>Node1&#45;&gt;Node5</title>
<g id="a_edge4_Node000001_Node000005"><a xlink:title=" ">
<path fill="none" stroke="#63b8ff" d="M167,-74.77C167,-66.17 167,-57.1 167,-49.12"/>
<polygon fill="none" stroke="#63b8ff" points="163.5,-74.94 167,-84.94 170.5,-74.94 163.5,-74.94"/>
</a>
</g>
</g>
<!-- Node6 -->
<g id="Node000006" class="node">
<title>Node6</title>
<g id="a_Node000006"><a xlink:href="classpython__scripts_1_1xdmf_1_1DataItem_1_1UniformDataItem.html" target="_top" xlink:title=" ">
<polygon fill="white" stroke="transparent" points="320,-49 224,-49 224,0 320,0 320,-49"/>
<text text-anchor="start" x="229" y="-36.5" font-family="Helvetica,sans-Serif" font-size="10.00">UniformDataItem</text>
<text text-anchor="start" x="270" y="-21.5" font-family="Helvetica,sans-Serif" font-size="10.00"> </text>
<text text-anchor="start" x="233" y="-6.5" font-family="Helvetica,sans-Serif" font-size="10.00">+</text>
<text text-anchor="start" x="251" y="-6.5" font-family="Helvetica,sans-Serif" font-size="10.00">GetShape()</text>
<polygon fill="#666666" stroke="#666666" points="224,-31.5 224,-31.5 320,-31.5 320,-31.5 224,-31.5"/>
<polygon fill="#666666" stroke="#666666" points="224,-16.5 224,-16.5 320,-16.5 320,-16.5 224,-16.5"/>
<polygon fill="none" stroke="#666666" points="224,0 224,-49 320,-49 320,0 224,0"/>
</a>
</g>
</g>
<!-- Node1&#45;&gt;Node6 -->
<g id="edge5_Node000001_Node000006" class="edge">
<title>Node1&#45;&gt;Node6</title>
<g id="a_edge5_Node000001_Node000006"><a xlink:title=" ">
<path fill="none" stroke="#63b8ff" d="M204.69,-78.71C216.99,-68.98 230.47,-58.33 242.12,-49.12"/>
<polygon fill="none" stroke="#63b8ff" points="202.48,-75.99 196.81,-84.94 206.82,-81.48 202.48,-75.99"/>
</a>
</g>
</g>
<!-- Node2 -->
<g id="Node000002" class="node">
<title>Node2</title>
<g id="a_Node000002"><a xlink:title=" ">
<polygon fill="white" stroke="transparent" points="153.5,-219 122.5,-219 122.5,-170 153.5,-170 153.5,-219"/>
<text text-anchor="start" x="128" y="-206.5" font-family="Helvetica,sans-Serif" font-size="10.00">ABC</text>
<text text-anchor="start" x="136.5" y="-191.5" font-family="Helvetica,sans-Serif" font-size="10.00"> </text>
<text text-anchor="start" x="136.5" y="-176.5" font-family="Helvetica,sans-Serif" font-size="10.00"> </text>
<polygon fill="#666666" stroke="#666666" points="123,-201.5 123,-201.5 154,-201.5 154,-201.5 123,-201.5"/>
<polygon fill="#666666" stroke="#666666" points="123,-186.5 123,-186.5 154,-186.5 154,-186.5 123,-186.5"/>
<polygon fill="none" stroke="#666666" points="122.5,-170 122.5,-219 153.5,-219 153.5,-170 122.5,-170"/>
</a>
</g>
</g>
<!-- Node2&#45;&gt;Node1 -->
<g id="edge1_Node000001_Node000002" class="edge">
<title>Node2&#45;&gt;Node1</title>
<g id="a_edge1_Node000001_Node000002"><a xlink:title=" ">
<path fill="none" stroke="#63b8ff" d="M149.59,-160.34C152.65,-151.57 155.9,-142.28 158.75,-134.12"/>
<polygon fill="none" stroke="#63b8ff" points="146.23,-159.34 146.23,-169.94 152.84,-161.65 146.23,-159.34"/>
</a>
</g>
</g>
<!-- Node3 -->
<g id="Node000003" class="node">
<title>Node3</title>
<g id="a_Node000003"><a xlink:title=" ">
<polygon fill="white" stroke="transparent" points="222.5,-219 171.5,-219 171.5,-170 222.5,-170 222.5,-219"/>
<text text-anchor="start" x="177" y="-206.5" font-family="Helvetica,sans-Serif" font-size="10.00">Element</text>
<text text-anchor="start" x="195.5" y="-191.5" font-family="Helvetica,sans-Serif" font-size="10.00"> </text>
<text text-anchor="start" x="195.5" y="-176.5" font-family="Helvetica,sans-Serif" font-size="10.00"> </text>
<polygon fill="#666666" stroke="#666666" points="172,-201.5 172,-201.5 223,-201.5 223,-201.5 172,-201.5"/>
<polygon fill="#666666" stroke="#666666" points="172,-186.5 172,-186.5 223,-186.5 223,-186.5 172,-186.5"/>
<polygon fill="none" stroke="#666666" points="171.5,-170 171.5,-219 222.5,-219 222.5,-170 171.5,-170"/>
</a>
</g>
</g>
<!-- Node3&#45;&gt;Node1 -->
<g id="edge2_Node000001_Node000003" class="edge">
<title>Node3&#45;&gt;Node1</title>
<g id="a_edge2_Node000001_Node000003"><a xlink:title=" ">
<path fill="none" stroke="#63b8ff" d="M185.01,-160.34C181.84,-151.57 178.48,-142.28 175.54,-134.12"/>
<polygon fill="none" stroke="#63b8ff" points="181.79,-161.72 188.48,-169.94 188.38,-159.34 181.79,-161.72"/>
</a>
</g>
</g>
</g>
</svg>
