<?xml version="1.0" encoding="UTF-8" standalone="no"?>
<!DOCTYPE svg PUBLIC "-//W3C//DTD SVG 1.1//EN"
 "http://www.w3.org/Graphics/SVG/1.1/DTD/svg11.dtd">
<!-- Generated by graphviz version 2.43.0 (0)
 -->
<!-- Title: GridAttribute Pages: 1 -->
<svg width="88pt" height="254pt"
 viewBox="0.00 0.00 88.00 254.00" xmlns="http://www.w3.org/2000/svg" xmlns:xlink="http://www.w3.org/1999/xlink">
<g id="graph0" class="graph" transform="scale(1 1) rotate(0) translate(4 250)">
<title>GridAttribute</title>
<polygon fill="white" stroke="transparent" points="-4,4 -4,-250 84,-250 84,4 -4,4"/>
<!-- Node1 -->
<g id="node1" class="node">
<title>Node1</title>
<g id="a_node1"><a xlink:title=" ">
<polygon fill="#bfbfbf" stroke="black" points="0,-0.5 0,-57.5 80,-57.5 80,-0.5 0,-0.5"/>
<text text-anchor="middle" x="40" y="-45.5" font-family="Helvetica,sans-Serif" font-size="10.00">GridAttribute</text>
<polyline fill="none" stroke="black" points="0,-38.5 80,-38.5 "/>
<text text-anchor="middle" x="40" y="-26.5" font-family="Helvetica,sans-Serif" font-size="10.00"> </text>
<polyline fill="none" stroke="black" points="0,-19.5 80,-19.5 "/>
<text text-anchor="middle" x="40" y="-7.5" font-family="Helvetica,sans-Serif" font-size="10.00"> </text>
</a>
</g>
</g>
<!-- Node2 -->
<g id="node2" class="node">
<title>Node2</title>
<g id="a_node2"><a xlink:href="classpython__scripts_1_1xdmf_1_1Attribute_1_1Attribute.html" target="_top" xlink:title=" ">
<polygon fill="white" stroke="black" points="10.5,-94.5 10.5,-151.5 69.5,-151.5 69.5,-94.5 10.5,-94.5"/>
<text text-anchor="middle" x="40" y="-139.5" font-family="Helvetica,sans-Serif" font-size="10.00">Attribute</text>
<polyline fill="none" stroke="black" points="10.5,-132.5 69.5,-132.5 "/>
<text text-anchor="middle" x="40" y="-120.5" font-family="Helvetica,sans-Serif" font-size="10.00"> </text>
<polyline fill="none" stroke="black" points="10.5,-113.5 69.5,-113.5 "/>
<text text-anchor="middle" x="40" y="-101.5" font-family="Helvetica,sans-Serif" font-size="10.00"> </text>
</a>
</g>
</g>
<!-- Node2&#45;&gt;Node1 -->
<g id="edge1" class="edge">
<title>Node2&#45;&gt;Node1</title>
<path fill="none" stroke="midnightblue" d="M40,-84.21C40,-75.29 40,-65.95 40,-57.58"/>
<polygon fill="none" stroke="midnightblue" points="36.5,-84.4 40,-94.4 43.5,-84.4 36.5,-84.4"/>
</g>
<!-- Node3 -->
<g id="node3" class="node">
<title>Node3</title>
<g id="a_node3"><a xlink:title=" ">
<polygon fill="white" stroke="#bfbfbf" points="11.5,-188.5 11.5,-245.5 68.5,-245.5 68.5,-188.5 11.5,-188.5"/>
<text text-anchor="middle" x="40" y="-233.5" font-family="Helvetica,sans-Serif" font-size="10.00">Element</text>
<polyline fill="none" stroke="#bfbfbf" points="11.5,-226.5 68.5,-226.5 "/>
<text text-anchor="middle" x="40" y="-214.5" font-family="Helvetica,sans-Serif" font-size="10.00"> </text>
<polyline fill="none" stroke="#bfbfbf" points="11.5,-207.5 68.5,-207.5 "/>
<text text-anchor="middle" x="40" y="-195.5" font-family="Helvetica,sans-Serif" font-size="10.00"> </text>
</a>
</g>
</g>
<!-- Node3&#45;&gt;Node2 -->
<g id="edge2" class="edge">
<title>Node3&#45;&gt;Node2</title>
<path fill="none" stroke="midnightblue" d="M40,-178.21C40,-169.29 40,-159.95 40,-151.58"/>
<polygon fill="none" stroke="midnightblue" points="36.5,-178.4 40,-188.4 43.5,-178.4 36.5,-178.4"/>
</g>
</g>
</svg>
