<?xml version="1.0" encoding="UTF-8" standalone="no"?>
<!DOCTYPE svg PUBLIC "-//W3C//DTD SVG 1.1//EN"
 "http://www.w3.org/Graphics/SVG/1.1/DTD/svg11.dtd">
<!-- Generated by graphviz version 2.43.0 (0)
 -->
<!-- Title: CoSimCoupling Pages: 1 -->
<svg width="218pt" height="287pt"
 viewBox="0.00 0.00 217.50 287.00" xmlns="http://www.w3.org/2000/svg" xmlns:xlink="http://www.w3.org/1999/xlink">
<g id="graph0" class="graph" transform="scale(1 1) rotate(0) translate(4 283)">
<title>CoSimCoupling</title>
<polygon fill="white" stroke="transparent" points="-4,4 -4,-283 213.5,-283 213.5,4 -4,4"/>
<!-- Node1 -->
<g id="node1" class="node">
<title>Node1</title>
<g id="a_node1"><a xlink:title="Wrapper for CoSimulationApplication coupling procedures.">
<polygon fill="#bfbfbf" stroke="black" points="41.5,-0.5 41.5,-90.5 185.5,-90.5 185.5,-0.5 41.5,-0.5"/>
<text text-anchor="middle" x="113.5" y="-78.5" font-family="Helvetica,sans-Serif" font-size="10.00">CoSimCoupling</text>
<polyline fill="none" stroke="black" points="41.5,-71.5 185.5,-71.5 "/>
<text text-anchor="middle" x="113.5" y="-59.5" font-family="Helvetica,sans-Serif" font-size="10.00"> </text>
<polyline fill="none" stroke="black" points="41.5,-52.5 185.5,-52.5 "/>
<text text-anchor="start" x="49.5" y="-40.5" font-family="Helvetica,sans-Serif" font-size="10.00">+ parameters()</text>
<text text-anchor="start" x="49.5" y="-29.5" font-family="Helvetica,sans-Serif" font-size="10.00">+ GetDefaultParameters()</text>
<text text-anchor="start" x="49.5" y="-18.5" font-family="Helvetica,sans-Serif" font-size="10.00">* parameters()</text>
<text text-anchor="start" x="49.5" y="-7.5" font-family="Helvetica,sans-Serif" font-size="10.00">* GetDefaultParameters()</text>
</a>
</g>
</g>
<!-- Node2 -->
<g id="node2" class="node">
<title>Node2</title>
<g id="a_node2"><a xlink:href="classpython__scripts_1_1async__analysis_1_1SolutionStageScope_1_1SolutionStageScope.html" target="_top" xlink:title="RAII context manager for tasks during solver execution.">
<polygon fill="white" stroke="black" points="0,-127.5 0,-184.5 113,-184.5 113,-127.5 0,-127.5"/>
<text text-anchor="middle" x="56.5" y="-172.5" font-family="Helvetica,sans-Serif" font-size="10.00">SolutionStageScope</text>
<polyline fill="none" stroke="black" points="0,-165.5 113,-165.5 "/>
<text text-anchor="middle" x="56.5" y="-153.5" font-family="Helvetica,sans-Serif" font-size="10.00"> </text>
<polyline fill="none" stroke="black" points="0,-146.5 113,-146.5 "/>
<text text-anchor="middle" x="56.5" y="-134.5" font-family="Helvetica,sans-Serif" font-size="10.00"> </text>
</a>
</g>
</g>
<!-- Node2&#45;&gt;Node1 -->
<g id="edge1" class="edge">
<title>Node2&#45;&gt;Node1</title>
<path fill="none" stroke="midnightblue" d="M75.76,-118.34C80.45,-109.42 85.51,-99.78 90.36,-90.55"/>
<polygon fill="none" stroke="midnightblue" points="72.58,-116.86 71.03,-127.34 78.78,-120.12 72.58,-116.86"/>
</g>
<!-- Node3 -->
<g id="node3" class="node">
<title>Node3</title>
<g id="a_node3"><a xlink:title=" ">
<polygon fill="white" stroke="#bfbfbf" points="38,-221.5 38,-278.5 75,-278.5 75,-221.5 38,-221.5"/>
<text text-anchor="middle" x="56.5" y="-266.5" font-family="Helvetica,sans-Serif" font-size="10.00">ABC</text>
<polyline fill="none" stroke="#bfbfbf" points="38,-259.5 75,-259.5 "/>
<text text-anchor="middle" x="56.5" y="-247.5" font-family="Helvetica,sans-Serif" font-size="10.00"> </text>
<polyline fill="none" stroke="#bfbfbf" points="38,-240.5 75,-240.5 "/>
<text text-anchor="middle" x="56.5" y="-228.5" font-family="Helvetica,sans-Serif" font-size="10.00"> </text>
</a>
</g>
</g>
<!-- Node3&#45;&gt;Node2 -->
<g id="edge2" class="edge">
<title>Node3&#45;&gt;Node2</title>
<path fill="none" stroke="midnightblue" d="M56.5,-211.21C56.5,-202.29 56.5,-192.95 56.5,-184.58"/>
<polygon fill="none" stroke="midnightblue" points="53,-211.4 56.5,-221.4 60,-211.4 53,-211.4"/>
</g>
<!-- Node4 -->
<g id="node4" class="node">
<title>Node4</title>
<g id="a_node4"><a xlink:title=" ">
<polygon fill="white" stroke="#bfbfbf" points="131.5,-127.5 131.5,-184.5 209.5,-184.5 209.5,-127.5 131.5,-127.5"/>
<text text-anchor="middle" x="170.5" y="-172.5" font-family="Helvetica,sans-Serif" font-size="10.00">WRAppClass</text>
<polyline fill="none" stroke="#bfbfbf" points="131.5,-165.5 209.5,-165.5 "/>
<text text-anchor="middle" x="170.5" y="-153.5" font-family="Helvetica,sans-Serif" font-size="10.00"> </text>
<polyline fill="none" stroke="#bfbfbf" points="131.5,-146.5 209.5,-146.5 "/>
<text text-anchor="middle" x="170.5" y="-134.5" font-family="Helvetica,sans-Serif" font-size="10.00"> </text>
</a>
</g>
</g>
<!-- Node4&#45;&gt;Node1 -->
<g id="edge3" class="edge">
<title>Node4&#45;&gt;Node1</title>
<path fill="none" stroke="midnightblue" d="M151.24,-118.34C146.55,-109.42 141.49,-99.78 136.64,-90.55"/>
<polygon fill="none" stroke="midnightblue" points="148.22,-120.12 155.97,-127.34 154.42,-116.86 148.22,-120.12"/>
</g>
</g>
</svg>
