<?xml version="1.0" encoding="UTF-8" standalone="no"?>
<!DOCTYPE svg PUBLIC "-//W3C//DTD SVG 1.1//EN"
 "http://www.w3.org/Graphics/SVG/1.1/DTD/svg11.dtd">
<!-- Generated by graphviz version 2.43.0 (0)
 -->
<!-- Title: Data Pages: 1 -->
<svg width="228pt" height="298pt"
 viewBox="0.00 0.00 228.00 298.00" xmlns="http://www.w3.org/2000/svg" xmlns:xlink="http://www.w3.org/1999/xlink">
<g id="graph0" class="graph" transform="scale(1 1) rotate(0) translate(4 294)">
<title>Data</title>
<polygon fill="white" stroke="transparent" points="-4,4 -4,-294 224,-294 224,4 -4,4"/>
<!-- Node1 -->
<g id="node1" class="node">
<title>Node1</title>
<g id="a_node1"><a xlink:title=" ">
<polygon fill="#bfbfbf" stroke="black" points="59,-116.5 59,-195.5 160,-195.5 160,-116.5 59,-116.5"/>
<text text-anchor="middle" x="109.5" y="-183.5" font-family="Helvetica,sans-Serif" font-size="10.00">Data</text>
<polyline fill="none" stroke="black" points="59,-176.5 160,-176.5 "/>
<text text-anchor="middle" x="109.5" y="-164.5" font-family="Helvetica,sans-Serif" font-size="10.00"> </text>
<polyline fill="none" stroke="black" points="59,-157.5 160,-157.5 "/>
<text text-anchor="start" x="67" y="-145.5" font-family="Helvetica,sans-Serif" font-size="10.00">+ GetAttributes()</text>
<text text-anchor="start" x="67" y="-134.5" font-family="Helvetica,sans-Serif" font-size="10.00">+ GetShape()</text>
<text text-anchor="start" x="67" y="-123.5" font-family="Helvetica,sans-Serif" font-size="10.00">+ GetText()</text>
</a>
</g>
</g>
<!-- Node3 -->
<g id="node3" class="node">
<title>Node3</title>
<g id="a_node3"><a xlink:href="classpython__scripts_1_1xdmf_1_1Data_1_1HDF5Data.html" target="_top" xlink:title=" ">
<polygon fill="white" stroke="black" points="0,-0.5 0,-79.5 101,-79.5 101,-0.5 0,-0.5"/>
<text text-anchor="middle" x="50.5" y="-67.5" font-family="Helvetica,sans-Serif" font-size="10.00">HDF5Data</text>
<polyline fill="none" stroke="black" points="0,-60.5 101,-60.5 "/>
<text text-anchor="middle" x="50.5" y="-48.5" font-family="Helvetica,sans-Serif" font-size="10.00"> </text>
<polyline fill="none" stroke="black" points="0,-41.5 101,-41.5 "/>
<text text-anchor="start" x="8" y="-29.5" font-family="Helvetica,sans-Serif" font-size="10.00">+ GetAttributes()</text>
<text text-anchor="start" x="8" y="-18.5" font-family="Helvetica,sans-Serif" font-size="10.00">+ GetText()</text>
<text text-anchor="start" x="8" y="-7.5" font-family="Helvetica,sans-Serif" font-size="10.00">+ FromDataset()</text>
</a>
</g>
</g>
<!-- Node1&#45;&gt;Node3 -->
<g id="edge2" class="edge">
<title>Node1&#45;&gt;Node3</title>
<path fill="none" stroke="midnightblue" d="M84.82,-107.3C80.03,-98.05 75.07,-88.47 70.45,-79.56"/>
<polygon fill="none" stroke="midnightblue" points="81.82,-109.13 89.53,-116.4 88.04,-105.91 81.82,-109.13"/>
</g>
<!-- Node4 -->
<g id="node4" class="node">
<title>Node4</title>
<g id="a_node4"><a xlink:href="classpython__scripts_1_1xdmf_1_1Data_1_1XmlData.html" target="_top" xlink:title=" ">
<polygon fill="white" stroke="black" points="119,-6 119,-74 220,-74 220,-6 119,-6"/>
<text text-anchor="middle" x="169.5" y="-62" font-family="Helvetica,sans-Serif" font-size="10.00">XmlData</text>
<polyline fill="none" stroke="black" points="119,-55 220,-55 "/>
<text text-anchor="middle" x="169.5" y="-43" font-family="Helvetica,sans-Serif" font-size="10.00"> </text>
<polyline fill="none" stroke="black" points="119,-36 220,-36 "/>
<text text-anchor="start" x="127" y="-24" font-family="Helvetica,sans-Serif" font-size="10.00">+ GetAttributes()</text>
<text text-anchor="start" x="127" y="-13" font-family="Helvetica,sans-Serif" font-size="10.00">+ GetText()</text>
</a>
</g>
</g>
<!-- Node1&#45;&gt;Node4 -->
<g id="edge3" class="edge">
<title>Node1&#45;&gt;Node4</title>
<path fill="none" stroke="midnightblue" d="M134.64,-107.23C140.49,-96.12 146.58,-84.54 152.01,-74.22"/>
<polygon fill="none" stroke="midnightblue" points="131.37,-105.93 129.81,-116.4 137.57,-109.19 131.37,-105.93"/>
</g>
<!-- Node2 -->
<g id="node2" class="node">
<title>Node2</title>
<g id="a_node2"><a xlink:title=" ">
<polygon fill="white" stroke="#bfbfbf" points="91,-232.5 91,-289.5 128,-289.5 128,-232.5 91,-232.5"/>
<text text-anchor="middle" x="109.5" y="-277.5" font-family="Helvetica,sans-Serif" font-size="10.00">ABC</text>
<polyline fill="none" stroke="#bfbfbf" points="91,-270.5 128,-270.5 "/>
<text text-anchor="middle" x="109.5" y="-258.5" font-family="Helvetica,sans-Serif" font-size="10.00"> </text>
<polyline fill="none" stroke="#bfbfbf" points="91,-251.5 128,-251.5 "/>
<text text-anchor="middle" x="109.5" y="-239.5" font-family="Helvetica,sans-Serif" font-size="10.00"> </text>
</a>
</g>
</g>
<!-- Node2&#45;&gt;Node1 -->
<g id="edge1" class="edge">
<title>Node2&#45;&gt;Node1</title>
<path fill="none" stroke="midnightblue" d="M109.5,-222.16C109.5,-213.47 109.5,-204.23 109.5,-195.52"/>
<polygon fill="none" stroke="midnightblue" points="106,-222.4 109.5,-232.4 113,-222.4 106,-222.4"/>
</g>
</g>
</svg>
