<?xml version="1.0" encoding="UTF-8" standalone="no"?>
<!DOCTYPE svg PUBLIC "-//W3C//DTD SVG 1.1//EN"
 "http://www.w3.org/Graphics/SVG/1.1/DTD/svg11.dtd">
<!-- Generated by graphviz version 2.43.0 (0)
 -->
<!-- Title: WRAppClass Pages: 1 -->
<svg width="240pt" height="227pt"
 viewBox="0.00 0.00 240.00 227.00" xmlns="http://www.w3.org/2000/svg" xmlns:xlink="http://www.w3.org/1999/xlink">
<g id="graph0" class="graph" transform="scale(1 1) rotate(0) translate(4 223)">
<title>WRAppClass</title>
<!-- Node1 -->
<g id="Node000001" class="node">
<title>Node1</title>
<g id="a_Node000001"><a xlink:title="WRApp::WRAppClass with a replaced metaclass for compatibility with abc.">
<polygon fill="#999999" stroke="transparent" points="153.5,-49 81.5,-49 81.5,0 153.5,0 153.5,-49"/>
<text text-anchor="start" x="86.5" y="-36.5" font-family="Helvetica,sans-Serif" font-size="10.00">WRAppClass</text>
<text text-anchor="start" x="115.5" y="-21.5" font-family="Helvetica,sans-Serif" font-size="10.00"> </text>
<text text-anchor="start" x="115.5" y="-6.5" font-family="Helvetica,sans-Serif" font-size="10.00"> </text>
<polygon fill="#666666" stroke="#666666" points="81.5,-31.5 81.5,-31.5 153.5,-31.5 153.5,-31.5 81.5,-31.5"/>
<polygon fill="#666666" stroke="#666666" points="81.5,-16.5 81.5,-16.5 153.5,-16.5 153.5,-16.5 81.5,-16.5"/>
<polygon fill="none" stroke="#666666" points="81.5,0 81.5,-49 153.5,-49 153.5,0 81.5,0"/>
</a>
</g>
</g>
<!-- Node2 -->
<g id="Node000002" class="node">
<title>Node2</title>
<g id="a_Node000002"><a xlink:title=" ">
<polygon fill="white" stroke="transparent" points="83,-219 0,-219 0,-170 83,-170 83,-219"/>
<text text-anchor="start" x="5.5" y="-206.5" font-family="Helvetica,sans-Serif" font-size="10.00">__WRAppClass</text>
<text text-anchor="start" x="40" y="-191.5" font-family="Helvetica,sans-Serif" font-size="10.00"> </text>
<text text-anchor="start" x="40" y="-176.5" font-family="Helvetica,sans-Serif" font-size="10.00"> </text>
<polygon fill="#666666" stroke="#666666" points="0.5,-201.5 0.5,-201.5 83.5,-201.5 83.5,-201.5 0.5,-201.5"/>
<polygon fill="#666666" stroke="#666666" points="0.5,-186.5 0.5,-186.5 83.5,-186.5 83.5,-186.5 0.5,-186.5"/>
<polygon fill="none" stroke="#666666" points="0,-170 0,-219 83,-219 83,-170 0,-170"/>
</a>
</g>
</g>
<!-- Node2&#45;&gt;Node1 -->
<g id="edge1_Node000001_Node000002" class="edge">
<title>Node2&#45;&gt;Node1</title>
<g id="a_edge1_Node000001_Node000002"><a xlink:title=" ">
<path fill="none" stroke="#63b8ff" d="M47.76,-159.82C52.65,-137.77 60.64,-108.76 72.5,-85 78.86,-72.25 88.06,-59.47 96.49,-49.05"/>
<polygon fill="none" stroke="#63b8ff" points="44.31,-159.21 45.66,-169.72 51.16,-160.66 44.31,-159.21"/>
</a>
</g>
</g>
<!-- Node4 -->
<g id="Node000004" class="node">
<title>Node4</title>
<g id="a_Node000004"><a xlink:href="classWRAppMeta.html" target="_top" xlink:title="Metaclass replacing that of the C++ WRAppClass to provide derived classes access to abc....">
<polygon fill="white" stroke="transparent" points="153,-134 82,-134 82,-85 153,-85 153,-134"/>
<text text-anchor="start" x="87.5" y="-121.5" font-family="Helvetica,sans-Serif" font-size="10.00">WRAppMeta</text>
<text text-anchor="start" x="116" y="-106.5" font-family="Helvetica,sans-Serif" font-size="10.00"> </text>
<text text-anchor="start" x="116" y="-91.5" font-family="Helvetica,sans-Serif" font-size="10.00"> </text>
<polygon fill="#666666" stroke="#666666" points="82.5,-116.5 82.5,-116.5 153.5,-116.5 153.5,-116.5 82.5,-116.5"/>
<polygon fill="#666666" stroke="#666666" points="82.5,-101.5 82.5,-101.5 153.5,-101.5 153.5,-101.5 82.5,-101.5"/>
<polygon fill="none" stroke="#666666" points="82,-85 82,-134 153,-134 153,-85 82,-85"/>
</a>
</g>
</g>
<!-- Node2&#45;&gt;Node4 -->
<g id="edge7_Node000004_Node000002" class="edge">
<title>Node2&#45;&gt;Node4</title>
<g id="a_edge7_Node000004_Node000002"><a xlink:title=" ">
<path fill="none" stroke="#63b8ff" d="M70.06,-162.31C78.61,-152.97 87.84,-142.89 95.87,-134.12"/>
<polygon fill="none" stroke="#63b8ff" points="67.25,-160.2 63.08,-169.94 72.41,-164.93 67.25,-160.2"/>
</a>
</g>
</g>
<!-- Node3 -->
<g id="Node000003" class="node">
<title>Node3</title>
<g id="a_Node000003"><a xlink:title=" ">
<polygon fill="white" stroke="transparent" points="232,-134 171,-134 171,-85 232,-85 232,-134"/>
<text text-anchor="start" x="176.5" y="-121.5" font-family="Helvetica,sans-Serif" font-size="10.00">metaclass</text>
<text text-anchor="start" x="200" y="-106.5" font-family="Helvetica,sans-Serif" font-size="10.00"> </text>
<text text-anchor="start" x="200" y="-91.5" font-family="Helvetica,sans-Serif" font-size="10.00"> </text>
<polygon fill="#666666" stroke="#666666" points="171.5,-116.5 171.5,-116.5 232.5,-116.5 232.5,-116.5 171.5,-116.5"/>
<polygon fill="#666666" stroke="#666666" points="171.5,-101.5 171.5,-101.5 232.5,-101.5 232.5,-101.5 171.5,-101.5"/>
<polygon fill="none" stroke="#666666" points="171,-85 171,-134 232,-134 232,-85 171,-85"/>
</a>
</g>
</g>
<!-- Node3&#45;&gt;Node1 -->
<g id="edge2_Node000001_Node000003" class="edge">
<title>Node3&#45;&gt;Node1</title>
<g id="a_edge2_Node000001_Node000003"><a xlink:title=" ">
<path fill="none" stroke="#63b8ff" d="M170.5,-77.87C160.89,-68.38 150.46,-58.06 141.41,-49.12"/>
<polygon fill="none" stroke="#63b8ff" points="168.08,-80.4 177.65,-84.94 173,-75.42 168.08,-80.4"/>
</a>
</g>
</g>
<!-- Node4&#45;&gt;Node1 -->
<g id="edge3_Node000001_Node000004" class="edge">
<title>Node4&#45;&gt;Node1</title>
<g id="a_edge3_Node000001_Node000004"><a xlink:title=" ">
<path fill="none" stroke="#63b8ff" d="M117.5,-74.77C117.5,-66.17 117.5,-57.1 117.5,-49.12"/>
<polygon fill="none" stroke="#63b8ff" points="114,-74.94 117.5,-84.94 121,-74.94 114,-74.94"/>
</a>
</g>
</g>
<!-- Node5 -->
<g id="Node000005" class="node">
<title>Node5</title>
<g id="a_Node000005"><a xlink:title=" ">
<polygon fill="white" stroke="transparent" points="133.5,-219 101.5,-219 101.5,-170 133.5,-170 133.5,-219"/>
<text text-anchor="start" x="106.5" y="-206.5" font-family="Helvetica,sans-Serif" font-size="10.00">type</text>
<text text-anchor="start" x="115.5" y="-191.5" font-family="Helvetica,sans-Serif" font-size="10.00"> </text>
<text text-anchor="start" x="115.5" y="-176.5" font-family="Helvetica,sans-Serif" font-size="10.00"> </text>
<polygon fill="#666666" stroke="#666666" points="101.5,-201.5 101.5,-201.5 133.5,-201.5 133.5,-201.5 101.5,-201.5"/>
<polygon fill="#666666" stroke="#666666" points="101.5,-186.5 101.5,-186.5 133.5,-186.5 133.5,-186.5 101.5,-186.5"/>
<polygon fill="none" stroke="#666666" points="101.5,-170 101.5,-219 133.5,-219 133.5,-170 101.5,-170"/>
</a>
</g>
</g>
<!-- Node5&#45;&gt;Node4 -->
<g id="edge4_Node000004_Node000005" class="edge">
<title>Node5&#45;&gt;Node4</title>
<g id="a_edge4_Node000004_Node000005"><a xlink:title=" ">
<path fill="none" stroke="#63b8ff" d="M110.86,-159.77C110.62,-151.17 110.78,-142.1 111.34,-134.12"/>
<polygon fill="none" stroke="#63b8ff" points="107.37,-160.12 111.34,-169.94 114.36,-159.78 107.37,-160.12"/>
</a>
</g>
</g>
<!-- Node5&#45;&gt;Node4 -->
<g id="edge6_Node000004_Node000005" class="edge">
<title>Node5&#45;&gt;Node4</title>
<g id="a_edge6_Node000004_Node000005"><a xlink:title=" ">
<path fill="none" stroke="#63b8ff" d="M124.14,-159.77C124.38,-151.17 124.22,-142.1 123.66,-134.12"/>
<polygon fill="none" stroke="#63b8ff" points="120.64,-159.78 123.66,-169.94 127.63,-160.12 120.64,-159.78"/>
</a>
</g>
</g>
<!-- Node6 -->
<g id="Node000006" class="node">
<title>Node6</title>
<g id="a_Node000006"><a xlink:title=" ">
<polygon fill="white" stroke="transparent" points="183,-219 152,-219 152,-170 183,-170 183,-219"/>
<text text-anchor="start" x="157.5" y="-206.5" font-family="Helvetica,sans-Serif" font-size="10.00">ABC</text>
<text text-anchor="start" x="166" y="-191.5" font-family="Helvetica,sans-Serif" font-size="10.00"> </text>
<text text-anchor="start" x="166" y="-176.5" font-family="Helvetica,sans-Serif" font-size="10.00"> </text>
<polygon fill="#666666" stroke="#666666" points="152.5,-201.5 152.5,-201.5 183.5,-201.5 183.5,-201.5 152.5,-201.5"/>
<polygon fill="#666666" stroke="#666666" points="152.5,-186.5 152.5,-186.5 183.5,-186.5 183.5,-186.5 152.5,-186.5"/>
<polygon fill="none" stroke="#666666" points="152,-170 152,-219 183,-219 183,-170 152,-170"/>
</a>
</g>
</g>
<!-- Node6&#45;&gt;Node4 -->
<g id="edge5_Node000004_Node000006" class="edge">
<title>Node6&#45;&gt;Node4</title>
<g id="a_edge5_Node000004_Node000006"><a xlink:title=" ">
<path fill="none" stroke="#63b8ff" d="M148.04,-161.19C142.6,-152.17 136.8,-142.54 131.73,-134.12"/>
<polygon fill="none" stroke="#63b8ff" points="145.15,-163.18 153.31,-169.94 151.14,-159.57 145.15,-163.18"/>
</a>
</g>
</g>
</g>
</svg>
