<?xml version="1.0" encoding="UTF-8" standalone="no"?>
<!DOCTYPE svg PUBLIC "-//W3C//DTD SVG 1.1//EN"
 "http://www.w3.org/Graphics/SVG/1.1/DTD/svg11.dtd">
<!-- Generated by graphviz version 2.43.0 (0)
 -->
<!-- Title: HDF5SnapshotIO Pages: 1 -->
<svg width="336pt" height="497pt"
 viewBox="0.00 0.00 336.00 497.00" xmlns="http://www.w3.org/2000/svg" xmlns:xlink="http://www.w3.org/1999/xlink">
<g id="graph0" class="graph" transform="scale(1 1) rotate(0) translate(4 493)">
<title>HDF5SnapshotIO</title>
<polygon fill="white" stroke="transparent" points="-4,4 -4,-493 332,-493 332,4 -4,4"/>
<!-- Node1 -->
<g id="node1" class="node">
<title>Node1</title>
<g id="a_node1"><a xlink:title="Base class with common functionality to writing/loading snapshots to/from disk.">
<polygon fill="#bfbfbf" stroke="black" points="86,-94.5 86,-195.5 241,-195.5 241,-94.5 86,-94.5"/>
<text text-anchor="middle" x="163.5" y="-183.5" font-family="Helvetica,sans-Serif" font-size="10.00">HDF5SnapshotIO</text>
<polyline fill="none" stroke="black" points="86,-176.5 241,-176.5 "/>
<text text-anchor="middle" x="163.5" y="-164.5" font-family="Helvetica,sans-Serif" font-size="10.00"> </text>
<polyline fill="none" stroke="black" points="86,-157.5 241,-157.5 "/>
<text text-anchor="start" x="94" y="-145.5" font-family="Helvetica,sans-Serif" font-size="10.00">+ GetID()</text>
<text text-anchor="start" x="94" y="-134.5" font-family="Helvetica,sans-Serif" font-size="10.00">+ GetPath()</text>
<text text-anchor="start" x="94" y="-123.5" font-family="Helvetica,sans-Serif" font-size="10.00">+ GetDefaultParameters()</text>
<text text-anchor="start" x="94" y="-112.5" font-family="Helvetica,sans-Serif" font-size="10.00">+ parameters()</text>
<text text-anchor="start" x="94" y="-101.5" font-family="Helvetica,sans-Serif" font-size="10.00">+ GetDefaultIOParameters()</text>
</a>
</g>
</g>
<!-- Node5 -->
<g id="node5" class="node">
<title>Node5</title>
<g id="a_node5"><a xlink:href="classpython__scripts_1_1checkpoint_1_1HDF5SnapshotIO_1_1HDF5SnapshotInput.html" target="_top" xlink:title="Input class for reading most data from an HDF5 snapshot to a model part.">
<polygon fill="white" stroke="black" points="0,-0.5 0,-57.5 155,-57.5 155,-0.5 0,-0.5"/>
<text text-anchor="middle" x="77.5" y="-45.5" font-family="Helvetica,sans-Serif" font-size="10.00">HDF5SnapshotInput</text>
<polyline fill="none" stroke="black" points="0,-38.5 155,-38.5 "/>
<text text-anchor="middle" x="77.5" y="-26.5" font-family="Helvetica,sans-Serif" font-size="10.00"> </text>
<polyline fill="none" stroke="black" points="0,-19.5 155,-19.5 "/>
<text text-anchor="start" x="8" y="-7.5" font-family="Helvetica,sans-Serif" font-size="10.00">+ GetDefaultIOParameters()</text>
</a>
</g>
</g>
<!-- Node1&#45;&gt;Node5 -->
<g id="edge4" class="edge">
<title>Node1&#45;&gt;Node5</title>
<path fill="none" stroke="midnightblue" d="M119.98,-86.31C112.43,-76.3 104.89,-66.31 98.31,-57.59"/>
<polygon fill="none" stroke="midnightblue" points="117.21,-88.45 126.03,-94.33 122.8,-84.24 117.21,-88.45"/>
</g>
<!-- Node6 -->
<g id="node6" class="node">
<title>Node6</title>
<g id="a_node6"><a xlink:href="classpython__scripts_1_1checkpoint_1_1HDF5SnapshotIO_1_1HDF5SnapshotOutput.html" target="_top" xlink:title="Output class for writing most data in the model part to an HDF5 snapshot.">
<polygon fill="white" stroke="black" points="173,-0.5 173,-57.5 328,-57.5 328,-0.5 173,-0.5"/>
<text text-anchor="middle" x="250.5" y="-45.5" font-family="Helvetica,sans-Serif" font-size="10.00">HDF5SnapshotOutput</text>
<polyline fill="none" stroke="black" points="173,-38.5 328,-38.5 "/>
<text text-anchor="middle" x="250.5" y="-26.5" font-family="Helvetica,sans-Serif" font-size="10.00"> </text>
<polyline fill="none" stroke="black" points="173,-19.5 328,-19.5 "/>
<text text-anchor="start" x="181" y="-7.5" font-family="Helvetica,sans-Serif" font-size="10.00">+ GetDefaultIOParameters()</text>
</a>
</g>
</g>
<!-- Node1&#45;&gt;Node6 -->
<g id="edge5" class="edge">
<title>Node1&#45;&gt;Node6</title>
<path fill="none" stroke="midnightblue" d="M207.52,-86.31C215.17,-76.3 222.79,-66.31 229.44,-57.59"/>
<polygon fill="none" stroke="midnightblue" points="204.69,-84.26 201.41,-94.33 210.26,-88.5 204.69,-84.26"/>
</g>
<!-- Node2 -->
<g id="node2" class="node">
<title>Node2</title>
<g id="a_node2"><a xlink:href="classpython__scripts_1_1checkpoint_1_1SnapshotIO_1_1SnapshotFSIO.html" target="_top" xlink:title="Base class for Snapshot s that store their data on the filesystem.">
<polygon fill="white" stroke="black" points="122,-232.5 122,-300.5 205,-300.5 205,-232.5 122,-232.5"/>
<text text-anchor="middle" x="163.5" y="-288.5" font-family="Helvetica,sans-Serif" font-size="10.00">SnapshotFSIO</text>
<polyline fill="none" stroke="black" points="122,-281.5 205,-281.5 "/>
<text text-anchor="middle" x="163.5" y="-269.5" font-family="Helvetica,sans-Serif" font-size="10.00"> </text>
<polyline fill="none" stroke="black" points="122,-262.5 205,-262.5 "/>
<text text-anchor="start" x="130" y="-250.5" font-family="Helvetica,sans-Serif" font-size="10.00">+ GetID()</text>
<text text-anchor="start" x="130" y="-239.5" font-family="Helvetica,sans-Serif" font-size="10.00">+ GetPath()</text>
</a>
</g>
</g>
<!-- Node2&#45;&gt;Node1 -->
<g id="edge1" class="edge">
<title>Node2&#45;&gt;Node1</title>
<path fill="none" stroke="midnightblue" d="M163.5,-222.05C163.5,-213.47 163.5,-204.41 163.5,-195.65"/>
<polygon fill="none" stroke="midnightblue" points="160,-222.21 163.5,-232.21 167,-222.21 160,-222.21"/>
</g>
<!-- Node3 -->
<g id="node3" class="node">
<title>Node3</title>
<g id="a_node3"><a xlink:href="classpython__scripts_1_1checkpoint_1_1SnapshotIO_1_1SnapshotIO.html" target="_top" xlink:title="Interface for performing Snapshot input/output operations.">
<polygon fill="white" stroke="black" points="91.5,-337.5 91.5,-394.5 235.5,-394.5 235.5,-337.5 91.5,-337.5"/>
<text text-anchor="middle" x="163.5" y="-382.5" font-family="Helvetica,sans-Serif" font-size="10.00">SnapshotIO</text>
<polyline fill="none" stroke="black" points="91.5,-375.5 235.5,-375.5 "/>
<text text-anchor="middle" x="163.5" y="-363.5" font-family="Helvetica,sans-Serif" font-size="10.00"> </text>
<polyline fill="none" stroke="black" points="91.5,-356.5 235.5,-356.5 "/>
<text text-anchor="start" x="99.5" y="-344.5" font-family="Helvetica,sans-Serif" font-size="10.00">+ GetDefaultParameters()</text>
</a>
</g>
</g>
<!-- Node3&#45;&gt;Node2 -->
<g id="edge2" class="edge">
<title>Node3&#45;&gt;Node2</title>
<path fill="none" stroke="midnightblue" d="M163.5,-327.06C163.5,-318.39 163.5,-309.24 163.5,-300.79"/>
<polygon fill="none" stroke="midnightblue" points="160,-327.32 163.5,-337.32 167,-327.32 160,-327.32"/>
</g>
<!-- Node4 -->
<g id="node4" class="node">
<title>Node4</title>
<g id="a_node4"><a xlink:title=" ">
<polygon fill="white" stroke="#bfbfbf" points="124.5,-431.5 124.5,-488.5 202.5,-488.5 202.5,-431.5 124.5,-431.5"/>
<text text-anchor="middle" x="163.5" y="-476.5" font-family="Helvetica,sans-Serif" font-size="10.00">WRAppClass</text>
<polyline fill="none" stroke="#bfbfbf" points="124.5,-469.5 202.5,-469.5 "/>
<text text-anchor="middle" x="163.5" y="-457.5" font-family="Helvetica,sans-Serif" font-size="10.00"> </text>
<polyline fill="none" stroke="#bfbfbf" points="124.5,-450.5 202.5,-450.5 "/>
<text text-anchor="middle" x="163.5" y="-438.5" font-family="Helvetica,sans-Serif" font-size="10.00"> </text>
</a>
</g>
</g>
<!-- Node4&#45;&gt;Node3 -->
<g id="edge3" class="edge">
<title>Node4&#45;&gt;Node3</title>
<path fill="none" stroke="midnightblue" d="M163.5,-421.21C163.5,-412.29 163.5,-402.95 163.5,-394.58"/>
<polygon fill="none" stroke="midnightblue" points="160,-421.4 163.5,-431.4 167,-421.4 160,-421.4"/>
</g>
</g>
</svg>
