<?xml version="1.0" encoding="UTF-8" standalone="no"?>
<!DOCTYPE svg PUBLIC "-//W3C//DTD SVG 1.1//EN"
 "http://www.w3.org/Graphics/SVG/1.1/DTD/svg11.dtd">
<!-- Generated by graphviz version 2.43.0 (0)
 -->
<!-- Title: HDF5Snapshot Pages: 1 -->
<svg width="152pt" height="601pt"
 viewBox="0.00 0.00 152.00 601.00" xmlns="http://www.w3.org/2000/svg" xmlns:xlink="http://www.w3.org/1999/xlink">
<g id="graph0" class="graph" transform="scale(1 1) rotate(0) translate(4 597)">
<title>HDF5Snapshot</title>
<polygon fill="white" stroke="transparent" points="-4,4 -4,-597 148,-597 148,4 -4,4"/>
<!-- Node1 -->
<g id="node1" class="node">
<title>Node1</title>
<g id="a_node1"><a xlink:title="Class representing a snapshot of a ModelPart state and its associated output file in HDF5 format.">
<polygon fill="#bfbfbf" stroke="black" points="13,-0.5 13,-90.5 131,-90.5 131,-0.5 13,-0.5"/>
<text text-anchor="middle" x="72" y="-78.5" font-family="Helvetica,sans-Serif" font-size="10.00">HDF5Snapshot</text>
<polyline fill="none" stroke="black" points="13,-71.5 131,-71.5 "/>
<text text-anchor="middle" x="72" y="-59.5" font-family="Helvetica,sans-Serif" font-size="10.00"> </text>
<polyline fill="none" stroke="black" points="13,-52.5 131,-52.5 "/>
<text text-anchor="start" x="21" y="-40.5" font-family="Helvetica,sans-Serif" font-size="10.00">+ Erase()</text>
<text text-anchor="start" x="21" y="-29.5" font-family="Helvetica,sans-Serif" font-size="10.00">+ GetManagerType()</text>
<text text-anchor="start" x="21" y="-18.5" font-family="Helvetica,sans-Serif" font-size="10.00">+ GetInputType()</text>
<text text-anchor="start" x="21" y="-7.5" font-family="Helvetica,sans-Serif" font-size="10.00">+ GetOutputType()</text>
</a>
</g>
</g>
<!-- Node2 -->
<g id="node2" class="node">
<title>Node2</title>
<g id="a_node2"><a xlink:href="classpython__scripts_1_1checkpoint_1_1Snapshot_1_1SnapshotFS.html" target="_top" xlink:title="Class representing a snapshot of a ModelPart state and its associated output file on the filesystem.">
<polygon fill="white" stroke="black" points="17.5,-127.5 17.5,-261.5 126.5,-261.5 126.5,-127.5 17.5,-127.5"/>
<text text-anchor="middle" x="72" y="-249.5" font-family="Helvetica,sans-Serif" font-size="10.00">SnapshotFS</text>
<polyline fill="none" stroke="black" points="17.5,-242.5 126.5,-242.5 "/>
<text text-anchor="middle" x="72" y="-230.5" font-family="Helvetica,sans-Serif" font-size="10.00"> </text>
<polyline fill="none" stroke="black" points="17.5,-223.5 126.5,-223.5 "/>
<text text-anchor="start" x="25.5" y="-211.5" font-family="Helvetica,sans-Serif" font-size="10.00">+ Write()</text>
<text text-anchor="start" x="25.5" y="-200.5" font-family="Helvetica,sans-Serif" font-size="10.00">+ Load()</text>
<text text-anchor="start" x="25.5" y="-189.5" font-family="Helvetica,sans-Serif" font-size="10.00">+ Erase()</text>
<text text-anchor="start" x="25.5" y="-178.5" font-family="Helvetica,sans-Serif" font-size="10.00">+ Exists()</text>
<text text-anchor="start" x="25.5" y="-167.5" font-family="Helvetica,sans-Serif" font-size="10.00">+ IsValid()</text>
<text text-anchor="start" x="25.5" y="-156.5" font-family="Helvetica,sans-Serif" font-size="10.00">+ FromFile()</text>
<text text-anchor="start" x="25.5" y="-145.5" font-family="Helvetica,sans-Serif" font-size="10.00">+ FromModelPart()</text>
<text text-anchor="start" x="25.5" y="-134.5" font-family="Helvetica,sans-Serif" font-size="10.00">+ Collect()</text>
</a>
</g>
</g>
<!-- Node2&#45;&gt;Node1 -->
<g id="edge1" class="edge">
<title>Node2&#45;&gt;Node1</title>
<path fill="none" stroke="midnightblue" d="M72,-117.15C72,-108.15 72,-99.2 72,-90.85"/>
<polygon fill="none" stroke="midnightblue" points="68.5,-117.31 72,-127.31 75.5,-117.31 68.5,-117.31"/>
</g>
<!-- Node3 -->
<g id="node3" class="node">
<title>Node3</title>
<g id="a_node3"><a xlink:href="classpython__scripts_1_1checkpoint_1_1Snapshot_1_1Snapshot.html" target="_top" xlink:title="Class representing a snapshot of a ModelPart state.">
<polygon fill="white" stroke="black" points="0,-298.5 0,-498.5 144,-498.5 144,-298.5 0,-298.5"/>
<text text-anchor="middle" x="72" y="-486.5" font-family="Helvetica,sans-Serif" font-size="10.00">Snapshot</text>
<polyline fill="none" stroke="black" points="0,-479.5 144,-479.5 "/>
<text text-anchor="middle" x="72" y="-467.5" font-family="Helvetica,sans-Serif" font-size="10.00"> </text>
<polyline fill="none" stroke="black" points="0,-460.5 144,-460.5 "/>
<text text-anchor="start" x="8" y="-448.5" font-family="Helvetica,sans-Serif" font-size="10.00">+ Load()</text>
<text text-anchor="start" x="8" y="-437.5" font-family="Helvetica,sans-Serif" font-size="10.00">+ Write()</text>
<text text-anchor="start" x="8" y="-426.5" font-family="Helvetica,sans-Serif" font-size="10.00">+ Erase()</text>
<text text-anchor="start" x="8" y="-415.5" font-family="Helvetica,sans-Serif" font-size="10.00">+ Exists()</text>
<text text-anchor="start" x="8" y="-404.5" font-family="Helvetica,sans-Serif" font-size="10.00">+ IsValid()</text>
<text text-anchor="start" x="8" y="-393.5" font-family="Helvetica,sans-Serif" font-size="10.00">+ GetManagerType()</text>
<text text-anchor="start" x="8" y="-382.5" font-family="Helvetica,sans-Serif" font-size="10.00">+ GetDefaultParameters()</text>
<text text-anchor="start" x="8" y="-371.5" font-family="Helvetica,sans-Serif" font-size="10.00">+ analysis_path()</text>
<text text-anchor="start" x="8" y="-360.5" font-family="Helvetica,sans-Serif" font-size="10.00">+ step()</text>
<text text-anchor="start" x="8" y="-349.5" font-family="Helvetica,sans-Serif" font-size="10.00">+ id()</text>
<text text-anchor="start" x="8" y="-338.5" font-family="Helvetica,sans-Serif" font-size="10.00">+ GetInputType()</text>
<text text-anchor="start" x="8" y="-327.5" font-family="Helvetica,sans-Serif" font-size="10.00">+ GetOutputType()</text>
<text text-anchor="start" x="8" y="-316.5" font-family="Helvetica,sans-Serif" font-size="10.00">+ GetSolutionPath()</text>
<text text-anchor="start" x="8" y="-305.5" font-family="Helvetica,sans-Serif" font-size="10.00">+ FromModelPart()</text>
</a>
</g>
</g>
<!-- Node3&#45;&gt;Node2 -->
<g id="edge2" class="edge">
<title>Node3&#45;&gt;Node2</title>
<path fill="none" stroke="midnightblue" d="M72,-288.05C72,-279.02 72,-270.07 72,-261.51"/>
<polygon fill="none" stroke="midnightblue" points="68.5,-288.28 72,-298.28 75.5,-288.28 68.5,-288.28"/>
</g>
<!-- Node4 -->
<g id="node4" class="node">
<title>Node4</title>
<g id="a_node4"><a xlink:title=" ">
<polygon fill="white" stroke="#bfbfbf" points="33,-535.5 33,-592.5 111,-592.5 111,-535.5 33,-535.5"/>
<text text-anchor="middle" x="72" y="-580.5" font-family="Helvetica,sans-Serif" font-size="10.00">WRAppClass</text>
<polyline fill="none" stroke="#bfbfbf" points="33,-573.5 111,-573.5 "/>
<text text-anchor="middle" x="72" y="-561.5" font-family="Helvetica,sans-Serif" font-size="10.00"> </text>
<polyline fill="none" stroke="#bfbfbf" points="33,-554.5 111,-554.5 "/>
<text text-anchor="middle" x="72" y="-542.5" font-family="Helvetica,sans-Serif" font-size="10.00"> </text>
</a>
</g>
</g>
<!-- Node4&#45;&gt;Node3 -->
<g id="edge3" class="edge">
<title>Node4&#45;&gt;Node3</title>
<path fill="none" stroke="midnightblue" d="M72,-525.04C72,-516.87 72,-507.87 72,-498.55"/>
<polygon fill="none" stroke="midnightblue" points="68.5,-525.26 72,-535.26 75.5,-525.26 68.5,-525.26"/>
</g>
</g>
</svg>
