<?xml version="1.0" encoding="UTF-8" standalone="no"?>
<!DOCTYPE svg PUBLIC "-//W3C//DTD SVG 1.1//EN"
 "http://www.w3.org/Graphics/SVG/1.1/DTD/svg11.dtd">
<!-- Generated by graphviz version 2.43.0 (0)
 -->
<!-- Title: SnapshotManager Pages: 1 -->
<svg width="156pt" height="204pt"
 viewBox="0.00 0.00 155.50 204.00" xmlns="http://www.w3.org/2000/svg" xmlns:xlink="http://www.w3.org/1999/xlink">
<g id="graph0" class="graph" transform="scale(1 1) rotate(0) translate(4 200)">
<title>SnapshotManager</title>
<polygon fill="white" stroke="transparent" points="-4,4 -4,-200 151.5,-200 151.5,4 -4,4"/>
<!-- Node1 -->
<g id="node1" class="node">
<title>Node1</title>
<g id="a_node1"><a xlink:title="Interface for Snapshot lifetime management.">
<polygon fill="#bfbfbf" stroke="black" points="2.5,-0.5 2.5,-101.5 146.5,-101.5 146.5,-0.5 2.5,-0.5"/>
<text text-anchor="middle" x="74.5" y="-89.5" font-family="Helvetica,sans-Serif" font-size="10.00">SnapshotManager</text>
<polyline fill="none" stroke="black" points="2.5,-82.5 146.5,-82.5 "/>
<text text-anchor="middle" x="74.5" y="-70.5" font-family="Helvetica,sans-Serif" font-size="10.00"> </text>
<polyline fill="none" stroke="black" points="2.5,-63.5 146.5,-63.5 "/>
<text text-anchor="start" x="10.5" y="-51.5" font-family="Helvetica,sans-Serif" font-size="10.00">+ Add()</text>
<text text-anchor="start" x="10.5" y="-40.5" font-family="Helvetica,sans-Serif" font-size="10.00">+ Get()</text>
<text text-anchor="start" x="10.5" y="-29.5" font-family="Helvetica,sans-Serif" font-size="10.00">+ Erase()</text>
<text text-anchor="start" x="10.5" y="-18.5" font-family="Helvetica,sans-Serif" font-size="10.00">+ EraseObsolete()</text>
<text text-anchor="start" x="10.5" y="-7.5" font-family="Helvetica,sans-Serif" font-size="10.00">+ GetDefaultParameters()</text>
</a>
</g>
</g>
<!-- Node2 -->
<g id="node2" class="node">
<title>Node2</title>
<g id="a_node2"><a xlink:title=" ">
<polygon fill="white" stroke="#bfbfbf" points="0,-138.5 0,-195.5 67,-195.5 67,-138.5 0,-138.5"/>
<text text-anchor="middle" x="33.5" y="-183.5" font-family="Helvetica,sans-Serif" font-size="10.00">metaclass</text>
<polyline fill="none" stroke="#bfbfbf" points="0,-176.5 67,-176.5 "/>
<text text-anchor="middle" x="33.5" y="-164.5" font-family="Helvetica,sans-Serif" font-size="10.00"> </text>
<polyline fill="none" stroke="#bfbfbf" points="0,-157.5 67,-157.5 "/>
<text text-anchor="middle" x="33.5" y="-145.5" font-family="Helvetica,sans-Serif" font-size="10.00"> </text>
</a>
</g>
</g>
<!-- Node2&#45;&gt;Node1 -->
<g id="edge1" class="edge">
<title>Node2&#45;&gt;Node1</title>
<path fill="none" stroke="midnightblue" d="M46.84,-128.92C49.97,-120.2 53.36,-110.78 56.66,-101.61"/>
<polygon fill="none" stroke="midnightblue" points="43.52,-127.81 43.42,-138.4 50.1,-130.18 43.52,-127.81"/>
</g>
<!-- Node3 -->
<g id="node3" class="node">
<title>Node3</title>
<g id="a_node3"><a xlink:title=" ">
<polygon fill="white" stroke="#bfbfbf" points="85.5,-138.5 85.5,-195.5 147.5,-195.5 147.5,-138.5 85.5,-138.5"/>
<text text-anchor="middle" x="116.5" y="-183.5" font-family="Helvetica,sans-Serif" font-size="10.00">ABCMeta</text>
<polyline fill="none" stroke="#bfbfbf" points="85.5,-176.5 147.5,-176.5 "/>
<text text-anchor="middle" x="116.5" y="-164.5" font-family="Helvetica,sans-Serif" font-size="10.00"> </text>
<polyline fill="none" stroke="#bfbfbf" points="85.5,-157.5 147.5,-157.5 "/>
<text text-anchor="middle" x="116.5" y="-145.5" font-family="Helvetica,sans-Serif" font-size="10.00"> </text>
</a>
</g>
</g>
<!-- Node3&#45;&gt;Node1 -->
<g id="edge2" class="edge">
<title>Node3&#45;&gt;Node1</title>
<path fill="none" stroke="midnightblue" d="M102.84,-128.92C99.63,-120.2 96.15,-110.78 92.78,-101.61"/>
<polygon fill="none" stroke="midnightblue" points="99.59,-130.23 106.33,-138.4 106.16,-127.81 99.59,-130.23"/>
</g>
</g>
</svg>
