<?xml version="1.0" encoding="UTF-8" standalone="no"?>
<!DOCTYPE svg PUBLIC "-//W3C//DTD SVG 1.1//EN"
 "http://www.w3.org/Graphics/SVG/1.1/DTD/svg11.dtd">
<!-- Generated by graphviz version 2.43.0 (0)
 -->
<!-- Title: LaunchAnalysis Pages: 1 -->
<svg width="170pt" height="171pt"
 viewBox="0.00 0.00 169.50 171.00" xmlns="http://www.w3.org/2000/svg" xmlns:xlink="http://www.w3.org/1999/xlink">
<g id="graph0" class="graph" transform="scale(1 1) rotate(0) translate(4 167)">
<title>LaunchAnalysis</title>
<polygon fill="white" stroke="transparent" points="-4,4 -4,-167 165.5,-167 165.5,4 -4,4"/>
<!-- Node1 -->
<g id="node1" class="node">
<title>Node1</title>
<g id="a_node1"><a xlink:title="Set up, execute, and tear down an analysis based on an input JSON file.">
<polygon fill="#bfbfbf" stroke="black" points="12,-0.5 12,-68.5 156,-68.5 156,-0.5 12,-0.5"/>
<text text-anchor="middle" x="84" y="-56.5" font-family="Helvetica,sans-Serif" font-size="10.00">LaunchAnalysis</text>
<polyline fill="none" stroke="black" points="12,-49.5 156,-49.5 "/>
<text text-anchor="middle" x="84" y="-37.5" font-family="Helvetica,sans-Serif" font-size="10.00"> </text>
<polyline fill="none" stroke="black" points="12,-30.5 156,-30.5 "/>
<text text-anchor="start" x="20" y="-18.5" font-family="Helvetica,sans-Serif" font-size="10.00">+ Execute()</text>
<text text-anchor="start" x="20" y="-7.5" font-family="Helvetica,sans-Serif" font-size="10.00">+ GetDefaultParameters()</text>
</a>
</g>
</g>
<!-- Node2 -->
<g id="node2" class="node">
<title>Node2</title>
<g id="a_node2"><a xlink:title=" ">
<polygon fill="white" stroke="#bfbfbf" points="0,-105.5 0,-162.5 78,-162.5 78,-105.5 0,-105.5"/>
<text text-anchor="middle" x="39" y="-150.5" font-family="Helvetica,sans-Serif" font-size="10.00">WRAppClass</text>
<polyline fill="none" stroke="#bfbfbf" points="0,-143.5 78,-143.5 "/>
<text text-anchor="middle" x="39" y="-131.5" font-family="Helvetica,sans-Serif" font-size="10.00"> </text>
<polyline fill="none" stroke="#bfbfbf" points="0,-124.5 78,-124.5 "/>
<text text-anchor="middle" x="39" y="-112.5" font-family="Helvetica,sans-Serif" font-size="10.00"> </text>
</a>
</g>
</g>
<!-- Node2&#45;&gt;Node1 -->
<g id="edge1" class="edge">
<title>Node2&#45;&gt;Node1</title>
<path fill="none" stroke="midnightblue" d="M55.98,-96.2C60.14,-87.2 64.56,-77.61 68.64,-68.79"/>
<polygon fill="none" stroke="midnightblue" points="52.79,-94.77 51.77,-105.32 59.14,-97.71 52.79,-94.77"/>
</g>
<!-- Node3 -->
<g id="node3" class="node">
<title>Node3</title>
<g id="a_node3"><a xlink:title=" ">
<polygon fill="white" stroke="#bfbfbf" points="96.5,-105.5 96.5,-162.5 161.5,-162.5 161.5,-105.5 96.5,-105.5"/>
<text text-anchor="middle" x="129" y="-150.5" font-family="Helvetica,sans-Serif" font-size="10.00">Operation</text>
<polyline fill="none" stroke="#bfbfbf" points="96.5,-143.5 161.5,-143.5 "/>
<text text-anchor="middle" x="129" y="-131.5" font-family="Helvetica,sans-Serif" font-size="10.00"> </text>
<polyline fill="none" stroke="#bfbfbf" points="96.5,-124.5 161.5,-124.5 "/>
<text text-anchor="middle" x="129" y="-112.5" font-family="Helvetica,sans-Serif" font-size="10.00"> </text>
</a>
</g>
</g>
<!-- Node3&#45;&gt;Node1 -->
<g id="edge2" class="edge">
<title>Node3&#45;&gt;Node1</title>
<path fill="none" stroke="midnightblue" d="M112.02,-96.2C107.86,-87.2 103.44,-77.61 99.36,-68.79"/>
<polygon fill="none" stroke="midnightblue" points="108.86,-97.71 116.23,-105.32 115.21,-94.77 108.86,-97.71"/>
</g>
</g>
</svg>
