<?xml version="1.0" encoding="UTF-8" standalone="no"?>
<!DOCTYPE svg PUBLIC "-//W3C//DTD SVG 1.1//EN"
 "http://www.w3.org/Graphics/SVG/1.1/DTD/svg11.dtd">
<!-- Generated by graphviz version 2.43.0 (0)
 -->
<!-- Title: Data Pages: 1 -->
<svg width="228pt" height="287pt"
 viewBox="0.00 0.00 228.00 287.00" xmlns="http://www.w3.org/2000/svg" xmlns:xlink="http://www.w3.org/1999/xlink">
<g id="graph0" class="graph" transform="scale(1 1) rotate(0) translate(4 283)">
<title>Data</title>
<polygon fill="white" stroke="transparent" points="-4,4 -4,-283 224,-283 224,4 -4,4"/>
<!-- Node1 -->
<g id="node1" class="node">
<title>Node1</title>
<g id="a_node1"><a xlink:title=" ">
<polygon fill="#bfbfbf" stroke="black" points="59,-105.5 59,-184.5 160,-184.5 160,-105.5 59,-105.5"/>
<text text-anchor="middle" x="109.5" y="-172.5" font-family="Helvetica,sans-Serif" font-size="10.00">Data</text>
<polyline fill="none" stroke="black" points="59,-165.5 160,-165.5 "/>
<text text-anchor="middle" x="109.5" y="-153.5" font-family="Helvetica,sans-Serif" font-size="10.00"> </text>
<polyline fill="none" stroke="black" points="59,-146.5 160,-146.5 "/>
<text text-anchor="start" x="67" y="-134.5" font-family="Helvetica,sans-Serif" font-size="10.00">+ GetAttributes()</text>
<text text-anchor="start" x="67" y="-123.5" font-family="Helvetica,sans-Serif" font-size="10.00">+ GetShape()</text>
<text text-anchor="start" x="67" y="-112.5" font-family="Helvetica,sans-Serif" font-size="10.00">+ GetText()</text>
</a>
</g>
</g>
<!-- Node3 -->
<g id="node3" class="node">
<title>Node3</title>
<g id="a_node3"><a xlink:href="classpython__scripts_1_1xdmf_1_1Data_1_1HDF5Data.html" target="_top" xlink:title=" ">
<polygon fill="white" stroke="black" points="0,-0.5 0,-68.5 101,-68.5 101,-0.5 0,-0.5"/>
<text text-anchor="middle" x="50.5" y="-56.5" font-family="Helvetica,sans-Serif" font-size="10.00">HDF5Data</text>
<polyline fill="none" stroke="black" points="0,-49.5 101,-49.5 "/>
<text text-anchor="middle" x="50.5" y="-37.5" font-family="Helvetica,sans-Serif" font-size="10.00"> </text>
<polyline fill="none" stroke="black" points="0,-30.5 101,-30.5 "/>
<text text-anchor="start" x="8" y="-18.5" font-family="Helvetica,sans-Serif" font-size="10.00">+ GetAttributes()</text>
<text text-anchor="start" x="8" y="-7.5" font-family="Helvetica,sans-Serif" font-size="10.00">+ GetText()</text>
</a>
</g>
</g>
<!-- Node1&#45;&gt;Node3 -->
<g id="edge2" class="edge">
<title>Node1&#45;&gt;Node3</title>
<path fill="none" stroke="midnightblue" d="M83.68,-96.52C78.55,-87.08 73.27,-77.37 68.47,-68.54"/>
<polygon fill="none" stroke="midnightblue" points="80.68,-98.33 88.53,-105.44 86.83,-94.98 80.68,-98.33"/>
</g>
<!-- Node4 -->
<g id="node4" class="node">
<title>Node4</title>
<g id="a_node4"><a xlink:href="classpython__scripts_1_1xdmf_1_1Data_1_1XmlData.html" target="_top" xlink:title=" ">
<polygon fill="white" stroke="black" points="119,-0.5 119,-68.5 220,-68.5 220,-0.5 119,-0.5"/>
<text text-anchor="middle" x="169.5" y="-56.5" font-family="Helvetica,sans-Serif" font-size="10.00">XmlData</text>
<polyline fill="none" stroke="black" points="119,-49.5 220,-49.5 "/>
<text text-anchor="middle" x="169.5" y="-37.5" font-family="Helvetica,sans-Serif" font-size="10.00"> </text>
<polyline fill="none" stroke="black" points="119,-30.5 220,-30.5 "/>
<text text-anchor="start" x="127" y="-18.5" font-family="Helvetica,sans-Serif" font-size="10.00">+ GetAttributes()</text>
<text text-anchor="start" x="127" y="-7.5" font-family="Helvetica,sans-Serif" font-size="10.00">+ GetText()</text>
</a>
</g>
</g>
<!-- Node1&#45;&gt;Node4 -->
<g id="edge3" class="edge">
<title>Node1&#45;&gt;Node4</title>
<path fill="none" stroke="midnightblue" d="M135.76,-96.52C140.98,-87.08 146.35,-77.37 151.23,-68.54"/>
<polygon fill="none" stroke="midnightblue" points="132.6,-95 130.82,-105.44 138.72,-98.38 132.6,-95"/>
</g>
<!-- Node2 -->
<g id="node2" class="node">
<title>Node2</title>
<g id="a_node2"><a xlink:title=" ">
<polygon fill="white" stroke="#bfbfbf" points="91,-221.5 91,-278.5 128,-278.5 128,-221.5 91,-221.5"/>
<text text-anchor="middle" x="109.5" y="-266.5" font-family="Helvetica,sans-Serif" font-size="10.00">ABC</text>
<polyline fill="none" stroke="#bfbfbf" points="91,-259.5 128,-259.5 "/>
<text text-anchor="middle" x="109.5" y="-247.5" font-family="Helvetica,sans-Serif" font-size="10.00"> </text>
<polyline fill="none" stroke="#bfbfbf" points="91,-240.5 128,-240.5 "/>
<text text-anchor="middle" x="109.5" y="-228.5" font-family="Helvetica,sans-Serif" font-size="10.00"> </text>
</a>
</g>
</g>
<!-- Node2&#45;&gt;Node1 -->
<g id="edge1" class="edge">
<title>Node2&#45;&gt;Node1</title>
<path fill="none" stroke="midnightblue" d="M109.5,-211.16C109.5,-202.47 109.5,-193.23 109.5,-184.52"/>
<polygon fill="none" stroke="midnightblue" points="106,-211.4 109.5,-221.4 113,-211.4 106,-211.4"/>
</g>
</g>
</svg>
