<?xml version="1.0" encoding="UTF-8" standalone="no"?>
<!DOCTYPE svg PUBLIC "-//W3C//DTD SVG 1.1//EN"
 "http://www.w3.org/Graphics/SVG/1.1/DTD/svg11.dtd">
<!-- Generated by graphviz version 2.43.0 (0)
 -->
<!-- Title: CoSimCoupling Pages: 1 -->
<svg width="206pt" height="142pt"
 viewBox="0.00 0.00 205.50 142.00" xmlns="http://www.w3.org/2000/svg" xmlns:xlink="http://www.w3.org/1999/xlink">

<svg id="main" version="1.1" xmlns="http://www.w3.org/2000/svg" xmlns:xlink="http://www.w3.org/1999/xlink" xml:space="preserve" onload="init(evt)">
<style type="text/css"><![CDATA[
.node, .edge {opacity: 0.7;}
.node.selected, .edge.selected {opacity: 1;}
.edge:hover path { stroke: red; }
.edge:hover polygon { stroke: red; fill: red; }
]]></style>
<script type="application/ecmascript" xlink:href="svg.min.js"/>
<svg id="graph" class="graph">
<g id="graph0" class="graph" transform="scale(1 1) rotate(0) translate(4 138)">
<title>CoSimCoupling</title>
<!-- Node1 -->
<g id="Node000001" class="node">
<title>Node1</title>
<g id="a_Node000001"><a xlink:title="Wrapper for CoSimulationApplication coupling procedures.">
<polygon fill="#999999" stroke="transparent" points="150,-49 65,-49 65,0 150,0 150,-49"/>
<text text-anchor="start" x="70.5" y="-36.5" font-family="Helvetica,sans-Serif" font-size="10.00">CoSimCoupling</text>
<text text-anchor="start" x="106" y="-21.5" font-family="Helvetica,sans-Serif" font-size="10.00"> </text>
<text text-anchor="start" x="106" y="-6.5" font-family="Helvetica,sans-Serif" font-size="10.00"> </text>
<polygon fill="#666666" stroke="#666666" points="65.5,-31.5 65.5,-31.5 150.5,-31.5 150.5,-31.5 65.5,-31.5"/>
<polygon fill="#666666" stroke="#666666" points="65.5,-16.5 65.5,-16.5 150.5,-16.5 150.5,-16.5 65.5,-16.5"/>
<polygon fill="none" stroke="#666666" points="65,0 65,-49 150,-49 150,0 65,0"/>
</a>
</g>
</g>
<!-- Node2 -->
<g id="Node000002" class="node">
<title>Node2</title>
<g id="a_Node000002"><a xlink:title=" ">
<polygon fill="white" stroke="transparent" points="107,-134 0,-134 0,-85 107,-85 107,-134"/>
<text text-anchor="start" x="5.5" y="-121.5" font-family="Helvetica,sans-Serif" font-size="10.00">SolutionStageScope</text>
<text text-anchor="start" x="52" y="-106.5" font-family="Helvetica,sans-Serif" font-size="10.00"> </text>
<text text-anchor="start" x="52" y="-91.5" font-family="Helvetica,sans-Serif" font-size="10.00"> </text>
<polygon fill="#666666" stroke="#666666" points="0.5,-116.5 0.5,-116.5 107.5,-116.5 107.5,-116.5 0.5,-116.5"/>
<polygon fill="#666666" stroke="#666666" points="0.5,-101.5 0.5,-101.5 107.5,-101.5 107.5,-101.5 0.5,-101.5"/>
<polygon fill="none" stroke="#666666" points="0,-85 0,-134 107,-134 107,-85 0,-85"/>
</a>
</g>
</g>
<!-- Node2&#45;&gt;Node1 -->
<g id="edge1_Node000001_Node000002" class="edge">
<title>Node2&#45;&gt;Node1</title>
<g id="a_edge1_Node000001_Node000002"><a xlink:title=" ">
<path fill="none" stroke="#63b8ff" d="M74.34,-76.47C80.26,-67.37 86.6,-57.63 92.13,-49.12"/>
<polygon fill="none" stroke="#63b8ff" points="71.35,-74.65 68.83,-84.94 77.22,-78.46 71.35,-74.65"/>
</a>
</g>
</g>
<!-- Node3 -->
<g id="Node000003" class="node">
<title>Node3</title>
<g id="a_Node000003"><a xlink:title=" ">
<polygon fill="white" stroke="transparent" points="197.5,-134 125.5,-134 125.5,-85 197.5,-85 197.5,-134"/>
<text text-anchor="start" x="130.5" y="-121.5" font-family="Helvetica,sans-Serif" font-size="10.00">WRAppClass</text>
<text text-anchor="start" x="159.5" y="-106.5" font-family="Helvetica,sans-Serif" font-size="10.00"> </text>
<text text-anchor="start" x="159.5" y="-91.5" font-family="Helvetica,sans-Serif" font-size="10.00"> </text>
<polygon fill="#666666" stroke="#666666" points="125.5,-116.5 125.5,-116.5 197.5,-116.5 197.5,-116.5 125.5,-116.5"/>
<polygon fill="#666666" stroke="#666666" points="125.5,-101.5 125.5,-101.5 197.5,-101.5 197.5,-101.5 125.5,-101.5"/>
<polygon fill="none" stroke="#666666" points="125.5,-85 125.5,-134 197.5,-134 197.5,-85 125.5,-85"/>
</a>
</g>
</g>
<!-- Node3&#45;&gt;Node1 -->
<g id="edge2_Node000001_Node000003" class="edge">
<title>Node3&#45;&gt;Node1</title>
<g id="a_edge2_Node000001_Node000003"><a xlink:title=" ">
<path fill="none" stroke="#63b8ff" d="M140.66,-76.47C134.74,-67.37 128.4,-57.63 122.87,-49.12"/>
<polygon fill="none" stroke="#63b8ff" points="137.78,-78.46 146.17,-84.94 143.65,-74.65 137.78,-78.46"/>
</a>
</g>
</g>
</g>
</svg>
</svg>

<style type='text/css'>
<![CDATA[
[data-mouse-over-selected='false'] { opacity: 0.7; }
[data-mouse-over-selected='true']  { opacity: 1.0; }
]]>
</style>
<script type="application/ecmascript"><![CDATA[
document.addEventListener('DOMContentLoaded', (event) => {
  highlightEdges();
  highlightAdjacentNodes();
});
]]></script>
</svg>
