<?xml version="1.0" encoding="UTF-8" standalone="no"?>
<!DOCTYPE svg PUBLIC "-//W3C//DTD SVG 1.1//EN"
 "http://www.w3.org/Graphics/SVG/1.1/DTD/svg11.dtd">
<!-- Generated by graphviz version 2.43.0 (0)
 -->
<!-- Title: SnapshotInMemoryOutput Pages: 1 -->
<svg width="152pt" height="392pt"
 viewBox="0.00 0.00 152.00 392.00" xmlns="http://www.w3.org/2000/svg" xmlns:xlink="http://www.w3.org/1999/xlink">
<g id="graph0" class="graph" transform="scale(1 1) rotate(0) translate(4 388)">
<title>SnapshotInMemoryOutput</title>
<polygon fill="white" stroke="transparent" points="-4,4 -4,-388 148,-388 148,4 -4,4"/>
<!-- Node1 -->
<g id="node1" class="node">
<title>Node1</title>
<g id="a_node1"><a xlink:title="Implements Snapshot output operations in memory.">
<polygon fill="#bfbfbf" stroke="black" points="0,-0.5 0,-57.5 144,-57.5 144,-0.5 0,-0.5"/>
<text text-anchor="middle" x="72" y="-45.5" font-family="Helvetica,sans-Serif" font-size="10.00">SnapshotInMemoryOutput</text>
<polyline fill="none" stroke="black" points="0,-38.5 144,-38.5 "/>
<text text-anchor="middle" x="72" y="-26.5" font-family="Helvetica,sans-Serif" font-size="10.00"> </text>
<polyline fill="none" stroke="black" points="0,-19.5 144,-19.5 "/>
<text text-anchor="middle" x="72" y="-7.5" font-family="Helvetica,sans-Serif" font-size="10.00"> </text>
</a>
</g>
</g>
<!-- Node2 -->
<g id="node2" class="node">
<title>Node2</title>
<g id="a_node2"><a xlink:href="classpython__scripts_1_1checkpoint_1_1SnapshotInMemoryIO_1_1SnapshotInMemoryIO.html" target="_top" xlink:title="Base class for Snapshot input/output operations in memory.">
<polygon fill="white" stroke="black" points="0,-94.5 0,-195.5 144,-195.5 144,-94.5 0,-94.5"/>
<text text-anchor="middle" x="72" y="-183.5" font-family="Helvetica,sans-Serif" font-size="10.00">SnapshotInMemoryIO</text>
<polyline fill="none" stroke="black" points="0,-176.5 144,-176.5 "/>
<text text-anchor="middle" x="72" y="-164.5" font-family="Helvetica,sans-Serif" font-size="10.00"> </text>
<polyline fill="none" stroke="black" points="0,-157.5 144,-157.5 "/>
<text text-anchor="start" x="8" y="-145.5" font-family="Helvetica,sans-Serif" font-size="10.00">+ Erase()</text>
<text text-anchor="start" x="8" y="-134.5" font-family="Helvetica,sans-Serif" font-size="10.00">+ Exists()</text>
<text text-anchor="start" x="8" y="-123.5" font-family="Helvetica,sans-Serif" font-size="10.00">+ Glob()</text>
<text text-anchor="start" x="8" y="-112.5" font-family="Helvetica,sans-Serif" font-size="10.00">+ Clear()</text>
<text text-anchor="start" x="8" y="-101.5" font-family="Helvetica,sans-Serif" font-size="10.00">+ GetDefaultParameters()</text>
</a>
</g>
</g>
<!-- Node2&#45;&gt;Node1 -->
<g id="edge1" class="edge">
<title>Node2&#45;&gt;Node1</title>
<path fill="none" stroke="midnightblue" d="M72,-84.23C72,-74.92 72,-65.71 72,-57.59"/>
<polygon fill="none" stroke="midnightblue" points="68.5,-84.33 72,-94.33 75.5,-84.33 68.5,-84.33"/>
</g>
<!-- Node3 -->
<g id="node3" class="node">
<title>Node3</title>
<g id="a_node3"><a xlink:href="classpython__scripts_1_1checkpoint_1_1SnapshotIO_1_1SnapshotIO.html" target="_top" xlink:title="Interface for performing Snapshot input/output operations.">
<polygon fill="white" stroke="black" points="0,-232.5 0,-289.5 144,-289.5 144,-232.5 0,-232.5"/>
<text text-anchor="middle" x="72" y="-277.5" font-family="Helvetica,sans-Serif" font-size="10.00">SnapshotIO</text>
<polyline fill="none" stroke="black" points="0,-270.5 144,-270.5 "/>
<text text-anchor="middle" x="72" y="-258.5" font-family="Helvetica,sans-Serif" font-size="10.00"> </text>
<polyline fill="none" stroke="black" points="0,-251.5 144,-251.5 "/>
<text text-anchor="start" x="8" y="-239.5" font-family="Helvetica,sans-Serif" font-size="10.00">+ GetDefaultParameters()</text>
</a>
</g>
</g>
<!-- Node3&#45;&gt;Node2 -->
<g id="edge2" class="edge">
<title>Node3&#45;&gt;Node2</title>
<path fill="none" stroke="midnightblue" d="M72,-222.35C72,-213.8 72,-204.58 72,-195.61"/>
<polygon fill="none" stroke="midnightblue" points="68.5,-222.4 72,-232.4 75.5,-222.4 68.5,-222.4"/>
</g>
<!-- Node4 -->
<g id="node4" class="node">
<title>Node4</title>
<g id="a_node4"><a xlink:title=" ">
<polygon fill="white" stroke="#bfbfbf" points="33,-326.5 33,-383.5 111,-383.5 111,-326.5 33,-326.5"/>
<text text-anchor="middle" x="72" y="-371.5" font-family="Helvetica,sans-Serif" font-size="10.00">WRAppClass</text>
<polyline fill="none" stroke="#bfbfbf" points="33,-364.5 111,-364.5 "/>
<text text-anchor="middle" x="72" y="-352.5" font-family="Helvetica,sans-Serif" font-size="10.00"> </text>
<polyline fill="none" stroke="#bfbfbf" points="33,-345.5 111,-345.5 "/>
<text text-anchor="middle" x="72" y="-333.5" font-family="Helvetica,sans-Serif" font-size="10.00"> </text>
</a>
</g>
</g>
<!-- Node4&#45;&gt;Node3 -->
<g id="edge3" class="edge">
<title>Node4&#45;&gt;Node3</title>
<path fill="none" stroke="midnightblue" d="M72,-316.21C72,-307.29 72,-297.95 72,-289.58"/>
<polygon fill="none" stroke="midnightblue" points="68.5,-316.4 72,-326.4 75.5,-316.4 68.5,-316.4"/>
</g>
</g>
</svg>
