<?xml version="1.0" encoding="UTF-8" standalone="no"?>
<!DOCTYPE svg PUBLIC "-//W3C//DTD SVG 1.1//EN"
 "http://www.w3.org/Graphics/SVG/1.1/DTD/svg11.dtd">
<!-- Generated by graphviz version 2.43.0 (0)
 -->
<!-- Title: Attribute Pages: 1 -->
<svg width="288pt" height="254pt"
 viewBox="0.00 0.00 287.50 254.00" xmlns="http://www.w3.org/2000/svg" xmlns:xlink="http://www.w3.org/1999/xlink">
<g id="graph0" class="graph" transform="scale(1 1) rotate(0) translate(4 250)">
<title>Attribute</title>
<polygon fill="white" stroke="transparent" points="-4,4 -4,-250 283.5,-250 283.5,4 -4,4"/>
<!-- Node1 -->
<g id="node1" class="node">
<title>Node1</title>
<g id="a_node1"><a xlink:title=" ">
<polygon fill="#bfbfbf" stroke="black" points="106.5,-94.5 106.5,-151.5 165.5,-151.5 165.5,-94.5 106.5,-94.5"/>
<text text-anchor="middle" x="136" y="-139.5" font-family="Helvetica,sans-Serif" font-size="10.00">Attribute</text>
<polyline fill="none" stroke="black" points="106.5,-132.5 165.5,-132.5 "/>
<text text-anchor="middle" x="136" y="-120.5" font-family="Helvetica,sans-Serif" font-size="10.00"> </text>
<polyline fill="none" stroke="black" points="106.5,-113.5 165.5,-113.5 "/>
<text text-anchor="middle" x="136" y="-101.5" font-family="Helvetica,sans-Serif" font-size="10.00"> </text>
</a>
</g>
</g>
<!-- Node3 -->
<g id="node3" class="node">
<title>Node3</title>
<g id="a_node3"><a xlink:href="classpython__scripts_1_1xdmf_1_1Attribute_1_1CellAttribute.html" target="_top" xlink:title=" ">
<polygon fill="white" stroke="black" points="0,-0.5 0,-57.5 78,-57.5 78,-0.5 0,-0.5"/>
<text text-anchor="middle" x="39" y="-45.5" font-family="Helvetica,sans-Serif" font-size="10.00">CellAttribute</text>
<polyline fill="none" stroke="black" points="0,-38.5 78,-38.5 "/>
<text text-anchor="middle" x="39" y="-26.5" font-family="Helvetica,sans-Serif" font-size="10.00"> </text>
<polyline fill="none" stroke="black" points="0,-19.5 78,-19.5 "/>
<text text-anchor="middle" x="39" y="-7.5" font-family="Helvetica,sans-Serif" font-size="10.00"> </text>
</a>
</g>
</g>
<!-- Node1&#45;&gt;Node3 -->
<g id="edge2" class="edge">
<title>Node1&#45;&gt;Node3</title>
<path fill="none" stroke="midnightblue" d="M99.51,-87.39C89.12,-77.54 77.96,-66.95 68.08,-57.58"/>
<polygon fill="none" stroke="midnightblue" points="97.23,-90.05 106.9,-94.4 102.05,-84.98 97.23,-90.05"/>
</g>
<!-- Node4 -->
<g id="node4" class="node">
<title>Node4</title>
<g id="a_node4"><a xlink:href="classpython__scripts_1_1xdmf_1_1Attribute_1_1GridAttribute.html" target="_top" xlink:title=" ">
<polygon fill="white" stroke="black" points="96,-0.5 96,-57.5 176,-57.5 176,-0.5 96,-0.5"/>
<text text-anchor="middle" x="136" y="-45.5" font-family="Helvetica,sans-Serif" font-size="10.00">GridAttribute</text>
<polyline fill="none" stroke="black" points="96,-38.5 176,-38.5 "/>
<text text-anchor="middle" x="136" y="-26.5" font-family="Helvetica,sans-Serif" font-size="10.00"> </text>
<polyline fill="none" stroke="black" points="96,-19.5 176,-19.5 "/>
<text text-anchor="middle" x="136" y="-7.5" font-family="Helvetica,sans-Serif" font-size="10.00"> </text>
</a>
</g>
</g>
<!-- Node1&#45;&gt;Node4 -->
<g id="edge3" class="edge">
<title>Node1&#45;&gt;Node4</title>
<path fill="none" stroke="midnightblue" d="M136,-84.21C136,-75.29 136,-65.95 136,-57.58"/>
<polygon fill="none" stroke="midnightblue" points="132.5,-84.4 136,-94.4 139.5,-84.4 132.5,-84.4"/>
</g>
<!-- Node5 -->
<g id="node5" class="node">
<title>Node5</title>
<g id="a_node5"><a xlink:href="classpython__scripts_1_1xdmf_1_1Attribute_1_1NodeAttribute.html" target="_top" xlink:title=" ">
<polygon fill="white" stroke="black" points="194.5,-0.5 194.5,-57.5 279.5,-57.5 279.5,-0.5 194.5,-0.5"/>
<text text-anchor="middle" x="237" y="-45.5" font-family="Helvetica,sans-Serif" font-size="10.00">NodeAttribute</text>
<polyline fill="none" stroke="black" points="194.5,-38.5 279.5,-38.5 "/>
<text text-anchor="middle" x="237" y="-26.5" font-family="Helvetica,sans-Serif" font-size="10.00"> </text>
<polyline fill="none" stroke="black" points="194.5,-19.5 279.5,-19.5 "/>
<text text-anchor="middle" x="237" y="-7.5" font-family="Helvetica,sans-Serif" font-size="10.00"> </text>
</a>
</g>
</g>
<!-- Node1&#45;&gt;Node5 -->
<g id="edge4" class="edge">
<title>Node1&#45;&gt;Node5</title>
<path fill="none" stroke="midnightblue" d="M173.23,-88.09C184.27,-78.04 196.22,-67.15 206.76,-57.55"/>
<polygon fill="none" stroke="midnightblue" points="170.79,-85.57 165.76,-94.89 175.51,-90.75 170.79,-85.57"/>
</g>
<!-- Node2 -->
<g id="node2" class="node">
<title>Node2</title>
<g id="a_node2"><a xlink:title=" ">
<polygon fill="white" stroke="#bfbfbf" points="107.5,-188.5 107.5,-245.5 164.5,-245.5 164.5,-188.5 107.5,-188.5"/>
<text text-anchor="middle" x="136" y="-233.5" font-family="Helvetica,sans-Serif" font-size="10.00">Element</text>
<polyline fill="none" stroke="#bfbfbf" points="107.5,-226.5 164.5,-226.5 "/>
<text text-anchor="middle" x="136" y="-214.5" font-family="Helvetica,sans-Serif" font-size="10.00"> </text>
<polyline fill="none" stroke="#bfbfbf" points="107.5,-207.5 164.5,-207.5 "/>
<text text-anchor="middle" x="136" y="-195.5" font-family="Helvetica,sans-Serif" font-size="10.00"> </text>
</a>
</g>
</g>
<!-- Node2&#45;&gt;Node1 -->
<g id="edge1" class="edge">
<title>Node2&#45;&gt;Node1</title>
<path fill="none" stroke="midnightblue" d="M136,-178.21C136,-169.29 136,-159.95 136,-151.58"/>
<polygon fill="none" stroke="midnightblue" points="132.5,-178.4 136,-188.4 139.5,-178.4 132.5,-178.4"/>
</g>
</g>
</svg>
