<?xml version="1.0" encoding="UTF-8" standalone="no"?>
<!DOCTYPE svg PUBLIC "-//W3C//DTD SVG 1.1//EN"
 "http://www.w3.org/Graphics/SVG/1.1/DTD/svg11.dtd">
<!-- Generated by graphviz version 2.43.0 (0)
 -->
<!-- Title: Topology.Type Pages: 1 -->
<svg width="106pt" height="472pt"
 viewBox="0.00 0.00 106.00 472.00" xmlns="http://www.w3.org/2000/svg" xmlns:xlink="http://www.w3.org/1999/xlink">
<g id="graph0" class="graph" transform="scale(1 1) rotate(0) translate(4 468)">
<title>Topology.Type</title>
<!-- Node1 -->
<g id="Node000001" class="node">
<title>Node1</title>
<g id="a_Node000001"><a xlink:title=" ">
<polygon fill="#999999" stroke="transparent" points="98,-379 0,-379 0,0 98,0 98,-379"/>
<text text-anchor="start" x="15" y="-366.5" font-family="Helvetica,sans-Serif" font-size="10.00">Topology.Type</text>
<text text-anchor="start" x="4" y="-351.5" font-family="Helvetica,sans-Serif" font-size="10.00">+</text>
<text text-anchor="start" x="17" y="-351.5" font-family="Helvetica,sans-Serif" font-size="10.00">Mixed</text>
<text text-anchor="start" x="4" y="-336.5" font-family="Helvetica,sans-Serif" font-size="10.00">+</text>
<text text-anchor="start" x="17" y="-336.5" font-family="Helvetica,sans-Serif" font-size="10.00">Polyvertex</text>
<text text-anchor="start" x="4" y="-321.5" font-family="Helvetica,sans-Serif" font-size="10.00">+</text>
<text text-anchor="start" x="17" y="-321.5" font-family="Helvetica,sans-Serif" font-size="10.00">Polyline</text>
<text text-anchor="start" x="4" y="-306.5" font-family="Helvetica,sans-Serif" font-size="10.00">+</text>
<text text-anchor="start" x="17" y="-306.5" font-family="Helvetica,sans-Serif" font-size="10.00">Polygon</text>
<text text-anchor="start" x="4" y="-291.5" font-family="Helvetica,sans-Serif" font-size="10.00">+</text>
<text text-anchor="start" x="17" y="-291.5" font-family="Helvetica,sans-Serif" font-size="10.00">Triangle</text>
<text text-anchor="start" x="4" y="-276.5" font-family="Helvetica,sans-Serif" font-size="10.00">+</text>
<text text-anchor="start" x="17" y="-276.5" font-family="Helvetica,sans-Serif" font-size="10.00">Quadrilateral</text>
<text text-anchor="start" x="4" y="-261.5" font-family="Helvetica,sans-Serif" font-size="10.00">+</text>
<text text-anchor="start" x="17" y="-261.5" font-family="Helvetica,sans-Serif" font-size="10.00">Tetrahedron</text>
<text text-anchor="start" x="4" y="-246.5" font-family="Helvetica,sans-Serif" font-size="10.00">+</text>
<text text-anchor="start" x="17" y="-246.5" font-family="Helvetica,sans-Serif" font-size="10.00">Pyramid</text>
<text text-anchor="start" x="4" y="-231.5" font-family="Helvetica,sans-Serif" font-size="10.00">+</text>
<text text-anchor="start" x="17" y="-231.5" font-family="Helvetica,sans-Serif" font-size="10.00">Wedge</text>
<text text-anchor="start" x="4" y="-216.5" font-family="Helvetica,sans-Serif" font-size="10.00">+</text>
<text text-anchor="start" x="17" y="-216.5" font-family="Helvetica,sans-Serif" font-size="10.00">Hexahedron</text>
<text text-anchor="start" x="4" y="-201.5" font-family="Helvetica,sans-Serif" font-size="10.00">+</text>
<text text-anchor="start" x="17" y="-201.5" font-family="Helvetica,sans-Serif" font-size="10.00">Edge_3</text>
<text text-anchor="start" x="4" y="-186.5" font-family="Helvetica,sans-Serif" font-size="10.00">+</text>
<text text-anchor="start" x="17" y="-186.5" font-family="Helvetica,sans-Serif" font-size="10.00">Triangle_6</text>
<text text-anchor="start" x="4" y="-171.5" font-family="Helvetica,sans-Serif" font-size="10.00">+</text>
<text text-anchor="start" x="17" y="-171.5" font-family="Helvetica,sans-Serif" font-size="10.00">Quadrilateral_8</text>
<text text-anchor="start" x="4" y="-156.5" font-family="Helvetica,sans-Serif" font-size="10.00">+</text>
<text text-anchor="start" x="17" y="-156.5" font-family="Helvetica,sans-Serif" font-size="10.00">Tetrahedron_10</text>
<text text-anchor="start" x="4" y="-141.5" font-family="Helvetica,sans-Serif" font-size="10.00">+</text>
<text text-anchor="start" x="17" y="-141.5" font-family="Helvetica,sans-Serif" font-size="10.00">Pyramid_13</text>
<text text-anchor="start" x="4" y="-126.5" font-family="Helvetica,sans-Serif" font-size="10.00">+</text>
<text text-anchor="start" x="17" y="-126.5" font-family="Helvetica,sans-Serif" font-size="10.00">Wedge_15</text>
<text text-anchor="start" x="4" y="-111.5" font-family="Helvetica,sans-Serif" font-size="10.00">+</text>
<text text-anchor="start" x="17" y="-111.5" font-family="Helvetica,sans-Serif" font-size="10.00">Hexahedron_20</text>
<text text-anchor="start" x="4" y="-96.5" font-family="Helvetica,sans-Serif" font-size="10.00">+</text>
<text text-anchor="start" x="17" y="-96.5" font-family="Helvetica,sans-Serif" font-size="10.00">Mesh2DS</text>
<text text-anchor="start" x="4" y="-81.5" font-family="Helvetica,sans-Serif" font-size="10.00">+</text>
<text text-anchor="start" x="17" y="-81.5" font-family="Helvetica,sans-Serif" font-size="10.00">Mesh2DRect</text>
<text text-anchor="start" x="4" y="-66.5" font-family="Helvetica,sans-Serif" font-size="10.00">+</text>
<text text-anchor="start" x="17" y="-66.5" font-family="Helvetica,sans-Serif" font-size="10.00">Mesh2DCoRect</text>
<text text-anchor="start" x="4" y="-51.5" font-family="Helvetica,sans-Serif" font-size="10.00">+</text>
<text text-anchor="start" x="17" y="-51.5" font-family="Helvetica,sans-Serif" font-size="10.00">Mesh3DS</text>
<text text-anchor="start" x="4" y="-36.5" font-family="Helvetica,sans-Serif" font-size="10.00">+</text>
<text text-anchor="start" x="17" y="-36.5" font-family="Helvetica,sans-Serif" font-size="10.00">Mesh3DRect</text>
<text text-anchor="start" x="4" y="-21.5" font-family="Helvetica,sans-Serif" font-size="10.00">+</text>
<text text-anchor="start" x="17" y="-21.5" font-family="Helvetica,sans-Serif" font-size="10.00">Mesh3DCoRect</text>
<text text-anchor="start" x="47" y="-6.5" font-family="Helvetica,sans-Serif" font-size="10.00"> </text>
<polygon fill="#666666" stroke="#666666" points="0,-361.5 0,-361.5 98,-361.5 98,-361.5 0,-361.5"/>
<polygon fill="#666666" stroke="#666666" points="0,-16.5 0,-16.5 15,-16.5 15,-16.5 0,-16.5"/>
<polygon fill="#666666" stroke="#666666" points="15,-16.5 15,-16.5 98,-16.5 98,-16.5 15,-16.5"/>
<polygon fill="none" stroke="#666666" points="0,0 0,-379 98,-379 98,0 0,0"/>
</a>
</g>
</g>
<!-- Node2 -->
<g id="Node000002" class="node">
<title>Node2</title>
<g id="a_Node000002"><a xlink:title=" ">
<polygon fill="white" stroke="transparent" points="68,-464 30,-464 30,-415 68,-415 68,-464"/>
<text text-anchor="start" x="35" y="-451.5" font-family="Helvetica,sans-Serif" font-size="10.00">Enum</text>
<text text-anchor="start" x="47" y="-436.5" font-family="Helvetica,sans-Serif" font-size="10.00"> </text>
<text text-anchor="start" x="47" y="-421.5" font-family="Helvetica,sans-Serif" font-size="10.00"> </text>
<polygon fill="#666666" stroke="#666666" points="30,-446.5 30,-446.5 68,-446.5 68,-446.5 30,-446.5"/>
<polygon fill="#666666" stroke="#666666" points="30,-431.5 30,-431.5 68,-431.5 68,-431.5 30,-431.5"/>
<polygon fill="none" stroke="#666666" points="30,-415 30,-464 68,-464 68,-415 30,-415"/>
</a>
</g>
</g>
<!-- Node2&#45;&gt;Node1 -->
<g id="edge1_Node000001_Node000002" class="edge">
<title>Node2&#45;&gt;Node1</title>
<g id="a_edge1_Node000001_Node000002"><a xlink:title=" ">
<path fill="none" stroke="#63b8ff" d="M49,-404.61C49,-396.98 49,-388.34 49,-379.04"/>
<polygon fill="none" stroke="#63b8ff" points="45.5,-404.72 49,-414.72 52.5,-404.72 45.5,-404.72"/>
</a>
</g>
</g>
</g>
</svg>
