<?xml version="1.0" encoding="UTF-8" standalone="no"?>
<!DOCTYPE svg PUBLIC "-//W3C//DTD SVG 1.1//EN"
 "http://www.w3.org/Graphics/SVG/1.1/DTD/svg11.dtd">
<!-- Generated by graphviz version 2.43.0 (0)
 -->
<!-- Title: TimePoint Pages: 1 -->
<svg width="74pt" height="254pt"
 viewBox="0.00 0.00 74.00 254.00" xmlns="http://www.w3.org/2000/svg" xmlns:xlink="http://www.w3.org/1999/xlink">
<g id="graph0" class="graph" transform="scale(1 1) rotate(0) translate(4 250)">
<title>TimePoint</title>
<polygon fill="white" stroke="transparent" points="-4,4 -4,-250 70,-250 70,4 -4,4"/>
<!-- Node1 -->
<g id="node1" class="node">
<title>Node1</title>
<g id="a_node1"><a xlink:title=" ">
<polygon fill="#bfbfbf" stroke="black" points="0,-0.5 0,-57.5 66,-57.5 66,-0.5 0,-0.5"/>
<text text-anchor="middle" x="33" y="-45.5" font-family="Helvetica,sans-Serif" font-size="10.00">TimePoint</text>
<polyline fill="none" stroke="black" points="0,-38.5 66,-38.5 "/>
<text text-anchor="middle" x="33" y="-26.5" font-family="Helvetica,sans-Serif" font-size="10.00"> </text>
<polyline fill="none" stroke="black" points="0,-19.5 66,-19.5 "/>
<text text-anchor="middle" x="33" y="-7.5" font-family="Helvetica,sans-Serif" font-size="10.00"> </text>
</a>
</g>
</g>
<!-- Node2 -->
<g id="node2" class="node">
<title>Node2</title>
<g id="a_node2"><a xlink:href="classpython__scripts_1_1xdmf_1_1Time_1_1Time.html" target="_top" xlink:title=" ">
<polygon fill="white" stroke="black" points="12.5,-94.5 12.5,-151.5 53.5,-151.5 53.5,-94.5 12.5,-94.5"/>
<text text-anchor="middle" x="33" y="-139.5" font-family="Helvetica,sans-Serif" font-size="10.00">Time</text>
<polyline fill="none" stroke="black" points="12.5,-132.5 53.5,-132.5 "/>
<text text-anchor="middle" x="33" y="-120.5" font-family="Helvetica,sans-Serif" font-size="10.00"> </text>
<polyline fill="none" stroke="black" points="12.5,-113.5 53.5,-113.5 "/>
<text text-anchor="middle" x="33" y="-101.5" font-family="Helvetica,sans-Serif" font-size="10.00"> </text>
</a>
</g>
</g>
<!-- Node2&#45;&gt;Node1 -->
<g id="edge1" class="edge">
<title>Node2&#45;&gt;Node1</title>
<path fill="none" stroke="midnightblue" d="M33,-84.21C33,-75.29 33,-65.95 33,-57.58"/>
<polygon fill="none" stroke="midnightblue" points="29.5,-84.4 33,-94.4 36.5,-84.4 29.5,-84.4"/>
</g>
<!-- Node3 -->
<g id="node3" class="node">
<title>Node3</title>
<g id="a_node3"><a xlink:title=" ">
<polygon fill="white" stroke="#bfbfbf" points="4.5,-188.5 4.5,-245.5 61.5,-245.5 61.5,-188.5 4.5,-188.5"/>
<text text-anchor="middle" x="33" y="-233.5" font-family="Helvetica,sans-Serif" font-size="10.00">Element</text>
<polyline fill="none" stroke="#bfbfbf" points="4.5,-226.5 61.5,-226.5 "/>
<text text-anchor="middle" x="33" y="-214.5" font-family="Helvetica,sans-Serif" font-size="10.00"> </text>
<polyline fill="none" stroke="#bfbfbf" points="4.5,-207.5 61.5,-207.5 "/>
<text text-anchor="middle" x="33" y="-195.5" font-family="Helvetica,sans-Serif" font-size="10.00"> </text>
</a>
</g>
</g>
<!-- Node3&#45;&gt;Node2 -->
<g id="edge2" class="edge">
<title>Node3&#45;&gt;Node2</title>
<path fill="none" stroke="midnightblue" d="M33,-178.21C33,-169.29 33,-159.95 33,-151.58"/>
<polygon fill="none" stroke="midnightblue" points="29.5,-178.4 33,-188.4 36.5,-178.4 29.5,-178.4"/>
</g>
</g>
</svg>
