<?xml version="1.0" encoding="UTF-8" standalone="no"?>
<!DOCTYPE svg PUBLIC "-//W3C//DTD SVG 1.1//EN"
 "http://www.w3.org/Graphics/SVG/1.1/DTD/svg11.dtd">
<!-- Generated by graphviz version 2.43.0 (0)
 -->
<!-- Title: Grid Pages: 1 -->
<svg width="362pt" height="254pt"
 viewBox="0.00 0.00 361.50 254.00" xmlns="http://www.w3.org/2000/svg" xmlns:xlink="http://www.w3.org/1999/xlink">
<g id="graph0" class="graph" transform="scale(1 1) rotate(0) translate(4 250)">
<title>Grid</title>
<polygon fill="white" stroke="transparent" points="-4,4 -4,-250 357.5,-250 357.5,4 -4,4"/>
<!-- Node1 -->
<g id="node1" class="node">
<title>Node1</title>
<g id="a_node1"><a xlink:title=" ">
<polygon fill="#bfbfbf" stroke="black" points="165.5,-94.5 165.5,-151.5 202.5,-151.5 202.5,-94.5 165.5,-94.5"/>
<text text-anchor="middle" x="184" y="-139.5" font-family="Helvetica,sans-Serif" font-size="10.00">Grid</text>
<polyline fill="none" stroke="black" points="165.5,-132.5 202.5,-132.5 "/>
<text text-anchor="middle" x="184" y="-120.5" font-family="Helvetica,sans-Serif" font-size="10.00"> </text>
<polyline fill="none" stroke="black" points="165.5,-113.5 202.5,-113.5 "/>
<text text-anchor="middle" x="184" y="-101.5" font-family="Helvetica,sans-Serif" font-size="10.00"> </text>
</a>
</g>
</g>
<!-- Node3 -->
<g id="node3" class="node">
<title>Node3</title>
<g id="a_node3"><a xlink:href="classpython__scripts_1_1xdmf_1_1Grid_1_1GridCollection.html" target="_top" xlink:title=" ">
<polygon fill="white" stroke="black" points="0,-0.5 0,-57.5 86,-57.5 86,-0.5 0,-0.5"/>
<text text-anchor="middle" x="43" y="-45.5" font-family="Helvetica,sans-Serif" font-size="10.00">GridCollection</text>
<polyline fill="none" stroke="black" points="0,-38.5 86,-38.5 "/>
<text text-anchor="middle" x="43" y="-26.5" font-family="Helvetica,sans-Serif" font-size="10.00"> </text>
<polyline fill="none" stroke="black" points="0,-19.5 86,-19.5 "/>
<text text-anchor="start" x="8" y="-7.5" font-family="Helvetica,sans-Serif" font-size="10.00">+ append()</text>
</a>
</g>
</g>
<!-- Node1&#45;&gt;Node3 -->
<g id="edge2" class="edge">
<title>Node1&#45;&gt;Node3</title>
<path fill="none" stroke="midnightblue" d="M156.83,-104.27C136.56,-91.04 108.48,-72.72 85.28,-57.59"/>
<polygon fill="none" stroke="midnightblue" points="154.99,-107.25 165.28,-109.78 158.81,-101.39 154.99,-107.25"/>
</g>
<!-- Node4 -->
<g id="node4" class="node">
<title>Node4</title>
<g id="a_node4"><a xlink:href="classpython__scripts_1_1xdmf_1_1Grid_1_1GridLeaf.html" target="_top" xlink:title=" ">
<polygon fill="white" stroke="black" points="104.5,-0.5 104.5,-57.5 175.5,-57.5 175.5,-0.5 104.5,-0.5"/>
<text text-anchor="middle" x="140" y="-45.5" font-family="Helvetica,sans-Serif" font-size="10.00">GridLeaf</text>
<polyline fill="none" stroke="black" points="104.5,-38.5 175.5,-38.5 "/>
<text text-anchor="middle" x="140" y="-26.5" font-family="Helvetica,sans-Serif" font-size="10.00"> </text>
<polyline fill="none" stroke="black" points="104.5,-19.5 175.5,-19.5 "/>
<text text-anchor="start" x="112.5" y="-7.5" font-family="Helvetica,sans-Serif" font-size="10.00">+ append()</text>
</a>
</g>
</g>
<!-- Node1&#45;&gt;Node4 -->
<g id="edge3" class="edge">
<title>Node1&#45;&gt;Node4</title>
<path fill="none" stroke="midnightblue" d="M166.48,-85.37C162.05,-76.11 157.37,-66.32 153.19,-57.58"/>
<polygon fill="none" stroke="midnightblue" points="163.33,-86.89 170.8,-94.4 169.64,-83.87 163.33,-86.89"/>
</g>
<!-- Node5 -->
<g id="node5" class="node">
<title>Node5</title>
<g id="a_node5"><a xlink:href="classpython__scripts_1_1xdmf_1_1Grid_1_1GridSubset.html" target="_top" xlink:title=" ">
<polygon fill="white" stroke="black" points="193.5,-0.5 193.5,-57.5 264.5,-57.5 264.5,-0.5 193.5,-0.5"/>
<text text-anchor="middle" x="229" y="-45.5" font-family="Helvetica,sans-Serif" font-size="10.00">GridSubset</text>
<polyline fill="none" stroke="black" points="193.5,-38.5 264.5,-38.5 "/>
<text text-anchor="middle" x="229" y="-26.5" font-family="Helvetica,sans-Serif" font-size="10.00"> </text>
<polyline fill="none" stroke="black" points="193.5,-19.5 264.5,-19.5 "/>
<text text-anchor="start" x="201.5" y="-7.5" font-family="Helvetica,sans-Serif" font-size="10.00">+ append()</text>
</a>
</g>
</g>
<!-- Node1&#45;&gt;Node5 -->
<g id="edge4" class="edge">
<title>Node1&#45;&gt;Node5</title>
<path fill="none" stroke="midnightblue" d="M201.92,-85.37C206.45,-76.11 211.24,-66.32 215.51,-57.58"/>
<polygon fill="none" stroke="midnightblue" points="198.75,-83.88 197.5,-94.4 205.04,-86.95 198.75,-83.88"/>
</g>
<!-- Node6 -->
<g id="node6" class="node">
<title>Node6</title>
<g id="a_node6"><a xlink:href="classpython__scripts_1_1xdmf_1_1Grid_1_1GridTree.html" target="_top" xlink:title=" ">
<polygon fill="white" stroke="black" points="282.5,-0.5 282.5,-57.5 353.5,-57.5 353.5,-0.5 282.5,-0.5"/>
<text text-anchor="middle" x="318" y="-45.5" font-family="Helvetica,sans-Serif" font-size="10.00">GridTree</text>
<polyline fill="none" stroke="black" points="282.5,-38.5 353.5,-38.5 "/>
<text text-anchor="middle" x="318" y="-26.5" font-family="Helvetica,sans-Serif" font-size="10.00"> </text>
<polyline fill="none" stroke="black" points="282.5,-19.5 353.5,-19.5 "/>
<text text-anchor="start" x="290.5" y="-7.5" font-family="Helvetica,sans-Serif" font-size="10.00">+ append()</text>
</a>
</g>
</g>
<!-- Node1&#45;&gt;Node6 -->
<g id="edge5" class="edge">
<title>Node1&#45;&gt;Node6</title>
<path fill="none" stroke="midnightblue" d="M210.91,-103.52C231.47,-89.41 259.99,-69.83 282.43,-54.42"/>
<polygon fill="none" stroke="midnightblue" points="208.9,-100.66 202.63,-109.21 212.86,-106.43 208.9,-100.66"/>
</g>
<!-- Node2 -->
<g id="node2" class="node">
<title>Node2</title>
<g id="a_node2"><a xlink:title=" ">
<polygon fill="white" stroke="#bfbfbf" points="155.5,-188.5 155.5,-245.5 212.5,-245.5 212.5,-188.5 155.5,-188.5"/>
<text text-anchor="middle" x="184" y="-233.5" font-family="Helvetica,sans-Serif" font-size="10.00">Element</text>
<polyline fill="none" stroke="#bfbfbf" points="155.5,-226.5 212.5,-226.5 "/>
<text text-anchor="middle" x="184" y="-214.5" font-family="Helvetica,sans-Serif" font-size="10.00"> </text>
<polyline fill="none" stroke="#bfbfbf" points="155.5,-207.5 212.5,-207.5 "/>
<text text-anchor="middle" x="184" y="-195.5" font-family="Helvetica,sans-Serif" font-size="10.00"> </text>
</a>
</g>
</g>
<!-- Node2&#45;&gt;Node1 -->
<g id="edge1" class="edge">
<title>Node2&#45;&gt;Node1</title>
<path fill="none" stroke="midnightblue" d="M184,-178.21C184,-169.29 184,-159.95 184,-151.58"/>
<polygon fill="none" stroke="midnightblue" points="180.5,-178.4 184,-188.4 187.5,-178.4 180.5,-178.4"/>
</g>
</g>
</svg>
