<?xml version="1.0" encoding="UTF-8" standalone="no"?>
<!DOCTYPE svg PUBLIC "-//W3C//DTD SVG 1.1//EN"
 "http://www.w3.org/Graphics/SVG/1.1/DTD/svg11.dtd">
<!-- Generated by graphviz version 2.43.0 (0)
 -->
<!-- Title: CompoundPipe&lt; TInputPipe, TOutputPipe &gt; Pages: 1 -->
<svg width="164pt" height="270pt"
 viewBox="0.00 0.00 164.00 270.00" xmlns="http://www.w3.org/2000/svg" xmlns:xlink="http://www.w3.org/1999/xlink">
<g id="graph0" class="graph" transform="scale(1 1) rotate(0) translate(4 266)">
<title>CompoundPipe&lt; TInputPipe, TOutputPipe &gt;</title>
<polygon fill="white" stroke="transparent" points="-4,4 -4,-266 160,-266 160,4 -4,4"/>
<!-- Node1 -->
<g id="node1" class="node">
<title>Node1</title>
<g id="a_node1"><a xlink:title="A composable pipe that takes the output of one pipe and feeds its result into another.">
<polygon fill="#bfbfbf" stroke="black" points="0,-0.5 0,-145.5 156,-145.5 156,-0.5 0,-0.5"/>
<text text-anchor="start" x="8" y="-133.5" font-family="Helvetica,sans-Serif" font-size="10.00">CompoundPipe&lt; TInputPipe,</text>
<text text-anchor="middle" x="78" y="-122.5" font-family="Helvetica,sans-Serif" font-size="10.00"> TOutputPipe &gt;</text>
<polyline fill="none" stroke="black" points="0,-115.5 156,-115.5 "/>
<text text-anchor="middle" x="78" y="-103.5" font-family="Helvetica,sans-Serif" font-size="10.00"> </text>
<polyline fill="none" stroke="black" points="0,-96.5 156,-96.5 "/>
<text text-anchor="start" x="8" y="-84.5" font-family="Helvetica,sans-Serif" font-size="10.00">+ CompoundPipe()</text>
<text text-anchor="start" x="8" y="-73.5" font-family="Helvetica,sans-Serif" font-size="10.00">+ CompoundPipe()</text>
<text text-anchor="start" x="8" y="-62.5" font-family="Helvetica,sans-Serif" font-size="10.00">+ CompoundPipe()</text>
<text text-anchor="start" x="8" y="-51.5" font-family="Helvetica,sans-Serif" font-size="10.00">+ CompoundPipe()</text>
<text text-anchor="start" x="8" y="-40.5" font-family="Helvetica,sans-Serif" font-size="10.00">+ CompoundPipe()</text>
<text text-anchor="start" x="8" y="-29.5" font-family="Helvetica,sans-Serif" font-size="10.00">+ CompoundPipe()</text>
<text text-anchor="start" x="8" y="-18.5" font-family="Helvetica,sans-Serif" font-size="10.00">+ operator()()</text>
<text text-anchor="start" x="8" y="-7.5" font-family="Helvetica,sans-Serif" font-size="10.00">+ GetDefaultParameters()</text>
</a>
</g>
</g>
<!-- Node2 -->
<g id="node2" class="node">
<title>Node2</title>
<g id="a_node2"><a xlink:href="structKratos_1_1Pipes_1_1Traits.html" target="_top" xlink:title=" ">
<polygon fill="white" stroke="black" points="10,-182.5 10,-261.5 146,-261.5 146,-182.5 10,-182.5"/>
<text text-anchor="start" x="18" y="-249.5" font-family="Helvetica,sans-Serif" font-size="10.00">Traits&lt; TInputPipe</text>
<text text-anchor="start" x="18" y="-238.5" font-family="Helvetica,sans-Serif" font-size="10.00">::InputType, TOutputPipe</text>
<text text-anchor="middle" x="78" y="-227.5" font-family="Helvetica,sans-Serif" font-size="10.00">::OutputType &gt;</text>
<polyline fill="none" stroke="black" points="10,-220.5 146,-220.5 "/>
<text text-anchor="middle" x="78" y="-208.5" font-family="Helvetica,sans-Serif" font-size="10.00"> </text>
<polyline fill="none" stroke="black" points="10,-201.5 146,-201.5 "/>
<text text-anchor="middle" x="78" y="-189.5" font-family="Helvetica,sans-Serif" font-size="10.00"> </text>
</a>
</g>
</g>
<!-- Node2&#45;&gt;Node1 -->
<g id="edge1" class="edge">
<title>Node2&#45;&gt;Node1</title>
<path fill="none" stroke="midnightblue" d="M78,-172.24C78,-163.7 78,-154.65 78,-145.64"/>
<polygon fill="none" stroke="midnightblue" points="74.5,-172.38 78,-182.38 81.5,-172.38 74.5,-172.38"/>
</g>
</g>
</svg>
