<?xml version="1.0" encoding="UTF-8" standalone="no"?>
<!DOCTYPE svg PUBLIC "-//W3C//DTD SVG 1.1//EN"
 "http://www.w3.org/Graphics/SVG/1.1/DTD/svg11.dtd">
<!-- Generated by graphviz version 2.43.0 (0)
 -->
<!-- Title: DatasetTransform Pages: 1 -->
<svg width="323pt" height="227pt"
 viewBox="0.00 0.00 323.00 227.00" xmlns="http://www.w3.org/2000/svg" xmlns:xlink="http://www.w3.org/1999/xlink">
<g id="graph0" class="graph" transform="scale(1 1) rotate(0) translate(4 223)">
<title>DatasetTransform</title>
<!-- Node1 -->
<g id="Node000001" class="node">
<title>Node1</title>
<g id="a_Node000001"><a xlink:title="Fetch, transform and assign data between ModelPart s.">
<polygon fill="#999999" stroke="transparent" points="185.5,-134 87.5,-134 87.5,-85 185.5,-85 185.5,-134"/>
<text text-anchor="start" x="92.5" y="-121.5" font-family="Helvetica,sans-Serif" font-size="10.00">DatasetTransform</text>
<text text-anchor="start" x="134.5" y="-106.5" font-family="Helvetica,sans-Serif" font-size="10.00"> </text>
<text text-anchor="start" x="134.5" y="-91.5" font-family="Helvetica,sans-Serif" font-size="10.00"> </text>
<polygon fill="#666666" stroke="#666666" points="87.5,-116.5 87.5,-116.5 185.5,-116.5 185.5,-116.5 87.5,-116.5"/>
<polygon fill="#666666" stroke="#666666" points="87.5,-101.5 87.5,-101.5 185.5,-101.5 185.5,-101.5 87.5,-101.5"/>
<polygon fill="none" stroke="#666666" points="87.5,-85 87.5,-134 185.5,-134 185.5,-85 87.5,-85"/>
</a>
</g>
</g>
<!-- Node5 -->
<g id="Node000005" class="node">
<title>Node5</title>
<g id="a_Node000005"><a xlink:href="classDatasetLookup.html" target="_top" xlink:title="Store, retrieve, and interpolate datasets.">
<polygon fill="white" stroke="transparent" points="83,-49 0,-49 0,0 83,0 83,-49"/>
<text text-anchor="start" x="5.5" y="-36.5" font-family="Helvetica,sans-Serif" font-size="10.00">DatasetLookup</text>
<text text-anchor="start" x="40" y="-21.5" font-family="Helvetica,sans-Serif" font-size="10.00"> </text>
<text text-anchor="start" x="40" y="-6.5" font-family="Helvetica,sans-Serif" font-size="10.00"> </text>
<polygon fill="#666666" stroke="#666666" points="0.5,-31.5 0.5,-31.5 83.5,-31.5 83.5,-31.5 0.5,-31.5"/>
<polygon fill="#666666" stroke="#666666" points="0.5,-16.5 0.5,-16.5 83.5,-16.5 83.5,-16.5 0.5,-16.5"/>
<polygon fill="none" stroke="#666666" points="0,0 0,-49 83,-49 83,0 0,0"/>
</a>
</g>
</g>
<!-- Node1&#45;&gt;Node5 -->
<g id="edge4_Node000001_Node000005" class="edge">
<title>Node1&#45;&gt;Node5</title>
<g id="a_edge4_Node000001_Node000005"><a xlink:title=" ">
<path fill="none" stroke="#63b8ff" d="M101.76,-78.15C90.81,-68.58 78.87,-58.15 68.54,-49.12"/>
<polygon fill="none" stroke="#63b8ff" points="99.7,-80.99 109.53,-84.94 104.3,-75.72 99.7,-80.99"/>
</a>
</g>
</g>
<!-- Node6 -->
<g id="Node000006" class="node">
<title>Node6</title>
<g id="a_Node000006"><a xlink:href="classDatasetMap.html" target="_top" xlink:title="DatasetTransform that uses a Mapper to map datasets before assigning them to the target ModelPart.">
<polygon fill="white" stroke="transparent" points="171.5,-49 101.5,-49 101.5,0 171.5,0 171.5,-49"/>
<text text-anchor="start" x="106.5" y="-36.5" font-family="Helvetica,sans-Serif" font-size="10.00">DatasetMap</text>
<text text-anchor="start" x="134.5" y="-21.5" font-family="Helvetica,sans-Serif" font-size="10.00"> </text>
<text text-anchor="start" x="134.5" y="-6.5" font-family="Helvetica,sans-Serif" font-size="10.00"> </text>
<polygon fill="#666666" stroke="#666666" points="101.5,-31.5 101.5,-31.5 171.5,-31.5 171.5,-31.5 101.5,-31.5"/>
<polygon fill="#666666" stroke="#666666" points="101.5,-16.5 101.5,-16.5 171.5,-16.5 171.5,-16.5 101.5,-16.5"/>
<polygon fill="none" stroke="#666666" points="101.5,0 101.5,-49 171.5,-49 171.5,0 101.5,0"/>
</a>
</g>
</g>
<!-- Node1&#45;&gt;Node6 -->
<g id="edge5_Node000001_Node000006" class="edge">
<title>Node1&#45;&gt;Node6</title>
<g id="a_edge5_Node000001_Node000006"><a xlink:title=" ">
<path fill="none" stroke="#63b8ff" d="M136.5,-74.77C136.5,-66.17 136.5,-57.1 136.5,-49.12"/>
<polygon fill="none" stroke="#63b8ff" points="133,-74.94 136.5,-84.94 140,-74.94 133,-74.94"/>
</a>
</g>
</g>
<!-- Node7 -->
<g id="Node000007" class="node">
<title>Node7</title>
<g id="a_Node000007"><a xlink:href="classNoOpDatasetTransform.html" target="_top" xlink:title="DatasetTransform that directly assigns fetched datasets without doing anything to them.">
<polygon fill="white" stroke="transparent" points="315,-49 190,-49 190,0 315,0 315,-49"/>
<text text-anchor="start" x="195.5" y="-36.5" font-family="Helvetica,sans-Serif" font-size="10.00">NoOpDatasetTransform</text>
<text text-anchor="start" x="251" y="-21.5" font-family="Helvetica,sans-Serif" font-size="10.00"> </text>
<text text-anchor="start" x="251" y="-6.5" font-family="Helvetica,sans-Serif" font-size="10.00"> </text>
<polygon fill="#666666" stroke="#666666" points="190.5,-31.5 190.5,-31.5 315.5,-31.5 315.5,-31.5 190.5,-31.5"/>
<polygon fill="#666666" stroke="#666666" points="190.5,-16.5 190.5,-16.5 315.5,-16.5 315.5,-16.5 190.5,-16.5"/>
<polygon fill="none" stroke="#666666" points="190,0 190,-49 315,-49 315,0 190,0"/>
</a>
</g>
</g>
<!-- Node1&#45;&gt;Node7 -->
<g id="edge6_Node000001_Node000007" class="edge">
<title>Node1&#45;&gt;Node7</title>
<g id="a_edge6_Node000001_Node000007"><a xlink:title=" ">
<path fill="none" stroke="#63b8ff" d="M177.75,-78.99C191.44,-69.19 206.5,-58.41 219.49,-49.12"/>
<polygon fill="none" stroke="#63b8ff" points="175.53,-76.27 169.43,-84.94 179.6,-81.96 175.53,-76.27"/>
</a>
</g>
</g>
<!-- Node2 -->
<g id="Node000002" class="node">
<title>Node2</title>
<g id="a_Node000002"><a xlink:title=" ">
<polygon fill="white" stroke="transparent" points="88.5,-219 16.5,-219 16.5,-170 88.5,-170 88.5,-219"/>
<text text-anchor="start" x="21.5" y="-206.5" font-family="Helvetica,sans-Serif" font-size="10.00">WRAppClass</text>
<text text-anchor="start" x="50.5" y="-191.5" font-family="Helvetica,sans-Serif" font-size="10.00"> </text>
<text text-anchor="start" x="50.5" y="-176.5" font-family="Helvetica,sans-Serif" font-size="10.00"> </text>
<polygon fill="#666666" stroke="#666666" points="16.5,-201.5 16.5,-201.5 88.5,-201.5 88.5,-201.5 16.5,-201.5"/>
<polygon fill="#666666" stroke="#666666" points="16.5,-186.5 16.5,-186.5 88.5,-186.5 88.5,-186.5 16.5,-186.5"/>
<polygon fill="none" stroke="#666666" points="16.5,-170 16.5,-219 88.5,-219 88.5,-170 16.5,-170"/>
</a>
</g>
</g>
<!-- Node2&#45;&gt;Node1 -->
<g id="edge1_Node000001_Node000002" class="edge">
<title>Node2&#45;&gt;Node1</title>
<g id="a_edge1_Node000001_Node000002"><a xlink:title=" ">
<path fill="none" stroke="#63b8ff" d="M83.5,-162.87C93.11,-153.38 103.54,-143.06 112.59,-134.12"/>
<polygon fill="none" stroke="#63b8ff" points="81,-160.42 76.35,-169.94 85.92,-165.4 81,-160.42"/>
</a>
</g>
</g>
<!-- Node3 -->
<g id="Node000003" class="node">
<title>Node3</title>
<g id="a_Node000003"><a xlink:title=" ">
<polygon fill="white" stroke="transparent" points="166,-219 107,-219 107,-170 166,-170 166,-219"/>
<text text-anchor="start" x="112.5" y="-206.5" font-family="Helvetica,sans-Serif" font-size="10.00">Operation</text>
<text text-anchor="start" x="135" y="-191.5" font-family="Helvetica,sans-Serif" font-size="10.00"> </text>
<text text-anchor="start" x="135" y="-176.5" font-family="Helvetica,sans-Serif" font-size="10.00"> </text>
<polygon fill="#666666" stroke="#666666" points="107.5,-201.5 107.5,-201.5 166.5,-201.5 166.5,-201.5 107.5,-201.5"/>
<polygon fill="#666666" stroke="#666666" points="107.5,-186.5 107.5,-186.5 166.5,-186.5 166.5,-186.5 107.5,-186.5"/>
<polygon fill="none" stroke="#666666" points="107,-170 107,-219 166,-219 166,-170 107,-170"/>
</a>
</g>
</g>
<!-- Node3&#45;&gt;Node1 -->
<g id="edge2_Node000001_Node000003" class="edge">
<title>Node3&#45;&gt;Node1</title>
<g id="a_edge2_Node000001_Node000003"><a xlink:title=" ">
<path fill="none" stroke="#63b8ff" d="M136.5,-159.77C136.5,-151.17 136.5,-142.1 136.5,-134.12"/>
<polygon fill="none" stroke="#63b8ff" points="133,-159.94 136.5,-169.94 140,-159.94 133,-159.94"/>
</a>
</g>
</g>
<!-- Node4 -->
<g id="Node000004" class="node">
<title>Node4</title>
<g id="a_Node000004"><a xlink:title=" ">
<polygon fill="white" stroke="transparent" points="215,-219 184,-219 184,-170 215,-170 215,-219"/>
<text text-anchor="start" x="189.5" y="-206.5" font-family="Helvetica,sans-Serif" font-size="10.00">ABC</text>
<text text-anchor="start" x="198" y="-191.5" font-family="Helvetica,sans-Serif" font-size="10.00"> </text>
<text text-anchor="start" x="198" y="-176.5" font-family="Helvetica,sans-Serif" font-size="10.00"> </text>
<polygon fill="#666666" stroke="#666666" points="184.5,-201.5 184.5,-201.5 215.5,-201.5 215.5,-201.5 184.5,-201.5"/>
<polygon fill="#666666" stroke="#666666" points="184.5,-186.5 184.5,-186.5 215.5,-186.5 215.5,-186.5 184.5,-186.5"/>
<polygon fill="none" stroke="#666666" points="184,-170 184,-219 215,-219 215,-170 184,-170"/>
</a>
</g>
</g>
<!-- Node4&#45;&gt;Node1 -->
<g id="edge3_Node000001_Node000004" class="edge">
<title>Node4&#45;&gt;Node1</title>
<g id="a_edge3_Node000001_Node000004"><a xlink:title=" ">
<path fill="none" stroke="#63b8ff" d="M177.75,-164.85C170.11,-154.79 161.63,-143.6 154.34,-134.01"/>
<polygon fill="none" stroke="#63b8ff" points="175.09,-167.13 183.93,-172.98 180.67,-162.9 175.09,-167.13"/>
</a>
</g>
</g>
</g>
</svg>
