<?xml version="1.0" encoding="UTF-8" standalone="no"?>
<!DOCTYPE svg PUBLIC "-//W3C//DTD SVG 1.1//EN"
 "http://www.w3.org/Graphics/SVG/1.1/DTD/svg11.dtd">
<!-- Generated by graphviz version 2.43.0 (0)
 -->
<!-- Title: TestSuite Pages: 1 -->
<svg width="82pt" height="142pt"
 viewBox="0.00 0.00 82.00 142.00" xmlns="http://www.w3.org/2000/svg" xmlns:xlink="http://www.w3.org/1999/xlink">
<g id="graph0" class="graph" transform="scale(1 1) rotate(0) translate(4 138)">
<title>TestSuite</title>
<!-- Node1 -->
<g id="Node000001" class="node">
<title>Node1</title>
<g id="a_Node000001"><a xlink:title="Custom test suite class for sorting cases into suites automatically while globbing.">
<polygon fill="#999999" stroke="transparent" points="74,-49 0,-49 0,0 74,0 74,-49"/>
<text text-anchor="start" x="14.5" y="-36.5" font-family="Helvetica,sans-Serif" font-size="10.00">TestSuite</text>
<text text-anchor="start" x="4" y="-21.5" font-family="Helvetica,sans-Serif" font-size="10.00">+</text>
<text text-anchor="start" x="17" y="-21.5" font-family="Helvetica,sans-Serif" font-size="10.00">suite_flags</text>
<text text-anchor="start" x="4" y="-6.5" font-family="Helvetica,sans-Serif" font-size="10.00">+</text>
<text text-anchor="start" x="17" y="-6.5" font-family="Helvetica,sans-Serif" font-size="10.00">addTest()</text>
<polygon fill="#666666" stroke="#666666" points="0,-31.5 0,-31.5 74,-31.5 74,-31.5 0,-31.5"/>
<polygon fill="#666666" stroke="#666666" points="0,-16.5 0,-16.5 15,-16.5 15,-16.5 0,-16.5"/>
<polygon fill="#666666" stroke="#666666" points="15,-16.5 15,-16.5 74,-16.5 74,-16.5 15,-16.5"/>
<polygon fill="none" stroke="#666666" points="0,0 0,-49 74,-49 74,0 0,0"/>
</a>
</g>
</g>
<!-- Node2 -->
<g id="Node000002" class="node">
<title>Node2</title>
<g id="a_Node000002"><a xlink:title=" ">
<polygon fill="white" stroke="transparent" points="64.5,-134 9.5,-134 9.5,-85 64.5,-85 64.5,-134"/>
<text text-anchor="start" x="15" y="-121.5" font-family="Helvetica,sans-Serif" font-size="10.00">TestSuite</text>
<text text-anchor="start" x="35.5" y="-106.5" font-family="Helvetica,sans-Serif" font-size="10.00"> </text>
<text text-anchor="start" x="35.5" y="-91.5" font-family="Helvetica,sans-Serif" font-size="10.00"> </text>
<polygon fill="#666666" stroke="#666666" points="10,-116.5 10,-116.5 65,-116.5 65,-116.5 10,-116.5"/>
<polygon fill="#666666" stroke="#666666" points="10,-101.5 10,-101.5 65,-101.5 65,-101.5 10,-101.5"/>
<polygon fill="none" stroke="#666666" points="9.5,-85 9.5,-134 64.5,-134 64.5,-85 9.5,-85"/>
</a>
</g>
</g>
<!-- Node2&#45;&gt;Node1 -->
<g id="edge1_Node000001_Node000002" class="edge">
<title>Node2&#45;&gt;Node1</title>
<g id="a_edge1_Node000001_Node000002"><a xlink:title=" ">
<path fill="none" stroke="#63b8ff" d="M37,-74.77C37,-66.17 37,-57.1 37,-49.12"/>
<polygon fill="none" stroke="#63b8ff" points="33.5,-74.94 37,-84.94 40.5,-74.94 33.5,-74.94"/>
</a>
</g>
</g>
</g>
</svg>
