<?xml version="1.0" encoding="UTF-8" standalone="no"?>
<!DOCTYPE svg PUBLIC "-//W3C//DTD SVG 1.1//EN"
 "http://www.w3.org/Graphics/SVG/1.1/DTD/svg11.dtd">
<!-- Generated by graphviz version 2.43.0 (0)
 -->
<!-- Title: HDF5SnapshotInput Pages: 1 -->
<svg width="163pt" height="497pt"
 viewBox="0.00 0.00 163.00 497.00" xmlns="http://www.w3.org/2000/svg" xmlns:xlink="http://www.w3.org/1999/xlink">
<g id="graph0" class="graph" transform="scale(1 1) rotate(0) translate(4 493)">
<title>HDF5SnapshotInput</title>
<polygon fill="white" stroke="transparent" points="-4,4 -4,-493 159,-493 159,4 -4,4"/>
<!-- Node1 -->
<g id="node1" class="node">
<title>Node1</title>
<g id="a_node1"><a xlink:title="Input class for reading most data from an HDF5 snapshot to a model part.">
<polygon fill="#bfbfbf" stroke="black" points="0,-0.5 0,-57.5 155,-57.5 155,-0.5 0,-0.5"/>
<text text-anchor="middle" x="77.5" y="-45.5" font-family="Helvetica,sans-Serif" font-size="10.00">HDF5SnapshotInput</text>
<polyline fill="none" stroke="black" points="0,-38.5 155,-38.5 "/>
<text text-anchor="middle" x="77.5" y="-26.5" font-family="Helvetica,sans-Serif" font-size="10.00"> </text>
<polyline fill="none" stroke="black" points="0,-19.5 155,-19.5 "/>
<text text-anchor="start" x="8" y="-7.5" font-family="Helvetica,sans-Serif" font-size="10.00">+ GetDefaultIOParameters()</text>
</a>
</g>
</g>
<!-- Node2 -->
<g id="node2" class="node">
<title>Node2</title>
<g id="a_node2"><a xlink:href="classpython__scripts_1_1checkpoint_1_1HDF5SnapshotIO_1_1HDF5SnapshotIO.html" target="_top" xlink:title="Base class with common functionality to writing/loading snapshots to/from disk.">
<polygon fill="white" stroke="black" points="0,-94.5 0,-195.5 155,-195.5 155,-94.5 0,-94.5"/>
<text text-anchor="middle" x="77.5" y="-183.5" font-family="Helvetica,sans-Serif" font-size="10.00">HDF5SnapshotIO</text>
<polyline fill="none" stroke="black" points="0,-176.5 155,-176.5 "/>
<text text-anchor="middle" x="77.5" y="-164.5" font-family="Helvetica,sans-Serif" font-size="10.00"> </text>
<polyline fill="none" stroke="black" points="0,-157.5 155,-157.5 "/>
<text text-anchor="start" x="8" y="-145.5" font-family="Helvetica,sans-Serif" font-size="10.00">+ GetID()</text>
<text text-anchor="start" x="8" y="-134.5" font-family="Helvetica,sans-Serif" font-size="10.00">+ GetPath()</text>
<text text-anchor="start" x="8" y="-123.5" font-family="Helvetica,sans-Serif" font-size="10.00">+ GetDefaultParameters()</text>
<text text-anchor="start" x="8" y="-112.5" font-family="Helvetica,sans-Serif" font-size="10.00">+ parameters()</text>
<text text-anchor="start" x="8" y="-101.5" font-family="Helvetica,sans-Serif" font-size="10.00">+ GetDefaultIOParameters()</text>
</a>
</g>
</g>
<!-- Node2&#45;&gt;Node1 -->
<g id="edge1" class="edge">
<title>Node2&#45;&gt;Node1</title>
<path fill="none" stroke="midnightblue" d="M77.5,-84.23C77.5,-74.92 77.5,-65.71 77.5,-57.59"/>
<polygon fill="none" stroke="midnightblue" points="74,-84.33 77.5,-94.33 81,-84.33 74,-84.33"/>
</g>
<!-- Node3 -->
<g id="node3" class="node">
<title>Node3</title>
<g id="a_node3"><a xlink:href="classpython__scripts_1_1checkpoint_1_1SnapshotIO_1_1SnapshotFSIO.html" target="_top" xlink:title="Base class for Snapshot s that store their data on the filesystem.">
<polygon fill="white" stroke="black" points="36,-232.5 36,-289.5 119,-289.5 119,-232.5 36,-232.5"/>
<text text-anchor="middle" x="77.5" y="-277.5" font-family="Helvetica,sans-Serif" font-size="10.00">SnapshotFSIO</text>
<polyline fill="none" stroke="black" points="36,-270.5 119,-270.5 "/>
<text text-anchor="middle" x="77.5" y="-258.5" font-family="Helvetica,sans-Serif" font-size="10.00"> </text>
<polyline fill="none" stroke="black" points="36,-251.5 119,-251.5 "/>
<text text-anchor="start" x="44" y="-239.5" font-family="Helvetica,sans-Serif" font-size="10.00">+ GetPath()</text>
</a>
</g>
</g>
<!-- Node3&#45;&gt;Node2 -->
<g id="edge2" class="edge">
<title>Node3&#45;&gt;Node2</title>
<path fill="none" stroke="midnightblue" d="M77.5,-222.35C77.5,-213.8 77.5,-204.58 77.5,-195.61"/>
<polygon fill="none" stroke="midnightblue" points="74,-222.4 77.5,-232.4 81,-222.4 74,-222.4"/>
</g>
<!-- Node4 -->
<g id="node4" class="node">
<title>Node4</title>
<g id="a_node4"><a xlink:href="classpython__scripts_1_1checkpoint_1_1SnapshotIO_1_1SnapshotIO.html" target="_top" xlink:title="Interface for performing Snapshot input/output operations.">
<polygon fill="white" stroke="black" points="5.5,-326.5 5.5,-394.5 149.5,-394.5 149.5,-326.5 5.5,-326.5"/>
<text text-anchor="middle" x="77.5" y="-382.5" font-family="Helvetica,sans-Serif" font-size="10.00">SnapshotIO</text>
<polyline fill="none" stroke="black" points="5.5,-375.5 149.5,-375.5 "/>
<text text-anchor="middle" x="77.5" y="-363.5" font-family="Helvetica,sans-Serif" font-size="10.00"> </text>
<polyline fill="none" stroke="black" points="5.5,-356.5 149.5,-356.5 "/>
<text text-anchor="start" x="13.5" y="-344.5" font-family="Helvetica,sans-Serif" font-size="10.00">+ GetID()</text>
<text text-anchor="start" x="13.5" y="-333.5" font-family="Helvetica,sans-Serif" font-size="10.00">+ GetDefaultParameters()</text>
</a>
</g>
</g>
<!-- Node4&#45;&gt;Node3 -->
<g id="edge3" class="edge">
<title>Node4&#45;&gt;Node3</title>
<path fill="none" stroke="midnightblue" d="M77.5,-316.45C77.5,-307.4 77.5,-298.09 77.5,-289.78"/>
<polygon fill="none" stroke="midnightblue" points="74,-316.49 77.5,-326.49 81,-316.49 74,-316.49"/>
</g>
<!-- Node5 -->
<g id="node5" class="node">
<title>Node5</title>
<g id="a_node5"><a xlink:title=" ">
<polygon fill="white" stroke="#bfbfbf" points="38.5,-431.5 38.5,-488.5 116.5,-488.5 116.5,-431.5 38.5,-431.5"/>
<text text-anchor="middle" x="77.5" y="-476.5" font-family="Helvetica,sans-Serif" font-size="10.00">WRAppClass</text>
<polyline fill="none" stroke="#bfbfbf" points="38.5,-469.5 116.5,-469.5 "/>
<text text-anchor="middle" x="77.5" y="-457.5" font-family="Helvetica,sans-Serif" font-size="10.00"> </text>
<polyline fill="none" stroke="#bfbfbf" points="38.5,-450.5 116.5,-450.5 "/>
<text text-anchor="middle" x="77.5" y="-438.5" font-family="Helvetica,sans-Serif" font-size="10.00"> </text>
</a>
</g>
</g>
<!-- Node5&#45;&gt;Node4 -->
<g id="edge4" class="edge">
<title>Node5&#45;&gt;Node4</title>
<path fill="none" stroke="midnightblue" d="M77.5,-421.06C77.5,-412.39 77.5,-403.24 77.5,-394.79"/>
<polygon fill="none" stroke="midnightblue" points="74,-421.32 77.5,-431.32 81,-421.32 74,-421.32"/>
</g>
</g>
</svg>
