<?xml version="1.0" encoding="UTF-8" standalone="no"?>
<!DOCTYPE svg PUBLIC "-//W3C//DTD SVG 1.1//EN"
 "http://www.w3.org/Graphics/SVG/1.1/DTD/svg11.dtd">
<!-- Generated by graphviz version 2.43.0 (0)
 -->
<!-- Title: CellAttribute Pages: 1 -->
<svg width="86pt" height="254pt"
 viewBox="0.00 0.00 86.00 254.00" xmlns="http://www.w3.org/2000/svg" xmlns:xlink="http://www.w3.org/1999/xlink">
<g id="graph0" class="graph" transform="scale(1 1) rotate(0) translate(4 250)">
<title>CellAttribute</title>
<polygon fill="white" stroke="transparent" points="-4,4 -4,-250 82,-250 82,4 -4,4"/>
<!-- Node1 -->
<g id="node1" class="node">
<title>Node1</title>
<g id="a_node1"><a xlink:title=" ">
<polygon fill="#bfbfbf" stroke="black" points="0,-0.5 0,-57.5 78,-57.5 78,-0.5 0,-0.5"/>
<text text-anchor="middle" x="39" y="-45.5" font-family="Helvetica,sans-Serif" font-size="10.00">CellAttribute</text>
<polyline fill="none" stroke="black" points="0,-38.5 78,-38.5 "/>
<text text-anchor="middle" x="39" y="-26.5" font-family="Helvetica,sans-Serif" font-size="10.00"> </text>
<polyline fill="none" stroke="black" points="0,-19.5 78,-19.5 "/>
<text text-anchor="middle" x="39" y="-7.5" font-family="Helvetica,sans-Serif" font-size="10.00"> </text>
</a>
</g>
</g>
<!-- Node2 -->
<g id="node2" class="node">
<title>Node2</title>
<g id="a_node2"><a xlink:href="classpython__scripts_1_1xdmf_1_1Attribute_1_1Attribute.html" target="_top" xlink:title=" ">
<polygon fill="white" stroke="black" points="9.5,-94.5 9.5,-151.5 68.5,-151.5 68.5,-94.5 9.5,-94.5"/>
<text text-anchor="middle" x="39" y="-139.5" font-family="Helvetica,sans-Serif" font-size="10.00">Attribute</text>
<polyline fill="none" stroke="black" points="9.5,-132.5 68.5,-132.5 "/>
<text text-anchor="middle" x="39" y="-120.5" font-family="Helvetica,sans-Serif" font-size="10.00"> </text>
<polyline fill="none" stroke="black" points="9.5,-113.5 68.5,-113.5 "/>
<text text-anchor="middle" x="39" y="-101.5" font-family="Helvetica,sans-Serif" font-size="10.00"> </text>
</a>
</g>
</g>
<!-- Node2&#45;&gt;Node1 -->
<g id="edge1" class="edge">
<title>Node2&#45;&gt;Node1</title>
<path fill="none" stroke="midnightblue" d="M39,-84.21C39,-75.29 39,-65.95 39,-57.58"/>
<polygon fill="none" stroke="midnightblue" points="35.5,-84.4 39,-94.4 42.5,-84.4 35.5,-84.4"/>
</g>
<!-- Node3 -->
<g id="node3" class="node">
<title>Node3</title>
<g id="a_node3"><a xlink:title=" ">
<polygon fill="white" stroke="#bfbfbf" points="10.5,-188.5 10.5,-245.5 67.5,-245.5 67.5,-188.5 10.5,-188.5"/>
<text text-anchor="middle" x="39" y="-233.5" font-family="Helvetica,sans-Serif" font-size="10.00">Element</text>
<polyline fill="none" stroke="#bfbfbf" points="10.5,-226.5 67.5,-226.5 "/>
<text text-anchor="middle" x="39" y="-214.5" font-family="Helvetica,sans-Serif" font-size="10.00"> </text>
<polyline fill="none" stroke="#bfbfbf" points="10.5,-207.5 67.5,-207.5 "/>
<text text-anchor="middle" x="39" y="-195.5" font-family="Helvetica,sans-Serif" font-size="10.00"> </text>
</a>
</g>
</g>
<!-- Node3&#45;&gt;Node2 -->
<g id="edge2" class="edge">
<title>Node3&#45;&gt;Node2</title>
<path fill="none" stroke="midnightblue" d="M39,-178.21C39,-169.29 39,-159.95 39,-151.58"/>
<polygon fill="none" stroke="midnightblue" points="35.5,-178.4 39,-188.4 42.5,-178.4 35.5,-178.4"/>
</g>
</g>
</svg>
