<?xml version="1.0" encoding="UTF-8" standalone="no"?>
<!DOCTYPE svg PUBLIC "-//W3C//DTD SVG 1.1//EN"
 "http://www.w3.org/Graphics/SVG/1.1/DTD/svg11.dtd">
<!-- Generated by graphviz version 2.43.0 (0)
 -->
<!-- Title: TimeList Pages: 1 -->
<svg width="61pt" height="227pt"
 viewBox="0.00 0.00 61.00 227.00" xmlns="http://www.w3.org/2000/svg" xmlns:xlink="http://www.w3.org/1999/xlink">
<g id="graph0" class="graph" transform="scale(1 1) rotate(0) translate(4 223)">
<title>TimeList</title>
<!-- Node1 -->
<g id="Node000001" class="node">
<title>Node1</title>
<g id="a_Node000001"><a xlink:title=" ">
<polygon fill="#999999" stroke="transparent" points="53,-49 0,-49 0,0 53,0 53,-49"/>
<text text-anchor="start" x="5.5" y="-36.5" font-family="Helvetica,sans-Serif" font-size="10.00">TimeList</text>
<text text-anchor="start" x="25" y="-21.5" font-family="Helvetica,sans-Serif" font-size="10.00"> </text>
<text text-anchor="start" x="25" y="-6.5" font-family="Helvetica,sans-Serif" font-size="10.00"> </text>
<polygon fill="#666666" stroke="#666666" points="0.5,-31.5 0.5,-31.5 53.5,-31.5 53.5,-31.5 0.5,-31.5"/>
<polygon fill="#666666" stroke="#666666" points="0.5,-16.5 0.5,-16.5 53.5,-16.5 53.5,-16.5 0.5,-16.5"/>
<polygon fill="none" stroke="#666666" points="0,0 0,-49 53,-49 53,0 0,0"/>
</a>
</g>
</g>
<!-- Node2 -->
<g id="Node000002" class="node">
<title>Node2</title>
<g id="a_Node000002"><a xlink:href="classpython__scripts_1_1xdmf_1_1Time_1_1Time.html" target="_top" xlink:title=" ">
<polygon fill="white" stroke="transparent" points="44,-134 9,-134 9,-85 44,-85 44,-134"/>
<text text-anchor="start" x="14.5" y="-121.5" font-family="Helvetica,sans-Serif" font-size="10.00">Time</text>
<text text-anchor="start" x="25" y="-106.5" font-family="Helvetica,sans-Serif" font-size="10.00"> </text>
<text text-anchor="start" x="25" y="-91.5" font-family="Helvetica,sans-Serif" font-size="10.00"> </text>
<polygon fill="#666666" stroke="#666666" points="9.5,-116.5 9.5,-116.5 44.5,-116.5 44.5,-116.5 9.5,-116.5"/>
<polygon fill="#666666" stroke="#666666" points="9.5,-101.5 9.5,-101.5 44.5,-101.5 44.5,-101.5 9.5,-101.5"/>
<polygon fill="none" stroke="#666666" points="9,-85 9,-134 44,-134 44,-85 9,-85"/>
</a>
</g>
</g>
<!-- Node2&#45;&gt;Node1 -->
<g id="edge1_Node000001_Node000002" class="edge">
<title>Node2&#45;&gt;Node1</title>
<g id="a_edge1_Node000001_Node000002"><a xlink:title=" ">
<path fill="none" stroke="#63b8ff" d="M26.5,-74.77C26.5,-66.17 26.5,-57.1 26.5,-49.12"/>
<polygon fill="none" stroke="#63b8ff" points="23,-74.94 26.5,-84.94 30,-74.94 23,-74.94"/>
</a>
</g>
</g>
<!-- Node3 -->
<g id="Node000003" class="node">
<title>Node3</title>
<g id="a_Node000003"><a xlink:title=" ">
<polygon fill="white" stroke="transparent" points="52,-219 1,-219 1,-170 52,-170 52,-219"/>
<text text-anchor="start" x="6.5" y="-206.5" font-family="Helvetica,sans-Serif" font-size="10.00">Element</text>
<text text-anchor="start" x="25" y="-191.5" font-family="Helvetica,sans-Serif" font-size="10.00"> </text>
<text text-anchor="start" x="25" y="-176.5" font-family="Helvetica,sans-Serif" font-size="10.00"> </text>
<polygon fill="#666666" stroke="#666666" points="1.5,-201.5 1.5,-201.5 52.5,-201.5 52.5,-201.5 1.5,-201.5"/>
<polygon fill="#666666" stroke="#666666" points="1.5,-186.5 1.5,-186.5 52.5,-186.5 52.5,-186.5 1.5,-186.5"/>
<polygon fill="none" stroke="#666666" points="1,-170 1,-219 52,-219 52,-170 1,-170"/>
</a>
</g>
</g>
<!-- Node3&#45;&gt;Node2 -->
<g id="edge2_Node000002_Node000003" class="edge">
<title>Node3&#45;&gt;Node2</title>
<g id="a_edge2_Node000002_Node000003"><a xlink:title=" ">
<path fill="none" stroke="#63b8ff" d="M26.5,-159.77C26.5,-151.17 26.5,-142.1 26.5,-134.12"/>
<polygon fill="none" stroke="#63b8ff" points="23,-159.94 26.5,-169.94 30,-159.94 23,-159.94"/>
</a>
</g>
</g>
</g>
</svg>
