<?xml version="1.0" encoding="UTF-8" standalone="no"?>
<!DOCTYPE svg PUBLIC "-//W3C//DTD SVG 1.1//EN"
 "http://www.w3.org/Graphics/SVG/1.1/DTD/svg11.dtd">
<!-- Generated by graphviz version 2.43.0 (0)
 -->
<!-- Title: SnapshotInMemoryIO.Operation Pages: 1 -->
<svg width="408pt" height="254pt"
 viewBox="0.00 0.00 408.00 254.00" xmlns="http://www.w3.org/2000/svg" xmlns:xlink="http://www.w3.org/1999/xlink">
<g id="graph0" class="graph" transform="scale(1 1) rotate(0) translate(4 250)">
<title>SnapshotInMemoryIO.Operation</title>
<polygon fill="white" stroke="transparent" points="-4,4 -4,-250 404,-250 404,4 -4,4"/>
<!-- Node1 -->
<g id="node1" class="node">
<title>Node1</title>
<g id="a_node1"><a xlink:title="Base class for interacting with the static cache of SnapshotInMemoryIO.">
<polygon fill="#bfbfbf" stroke="black" points="111,-94.5 111,-151.5 284,-151.5 284,-94.5 111,-94.5"/>
<text text-anchor="middle" x="197.5" y="-139.5" font-family="Helvetica,sans-Serif" font-size="10.00">SnapshotInMemoryIO.Operation</text>
<polyline fill="none" stroke="black" points="111,-132.5 284,-132.5 "/>
<text text-anchor="middle" x="197.5" y="-120.5" font-family="Helvetica,sans-Serif" font-size="10.00"> </text>
<polyline fill="none" stroke="black" points="111,-113.5 284,-113.5 "/>
<text text-anchor="start" x="119" y="-101.5" font-family="Helvetica,sans-Serif" font-size="10.00">+ GetDefaultParameters()</text>
</a>
</g>
</g>
<!-- Node3 -->
<g id="node3" class="node">
<title>Node3</title>
<g id="a_node3"><a xlink:href="classpython__scripts_1_1checkpoint_1_1SnapshotInMemoryIO_1_1SnapshotInMemoryInput_1_1Operation.html" target="_top" xlink:title="Read data from the static cache of SnapshotInMemoryIO.">
<polygon fill="white" stroke="black" points="0,-0.5 0,-57.5 187,-57.5 187,-0.5 0,-0.5"/>
<text text-anchor="middle" x="93.5" y="-45.5" font-family="Helvetica,sans-Serif" font-size="10.00">SnapshotInMemoryInput.Operation</text>
<polyline fill="none" stroke="black" points="0,-38.5 187,-38.5 "/>
<text text-anchor="middle" x="93.5" y="-26.5" font-family="Helvetica,sans-Serif" font-size="10.00"> </text>
<polyline fill="none" stroke="black" points="0,-19.5 187,-19.5 "/>
<text text-anchor="start" x="8" y="-7.5" font-family="Helvetica,sans-Serif" font-size="10.00">+ Execute()</text>
</a>
</g>
</g>
<!-- Node1&#45;&gt;Node3 -->
<g id="edge2" class="edge">
<title>Node1&#45;&gt;Node3</title>
<path fill="none" stroke="midnightblue" d="M158.7,-87.67C147.47,-77.75 135.37,-67.04 124.68,-57.58"/>
<polygon fill="none" stroke="midnightblue" points="156.49,-90.39 166.3,-94.4 161.13,-85.15 156.49,-90.39"/>
</g>
<!-- Node4 -->
<g id="node4" class="node">
<title>Node4</title>
<g id="a_node4"><a xlink:href="classpython__scripts_1_1checkpoint_1_1SnapshotInMemoryIO_1_1SnapshotInMemoryOutput_1_1Operation.html" target="_top" xlink:title="Write data to the static cache of SnapshotInMemoryIO.">
<polygon fill="white" stroke="black" points="205,-0.5 205,-57.5 400,-57.5 400,-0.5 205,-0.5"/>
<text text-anchor="middle" x="302.5" y="-45.5" font-family="Helvetica,sans-Serif" font-size="10.00">SnapshotInMemoryOutput.Operation</text>
<polyline fill="none" stroke="black" points="205,-38.5 400,-38.5 "/>
<text text-anchor="middle" x="302.5" y="-26.5" font-family="Helvetica,sans-Serif" font-size="10.00"> </text>
<polyline fill="none" stroke="black" points="205,-19.5 400,-19.5 "/>
<text text-anchor="start" x="213" y="-7.5" font-family="Helvetica,sans-Serif" font-size="10.00">+ Execute()</text>
</a>
</g>
</g>
<!-- Node1&#45;&gt;Node4 -->
<g id="edge3" class="edge">
<title>Node1&#45;&gt;Node4</title>
<path fill="none" stroke="midnightblue" d="M236.68,-87.67C248.01,-77.75 260.22,-67.04 271.02,-57.58"/>
<polygon fill="none" stroke="midnightblue" points="234.22,-85.17 229,-94.4 238.83,-90.44 234.22,-85.17"/>
</g>
<!-- Node2 -->
<g id="node2" class="node">
<title>Node2</title>
<g id="a_node2"><a xlink:title=" ">
<polygon fill="white" stroke="#bfbfbf" points="165,-188.5 165,-245.5 230,-245.5 230,-188.5 165,-188.5"/>
<text text-anchor="middle" x="197.5" y="-233.5" font-family="Helvetica,sans-Serif" font-size="10.00">Operation</text>
<polyline fill="none" stroke="#bfbfbf" points="165,-226.5 230,-226.5 "/>
<text text-anchor="middle" x="197.5" y="-214.5" font-family="Helvetica,sans-Serif" font-size="10.00"> </text>
<polyline fill="none" stroke="#bfbfbf" points="165,-207.5 230,-207.5 "/>
<text text-anchor="middle" x="197.5" y="-195.5" font-family="Helvetica,sans-Serif" font-size="10.00"> </text>
</a>
</g>
</g>
<!-- Node2&#45;&gt;Node1 -->
<g id="edge1" class="edge">
<title>Node2&#45;&gt;Node1</title>
<path fill="none" stroke="midnightblue" d="M197.5,-178.21C197.5,-169.29 197.5,-159.95 197.5,-151.58"/>
<polygon fill="none" stroke="midnightblue" points="194,-178.4 197.5,-188.4 201,-178.4 194,-178.4"/>
</g>
</g>
</svg>
