<?xml version="1.0" encoding="UTF-8" standalone="no"?>
<!DOCTYPE svg PUBLIC "-//W3C//DTD SVG 1.1//EN"
 "http://www.w3.org/Graphics/SVG/1.1/DTD/svg11.dtd">
<!-- Generated by graphviz version 2.43.0 (0)
 -->
<!-- Title: VariableFromProcessInfo&lt; TVariable &gt; Pages: 1 -->
<svg width="158pt" height="254pt"
 viewBox="0.00 0.00 158.00 254.00" xmlns="http://www.w3.org/2000/svg" xmlns:xlink="http://www.w3.org/1999/xlink">
<g id="graph0" class="graph" transform="scale(1 1) rotate(0) translate(4 250)">
<title>VariableFromProcessInfo&lt; TVariable &gt;</title>
<!-- Node1 -->
<g id="Node000001" class="node">
<title>Node1</title>
<g id="a_Node000001"><a xlink:title="Get a variable from ProcessInfo.">
<polygon fill="#999999" stroke="transparent" points="150,-150 0,-150 0,0 150,0 150,-150"/>
<text text-anchor="start" x="14.5" y="-138" font-family="Helvetica,sans-Serif" font-size="10.00">VariableFromProcessInfo</text>
<text text-anchor="start" x="40.5" y="-127" font-family="Helvetica,sans-Serif" font-size="10.00">&lt; TVariable &gt;</text>
<text text-anchor="start" x="73" y="-112" font-family="Helvetica,sans-Serif" font-size="10.00"> </text>
<text text-anchor="start" x="4" y="-97" font-family="Helvetica,sans-Serif" font-size="10.00">+</text>
<text text-anchor="start" x="17" y="-97" font-family="Helvetica,sans-Serif" font-size="10.00">VariableFromProcessInfo()</text>
<text text-anchor="start" x="4" y="-82" font-family="Helvetica,sans-Serif" font-size="10.00">+</text>
<text text-anchor="start" x="17" y="-82" font-family="Helvetica,sans-Serif" font-size="10.00">VariableFromProcessInfo()</text>
<text text-anchor="start" x="4" y="-67" font-family="Helvetica,sans-Serif" font-size="10.00">+</text>
<text text-anchor="start" x="17" y="-67" font-family="Helvetica,sans-Serif" font-size="10.00">VariableFromProcessInfo()</text>
<text text-anchor="start" x="4" y="-52" font-family="Helvetica,sans-Serif" font-size="10.00">+</text>
<text text-anchor="start" x="17" y="-52" font-family="Helvetica,sans-Serif" font-size="10.00">VariableFromProcessInfo()</text>
<text text-anchor="start" x="4" y="-37" font-family="Helvetica,sans-Serif" font-size="10.00">+</text>
<text text-anchor="start" x="17" y="-37" font-family="Helvetica,sans-Serif" font-size="10.00">VariableFromProcessInfo()</text>
<text text-anchor="start" x="4" y="-22" font-family="Helvetica,sans-Serif" font-size="10.00">+</text>
<text text-anchor="start" x="17" y="-22" font-family="Helvetica,sans-Serif" font-size="10.00">operator()()</text>
<text text-anchor="start" x="4" y="-7" font-family="Helvetica,sans-Serif" font-size="10.00">+</text>
<text text-anchor="start" x="17" y="-7" font-family="Helvetica,sans-Serif" font-size="10.00">GetDefaultParameters()</text>
<polygon fill="#666666" stroke="#666666" points="0,-122 0,-122 150,-122 150,-122 0,-122"/>
<polygon fill="#666666" stroke="#666666" points="0,-107 0,-107 150,-107 150,-107 0,-107"/>
<polygon fill="none" stroke="#666666" points="0,0 0,-150 150,-150 150,0 0,0"/>
</a>
</g>
</g>
<!-- Node2 -->
<g id="Node000002" class="node">
<title>Node2</title>
<g id="a_Node000002"><a xlink:href="structKratos_1_1Pipes_1_1Traits.html" target="_top" xlink:title=" ">
<polygon fill="white" stroke="transparent" points="142,-246 8,-246 8,-186 142,-186 142,-246"/>
<text text-anchor="start" x="13" y="-234" font-family="Helvetica,sans-Serif" font-size="10.00">Traits&lt; const ProcessInfo</text>
<text text-anchor="start" x="23.5" y="-223" font-family="Helvetica,sans-Serif" font-size="10.00"> &amp;, TVariable::Type &gt;</text>
<text text-anchor="start" x="73" y="-208" font-family="Helvetica,sans-Serif" font-size="10.00"> </text>
<text text-anchor="start" x="73" y="-193" font-family="Helvetica,sans-Serif" font-size="10.00"> </text>
<polygon fill="#666666" stroke="#666666" points="8,-218 8,-218 142,-218 142,-218 8,-218"/>
<polygon fill="#666666" stroke="#666666" points="8,-203 8,-203 142,-203 142,-203 8,-203"/>
<polygon fill="none" stroke="#666666" points="8,-186 8,-246 142,-246 142,-186 8,-186"/>
</a>
</g>
</g>
<!-- Node2&#45;&gt;Node1 -->
<g id="edge1_Node000001_Node000002" class="edge">
<title>Node2&#45;&gt;Node1</title>
<g id="a_edge1_Node000001_Node000002"><a xlink:title=" ">
<path fill="none" stroke="#63b8ff" d="M75,-175.7C75,-167.64 75,-158.9 75,-150.07"/>
<polygon fill="none" stroke="#63b8ff" points="71.5,-175.86 75,-185.86 78.5,-175.86 71.5,-175.86"/>
</a>
</g>
</g>
</g>
</svg>
