<?xml version="1.0" encoding="UTF-8" standalone="no"?>
<!DOCTYPE svg PUBLIC "-//W3C//DTD SVG 1.1//EN"
 "http://www.w3.org/Graphics/SVG/1.1/DTD/svg11.dtd">
<!-- Generated by graphviz version 2.43.0 (0)
 -->
<!-- Title: Snapshot Pages: 1 -->
<!--zoomable 601 -->
<svg id="main" version="1.1" xmlns="http://www.w3.org/2000/svg" xmlns:xlink="http://www.w3.org/1999/xlink" xml:space="preserve" onload="init(evt)">
<style type="text/css"><![CDATA[
.edge:hover path { stroke: red; }
.edge:hover polygon { stroke: red; fill: red; }
]]></style>
<script type="text/javascript"><![CDATA[
var edges = document.getElementsByTagName('g');
if (edges && edges.length) {
  for (var i=0;i<edges.length;i++) {
    if (edges[i].id.substr(0,4)=='edge') {
      edges[i].setAttribute('class','edge');
    }
  }
}
]]></script>
        <defs>
                <circle id="rim" cx="0" cy="0" r="7"/>
                <circle id="rim2" cx="0" cy="0" r="3.5"/>
                <g id="zoomPlus">
                        <use xlink:href="#rim" fill="#404040">
                                <set attributeName="fill" to="#808080" begin="zoomplus.mouseover" end="zoomplus.mouseout"/>
                        </use>
                        <path d="M-4,0h8M0,-4v8" fill="none" stroke="white" stroke-width="1.5" pointer-events="none"/>
                </g>
                <g id="zoomMin">
                        <use xlink:href="#rim" fill="#404040">
                                <set attributeName="fill" to="#808080" begin="zoomminus.mouseover" end="zoomminus.mouseout"/>
                        </use>
                        <path d="M-4,0h8" fill="none" stroke="white" stroke-width="1.5" pointer-events="none"/>
                </g>
                <g id="dirArrow">
                        <path fill="none" stroke="white" stroke-width="1.5" d="M0,-3.0v7 M-2.5,-0.5L0,-3.0L2.5,-0.5"/>
                </g>
               <g id="resetDef">
                       <use xlink:href="#rim2" fill="#404040">
                               <set attributeName="fill" to="#808080" begin="reset.mouseover" end="reset.mouseout"/>
                       </use>
               </g>
        </defs>

<script type="text/javascript">
var viewWidth = 258;
var viewHeight = 601;
var sectionId = 'dynsection-0';
</script>
<script xlink:href="svgpan.js"/>
<svg id="graph" class="graph">
<g id="viewport">
<title>Snapshot</title>
<polygon fill="white" stroke="transparent" points="-4,4 -4,-597 254,-597 254,4 -4,4"/>
<!-- Node1 -->
<g id="node1" class="node">
<title>Node1</title>
<g id="a_node1"><a xlink:title="Class representing a snapshot of a ModelPart state.">
<polygon fill="#bfbfbf" stroke="black" points="53,-298.5 53,-498.5 197,-498.5 197,-298.5 53,-298.5"/>
<text text-anchor="middle" x="125" y="-486.5" font-family="Helvetica,sans-Serif" font-size="10.00">Snapshot</text>
<polyline fill="none" stroke="black" points="53,-479.5 197,-479.5 "/>
<text text-anchor="middle" x="125" y="-467.5" font-family="Helvetica,sans-Serif" font-size="10.00"> </text>
<polyline fill="none" stroke="black" points="53,-460.5 197,-460.5 "/>
<text text-anchor="start" x="61" y="-448.5" font-family="Helvetica,sans-Serif" font-size="10.00">+ Load()</text>
<text text-anchor="start" x="61" y="-437.5" font-family="Helvetica,sans-Serif" font-size="10.00">+ Write()</text>
<text text-anchor="start" x="61" y="-426.5" font-family="Helvetica,sans-Serif" font-size="10.00">+ Erase()</text>
<text text-anchor="start" x="61" y="-415.5" font-family="Helvetica,sans-Serif" font-size="10.00">+ Exists()</text>
<text text-anchor="start" x="61" y="-404.5" font-family="Helvetica,sans-Serif" font-size="10.00">+ IsValid()</text>
<text text-anchor="start" x="61" y="-393.5" font-family="Helvetica,sans-Serif" font-size="10.00">+ GetManagerType()</text>
<text text-anchor="start" x="61" y="-382.5" font-family="Helvetica,sans-Serif" font-size="10.00">+ GetDefaultParameters()</text>
<text text-anchor="start" x="61" y="-371.5" font-family="Helvetica,sans-Serif" font-size="10.00">+ FromModelPart()</text>
<text text-anchor="start" x="61" y="-360.5" font-family="Helvetica,sans-Serif" font-size="10.00">+ analysis_path()</text>
<text text-anchor="start" x="61" y="-349.5" font-family="Helvetica,sans-Serif" font-size="10.00">+ step()</text>
<text text-anchor="start" x="61" y="-338.5" font-family="Helvetica,sans-Serif" font-size="10.00">+ id()</text>
<text text-anchor="start" x="61" y="-327.5" font-family="Helvetica,sans-Serif" font-size="10.00">+ GetInputType()</text>
<text text-anchor="start" x="61" y="-316.5" font-family="Helvetica,sans-Serif" font-size="10.00">+ GetOutputType()</text>
<text text-anchor="start" x="61" y="-305.5" font-family="Helvetica,sans-Serif" font-size="10.00">+ GetSolutionPath()</text>
</a>
</g>
</g>
<!-- Node3 -->
<g id="node3" class="node">
<title>Node3</title>
<g id="a_node3"><a xlink:href="classpython__scripts_1_1checkpoint_1_1Snapshot_1_1SnapshotFS.html" target="_top" xlink:title="Class representing a snapshot of a ModelPart state and its associated output file on the filesystem.">
<polygon fill="white" stroke="black" points="4.5,-138.5 4.5,-250.5 113.5,-250.5 113.5,-138.5 4.5,-138.5"/>
<text text-anchor="middle" x="59" y="-238.5" font-family="Helvetica,sans-Serif" font-size="10.00">SnapshotFS</text>
<polyline fill="none" stroke="black" points="4.5,-231.5 113.5,-231.5 "/>
<text text-anchor="middle" x="59" y="-219.5" font-family="Helvetica,sans-Serif" font-size="10.00"> </text>
<polyline fill="none" stroke="black" points="4.5,-212.5 113.5,-212.5 "/>
<text text-anchor="start" x="12.5" y="-200.5" font-family="Helvetica,sans-Serif" font-size="10.00">+ Erase()</text>
<text text-anchor="start" x="12.5" y="-189.5" font-family="Helvetica,sans-Serif" font-size="10.00">+ Exists()</text>
<text text-anchor="start" x="12.5" y="-178.5" font-family="Helvetica,sans-Serif" font-size="10.00">+ IsValid()</text>
<text text-anchor="start" x="12.5" y="-167.5" font-family="Helvetica,sans-Serif" font-size="10.00">+ FromFile()</text>
<text text-anchor="start" x="12.5" y="-156.5" font-family="Helvetica,sans-Serif" font-size="10.00">+ FromModelPart()</text>
<text text-anchor="start" x="12.5" y="-145.5" font-family="Helvetica,sans-Serif" font-size="10.00">+ Collect()</text>
</a>
</g>
</g>
<!-- Node1&#45;&gt;Node3 -->
<g id="edge2" class="edge">
<title>Node1&#45;&gt;Node3</title>
<path fill="none" stroke="midnightblue" d="M89.45,-288.69C85.16,-275.56 80.92,-262.6 77.04,-250.72"/>
<polygon fill="none" stroke="midnightblue" points="86.15,-289.86 92.58,-298.28 92.8,-287.68 86.15,-289.86"/>
</g>
<!-- Node5 -->
<g id="node5" class="node">
<title>Node5</title>
<g id="a_node5"><a xlink:href="classpython__scripts_1_1checkpoint_1_1SnapshotInMemory_1_1SnapshotInMemory.html" target="_top" xlink:title="Snapshot that stores/fetches its data in/from memory.">
<polygon fill="white" stroke="black" points="132,-127.5 132,-261.5 250,-261.5 250,-127.5 132,-127.5"/>
<text text-anchor="middle" x="191" y="-249.5" font-family="Helvetica,sans-Serif" font-size="10.00">SnapshotInMemory</text>
<polyline fill="none" stroke="black" points="132,-242.5 250,-242.5 "/>
<text text-anchor="middle" x="191" y="-230.5" font-family="Helvetica,sans-Serif" font-size="10.00"> </text>
<polyline fill="none" stroke="black" points="132,-223.5 250,-223.5 "/>
<text text-anchor="start" x="140" y="-211.5" font-family="Helvetica,sans-Serif" font-size="10.00">+ GetExpression()</text>
<text text-anchor="start" x="140" y="-200.5" font-family="Helvetica,sans-Serif" font-size="10.00">+ Exists()</text>
<text text-anchor="start" x="140" y="-189.5" font-family="Helvetica,sans-Serif" font-size="10.00">+ Erase()</text>
<text text-anchor="start" x="140" y="-178.5" font-family="Helvetica,sans-Serif" font-size="10.00">+ IsValid()</text>
<text text-anchor="start" x="140" y="-167.5" font-family="Helvetica,sans-Serif" font-size="10.00">+ FromModelPart()</text>
<text text-anchor="start" x="140" y="-156.5" font-family="Helvetica,sans-Serif" font-size="10.00">+ GetManagerType()</text>
<text text-anchor="start" x="140" y="-145.5" font-family="Helvetica,sans-Serif" font-size="10.00">+ GetInputType()</text>
<text text-anchor="start" x="140" y="-134.5" font-family="Helvetica,sans-Serif" font-size="10.00">+ GetOutputType()</text>
</a>
</g>
</g>
<!-- Node1&#45;&gt;Node5 -->
<g id="edge4" class="edge">
<title>Node1&#45;&gt;Node5</title>
<path fill="none" stroke="midnightblue" d="M160.57,-288.63C163.59,-279.4 166.57,-270.26 169.43,-261.51"/>
<polygon fill="none" stroke="midnightblue" points="157.2,-287.68 157.42,-298.28 163.85,-289.86 157.2,-287.68"/>
</g>
<!-- Node2 -->
<g id="node2" class="node">
<title>Node2</title>
<g id="a_node2"><a xlink:title=" ">
<polygon fill="white" stroke="#bfbfbf" points="86,-535.5 86,-592.5 164,-592.5 164,-535.5 86,-535.5"/>
<text text-anchor="middle" x="125" y="-580.5" font-family="Helvetica,sans-Serif" font-size="10.00">WRAppClass</text>
<polyline fill="none" stroke="#bfbfbf" points="86,-573.5 164,-573.5 "/>
<text text-anchor="middle" x="125" y="-561.5" font-family="Helvetica,sans-Serif" font-size="10.00"> </text>
<polyline fill="none" stroke="#bfbfbf" points="86,-554.5 164,-554.5 "/>
<text text-anchor="middle" x="125" y="-542.5" font-family="Helvetica,sans-Serif" font-size="10.00"> </text>
</a>
</g>
</g>
<!-- Node2&#45;&gt;Node1 -->
<g id="edge1" class="edge">
<title>Node2&#45;&gt;Node1</title>
<path fill="none" stroke="midnightblue" d="M125,-525.04C125,-516.87 125,-507.87 125,-498.55"/>
<polygon fill="none" stroke="midnightblue" points="121.5,-525.26 125,-535.26 128.5,-525.26 121.5,-525.26"/>
</g>
<!-- Node4 -->
<g id="node4" class="node">
<title>Node4</title>
<g id="a_node4"><a xlink:href="classpython__scripts_1_1checkpoint_1_1HDF5Snapshot_1_1HDF5Snapshot.html" target="_top" xlink:title="Class representing a snapshot of a ModelPart state and its associated output file in HDF5 format.">
<polygon fill="white" stroke="black" points="0,-0.5 0,-90.5 118,-90.5 118,-0.5 0,-0.5"/>
<text text-anchor="middle" x="59" y="-78.5" font-family="Helvetica,sans-Serif" font-size="10.00">HDF5Snapshot</text>
<polyline fill="none" stroke="black" points="0,-71.5 118,-71.5 "/>
<text text-anchor="middle" x="59" y="-59.5" font-family="Helvetica,sans-Serif" font-size="10.00"> </text>
<polyline fill="none" stroke="black" points="0,-52.5 118,-52.5 "/>
<text text-anchor="start" x="8" y="-40.5" font-family="Helvetica,sans-Serif" font-size="10.00">+ Erase()</text>
<text text-anchor="start" x="8" y="-29.5" font-family="Helvetica,sans-Serif" font-size="10.00">+ GetManagerType()</text>
<text text-anchor="start" x="8" y="-18.5" font-family="Helvetica,sans-Serif" font-size="10.00">+ GetInputType()</text>
<text text-anchor="start" x="8" y="-7.5" font-family="Helvetica,sans-Serif" font-size="10.00">+ GetOutputType()</text>
</a>
</g>
</g>
<!-- Node3&#45;&gt;Node4 -->
<g id="edge3" class="edge">
<title>Node3&#45;&gt;Node4</title>
<path fill="none" stroke="midnightblue" d="M59,-128.32C59,-115.69 59,-102.73 59,-90.95"/>
<polygon fill="none" stroke="midnightblue" points="55.5,-128.34 59,-138.34 62.5,-128.34 55.5,-128.34"/>
</g>
</g>
</svg>
        <g id="navigator" transform="translate(0 0)" fill="#404254">
                <rect fill="#f2f5e9" fill-opacity="0.5" stroke="#606060" stroke-width=".5" x="0" y="0" width="60" height="60"/>
                <use id="zoomplus" xlink:href="#zoomPlus" x="17" y="9" onmousedown="handleZoom(evt,'in')"/>
                <use id="zoomminus" xlink:href="#zoomMin" x="42" y="9" onmousedown="handleZoom(evt,'out')"/>
                <use id="reset" xlink:href="#resetDef" x="30" y="36" onmousedown="handleReset()"/>
                <g id="arrowUp" xlink:href="#dirArrow" transform="translate(30 24)" onmousedown="handlePan(0,-1)">
                  <use xlink:href="#rim" fill="#404040">
                        <set attributeName="fill" to="#808080" begin="arrowUp.mouseover" end="arrowUp.mouseout"/>
                  </use>
                  <path fill="none" stroke="white" stroke-width="1.5" d="M0,-3.0v7 M-2.5,-0.5L0,-3.0L2.5,-0.5"/>
                </g>
                <g id="arrowRight" xlink:href="#dirArrow" transform="rotate(90) translate(36 -43)" onmousedown="handlePan(1,0)">
                  <use xlink:href="#rim" fill="#404040">
                        <set attributeName="fill" to="#808080" begin="arrowRight.mouseover" end="arrowRight.mouseout"/>
                  </use>
                  <path fill="none" stroke="white" stroke-width="1.5" d="M0,-3.0v7 M-2.5,-0.5L0,-3.0L2.5,-0.5"/>
                </g>
                <g id="arrowDown" xlink:href="#dirArrow" transform="rotate(180) translate(-30 -48)" onmousedown="handlePan(0,1)">
                  <use xlink:href="#rim" fill="#404040">
                        <set attributeName="fill" to="#808080" begin="arrowDown.mouseover" end="arrowDown.mouseout"/>
                  </use>
                  <path fill="none" stroke="white" stroke-width="1.5" d="M0,-3.0v7 M-2.5,-0.5L0,-3.0L2.5,-0.5"/>
                </g>
                <g id="arrowLeft" xlink:href="#dirArrow" transform="rotate(270) translate(-36 17)" onmousedown="handlePan(-1,0)">
                  <use xlink:href="#rim" fill="#404040">
                        <set attributeName="fill" to="#808080" begin="arrowLeft.mouseover" end="arrowLeft.mouseout"/>
                  </use>
                  <path fill="none" stroke="white" stroke-width="1.5" d="M0,-3.0v7 M-2.5,-0.5L0,-3.0L2.5,-0.5"/>
                </g>
        </g>
        <svg viewBox="0 0 15 15" width="100%" height="30px" preserveAspectRatio="xMaxYMin meet">
         <g id="arrow_out" transform="scale(0.3 0.3)">
          <a xlink:href="classpython__scripts_1_1checkpoint_1_1Snapshot_1_1Snapshot__inherit__graph_org.svg" target="_base">
           <rect id="button" ry="5" rx="5" y="6" x="6" height="38" width="38"
                fill="#f2f5e9" fill-opacity="0.5" stroke="#606060" stroke-width="1.0"/>
           <path id="arrow"
             d="M 11.500037,31.436501 C 11.940474,20.09759 22.043105,11.32322 32.158766,21.979434 L 37.068811,17.246167 C 37.068811,17.246167 37.088388,32 37.088388,32 L 22.160133,31.978069 C 22.160133,31.978069 26.997745,27.140456 26.997745,27.140456 C 18.528582,18.264221 13.291696,25.230495 11.500037,31.436501 z"
             style="fill:#404040;"/>
          </a>
         </g>
        </svg>
</svg>
