<?xml version="1.0" encoding="UTF-8" standalone="no"?>
<!DOCTYPE svg PUBLIC "-//W3C//DTD SVG 1.1//EN"
 "http://www.w3.org/Graphics/SVG/1.1/DTD/svg11.dtd">
<!-- Generated by graphviz version 2.43.0 (0)
 -->
<!-- Title: Launch Pages: 1 -->
<svg width="158pt" height="142pt"
 viewBox="0.00 0.00 157.50 142.00" xmlns="http://www.w3.org/2000/svg" xmlns:xlink="http://www.w3.org/1999/xlink">
<g id="graph0" class="graph" transform="scale(1 1) rotate(0) translate(4 138)">
<title>Launch</title>
<!-- Node1 -->
<g id="Node000001" class="node">
<title>Node1</title>
<g id="a_Node000001"><a xlink:title="Set up, execute, and tear down an analysis based on an input JSON file.">
<polygon fill="#999999" stroke="transparent" points="100.5,-49 55.5,-49 55.5,0 100.5,0 100.5,-49"/>
<text text-anchor="start" x="61" y="-36.5" font-family="Helvetica,sans-Serif" font-size="10.00">Launch</text>
<text text-anchor="start" x="76.5" y="-21.5" font-family="Helvetica,sans-Serif" font-size="10.00"> </text>
<text text-anchor="start" x="76.5" y="-6.5" font-family="Helvetica,sans-Serif" font-size="10.00"> </text>
<polygon fill="#666666" stroke="#666666" points="56,-31.5 56,-31.5 101,-31.5 101,-31.5 56,-31.5"/>
<polygon fill="#666666" stroke="#666666" points="56,-16.5 56,-16.5 101,-16.5 101,-16.5 56,-16.5"/>
<polygon fill="none" stroke="#666666" points="55.5,0 55.5,-49 100.5,-49 100.5,0 55.5,0"/>
</a>
</g>
</g>
<!-- Node2 -->
<g id="Node000002" class="node">
<title>Node2</title>
<g id="a_Node000002"><a xlink:title=" ">
<polygon fill="white" stroke="transparent" points="72,-134 0,-134 0,-85 72,-85 72,-134"/>
<text text-anchor="start" x="5" y="-121.5" font-family="Helvetica,sans-Serif" font-size="10.00">WRAppClass</text>
<text text-anchor="start" x="34" y="-106.5" font-family="Helvetica,sans-Serif" font-size="10.00"> </text>
<text text-anchor="start" x="34" y="-91.5" font-family="Helvetica,sans-Serif" font-size="10.00"> </text>
<polygon fill="#666666" stroke="#666666" points="0,-116.5 0,-116.5 72,-116.5 72,-116.5 0,-116.5"/>
<polygon fill="#666666" stroke="#666666" points="0,-101.5 0,-101.5 72,-101.5 72,-101.5 0,-101.5"/>
<polygon fill="none" stroke="#666666" points="0,-85 0,-134 72,-134 72,-85 0,-85"/>
</a>
</g>
</g>
<!-- Node2&#45;&gt;Node1 -->
<g id="edge1_Node000001_Node000002" class="edge">
<title>Node2&#45;&gt;Node1</title>
<g id="a_edge1_Node000001_Node000002"><a xlink:title=" ">
<path fill="none" stroke="#63b8ff" d="M52.49,-75.91C57.02,-66.97 61.83,-57.45 66.05,-49.12"/>
<polygon fill="none" stroke="#63b8ff" points="49.32,-74.43 47.92,-84.94 55.56,-77.6 49.32,-74.43"/>
</a>
</g>
</g>
<!-- Node3 -->
<g id="Node000003" class="node">
<title>Node3</title>
<g id="a_Node000003"><a xlink:title=" ">
<polygon fill="white" stroke="transparent" points="149.5,-134 90.5,-134 90.5,-85 149.5,-85 149.5,-134"/>
<text text-anchor="start" x="96" y="-121.5" font-family="Helvetica,sans-Serif" font-size="10.00">Operation</text>
<text text-anchor="start" x="118.5" y="-106.5" font-family="Helvetica,sans-Serif" font-size="10.00"> </text>
<text text-anchor="start" x="118.5" y="-91.5" font-family="Helvetica,sans-Serif" font-size="10.00"> </text>
<polygon fill="#666666" stroke="#666666" points="91,-116.5 91,-116.5 150,-116.5 150,-116.5 91,-116.5"/>
<polygon fill="#666666" stroke="#666666" points="91,-101.5 91,-101.5 150,-101.5 150,-101.5 91,-101.5"/>
<polygon fill="none" stroke="#666666" points="90.5,-85 90.5,-134 149.5,-134 149.5,-85 90.5,-85"/>
</a>
</g>
</g>
<!-- Node3&#45;&gt;Node1 -->
<g id="edge2_Node000001_Node000003" class="edge">
<title>Node3&#45;&gt;Node1</title>
<g id="a_edge2_Node000001_Node000003"><a xlink:title=" ">
<path fill="none" stroke="#63b8ff" d="M103.51,-75.91C98.98,-66.97 94.17,-57.45 89.95,-49.12"/>
<polygon fill="none" stroke="#63b8ff" points="100.44,-77.6 108.08,-84.94 106.68,-74.43 100.44,-77.6"/>
</a>
</g>
</g>
</g>
</svg>
