<?xml version="1.0" encoding="UTF-8" standalone="no"?>
<!DOCTYPE svg PUBLIC "-//W3C//DTD SVG 1.1//EN"
 "http://www.w3.org/Graphics/SVG/1.1/DTD/svg11.dtd">
<!-- Generated by graphviz version 2.43.0 (0)
 -->
<!-- Title: TimePoint Pages: 1 -->
<svg width="68pt" height="227pt"
 viewBox="0.00 0.00 68.00 227.00" xmlns="http://www.w3.org/2000/svg" xmlns:xlink="http://www.w3.org/1999/xlink">
<g id="graph0" class="graph" transform="scale(1 1) rotate(0) translate(4 223)">
<title>TimePoint</title>
<!-- Node1 -->
<g id="Node000001" class="node">
<title>Node1</title>
<g id="a_Node000001"><a xlink:title=" ">
<polygon fill="#999999" stroke="transparent" points="60,-49 0,-49 0,0 60,0 60,-49"/>
<text text-anchor="start" x="5" y="-36.5" font-family="Helvetica,sans-Serif" font-size="10.00">TimePoint</text>
<text text-anchor="start" x="28" y="-21.5" font-family="Helvetica,sans-Serif" font-size="10.00"> </text>
<text text-anchor="start" x="28" y="-6.5" font-family="Helvetica,sans-Serif" font-size="10.00"> </text>
<polygon fill="#666666" stroke="#666666" points="0,-31.5 0,-31.5 60,-31.5 60,-31.5 0,-31.5"/>
<polygon fill="#666666" stroke="#666666" points="0,-16.5 0,-16.5 60,-16.5 60,-16.5 0,-16.5"/>
<polygon fill="none" stroke="#666666" points="0,0 0,-49 60,-49 60,0 0,0"/>
</a>
</g>
</g>
<!-- Node2 -->
<g id="Node000002" class="node">
<title>Node2</title>
<g id="a_Node000002"><a xlink:href="classpython__scripts_1_1xdmf_1_1Time_1_1Time.html" target="_top" xlink:title=" ">
<polygon fill="white" stroke="transparent" points="47.5,-134 12.5,-134 12.5,-85 47.5,-85 47.5,-134"/>
<text text-anchor="start" x="18" y="-121.5" font-family="Helvetica,sans-Serif" font-size="10.00">Time</text>
<text text-anchor="start" x="28.5" y="-106.5" font-family="Helvetica,sans-Serif" font-size="10.00"> </text>
<text text-anchor="start" x="28.5" y="-91.5" font-family="Helvetica,sans-Serif" font-size="10.00"> </text>
<polygon fill="#666666" stroke="#666666" points="13,-116.5 13,-116.5 48,-116.5 48,-116.5 13,-116.5"/>
<polygon fill="#666666" stroke="#666666" points="13,-101.5 13,-101.5 48,-101.5 48,-101.5 13,-101.5"/>
<polygon fill="none" stroke="#666666" points="12.5,-85 12.5,-134 47.5,-134 47.5,-85 12.5,-85"/>
</a>
</g>
</g>
<!-- Node2&#45;&gt;Node1 -->
<g id="edge1_Node000001_Node000002" class="edge">
<title>Node2&#45;&gt;Node1</title>
<g id="a_edge1_Node000001_Node000002"><a xlink:title=" ">
<path fill="none" stroke="#63b8ff" d="M30,-74.77C30,-66.17 30,-57.1 30,-49.12"/>
<polygon fill="none" stroke="#63b8ff" points="26.5,-74.94 30,-84.94 33.5,-74.94 26.5,-74.94"/>
</a>
</g>
</g>
<!-- Node3 -->
<g id="Node000003" class="node">
<title>Node3</title>
<g id="a_Node000003"><a xlink:title=" ">
<polygon fill="white" stroke="transparent" points="55.5,-219 4.5,-219 4.5,-170 55.5,-170 55.5,-219"/>
<text text-anchor="start" x="10" y="-206.5" font-family="Helvetica,sans-Serif" font-size="10.00">Element</text>
<text text-anchor="start" x="28.5" y="-191.5" font-family="Helvetica,sans-Serif" font-size="10.00"> </text>
<text text-anchor="start" x="28.5" y="-176.5" font-family="Helvetica,sans-Serif" font-size="10.00"> </text>
<polygon fill="#666666" stroke="#666666" points="5,-201.5 5,-201.5 56,-201.5 56,-201.5 5,-201.5"/>
<polygon fill="#666666" stroke="#666666" points="5,-186.5 5,-186.5 56,-186.5 56,-186.5 5,-186.5"/>
<polygon fill="none" stroke="#666666" points="4.5,-170 4.5,-219 55.5,-219 55.5,-170 4.5,-170"/>
</a>
</g>
</g>
<!-- Node3&#45;&gt;Node2 -->
<g id="edge2_Node000002_Node000003" class="edge">
<title>Node3&#45;&gt;Node2</title>
<g id="a_edge2_Node000002_Node000003"><a xlink:title=" ">
<path fill="none" stroke="#63b8ff" d="M30,-159.77C30,-151.17 30,-142.1 30,-134.12"/>
<polygon fill="none" stroke="#63b8ff" points="26.5,-159.94 30,-169.94 33.5,-159.94 26.5,-159.94"/>
</a>
</g>
</g>
</g>
</svg>
