<?xml version="1.0" encoding="UTF-8" standalone="no"?>
<!DOCTYPE svg PUBLIC "-//W3C//DTD SVG 1.1//EN"
 "http://www.w3.org/Graphics/SVG/1.1/DTD/svg11.dtd">
<!-- Generated by graphviz version 2.43.0 (0)
 -->
<!-- Title: DatasetTransform Pages: 1 -->
<svg width="476pt" height="298pt"
 viewBox="0.00 0.00 476.00 298.00" xmlns="http://www.w3.org/2000/svg" xmlns:xlink="http://www.w3.org/1999/xlink">
<g id="graph0" class="graph" transform="scale(1 1) rotate(0) translate(4 294)">
<title>DatasetTransform</title>
<polygon fill="white" stroke="transparent" points="-4,4 -4,-294 472,-294 472,4 -4,4"/>
<!-- Node1 -->
<g id="node1" class="node">
<title>Node1</title>
<g id="a_node1"><a xlink:title="Fetch, transform and assign data between ModelPart s.">
<polygon fill="#bfbfbf" stroke="black" points="162,-116.5 162,-195.5 306,-195.5 306,-116.5 162,-116.5"/>
<text text-anchor="middle" x="234" y="-183.5" font-family="Helvetica,sans-Serif" font-size="10.00">DatasetTransform</text>
<polyline fill="none" stroke="black" points="162,-176.5 306,-176.5 "/>
<text text-anchor="middle" x="234" y="-164.5" font-family="Helvetica,sans-Serif" font-size="10.00"> </text>
<polyline fill="none" stroke="black" points="162,-157.5 306,-157.5 "/>
<text text-anchor="start" x="170" y="-145.5" font-family="Helvetica,sans-Serif" font-size="10.00">+ Execute()</text>
<text text-anchor="start" x="170" y="-134.5" font-family="Helvetica,sans-Serif" font-size="10.00">+ Factory()</text>
<text text-anchor="start" x="170" y="-123.5" font-family="Helvetica,sans-Serif" font-size="10.00">+ GetDefaultParameters()</text>
</a>
</g>
</g>
<!-- Node5 -->
<g id="node5" class="node">
<title>Node5</title>
<g id="a_node5"><a xlink:href="classpython__scripts_1_1coupling_1_1DatasetTransfer_1_1DatasetLookup.html" target="_top" xlink:title="Store, retrieve, and interpolate datasets.">
<polygon fill="white" stroke="black" points="0,-6 0,-74 144,-74 144,-6 0,-6"/>
<text text-anchor="middle" x="72" y="-62" font-family="Helvetica,sans-Serif" font-size="10.00">DatasetLookup</text>
<polyline fill="none" stroke="black" points="0,-55 144,-55 "/>
<text text-anchor="middle" x="72" y="-43" font-family="Helvetica,sans-Serif" font-size="10.00"> </text>
<polyline fill="none" stroke="black" points="0,-36 144,-36 "/>
<text text-anchor="start" x="8" y="-24" font-family="Helvetica,sans-Serif" font-size="10.00">+ Execute()</text>
<text text-anchor="start" x="8" y="-13" font-family="Helvetica,sans-Serif" font-size="10.00">+ GetDefaultParameters()</text>
</a>
</g>
</g>
<!-- Node1&#45;&gt;Node5 -->
<g id="edge4" class="edge">
<title>Node1&#45;&gt;Node5</title>
<path fill="none" stroke="midnightblue" d="M170.79,-110.52C153.52,-98.37 135.13,-85.42 118.95,-74.04"/>
<polygon fill="none" stroke="midnightblue" points="168.96,-113.51 179.15,-116.4 172.99,-107.79 168.96,-113.51"/>
</g>
<!-- Node6 -->
<g id="node6" class="node">
<title>Node6</title>
<g id="a_node6"><a xlink:href="classpython__scripts_1_1coupling_1_1DatasetTransfer_1_1DatasetMap.html" target="_top" xlink:title="DatasetTransform that uses a Mapper to map datasets before assigning them to the target ModelPart.">
<polygon fill="white" stroke="black" points="162,-0.5 162,-79.5 306,-79.5 306,-0.5 162,-0.5"/>
<text text-anchor="middle" x="234" y="-67.5" font-family="Helvetica,sans-Serif" font-size="10.00">DatasetMap</text>
<polyline fill="none" stroke="black" points="162,-60.5 306,-60.5 "/>
<text text-anchor="middle" x="234" y="-48.5" font-family="Helvetica,sans-Serif" font-size="10.00"> </text>
<polyline fill="none" stroke="black" points="162,-41.5 306,-41.5 "/>
<text text-anchor="start" x="170" y="-29.5" font-family="Helvetica,sans-Serif" font-size="10.00">+ Execute()</text>
<text text-anchor="start" x="170" y="-18.5" font-family="Helvetica,sans-Serif" font-size="10.00">+ Factory()</text>
<text text-anchor="start" x="170" y="-7.5" font-family="Helvetica,sans-Serif" font-size="10.00">+ GetDefaultParameters()</text>
</a>
</g>
</g>
<!-- Node1&#45;&gt;Node6 -->
<g id="edge5" class="edge">
<title>Node1&#45;&gt;Node6</title>
<path fill="none" stroke="midnightblue" d="M234,-106.15C234,-97.26 234,-88.1 234,-79.56"/>
<polygon fill="none" stroke="midnightblue" points="230.5,-106.4 234,-116.4 237.5,-106.4 230.5,-106.4"/>
</g>
<!-- Node7 -->
<g id="node7" class="node">
<title>Node7</title>
<g id="a_node7"><a xlink:href="classpython__scripts_1_1coupling_1_1DatasetTransfer_1_1NoOpDatasetTransform.html" target="_top" xlink:title="DatasetTransform that directly assigns fetched datasets without doing anything to them.">
<polygon fill="white" stroke="black" points="324,-6 324,-74 468,-74 468,-6 324,-6"/>
<text text-anchor="middle" x="396" y="-62" font-family="Helvetica,sans-Serif" font-size="10.00">NoOpDatasetTransform</text>
<polyline fill="none" stroke="black" points="324,-55 468,-55 "/>
<text text-anchor="middle" x="396" y="-43" font-family="Helvetica,sans-Serif" font-size="10.00"> </text>
<polyline fill="none" stroke="black" points="324,-36 468,-36 "/>
<text text-anchor="start" x="332" y="-24" font-family="Helvetica,sans-Serif" font-size="10.00">+ Execute()</text>
<text text-anchor="start" x="332" y="-13" font-family="Helvetica,sans-Serif" font-size="10.00">+ GetDefaultParameters()</text>
</a>
</g>
</g>
<!-- Node1&#45;&gt;Node7 -->
<g id="edge6" class="edge">
<title>Node1&#45;&gt;Node7</title>
<path fill="none" stroke="midnightblue" d="M297.21,-110.52C314.48,-98.37 332.87,-85.42 349.05,-74.04"/>
<polygon fill="none" stroke="midnightblue" points="295.01,-107.79 288.85,-116.4 299.04,-113.51 295.01,-107.79"/>
</g>
<!-- Node2 -->
<g id="node2" class="node">
<title>Node2</title>
<g id="a_node2"><a xlink:title=" ">
<polygon fill="white" stroke="#bfbfbf" points="105,-232.5 105,-289.5 183,-289.5 183,-232.5 105,-232.5"/>
<text text-anchor="middle" x="144" y="-277.5" font-family="Helvetica,sans-Serif" font-size="10.00">WRAppClass</text>
<polyline fill="none" stroke="#bfbfbf" points="105,-270.5 183,-270.5 "/>
<text text-anchor="middle" x="144" y="-258.5" font-family="Helvetica,sans-Serif" font-size="10.00"> </text>
<polyline fill="none" stroke="#bfbfbf" points="105,-251.5 183,-251.5 "/>
<text text-anchor="middle" x="144" y="-239.5" font-family="Helvetica,sans-Serif" font-size="10.00"> </text>
</a>
</g>
</g>
<!-- Node2&#45;&gt;Node1 -->
<g id="edge1" class="edge">
<title>Node2&#45;&gt;Node1</title>
<path fill="none" stroke="midnightblue" d="M174.83,-224.72C183.05,-215.31 191.98,-205.09 200.34,-195.52"/>
<polygon fill="none" stroke="midnightblue" points="172.06,-222.56 168.12,-232.4 177.33,-227.17 172.06,-222.56"/>
</g>
<!-- Node3 -->
<g id="node3" class="node">
<title>Node3</title>
<g id="a_node3"><a xlink:title=" ">
<polygon fill="white" stroke="#bfbfbf" points="201.5,-232.5 201.5,-289.5 266.5,-289.5 266.5,-232.5 201.5,-232.5"/>
<text text-anchor="middle" x="234" y="-277.5" font-family="Helvetica,sans-Serif" font-size="10.00">Operation</text>
<polyline fill="none" stroke="#bfbfbf" points="201.5,-270.5 266.5,-270.5 "/>
<text text-anchor="middle" x="234" y="-258.5" font-family="Helvetica,sans-Serif" font-size="10.00"> </text>
<polyline fill="none" stroke="#bfbfbf" points="201.5,-251.5 266.5,-251.5 "/>
<text text-anchor="middle" x="234" y="-239.5" font-family="Helvetica,sans-Serif" font-size="10.00"> </text>
</a>
</g>
</g>
<!-- Node3&#45;&gt;Node1 -->
<g id="edge2" class="edge">
<title>Node3&#45;&gt;Node1</title>
<path fill="none" stroke="midnightblue" d="M234,-222.16C234,-213.47 234,-204.23 234,-195.52"/>
<polygon fill="none" stroke="midnightblue" points="230.5,-222.4 234,-232.4 237.5,-222.4 230.5,-222.4"/>
</g>
<!-- Node4 -->
<g id="node4" class="node">
<title>Node4</title>
<g id="a_node4"><a xlink:title=" ">
<polygon fill="white" stroke="#bfbfbf" points="284.5,-232.5 284.5,-289.5 321.5,-289.5 321.5,-232.5 284.5,-232.5"/>
<text text-anchor="middle" x="303" y="-277.5" font-family="Helvetica,sans-Serif" font-size="10.00">ABC</text>
<polyline fill="none" stroke="#bfbfbf" points="284.5,-270.5 321.5,-270.5 "/>
<text text-anchor="middle" x="303" y="-258.5" font-family="Helvetica,sans-Serif" font-size="10.00"> </text>
<polyline fill="none" stroke="#bfbfbf" points="284.5,-251.5 321.5,-251.5 "/>
<text text-anchor="middle" x="303" y="-239.5" font-family="Helvetica,sans-Serif" font-size="10.00"> </text>
</a>
</g>
</g>
<!-- Node4&#45;&gt;Node1 -->
<g id="edge3" class="edge">
<title>Node4&#45;&gt;Node1</title>
<path fill="none" stroke="midnightblue" d="M278.79,-223.87C272.65,-214.69 266.03,-204.81 259.8,-195.52"/>
<polygon fill="none" stroke="midnightblue" points="276.04,-226.04 284.51,-232.4 281.85,-222.14 276.04,-226.04"/>
</g>
</g>
</svg>
