<?xml version="1.0" encoding="UTF-8" standalone="no"?>
<!DOCTYPE svg PUBLIC "-//W3C//DTD SVG 1.1//EN"
 "http://www.w3.org/Graphics/SVG/1.1/DTD/svg11.dtd">
<!-- Generated by graphviz version 2.43.0 (0)
 -->
<!-- Title: CoupledAsyncSolver.SynchronizeScope Pages: 1 -->
<svg width="186pt" height="453pt"
 viewBox="0.00 0.00 186.00 453.00" xmlns="http://www.w3.org/2000/svg" xmlns:xlink="http://www.w3.org/1999/xlink">
<g id="graph0" class="graph" transform="scale(1 1) rotate(0) translate(4 449)">
<title>CoupledAsyncSolver.SynchronizeScope</title>
<polygon fill="white" stroke="transparent" points="-4,4 -4,-449 182,-449 182,4 -4,4"/>
<!-- Node1 -->
<g id="node1" class="node">
<title>Node1</title>
<g id="a_node1"><a xlink:title=" ">
<polygon fill="#bfbfbf" stroke="black" points="0,-0.5 0,-68.5 178,-68.5 178,-0.5 0,-0.5"/>
<text text-anchor="start" x="8" y="-56.5" font-family="Helvetica,sans-Serif" font-size="10.00">CoupledAsyncSolver.Synchronize</text>
<text text-anchor="middle" x="89" y="-45.5" font-family="Helvetica,sans-Serif" font-size="10.00">Scope</text>
<polyline fill="none" stroke="black" points="0,-38.5 178,-38.5 "/>
<text text-anchor="middle" x="89" y="-26.5" font-family="Helvetica,sans-Serif" font-size="10.00"> </text>
<polyline fill="none" stroke="black" points="0,-19.5 178,-19.5 "/>
<text text-anchor="start" x="8" y="-7.5" font-family="Helvetica,sans-Serif" font-size="10.00">+ WriteInfo()</text>
</a>
</g>
</g>
<!-- Node2 -->
<g id="node2" class="node">
<title>Node2</title>
<g id="a_node2"><a xlink:href="classpython__scripts_1_1async__analysis_1_1AsyncSolver_1_1AsyncSolver_1_1SynchronizeScope.html" target="_top" xlink:title="Embed AsyncSolver._Synchronize in a SolutionStageScope.">
<polygon fill="white" stroke="black" points="5.5,-105.5 5.5,-162.5 172.5,-162.5 172.5,-105.5 5.5,-105.5"/>
<text text-anchor="middle" x="89" y="-150.5" font-family="Helvetica,sans-Serif" font-size="10.00">AsyncSolver.SynchronizeScope</text>
<polyline fill="none" stroke="black" points="5.5,-143.5 172.5,-143.5 "/>
<text text-anchor="middle" x="89" y="-131.5" font-family="Helvetica,sans-Serif" font-size="10.00"> </text>
<polyline fill="none" stroke="black" points="5.5,-124.5 172.5,-124.5 "/>
<text text-anchor="start" x="13.5" y="-112.5" font-family="Helvetica,sans-Serif" font-size="10.00">+ WriteInfo()</text>
</a>
</g>
</g>
<!-- Node2&#45;&gt;Node1 -->
<g id="edge1" class="edge">
<title>Node2&#45;&gt;Node1</title>
<path fill="none" stroke="midnightblue" d="M89,-95.06C89,-86.39 89,-77.24 89,-68.79"/>
<polygon fill="none" stroke="midnightblue" points="85.5,-95.32 89,-105.32 92.5,-95.32 85.5,-95.32"/>
</g>
<!-- Node3 -->
<g id="node3" class="node">
<title>Node3</title>
<g id="a_node3"><a xlink:href="classpython__scripts_1_1async__analysis_1_1AsyncSolver_1_1AsyncSolver_1_1SolverScope.html" target="_top" xlink:title="Embed some part of AsyncSolver in a SolutionStageScope.">
<polygon fill="white" stroke="black" points="19.5,-199.5 19.5,-256.5 158.5,-256.5 158.5,-199.5 19.5,-199.5"/>
<text text-anchor="middle" x="89" y="-244.5" font-family="Helvetica,sans-Serif" font-size="10.00">AsyncSolver.SolverScope</text>
<polyline fill="none" stroke="black" points="19.5,-237.5 158.5,-237.5 "/>
<text text-anchor="middle" x="89" y="-225.5" font-family="Helvetica,sans-Serif" font-size="10.00"> </text>
<polyline fill="none" stroke="black" points="19.5,-218.5 158.5,-218.5 "/>
<text text-anchor="start" x="27.5" y="-206.5" font-family="Helvetica,sans-Serif" font-size="10.00">+ WriteInfo()</text>
</a>
</g>
</g>
<!-- Node3&#45;&gt;Node2 -->
<g id="edge2" class="edge">
<title>Node3&#45;&gt;Node2</title>
<path fill="none" stroke="midnightblue" d="M89,-189.21C89,-180.29 89,-170.95 89,-162.58"/>
<polygon fill="none" stroke="midnightblue" points="85.5,-189.4 89,-199.4 92.5,-189.4 85.5,-189.4"/>
</g>
<!-- Node4 -->
<g id="node4" class="node">
<title>Node4</title>
<g id="a_node4"><a xlink:href="classpython__scripts_1_1async__analysis_1_1SolutionStageScope_1_1SolutionStageScope.html" target="_top" xlink:title="RAII context manager for tasks during solver execution.">
<polygon fill="white" stroke="black" points="32.5,-293.5 32.5,-350.5 145.5,-350.5 145.5,-293.5 32.5,-293.5"/>
<text text-anchor="middle" x="89" y="-338.5" font-family="Helvetica,sans-Serif" font-size="10.00">SolutionStageScope</text>
<polyline fill="none" stroke="black" points="32.5,-331.5 145.5,-331.5 "/>
<text text-anchor="middle" x="89" y="-319.5" font-family="Helvetica,sans-Serif" font-size="10.00"> </text>
<polyline fill="none" stroke="black" points="32.5,-312.5 145.5,-312.5 "/>
<text text-anchor="start" x="40.5" y="-300.5" font-family="Helvetica,sans-Serif" font-size="10.00">+ WriteInfo()</text>
</a>
</g>
</g>
<!-- Node4&#45;&gt;Node3 -->
<g id="edge3" class="edge">
<title>Node4&#45;&gt;Node3</title>
<path fill="none" stroke="midnightblue" d="M89,-283.21C89,-274.29 89,-264.95 89,-256.58"/>
<polygon fill="none" stroke="midnightblue" points="85.5,-283.4 89,-293.4 92.5,-283.4 85.5,-283.4"/>
</g>
<!-- Node5 -->
<g id="node5" class="node">
<title>Node5</title>
<g id="a_node5"><a xlink:title=" ">
<polygon fill="white" stroke="#bfbfbf" points="70.5,-387.5 70.5,-444.5 107.5,-444.5 107.5,-387.5 70.5,-387.5"/>
<text text-anchor="middle" x="89" y="-432.5" font-family="Helvetica,sans-Serif" font-size="10.00">ABC</text>
<polyline fill="none" stroke="#bfbfbf" points="70.5,-425.5 107.5,-425.5 "/>
<text text-anchor="middle" x="89" y="-413.5" font-family="Helvetica,sans-Serif" font-size="10.00"> </text>
<polyline fill="none" stroke="#bfbfbf" points="70.5,-406.5 107.5,-406.5 "/>
<text text-anchor="middle" x="89" y="-394.5" font-family="Helvetica,sans-Serif" font-size="10.00"> </text>
</a>
</g>
</g>
<!-- Node5&#45;&gt;Node4 -->
<g id="edge4" class="edge">
<title>Node5&#45;&gt;Node4</title>
<path fill="none" stroke="midnightblue" d="M89,-377.21C89,-368.29 89,-358.95 89,-350.58"/>
<polygon fill="none" stroke="midnightblue" points="85.5,-377.4 89,-387.4 92.5,-377.4 85.5,-377.4"/>
</g>
</g>
</svg>
