<?xml version="1.0" encoding="UTF-8" standalone="no"?>
<!DOCTYPE svg PUBLIC "-//W3C//DTD SVG 1.1//EN"
 "http://www.w3.org/Graphics/SVG/1.1/DTD/svg11.dtd">
<!-- Generated by graphviz version 2.43.0 (0)
 -->
<!-- Title: HDF5SnapshotIO Pages: 1 -->
<svg width="250pt" height="227pt"
 viewBox="0.00 0.00 249.50 227.00" xmlns="http://www.w3.org/2000/svg" xmlns:xlink="http://www.w3.org/1999/xlink">

<svg id="main" version="1.1" xmlns="http://www.w3.org/2000/svg" xmlns:xlink="http://www.w3.org/1999/xlink" xml:space="preserve" onload="init(evt)">
<style type="text/css"><![CDATA[
.node, .edge {opacity: 0.7;}
.node.selected, .edge.selected {opacity: 1;}
.edge:hover path { stroke: red; }
.edge:hover polygon { stroke: red; fill: red; }
]]></style>
<script type="application/ecmascript" xlink:href="svg.min.js"/>
<svg id="graph" class="graph">
<g id="graph0" class="graph" transform="scale(1 1) rotate(0) translate(4 223)">
<title>HDF5SnapshotIO</title>
<!-- Node1 -->
<g id="Node000001" class="node">
<title>Node1</title>
<g id="a_Node000001"><a xlink:title="Base class with common functionality to writing/loading snapshots to/from disk.">
<polygon fill="#999999" stroke="transparent" points="165,-134 72,-134 72,-85 165,-85 165,-134"/>
<text text-anchor="start" x="77.5" y="-121.5" font-family="Helvetica,sans-Serif" font-size="10.00">HDF5SnapshotIO</text>
<text text-anchor="start" x="117" y="-106.5" font-family="Helvetica,sans-Serif" font-size="10.00"> </text>
<text text-anchor="start" x="117" y="-91.5" font-family="Helvetica,sans-Serif" font-size="10.00"> </text>
<polygon fill="#666666" stroke="#666666" points="72.5,-116.5 72.5,-116.5 165.5,-116.5 165.5,-116.5 72.5,-116.5"/>
<polygon fill="#666666" stroke="#666666" points="72.5,-101.5 72.5,-101.5 165.5,-101.5 165.5,-101.5 72.5,-101.5"/>
<polygon fill="none" stroke="#666666" points="72,-85 72,-134 165,-134 165,-85 72,-85"/>
</a>
</g>
</g>
<!-- Node3 -->
<g id="Node000003" class="node">
<title>Node3</title>
<g id="a_Node000003"><a xlink:href="classHDF5SnapshotInput.html" target="_top" xlink:title="Input class for reading most data from an HDF5 snapshot to a model part.">
<polygon fill="white" stroke="transparent" points="107,-49 0,-49 0,0 107,0 107,-49"/>
<text text-anchor="start" x="5.5" y="-36.5" font-family="Helvetica,sans-Serif" font-size="10.00">HDF5SnapshotInput</text>
<text text-anchor="start" x="52" y="-21.5" font-family="Helvetica,sans-Serif" font-size="10.00"> </text>
<text text-anchor="start" x="52" y="-6.5" font-family="Helvetica,sans-Serif" font-size="10.00"> </text>
<polygon fill="#666666" stroke="#666666" points="0.5,-31.5 0.5,-31.5 107.5,-31.5 107.5,-31.5 0.5,-31.5"/>
<polygon fill="#666666" stroke="#666666" points="0.5,-16.5 0.5,-16.5 107.5,-16.5 107.5,-16.5 0.5,-16.5"/>
<polygon fill="none" stroke="#666666" points="0,0 0,-49 107,-49 107,0 0,0"/>
</a>
</g>
</g>
<!-- Node1&#45;&gt;Node3 -->
<g id="edge2_Node000001_Node000003" class="edge">
<title>Node1&#45;&gt;Node3</title>
<g id="a_edge2_Node000001_Node000003"><a xlink:title=" ">
<path fill="none" stroke="#63b8ff" d="M93.86,-77.03C86.6,-67.77 78.8,-57.8 72,-49.12"/>
<polygon fill="none" stroke="#63b8ff" points="91.13,-79.22 100.05,-84.94 96.64,-74.91 91.13,-79.22"/>
</a>
</g>
</g>
<!-- Node4 -->
<g id="Node000004" class="node">
<title>Node4</title>
<g id="a_Node000004"><a xlink:href="classHDF5SnapshotOutput.html" target="_top" xlink:title="Output class for writing most data in the model part to an HDF5 snapshot.">
<polygon fill="white" stroke="transparent" points="241.5,-49 125.5,-49 125.5,0 241.5,0 241.5,-49"/>
<text text-anchor="start" x="130.5" y="-36.5" font-family="Helvetica,sans-Serif" font-size="10.00">HDF5SnapshotOutput</text>
<text text-anchor="start" x="181.5" y="-21.5" font-family="Helvetica,sans-Serif" font-size="10.00"> </text>
<text text-anchor="start" x="181.5" y="-6.5" font-family="Helvetica,sans-Serif" font-size="10.00"> </text>
<polygon fill="#666666" stroke="#666666" points="125.5,-31.5 125.5,-31.5 241.5,-31.5 241.5,-31.5 125.5,-31.5"/>
<polygon fill="#666666" stroke="#666666" points="125.5,-16.5 125.5,-16.5 241.5,-16.5 241.5,-16.5 125.5,-16.5"/>
<polygon fill="none" stroke="#666666" points="125.5,0 125.5,-49 241.5,-49 241.5,0 125.5,0"/>
</a>
</g>
</g>
<!-- Node1&#45;&gt;Node4 -->
<g id="edge3_Node000001_Node000004" class="edge">
<title>Node1&#45;&gt;Node4</title>
<g id="a_edge3_Node000001_Node000004"><a xlink:title=" ">
<path fill="none" stroke="#63b8ff" d="M143.14,-77.03C150.4,-67.77 158.2,-57.8 165,-49.12"/>
<polygon fill="none" stroke="#63b8ff" points="140.36,-74.91 136.95,-84.94 145.87,-79.22 140.36,-74.91"/>
</a>
</g>
</g>
<!-- Node2 -->
<g id="Node000002" class="node">
<title>Node2</title>
<g id="a_Node000002"><a xlink:title=" ">
<polygon fill="white" stroke="transparent" points="157,-219 80,-219 80,-170 157,-170 157,-219"/>
<text text-anchor="start" x="85.5" y="-206.5" font-family="Helvetica,sans-Serif" font-size="10.00">SnapshotFSIO</text>
<text text-anchor="start" x="117" y="-191.5" font-family="Helvetica,sans-Serif" font-size="10.00"> </text>
<text text-anchor="start" x="117" y="-176.5" font-family="Helvetica,sans-Serif" font-size="10.00"> </text>
<polygon fill="#666666" stroke="#666666" points="80.5,-201.5 80.5,-201.5 157.5,-201.5 157.5,-201.5 80.5,-201.5"/>
<polygon fill="#666666" stroke="#666666" points="80.5,-186.5 80.5,-186.5 157.5,-186.5 157.5,-186.5 80.5,-186.5"/>
<polygon fill="none" stroke="#666666" points="80,-170 80,-219 157,-219 157,-170 80,-170"/>
</a>
</g>
</g>
<!-- Node2&#45;&gt;Node1 -->
<g id="edge1_Node000001_Node000002" class="edge">
<title>Node2&#45;&gt;Node1</title>
<g id="a_edge1_Node000001_Node000002"><a xlink:title=" ">
<path fill="none" stroke="#63b8ff" d="M118.5,-159.77C118.5,-151.17 118.5,-142.1 118.5,-134.12"/>
<polygon fill="none" stroke="#63b8ff" points="115,-159.94 118.5,-169.94 122,-159.94 115,-159.94"/>
</a>
</g>
</g>
</g>
</svg>
</svg>

<style type='text/css'>
<![CDATA[
[data-mouse-over-selected='false'] { opacity: 0.7; }
[data-mouse-over-selected='true']  { opacity: 1.0; }
]]>
</style>
<script type="application/ecmascript"><![CDATA[
document.addEventListener('DOMContentLoaded', (event) => {
  highlightEdges();
  highlightAdjacentNodes();
});
]]></script>
</svg>
