<?xml version="1.0" encoding="UTF-8" standalone="no"?>
<!DOCTYPE svg PUBLIC "-//W3C//DTD SVG 1.1//EN"
 "http://www.w3.org/Graphics/SVG/1.1/DTD/svg11.dtd">
<!-- Generated by graphviz version 2.43.0 (0)
 -->
<!-- Title: UniformDataItem Pages: 1 -->
<svg width="121pt" height="254pt"
 viewBox="0.00 0.00 120.50 254.00" xmlns="http://www.w3.org/2000/svg" xmlns:xlink="http://www.w3.org/1999/xlink">
<g id="graph0" class="graph" transform="scale(1 1) rotate(0) translate(4 250)">
<title>UniformDataItem</title>
<polygon fill="white" stroke="transparent" points="-4,4 -4,-250 116.5,-250 116.5,4 -4,4"/>
<!-- Node1 -->
<g id="node1" class="node">
<title>Node1</title>
<g id="a_node1"><a xlink:title=" ">
<polygon fill="#bfbfbf" stroke="black" points="0,-0.5 0,-57.5 102,-57.5 102,-0.5 0,-0.5"/>
<text text-anchor="middle" x="51" y="-45.5" font-family="Helvetica,sans-Serif" font-size="10.00">UniformDataItem</text>
<polyline fill="none" stroke="black" points="0,-38.5 102,-38.5 "/>
<text text-anchor="middle" x="51" y="-26.5" font-family="Helvetica,sans-Serif" font-size="10.00"> </text>
<polyline fill="none" stroke="black" points="0,-19.5 102,-19.5 "/>
<text text-anchor="middle" x="51" y="-7.5" font-family="Helvetica,sans-Serif" font-size="10.00"> </text>
</a>
</g>
</g>
<!-- Node2 -->
<g id="node2" class="node">
<title>Node2</title>
<g id="a_node2"><a xlink:href="classpython__scripts_1_1xdmf_1_1DataItem_1_1DataItem.html" target="_top" xlink:title=" ">
<polygon fill="white" stroke="black" points="20,-94.5 20,-151.5 82,-151.5 82,-94.5 20,-94.5"/>
<text text-anchor="middle" x="51" y="-139.5" font-family="Helvetica,sans-Serif" font-size="10.00">DataItem</text>
<polyline fill="none" stroke="black" points="20,-132.5 82,-132.5 "/>
<text text-anchor="middle" x="51" y="-120.5" font-family="Helvetica,sans-Serif" font-size="10.00"> </text>
<polyline fill="none" stroke="black" points="20,-113.5 82,-113.5 "/>
<text text-anchor="middle" x="51" y="-101.5" font-family="Helvetica,sans-Serif" font-size="10.00"> </text>
</a>
</g>
</g>
<!-- Node2&#45;&gt;Node1 -->
<g id="edge1" class="edge">
<title>Node2&#45;&gt;Node1</title>
<path fill="none" stroke="midnightblue" d="M51,-84.21C51,-75.29 51,-65.95 51,-57.58"/>
<polygon fill="none" stroke="midnightblue" points="47.5,-84.4 51,-94.4 54.5,-84.4 47.5,-84.4"/>
</g>
<!-- Node3 -->
<g id="node3" class="node">
<title>Node3</title>
<g id="a_node3"><a xlink:title=" ">
<polygon fill="white" stroke="#bfbfbf" points="0.5,-188.5 0.5,-245.5 37.5,-245.5 37.5,-188.5 0.5,-188.5"/>
<text text-anchor="middle" x="19" y="-233.5" font-family="Helvetica,sans-Serif" font-size="10.00">ABC</text>
<polyline fill="none" stroke="#bfbfbf" points="0.5,-226.5 37.5,-226.5 "/>
<text text-anchor="middle" x="19" y="-214.5" font-family="Helvetica,sans-Serif" font-size="10.00"> </text>
<polyline fill="none" stroke="#bfbfbf" points="0.5,-207.5 37.5,-207.5 "/>
<text text-anchor="middle" x="19" y="-195.5" font-family="Helvetica,sans-Serif" font-size="10.00"> </text>
</a>
</g>
</g>
<!-- Node3&#45;&gt;Node2 -->
<g id="edge2" class="edge">
<title>Node3&#45;&gt;Node2</title>
<path fill="none" stroke="midnightblue" d="M31.94,-178.79C35.1,-169.7 38.43,-160.13 41.41,-151.58"/>
<polygon fill="none" stroke="midnightblue" points="28.58,-177.8 28.6,-188.4 35.19,-180.1 28.58,-177.8"/>
</g>
<!-- Node4 -->
<g id="node4" class="node">
<title>Node4</title>
<g id="a_node4"><a xlink:title=" ">
<polygon fill="white" stroke="#bfbfbf" points="55.5,-188.5 55.5,-245.5 112.5,-245.5 112.5,-188.5 55.5,-188.5"/>
<text text-anchor="middle" x="84" y="-233.5" font-family="Helvetica,sans-Serif" font-size="10.00">Element</text>
<polyline fill="none" stroke="#bfbfbf" points="55.5,-226.5 112.5,-226.5 "/>
<text text-anchor="middle" x="84" y="-214.5" font-family="Helvetica,sans-Serif" font-size="10.00"> </text>
<polyline fill="none" stroke="#bfbfbf" points="55.5,-207.5 112.5,-207.5 "/>
<text text-anchor="middle" x="84" y="-195.5" font-family="Helvetica,sans-Serif" font-size="10.00"> </text>
</a>
</g>
</g>
<!-- Node4&#45;&gt;Node2 -->
<g id="edge3" class="edge">
<title>Node4&#45;&gt;Node2</title>
<path fill="none" stroke="midnightblue" d="M70.65,-178.79C67.39,-169.7 63.96,-160.13 60.89,-151.58"/>
<polygon fill="none" stroke="midnightblue" points="67.43,-180.17 74.1,-188.4 74.02,-177.8 67.43,-180.17"/>
</g>
</g>
</svg>
