<?xml version="1.0" encoding="UTF-8" standalone="no"?>
<!DOCTYPE svg PUBLIC "-//W3C//DTD SVG 1.1//EN"
 "http://www.w3.org/Graphics/SVG/1.1/DTD/svg11.dtd">
<!-- Generated by graphviz version 2.43.0 (0)
 -->
<!-- Title: common.hpp Pages: 1 -->
<svg width="710pt" height="140pt"
 viewBox="0.00 0.00 709.50 140.00" xmlns="http://www.w3.org/2000/svg" xmlns:xlink="http://www.w3.org/1999/xlink">
<g id="graph0" class="graph" transform="scale(1 1) rotate(0) translate(4 136)">
<title>common.hpp</title>
<polygon fill="white" stroke="transparent" points="-4,4 -4,-136 705.5,-136 705.5,4 -4,4"/>
<!-- Node1 -->
<g id="node1" class="node">
<title>Node1</title>
<g id="a_node1"><a xlink:title=" ">
<polygon fill="#bfbfbf" stroke="black" points="314.5,-112.5 314.5,-131.5 394.5,-131.5 394.5,-112.5 314.5,-112.5"/>
<text text-anchor="middle" x="354.5" y="-119.5" font-family="Helvetica,sans-Serif" font-size="10.00">common.hpp</text>
</a>
</g>
</g>
<!-- Node2 -->
<g id="node2" class="node">
<title>Node2</title>
<g id="a_node2"><a xlink:href="Hdf5IdToIndexOperation_8hpp.html" target="_top" xlink:title=" ">
<polygon fill="white" stroke="black" points="0,-0.5 0,-19.5 155,-19.5 155,-0.5 0,-0.5"/>
<text text-anchor="middle" x="77.5" y="-7.5" font-family="Helvetica,sans-Serif" font-size="10.00">Hdf5IdToIndexOperation.hpp</text>
</a>
</g>
</g>
<!-- Node1&#45;&gt;Node2 -->
<g id="edge1" class="edge">
<title>Node1&#45;&gt;Node2</title>
<path fill="none" stroke="midnightblue" d="M323.24,-108.59C266.49,-86.05 147.89,-38.95 99.13,-19.59"/>
<polygon fill="midnightblue" stroke="midnightblue" points="322.18,-111.93 332.76,-112.37 324.76,-105.42 322.18,-111.93"/>
</g>
<!-- Node3 -->
<g id="node3" class="node">
<title>Node3</title>
<g id="a_node3"><a xlink:href="Hdf5IndexConnectivitiesOperation_8hpp.html" target="_top" xlink:title=" ">
<polygon fill="white" stroke="black" points="173.5,-0.5 173.5,-19.5 379.5,-19.5 379.5,-0.5 173.5,-0.5"/>
<text text-anchor="middle" x="276.5" y="-7.5" font-family="Helvetica,sans-Serif" font-size="10.00">Hdf5IndexConnectivitiesOperation.hpp</text>
</a>
</g>
</g>
<!-- Node1&#45;&gt;Node3 -->
<g id="edge2" class="edge">
<title>Node1&#45;&gt;Node3</title>
<path fill="none" stroke="midnightblue" d="M330.24,-107.11C318.56,-99.31 305.22,-88.62 296.5,-76 284.28,-58.32 279.33,-32.93 277.48,-19.72"/>
<polygon fill="midnightblue" stroke="midnightblue" points="328.43,-110.11 338.75,-112.49 332.17,-104.19 328.43,-110.11"/>
</g>
<!-- Node4 -->
<g id="node4" class="node">
<title>Node4</title>
<g id="a_node4"><a xlink:href="Hdf5LinSpaceOperation_8hpp.html" target="_top" xlink:title=" ">
<polygon fill="white" stroke="black" points="549.5,-0.5 549.5,-19.5 701.5,-19.5 701.5,-0.5 549.5,-0.5"/>
<text text-anchor="middle" x="625.5" y="-7.5" font-family="Helvetica,sans-Serif" font-size="10.00">Hdf5LinSpaceOperation.hpp</text>
</a>
</g>
</g>
<!-- Node1&#45;&gt;Node4 -->
<g id="edge3" class="edge">
<title>Node1&#45;&gt;Node4</title>
<path fill="none" stroke="midnightblue" d="M373.03,-105.97C391.96,-91.3 422.73,-69.3 452.5,-56 492.03,-38.34 539.85,-26.57 575.18,-19.51"/>
<polygon fill="midnightblue" stroke="midnightblue" points="370.66,-103.39 364.98,-112.33 374.99,-108.88 370.66,-103.39"/>
</g>
<!-- Node5 -->
<g id="node5" class="node">
<title>Node5</title>
<g id="a_node5"><a xlink:href="PatternUtility_8hpp.html" target="_top" xlink:title=" ">
<polygon fill="white" stroke="black" points="461,-56.5 461,-75.5 562,-75.5 562,-56.5 461,-56.5"/>
<text text-anchor="middle" x="511.5" y="-63.5" font-family="Helvetica,sans-Serif" font-size="10.00">PatternUtility.hpp</text>
</a>
</g>
</g>
<!-- Node1&#45;&gt;Node5 -->
<g id="edge4" class="edge">
<title>Node1&#45;&gt;Node5</title>
<path fill="none" stroke="midnightblue" d="M388.89,-109.17C418.45,-99 460.37,-84.59 486.74,-75.52"/>
<polygon fill="midnightblue" stroke="midnightblue" points="387.7,-105.88 379.38,-112.44 389.97,-112.5 387.7,-105.88"/>
</g>
<!-- Node6 -->
<g id="node6" class="node">
<title>Node6</title>
<g id="a_node6"><a xlink:href="WRAppClass_8hpp.html" target="_top" xlink:title=" ">
<polygon fill="white" stroke="black" points="305,-56.5 305,-75.5 404,-75.5 404,-56.5 305,-56.5"/>
<text text-anchor="middle" x="354.5" y="-63.5" font-family="Helvetica,sans-Serif" font-size="10.00">WRAppClass.hpp</text>
</a>
</g>
</g>
<!-- Node1&#45;&gt;Node6 -->
<g id="edge5" class="edge">
<title>Node1&#45;&gt;Node6</title>
<path fill="none" stroke="midnightblue" d="M354.5,-101.8C354.5,-92.91 354.5,-82.78 354.5,-75.75"/>
<polygon fill="midnightblue" stroke="midnightblue" points="351,-102.08 354.5,-112.08 358,-102.08 351,-102.08"/>
</g>
<!-- Node6&#45;&gt;Node2 -->
<g id="edge7" class="edge">
<title>Node6&#45;&gt;Node2</title>
<path fill="none" stroke="midnightblue" d="M300.5,-54.47C248.15,-44.27 169.73,-28.98 121.19,-19.52"/>
<polygon fill="midnightblue" stroke="midnightblue" points="300.12,-57.97 310.61,-56.44 301.46,-51.09 300.12,-57.97"/>
</g>
<!-- Node6&#45;&gt;Node3 -->
<g id="edge8" class="edge">
<title>Node6&#45;&gt;Node3</title>
<path fill="none" stroke="midnightblue" d="M333.73,-50.62C319.48,-40.76 301.04,-27.99 289,-19.65"/>
<polygon fill="midnightblue" stroke="midnightblue" points="331.75,-53.51 341.97,-56.32 335.74,-47.75 331.75,-53.51"/>
</g>
<!-- Node6&#45;&gt;Node4 -->
<g id="edge9" class="edge">
<title>Node6&#45;&gt;Node4</title>
<path fill="none" stroke="midnightblue" d="M407.33,-54.47C458.54,-44.27 535.27,-28.98 582.76,-19.52"/>
<polygon fill="midnightblue" stroke="midnightblue" points="406.56,-51.06 397.44,-56.44 407.93,-57.92 406.56,-51.06"/>
</g>
<!-- Node7 -->
<g id="node7" class="node">
<title>Node7</title>
<g id="a_node7"><a xlink:href="ModelPredicatePipe_8hpp.html" target="_top" xlink:title=" ">
<polygon fill="white" stroke="black" points="397.5,-0.5 397.5,-19.5 531.5,-19.5 531.5,-0.5 397.5,-0.5"/>
<text text-anchor="middle" x="464.5" y="-7.5" font-family="Helvetica,sans-Serif" font-size="10.00">ModelPredicatePipe.hpp</text>
</a>
</g>
</g>
<!-- Node6&#45;&gt;Node7 -->
<g id="edge6" class="edge">
<title>Node6&#45;&gt;Node7</title>
<path fill="none" stroke="midnightblue" d="M381.26,-51.86C401.66,-41.85 429.17,-28.35 446.87,-19.65"/>
<polygon fill="midnightblue" stroke="midnightblue" points="379.61,-48.78 372.17,-56.32 382.69,-55.06 379.61,-48.78"/>
</g>
</g>
</svg>
