<?xml version="1.0" encoding="UTF-8" standalone="no"?>
<!DOCTYPE svg PUBLIC "-//W3C//DTD SVG 1.1//EN"
 "http://www.w3.org/Graphics/SVG/1.1/DTD/svg11.dtd">
<!-- Generated by graphviz version 2.43.0 (0)
 -->
<!-- Title: common.hpp Pages: 1 -->
<svg width="710pt" height="137pt"
 viewBox="0.00 0.00 709.50 137.00" xmlns="http://www.w3.org/2000/svg" xmlns:xlink="http://www.w3.org/1999/xlink">
<g id="graph0" class="graph" transform="scale(1 1) rotate(0) translate(4 133)">
<title>common.hpp</title>
<!-- Node1 -->
<g id="Node000001" class="node">
<title>Node1</title>
<g id="a_Node000001"><a xlink:title=" ">
<polygon fill="#999999" stroke="#666666" points="394.5,-129 314.5,-129 314.5,-110 394.5,-110 394.5,-129"/>
<text text-anchor="middle" x="354.5" y="-117" font-family="Helvetica,sans-Serif" font-size="10.00">common.hpp</text>
</a>
</g>
</g>
<!-- Node2 -->
<g id="Node000002" class="node">
<title>Node2</title>
<g id="a_Node000002"><a xlink:href="Hdf5IdToIndexOperation_8hpp.html" target="_top" xlink:title=" ">
<polygon fill="white" stroke="#666666" points="155,-19 0,-19 0,0 155,0 155,-19"/>
<text text-anchor="middle" x="77.5" y="-7" font-family="Helvetica,sans-Serif" font-size="10.00">Hdf5IdToIndexOperation.hpp</text>
</a>
</g>
</g>
<!-- Node1&#45;&gt;Node2 -->
<g id="edge1_Node000001_Node000002" class="edge">
<title>Node1&#45;&gt;Node2</title>
<g id="a_edge1_Node000001_Node000002"><a xlink:title=" ">
<path fill="none" stroke="#63b8ff" d="M322.75,-106.12C265.92,-83.96 148.21,-38.07 99.42,-19.05"/>
<polygon fill="#63b8ff" stroke="#63b8ff" points="321.71,-109.47 332.3,-109.84 324.25,-102.95 321.71,-109.47"/>
</a>
</g>
</g>
<!-- Node3 -->
<g id="Node000003" class="node">
<title>Node3</title>
<g id="a_Node000003"><a xlink:href="Hdf5IndexConnectivitiesOperation_8hpp.html" target="_top" xlink:title=" ">
<polygon fill="white" stroke="#666666" points="379.5,-19 173.5,-19 173.5,0 379.5,0 379.5,-19"/>
<text text-anchor="middle" x="276.5" y="-7" font-family="Helvetica,sans-Serif" font-size="10.00">Hdf5IndexConnectivitiesOperation.hpp</text>
</a>
</g>
</g>
<!-- Node1&#45;&gt;Node3 -->
<g id="edge2_Node000001_Node000003" class="edge">
<title>Node1&#45;&gt;Node3</title>
<g id="a_edge2_Node000001_Node000003"><a xlink:title=" ">
<path fill="none" stroke="#63b8ff" d="M330.04,-104.64C318.42,-96.95 305.2,-86.43 296.5,-74 284.44,-56.77 279.42,-31.94 277.52,-19.03"/>
<polygon fill="#63b8ff" stroke="#63b8ff" points="328.19,-107.61 338.52,-109.95 331.9,-101.68 328.19,-107.61"/>
</a>
</g>
</g>
<!-- Node4 -->
<g id="Node000004" class="node">
<title>Node4</title>
<g id="a_Node000004"><a xlink:href="Hdf5LinSpaceOperation_8hpp.html" target="_top" xlink:title=" ">
<polygon fill="white" stroke="#666666" points="701.5,-19 549.5,-19 549.5,0 701.5,0 701.5,-19"/>
<text text-anchor="middle" x="625.5" y="-7" font-family="Helvetica,sans-Serif" font-size="10.00">Hdf5LinSpaceOperation.hpp</text>
</a>
</g>
</g>
<!-- Node1&#45;&gt;Node4 -->
<g id="edge3_Node000001_Node000004" class="edge">
<title>Node1&#45;&gt;Node4</title>
<g id="a_edge3_Node000001_Node000004"><a xlink:title=" ">
<path fill="none" stroke="#63b8ff" d="M373.39,-103.59C392.39,-89.27 423.01,-67.94 452.5,-55 491.98,-37.68 539.59,-26.05 574.86,-19.04"/>
<polygon fill="#63b8ff" stroke="#63b8ff" points="371.09,-100.95 365.29,-109.81 375.35,-106.5 371.09,-100.95"/>
</a>
</g>
</g>
<!-- Node5 -->
<g id="Node000005" class="node">
<title>Node5</title>
<g id="a_Node000005"><a xlink:href="PatternUtility_8hpp.html" target="_top" xlink:title=" ">
<polygon fill="white" stroke="#666666" points="562,-74 461,-74 461,-55 562,-55 562,-74"/>
<text text-anchor="middle" x="511.5" y="-62" font-family="Helvetica,sans-Serif" font-size="10.00">PatternUtility.hpp</text>
</a>
</g>
</g>
<!-- Node1&#45;&gt;Node5 -->
<g id="edge4_Node000001_Node000005" class="edge">
<title>Node1&#45;&gt;Node5</title>
<g id="a_edge4_Node000001_Node000005"><a xlink:title=" ">
<path fill="none" stroke="#63b8ff" d="M389.55,-106.67C418.82,-96.79 459.87,-82.93 486.08,-74.08"/>
<polygon fill="#63b8ff" stroke="#63b8ff" points="388.08,-103.47 379.72,-109.98 390.32,-110.1 388.08,-103.47"/>
</a>
</g>
</g>
<!-- Node6 -->
<g id="Node000006" class="node">
<title>Node6</title>
<g id="a_Node000006"><a xlink:href="WRAppClass_8hpp.html" target="_top" xlink:title=" ">
<polygon fill="white" stroke="#666666" points="404,-74 305,-74 305,-55 404,-55 404,-74"/>
<text text-anchor="middle" x="354.5" y="-62" font-family="Helvetica,sans-Serif" font-size="10.00">WRAppClass.hpp</text>
</a>
</g>
</g>
<!-- Node1&#45;&gt;Node6 -->
<g id="edge5_Node000001_Node000006" class="edge">
<title>Node1&#45;&gt;Node6</title>
<g id="a_edge5_Node000001_Node000006"><a xlink:title=" ">
<path fill="none" stroke="#63b8ff" d="M354.5,-99.66C354.5,-90.93 354.5,-80.99 354.5,-74.09"/>
<polygon fill="#63b8ff" stroke="#63b8ff" points="351,-99.75 354.5,-109.75 358,-99.75 351,-99.75"/>
</a>
</g>
</g>
<!-- Node6&#45;&gt;Node2 -->
<g id="edge6_Node000006_Node000002" class="edge">
<title>Node6&#45;&gt;Node2</title>
<g id="a_edge6_Node000006_Node000002"><a xlink:title=" ">
<path fill="none" stroke="#63b8ff" d="M299.96,-53.07C248.03,-43.13 170.81,-28.35 122.35,-19.08"/>
<polygon fill="#63b8ff" stroke="#63b8ff" points="299.52,-56.54 310,-54.98 300.83,-49.67 299.52,-56.54"/>
</a>
</g>
</g>
<!-- Node6&#45;&gt;Node3 -->
<g id="edge7_Node000006_Node000003" class="edge">
<title>Node6&#45;&gt;Node3</title>
<g id="a_edge7_Node000006_Node000003"><a xlink:title=" ">
<path fill="none" stroke="#63b8ff" d="M333.38,-49.15C319.29,-39.57 301.21,-27.29 289.26,-19.17"/>
<polygon fill="#63b8ff" stroke="#63b8ff" points="331.73,-52.26 341.97,-54.98 335.66,-46.47 331.73,-52.26"/>
</a>
</g>
</g>
<!-- Node6&#45;&gt;Node4 -->
<g id="edge8_Node000006_Node000004" class="edge">
<title>Node6&#45;&gt;Node4</title>
<g id="a_edge8_Node000006_Node000004"><a xlink:title=" ">
<path fill="none" stroke="#63b8ff" d="M407.86,-53.07C458.66,-43.13 534.21,-28.35 581.62,-19.08"/>
<polygon fill="#63b8ff" stroke="#63b8ff" points="407.18,-49.63 398.04,-54.98 408.53,-56.5 407.18,-49.63"/>
</a>
</g>
</g>
<!-- Node7 -->
<g id="Node000007" class="node">
<title>Node7</title>
<g id="a_Node000007"><a xlink:href="ModelPredicatePipe_8hpp.html" target="_top" xlink:title=" ">
<polygon fill="white" stroke="#666666" points="531.5,-19 397.5,-19 397.5,0 531.5,0 531.5,-19"/>
<text text-anchor="middle" x="464.5" y="-7" font-family="Helvetica,sans-Serif" font-size="10.00">ModelPredicatePipe.hpp</text>
</a>
</g>
</g>
<!-- Node6&#45;&gt;Node7 -->
<g id="edge9_Node000006_Node000007" class="edge">
<title>Node6&#45;&gt;Node7</title>
<g id="a_edge9_Node000006_Node000007"><a xlink:title=" ">
<path fill="none" stroke="#63b8ff" d="M381.2,-50.63C401.47,-40.87 428.77,-27.71 446.51,-19.17"/>
<polygon fill="#63b8ff" stroke="#63b8ff" points="379.66,-47.49 372.17,-54.98 382.7,-53.8 379.66,-47.49"/>
</a>
</g>
</g>
</g>
</svg>
