<?xml version="1.0" encoding="UTF-8" standalone="no"?>
<!DOCTYPE svg PUBLIC "-//W3C//DTD SVG 1.1//EN"
 "http://www.w3.org/Graphics/SVG/1.1/DTD/svg11.dtd">
<!-- Generated by graphviz version 2.43.0 (0)
 -->
<!-- Title: ContainerProxy.hpp Pages: 1 -->
<!--zoomable 225 -->

<svg id="main" version="1.1" xmlns="http://www.w3.org/2000/svg" xmlns:xlink="http://www.w3.org/1999/xlink" xml:space="preserve" onload="init(evt)">
<style type="text/css"><![CDATA[
.node, .edge {opacity: 0.7;}
.node.selected, .edge.selected {opacity: 1;}
.edge:hover path { stroke: red; }
.edge:hover polygon { stroke: red; fill: red; }
]]></style>

<defs>
  <circle id="rim" cx="0" cy="0" r="7"/>
  <circle id="rim2" cx="0" cy="0" r="3.5"/>
  <g id="zoomPlus">
    <use xlink:href="#rim" fill="#404040"><set attributeName="fill" to="#808080" begin="zoomplus.mouseover" end="zoomplus.mouseout"/></use>
    <path d="M-4,0h8M0,-4v8" fill="none" stroke="white" stroke-width="1.5" pointer-events="none"/>
  </g>
  <g id="zoomMin">
    <use xlink:href="#rim" fill="#404040"><set attributeName="fill" to="#808080" begin="zoomminus.mouseover" end="zoomminus.mouseout"/></use>
    <path d="M-4,0h8" fill="none" stroke="white" stroke-width="1.5" pointer-events="none"/>
  </g>
  <g id="arrowUp" transform="translate(30 24)">
    <use xlink:href="#rim"/>
    <path pointer-events="none" fill="none" stroke="white" stroke-width="1.5" d="M0,-3.0v7 M-2.5,-0.5L0,-3.0L2.5,-0.5"/>
  </g>
  <g id="arrowRight" transform="rotate(90) translate(36 -43)">
    <use xlink:href="#rim"/>
    <path pointer-events="none" fill="none" stroke="white" stroke-width="1.5" d="M0,-3.0v7 M-2.5,-0.5L0,-3.0L2.5,-0.5"/>
  </g>
  <g id="arrowDown" transform="rotate(180) translate(-30 -48)">
    <use xlink:href="#rim"/>
    <path pointer-events="none" fill="none" stroke="white" stroke-width="1.5" d="M0,-3.0v7 M-2.5,-0.5L0,-3.0L2.5,-0.5"/>
  </g>
  <g id="arrowLeft" transform="rotate(270) translate(-36 17)">
    <use xlink:href="#rim"/>
    <path pointer-events="none" fill="none" stroke="white" stroke-width="1.5" d="M0,-3.0v7 M-2.5,-0.5L0,-3.0L2.5,-0.5"/>
  </g>
  <g id="resetDef">
    <use xlink:href="#rim2" fill="#404040"><set attributeName="fill" to="#808080" begin="reset.mouseover" end="reset.mouseout"/></use>
  </g>
</defs>
<script type="application/ecmascript">
var viewWidth = 1181;
var viewHeight = 225;
var sectionId = 'dynsection-0';
</script>
<script type="application/ecmascript" xlink:href="svg.min.js"/>
<svg id="graph" class="graph">
<g id="viewport">
<title>ContainerProxy.hpp</title>
<!-- Node1 -->
<g id="Node000001" class="node">
<title>Node1</title>
<g id="a_Node000001"><a xlink:title=" ">
<polygon fill="#999999" stroke="#666666" points="944,-217 833,-217 833,-198 944,-198 944,-217"/>
<text text-anchor="middle" x="888.5" y="-205" font-family="Helvetica,sans-Serif" font-size="10.00">ContainerProxy.hpp</text>
</a>
</g>
</g>
<!-- Node2 -->
<g id="Node000002" class="node">
<title>Node2</title>
<g id="a_Node000002"><a xlink:title=" ">
<polygon fill="#e0e0e0" stroke="#999999" points="149,-90.5 0,-90.5 0,-71.5 149,-71.5 149,-90.5"/>
<text text-anchor="middle" x="74.5" y="-78.5" font-family="Helvetica,sans-Serif" font-size="10.00">includes/global_variables.h</text>
</a>
</g>
</g>
<!-- Node1&#45;&gt;Node2 -->
<g id="edge1_Node000001_Node000002" class="edge">
<title>Node1&#45;&gt;Node2</title>
<g id="a_edge1_Node000001_Node000002"><a xlink:title=" ">
<path fill="none" stroke="#63b8ff" d="M832.72,-203.59C744.69,-198.46 568.33,-186.01 420.5,-162 308.72,-143.85 179.23,-110.56 114.98,-93.2"/>
<polygon fill="#63b8ff" stroke="#63b8ff" points="115.81,-89.8 105.24,-90.56 113.98,-96.56 115.81,-89.8"/>
</a>
</g>
</g>
<!-- Node3 -->
<g id="Node000003" class="node">
<title>Node3</title>
<g id="a_Node000003"><a xlink:title=" ">
<polygon fill="#e0e0e0" stroke="#999999" points="861.5,-30 733.5,-30 733.5,0 861.5,0 861.5,-30"/>
<text text-anchor="start" x="741.5" y="-18" font-family="Helvetica,sans-Serif" font-size="10.00">includes/kratos_export</text>
<text text-anchor="middle" x="797.5" y="-7" font-family="Helvetica,sans-Serif" font-size="10.00">_api.h</text>
</a>
</g>
</g>
<!-- Node1&#45;&gt;Node3 -->
<g id="edge2_Node000001_Node000003" class="edge">
<title>Node1&#45;&gt;Node3</title>
<g id="a_edge2_Node000001_Node000003"><a xlink:title=" ">
<path fill="none" stroke="#63b8ff" d="M889.6,-197.81C892.1,-174.5 896.09,-109.46 869.5,-66 861.83,-53.47 849.7,-43.27 837.57,-35.44"/>
<polygon fill="#63b8ff" stroke="#63b8ff" points="839.17,-32.32 828.8,-30.15 835.56,-38.31 839.17,-32.32"/>
</a>
</g>
</g>
<!-- Node4 -->
<g id="Node000004" class="node">
<title>Node4</title>
<g id="a_Node000004"><a xlink:title=" ">
<polygon fill="#e0e0e0" stroke="#999999" points="1042,-156.5 917,-156.5 917,-137.5 1042,-137.5 1042,-156.5"/>
<text text-anchor="middle" x="979.5" y="-144.5" font-family="Helvetica,sans-Serif" font-size="10.00">includes/model_part.h</text>
</a>
</g>
</g>
<!-- Node1&#45;&gt;Node4 -->
<g id="edge3_Node000001_Node000004" class="edge">
<title>Node1&#45;&gt;Node4</title>
<g id="a_edge3_Node000001_Node000004"><a xlink:title=" ">
<path fill="none" stroke="#63b8ff" d="M901.93,-197.87C916.58,-188.45 940.26,-173.23 957.6,-162.08"/>
<polygon fill="#63b8ff" stroke="#63b8ff" points="959.5,-165.02 966.02,-156.67 955.71,-159.13 959.5,-165.02"/>
</a>
</g>
</g>
<!-- Node5 -->
<g id="Node000005" class="node">
<title>Node5</title>
<g id="a_Node000005"><a xlink:title=" ">
<polygon fill="#e0e0e0" stroke="#999999" points="1172.5,-162 1060.5,-162 1060.5,-132 1172.5,-132 1172.5,-162"/>
<text text-anchor="start" x="1068.5" y="-150" font-family="Helvetica,sans-Serif" font-size="10.00">utilities/model_part</text>
<text text-anchor="middle" x="1116.5" y="-139" font-family="Helvetica,sans-Serif" font-size="10.00">_utils.h</text>
</a>
</g>
</g>
<!-- Node1&#45;&gt;Node5 -->
<g id="edge4_Node000001_Node000005" class="edge">
<title>Node1&#45;&gt;Node5</title>
<g id="a_edge4_Node000001_Node000005"><a xlink:title=" ">
<path fill="none" stroke="#63b8ff" d="M921.65,-197.99C955.68,-189.26 1009.52,-175.45 1051.98,-164.55"/>
<polygon fill="#63b8ff" stroke="#63b8ff" points="1052.87,-167.94 1061.69,-162.06 1051.13,-161.16 1052.87,-167.94"/>
</a>
</g>
</g>
<!-- Node6 -->
<g id="Node000006" class="node">
<title>Node6</title>
<g id="a_Node000006"><a xlink:href="EntityProxy_8hpp.html" target="_top" xlink:title=" ">
<polygon fill="white" stroke="#666666" points="596,-156.5 429,-156.5 429,-137.5 596,-137.5 596,-156.5"/>
<text text-anchor="middle" x="512.5" y="-144.5" font-family="Helvetica,sans-Serif" font-size="10.00">wrapp/utils/inc/EntityProxy.hpp</text>
</a>
</g>
</g>
<!-- Node1&#45;&gt;Node6 -->
<g id="edge5_Node000001_Node000006" class="edge">
<title>Node1&#45;&gt;Node6</title>
<g id="a_edge5_Node000001_Node000006"><a xlink:title=" ">
<path fill="none" stroke="#63b8ff" d="M833.83,-197.99C765.74,-187.4 649.59,-169.33 577.16,-158.06"/>
<polygon fill="#63b8ff" stroke="#63b8ff" points="577.66,-154.6 567.24,-156.52 576.58,-161.51 577.66,-154.6"/>
</a>
</g>
</g>
<!-- Node6&#45;&gt;Node2 -->
<g id="edge6_Node000006_Node000002" class="edge">
<title>Node6&#45;&gt;Node2</title>
<g id="a_edge6_Node000006_Node000002"><a xlink:title=" ">
<path fill="none" stroke="#63b8ff" d="M450.81,-137.49C380.86,-127.77 263.4,-111.23 162.5,-96 154.25,-94.76 145.58,-93.41 137.02,-92.07"/>
<polygon fill="#63b8ff" stroke="#63b8ff" points="137.48,-88.6 127.06,-90.5 136.39,-95.52 137.48,-88.6"/>
</a>
</g>
</g>
<!-- Node6&#45;&gt;Node3 -->
<g id="edge7_Node000006_Node000003" class="edge">
<title>Node6&#45;&gt;Node3</title>
<g id="a_edge7_Node000006_Node000003"><a xlink:title=" ">
<path fill="none" stroke="#63b8ff" d="M592.05,-137.42C632.25,-130.51 680.62,-118.13 719.5,-96 744.71,-81.65 767.08,-56.77 781.33,-38.56"/>
<polygon fill="#63b8ff" stroke="#63b8ff" points="784.39,-40.31 787.65,-30.23 778.81,-36.08 784.39,-40.31"/>
</a>
</g>
</g>
<!-- Node7 -->
<g id="Node000007" class="node">
<title>Node7</title>
<g id="a_Node000007"><a xlink:title=" ">
<polygon fill="#e0e0e0" stroke="#999999" points="860,-90.5 767,-90.5 767,-71.5 860,-71.5 860,-90.5"/>
<text text-anchor="middle" x="813.5" y="-78.5" font-family="Helvetica,sans-Serif" font-size="10.00">includes/node.h</text>
</a>
</g>
</g>
<!-- Node6&#45;&gt;Node7 -->
<g id="edge8_Node000006_Node000007" class="edge">
<title>Node6&#45;&gt;Node7</title>
<g id="a_edge8_Node000006_Node000007"><a xlink:title=" ">
<path fill="none" stroke="#63b8ff" d="M554.61,-137.5C602.57,-127.75 683.27,-111.15 752.5,-96 757.16,-94.98 762.02,-93.9 766.87,-92.8"/>
<polygon fill="#63b8ff" stroke="#63b8ff" points="767.78,-96.19 776.75,-90.56 766.23,-89.36 767.78,-96.19"/>
</a>
</g>
</g>
<!-- Node8 -->
<g id="Node000008" class="node">
<title>Node8</title>
<g id="a_Node000008"><a xlink:title=" ">
<polygon fill="#e0e0e0" stroke="#999999" points="314.5,-90.5 204.5,-90.5 204.5,-71.5 314.5,-71.5 314.5,-90.5"/>
<text text-anchor="middle" x="259.5" y="-78.5" font-family="Helvetica,sans-Serif" font-size="10.00">includes/element.h</text>
</a>
</g>
</g>
<!-- Node6&#45;&gt;Node8 -->
<g id="edge9_Node000006_Node000008" class="edge">
<title>Node6&#45;&gt;Node8</title>
<g id="a_edge9_Node000006_Node000008"><a xlink:title=" ">
<path fill="none" stroke="#63b8ff" d="M478.64,-137.44C433.29,-125.96 352.78,-105.6 302.99,-93"/>
<polygon fill="#63b8ff" stroke="#63b8ff" points="303.71,-89.57 293.16,-90.51 301.99,-96.36 303.71,-89.57"/>
</a>
</g>
</g>
<!-- Node9 -->
<g id="Node000009" class="node">
<title>Node9</title>
<g id="a_Node000009"><a xlink:title=" ">
<polygon fill="#e0e0e0" stroke="#999999" points="446.5,-90.5 332.5,-90.5 332.5,-71.5 446.5,-71.5 446.5,-90.5"/>
<text text-anchor="middle" x="389.5" y="-78.5" font-family="Helvetica,sans-Serif" font-size="10.00">includes/condition.h</text>
</a>
</g>
</g>
<!-- Node6&#45;&gt;Node9 -->
<g id="edge10_Node000006_Node000009" class="edge">
<title>Node6&#45;&gt;Node9</title>
<g id="a_edge10_Node000006_Node000009"><a xlink:title=" ">
<path fill="none" stroke="#63b8ff" d="M495.91,-137.37C475.19,-126.59 439.5,-108.02 415.22,-95.38"/>
<polygon fill="#63b8ff" stroke="#63b8ff" points="416.7,-92.21 406.22,-90.7 413.47,-98.42 416.7,-92.21"/>
</a>
</g>
</g>
<!-- Node10 -->
<g id="Node000010" class="node">
<title>Node10</title>
<g id="a_Node000010"><a xlink:title=" ">
<polygon fill="#e0e0e0" stroke="#999999" points="560.5,-96 464.5,-96 464.5,-66 560.5,-66 560.5,-96"/>
<text text-anchor="start" x="472.5" y="-84" font-family="Helvetica,sans-Serif" font-size="10.00">utilities/variable</text>
<text text-anchor="middle" x="512.5" y="-73" font-family="Helvetica,sans-Serif" font-size="10.00">_utils.h</text>
</a>
</g>
</g>
<!-- Node6&#45;&gt;Node10 -->
<g id="edge11_Node000006_Node000010" class="edge">
<title>Node6&#45;&gt;Node10</title>
<g id="a_edge11_Node000006_Node000010"><a xlink:title=" ">
<path fill="none" stroke="#63b8ff" d="M512.5,-137.37C512.5,-129.49 512.5,-117.45 512.5,-106.6"/>
<polygon fill="#63b8ff" stroke="#63b8ff" points="516,-106.36 512.5,-96.36 509,-106.36 516,-106.36"/>
</a>
</g>
</g>
<!-- Node11 -->
<g id="Node000011" class="node">
<title>Node11</title>
<g id="a_Node000011"><a xlink:href="OptionalRef_8hpp.html" target="_top" xlink:title=" ">
<polygon fill="white" stroke="#666666" points="710.5,-96 578.5,-96 578.5,-66 710.5,-66 710.5,-96"/>
<text text-anchor="start" x="586.5" y="-84" font-family="Helvetica,sans-Serif" font-size="10.00">wrapp/utils/inc/Optional</text>
<text text-anchor="middle" x="644.5" y="-73" font-family="Helvetica,sans-Serif" font-size="10.00">Ref.hpp</text>
</a>
</g>
</g>
<!-- Node6&#45;&gt;Node11 -->
<g id="edge12_Node000006_Node000011" class="edge">
<title>Node6&#45;&gt;Node11</title>
<g id="a_edge12_Node000006_Node000011"><a xlink:title=" ">
<path fill="none" stroke="#63b8ff" d="M530.3,-137.37C549.65,-127.99 581.14,-112.72 606.15,-100.59"/>
<polygon fill="#63b8ff" stroke="#63b8ff" points="607.92,-103.63 615.39,-96.12 604.86,-97.33 607.92,-103.63"/>
</a>
</g>
</g>
<!-- Node13 -->
<g id="Node000013" class="node">
<title>Node13</title>
<g id="a_Node000013"><a xlink:title=" ">
<polygon fill="#e0e0e0" stroke="#999999" points="355,-24.5 286,-24.5 286,-5.5 355,-5.5 355,-24.5"/>
<text text-anchor="middle" x="320.5" y="-12.5" font-family="Helvetica,sans-Serif" font-size="10.00">type_traits</text>
</a>
</g>
</g>
<!-- Node6&#45;&gt;Node13 -->
<g id="edge18_Node000006_Node000013" class="edge">
<title>Node6&#45;&gt;Node13</title>
<g id="a_edge18_Node000006_Node000013"><a xlink:title=" ">
<path fill="none" stroke="#63b8ff" d="M428.68,-144.65C345.08,-141.32 224.96,-130.47 195.5,-96 167.51,-63.25 229.43,-39.15 275.73,-26.37"/>
<polygon fill="#63b8ff" stroke="#63b8ff" points="276.87,-29.69 285.63,-23.74 275.07,-22.93 276.87,-29.69"/>
</a>
</g>
</g>
<!-- Node11&#45;&gt;Node3 -->
<g id="edge13_Node000011_Node000003" class="edge">
<title>Node11&#45;&gt;Node3</title>
<g id="a_edge13_Node000011_Node000003"><a xlink:title=" ">
<path fill="none" stroke="#63b8ff" d="M678.08,-65.95C700.6,-56.53 730.46,-44.04 754.68,-33.91"/>
<polygon fill="#63b8ff" stroke="#63b8ff" points="756.13,-37.1 764,-30.01 753.43,-30.64 756.13,-37.1"/>
</a>
</g>
</g>
<!-- Node12 -->
<g id="Node000012" class="node">
<title>Node12</title>
<g id="a_Node000012"><a xlink:title=" ">
<polygon fill="#e0e0e0" stroke="#999999" points="653,-24.5 536,-24.5 536,-5.5 653,-5.5 653,-24.5"/>
<text text-anchor="middle" x="594.5" y="-12.5" font-family="Helvetica,sans-Serif" font-size="10.00">includes/exception.h</text>
</a>
</g>
</g>
<!-- Node11&#45;&gt;Node12 -->
<g id="edge14_Node000011_Node000012" class="edge">
<title>Node11&#45;&gt;Node12</title>
<g id="a_edge14_Node000011_Node000012"><a xlink:title=" ">
<path fill="none" stroke="#63b8ff" d="M633.4,-65.8C625.84,-56.11 615.78,-43.24 607.79,-33.01"/>
<polygon fill="#63b8ff" stroke="#63b8ff" points="610.32,-30.57 601.41,-24.84 604.81,-34.88 610.32,-30.57"/>
</a>
</g>
</g>
<!-- Node11&#45;&gt;Node13 -->
<g id="edge15_Node000011_Node000013" class="edge">
<title>Node11&#45;&gt;Node13</title>
<g id="a_edge15_Node000011_Node000013"><a xlink:title=" ">
<path fill="none" stroke="#63b8ff" d="M578.15,-66.89C514.54,-54.33 420.26,-35.71 365.13,-24.82"/>
<polygon fill="#63b8ff" stroke="#63b8ff" points="365.8,-21.38 355.31,-22.88 364.44,-28.25 365.8,-21.38"/>
</a>
</g>
</g>
<!-- Node14 -->
<g id="Node000014" class="node">
<title>Node14</title>
<g id="a_Node000014"><a xlink:title=" ">
<polygon fill="#e0e0e0" stroke="#999999" points="715.5,-24.5 671.5,-24.5 671.5,-5.5 715.5,-5.5 715.5,-24.5"/>
<text text-anchor="middle" x="693.5" y="-12.5" font-family="Helvetica,sans-Serif" font-size="10.00">bitset</text>
</a>
</g>
</g>
<!-- Node11&#45;&gt;Node14 -->
<g id="edge16_Node000011_Node000014" class="edge">
<title>Node11&#45;&gt;Node14</title>
<g id="a_edge16_Node000011_Node000014"><a xlink:title=" ">
<path fill="none" stroke="#63b8ff" d="M655.37,-65.8C662.79,-56.11 672.64,-43.24 680.48,-33.01"/>
<polygon fill="#63b8ff" stroke="#63b8ff" points="683.43,-34.91 686.73,-24.84 677.87,-30.66 683.43,-34.91"/>
</a>
</g>
</g>
<!-- Node15 -->
<g id="Node000015" class="node">
<title>Node15</title>
<g id="a_Node000015"><a xlink:title=" ">
<polygon fill="#e0e0e0" stroke="#999999" points="517.5,-24.5 467.5,-24.5 467.5,-5.5 517.5,-5.5 517.5,-24.5"/>
<text text-anchor="middle" x="492.5" y="-12.5" font-family="Helvetica,sans-Serif" font-size="10.00">cstdint</text>
</a>
</g>
</g>
<!-- Node11&#45;&gt;Node15 -->
<g id="edge17_Node000011_Node000015" class="edge">
<title>Node11&#45;&gt;Node15</title>
<g id="a_edge17_Node000011_Node000015"><a xlink:title=" ">
<path fill="none" stroke="#63b8ff" d="M611.14,-65.95C584.6,-54.78 547.81,-39.29 522.26,-28.53"/>
<polygon fill="#63b8ff" stroke="#63b8ff" points="523.3,-25.17 512.73,-24.52 520.59,-31.62 523.3,-25.17"/>
</a>
</g>
</g>
</g>
</svg>

<g id="navigator" transform="translate(0 0)" fill="#404254">
  <rect fill="#f2f5e9" fill-opacity="0.5" stroke="#606060" stroke-width=".5" x="0" y="0" width="60" height="60"/>
  <use id="zoomplus" xlink:href="#zoomPlus" x="17" y="9" onmousedown="handleZoom(evt,'in')"/>
  <use id="zoomminus" xlink:href="#zoomMin" x="42" y="9" onmousedown="handleZoom(evt,'out')"/>
  <use id="reset" xlink:href="#resetDef" x="30" y="36" onmousedown="handleReset()"/>
   <use id="arrowup" xlink:href="#arrowUp" x="0" y="0" onmousedown="handlePan(0,-1)"/>
  <use id="arrowright" xlink:href="#arrowRight" x="0" y="0" onmousedown="handlePan(1,0)"/>
  <use id="arrowdown" xlink:href="#arrowDown" x="0" y="0" onmousedown="handlePan(0,1)"/>
  <use id="arrowleft" xlink:href="#arrowLeft" x="0" y="0" onmousedown="handlePan(-1,0)"/>
</g>
<svg viewBox="0 0 15 15" width="100%" height="30px" preserveAspectRatio="xMaxYMin meet">
 <g id="arrow_out" transform="scale(0.3 0.3)">
  <a xlink:href="ContainerProxy_8hpp__incl_org.svg" target="_base">
   <rect id="button" ry="5" rx="5" y="6" x="6" height="38" width="38"
        fill="#f2f5e9" fill-opacity="0.5" stroke="#606060" stroke-width="1.0"/>
   <path id="arrow"
     d="M 11.500037,31.436501 C 11.940474,20.09759 22.043105,11.32322 32.158766,21.979434 L 37.068811,17.246167 C 37.068811,17.246167 37.088388,32 37.088388,32 L 22.160133,31.978069 C 22.160133,31.978069 26.997745,27.140456 26.997745,27.140456 C 18.528582,18.264221 13.291696,25.230495 11.500037,31.436501 z"
     style="fill:#404040;"/>
  </a>
 </g>
</svg>

<style type='text/css'>
<![CDATA[
[data-mouse-over-selected='false'] { opacity: 0.7; }
[data-mouse-over-selected='true']  { opacity: 1.0; }
]]>
</style>
<script type="application/ecmascript"><![CDATA[
document.addEventListener('DOMContentLoaded', (event) => {
  highlightEdges();
  highlightAdjacentNodes();
});
]]></script>
</svg>
