<?xml version="1.0" encoding="UTF-8" standalone="no"?>
<!DOCTYPE svg PUBLIC "-//W3C//DTD SVG 1.1//EN"
 "http://www.w3.org/Graphics/SVG/1.1/DTD/svg11.dtd">
<!-- Generated by graphviz version 2.43.0 (0)
 -->
<!-- Title: ContainerProxy.hpp Pages: 1 -->
<svg width="1181pt" height="229pt"
 viewBox="0.00 0.00 1180.50 229.00" xmlns="http://www.w3.org/2000/svg" xmlns:xlink="http://www.w3.org/1999/xlink">
<g id="graph0" class="graph" transform="scale(1 1) rotate(0) translate(4 225)">
<title>ContainerProxy.hpp</title>
<polygon fill="white" stroke="transparent" points="-4,4 -4,-225 1176.5,-225 1176.5,4 -4,4"/>
<!-- Node1 -->
<g id="node1" class="node">
<title>Node1</title>
<g id="a_node1"><a xlink:title=" ">
<polygon fill="#bfbfbf" stroke="black" points="833,-201.5 833,-220.5 944,-220.5 944,-201.5 833,-201.5"/>
<text text-anchor="middle" x="888.5" y="-208.5" font-family="Helvetica,sans-Serif" font-size="10.00">ContainerProxy.hpp</text>
</a>
</g>
</g>
<!-- Node2 -->
<g id="node2" class="node">
<title>Node2</title>
<g id="a_node2"><a xlink:title=" ">
<polygon fill="white" stroke="#bfbfbf" points="0,-73 0,-92 149,-92 149,-73 0,-73"/>
<text text-anchor="middle" x="74.5" y="-80" font-family="Helvetica,sans-Serif" font-size="10.00">includes/global_variables.h</text>
</a>
</g>
</g>
<!-- Node1&#45;&gt;Node2 -->
<g id="edge1" class="edge">
<title>Node1&#45;&gt;Node2</title>
<path fill="none" stroke="midnightblue" d="M832.71,-207.09C744.66,-201.94 568.28,-189.39 420.5,-165 308.37,-146.49 178.53,-112.44 114.47,-94.78"/>
<polygon fill="midnightblue" stroke="midnightblue" points="115.34,-91.39 104.77,-92.09 113.47,-98.14 115.34,-91.39"/>
</g>
<!-- Node3 -->
<g id="node3" class="node">
<title>Node3</title>
<g id="a_node3"><a xlink:title=" ">
<polygon fill="white" stroke="#bfbfbf" points="733.5,-0.5 733.5,-30.5 861.5,-30.5 861.5,-0.5 733.5,-0.5"/>
<text text-anchor="start" x="741.5" y="-18.5" font-family="Helvetica,sans-Serif" font-size="10.00">includes/kratos_export</text>
<text text-anchor="middle" x="797.5" y="-7.5" font-family="Helvetica,sans-Serif" font-size="10.00">_api.h</text>
</a>
</g>
</g>
<!-- Node1&#45;&gt;Node3 -->
<g id="edge2" class="edge">
<title>Node1&#45;&gt;Node3</title>
<path fill="none" stroke="midnightblue" d="M889.6,-201.5C892.18,-178.1 896.53,-111.53 869.5,-67 861.79,-54.29 849.52,-43.95 837.29,-36"/>
<polygon fill="midnightblue" stroke="midnightblue" points="838.82,-32.84 828.45,-30.64 835.19,-38.82 838.82,-32.84"/>
</g>
<!-- Node4 -->
<g id="node4" class="node">
<title>Node4</title>
<g id="a_node4"><a xlink:title=" ">
<polygon fill="white" stroke="#bfbfbf" points="917,-140 917,-159 1042,-159 1042,-140 917,-140"/>
<text text-anchor="middle" x="979.5" y="-147" font-family="Helvetica,sans-Serif" font-size="10.00">includes/model_part.h</text>
</a>
</g>
</g>
<!-- Node1&#45;&gt;Node4 -->
<g id="edge3" class="edge">
<title>Node1&#45;&gt;Node4</title>
<path fill="none" stroke="midnightblue" d="M901.54,-201.48C916.27,-191.84 940.47,-176.02 958.01,-164.55"/>
<polygon fill="midnightblue" stroke="midnightblue" points="960.03,-167.41 966.49,-159.01 956.2,-161.55 960.03,-167.41"/>
</g>
<!-- Node5 -->
<g id="node5" class="node">
<title>Node5</title>
<g id="a_node5"><a xlink:title=" ">
<polygon fill="white" stroke="#bfbfbf" points="1060.5,-134.5 1060.5,-164.5 1172.5,-164.5 1172.5,-134.5 1060.5,-134.5"/>
<text text-anchor="start" x="1068.5" y="-152.5" font-family="Helvetica,sans-Serif" font-size="10.00">utilities/model_part</text>
<text text-anchor="middle" x="1116.5" y="-141.5" font-family="Helvetica,sans-Serif" font-size="10.00">_utils.h</text>
</a>
</g>
</g>
<!-- Node1&#45;&gt;Node5 -->
<g id="edge4" class="edge">
<title>Node1&#45;&gt;Node5</title>
<path fill="none" stroke="midnightblue" d="M921.17,-201.48C955.44,-192.53 1010.17,-178.25 1052.99,-167.07"/>
<polygon fill="midnightblue" stroke="midnightblue" points="1053.97,-170.43 1062.76,-164.52 1052.21,-163.66 1053.97,-170.43"/>
</g>
<!-- Node6 -->
<g id="node6" class="node">
<title>Node6</title>
<g id="a_node6"><a xlink:href="EntityProxy_8hpp.html" target="_top" xlink:title=" ">
<polygon fill="white" stroke="black" points="429,-140 429,-159 596,-159 596,-140 429,-140"/>
<text text-anchor="middle" x="512.5" y="-147" font-family="Helvetica,sans-Serif" font-size="10.00">wrapp/utils/inc/EntityProxy.hpp</text>
</a>
</g>
</g>
<!-- Node1&#45;&gt;Node6 -->
<g id="edge5" class="edge">
<title>Node1&#45;&gt;Node6</title>
<path fill="none" stroke="midnightblue" d="M834.63,-201.48C766.36,-190.67 648.86,-172.08 576.21,-160.58"/>
<polygon fill="midnightblue" stroke="midnightblue" points="576.7,-157.12 566.27,-159.01 575.6,-164.03 576.7,-157.12"/>
</g>
<!-- Node6&#45;&gt;Node2 -->
<g id="edge6" class="edge">
<title>Node6&#45;&gt;Node2</title>
<path fill="none" stroke="midnightblue" d="M450.8,-139.98C380.84,-130.23 263.37,-113.59 162.5,-98 153.72,-96.64 144.45,-95.17 135.35,-93.69"/>
<polygon fill="midnightblue" stroke="midnightblue" points="135.63,-90.19 125.19,-92.03 134.5,-97.1 135.63,-90.19"/>
</g>
<!-- Node6&#45;&gt;Node3 -->
<g id="edge7" class="edge">
<title>Node6&#45;&gt;Node3</title>
<path fill="none" stroke="midnightblue" d="M591.64,-139.93C631.97,-132.98 680.57,-120.46 719.5,-98 745.13,-83.21 767.67,-57.5 781.85,-38.9"/>
<polygon fill="midnightblue" stroke="midnightblue" points="784.8,-40.79 787.93,-30.67 779.17,-36.63 784.8,-40.79"/>
</g>
<!-- Node7 -->
<g id="node7" class="node">
<title>Node7</title>
<g id="a_node7"><a xlink:title=" ">
<polygon fill="white" stroke="#bfbfbf" points="767,-73 767,-92 860,-92 860,-73 767,-73"/>
<text text-anchor="middle" x="813.5" y="-80" font-family="Helvetica,sans-Serif" font-size="10.00">includes/node.h</text>
</a>
</g>
</g>
<!-- Node6&#45;&gt;Node7 -->
<g id="edge8" class="edge">
<title>Node6&#45;&gt;Node7</title>
<path fill="none" stroke="midnightblue" d="M554.63,-139.98C602.61,-130.2 683.32,-113.5 752.5,-98 757.61,-96.85 762.96,-95.63 768.27,-94.39"/>
<polygon fill="midnightblue" stroke="midnightblue" points="769.44,-97.71 778.38,-92.01 767.84,-90.9 769.44,-97.71"/>
</g>
<!-- Node8 -->
<g id="node8" class="node">
<title>Node8</title>
<g id="a_node8"><a xlink:title=" ">
<polygon fill="white" stroke="#bfbfbf" points="204.5,-73 204.5,-92 314.5,-92 314.5,-73 204.5,-73"/>
<text text-anchor="middle" x="259.5" y="-80" font-family="Helvetica,sans-Serif" font-size="10.00">includes/element.h</text>
</a>
</g>
</g>
<!-- Node6&#45;&gt;Node8 -->
<g id="edge9" class="edge">
<title>Node6&#45;&gt;Node8</title>
<path fill="none" stroke="midnightblue" d="M479.16,-139.94C433.85,-128.29 352.74,-107.45 302.77,-94.62"/>
<polygon fill="midnightblue" stroke="midnightblue" points="303.47,-91.18 292.91,-92.08 301.72,-97.96 303.47,-91.18"/>
</g>
<!-- Node9 -->
<g id="node9" class="node">
<title>Node9</title>
<g id="a_node9"><a xlink:title=" ">
<polygon fill="white" stroke="#bfbfbf" points="332.5,-73 332.5,-92 446.5,-92 446.5,-73 332.5,-73"/>
<text text-anchor="middle" x="389.5" y="-80" font-family="Helvetica,sans-Serif" font-size="10.00">includes/condition.h</text>
</a>
</g>
</g>
<!-- Node6&#45;&gt;Node9 -->
<g id="edge10" class="edge">
<title>Node6&#45;&gt;Node9</title>
<path fill="none" stroke="midnightblue" d="M496.17,-139.87C475.4,-128.89 439.31,-109.82 414.93,-96.94"/>
<polygon fill="midnightblue" stroke="midnightblue" points="416.38,-93.75 405.9,-92.17 413.11,-99.93 416.38,-93.75"/>
</g>
<!-- Node10 -->
<g id="node10" class="node">
<title>Node10</title>
<g id="a_node10"><a xlink:title=" ">
<polygon fill="white" stroke="#bfbfbf" points="464.5,-67.5 464.5,-97.5 560.5,-97.5 560.5,-67.5 464.5,-67.5"/>
<text text-anchor="start" x="472.5" y="-85.5" font-family="Helvetica,sans-Serif" font-size="10.00">utilities/variable</text>
<text text-anchor="middle" x="512.5" y="-74.5" font-family="Helvetica,sans-Serif" font-size="10.00">_utils.h</text>
</a>
</g>
</g>
<!-- Node6&#45;&gt;Node10 -->
<g id="edge11" class="edge">
<title>Node6&#45;&gt;Node10</title>
<path fill="none" stroke="midnightblue" d="M512.5,-139.73C512.5,-131.54 512.5,-118.92 512.5,-107.71"/>
<polygon fill="midnightblue" stroke="midnightblue" points="516,-107.59 512.5,-97.59 509,-107.59 516,-107.59"/>
</g>
<!-- Node11 -->
<g id="node11" class="node">
<title>Node11</title>
<g id="a_node11"><a xlink:href="OptionalRef_8hpp.html" target="_top" xlink:title=" ">
<polygon fill="white" stroke="black" points="578.5,-67.5 578.5,-97.5 710.5,-97.5 710.5,-67.5 578.5,-67.5"/>
<text text-anchor="start" x="586.5" y="-85.5" font-family="Helvetica,sans-Serif" font-size="10.00">wrapp/utils/inc/Optional</text>
<text text-anchor="middle" x="644.5" y="-74.5" font-family="Helvetica,sans-Serif" font-size="10.00">Ref.hpp</text>
</a>
</g>
</g>
<!-- Node6&#45;&gt;Node11 -->
<g id="edge12" class="edge">
<title>Node6&#45;&gt;Node11</title>
<path fill="none" stroke="midnightblue" d="M530.03,-139.87C549.43,-130.31 581.29,-114.63 606.47,-102.22"/>
<polygon fill="midnightblue" stroke="midnightblue" points="608.34,-105.21 615.76,-97.65 605.24,-98.93 608.34,-105.21"/>
</g>
<!-- Node13 -->
<g id="node13" class="node">
<title>Node13</title>
<g id="a_node13"><a xlink:title=" ">
<polygon fill="white" stroke="#bfbfbf" points="286,-6 286,-25 355,-25 355,-6 286,-6"/>
<text text-anchor="middle" x="320.5" y="-13" font-family="Helvetica,sans-Serif" font-size="10.00">type_traits</text>
</a>
</g>
</g>
<!-- Node6&#45;&gt;Node13 -->
<g id="edge18" class="edge">
<title>Node6&#45;&gt;Node13</title>
<path fill="none" stroke="midnightblue" d="M428.68,-147.01C345.07,-143.54 224.94,-132.5 195.5,-98 167.3,-64.95 229.68,-40.23 276.08,-27.11"/>
<polygon fill="midnightblue" stroke="midnightblue" points="277.26,-30.41 285.99,-24.4 275.42,-23.66 277.26,-30.41"/>
</g>
<!-- Node11&#45;&gt;Node3 -->
<g id="edge13" class="edge">
<title>Node11&#45;&gt;Node3</title>
<path fill="none" stroke="midnightblue" d="M677.7,-67.4C700.35,-57.77 730.57,-44.94 754.98,-34.56"/>
<polygon fill="midnightblue" stroke="midnightblue" points="756.53,-37.71 764.37,-30.58 753.79,-31.27 756.53,-37.71"/>
</g>
<!-- Node12 -->
<g id="node12" class="node">
<title>Node12</title>
<g id="a_node12"><a xlink:title=" ">
<polygon fill="white" stroke="#bfbfbf" points="536,-6 536,-25 653,-25 653,-6 536,-6"/>
<text text-anchor="middle" x="594.5" y="-13" font-family="Helvetica,sans-Serif" font-size="10.00">includes/exception.h</text>
</a>
</g>
</g>
<!-- Node11&#45;&gt;Node12 -->
<g id="edge14" class="edge">
<title>Node11&#45;&gt;Node12</title>
<path fill="none" stroke="midnightblue" d="M633.65,-67.4C625.93,-57.36 615.53,-43.84 607.39,-33.25"/>
<polygon fill="midnightblue" stroke="midnightblue" points="610.06,-30.99 601.19,-25.19 604.51,-35.25 610.06,-30.99"/>
</g>
<!-- Node11&#45;&gt;Node13 -->
<g id="edge15" class="edge">
<title>Node11&#45;&gt;Node13</title>
<path fill="none" stroke="midnightblue" d="M578.15,-68.19C514.54,-55.43 420.26,-36.51 365.13,-25.45"/>
<polygon fill="midnightblue" stroke="midnightblue" points="365.8,-22.02 355.31,-23.48 364.43,-28.88 365.8,-22.02"/>
</g>
<!-- Node14 -->
<g id="node14" class="node">
<title>Node14</title>
<g id="a_node14"><a xlink:title=" ">
<polygon fill="white" stroke="#bfbfbf" points="671.5,-6 671.5,-25 715.5,-25 715.5,-6 671.5,-6"/>
<text text-anchor="middle" x="693.5" y="-13" font-family="Helvetica,sans-Serif" font-size="10.00">bitset</text>
</a>
</g>
</g>
<!-- Node11&#45;&gt;Node14 -->
<g id="edge16" class="edge">
<title>Node11&#45;&gt;Node14</title>
<path fill="none" stroke="midnightblue" d="M655.13,-67.4C662.7,-57.36 672.89,-43.84 680.87,-33.25"/>
<polygon fill="midnightblue" stroke="midnightblue" points="683.72,-35.29 686.95,-25.19 678.13,-31.07 683.72,-35.29"/>
</g>
<!-- Node15 -->
<g id="node15" class="node">
<title>Node15</title>
<g id="a_node15"><a xlink:title=" ">
<polygon fill="white" stroke="#bfbfbf" points="467.5,-6 467.5,-25 517.5,-25 517.5,-6 467.5,-6"/>
<text text-anchor="middle" x="492.5" y="-13" font-family="Helvetica,sans-Serif" font-size="10.00">cstdint</text>
</a>
</g>
</g>
<!-- Node11&#45;&gt;Node15 -->
<g id="edge17" class="edge">
<title>Node11&#45;&gt;Node15</title>
<path fill="none" stroke="midnightblue" d="M611.52,-67.4C584.73,-55.94 547.31,-39.94 521.62,-28.95"/>
<polygon fill="midnightblue" stroke="midnightblue" points="522.96,-25.72 512.39,-25.01 520.21,-32.16 522.96,-25.72"/>
</g>
</g>
</svg>
