<?xml version="1.0" encoding="UTF-8" standalone="no"?>
<!DOCTYPE svg PUBLIC "-//W3C//DTD SVG 1.1//EN"
 "http://www.w3.org/Graphics/SVG/1.1/DTD/svg11.dtd">
<!-- Generated by graphviz version 2.43.0 (0)
 -->
<!-- Title: DataValueContainerKeyIterator.hpp Pages: 1 -->
<svg width="493pt" height="148pt"
 viewBox="0.00 0.00 493.00 148.00" xmlns="http://www.w3.org/2000/svg" xmlns:xlink="http://www.w3.org/1999/xlink">
<g id="graph0" class="graph" transform="scale(1 1) rotate(0) translate(4 144)">
<title>DataValueContainerKeyIterator.hpp</title>
<!-- Node1 -->
<g id="Node000001" class="node">
<title>Node1</title>
<g id="a_Node000001"><a xlink:title=" ">
<polygon fill="#999999" stroke="#666666" points="378.5,-140 190.5,-140 190.5,-121 378.5,-121 378.5,-140"/>
<text text-anchor="middle" x="284.5" y="-128" font-family="Helvetica,sans-Serif" font-size="10.00">DataValueContainerKeyIterator.hpp</text>
</a>
</g>
</g>
<!-- Node2 -->
<g id="Node000002" class="node">
<title>Node2</title>
<g id="a_Node000002"><a xlink:title=" ">
<polygon fill="#e0e0e0" stroke="#999999" points="125,-85 0,-85 0,-55 125,-55 125,-85"/>
<text text-anchor="start" x="8" y="-73" font-family="Helvetica,sans-Serif" font-size="10.00">containers/data_value</text>
<text text-anchor="middle" x="62.5" y="-62" font-family="Helvetica,sans-Serif" font-size="10.00">_container.h</text>
</a>
</g>
</g>
<!-- Node1&#45;&gt;Node2 -->
<g id="edge1_Node000001_Node000002" class="edge">
<title>Node1&#45;&gt;Node2</title>
<g id="a_edge1_Node000001_Node000002"><a xlink:title=" ">
<path fill="none" stroke="#63b8ff" d="M252.22,-120.99C219.15,-112.28 166.89,-98.51 125.58,-87.62"/>
<polygon fill="#63b8ff" stroke="#63b8ff" points="126.43,-84.23 115.87,-85.06 124.65,-91 126.43,-84.23"/>
</a>
</g>
</g>
<!-- Node3 -->
<g id="Node000003" class="node">
<title>Node3</title>
<g id="a_Node000003"><a xlink:title=" ">
<polygon fill="#e0e0e0" stroke="#999999" points="271.5,-85 143.5,-85 143.5,-55 271.5,-55 271.5,-85"/>
<text text-anchor="start" x="151.5" y="-73" font-family="Helvetica,sans-Serif" font-size="10.00">includes/kratos_export</text>
<text text-anchor="middle" x="207.5" y="-62" font-family="Helvetica,sans-Serif" font-size="10.00">_api.h</text>
</a>
</g>
</g>
<!-- Node1&#45;&gt;Node3 -->
<g id="edge2_Node000001_Node000003" class="edge">
<title>Node1&#45;&gt;Node3</title>
<g id="a_edge2_Node000001_Node000003"><a xlink:title=" ">
<path fill="none" stroke="#63b8ff" d="M273.14,-120.87C262.88,-113.08 247.4,-101.32 234.05,-91.17"/>
<polygon fill="#63b8ff" stroke="#63b8ff" points="236.16,-88.38 226.08,-85.11 231.92,-93.95 236.16,-88.38"/>
</a>
</g>
</g>
<!-- Node4 -->
<g id="Node000004" class="node">
<title>Node4</title>
<g id="a_Node000004"><a xlink:href="Range_8hpp.html" target="_top" xlink:title=" ">
<polygon fill="white" stroke="#666666" points="433,-79.5 290,-79.5 290,-60.5 433,-60.5 433,-79.5"/>
<text text-anchor="middle" x="361.5" y="-67.5" font-family="Helvetica,sans-Serif" font-size="10.00">wrapp/utils/inc/Range.hpp</text>
</a>
</g>
</g>
<!-- Node1&#45;&gt;Node4 -->
<g id="edge3_Node000001_Node000004" class="edge">
<title>Node1&#45;&gt;Node4</title>
<g id="a_edge3_Node000001_Node000004"><a xlink:title=" ">
<path fill="none" stroke="#63b8ff" d="M295.86,-120.87C307.92,-111.71 327.2,-97.06 341.75,-86.01"/>
<polygon fill="#63b8ff" stroke="#63b8ff" points="344.25,-88.5 350.09,-79.67 340.01,-82.93 344.25,-88.5"/>
</a>
</g>
</g>
<!-- Node6 -->
<g id="Node000006" class="node">
<title>Node6</title>
<g id="a_Node000006"><a xlink:title=" ">
<polygon fill="#e0e0e0" stroke="#999999" points="485,-19 416,-19 416,0 485,0 485,-19"/>
<text text-anchor="middle" x="450.5" y="-7" font-family="Helvetica,sans-Serif" font-size="10.00">type_traits</text>
</a>
</g>
</g>
<!-- Node1&#45;&gt;Node6 -->
<g id="edge6_Node000001_Node000006" class="edge">
<title>Node1&#45;&gt;Node6</title>
<g id="a_edge6_Node000001_Node000006"><a xlink:title=" ">
<path fill="none" stroke="#63b8ff" d="M378.82,-121.8C402.85,-115.27 426.41,-104.05 442.5,-85 455.46,-69.66 455.7,-45.73 453.85,-29.15"/>
<polygon fill="#63b8ff" stroke="#63b8ff" points="457.28,-28.42 452.36,-19.04 450.35,-29.44 457.28,-28.42"/>
</a>
</g>
</g>
<!-- Node5 -->
<g id="Node000005" class="node">
<title>Node5</title>
<g id="a_Node000005"><a xlink:title=" ">
<polygon fill="#e0e0e0" stroke="#999999" points="388,-19 335,-19 335,0 388,0 388,-19"/>
<text text-anchor="middle" x="361.5" y="-7" font-family="Helvetica,sans-Serif" font-size="10.00">iterator</text>
</a>
</g>
</g>
<!-- Node4&#45;&gt;Node5 -->
<g id="edge4_Node000004_Node000005" class="edge">
<title>Node4&#45;&gt;Node5</title>
<g id="a_edge4_Node000004_Node000005"><a xlink:title=" ">
<path fill="none" stroke="#63b8ff" d="M361.5,-60.37C361.5,-52.25 361.5,-39.81 361.5,-29.39"/>
<polygon fill="#63b8ff" stroke="#63b8ff" points="365,-29.17 361.5,-19.17 358,-29.17 365,-29.17"/>
</a>
</g>
</g>
<!-- Node4&#45;&gt;Node6 -->
<g id="edge5_Node000004_Node000006" class="edge">
<title>Node4&#45;&gt;Node6</title>
<g id="a_edge5_Node000004_Node000006"><a xlink:title=" ">
<path fill="none" stroke="#63b8ff" d="M374.63,-60.37C388.83,-51.04 411.7,-36.01 428.62,-24.88"/>
<polygon fill="#63b8ff" stroke="#63b8ff" points="430.88,-27.58 437.31,-19.17 427.03,-21.74 430.88,-27.58"/>
</a>
</g>
</g>
</g>
</svg>
