<?xml version="1.0" encoding="UTF-8" standalone="no"?>
<!DOCTYPE svg PUBLIC "-//W3C//DTD SVG 1.1//EN"
 "http://www.w3.org/Graphics/SVG/1.1/DTD/svg11.dtd">
<!-- Generated by graphviz version 2.43.0 (0)
 -->
<!-- Title: DataValueContainerKeyIterator.hpp Pages: 1 -->
<svg width="493pt" height="151pt"
 viewBox="0.00 0.00 493.00 151.00" xmlns="http://www.w3.org/2000/svg" xmlns:xlink="http://www.w3.org/1999/xlink">
<g id="graph0" class="graph" transform="scale(1 1) rotate(0) translate(4 147)">
<title>DataValueContainerKeyIterator.hpp</title>
<polygon fill="white" stroke="transparent" points="-4,4 -4,-147 489,-147 489,4 -4,4"/>
<!-- Node1 -->
<g id="node1" class="node">
<title>Node1</title>
<g id="a_node1"><a xlink:title=" ">
<polygon fill="#bfbfbf" stroke="black" points="190.5,-123.5 190.5,-142.5 378.5,-142.5 378.5,-123.5 190.5,-123.5"/>
<text text-anchor="middle" x="284.5" y="-130.5" font-family="Helvetica,sans-Serif" font-size="10.00">DataValueContainerKeyIterator.hpp</text>
</a>
</g>
</g>
<!-- Node2 -->
<g id="node2" class="node">
<title>Node2</title>
<g id="a_node2"><a xlink:title=" ">
<polygon fill="white" stroke="#bfbfbf" points="0,-56.5 0,-86.5 125,-86.5 125,-56.5 0,-56.5"/>
<text text-anchor="start" x="8" y="-74.5" font-family="Helvetica,sans-Serif" font-size="10.00">containers/data_value</text>
<text text-anchor="middle" x="62.5" y="-63.5" font-family="Helvetica,sans-Serif" font-size="10.00">_container.h</text>
</a>
</g>
</g>
<!-- Node1&#45;&gt;Node2 -->
<g id="edge1" class="edge">
<title>Node1&#45;&gt;Node2</title>
<path fill="none" stroke="midnightblue" d="M252.69,-123.48C219.39,-114.55 166.26,-100.31 124.6,-89.14"/>
<polygon fill="midnightblue" stroke="midnightblue" points="125.39,-85.73 114.82,-86.52 123.57,-92.49 125.39,-85.73"/>
</g>
<!-- Node3 -->
<g id="node3" class="node">
<title>Node3</title>
<g id="a_node3"><a xlink:title=" ">
<polygon fill="white" stroke="#bfbfbf" points="143.5,-56.5 143.5,-86.5 271.5,-86.5 271.5,-56.5 143.5,-56.5"/>
<text text-anchor="start" x="151.5" y="-74.5" font-family="Helvetica,sans-Serif" font-size="10.00">includes/kratos_export</text>
<text text-anchor="middle" x="207.5" y="-63.5" font-family="Helvetica,sans-Serif" font-size="10.00">_api.h</text>
</a>
</g>
</g>
<!-- Node1&#45;&gt;Node3 -->
<g id="edge2" class="edge">
<title>Node1&#45;&gt;Node3</title>
<path fill="none" stroke="midnightblue" d="M273.47,-123.48C263.14,-115.49 247.3,-103.25 233.73,-92.77"/>
<polygon fill="midnightblue" stroke="midnightblue" points="235.7,-89.87 225.65,-86.52 231.42,-95.41 235.7,-89.87"/>
</g>
<!-- Node4 -->
<g id="node4" class="node">
<title>Node4</title>
<g id="a_node4"><a xlink:href="Range_8hpp.html" target="_top" xlink:title=" ">
<polygon fill="white" stroke="black" points="290,-62 290,-81 433,-81 433,-62 290,-62"/>
<text text-anchor="middle" x="361.5" y="-69" font-family="Helvetica,sans-Serif" font-size="10.00">wrapp/utils/inc/Range.hpp</text>
</a>
</g>
</g>
<!-- Node1&#45;&gt;Node4 -->
<g id="edge3" class="edge">
<title>Node1&#45;&gt;Node4</title>
<path fill="none" stroke="midnightblue" d="M295.53,-123.48C307.77,-114.02 327.73,-98.6 342.49,-87.19"/>
<polygon fill="midnightblue" stroke="midnightblue" points="344.72,-89.89 350.49,-81.01 340.44,-84.35 344.72,-89.89"/>
</g>
<!-- Node6 -->
<g id="node6" class="node">
<title>Node6</title>
<g id="a_node6"><a xlink:title=" ">
<polygon fill="white" stroke="#bfbfbf" points="416,-0.5 416,-19.5 485,-19.5 485,-0.5 416,-0.5"/>
<text text-anchor="middle" x="450.5" y="-7.5" font-family="Helvetica,sans-Serif" font-size="10.00">type_traits</text>
</a>
</g>
</g>
<!-- Node1&#45;&gt;Node6 -->
<g id="edge6" class="edge">
<title>Node1&#45;&gt;Node6</title>
<path fill="none" stroke="midnightblue" d="M378.87,-124C402.9,-117.4 426.44,-106.1 442.5,-87 455.68,-71.32 455.87,-46.92 453.95,-30.01"/>
<polygon fill="midnightblue" stroke="midnightblue" points="457.35,-29.08 452.41,-19.7 450.43,-30.11 457.35,-29.08"/>
</g>
<!-- Node5 -->
<g id="node5" class="node">
<title>Node5</title>
<g id="a_node5"><a xlink:title=" ">
<polygon fill="white" stroke="#bfbfbf" points="335,-0.5 335,-19.5 388,-19.5 388,-0.5 335,-0.5"/>
<text text-anchor="middle" x="361.5" y="-7.5" font-family="Helvetica,sans-Serif" font-size="10.00">iterator</text>
</a>
</g>
</g>
<!-- Node4&#45;&gt;Node5 -->
<g id="edge4" class="edge">
<title>Node4&#45;&gt;Node5</title>
<path fill="none" stroke="midnightblue" d="M361.5,-61.98C361.5,-53.58 361.5,-40.48 361.5,-29.66"/>
<polygon fill="midnightblue" stroke="midnightblue" points="365,-29.51 361.5,-19.51 358,-29.51 365,-29.51"/>
</g>
<!-- Node4&#45;&gt;Node6 -->
<g id="edge5" class="edge">
<title>Node4&#45;&gt;Node6</title>
<path fill="none" stroke="midnightblue" d="M374.25,-61.98C388.53,-52.43 411.9,-36.81 429.01,-25.37"/>
<polygon fill="midnightblue" stroke="midnightblue" points="431.4,-27.98 437.77,-19.51 427.51,-22.16 431.4,-27.98"/>
</g>
</g>
</svg>
