<?xml version="1.0" encoding="UTF-8" standalone="no"?>
<!DOCTYPE svg PUBLIC "-//W3C//DTD SVG 1.1//EN"
 "http://www.w3.org/Graphics/SVG/1.1/DTD/svg11.dtd">
<!-- Generated by graphviz version 2.43.0 (0)
 -->
<!-- Title: wrapp Pages: 1 -->
<svg width="368pt" height="183pt"
 viewBox="0.00 0.00 368.00 183.00" xmlns="http://www.w3.org/2000/svg" xmlns:xlink="http://www.w3.org/1999/xlink">
<g id="graph0" class="graph" transform="scale(1 1) rotate(0) translate(4 179)">
<title>wrapp</title>
<polygon fill="white" stroke="transparent" points="-4,4 -4,-179 364,-179 364,4 -4,4"/>
<g id="clust1" class="cluster">
<title>clusterdir_93501a11e921083efbd154e0cdff5f10</title>
<g id="a_clust1"><a xlink:href="dir_93501a11e921083efbd154e0cdff5f10.html" target="_top" xlink:title="packages">
<polygon fill="#ddddee" stroke="black" points="8,-8 8,-167 352,-167 352,-8 8,-8"/>
<text text-anchor="middle" x="180" y="-155" font-family="Helvetica,sans-Serif" font-size="10.00">packages</text>
</a>
</g>
</g>
<g id="clust2" class="cluster">
<title>clusterdir_99b99a308d9149cc857b39eac255c133</title>
<g id="a_clust2"><a xlink:href="dir_99b99a308d9149cc857b39eac255c133.html" target="_top">
<polygon fill="#eeeeff" stroke="black" points="16,-16 16,-140 344,-140 344,-16 16,-16"/>
</a>
</g>
</g>
<!-- dir_99b99a308d9149cc857b39eac255c133 -->
<g id="node1" class="node">
<title>dir_99b99a308d9149cc857b39eac255c133</title>
<text text-anchor="middle" x="309" y="-111.5" font-family="Helvetica,sans-Serif" font-size="10.00">wrapp</text>
</g>
<!-- dir_297225a8c1c9e9c57c9da364ecaa6490 -->
<g id="node2" class="node">
<title>dir_297225a8c1c9e9c57c9da364ecaa6490</title>
<g id="a_node2"><a xlink:href="dir_297225a8c1c9e9c57c9da364ecaa6490.html" target="_top" xlink:title="io">
<polygon fill="white" stroke="red" points="264,-132 210,-132 210,-96 264,-96 264,-132"/>
<text text-anchor="middle" x="237" y="-111.5" font-family="Helvetica,sans-Serif" font-size="10.00">io</text>
</a>
</g>
</g>
<!-- dir_aa762d334eef0b62fc54edfa0babccc8 -->
<g id="node3" class="node">
<title>dir_aa762d334eef0b62fc54edfa0babccc8</title>
<g id="a_node3"><a xlink:href="dir_aa762d334eef0b62fc54edfa0babccc8.html" target="_top" xlink:title="multiprocessing">
<polygon fill="white" stroke="red" points="191.5,-132 96.5,-132 96.5,-96 191.5,-96 191.5,-132"/>
<text text-anchor="middle" x="144" y="-111.5" font-family="Helvetica,sans-Serif" font-size="10.00">multiprocessing</text>
</a>
</g>
</g>
<!-- dir_38cbde9e8c40d08be1ddc5fe18a8adec -->
<g id="node4" class="node">
<title>dir_38cbde9e8c40d08be1ddc5fe18a8adec</title>
<g id="a_node4"><a xlink:href="dir_38cbde9e8c40d08be1ddc5fe18a8adec.html" target="_top" xlink:title="numeric">
<polygon fill="white" stroke="red" points="80,-60 24,-60 24,-24 80,-24 80,-60"/>
<text text-anchor="middle" x="52" y="-39.5" font-family="Helvetica,sans-Serif" font-size="10.00">numeric</text>
</a>
</g>
</g>
<!-- dir_6ae9ccea2b1d4f15ba8e390be74ced61 -->
<g id="node5" class="node">
<title>dir_6ae9ccea2b1d4f15ba8e390be74ced61</title>
<g id="a_node5"><a xlink:href="dir_6ae9ccea2b1d4f15ba8e390be74ced61.html" target="_top" xlink:title="pipes">
<polygon fill="white" stroke="red" points="78,-132 24,-132 24,-96 78,-96 78,-132"/>
<text text-anchor="middle" x="51" y="-111.5" font-family="Helvetica,sans-Serif" font-size="10.00">pipes</text>
</a>
</g>
</g>
<!-- dir_6ae9ccea2b1d4f15ba8e390be74ced61&#45;&gt;dir_38cbde9e8c40d08be1ddc5fe18a8adec -->
<g id="edge2" class="edge">
<title>dir_6ae9ccea2b1d4f15ba8e390be74ced61&#45;&gt;dir_38cbde9e8c40d08be1ddc5fe18a8adec</title>
<path fill="none" stroke="black" d="M51.25,-95.7C51.36,-87.98 51.49,-78.71 51.61,-70.11"/>
<polygon fill="black" stroke="black" points="55.11,-70.15 51.76,-60.1 48.11,-70.05 55.11,-70.15"/>
<g id="a_edge2&#45;headlabel"><a xlink:href="dir_000014_000012.html" target="_top" xlink:title="1">
<text text-anchor="middle" x="57.9" y="-71.29" font-family="Helvetica,sans-Serif" font-size="10.00">1</text>
</a>
</g>
</g>
<!-- dir_05c3042e34f0e278f78336d1052b6451 -->
<g id="node6" class="node">
<title>dir_05c3042e34f0e278f78336d1052b6451</title>
<g id="a_node6"><a xlink:href="dir_05c3042e34f0e278f78336d1052b6451.html" target="_top" xlink:title="utils">
<polygon fill="white" stroke="red" points="152,-60 98,-60 98,-24 152,-24 152,-60"/>
<text text-anchor="middle" x="125" y="-39.5" font-family="Helvetica,sans-Serif" font-size="10.00">utils</text>
</a>
</g>
</g>
<!-- dir_6ae9ccea2b1d4f15ba8e390be74ced61&#45;&gt;dir_05c3042e34f0e278f78336d1052b6451 -->
<g id="edge1" class="edge">
<title>dir_6ae9ccea2b1d4f15ba8e390be74ced61&#45;&gt;dir_05c3042e34f0e278f78336d1052b6451</title>
<path fill="none" stroke="black" d="M69.29,-95.7C78.43,-87.05 89.64,-76.45 99.6,-67.03"/>
<polygon fill="black" stroke="black" points="102.06,-69.52 106.92,-60.1 97.25,-64.43 102.06,-69.52"/>
<g id="a_edge1&#45;headlabel"><a xlink:href="dir_000014_000016.html" target="_top" xlink:title="2">
<text text-anchor="middle" x="101.4" y="-71.55" font-family="Helvetica,sans-Serif" font-size="10.00">2</text>
</a>
</g>
</g>
</g>
</svg>
