<?xml version="1.0" encoding="UTF-8" standalone="no"?>
<!DOCTYPE svg PUBLIC "-//W3C//DTD SVG 1.1//EN"
 "http://www.w3.org/Graphics/SVG/1.1/DTD/svg11.dtd">
<!-- Generated by graphviz version 2.43.0 (0)
 -->
<!-- Title: pipes Pages: 1 -->
<svg width="182pt" height="175pt"
 viewBox="0.00 0.00 182.00 175.00" xmlns="http://www.w3.org/2000/svg" xmlns:xlink="http://www.w3.org/1999/xlink">
<g id="graph0" class="graph" transform="scale(1 1) rotate(0) translate(4 171)">
<title>pipes</title>
<polygon fill="white" stroke="transparent" points="-4,4 -4,-171 178,-171 178,4 -4,4"/>
<g id="clust1" class="cluster">
<title>clusterdir_99b99a308d9149cc857b39eac255c133</title>
<g id="a_clust1"><a xlink:href="dir_99b99a308d9149cc857b39eac255c133.html" target="_top" xlink:title="wrapp">
<polygon fill="#ddddee" stroke="black" points="8,-8 8,-159 166,-159 166,-8 8,-8"/>
<text text-anchor="middle" x="87" y="-147" font-family="Helvetica,sans-Serif" font-size="10.00">wrapp</text>
</a>
</g>
</g>
<g id="clust2" class="cluster">
<title>clusterdir_6ae9ccea2b1d4f15ba8e390be74ced61</title>
<g id="a_clust2"><a xlink:href="dir_6ae9ccea2b1d4f15ba8e390be74ced61.html" target="_top">
<polygon fill="#eeeeff" stroke="black" points="16,-80 16,-132 158,-132 158,-80 16,-80"/>
</a>
</g>
</g>
<!-- dir_05c3042e34f0e278f78336d1052b6451 -->
<g id="node1" class="node">
<title>dir_05c3042e34f0e278f78336d1052b6451</title>
<g id="a_node1"><a xlink:href="dir_05c3042e34f0e278f78336d1052b6451.html" target="_top" xlink:title="utils">
<polygon fill="white" stroke="red" points="74,-52 20,-52 20,-16 74,-16 74,-52"/>
<text text-anchor="middle" x="47" y="-31.5" font-family="Helvetica,sans-Serif" font-size="10.00">utils</text>
</a>
</g>
</g>
<!-- dir_38cbde9e8c40d08be1ddc5fe18a8adec -->
<g id="node2" class="node">
<title>dir_38cbde9e8c40d08be1ddc5fe18a8adec</title>
<g id="a_node2"><a xlink:href="dir_38cbde9e8c40d08be1ddc5fe18a8adec.html" target="_top" xlink:title="numeric">
<polygon fill="white" stroke="red" points="148,-52 92,-52 92,-16 148,-16 148,-52"/>
<text text-anchor="middle" x="120" y="-31.5" font-family="Helvetica,sans-Serif" font-size="10.00">numeric</text>
</a>
</g>
</g>
<!-- dir_6ae9ccea2b1d4f15ba8e390be74ced61 -->
<g id="node3" class="node">
<title>dir_6ae9ccea2b1d4f15ba8e390be74ced61</title>
<text text-anchor="middle" x="123" y="-103.5" font-family="Helvetica,sans-Serif" font-size="10.00">pipes</text>
</g>
<!-- dir_b930d4132613d48da1a3b42b71bae867 -->
<g id="node4" class="node">
<title>dir_b930d4132613d48da1a3b42b71bae867</title>
<g id="a_node4"><a xlink:href="dir_b930d4132613d48da1a3b42b71bae867.html" target="_top" xlink:title="inc">
<polygon fill="white" stroke="black" points="78,-124 24,-124 24,-88 78,-88 78,-124"/>
<text text-anchor="middle" x="51" y="-103.5" font-family="Helvetica,sans-Serif" font-size="10.00">inc</text>
</a>
</g>
</g>
<!-- dir_b930d4132613d48da1a3b42b71bae867&#45;&gt;dir_05c3042e34f0e278f78336d1052b6451 -->
<g id="edge1" class="edge">
<title>dir_b930d4132613d48da1a3b42b71bae867&#45;&gt;dir_05c3042e34f0e278f78336d1052b6451</title>
<path fill="none" stroke="black" d="M50.01,-87.7C49.57,-79.98 49.04,-70.71 48.55,-62.11"/>
<polygon fill="black" stroke="black" points="52.04,-61.89 47.98,-52.1 45.05,-62.29 52.04,-61.89"/>
<g id="a_edge1&#45;headlabel"><a xlink:href="dir_000015_000016.html" target="_top" xlink:title="2">
<text text-anchor="middle" x="55.08" y="-62.82" font-family="Helvetica,sans-Serif" font-size="10.00">2</text>
</a>
</g>
</g>
<!-- dir_b930d4132613d48da1a3b42b71bae867&#45;&gt;dir_38cbde9e8c40d08be1ddc5fe18a8adec -->
<g id="edge2" class="edge">
<title>dir_b930d4132613d48da1a3b42b71bae867&#45;&gt;dir_38cbde9e8c40d08be1ddc5fe18a8adec</title>
<path fill="none" stroke="black" d="M68.06,-87.7C76.5,-79.14 86.82,-68.66 96.04,-59.3"/>
<polygon fill="black" stroke="black" points="98.61,-61.68 103.14,-52.1 93.63,-56.77 98.61,-61.68"/>
<g id="a_edge2&#45;headlabel"><a xlink:href="dir_000015_000012.html" target="_top" xlink:title="1">
<text text-anchor="middle" x="98.11" y="-63.74" font-family="Helvetica,sans-Serif" font-size="10.00">1</text>
</a>
</g>
</g>
</g>
</svg>
