<?xml version="1.0" encoding="UTF-8" standalone="no"?>
<!DOCTYPE svg PUBLIC "-//W3C//DTD SVG 1.1//EN"
 "http://www.w3.org/Graphics/SVG/1.1/DTD/svg11.dtd">
<!-- Generated by graphviz version 2.43.0 (0)
 -->
<!-- Title: inc Pages: 1 -->
<svg width="136pt" height="151pt"
 viewBox="0.00 0.00 136.00 151.00" xmlns="http://www.w3.org/2000/svg" xmlns:xlink="http://www.w3.org/1999/xlink">
<g id="graph0" class="graph" transform="scale(1 1) rotate(0) translate(4 147)">
<title>inc</title>
<polygon fill="white" stroke="transparent" points="-4,4 -4,-147 132,-147 132,4 -4,4"/>
<g id="clust1" class="cluster">
<title>clusterdir_6ae9ccea2b1d4f15ba8e390be74ced61</title>
<g id="a_clust1"><a xlink:href="dir_6ae9ccea2b1d4f15ba8e390be74ced61.html" target="_top" xlink:title="pipes">
<polygon fill="#ddddee" stroke="black" points="28,-64 28,-135 98,-135 98,-64 28,-64"/>
<text text-anchor="middle" x="63" y="-123" font-family="Helvetica,sans-Serif" font-size="10.00">pipes</text>
</a>
</g>
</g>
<!-- dir_b930d4132613d48da1a3b42b71bae867 -->
<g id="node1" class="node">
<title>dir_b930d4132613d48da1a3b42b71bae867</title>
<g id="a_node1"><a xlink:href="dir_b930d4132613d48da1a3b42b71bae867.html" target="_top" xlink:title="inc">
<polygon fill="#eeeeff" stroke="black" points="90,-108 36,-108 36,-72 90,-72 90,-108"/>
<text text-anchor="middle" x="63" y="-87.5" font-family="Helvetica,sans-Serif" font-size="10.00">inc</text>
</a>
</g>
</g>
<!-- dir_05c3042e34f0e278f78336d1052b6451 -->
<g id="node2" class="node">
<title>dir_05c3042e34f0e278f78336d1052b6451</title>
<g id="a_node2"><a xlink:href="dir_05c3042e34f0e278f78336d1052b6451.html" target="_top" xlink:title="utils">
<polygon fill="white" stroke="red" points="54,-36 0,-36 0,0 54,0 54,-36"/>
<text text-anchor="middle" x="27" y="-15.5" font-family="Helvetica,sans-Serif" font-size="10.00">utils</text>
</a>
</g>
</g>
<!-- dir_b930d4132613d48da1a3b42b71bae867&#45;&gt;dir_05c3042e34f0e278f78336d1052b6451 -->
<g id="edge1" class="edge">
<title>dir_b930d4132613d48da1a3b42b71bae867&#45;&gt;dir_05c3042e34f0e278f78336d1052b6451</title>
<path fill="none" stroke="black" d="M54.1,-71.7C50,-63.73 45.05,-54.1 40.51,-45.26"/>
<polygon fill="black" stroke="black" points="43.48,-43.4 35.8,-36.1 37.26,-46.6 43.48,-43.4"/>
<g id="a_edge1&#45;headlabel"><a xlink:href="dir_000012_000013.html" target="_top" xlink:title="2">
<text text-anchor="middle" x="47.65" y="-42.79" font-family="Helvetica,sans-Serif" font-size="10.00">2</text>
</a>
</g>
</g>
<!-- dir_38cbde9e8c40d08be1ddc5fe18a8adec -->
<g id="node3" class="node">
<title>dir_38cbde9e8c40d08be1ddc5fe18a8adec</title>
<g id="a_node3"><a xlink:href="dir_38cbde9e8c40d08be1ddc5fe18a8adec.html" target="_top" xlink:title="numeric">
<polygon fill="white" stroke="red" points="128,-36 72,-36 72,0 128,0 128,-36"/>
<text text-anchor="middle" x="100" y="-15.5" font-family="Helvetica,sans-Serif" font-size="10.00">numeric</text>
</a>
</g>
</g>
<!-- dir_b930d4132613d48da1a3b42b71bae867&#45;&gt;dir_38cbde9e8c40d08be1ddc5fe18a8adec -->
<g id="edge2" class="edge">
<title>dir_b930d4132613d48da1a3b42b71bae867&#45;&gt;dir_38cbde9e8c40d08be1ddc5fe18a8adec</title>
<path fill="none" stroke="black" d="M72.15,-71.7C76.4,-63.64 81.56,-53.89 86.27,-44.98"/>
<polygon fill="black" stroke="black" points="89.38,-46.58 90.96,-36.1 83.19,-43.31 89.38,-46.58"/>
<g id="a_edge2&#45;headlabel"><a xlink:href="dir_000012_000009.html" target="_top" xlink:title="1">
<text text-anchor="middle" x="90.21" y="-48.59" font-family="Helvetica,sans-Serif" font-size="10.00">1</text>
</a>
</g>
</g>
</g>
</svg>
