<?xml version="1.0" encoding="UTF-8" standalone="no"?>
<!DOCTYPE svg PUBLIC "-//W3C//DTD SVG 1.1//EN"
 "http://www.w3.org/Graphics/SVG/1.1/DTD/svg11.dtd">
<!-- Generated by graphviz version 2.43.0 (0)
 -->
<!-- Title: DynamicEntityProxy.hpp Pages: 1 -->
<svg width="1119pt" height="214pt"
 viewBox="0.00 0.00 1119.00 214.00" xmlns="http://www.w3.org/2000/svg" xmlns:xlink="http://www.w3.org/1999/xlink">
<g id="graph0" class="graph" transform="scale(1 1) rotate(0) translate(4 210)">
<title>DynamicEntityProxy.hpp</title>
<!-- Node1 -->
<g id="Node000001" class="node">
<title>Node1</title>
<g id="a_Node000001"><a xlink:title=" ">
<polygon fill="#999999" stroke="#666666" points="956.5,-206 820.5,-206 820.5,-187 956.5,-187 956.5,-206"/>
<text text-anchor="middle" x="888.5" y="-194" font-family="Helvetica,sans-Serif" font-size="10.00">DynamicEntityProxy.hpp</text>
</a>
</g>
</g>
<!-- Node2 -->
<g id="Node000002" class="node">
<title>Node2</title>
<g id="a_Node000002"><a xlink:title=" ">
<polygon fill="#e0e0e0" stroke="#999999" points="149,-90.5 0,-90.5 0,-71.5 149,-71.5 149,-90.5"/>
<text text-anchor="middle" x="74.5" y="-78.5" font-family="Helvetica,sans-Serif" font-size="10.00">includes/global_variables.h</text>
</a>
</g>
</g>
<!-- Node1&#45;&gt;Node2 -->
<g id="edge1_Node000001_Node000002" class="edge">
<title>Node1&#45;&gt;Node2</title>
<g id="a_edge1_Node000001_Node000002"><a xlink:title=" ">
<path fill="none" stroke="#63b8ff" d="M820.42,-191.21C729.1,-184.97 562.01,-171.78 420.5,-151 312.5,-135.14 187.19,-107.92 121.01,-92.85"/>
<polygon fill="#63b8ff" stroke="#63b8ff" points="121.43,-89.35 110.9,-90.53 119.87,-96.18 121.43,-89.35"/>
</a>
</g>
</g>
<!-- Node3 -->
<g id="Node000003" class="node">
<title>Node3</title>
<g id="a_Node000003"><a xlink:title=" ">
<polygon fill="#e0e0e0" stroke="#999999" points="1042,-151 917,-151 917,-132 1042,-132 1042,-151"/>
<text text-anchor="middle" x="979.5" y="-139" font-family="Helvetica,sans-Serif" font-size="10.00">includes/model_part.h</text>
</a>
</g>
</g>
<!-- Node1&#45;&gt;Node3 -->
<g id="edge2_Node000001_Node000003" class="edge">
<title>Node1&#45;&gt;Node3</title>
<g id="a_edge2_Node000001_Node000003"><a xlink:title=" ">
<path fill="none" stroke="#63b8ff" d="M903.12,-186.98C917.36,-178.69 939.25,-165.94 955.95,-156.22"/>
<polygon fill="#63b8ff" stroke="#63b8ff" points="957.73,-159.23 964.61,-151.17 954.21,-153.18 957.73,-159.23"/>
</a>
</g>
</g>
<!-- Node4 -->
<g id="Node000004" class="node">
<title>Node4</title>
<g id="a_Node000004"><a xlink:title=" ">
<polygon fill="#e0e0e0" stroke="#999999" points="861.5,-30 733.5,-30 733.5,0 861.5,0 861.5,-30"/>
<text text-anchor="start" x="741.5" y="-18" font-family="Helvetica,sans-Serif" font-size="10.00">includes/kratos_export</text>
<text text-anchor="middle" x="797.5" y="-7" font-family="Helvetica,sans-Serif" font-size="10.00">_api.h</text>
</a>
</g>
</g>
<!-- Node1&#45;&gt;Node4 -->
<g id="edge3_Node000001_Node000004" class="edge">
<title>Node1&#45;&gt;Node4</title>
<g id="a_edge3_Node000001_Node000004"><a xlink:title=" ">
<path fill="none" stroke="#63b8ff" d="M889.46,-186.84C891.46,-164.82 894.04,-105.6 869.5,-66 861.76,-53.51 849.61,-43.33 837.49,-35.49"/>
<polygon fill="#63b8ff" stroke="#63b8ff" points="839.1,-32.37 828.73,-30.2 835.48,-38.36 839.1,-32.37"/>
</a>
</g>
</g>
<!-- Node5 -->
<g id="Node000005" class="node">
<title>Node5</title>
<g id="a_Node000005"><a xlink:href="EntityProxy_8hpp.html" target="_top" xlink:title=" ">
<polygon fill="white" stroke="#666666" points="596,-151 429,-151 429,-132 596,-132 596,-151"/>
<text text-anchor="middle" x="512.5" y="-139" font-family="Helvetica,sans-Serif" font-size="10.00">wrapp/utils/inc/EntityProxy.hpp</text>
</a>
</g>
</g>
<!-- Node1&#45;&gt;Node5 -->
<g id="edge4_Node000001_Node000005" class="edge">
<title>Node1&#45;&gt;Node5</title>
<g id="a_edge4_Node000001_Node000005"><a xlink:title=" ">
<path fill="none" stroke="#63b8ff" d="M828.09,-186.98C761.31,-177.57 653.87,-162.43 583.22,-152.47"/>
<polygon fill="#63b8ff" stroke="#63b8ff" points="583.46,-148.97 573.07,-151.04 582.49,-155.9 583.46,-148.97"/>
</a>
</g>
</g>
<!-- Node15 -->
<g id="Node000015" class="node">
<title>Node15</title>
<g id="a_Node000015"><a xlink:title=" ">
<polygon fill="#e0e0e0" stroke="#999999" points="1111,-151 1060,-151 1060,-132 1111,-132 1111,-151"/>
<text text-anchor="middle" x="1085.5" y="-139" font-family="Helvetica,sans-Serif" font-size="10.00">variant</text>
</a>
</g>
</g>
<!-- Node1&#45;&gt;Node15 -->
<g id="edge18_Node000001_Node000015" class="edge">
<title>Node1&#45;&gt;Node15</title>
<g id="a_edge18_Node000001_Node000015"><a xlink:title=" ">
<path fill="none" stroke="#63b8ff" d="M920.15,-186.98C955.64,-177.44 1013.06,-161.99 1050.04,-152.04"/>
<polygon fill="#63b8ff" stroke="#63b8ff" points="1051.14,-155.37 1059.89,-149.39 1049.32,-148.61 1051.14,-155.37"/>
</a>
</g>
</g>
<!-- Node5&#45;&gt;Node2 -->
<g id="edge5_Node000005_Node000002" class="edge">
<title>Node5&#45;&gt;Node2</title>
<g id="a_edge5_Node000005_Node000002"><a xlink:title=" ">
<path fill="none" stroke="#63b8ff" d="M440.35,-132C369.52,-123.49 258.46,-109.73 162.5,-96 154.13,-94.8 145.33,-93.48 136.66,-92.14"/>
<polygon fill="#63b8ff" stroke="#63b8ff" points="137,-88.65 126.58,-90.56 135.91,-95.56 137,-88.65"/>
</a>
</g>
</g>
<!-- Node5&#45;&gt;Node4 -->
<g id="edge6_Node000005_Node000004" class="edge">
<title>Node5&#45;&gt;Node4</title>
<g id="a_edge6_Node000005_Node000004"><a xlink:title=" ">
<path fill="none" stroke="#63b8ff" d="M596.02,-133.79C635.39,-127.89 681.86,-116.8 719.5,-96 745.03,-81.89 767.48,-56.75 781.66,-38.41"/>
<polygon fill="#63b8ff" stroke="#63b8ff" points="784.75,-40.13 787.94,-30.03 779.14,-35.93 784.75,-40.13"/>
</a>
</g>
</g>
<!-- Node6 -->
<g id="Node000006" class="node">
<title>Node6</title>
<g id="a_Node000006"><a xlink:title=" ">
<polygon fill="#e0e0e0" stroke="#999999" points="860,-90.5 767,-90.5 767,-71.5 860,-71.5 860,-90.5"/>
<text text-anchor="middle" x="813.5" y="-78.5" font-family="Helvetica,sans-Serif" font-size="10.00">includes/node.h</text>
</a>
</g>
</g>
<!-- Node5&#45;&gt;Node6 -->
<g id="edge7_Node000005_Node000006" class="edge">
<title>Node5&#45;&gt;Node6</title>
<g id="a_edge7_Node000005_Node000006"><a xlink:title=" ">
<path fill="none" stroke="#63b8ff" d="M561.8,-131.99C610.4,-123.45 686.73,-109.64 752.5,-96 757.3,-95 762.3,-93.92 767.29,-92.82"/>
<polygon fill="#63b8ff" stroke="#63b8ff" points="768.44,-96.15 777.43,-90.54 766.91,-89.32 768.44,-96.15"/>
</a>
</g>
</g>
<!-- Node7 -->
<g id="Node000007" class="node">
<title>Node7</title>
<g id="a_Node000007"><a xlink:title=" ">
<polygon fill="#e0e0e0" stroke="#999999" points="314.5,-90.5 204.5,-90.5 204.5,-71.5 314.5,-71.5 314.5,-90.5"/>
<text text-anchor="middle" x="259.5" y="-78.5" font-family="Helvetica,sans-Serif" font-size="10.00">includes/element.h</text>
</a>
</g>
</g>
<!-- Node5&#45;&gt;Node7 -->
<g id="edge8_Node000005_Node000007" class="edge">
<title>Node5&#45;&gt;Node7</title>
<g id="a_edge8_Node000005_Node000007"><a xlink:title=" ">
<path fill="none" stroke="#63b8ff" d="M475.71,-131.99C430.93,-121.64 355.24,-104.14 306.34,-92.83"/>
<polygon fill="#63b8ff" stroke="#63b8ff" points="306.86,-89.36 296.33,-90.52 305.29,-96.18 306.86,-89.36"/>
</a>
</g>
</g>
<!-- Node8 -->
<g id="Node000008" class="node">
<title>Node8</title>
<g id="a_Node000008"><a xlink:title=" ">
<polygon fill="#e0e0e0" stroke="#999999" points="446.5,-90.5 332.5,-90.5 332.5,-71.5 446.5,-71.5 446.5,-90.5"/>
<text text-anchor="middle" x="389.5" y="-78.5" font-family="Helvetica,sans-Serif" font-size="10.00">includes/condition.h</text>
</a>
</g>
</g>
<!-- Node5&#45;&gt;Node8 -->
<g id="edge9_Node000005_Node000008" class="edge">
<title>Node5&#45;&gt;Node8</title>
<g id="a_edge9_Node000005_Node000008"><a xlink:title=" ">
<path fill="none" stroke="#63b8ff" d="M494.61,-131.99C474.12,-122.25 440.31,-106.16 416.58,-94.88"/>
<polygon fill="#63b8ff" stroke="#63b8ff" points="417.94,-91.65 407.41,-90.52 414.93,-97.97 417.94,-91.65"/>
</a>
</g>
</g>
<!-- Node9 -->
<g id="Node000009" class="node">
<title>Node9</title>
<g id="a_Node000009"><a xlink:title=" ">
<polygon fill="#e0e0e0" stroke="#999999" points="560.5,-96 464.5,-96 464.5,-66 560.5,-66 560.5,-96"/>
<text text-anchor="start" x="472.5" y="-84" font-family="Helvetica,sans-Serif" font-size="10.00">utilities/variable</text>
<text text-anchor="middle" x="512.5" y="-73" font-family="Helvetica,sans-Serif" font-size="10.00">_utils.h</text>
</a>
</g>
</g>
<!-- Node5&#45;&gt;Node9 -->
<g id="edge10_Node000005_Node000009" class="edge">
<title>Node5&#45;&gt;Node9</title>
<g id="a_edge10_Node000005_Node000009"><a xlink:title=" ">
<path fill="none" stroke="#63b8ff" d="M512.5,-131.87C512.5,-125.11 512.5,-115.35 512.5,-106.26"/>
<polygon fill="#63b8ff" stroke="#63b8ff" points="516,-106.11 512.5,-96.11 509,-106.11 516,-106.11"/>
</a>
</g>
</g>
<!-- Node10 -->
<g id="Node000010" class="node">
<title>Node10</title>
<g id="a_Node000010"><a xlink:href="OptionalRef_8hpp.html" target="_top" xlink:title=" ">
<polygon fill="white" stroke="#666666" points="710.5,-96 578.5,-96 578.5,-66 710.5,-66 710.5,-96"/>
<text text-anchor="start" x="586.5" y="-84" font-family="Helvetica,sans-Serif" font-size="10.00">wrapp/utils/inc/Optional</text>
<text text-anchor="middle" x="644.5" y="-73" font-family="Helvetica,sans-Serif" font-size="10.00">Ref.hpp</text>
</a>
</g>
</g>
<!-- Node5&#45;&gt;Node10 -->
<g id="edge11_Node000005_Node000010" class="edge">
<title>Node5&#45;&gt;Node10</title>
<g id="a_edge11_Node000005_Node000010"><a xlink:title=" ">
<path fill="none" stroke="#63b8ff" d="M531.69,-131.99C550.44,-123.68 579.57,-110.78 603.53,-100.16"/>
<polygon fill="#63b8ff" stroke="#63b8ff" points="605.04,-103.32 612.77,-96.06 602.2,-96.92 605.04,-103.32"/>
</a>
</g>
</g>
<!-- Node12 -->
<g id="Node000012" class="node">
<title>Node12</title>
<g id="a_Node000012"><a xlink:title=" ">
<polygon fill="#e0e0e0" stroke="#999999" points="355,-24.5 286,-24.5 286,-5.5 355,-5.5 355,-24.5"/>
<text text-anchor="middle" x="320.5" y="-12.5" font-family="Helvetica,sans-Serif" font-size="10.00">type_traits</text>
</a>
</g>
</g>
<!-- Node5&#45;&gt;Node12 -->
<g id="edge17_Node000005_Node000012" class="edge">
<title>Node5&#45;&gt;Node12</title>
<g id="a_edge17_Node000005_Node000012"><a xlink:title=" ">
<path fill="none" stroke="#63b8ff" d="M428.77,-140.67C345.24,-138.85 225.17,-130.13 195.5,-96 167.15,-63.39 229.58,-39.18 276.02,-26.35"/>
<polygon fill="#63b8ff" stroke="#63b8ff" points="277.18,-29.66 285.95,-23.71 275.38,-22.9 277.18,-29.66"/>
</a>
</g>
</g>
<!-- Node10&#45;&gt;Node4 -->
<g id="edge12_Node000010_Node000004" class="edge">
<title>Node10&#45;&gt;Node4</title>
<g id="a_edge12_Node000010_Node000004"><a xlink:title=" ">
<path fill="none" stroke="#63b8ff" d="M678.08,-65.95C700.6,-56.53 730.46,-44.04 754.68,-33.91"/>
<polygon fill="#63b8ff" stroke="#63b8ff" points="756.13,-37.1 764,-30.01 753.43,-30.64 756.13,-37.1"/>
</a>
</g>
</g>
<!-- Node11 -->
<g id="Node000011" class="node">
<title>Node11</title>
<g id="a_Node000011"><a xlink:title=" ">
<polygon fill="#e0e0e0" stroke="#999999" points="653,-24.5 536,-24.5 536,-5.5 653,-5.5 653,-24.5"/>
<text text-anchor="middle" x="594.5" y="-12.5" font-family="Helvetica,sans-Serif" font-size="10.00">includes/exception.h</text>
</a>
</g>
</g>
<!-- Node10&#45;&gt;Node11 -->
<g id="edge13_Node000010_Node000011" class="edge">
<title>Node10&#45;&gt;Node11</title>
<g id="a_edge13_Node000010_Node000011"><a xlink:title=" ">
<path fill="none" stroke="#63b8ff" d="M633.4,-65.8C625.84,-56.11 615.78,-43.24 607.79,-33.01"/>
<polygon fill="#63b8ff" stroke="#63b8ff" points="610.32,-30.57 601.41,-24.84 604.81,-34.88 610.32,-30.57"/>
</a>
</g>
</g>
<!-- Node10&#45;&gt;Node12 -->
<g id="edge14_Node000010_Node000012" class="edge">
<title>Node10&#45;&gt;Node12</title>
<g id="a_edge14_Node000010_Node000012"><a xlink:title=" ">
<path fill="none" stroke="#63b8ff" d="M578.15,-66.89C514.54,-54.33 420.26,-35.71 365.13,-24.82"/>
<polygon fill="#63b8ff" stroke="#63b8ff" points="365.8,-21.38 355.31,-22.88 364.44,-28.25 365.8,-21.38"/>
</a>
</g>
</g>
<!-- Node13 -->
<g id="Node000013" class="node">
<title>Node13</title>
<g id="a_Node000013"><a xlink:title=" ">
<polygon fill="#e0e0e0" stroke="#999999" points="715.5,-24.5 671.5,-24.5 671.5,-5.5 715.5,-5.5 715.5,-24.5"/>
<text text-anchor="middle" x="693.5" y="-12.5" font-family="Helvetica,sans-Serif" font-size="10.00">bitset</text>
</a>
</g>
</g>
<!-- Node10&#45;&gt;Node13 -->
<g id="edge15_Node000010_Node000013" class="edge">
<title>Node10&#45;&gt;Node13</title>
<g id="a_edge15_Node000010_Node000013"><a xlink:title=" ">
<path fill="none" stroke="#63b8ff" d="M655.37,-65.8C662.79,-56.11 672.64,-43.24 680.48,-33.01"/>
<polygon fill="#63b8ff" stroke="#63b8ff" points="683.43,-34.91 686.73,-24.84 677.87,-30.66 683.43,-34.91"/>
</a>
</g>
</g>
<!-- Node14 -->
<g id="Node000014" class="node">
<title>Node14</title>
<g id="a_Node000014"><a xlink:title=" ">
<polygon fill="#e0e0e0" stroke="#999999" points="517.5,-24.5 467.5,-24.5 467.5,-5.5 517.5,-5.5 517.5,-24.5"/>
<text text-anchor="middle" x="492.5" y="-12.5" font-family="Helvetica,sans-Serif" font-size="10.00">cstdint</text>
</a>
</g>
</g>
<!-- Node10&#45;&gt;Node14 -->
<g id="edge16_Node000010_Node000014" class="edge">
<title>Node10&#45;&gt;Node14</title>
<g id="a_edge16_Node000010_Node000014"><a xlink:title=" ">
<path fill="none" stroke="#63b8ff" d="M611.14,-65.95C584.6,-54.78 547.81,-39.29 522.26,-28.53"/>
<polygon fill="#63b8ff" stroke="#63b8ff" points="523.3,-25.17 512.73,-24.52 520.59,-31.62 523.3,-25.17"/>
</a>
</g>
</g>
</g>
</svg>
