<?xml version="1.0" encoding="UTF-8" standalone="no"?>
<!DOCTYPE svg PUBLIC "-//W3C//DTD SVG 1.1//EN"
 "http://www.w3.org/Graphics/SVG/1.1/DTD/svg11.dtd">
<!-- Generated by graphviz version 2.43.0 (0)
 -->
<!-- Title: DynamicEntityProxy.hpp Pages: 1 -->
<svg width="1119pt" height="218pt"
 viewBox="0.00 0.00 1119.00 218.00" xmlns="http://www.w3.org/2000/svg" xmlns:xlink="http://www.w3.org/1999/xlink">
<g id="graph0" class="graph" transform="scale(1 1) rotate(0) translate(4 214)">
<title>DynamicEntityProxy.hpp</title>
<polygon fill="white" stroke="transparent" points="-4,4 -4,-214 1115,-214 1115,4 -4,4"/>
<!-- Node1 -->
<g id="node1" class="node">
<title>Node1</title>
<g id="a_node1"><a xlink:title=" ">
<polygon fill="#bfbfbf" stroke="black" points="820.5,-190.5 820.5,-209.5 956.5,-209.5 956.5,-190.5 820.5,-190.5"/>
<text text-anchor="middle" x="888.5" y="-197.5" font-family="Helvetica,sans-Serif" font-size="10.00">DynamicEntityProxy.hpp</text>
</a>
</g>
</g>
<!-- Node2 -->
<g id="node2" class="node">
<title>Node2</title>
<g id="a_node2"><a xlink:title=" ">
<polygon fill="white" stroke="#bfbfbf" points="0,-73 0,-92 149,-92 149,-73 0,-73"/>
<text text-anchor="middle" x="74.5" y="-80" font-family="Helvetica,sans-Serif" font-size="10.00">includes/global_variables.h</text>
</a>
</g>
</g>
<!-- Node1&#45;&gt;Node2 -->
<g id="edge1" class="edge">
<title>Node1&#45;&gt;Node2</title>
<path fill="none" stroke="midnightblue" d="M820.41,-194.71C729.07,-188.43 561.97,-175.15 420.5,-154 312.02,-137.78 186.15,-109.79 120.2,-94.41"/>
<polygon fill="midnightblue" stroke="midnightblue" points="120.68,-90.93 110.14,-92.06 119.08,-97.74 120.68,-90.93"/>
</g>
<!-- Node3 -->
<g id="node3" class="node">
<title>Node3</title>
<g id="a_node3"><a xlink:title=" ">
<polygon fill="white" stroke="#bfbfbf" points="917,-134.5 917,-153.5 1042,-153.5 1042,-134.5 917,-134.5"/>
<text text-anchor="middle" x="979.5" y="-141.5" font-family="Helvetica,sans-Serif" font-size="10.00">includes/model_part.h</text>
</a>
</g>
</g>
<!-- Node1&#45;&gt;Node3 -->
<g id="edge2" class="edge">
<title>Node1&#45;&gt;Node3</title>
<path fill="none" stroke="midnightblue" d="M903.12,-190.32C917.45,-181.82 939.51,-168.73 956.25,-158.8"/>
<polygon fill="midnightblue" stroke="midnightblue" points="958.1,-161.77 964.92,-153.65 954.53,-155.75 958.1,-161.77"/>
</g>
<!-- Node4 -->
<g id="node4" class="node">
<title>Node4</title>
<g id="a_node4"><a xlink:title=" ">
<polygon fill="white" stroke="#bfbfbf" points="733.5,-0.5 733.5,-30.5 861.5,-30.5 861.5,-0.5 733.5,-0.5"/>
<text text-anchor="start" x="741.5" y="-18.5" font-family="Helvetica,sans-Serif" font-size="10.00">includes/kratos_export</text>
<text text-anchor="middle" x="797.5" y="-7.5" font-family="Helvetica,sans-Serif" font-size="10.00">_api.h</text>
</a>
</g>
</g>
<!-- Node1&#45;&gt;Node4 -->
<g id="edge3" class="edge">
<title>Node1&#45;&gt;Node4</title>
<path fill="none" stroke="midnightblue" d="M889.5,-190.19C891.59,-167.76 894.35,-107.44 869.5,-67 861.72,-54.33 849.44,-44 837.21,-36.05"/>
<polygon fill="midnightblue" stroke="midnightblue" points="838.74,-32.89 828.38,-30.69 835.11,-38.87 838.74,-32.89"/>
</g>
<!-- Node5 -->
<g id="node5" class="node">
<title>Node5</title>
<g id="a_node5"><a xlink:href="EntityProxy_8hpp.html" target="_top" xlink:title=" ">
<polygon fill="white" stroke="black" points="429,-134.5 429,-153.5 596,-153.5 596,-134.5 429,-134.5"/>
<text text-anchor="middle" x="512.5" y="-141.5" font-family="Helvetica,sans-Serif" font-size="10.00">wrapp/utils/inc/EntityProxy.hpp</text>
</a>
</g>
</g>
<!-- Node1&#45;&gt;Node5 -->
<g id="edge4" class="edge">
<title>Node1&#45;&gt;Node5</title>
<path fill="none" stroke="midnightblue" d="M828.92,-190.44C761.82,-180.81 652.9,-165.16 581.98,-154.98"/>
<polygon fill="midnightblue" stroke="midnightblue" points="582.2,-151.47 571.8,-153.52 581.2,-158.4 582.2,-151.47"/>
</g>
<!-- Node15 -->
<g id="node15" class="node">
<title>Node15</title>
<g id="a_node15"><a xlink:title=" ">
<polygon fill="white" stroke="#bfbfbf" points="1060,-134.5 1060,-153.5 1111,-153.5 1111,-134.5 1060,-134.5"/>
<text text-anchor="middle" x="1085.5" y="-141.5" font-family="Helvetica,sans-Serif" font-size="10.00">variant</text>
</a>
</g>
</g>
<!-- Node1&#45;&gt;Node15 -->
<g id="edge18" class="edge">
<title>Node1&#45;&gt;Node15</title>
<path fill="none" stroke="midnightblue" d="M919.72,-190.44C955.12,-180.74 1012.74,-164.95 1049.87,-154.77"/>
<polygon fill="midnightblue" stroke="midnightblue" points="1051.05,-158.07 1059.77,-152.05 1049.2,-151.32 1051.05,-158.07"/>
</g>
<!-- Node5&#45;&gt;Node2 -->
<g id="edge5" class="edge">
<title>Node5&#45;&gt;Node2</title>
<path fill="none" stroke="midnightblue" d="M440.34,-134.48C369.5,-125.94 258.42,-112.06 162.5,-98 153.39,-96.66 143.76,-95.17 134.34,-93.65"/>
<polygon fill="midnightblue" stroke="midnightblue" points="134.68,-90.16 124.25,-92.01 133.56,-97.07 134.68,-90.16"/>
</g>
<!-- Node5&#45;&gt;Node4 -->
<g id="edge6" class="edge">
<title>Node5&#45;&gt;Node4</title>
<path fill="none" stroke="midnightblue" d="M596.11,-136.21C635.5,-130.24 681.96,-119.03 719.5,-98 745.31,-83.54 767.82,-57.76 781.94,-39.06"/>
<polygon fill="midnightblue" stroke="midnightblue" points="784.92,-40.92 788,-30.78 779.27,-36.79 784.92,-40.92"/>
</g>
<!-- Node6 -->
<g id="node6" class="node">
<title>Node6</title>
<g id="a_node6"><a xlink:title=" ">
<polygon fill="white" stroke="#bfbfbf" points="767,-73 767,-92 860,-92 860,-73 767,-73"/>
<text text-anchor="middle" x="813.5" y="-80" font-family="Helvetica,sans-Serif" font-size="10.00">includes/node.h</text>
</a>
</g>
</g>
<!-- Node5&#45;&gt;Node6 -->
<g id="edge7" class="edge">
<title>Node5&#45;&gt;Node6</title>
<path fill="none" stroke="midnightblue" d="M561.82,-134.47C610.44,-125.89 686.77,-111.96 752.5,-98 757.82,-96.87 763.4,-95.63 768.91,-94.36"/>
<polygon fill="midnightblue" stroke="midnightblue" points="769.78,-97.75 778.73,-92.07 768.19,-90.93 769.78,-97.75"/>
</g>
<!-- Node7 -->
<g id="node7" class="node">
<title>Node7</title>
<g id="a_node7"><a xlink:title=" ">
<polygon fill="white" stroke="#bfbfbf" points="204.5,-73 204.5,-92 314.5,-92 314.5,-73 204.5,-73"/>
<text text-anchor="middle" x="259.5" y="-80" font-family="Helvetica,sans-Serif" font-size="10.00">includes/element.h</text>
</a>
</g>
</g>
<!-- Node5&#45;&gt;Node7 -->
<g id="edge8" class="edge">
<title>Node5&#45;&gt;Node7</title>
<path fill="none" stroke="midnightblue" d="M476.25,-134.48C431.35,-123.92 354.79,-105.91 305.72,-94.37"/>
<polygon fill="midnightblue" stroke="midnightblue" points="306.22,-90.89 295.68,-92.01 304.61,-97.71 306.22,-90.89"/>
</g>
<!-- Node8 -->
<g id="node8" class="node">
<title>Node8</title>
<g id="a_node8"><a xlink:title=" ">
<polygon fill="white" stroke="#bfbfbf" points="332.5,-73 332.5,-92 446.5,-92 446.5,-73 332.5,-73"/>
<text text-anchor="middle" x="389.5" y="-80" font-family="Helvetica,sans-Serif" font-size="10.00">includes/condition.h</text>
</a>
</g>
</g>
<!-- Node5&#45;&gt;Node8 -->
<g id="edge9" class="edge">
<title>Node5&#45;&gt;Node8</title>
<path fill="none" stroke="midnightblue" d="M494.88,-134.48C474.33,-124.53 440.14,-107.99 416.29,-96.46"/>
<polygon fill="midnightblue" stroke="midnightblue" points="417.62,-93.21 407.09,-92.01 414.57,-99.51 417.62,-93.21"/>
</g>
<!-- Node9 -->
<g id="node9" class="node">
<title>Node9</title>
<g id="a_node9"><a xlink:title=" ">
<polygon fill="white" stroke="#bfbfbf" points="464.5,-67.5 464.5,-97.5 560.5,-97.5 560.5,-67.5 464.5,-67.5"/>
<text text-anchor="start" x="472.5" y="-85.5" font-family="Helvetica,sans-Serif" font-size="10.00">utilities/variable</text>
<text text-anchor="middle" x="512.5" y="-74.5" font-family="Helvetica,sans-Serif" font-size="10.00">_utils.h</text>
</a>
</g>
</g>
<!-- Node5&#45;&gt;Node9 -->
<g id="edge10" class="edge">
<title>Node5&#45;&gt;Node9</title>
<path fill="none" stroke="midnightblue" d="M512.5,-134.48C512.5,-127.47 512.5,-117.19 512.5,-107.7"/>
<polygon fill="midnightblue" stroke="midnightblue" points="516,-107.52 512.5,-97.52 509,-107.52 516,-107.52"/>
</g>
<!-- Node10 -->
<g id="node10" class="node">
<title>Node10</title>
<g id="a_node10"><a xlink:href="OptionalRef_8hpp.html" target="_top" xlink:title=" ">
<polygon fill="white" stroke="black" points="578.5,-67.5 578.5,-97.5 710.5,-97.5 710.5,-67.5 578.5,-67.5"/>
<text text-anchor="start" x="586.5" y="-85.5" font-family="Helvetica,sans-Serif" font-size="10.00">wrapp/utils/inc/Optional</text>
<text text-anchor="middle" x="644.5" y="-74.5" font-family="Helvetica,sans-Serif" font-size="10.00">Ref.hpp</text>
</a>
</g>
</g>
<!-- Node5&#45;&gt;Node10 -->
<g id="edge11" class="edge">
<title>Node5&#45;&gt;Node10</title>
<path fill="none" stroke="midnightblue" d="M531.41,-134.48C550.29,-125.96 579.9,-112.62 604.08,-101.72"/>
<polygon fill="midnightblue" stroke="midnightblue" points="605.71,-104.82 613.39,-97.52 602.84,-98.44 605.71,-104.82"/>
</g>
<!-- Node12 -->
<g id="node12" class="node">
<title>Node12</title>
<g id="a_node12"><a xlink:title=" ">
<polygon fill="white" stroke="#bfbfbf" points="286,-6 286,-25 355,-25 355,-6 286,-6"/>
<text text-anchor="middle" x="320.5" y="-13" font-family="Helvetica,sans-Serif" font-size="10.00">type_traits</text>
</a>
</g>
</g>
<!-- Node5&#45;&gt;Node12 -->
<g id="edge17" class="edge">
<title>Node5&#45;&gt;Node12</title>
<path fill="none" stroke="midnightblue" d="M428.76,-143.03C345.22,-141.07 225.15,-132.16 195.5,-98 167.02,-65.19 229.49,-40.39 275.98,-27.19"/>
<polygon fill="midnightblue" stroke="midnightblue" points="277.19,-30.49 285.91,-24.47 275.34,-23.74 277.19,-30.49"/>
</g>
<!-- Node10&#45;&gt;Node4 -->
<g id="edge12" class="edge">
<title>Node10&#45;&gt;Node4</title>
<path fill="none" stroke="midnightblue" d="M677.7,-67.4C700.35,-57.77 730.57,-44.94 754.98,-34.56"/>
<polygon fill="midnightblue" stroke="midnightblue" points="756.53,-37.71 764.37,-30.58 753.79,-31.27 756.53,-37.71"/>
</g>
<!-- Node11 -->
<g id="node11" class="node">
<title>Node11</title>
<g id="a_node11"><a xlink:title=" ">
<polygon fill="white" stroke="#bfbfbf" points="536,-6 536,-25 653,-25 653,-6 536,-6"/>
<text text-anchor="middle" x="594.5" y="-13" font-family="Helvetica,sans-Serif" font-size="10.00">includes/exception.h</text>
</a>
</g>
</g>
<!-- Node10&#45;&gt;Node11 -->
<g id="edge13" class="edge">
<title>Node10&#45;&gt;Node11</title>
<path fill="none" stroke="midnightblue" d="M633.65,-67.4C625.93,-57.36 615.53,-43.84 607.39,-33.25"/>
<polygon fill="midnightblue" stroke="midnightblue" points="610.06,-30.99 601.19,-25.19 604.51,-35.25 610.06,-30.99"/>
</g>
<!-- Node10&#45;&gt;Node12 -->
<g id="edge14" class="edge">
<title>Node10&#45;&gt;Node12</title>
<path fill="none" stroke="midnightblue" d="M578.15,-68.19C514.54,-55.43 420.26,-36.51 365.13,-25.45"/>
<polygon fill="midnightblue" stroke="midnightblue" points="365.8,-22.02 355.31,-23.48 364.43,-28.88 365.8,-22.02"/>
</g>
<!-- Node13 -->
<g id="node13" class="node">
<title>Node13</title>
<g id="a_node13"><a xlink:title=" ">
<polygon fill="white" stroke="#bfbfbf" points="671.5,-6 671.5,-25 715.5,-25 715.5,-6 671.5,-6"/>
<text text-anchor="middle" x="693.5" y="-13" font-family="Helvetica,sans-Serif" font-size="10.00">bitset</text>
</a>
</g>
</g>
<!-- Node10&#45;&gt;Node13 -->
<g id="edge15" class="edge">
<title>Node10&#45;&gt;Node13</title>
<path fill="none" stroke="midnightblue" d="M655.13,-67.4C662.7,-57.36 672.89,-43.84 680.87,-33.25"/>
<polygon fill="midnightblue" stroke="midnightblue" points="683.72,-35.29 686.95,-25.19 678.13,-31.07 683.72,-35.29"/>
</g>
<!-- Node14 -->
<g id="node14" class="node">
<title>Node14</title>
<g id="a_node14"><a xlink:title=" ">
<polygon fill="white" stroke="#bfbfbf" points="467.5,-6 467.5,-25 517.5,-25 517.5,-6 467.5,-6"/>
<text text-anchor="middle" x="492.5" y="-13" font-family="Helvetica,sans-Serif" font-size="10.00">cstdint</text>
</a>
</g>
</g>
<!-- Node10&#45;&gt;Node14 -->
<g id="edge16" class="edge">
<title>Node10&#45;&gt;Node14</title>
<path fill="none" stroke="midnightblue" d="M611.52,-67.4C584.73,-55.94 547.31,-39.94 521.62,-28.95"/>
<polygon fill="midnightblue" stroke="midnightblue" points="522.96,-25.72 512.39,-25.01 520.21,-32.16 522.96,-25.72"/>
</g>
</g>
</svg>
