<?xml version="1.0" encoding="UTF-8" standalone="no"?>
<!DOCTYPE svg PUBLIC "-//W3C//DTD SVG 1.1//EN"
 "http://www.w3.org/Graphics/SVG/1.1/DTD/svg11.dtd">
<!-- Generated by graphviz version 2.43.0 (0)
 -->
<!-- Title: EntityProxy.hpp Pages: 1 -->
<svg width="893pt" height="162pt"
 viewBox="0.00 0.00 893.00 162.00" xmlns="http://www.w3.org/2000/svg" xmlns:xlink="http://www.w3.org/1999/xlink">
<g id="graph0" class="graph" transform="scale(1 1) rotate(0) translate(4 158)">
<title>EntityProxy.hpp</title>
<polygon fill="white" stroke="transparent" points="-4,4 -4,-158 889,-158 889,4 -4,4"/>
<!-- Node1 -->
<g id="node1" class="node">
<title>Node1</title>
<g id="a_node1"><a xlink:title=" ">
<polygon fill="#bfbfbf" stroke="black" points="390.5,-134.5 390.5,-153.5 482.5,-153.5 482.5,-134.5 390.5,-134.5"/>
<text text-anchor="middle" x="436.5" y="-141.5" font-family="Helvetica,sans-Serif" font-size="10.00">EntityProxy.hpp</text>
</a>
</g>
</g>
<!-- Node2 -->
<g id="node2" class="node">
<title>Node2</title>
<g id="a_node2"><a xlink:title=" ">
<polygon fill="white" stroke="#bfbfbf" points="0,-73 0,-92 149,-92 149,-73 0,-73"/>
<text text-anchor="middle" x="74.5" y="-80" font-family="Helvetica,sans-Serif" font-size="10.00">includes/global_variables.h</text>
</a>
</g>
</g>
<!-- Node1&#45;&gt;Node2 -->
<g id="edge1" class="edge">
<title>Node1&#45;&gt;Node2</title>
<path fill="none" stroke="midnightblue" d="M390.44,-135.44C336,-126.51 242.65,-111.19 162.5,-98 153.95,-96.59 144.94,-95.11 136.07,-93.65"/>
<polygon fill="midnightblue" stroke="midnightblue" points="136.59,-90.19 126.15,-92.02 135.45,-97.09 136.59,-90.19"/>
</g>
<!-- Node3 -->
<g id="node3" class="node">
<title>Node3</title>
<g id="a_node3"><a xlink:title=" ">
<polygon fill="white" stroke="#bfbfbf" points="258.5,-0.5 258.5,-30.5 386.5,-30.5 386.5,-0.5 258.5,-0.5"/>
<text text-anchor="start" x="266.5" y="-18.5" font-family="Helvetica,sans-Serif" font-size="10.00">includes/kratos_export</text>
<text text-anchor="middle" x="322.5" y="-7.5" font-family="Helvetica,sans-Serif" font-size="10.00">_api.h</text>
</a>
</g>
</g>
<!-- Node1&#45;&gt;Node3 -->
<g id="edge2" class="edge">
<title>Node1&#45;&gt;Node3</title>
<path fill="none" stroke="midnightblue" d="M390.28,-141.16C327.36,-137.57 219.77,-127.22 195.5,-98 171.82,-69.49 213.1,-47.6 254.78,-33.72"/>
<polygon fill="midnightblue" stroke="midnightblue" points="256.03,-36.99 264.49,-30.62 253.9,-30.32 256.03,-36.99"/>
</g>
<!-- Node4 -->
<g id="node4" class="node">
<title>Node4</title>
<g id="a_node4"><a xlink:title=" ">
<polygon fill="white" stroke="#bfbfbf" points="205,-73 205,-92 298,-92 298,-73 205,-73"/>
<text text-anchor="middle" x="251.5" y="-80" font-family="Helvetica,sans-Serif" font-size="10.00">includes/node.h</text>
</a>
</g>
</g>
<!-- Node1&#45;&gt;Node4 -->
<g id="edge3" class="edge">
<title>Node1&#45;&gt;Node4</title>
<path fill="none" stroke="midnightblue" d="M409.99,-134.48C377.85,-124.14 323.51,-106.66 287.57,-95.1"/>
<polygon fill="midnightblue" stroke="midnightblue" points="288.55,-91.74 277.96,-92.01 286.4,-98.4 288.55,-91.74"/>
</g>
<!-- Node5 -->
<g id="node5" class="node">
<title>Node5</title>
<g id="a_node5"><a xlink:title=" ">
<polygon fill="white" stroke="#bfbfbf" points="316.5,-73 316.5,-92 426.5,-92 426.5,-73 316.5,-73"/>
<text text-anchor="middle" x="371.5" y="-80" font-family="Helvetica,sans-Serif" font-size="10.00">includes/element.h</text>
</a>
</g>
</g>
<!-- Node1&#45;&gt;Node5 -->
<g id="edge4" class="edge">
<title>Node1&#45;&gt;Node5</title>
<path fill="none" stroke="midnightblue" d="M427.19,-134.48C417.05,-125.2 400.64,-110.17 388.25,-98.83"/>
<polygon fill="midnightblue" stroke="midnightblue" points="390.54,-96.18 380.8,-92.01 385.81,-101.34 390.54,-96.18"/>
</g>
<!-- Node6 -->
<g id="node6" class="node">
<title>Node6</title>
<g id="a_node6"><a xlink:title=" ">
<polygon fill="white" stroke="#bfbfbf" points="444.5,-73 444.5,-92 558.5,-92 558.5,-73 444.5,-73"/>
<text text-anchor="middle" x="501.5" y="-80" font-family="Helvetica,sans-Serif" font-size="10.00">includes/condition.h</text>
</a>
</g>
</g>
<!-- Node1&#45;&gt;Node6 -->
<g id="edge5" class="edge">
<title>Node1&#45;&gt;Node6</title>
<path fill="none" stroke="midnightblue" d="M445.81,-134.48C455.95,-125.2 472.36,-110.17 484.75,-98.83"/>
<polygon fill="midnightblue" stroke="midnightblue" points="487.19,-101.34 492.2,-92.01 482.46,-96.18 487.19,-101.34"/>
</g>
<!-- Node7 -->
<g id="node7" class="node">
<title>Node7</title>
<g id="a_node7"><a xlink:title=" ">
<polygon fill="white" stroke="#bfbfbf" points="576.5,-67.5 576.5,-97.5 672.5,-97.5 672.5,-67.5 576.5,-67.5"/>
<text text-anchor="start" x="584.5" y="-85.5" font-family="Helvetica,sans-Serif" font-size="10.00">utilities/variable</text>
<text text-anchor="middle" x="624.5" y="-74.5" font-family="Helvetica,sans-Serif" font-size="10.00">_utils.h</text>
</a>
</g>
</g>
<!-- Node1&#45;&gt;Node7 -->
<g id="edge6" class="edge">
<title>Node1&#45;&gt;Node7</title>
<path fill="none" stroke="midnightblue" d="M463.44,-134.48C491.28,-125.66 535.5,-111.67 570.57,-100.57"/>
<polygon fill="midnightblue" stroke="midnightblue" points="571.71,-103.88 580.19,-97.52 569.6,-97.2 571.71,-103.88"/>
</g>
<!-- Node8 -->
<g id="node8" class="node">
<title>Node8</title>
<g id="a_node8"><a xlink:href="OptionalRef_8hpp.html" target="_top" xlink:title=" ">
<polygon fill="white" stroke="black" points="690.5,-67.5 690.5,-97.5 822.5,-97.5 822.5,-67.5 690.5,-67.5"/>
<text text-anchor="start" x="698.5" y="-85.5" font-family="Helvetica,sans-Serif" font-size="10.00">wrapp/utils/inc/Optional</text>
<text text-anchor="middle" x="756.5" y="-74.5" font-family="Helvetica,sans-Serif" font-size="10.00">Ref.hpp</text>
</a>
</g>
</g>
<!-- Node1&#45;&gt;Node8 -->
<g id="edge7" class="edge">
<title>Node1&#45;&gt;Node8</title>
<path fill="none" stroke="midnightblue" d="M482.58,-134.67C529.73,-126.11 605.38,-112.31 680.18,-98.24"/>
<polygon fill="midnightblue" stroke="midnightblue" points="681.07,-101.63 690.25,-96.34 679.78,-94.75 681.07,-101.63"/>
</g>
<!-- Node10 -->
<g id="node10" class="node">
<title>Node10</title>
<g id="a_node10"><a xlink:title=" ">
<polygon fill="white" stroke="#bfbfbf" points="816,-6 816,-25 885,-25 885,-6 816,-6"/>
<text text-anchor="middle" x="850.5" y="-13" font-family="Helvetica,sans-Serif" font-size="10.00">type_traits</text>
</a>
</g>
</g>
<!-- Node1&#45;&gt;Node10 -->
<g id="edge13" class="edge">
<title>Node1&#45;&gt;Node10</title>
<path fill="none" stroke="midnightblue" d="M482.71,-140.7C581.4,-135.36 805.86,-120.84 831.5,-98 849.01,-82.4 851.99,-54.07 851.81,-35.27"/>
<polygon fill="midnightblue" stroke="midnightblue" points="855.3,-35.08 851.4,-25.23 848.31,-35.36 855.3,-35.08"/>
</g>
<!-- Node8&#45;&gt;Node3 -->
<g id="edge8" class="edge">
<title>Node8&#45;&gt;Node3</title>
<path fill="none" stroke="midnightblue" d="M690.28,-68.51C687.31,-67.99 684.38,-67.48 681.5,-67 583.22,-50.6 469.21,-35.17 396.51,-25.78"/>
<polygon fill="midnightblue" stroke="midnightblue" points="396.89,-22.31 386.53,-24.5 396,-29.25 396.89,-22.31"/>
</g>
<!-- Node9 -->
<g id="node9" class="node">
<title>Node9</title>
<g id="a_node9"><a xlink:title=" ">
<polygon fill="white" stroke="#bfbfbf" points="550,-6 550,-25 667,-25 667,-6 550,-6"/>
<text text-anchor="middle" x="608.5" y="-13" font-family="Helvetica,sans-Serif" font-size="10.00">includes/exception.h</text>
</a>
</g>
</g>
<!-- Node8&#45;&gt;Node9 -->
<g id="edge9" class="edge">
<title>Node8&#45;&gt;Node9</title>
<path fill="none" stroke="midnightblue" d="M724.39,-67.4C698.42,-55.99 662.19,-40.08 637.18,-29.1"/>
<polygon fill="midnightblue" stroke="midnightblue" points="638.43,-25.82 627.87,-25.01 635.62,-32.23 638.43,-25.82"/>
</g>
<!-- Node8&#45;&gt;Node10 -->
<g id="edge10" class="edge">
<title>Node8&#45;&gt;Node10</title>
<path fill="none" stroke="midnightblue" d="M776.9,-67.4C792.51,-56.6 813.98,-41.76 829.69,-30.89"/>
<polygon fill="midnightblue" stroke="midnightblue" points="831.96,-33.57 838.2,-25.01 827.98,-27.82 831.96,-33.57"/>
</g>
<!-- Node11 -->
<g id="node11" class="node">
<title>Node11</title>
<g id="a_node11"><a xlink:title=" ">
<polygon fill="white" stroke="#bfbfbf" points="685.5,-6 685.5,-25 729.5,-25 729.5,-6 685.5,-6"/>
<text text-anchor="middle" x="707.5" y="-13" font-family="Helvetica,sans-Serif" font-size="10.00">bitset</text>
</a>
</g>
</g>
<!-- Node8&#45;&gt;Node11 -->
<g id="edge11" class="edge">
<title>Node8&#45;&gt;Node11</title>
<path fill="none" stroke="midnightblue" d="M745.87,-67.4C738.3,-57.36 728.11,-43.84 720.13,-33.25"/>
<polygon fill="midnightblue" stroke="midnightblue" points="722.87,-31.07 714.05,-25.19 717.28,-35.29 722.87,-31.07"/>
</g>
<!-- Node12 -->
<g id="node12" class="node">
<title>Node12</title>
<g id="a_node12"><a xlink:title=" ">
<polygon fill="white" stroke="#bfbfbf" points="747.5,-6 747.5,-25 797.5,-25 797.5,-6 747.5,-6"/>
<text text-anchor="middle" x="772.5" y="-13" font-family="Helvetica,sans-Serif" font-size="10.00">cstdint</text>
</a>
</g>
</g>
<!-- Node8&#45;&gt;Node12 -->
<g id="edge12" class="edge">
<title>Node8&#45;&gt;Node12</title>
<path fill="none" stroke="midnightblue" d="M759.97,-67.4C762.29,-57.96 765.37,-45.45 767.9,-35.19"/>
<polygon fill="midnightblue" stroke="midnightblue" points="771.37,-35.74 770.36,-25.19 764.57,-34.07 771.37,-35.74"/>
</g>
</g>
</svg>
