<?xml version="1.0" encoding="UTF-8" standalone="no"?>
<!DOCTYPE svg PUBLIC "-//W3C//DTD SVG 1.1//EN"
 "http://www.w3.org/Graphics/SVG/1.1/DTD/svg11.dtd">
<!-- Generated by graphviz version 2.43.0 (0)
 -->
<!-- Title: EntityProxy.hpp Pages: 1 -->
<svg width="893pt" height="159pt"
 viewBox="0.00 0.00 893.00 159.00" xmlns="http://www.w3.org/2000/svg" xmlns:xlink="http://www.w3.org/1999/xlink">
<g id="graph0" class="graph" transform="scale(1 1) rotate(0) translate(4 155)">
<title>EntityProxy.hpp</title>
<!-- Node1 -->
<g id="Node000001" class="node">
<title>Node1</title>
<g id="a_Node000001"><a xlink:title=" ">
<polygon fill="#999999" stroke="#666666" points="482.5,-151 390.5,-151 390.5,-132 482.5,-132 482.5,-151"/>
<text text-anchor="middle" x="436.5" y="-139" font-family="Helvetica,sans-Serif" font-size="10.00">EntityProxy.hpp</text>
</a>
</g>
</g>
<!-- Node2 -->
<g id="Node000002" class="node">
<title>Node2</title>
<g id="a_Node000002"><a xlink:title=" ">
<polygon fill="#e0e0e0" stroke="#999999" points="149,-90.5 0,-90.5 0,-71.5 149,-71.5 149,-90.5"/>
<text text-anchor="middle" x="74.5" y="-78.5" font-family="Helvetica,sans-Serif" font-size="10.00">includes/global_variables.h</text>
</a>
</g>
</g>
<!-- Node1&#45;&gt;Node2 -->
<g id="edge1_Node000001_Node000002" class="edge">
<title>Node1&#45;&gt;Node2</title>
<g id="a_edge1_Node000001_Node000002"><a xlink:title=" ">
<path fill="none" stroke="#63b8ff" d="M390.28,-133.03C326.06,-122.65 209.62,-103.83 137.49,-92.18"/>
<polygon fill="#63b8ff" stroke="#63b8ff" points="137.61,-88.65 127.18,-90.51 136.49,-95.56 137.61,-88.65"/>
</a>
</g>
</g>
<!-- Node3 -->
<g id="Node000003" class="node">
<title>Node3</title>
<g id="a_Node000003"><a xlink:title=" ">
<polygon fill="#e0e0e0" stroke="#999999" points="386.5,-30 258.5,-30 258.5,0 386.5,0 386.5,-30"/>
<text text-anchor="start" x="266.5" y="-18" font-family="Helvetica,sans-Serif" font-size="10.00">includes/kratos_export</text>
<text text-anchor="middle" x="322.5" y="-7" font-family="Helvetica,sans-Serif" font-size="10.00">_api.h</text>
</a>
</g>
</g>
<!-- Node1&#45;&gt;Node3 -->
<g id="edge2_Node000001_Node000003" class="edge">
<title>Node1&#45;&gt;Node3</title>
<g id="a_edge2_Node000001_Node000003"><a xlink:title=" ">
<path fill="none" stroke="#63b8ff" d="M390.29,-138.76C327.38,-135.31 219.79,-125.19 195.5,-96 172.15,-67.94 212.38,-46.64 253.61,-33.09"/>
<polygon fill="#63b8ff" stroke="#63b8ff" points="254.74,-36.41 263.23,-30.07 252.64,-29.73 254.74,-36.41"/>
</a>
</g>
</g>
<!-- Node4 -->
<g id="Node000004" class="node">
<title>Node4</title>
<g id="a_Node000004"><a xlink:title=" ">
<polygon fill="#e0e0e0" stroke="#999999" points="298,-90.5 205,-90.5 205,-71.5 298,-71.5 298,-90.5"/>
<text text-anchor="middle" x="251.5" y="-78.5" font-family="Helvetica,sans-Serif" font-size="10.00">includes/node.h</text>
</a>
</g>
</g>
<!-- Node1&#45;&gt;Node4 -->
<g id="edge3_Node000001_Node000004" class="edge">
<title>Node1&#45;&gt;Node4</title>
<g id="a_edge3_Node000001_Node000004"><a xlink:title=" ">
<path fill="none" stroke="#63b8ff" d="M409.6,-131.99C377.54,-121.86 323.82,-104.87 288.02,-93.55"/>
<polygon fill="#63b8ff" stroke="#63b8ff" points="289.02,-90.19 278.43,-90.52 286.91,-96.87 289.02,-90.19"/>
</a>
</g>
</g>
<!-- Node5 -->
<g id="Node000005" class="node">
<title>Node5</title>
<g id="a_Node000005"><a xlink:title=" ">
<polygon fill="#e0e0e0" stroke="#999999" points="426.5,-90.5 316.5,-90.5 316.5,-71.5 426.5,-71.5 426.5,-90.5"/>
<text text-anchor="middle" x="371.5" y="-78.5" font-family="Helvetica,sans-Serif" font-size="10.00">includes/element.h</text>
</a>
</g>
</g>
<!-- Node1&#45;&gt;Node5 -->
<g id="edge4_Node000001_Node000005" class="edge">
<title>Node1&#45;&gt;Node5</title>
<g id="a_edge4_Node000001_Node000005"><a xlink:title=" ">
<path fill="none" stroke="#63b8ff" d="M426.91,-131.87C416.92,-122.88 401.07,-108.61 388.87,-97.64"/>
<polygon fill="#63b8ff" stroke="#63b8ff" points="390.9,-94.76 381.13,-90.67 386.22,-99.96 390.9,-94.76"/>
</a>
</g>
</g>
<!-- Node6 -->
<g id="Node000006" class="node">
<title>Node6</title>
<g id="a_Node000006"><a xlink:title=" ">
<polygon fill="#e0e0e0" stroke="#999999" points="558.5,-90.5 444.5,-90.5 444.5,-71.5 558.5,-71.5 558.5,-90.5"/>
<text text-anchor="middle" x="501.5" y="-78.5" font-family="Helvetica,sans-Serif" font-size="10.00">includes/condition.h</text>
</a>
</g>
</g>
<!-- Node1&#45;&gt;Node6 -->
<g id="edge5_Node000001_Node000006" class="edge">
<title>Node1&#45;&gt;Node6</title>
<g id="a_edge5_Node000001_Node000006"><a xlink:title=" ">
<path fill="none" stroke="#63b8ff" d="M446.09,-131.87C456.08,-122.88 471.93,-108.61 484.13,-97.64"/>
<polygon fill="#63b8ff" stroke="#63b8ff" points="486.78,-99.96 491.87,-90.67 482.1,-94.76 486.78,-99.96"/>
</a>
</g>
</g>
<!-- Node7 -->
<g id="Node000007" class="node">
<title>Node7</title>
<g id="a_Node000007"><a xlink:title=" ">
<polygon fill="#e0e0e0" stroke="#999999" points="672.5,-96 576.5,-96 576.5,-66 672.5,-66 672.5,-96"/>
<text text-anchor="start" x="584.5" y="-84" font-family="Helvetica,sans-Serif" font-size="10.00">utilities/variable</text>
<text text-anchor="middle" x="624.5" y="-73" font-family="Helvetica,sans-Serif" font-size="10.00">_utils.h</text>
</a>
</g>
</g>
<!-- Node1&#45;&gt;Node7 -->
<g id="edge6_Node000001_Node000007" class="edge">
<title>Node1&#45;&gt;Node7</title>
<g id="a_edge6_Node000001_Node000007"><a xlink:title=" ">
<path fill="none" stroke="#63b8ff" d="M463.84,-131.99C491.48,-123.39 534.98,-109.86 569.75,-99.04"/>
<polygon fill="#63b8ff" stroke="#63b8ff" points="570.79,-102.38 579.3,-96.06 568.71,-95.69 570.79,-102.38"/>
</a>
</g>
</g>
<!-- Node8 -->
<g id="Node000008" class="node">
<title>Node8</title>
<g id="a_Node000008"><a xlink:href="OptionalRef_8hpp.html" target="_top" xlink:title=" ">
<polygon fill="white" stroke="#666666" points="822.5,-96 690.5,-96 690.5,-66 822.5,-66 822.5,-96"/>
<text text-anchor="start" x="698.5" y="-84" font-family="Helvetica,sans-Serif" font-size="10.00">wrapp/utils/inc/Optional</text>
<text text-anchor="middle" x="756.5" y="-73" font-family="Helvetica,sans-Serif" font-size="10.00">Ref.hpp</text>
</a>
</g>
</g>
<!-- Node1&#45;&gt;Node8 -->
<g id="edge7_Node000001_Node000008" class="edge">
<title>Node1&#45;&gt;Node8</title>
<g id="a_edge7_Node000001_Node000008"><a xlink:title=" ">
<path fill="none" stroke="#63b8ff" d="M482.57,-132.2C529.71,-123.69 605.35,-110 680.18,-96.24"/>
<polygon fill="#63b8ff" stroke="#63b8ff" points="681.05,-99.64 690.25,-94.38 679.78,-92.75 681.05,-99.64"/>
</a>
</g>
</g>
<!-- Node10 -->
<g id="Node000010" class="node">
<title>Node10</title>
<g id="a_Node000010"><a xlink:title=" ">
<polygon fill="#e0e0e0" stroke="#999999" points="885,-24.5 816,-24.5 816,-5.5 885,-5.5 885,-24.5"/>
<text text-anchor="middle" x="850.5" y="-12.5" font-family="Helvetica,sans-Serif" font-size="10.00">type_traits</text>
</a>
</g>
</g>
<!-- Node1&#45;&gt;Node10 -->
<g id="edge13_Node000001_Node000010" class="edge">
<title>Node1&#45;&gt;Node10</title>
<g id="a_edge13_Node000001_Node000010"><a xlink:title=" ">
<path fill="none" stroke="#63b8ff" d="M482.7,-138.25C581.37,-133.03 805.8,-118.76 831.5,-96 848.67,-80.79 851.77,-53.17 851.7,-34.7"/>
<polygon fill="#63b8ff" stroke="#63b8ff" points="855.19,-34.44 851.34,-24.57 848.2,-34.69 855.19,-34.44"/>
</a>
</g>
</g>
<!-- Node8&#45;&gt;Node3 -->
<g id="edge8_Node000008_Node000003" class="edge">
<title>Node8&#45;&gt;Node3</title>
<g id="a_edge8_Node000008_Node000003"><a xlink:title=" ">
<path fill="none" stroke="#63b8ff" d="M690.28,-67.47C687.31,-66.96 684.38,-66.47 681.5,-66 583.18,-49.99 469.18,-34.66 396.49,-25.29"/>
<polygon fill="#63b8ff" stroke="#63b8ff" points="396.88,-21.81 386.51,-24.01 395.98,-28.75 396.88,-21.81"/>
</a>
</g>
</g>
<!-- Node9 -->
<g id="Node000009" class="node">
<title>Node9</title>
<g id="a_Node000009"><a xlink:title=" ">
<polygon fill="#e0e0e0" stroke="#999999" points="667,-24.5 550,-24.5 550,-5.5 667,-5.5 667,-24.5"/>
<text text-anchor="middle" x="608.5" y="-12.5" font-family="Helvetica,sans-Serif" font-size="10.00">includes/exception.h</text>
</a>
</g>
</g>
<!-- Node8&#45;&gt;Node9 -->
<g id="edge9_Node000008_Node000009" class="edge">
<title>Node8&#45;&gt;Node9</title>
<g id="a_edge9_Node000008_Node000009"><a xlink:title=" ">
<path fill="none" stroke="#63b8ff" d="M724.02,-65.95C698.18,-54.78 662.35,-39.29 637.47,-28.53"/>
<polygon fill="#63b8ff" stroke="#63b8ff" points="638.76,-25.27 628.2,-24.52 635.99,-31.7 638.76,-25.27"/>
</a>
</g>
</g>
<!-- Node8&#45;&gt;Node10 -->
<g id="edge10_Node000008_Node000010" class="edge">
<title>Node8&#45;&gt;Node10</title>
<g id="a_edge10_Node000008_Node000010"><a xlink:title=" ">
<path fill="none" stroke="#63b8ff" d="M777.36,-65.8C792.82,-55.27 813.82,-40.97 829.35,-30.4"/>
<polygon fill="#63b8ff" stroke="#63b8ff" points="831.49,-33.18 837.78,-24.66 827.55,-27.39 831.49,-33.18"/>
</a>
</g>
</g>
<!-- Node11 -->
<g id="Node000011" class="node">
<title>Node11</title>
<g id="a_Node000011"><a xlink:title=" ">
<polygon fill="#e0e0e0" stroke="#999999" points="729.5,-24.5 685.5,-24.5 685.5,-5.5 729.5,-5.5 729.5,-24.5"/>
<text text-anchor="middle" x="707.5" y="-12.5" font-family="Helvetica,sans-Serif" font-size="10.00">bitset</text>
</a>
</g>
</g>
<!-- Node8&#45;&gt;Node11 -->
<g id="edge11_Node000008_Node000011" class="edge">
<title>Node8&#45;&gt;Node11</title>
<g id="a_edge11_Node000008_Node000011"><a xlink:title=" ">
<path fill="none" stroke="#63b8ff" d="M745.63,-65.8C738.21,-56.11 728.36,-43.24 720.52,-33.01"/>
<polygon fill="#63b8ff" stroke="#63b8ff" points="723.13,-30.66 714.27,-24.84 717.57,-34.91 723.13,-30.66"/>
</a>
</g>
</g>
<!-- Node12 -->
<g id="Node000012" class="node">
<title>Node12</title>
<g id="a_Node000012"><a xlink:title=" ">
<polygon fill="#e0e0e0" stroke="#999999" points="797.5,-24.5 747.5,-24.5 747.5,-5.5 797.5,-5.5 797.5,-24.5"/>
<text text-anchor="middle" x="772.5" y="-12.5" font-family="Helvetica,sans-Serif" font-size="10.00">cstdint</text>
</a>
</g>
</g>
<!-- Node8&#45;&gt;Node12 -->
<g id="edge12_Node000008_Node000012" class="edge">
<title>Node8&#45;&gt;Node12</title>
<g id="a_edge12_Node000008_Node000012"><a xlink:title=" ">
<path fill="none" stroke="#63b8ff" d="M760.05,-65.8C762.35,-56.6 765.37,-44.53 767.86,-34.58"/>
<polygon fill="#63b8ff" stroke="#63b8ff" points="771.26,-35.39 770.29,-24.84 764.47,-33.7 771.26,-35.39"/>
</a>
</g>
</g>
</g>
</svg>
