<?xml version="1.0" encoding="UTF-8" standalone="no"?>
<!DOCTYPE svg PUBLIC "-//W3C//DTD SVG 1.1//EN"
 "http://www.w3.org/Graphics/SVG/1.1/DTD/svg11.dtd">
<!-- Generated by graphviz version 2.43.0 (0)
 -->
<!-- Title: WRApplication Pages: 1 -->
<svg width="226pt" height="286pt"
 viewBox="0.00 0.00 226.00 286.00" xmlns="http://www.w3.org/2000/svg" xmlns:xlink="http://www.w3.org/1999/xlink">
<g id="graph0" class="graph" transform="scale(1 1) rotate(0) translate(4 282)">
<title>WRApplication</title>
<polygon fill="white" stroke="transparent" points="-4,4 -4,-282 222,-282 222,4 -4,4"/>
<!-- Node1 -->
<g id="node1" class="node">
<title>Node1</title>
<g id="a_node1"><a xlink:title=" ">
<polygon fill="#bfbfbf" stroke="black" points="88,-148 0,-148 0,-129 88,-129 88,-148"/>
<text text-anchor="middle" x="44" y="-136" font-family="Helvetica,sans-Serif" font-size="10.00">WRApplication</text>
</a>
</g>
</g>
<!-- Node6 -->
<g id="node2" class="node">
<title>Node6</title>
<g id="a_node2"><a xlink:href="group__checkpointing.html" target="_top" xlink:title=" ">
<polygon fill="white" stroke="black" points="214,-278 128,-278 128,-259 214,-259 214,-278"/>
<text text-anchor="middle" x="171" y="-266" font-family="Helvetica,sans-Serif" font-size="10.00">Checkpointing</text>
</a>
</g>
</g>
<!-- Node1&#45;&gt;Node6 -->
<g id="edge5" class="edge">
<title>Node1&#45;&gt;Node6</title>
<path fill="none" stroke="black" d="M53.71,-157C66.12,-181.52 91.08,-224.7 124,-250.5 128.18,-253.78 133.04,-256.53 138,-258.81"/>
<polygon fill="black" stroke="black" points="56.85,-155.46 49.31,-148.02 50.57,-158.54 56.85,-155.46"/>
</g>
<!-- Node4 -->
<g id="node3" class="node">
<title>Node4</title>
<g id="a_node3"><a xlink:href="group__numeric.html" target="_top" xlink:title=" ">
<polygon fill="white" stroke="black" points="200,-241 142,-241 142,-222 200,-222 200,-241"/>
<text text-anchor="middle" x="171" y="-229" font-family="Helvetica,sans-Serif" font-size="10.00">Numeric</text>
</a>
</g>
</g>
<!-- Node1&#45;&gt;Node4 -->
<g id="edge3" class="edge">
<title>Node1&#45;&gt;Node4</title>
<path fill="none" stroke="black" d="M59.67,-155.89C74.48,-172.54 98.72,-197.43 124,-213.5 129.5,-217 135.79,-220 141.91,-222.5"/>
<polygon fill="black" stroke="black" points="62.03,-153.27 52.83,-148.02 56.75,-157.87 62.03,-153.27"/>
</g>
<!-- Node3 -->
<g id="node4" class="node">
<title>Node3</title>
<g id="a_node4"><a xlink:href="group__multiprocessing.html" target="_top" xlink:title=" ">
<polygon fill="white" stroke="black" points="218,-204 124,-204 124,-185 218,-185 218,-204"/>
<text text-anchor="middle" x="171" y="-192" font-family="Helvetica,sans-Serif" font-size="10.00">Multiprocessing</text>
</a>
</g>
</g>
<!-- Node1&#45;&gt;Node3 -->
<g id="edge2" class="edge">
<title>Node1&#45;&gt;Node3</title>
<path fill="none" stroke="black" d="M73.2,-152.7C88.17,-160.08 106.94,-169.07 124,-176.5 130.6,-179.38 137.83,-182.3 144.55,-184.94"/>
<polygon fill="black" stroke="black" points="74.48,-149.43 63.97,-148.12 71.37,-155.7 74.48,-149.43"/>
</g>
<!-- Node7 -->
<g id="node5" class="node">
<title>Node7</title>
<g id="a_node5"><a xlink:href="group__utilities.html" target="_top" xlink:title=" ">
<polygon fill="white" stroke="black" points="198.5,-167 143.5,-167 143.5,-148 198.5,-148 198.5,-167"/>
<text text-anchor="middle" x="171" y="-155" font-family="Helvetica,sans-Serif" font-size="10.00">Utilities</text>
</a>
</g>
</g>
<!-- Node1&#45;&gt;Node7 -->
<g id="edge6" class="edge">
<title>Node1&#45;&gt;Node7</title>
<path fill="none" stroke="black" d="M98.12,-146.57C113.72,-148.95 130.12,-151.44 143.31,-153.44"/>
<polygon fill="black" stroke="black" points="98.43,-143.08 88.02,-145.04 97.38,-150 98.43,-143.08"/>
</g>
<!-- Node9 -->
<g id="node6" class="node">
<title>Node9</title>
<g id="a_node6"><a xlink:href="group__testing.html" target="_top" xlink:title=" ">
<polygon fill="white" stroke="black" points="196.5,-130 145.5,-130 145.5,-111 196.5,-111 196.5,-130"/>
<text text-anchor="middle" x="171" y="-118" font-family="Helvetica,sans-Serif" font-size="10.00">Testing</text>
</a>
</g>
</g>
<!-- Node1&#45;&gt;Node9 -->
<g id="edge8" class="edge">
<title>Node1&#45;&gt;Node9</title>
<path fill="none" stroke="black" d="M98.05,-130.86C114.4,-128.51 131.64,-126.02 145.15,-124.08"/>
<polygon fill="black" stroke="black" points="97.42,-127.42 88.02,-132.31 98.41,-134.34 97.42,-127.42"/>
</g>
<!-- Node8 -->
<g id="node7" class="node">
<title>Node8</title>
<g id="a_node7"><a xlink:href="group__AsyncAnalysis.html" target="_top" xlink:title=" ">
<polygon fill="white" stroke="black" points="214.5,-93 127.5,-93 127.5,-74 214.5,-74 214.5,-93"/>
<text text-anchor="middle" x="171" y="-81" font-family="Helvetica,sans-Serif" font-size="10.00">AsyncAnalysis</text>
</a>
</g>
</g>
<!-- Node1&#45;&gt;Node8 -->
<g id="edge7" class="edge">
<title>Node1&#45;&gt;Node8</title>
<path fill="none" stroke="black" d="M74.54,-124.73C89.34,-117.92 107.56,-109.64 124,-102.5 131.29,-99.33 139.28,-95.99 146.53,-93"/>
<polygon fill="black" stroke="black" points="72.98,-121.6 65.37,-128.97 75.92,-127.95 72.98,-121.6"/>
</g>
<!-- Node2 -->
<g id="node8" class="node">
<title>Node2</title>
<g id="a_node8"><a xlink:href="group__io.html" target="_top" xlink:title=" ">
<polygon fill="white" stroke="black" points="185.5,-56 156.5,-56 156.5,-37 185.5,-37 185.5,-56"/>
<text text-anchor="middle" x="171" y="-44" font-family="Helvetica,sans-Serif" font-size="10.00">Io</text>
</a>
</g>
</g>
<!-- Node1&#45;&gt;Node2 -->
<g id="edge1" class="edge">
<title>Node1&#45;&gt;Node2</title>
<path fill="none" stroke="black" d="M60.31,-121.18C75.28,-105.08 99.35,-81.26 124,-65.5 134.05,-59.08 146.63,-54.06 156.09,-50.8"/>
<polygon fill="black" stroke="black" points="57.51,-119.07 53.36,-128.82 62.68,-123.78 57.51,-119.07"/>
</g>
<!-- Node5 -->
<g id="node9" class="node">
<title>Node5</title>
<g id="a_node9"><a xlink:href="group__pipes.html" target="_top" xlink:title=" ">
<polygon fill="white" stroke="black" points="192.5,-19 149.5,-19 149.5,0 192.5,0 192.5,-19"/>
<text text-anchor="middle" x="171" y="-7" font-family="Helvetica,sans-Serif" font-size="10.00">Pipes</text>
</a>
</g>
</g>
<!-- Node1&#45;&gt;Node5 -->
<g id="edge4" class="edge">
<title>Node1&#45;&gt;Node5</title>
<path fill="none" stroke="black" d="M54.22,-119.74C66.92,-95.65 91.91,-53.92 124,-28.5 131.45,-22.6 140.99,-18.26 149.45,-15.23"/>
<polygon fill="black" stroke="black" points="50.98,-118.39 49.55,-128.89 57.22,-121.58 50.98,-118.39"/>
</g>
</g>
</svg>
