<?xml version="1.0" encoding="UTF-8" standalone="no"?>
<!DOCTYPE svg PUBLIC "-//W3C//DTD SVG 1.1//EN"
 "http://www.w3.org/Graphics/SVG/1.1/DTD/svg11.dtd">
<!-- Generated by graphviz version 2.43.0 (0)
 -->
<!-- Title: WRApplication Pages: 1 -->
<svg width="226pt" height="286pt"
 viewBox="0.00 0.00 226.00 286.00" xmlns="http://www.w3.org/2000/svg" xmlns:xlink="http://www.w3.org/1999/xlink">

<svg id="main" version="1.1" xmlns="http://www.w3.org/2000/svg" xmlns:xlink="http://www.w3.org/1999/xlink" xml:space="preserve" onload="init(evt)">
<style type="text/css"><![CDATA[
.node, .edge {opacity: 0.7;}
.node.selected, .edge.selected {opacity: 1;}
.edge:hover path { stroke: red; }
.edge:hover polygon { stroke: red; fill: red; }
]]></style>
<script type="application/ecmascript" xlink:href="svg.min.js"/>
<svg id="graph" class="graph">
<g id="graph0" class="graph" transform="scale(1 1) rotate(0) translate(4 282)">
<title>WRApplication</title>
<!-- Node8 -->
<g id="Node000008" class="node">
<title>Node8</title>
<g id="a_Node000008"><a xlink:href="group__AsyncAnalysis.html" target="_top" xlink:title=" ">
<polygon fill="white" stroke="#666666" points="214.5,-278 127.5,-278 127.5,-259 214.5,-259 214.5,-278"/>
<text text-anchor="middle" x="171" y="-266" font-family="Helvetica,sans-Serif" font-size="10.00">AsyncAnalysis</text>
</a>
</g>
</g>
<!-- Node1 -->
<g id="Node000001" class="node">
<title>Node1</title>
<g id="a_Node000001"><a xlink:title=" ">
<polygon fill="#999999" stroke="#666666" points="88,-148 0,-148 0,-129 88,-129 88,-148"/>
<text text-anchor="middle" x="44" y="-136" font-family="Helvetica,sans-Serif" font-size="10.00">WRApplication</text>
</a>
</g>
</g>
<!-- Node1&#45;&gt;Node8 -->
<g id="edge7" class="edge">
<title>Node1&#45;&gt;Node8</title>
<path fill="none" stroke="black" d="M53.71,-157C66.12,-181.52 91.08,-224.7 124,-250.5 128.18,-253.78 133.04,-256.53 138,-258.81"/>
<polygon fill="black" stroke="black" points="56.85,-155.46 49.31,-148.02 50.57,-158.54 56.85,-155.46"/>
</g>
<!-- Node6 -->
<g id="Node000006" class="node">
<title>Node6</title>
<g id="a_Node000006"><a xlink:href="group__checkpointing.html" target="_top" xlink:title=" ">
<polygon fill="white" stroke="#666666" points="214,-241 128,-241 128,-222 214,-222 214,-241"/>
<text text-anchor="middle" x="171" y="-229" font-family="Helvetica,sans-Serif" font-size="10.00">Checkpointing</text>
</a>
</g>
</g>
<!-- Node1&#45;&gt;Node6 -->
<g id="edge5" class="edge">
<title>Node1&#45;&gt;Node6</title>
<path fill="none" stroke="black" d="M59.67,-155.89C74.48,-172.54 98.72,-197.43 124,-213.5 129.07,-216.72 134.8,-219.53 140.46,-221.9"/>
<polygon fill="black" stroke="black" points="62.03,-153.27 52.83,-148.02 56.75,-157.87 62.03,-153.27"/>
</g>
<!-- Node2 -->
<g id="Node000002" class="node">
<title>Node2</title>
<g id="a_Node000002"><a xlink:href="group__io.html" target="_top" xlink:title=" ">
<polygon fill="white" stroke="#666666" points="185.5,-204 156.5,-204 156.5,-185 185.5,-185 185.5,-204"/>
<text text-anchor="middle" x="171" y="-192" font-family="Helvetica,sans-Serif" font-size="10.00">Io</text>
</a>
</g>
</g>
<!-- Node1&#45;&gt;Node2 -->
<g id="edge1" class="edge">
<title>Node1&#45;&gt;Node2</title>
<path fill="none" stroke="black" d="M73.2,-152.7C88.17,-160.08 106.94,-169.07 124,-176.5 134.69,-181.16 147.01,-185.95 156.2,-189.41"/>
<polygon fill="black" stroke="black" points="74.48,-149.43 63.97,-148.12 71.37,-155.7 74.48,-149.43"/>
</g>
<!-- Node3 -->
<g id="Node000003" class="node">
<title>Node3</title>
<g id="a_Node000003"><a xlink:href="group__multiprocessing.html" target="_top" xlink:title=" ">
<polygon fill="white" stroke="#666666" points="218,-167 124,-167 124,-148 218,-148 218,-167"/>
<text text-anchor="middle" x="171" y="-155" font-family="Helvetica,sans-Serif" font-size="10.00">Multiprocessing</text>
</a>
</g>
</g>
<!-- Node1&#45;&gt;Node3 -->
<g id="edge2" class="edge">
<title>Node1&#45;&gt;Node3</title>
<path fill="none" stroke="black" d="M97.98,-146.55C106.61,-147.86 115.48,-149.21 123.92,-150.5"/>
<polygon fill="black" stroke="black" points="98.43,-143.08 88.02,-145.04 97.38,-150 98.43,-143.08"/>
</g>
<!-- Node4 -->
<g id="Node000004" class="node">
<title>Node4</title>
<g id="a_Node000004"><a xlink:href="group__numeric.html" target="_top" xlink:title=" ">
<polygon fill="white" stroke="#666666" points="200,-130 142,-130 142,-111 200,-111 200,-130"/>
<text text-anchor="middle" x="171" y="-118" font-family="Helvetica,sans-Serif" font-size="10.00">Numeric</text>
</a>
</g>
</g>
<!-- Node1&#45;&gt;Node4 -->
<g id="edge3" class="edge">
<title>Node1&#45;&gt;Node4</title>
<path fill="none" stroke="black" d="M98.23,-130.83C113.22,-128.68 128.93,-126.41 141.82,-124.56"/>
<polygon fill="black" stroke="black" points="97.42,-127.42 88.02,-132.31 98.41,-134.34 97.42,-127.42"/>
</g>
<!-- Node5 -->
<g id="Node000005" class="node">
<title>Node5</title>
<g id="a_Node000005"><a xlink:href="group__pipes.html" target="_top" xlink:title=" ">
<polygon fill="white" stroke="#666666" points="192.5,-93 149.5,-93 149.5,-74 192.5,-74 192.5,-93"/>
<text text-anchor="middle" x="171" y="-81" font-family="Helvetica,sans-Serif" font-size="10.00">Pipes</text>
</a>
</g>
</g>
<!-- Node1&#45;&gt;Node5 -->
<g id="edge4" class="edge">
<title>Node1&#45;&gt;Node5</title>
<path fill="none" stroke="black" d="M74.54,-124.73C89.34,-117.92 107.56,-109.64 124,-102.5 132.24,-98.92 141.38,-95.11 149.32,-91.86"/>
<polygon fill="black" stroke="black" points="72.98,-121.6 65.37,-128.97 75.92,-127.95 72.98,-121.6"/>
</g>
<!-- Node9 -->
<g id="Node000009" class="node">
<title>Node9</title>
<g id="a_Node000009"><a xlink:href="group__testing.html" target="_top" xlink:title=" ">
<polygon fill="white" stroke="#666666" points="196.5,-56 145.5,-56 145.5,-37 196.5,-37 196.5,-56"/>
<text text-anchor="middle" x="171" y="-44" font-family="Helvetica,sans-Serif" font-size="10.00">Testing</text>
</a>
</g>
</g>
<!-- Node1&#45;&gt;Node9 -->
<g id="edge8" class="edge">
<title>Node1&#45;&gt;Node9</title>
<path fill="none" stroke="black" d="M60.31,-121.18C75.28,-105.08 99.35,-81.26 124,-65.5 130.55,-61.31 138.18,-57.72 145.32,-54.82"/>
<polygon fill="black" stroke="black" points="57.51,-119.07 53.36,-128.82 62.68,-123.78 57.51,-119.07"/>
</g>
<!-- Node7 -->
<g id="Node000007" class="node">
<title>Node7</title>
<g id="a_Node000007"><a xlink:href="group__utilities.html" target="_top" xlink:title=" ">
<polygon fill="white" stroke="#666666" points="198.5,-19 143.5,-19 143.5,0 198.5,0 198.5,-19"/>
<text text-anchor="middle" x="171" y="-7" font-family="Helvetica,sans-Serif" font-size="10.00">Utilities</text>
</a>
</g>
</g>
<!-- Node1&#45;&gt;Node7 -->
<g id="edge6" class="edge">
<title>Node1&#45;&gt;Node7</title>
<path fill="none" stroke="black" d="M54.22,-119.74C66.92,-95.65 91.91,-53.92 124,-28.5 129.69,-23.99 136.6,-20.4 143.31,-17.6"/>
<polygon fill="black" stroke="black" points="50.98,-118.39 49.55,-128.89 57.22,-121.58 50.98,-118.39"/>
</g>
</g>
</svg>
</svg>

<style type='text/css'>
<![CDATA[
[data-mouse-over-selected='false'] { opacity: 0.7; }
[data-mouse-over-selected='true']  { opacity: 1.0; }
]]>
</style>
<script type="application/ecmascript"><![CDATA[
document.addEventListener('DOMContentLoaded', (event) => {
  highlightEdges();
  highlightAdjacentNodes();
});
]]></script>
</svg>
