<?xml version="1.0" encoding="UTF-8" standalone="no"?>
<!DOCTYPE svg PUBLIC "-//W3C//DTD SVG 1.1//EN"
 "http://www.w3.org/Graphics/SVG/1.1/DTD/svg11.dtd">
<!-- Generated by graphviz version 2.43.0 (0)
 -->
<!-- Title: Hdf5LinSpaceOperation.hpp Pages: 1 -->
<svg width="672pt" height="148pt"
 viewBox="0.00 0.00 671.50 148.00" xmlns="http://www.w3.org/2000/svg" xmlns:xlink="http://www.w3.org/1999/xlink">
<g id="graph0" class="graph" transform="scale(1 1) rotate(0) translate(4 144)">
<title>Hdf5LinSpaceOperation.hpp</title>
<!-- Node1 -->
<g id="Node000001" class="node">
<title>Node1</title>
<g id="a_Node000001"><a xlink:title=" ">
<polygon fill="#999999" stroke="#666666" points="525.5,-140 373.5,-140 373.5,-121 525.5,-121 525.5,-140"/>
<text text-anchor="middle" x="449.5" y="-128" font-family="Helvetica,sans-Serif" font-size="10.00">Hdf5LinSpaceOperation.hpp</text>
</a>
</g>
</g>
<!-- Node2 -->
<g id="Node000002" class="node">
<title>Node2</title>
<g id="a_Node000002"><a xlink:href="WRAppClass_8hpp.html" target="_top" xlink:title=" ">
<polygon fill="white" stroke="#666666" points="421,-85 248,-85 248,-66 421,-66 421,-85"/>
<text text-anchor="middle" x="334.5" y="-73" font-family="Helvetica,sans-Serif" font-size="10.00">wrapp/utils/inc/WRAppClass.hpp</text>
</a>
</g>
</g>
<!-- Node1&#45;&gt;Node2 -->
<g id="edge1_Node000001_Node000002" class="edge">
<title>Node1&#45;&gt;Node2</title>
<g id="a_edge1_Node000001_Node000002"><a xlink:title=" ">
<path fill="none" stroke="#63b8ff" d="M431.02,-120.98C412.52,-112.46 383.82,-99.23 362.52,-89.41"/>
<polygon fill="#63b8ff" stroke="#63b8ff" points="363.86,-86.18 353.31,-85.17 360.93,-92.53 363.86,-86.18"/>
</a>
</g>
</g>
<!-- Node3 -->
<g id="Node000003" class="node">
<title>Node3</title>
<g id="a_Node000003"><a xlink:href="common_8hpp.html" target="_top" xlink:title=" ">
<polygon fill="white" stroke="#666666" points="155,-24.5 0,-24.5 0,-5.5 155,-5.5 155,-24.5"/>
<text text-anchor="middle" x="77.5" y="-12.5" font-family="Helvetica,sans-Serif" font-size="10.00">wrapp/utils/inc/common.hpp</text>
</a>
</g>
</g>
<!-- Node1&#45;&gt;Node3 -->
<g id="edge6_Node000001_Node000003" class="edge">
<title>Node1&#45;&gt;Node3</title>
<g id="a_edge6_Node000001_Node000003"><a xlink:title=" ">
<path fill="none" stroke="#63b8ff" d="M395.24,-120.98C352.39,-113.55 291.39,-101.38 239.5,-85 190.1,-69.41 135.11,-44.22 103.58,-28.98"/>
<polygon fill="#63b8ff" stroke="#63b8ff" points="105.1,-25.82 94.58,-24.59 102.03,-32.12 105.1,-25.82"/>
</a>
</g>
</g>
<!-- Node5 -->
<g id="Node000005" class="node">
<title>Node5</title>
<g id="a_Node000005"><a xlink:title=" ">
<polygon fill="#e0e0e0" stroke="#999999" points="642,-24.5 499,-24.5 499,-5.5 642,-5.5 642,-24.5"/>
<text text-anchor="middle" x="570.5" y="-12.5" font-family="Helvetica,sans-Serif" font-size="10.00">includes/smart_pointers.h</text>
</a>
</g>
</g>
<!-- Node1&#45;&gt;Node5 -->
<g id="edge7_Node000001_Node000005" class="edge">
<title>Node1&#45;&gt;Node5</title>
<g id="a_edge7_Node000001_Node000005"><a xlink:title=" ">
<path fill="none" stroke="#63b8ff" d="M449.95,-120.66C451.07,-107.33 454.96,-81.98 468.5,-66 483.91,-47.81 507.5,-35.66 528.12,-27.89"/>
<polygon fill="#63b8ff" stroke="#63b8ff" points="529.38,-31.15 537.64,-24.52 527.05,-24.55 529.38,-31.15"/>
</a>
</g>
</g>
<!-- Node7 -->
<g id="Node000007" class="node">
<title>Node7</title>
<g id="a_Node000007"><a xlink:title=" ">
<polygon fill="#e0e0e0" stroke="#999999" points="587.5,-85 477.5,-85 477.5,-66 587.5,-66 587.5,-85"/>
<text text-anchor="middle" x="532.5" y="-73" font-family="Helvetica,sans-Serif" font-size="10.00">containers/model.h</text>
</a>
</g>
</g>
<!-- Node1&#45;&gt;Node7 -->
<g id="edge8_Node000001_Node000007" class="edge">
<title>Node1&#45;&gt;Node7</title>
<g id="a_edge8_Node000001_Node000007"><a xlink:title=" ">
<path fill="none" stroke="#63b8ff" d="M462.84,-120.98C475.59,-112.84 495.05,-100.41 510.17,-90.76"/>
<polygon fill="#63b8ff" stroke="#63b8ff" points="512.38,-93.5 518.92,-85.17 508.61,-87.6 512.38,-93.5"/>
</a>
</g>
</g>
<!-- Node8 -->
<g id="Node000008" class="node">
<title>Node8</title>
<g id="a_Node000008"><a xlink:title=" ">
<polygon fill="#e0e0e0" stroke="#999999" points="663.5,-85 605.5,-85 605.5,-66 663.5,-66 663.5,-85"/>
<text text-anchor="middle" x="634.5" y="-73" font-family="Helvetica,sans-Serif" font-size="10.00">memory</text>
</a>
</g>
</g>
<!-- Node1&#45;&gt;Node8 -->
<g id="edge9_Node000001_Node000008" class="edge">
<title>Node1&#45;&gt;Node8</title>
<g id="a_edge9_Node000001_Node000008"><a xlink:title=" ">
<path fill="none" stroke="#63b8ff" d="M479.22,-120.98C510.83,-111.93 560.95,-97.57 595.66,-87.63"/>
<polygon fill="#63b8ff" stroke="#63b8ff" points="596.81,-90.94 605.46,-84.82 594.88,-84.21 596.81,-90.94"/>
</a>
</g>
</g>
<!-- Node2&#45;&gt;Node3 -->
<g id="edge2_Node000002_Node000003" class="edge">
<title>Node2&#45;&gt;Node3</title>
<g id="a_edge2_Node000002_Node000003"><a xlink:title=" ">
<path fill="none" stroke="#63b8ff" d="M297.13,-65.99C251.55,-55.62 174.44,-38.07 124.77,-26.76"/>
<polygon fill="#63b8ff" stroke="#63b8ff" points="125.44,-23.32 114.92,-24.52 123.89,-30.15 125.44,-23.32"/>
</a>
</g>
</g>
<!-- Node4 -->
<g id="Node000004" class="node">
<title>Node4</title>
<g id="a_Node000004"><a xlink:title=" ">
<polygon fill="#e0e0e0" stroke="#999999" points="334,-24.5 173,-24.5 173,-5.5 334,-5.5 334,-24.5"/>
<text text-anchor="middle" x="253.5" y="-12.5" font-family="Helvetica,sans-Serif" font-size="10.00">includes/kratos_parameters.h</text>
</a>
</g>
</g>
<!-- Node2&#45;&gt;Node4 -->
<g id="edge3_Node000002_Node000004" class="edge">
<title>Node2&#45;&gt;Node4</title>
<g id="a_edge3_Node000002_Node000004"><a xlink:title=" ">
<path fill="none" stroke="#63b8ff" d="M322.55,-65.87C309.75,-56.62 289.2,-41.78 273.85,-30.69"/>
<polygon fill="#63b8ff" stroke="#63b8ff" points="275.66,-27.68 265.5,-24.67 271.56,-33.36 275.66,-27.68"/>
</a>
</g>
</g>
<!-- Node2&#45;&gt;Node5 -->
<g id="edge4_Node000002_Node000005" class="edge">
<title>Node2&#45;&gt;Node5</title>
<g id="a_edge4_Node000002_Node000005"><a xlink:title=" ">
<path fill="none" stroke="#63b8ff" d="M368.82,-65.99C410.41,-55.68 480.6,-38.28 526.23,-26.97"/>
<polygon fill="#63b8ff" stroke="#63b8ff" points="527.28,-30.32 536.14,-24.52 525.59,-23.53 527.28,-30.32"/>
</a>
</g>
</g>
<!-- Node6 -->
<g id="Node000006" class="node">
<title>Node6</title>
<g id="a_Node000006"><a xlink:title=" ">
<polygon fill="#e0e0e0" stroke="#999999" points="480.5,-30 352.5,-30 352.5,0 480.5,0 480.5,-30"/>
<text text-anchor="start" x="360.5" y="-18" font-family="Helvetica,sans-Serif" font-size="10.00">includes/kratos_export</text>
<text text-anchor="middle" x="416.5" y="-7" font-family="Helvetica,sans-Serif" font-size="10.00">_api.h</text>
</a>
</g>
</g>
<!-- Node2&#45;&gt;Node6 -->
<g id="edge5_Node000002_Node000006" class="edge">
<title>Node2&#45;&gt;Node6</title>
<g id="a_edge5_Node000002_Node000006"><a xlink:title=" ">
<path fill="none" stroke="#63b8ff" d="M346.6,-65.87C357.52,-58.08 374.01,-46.32 388.22,-36.17"/>
<polygon fill="#63b8ff" stroke="#63b8ff" points="390.61,-38.77 396.72,-30.11 386.54,-33.07 390.61,-38.77"/>
</a>
</g>
</g>
</g>
</svg>
