<?xml version="1.0" encoding="UTF-8" standalone="no"?>
<!DOCTYPE svg PUBLIC "-//W3C//DTD SVG 1.1//EN"
 "http://www.w3.org/Graphics/SVG/1.1/DTD/svg11.dtd">
<!-- Generated by graphviz version 2.43.0 (0)
 -->
<!-- Title: Hdf5LinSpaceOperation.hpp Pages: 1 -->
<svg width="672pt" height="151pt"
 viewBox="0.00 0.00 671.50 151.00" xmlns="http://www.w3.org/2000/svg" xmlns:xlink="http://www.w3.org/1999/xlink">
<g id="graph0" class="graph" transform="scale(1 1) rotate(0) translate(4 147)">
<title>Hdf5LinSpaceOperation.hpp</title>
<polygon fill="white" stroke="transparent" points="-4,4 -4,-147 667.5,-147 667.5,4 -4,4"/>
<!-- Node1 -->
<g id="node1" class="node">
<title>Node1</title>
<g id="a_node1"><a xlink:title=" ">
<polygon fill="#bfbfbf" stroke="black" points="373.5,-123.5 373.5,-142.5 525.5,-142.5 525.5,-123.5 373.5,-123.5"/>
<text text-anchor="middle" x="449.5" y="-130.5" font-family="Helvetica,sans-Serif" font-size="10.00">Hdf5LinSpaceOperation.hpp</text>
</a>
</g>
</g>
<!-- Node2 -->
<g id="node2" class="node">
<title>Node2</title>
<g id="a_node2"><a xlink:href="WRAppClass_8hpp.html" target="_top" xlink:title=" ">
<polygon fill="white" stroke="black" points="248,-67.5 248,-86.5 421,-86.5 421,-67.5 248,-67.5"/>
<text text-anchor="middle" x="334.5" y="-74.5" font-family="Helvetica,sans-Serif" font-size="10.00">wrapp/utils/inc/WRAppClass.hpp</text>
</a>
</g>
</g>
<!-- Node1&#45;&gt;Node2 -->
<g id="edge1" class="edge">
<title>Node1&#45;&gt;Node2</title>
<path fill="none" stroke="midnightblue" d="M431.28,-123.44C412.6,-114.68 383.34,-100.94 361.88,-90.86"/>
<polygon fill="midnightblue" stroke="midnightblue" points="363.18,-87.6 352.64,-86.52 360.2,-93.93 363.18,-87.6"/>
</g>
<!-- Node3 -->
<g id="node3" class="node">
<title>Node3</title>
<g id="a_node3"><a xlink:href="common_8hpp.html" target="_top" xlink:title=" ">
<polygon fill="white" stroke="black" points="0,-6 0,-25 155,-25 155,-6 0,-6"/>
<text text-anchor="middle" x="77.5" y="-13" font-family="Helvetica,sans-Serif" font-size="10.00">wrapp/utils/inc/common.hpp</text>
</a>
</g>
</g>
<!-- Node1&#45;&gt;Node3 -->
<g id="edge6" class="edge">
<title>Node1&#45;&gt;Node3</title>
<path fill="none" stroke="midnightblue" d="M395.21,-123.44C352.35,-115.94 291.33,-103.65 239.5,-87 189.74,-71.02 134.46,-45.08 103.05,-29.52"/>
<polygon fill="midnightblue" stroke="midnightblue" points="104.61,-26.39 94.1,-25.05 101.48,-32.65 104.61,-26.39"/>
</g>
<!-- Node5 -->
<g id="node5" class="node">
<title>Node5</title>
<g id="a_node5"><a xlink:title=" ">
<polygon fill="white" stroke="#bfbfbf" points="499,-6 499,-25 642,-25 642,-6 499,-6"/>
<text text-anchor="middle" x="570.5" y="-13" font-family="Helvetica,sans-Serif" font-size="10.00">includes/smart_pointers.h</text>
</a>
</g>
</g>
<!-- Node1&#45;&gt;Node5 -->
<g id="edge7" class="edge">
<title>Node1&#45;&gt;Node5</title>
<path fill="none" stroke="midnightblue" d="M449.87,-123.4C450.87,-109.9 454.6,-83.58 468.5,-67 483.84,-48.7 507.43,-36.42 528.06,-28.56"/>
<polygon fill="midnightblue" stroke="midnightblue" points="529.36,-31.81 537.6,-25.15 527,-25.22 529.36,-31.81"/>
</g>
<!-- Node7 -->
<g id="node7" class="node">
<title>Node7</title>
<g id="a_node7"><a xlink:title=" ">
<polygon fill="white" stroke="#bfbfbf" points="477.5,-67.5 477.5,-86.5 587.5,-86.5 587.5,-67.5 477.5,-67.5"/>
<text text-anchor="middle" x="532.5" y="-74.5" font-family="Helvetica,sans-Serif" font-size="10.00">containers/model.h</text>
</a>
</g>
</g>
<!-- Node1&#45;&gt;Node7 -->
<g id="edge8" class="edge">
<title>Node1&#45;&gt;Node7</title>
<path fill="none" stroke="midnightblue" d="M462.84,-123.32C475.66,-114.98 495.28,-102.21 510.44,-92.35"/>
<polygon fill="midnightblue" stroke="midnightblue" points="512.72,-95.04 519.2,-86.65 508.91,-89.17 512.72,-95.04"/>
</g>
<!-- Node8 -->
<g id="node8" class="node">
<title>Node8</title>
<g id="a_node8"><a xlink:title=" ">
<polygon fill="white" stroke="#bfbfbf" points="605.5,-67.5 605.5,-86.5 663.5,-86.5 663.5,-67.5 605.5,-67.5"/>
<text text-anchor="middle" x="634.5" y="-74.5" font-family="Helvetica,sans-Serif" font-size="10.00">memory</text>
</a>
</g>
</g>
<!-- Node1&#45;&gt;Node8 -->
<g id="edge9" class="edge">
<title>Node1&#45;&gt;Node8</title>
<path fill="none" stroke="midnightblue" d="M478.81,-123.44C510.34,-114.24 560.63,-99.56 595.49,-89.39"/>
<polygon fill="midnightblue" stroke="midnightblue" points="596.7,-92.68 605.32,-86.52 594.74,-85.96 596.7,-92.68"/>
</g>
<!-- Node2&#45;&gt;Node3 -->
<g id="edge2" class="edge">
<title>Node2&#45;&gt;Node3</title>
<path fill="none" stroke="midnightblue" d="M297.68,-67.48C251.97,-56.89 173.97,-38.84 124.13,-27.3"/>
<polygon fill="midnightblue" stroke="midnightblue" points="124.79,-23.85 114.25,-25.01 123.21,-30.67 124.79,-23.85"/>
</g>
<!-- Node4 -->
<g id="node4" class="node">
<title>Node4</title>
<g id="a_node4"><a xlink:title=" ">
<polygon fill="white" stroke="#bfbfbf" points="173,-6 173,-25 334,-25 334,-6 173,-6"/>
<text text-anchor="middle" x="253.5" y="-13" font-family="Helvetica,sans-Serif" font-size="10.00">includes/kratos_parameters.h</text>
</a>
</g>
</g>
<!-- Node2&#45;&gt;Node4 -->
<g id="edge3" class="edge">
<title>Node2&#45;&gt;Node4</title>
<path fill="none" stroke="midnightblue" d="M322.89,-67.48C310.02,-58.02 289.03,-42.6 273.49,-31.19"/>
<polygon fill="midnightblue" stroke="midnightblue" points="275.22,-28.11 265.08,-25.01 271.07,-33.75 275.22,-28.11"/>
</g>
<!-- Node2&#45;&gt;Node5 -->
<g id="edge4" class="edge">
<title>Node2&#45;&gt;Node5</title>
<path fill="none" stroke="midnightblue" d="M368.31,-67.48C410.02,-56.96 481.01,-39.06 526.81,-27.51"/>
<polygon fill="midnightblue" stroke="midnightblue" points="527.91,-30.85 536.75,-25.01 526.2,-24.06 527.91,-30.85"/>
</g>
<!-- Node6 -->
<g id="node6" class="node">
<title>Node6</title>
<g id="a_node6"><a xlink:title=" ">
<polygon fill="white" stroke="#bfbfbf" points="352.5,-0.5 352.5,-30.5 480.5,-30.5 480.5,-0.5 352.5,-0.5"/>
<text text-anchor="start" x="360.5" y="-18.5" font-family="Helvetica,sans-Serif" font-size="10.00">includes/kratos_export</text>
<text text-anchor="middle" x="416.5" y="-7.5" font-family="Helvetica,sans-Serif" font-size="10.00">_api.h</text>
</a>
</g>
</g>
<!-- Node2&#45;&gt;Node6 -->
<g id="edge5" class="edge">
<title>Node2&#45;&gt;Node6</title>
<path fill="none" stroke="midnightblue" d="M346.25,-67.48C357.35,-59.42 374.43,-47.02 388.97,-36.47"/>
<polygon fill="midnightblue" stroke="midnightblue" points="391.14,-39.23 397.17,-30.52 387.02,-33.56 391.14,-39.23"/>
</g>
</g>
</svg>
