<?xml version="1.0" encoding="UTF-8" standalone="no"?>
<!DOCTYPE svg PUBLIC "-//W3C//DTD SVG 1.1//EN"
 "http://www.w3.org/Graphics/SVG/1.1/DTD/svg11.dtd">
<!-- Generated by graphviz version 2.43.0 (0)
 -->
<!-- Title: Graphical Class Hierarchy Pages: 1 -->
<svg width="342pt" height="177pt"
 viewBox="0.00 0.00 342.00 177.00" xmlns="http://www.w3.org/2000/svg" xmlns:xlink="http://www.w3.org/1999/xlink">
<g id="graph0" class="graph" transform="scale(1 1) rotate(0) translate(4 173)">
<title>Graphical Class Hierarchy</title>
<!-- Node0 -->
<g id="Node000000" class="node">
<title>Node0</title>
<g id="a_Node000000"><a xlink:href="structKratos_1_1WRApp_1_1ModelPredicate.html" target="_top" xlink:title="Base class for functors that take a Model and return a bool.">
<polygon fill="white" stroke="#666666" points="102.5,-169 10.5,-169 10.5,-150 102.5,-150 102.5,-169"/>
<text text-anchor="middle" x="56.5" y="-157" font-family="Helvetica,sans-Serif" font-size="10.00">ModelPredicate</text>
</a>
</g>
</g>
<!-- Node1 -->
<g id="Node000001" class="node">
<title>Node1</title>
<g id="a_Node000001"><a xlink:href="classKratos_1_1WRApp_1_1ModelPredicatePipe.html" target="_top" xlink:title=" ">
<polygon fill="white" stroke="#666666" points="298,-141.5 185,-141.5 185,-111.5 298,-111.5 298,-141.5"/>
<text text-anchor="start" x="193" y="-129.5" font-family="Helvetica,sans-Serif" font-size="10.00">ModelPredicatePipe</text>
<text text-anchor="middle" x="241.5" y="-118.5" font-family="Helvetica,sans-Serif" font-size="10.00">&lt; TPipe &gt;</text>
</a>
</g>
</g>
<!-- Node0&#45;&gt;Node1 -->
<g id="edge80_Node000000_Node000001" class="edge">
<title>Node0&#45;&gt;Node1</title>
<g id="a_edge80_Node000000_Node000001"><a xlink:title=" ">
<path fill="none" stroke="#63b8ff" d="M112.6,-149.56C135.39,-145.45 161.79,-140.69 184.67,-136.57"/>
<polygon fill="#63b8ff" stroke="#63b8ff" points="111.96,-146.12 102.74,-151.34 113.2,-153.01 111.96,-146.12"/>
</a>
</g>
</g>
<!-- Node2 -->
<g id="Node000002" class="node">
<title>Node2</title>
<g id="a_Node000002"><a xlink:href="structKratos_1_1Pipes_1_1Traits.html" target="_top" xlink:title=" ">
<polygon fill="white" stroke="#666666" points="113,-131.5 0,-131.5 0,-101.5 113,-101.5 113,-131.5"/>
<text text-anchor="start" x="8" y="-119.5" font-family="Helvetica,sans-Serif" font-size="10.00">Traits&lt; const Model</text>
<text text-anchor="middle" x="56.5" y="-108.5" font-family="Helvetica,sans-Serif" font-size="10.00"> &amp;, bool &gt;</text>
</a>
</g>
</g>
<!-- Node2&#45;&gt;Node1 -->
<g id="edge81_Node000002_Node000001" class="edge">
<title>Node2&#45;&gt;Node1</title>
<g id="a_edge81_Node000002_Node000001"><a xlink:title=" ">
<path fill="none" stroke="#63b8ff" d="M123.44,-120.1C143.6,-121.2 165.55,-122.4 184.94,-123.46"/>
<polygon fill="#63b8ff" stroke="#63b8ff" points="123.58,-116.61 113.4,-119.55 123.19,-123.6 123.58,-116.61"/>
</a>
</g>
</g>
<!-- Node3 -->
<g id="Node000003" class="node">
<title>Node3</title>
<g id="a_Node000003"><a xlink:href="structKratos_1_1WRApp_1_1WRAppClass.html" target="_top" xlink:title="Dummy base class for registering and exporting exposed classes in WRApplication.">
<polygon fill="white" stroke="#666666" points="95.5,-74 17.5,-74 17.5,-55 95.5,-55 95.5,-74"/>
<text text-anchor="middle" x="56.5" y="-62" font-family="Helvetica,sans-Serif" font-size="10.00">WRAppClass</text>
</a>
</g>
</g>
<!-- Node3&#45;&gt;Node1 -->
<g id="edge85_Node000003_Node000001" class="edge">
<title>Node3&#45;&gt;Node1</title>
<g id="a_edge85_Node000003_Node000001"><a xlink:title=" ">
<path fill="none" stroke="#63b8ff" d="M87.5,-78.18C105.17,-85.93 128.1,-95.45 149,-102.5 160.52,-106.38 173.02,-110.02 184.98,-113.24"/>
<polygon fill="#63b8ff" stroke="#63b8ff" points="88.83,-74.94 78.27,-74.08 85.99,-81.34 88.83,-74.94"/>
</a>
</g>
</g>
<!-- Node4 -->
<g id="Node000004" class="node">
<title>Node4</title>
<g id="a_Node000004"><a xlink:href="classKratos_1_1WRApp_1_1Hdf5IdToIndexOperation.html" target="_top" xlink:title=" ">
<polygon fill="white" stroke="#666666" points="308.5,-93 174.5,-93 174.5,-74 308.5,-74 308.5,-93"/>
<text text-anchor="middle" x="241.5" y="-81" font-family="Helvetica,sans-Serif" font-size="10.00">Hdf5IdToIndexOperation</text>
</a>
</g>
</g>
<!-- Node3&#45;&gt;Node4 -->
<g id="edge82_Node000003_Node000004" class="edge">
<title>Node3&#45;&gt;Node4</title>
<g id="a_edge82_Node000003_Node000004"><a xlink:title=" ">
<path fill="none" stroke="#63b8ff" d="M105.83,-69.52C126.83,-71.7 151.76,-74.29 174.43,-76.64"/>
<polygon fill="#63b8ff" stroke="#63b8ff" points="106.17,-66.03 95.86,-68.48 105.45,-73 106.17,-66.03"/>
</a>
</g>
</g>
<!-- Node5 -->
<g id="Node000005" class="node">
<title>Node5</title>
<g id="a_Node000005"><a xlink:href="classKratos_1_1WRApp_1_1Hdf5IndexConnectivitiesOperation.html" target="_top" xlink:title=" ">
<polygon fill="white" stroke="#666666" points="334,-56 149,-56 149,-37 334,-37 334,-56"/>
<text text-anchor="middle" x="241.5" y="-44" font-family="Helvetica,sans-Serif" font-size="10.00">Hdf5IndexConnectivitiesOperation</text>
</a>
</g>
</g>
<!-- Node3&#45;&gt;Node5 -->
<g id="edge83_Node000003_Node000005" class="edge">
<title>Node3&#45;&gt;Node5</title>
<g id="a_edge83_Node000003_Node000005"><a xlink:title=" ">
<path fill="none" stroke="#63b8ff" d="M106.07,-59.72C119.23,-58.43 133.94,-56.98 148.65,-55.53"/>
<polygon fill="#63b8ff" stroke="#63b8ff" points="105.47,-56.26 95.86,-60.73 106.16,-63.23 105.47,-56.26"/>
</a>
</g>
</g>
<!-- Node6 -->
<g id="Node000006" class="node">
<title>Node6</title>
<g id="a_Node000006"><a xlink:href="classKratos_1_1WRApp_1_1Hdf5LinSpaceOperation.html" target="_top" xlink:title=" ">
<polygon fill="white" stroke="#666666" points="307,-19 176,-19 176,0 307,0 307,-19"/>
<text text-anchor="middle" x="241.5" y="-7" font-family="Helvetica,sans-Serif" font-size="10.00">Hdf5LinSpaceOperation</text>
</a>
</g>
</g>
<!-- Node3&#45;&gt;Node6 -->
<g id="edge84_Node000003_Node000006" class="edge">
<title>Node3&#45;&gt;Node6</title>
<g id="a_edge84_Node000003_Node000006"><a xlink:title=" ">
<path fill="none" stroke="#63b8ff" d="M87.03,-50.89C104.71,-43.16 127.8,-33.81 149,-27.5 159.86,-24.27 171.63,-21.46 182.98,-19.08"/>
<polygon fill="#63b8ff" stroke="#63b8ff" points="85.53,-47.73 77.81,-54.98 88.37,-54.12 85.53,-47.73"/>
</a>
</g>
</g>
</g>
</svg>
