<?xml version="1.0" encoding="UTF-8" standalone="no"?>
<!DOCTYPE svg PUBLIC "-//W3C//DTD SVG 1.1//EN"
 "http://www.w3.org/Graphics/SVG/1.1/DTD/svg11.dtd">
<!-- Generated by graphviz version 2.43.0 (0)
 -->
<!-- Title: Graphical Class Hierarchy Pages: 1 -->
<svg width="291pt" height="88pt"
 viewBox="0.00 0.00 291.00 88.00" xmlns="http://www.w3.org/2000/svg" xmlns:xlink="http://www.w3.org/1999/xlink">
<g id="graph0" class="graph" transform="scale(1 1) rotate(0) translate(4 84)">
<title>Graphical Class Hierarchy</title>
<polygon fill="white" stroke="transparent" points="-4,4 -4,-84 287,-84 287,4 -4,4"/>
<!-- Node0 -->
<g id="node1" class="node">
<title>Node0</title>
<g id="a_node1"><a xlink:href="structKratos_1_1Pipes_1_1Traits.html" target="_top" xlink:title=" ">
<polygon fill="white" stroke="black" points="0,-30 0,-49 125,-49 125,-30 0,-30"/>
<text text-anchor="middle" x="62.5" y="-37" font-family="Helvetica,sans-Serif" font-size="10.00">Traits&lt; TValue, bool &gt;</text>
</a>
</g>
</g>
<!-- Node1 -->
<g id="node2" class="node">
<title>Node1</title>
<g id="a_node2"><a xlink:href="classKratos_1_1Pipes_1_1Comparison.html" target="_top" xlink:title="Perform a comparison operation on the input as the left hand side.">
<polygon fill="white" stroke="black" points="161,-49.5 161,-79.5 283,-79.5 283,-49.5 161,-49.5"/>
<text text-anchor="start" x="169" y="-67.5" font-family="Helvetica,sans-Serif" font-size="10.00">Comparison&lt; TValue,</text>
<text text-anchor="middle" x="222" y="-56.5" font-family="Helvetica,sans-Serif" font-size="10.00"> TOperator &gt;</text>
</a>
</g>
</g>
<!-- Node0&#45;&gt;Node1 -->
<g id="edge1" class="edge">
<title>Node0&#45;&gt;Node1</title>
<path fill="none" stroke="midnightblue" d="M133.37,-50.59C142.56,-52.05 151.91,-53.53 160.91,-54.96"/>
<polygon fill="midnightblue" stroke="midnightblue" points="133.92,-47.13 123.49,-49.02 132.82,-54.05 133.92,-47.13"/>
</g>
<!-- Node2 -->
<g id="node3" class="node">
<title>Node2</title>
<g id="a_node3"><a xlink:href="classKratos_1_1Pipes_1_1IntervalPredicate.html" target="_top" xlink:title="Pipe wrapper for Detail::IntervalUtility.">
<polygon fill="white" stroke="black" points="168,-0.5 168,-30.5 276,-30.5 276,-0.5 168,-0.5"/>
<text text-anchor="start" x="176" y="-18.5" font-family="Helvetica,sans-Serif" font-size="10.00">IntervalPredicate&lt;</text>
<text text-anchor="middle" x="222" y="-7.5" font-family="Helvetica,sans-Serif" font-size="10.00"> TValue &gt;</text>
</a>
</g>
</g>
<!-- Node0&#45;&gt;Node2 -->
<g id="edge2" class="edge">
<title>Node0&#45;&gt;Node2</title>
<path fill="none" stroke="midnightblue" d="M135.27,-28.56C146.22,-26.9 157.35,-25.2 167.8,-23.61"/>
<polygon fill="midnightblue" stroke="midnightblue" points="134.65,-25.12 125.3,-30.08 135.71,-32.04 134.65,-25.12"/>
</g>
</g>
</svg>
