<?xml version="1.0" encoding="UTF-8" standalone="no"?>
<!DOCTYPE svg PUBLIC "-//W3C//DTD SVG 1.1//EN"
 "http://www.w3.org/Graphics/SVG/1.1/DTD/svg11.dtd">
<!-- Generated by graphviz version 2.43.0 (0)
 -->
<!-- Title: Graphical Class Hierarchy Pages: 1 -->
<svg width="222pt" height="66pt"
 viewBox="0.00 0.00 222.00 66.00" xmlns="http://www.w3.org/2000/svg" xmlns:xlink="http://www.w3.org/1999/xlink">
<g id="graph0" class="graph" transform="scale(1 1) rotate(0) translate(4 62)">
<title>Graphical Class Hierarchy</title>
<polygon fill="white" stroke="transparent" points="-4,4 -4,-62 218,-62 218,4 -4,4"/>
<!-- Node36 -->
<g id="node1" class="node">
<title>Node36</title>
<g id="a_node1"><a xlink:title=" ">
<polygon fill="white" stroke="#bfbfbf" points="0,-19.5 0,-38.5 65,-38.5 65,-19.5 0,-19.5"/>
<text text-anchor="middle" x="32.5" y="-26.5" font-family="Helvetica,sans-Serif" font-size="10.00">Operation</text>
</a>
</g>
</g>
<!-- Node0 -->
<g id="node2" class="node">
<title>Node0</title>
<g id="a_node2"><a xlink:href="classpython__scripts_1_1async__analysis_1_1CoSimCoupling_1_1DatasetTransfer.html" target="_top" xlink:title="Class wrapping a dataset fetch&#45;transform&#45;write task in a KratosMultiphysics.Operation.">
<polygon fill="white" stroke="black" points="110.5,-38.5 110.5,-57.5 204.5,-57.5 204.5,-38.5 110.5,-38.5"/>
<text text-anchor="middle" x="157.5" y="-45.5" font-family="Helvetica,sans-Serif" font-size="10.00">DatasetTransfer</text>
</a>
</g>
</g>
<!-- Node36&#45;&gt;Node0 -->
<g id="edge1" class="edge">
<title>Node36&#45;&gt;Node0</title>
<path fill="none" stroke="midnightblue" d="M75.16,-35.44C86.39,-37.17 98.61,-39.06 110.09,-40.83"/>
<polygon fill="midnightblue" stroke="midnightblue" points="75.59,-31.96 65.18,-33.89 74.52,-38.88 75.59,-31.96"/>
</g>
<!-- Node38 -->
<g id="node3" class="node">
<title>Node38</title>
<g id="a_node3"><a xlink:href="classpython__scripts_1_1async__analysis_1_1CoSimCoupling_1_1SubSynchronization.html" target="_top" xlink:title="A class wrapping AsnycSolver._Synchronize in a KratosMultiphysics.Operation.">
<polygon fill="white" stroke="black" points="101,-0.5 101,-19.5 214,-19.5 214,-0.5 101,-0.5"/>
<text text-anchor="middle" x="157.5" y="-7.5" font-family="Helvetica,sans-Serif" font-size="10.00">SubSynchronization</text>
</a>
</g>
</g>
<!-- Node36&#45;&gt;Node38 -->
<g id="edge2" class="edge">
<title>Node36&#45;&gt;Node38</title>
<path fill="none" stroke="midnightblue" d="M75.19,-22.56C83.36,-21.3 92.05,-19.96 100.59,-18.64"/>
<polygon fill="midnightblue" stroke="midnightblue" points="74.52,-19.12 65.18,-24.11 75.59,-26.04 74.52,-19.12"/>
</g>
</g>
</svg>
