<?xml version="1.0" encoding="UTF-8" standalone="no"?>
<!DOCTYPE svg PUBLIC "-//W3C//DTD SVG 1.1//EN"
 "http://www.w3.org/Graphics/SVG/1.1/DTD/svg11.dtd">
<!-- Generated by graphviz version 2.43.0 (0)
 -->
<!-- Title: Graphical Class Hierarchy Pages: 1 -->
<svg width="384pt" height="64pt"
 viewBox="0.00 0.00 384.00 64.00" xmlns="http://www.w3.org/2000/svg" xmlns:xlink="http://www.w3.org/1999/xlink">
<g id="graph0" class="graph" transform="scale(1 1) rotate(0) translate(4 60)">
<title>Graphical Class Hierarchy</title>
<!-- Node0 -->
<g id="Node000000" class="node">
<title>Node0</title>
<g id="a_Node000000"><a xlink:title=" ">
<polygon fill="#e0e0e0" stroke="#999999" points="83,-37 0,-37 0,-18 83,-18 83,-37"/>
<text text-anchor="middle" x="41.5" y="-25" font-family="Helvetica,sans-Serif" font-size="10.00">SnapshotFSIO</text>
</a>
</g>
</g>
<!-- Node1 -->
<g id="Node000001" class="node">
<title>Node1</title>
<g id="a_Node000001"><a xlink:href="classHDF5SnapshotIO.html" target="_top" xlink:title="Base class with common functionality to writing/loading snapshots to/from disk.">
<polygon fill="white" stroke="#666666" points="218,-37 119,-37 119,-18 218,-18 218,-37"/>
<text text-anchor="middle" x="168.5" y="-25" font-family="Helvetica,sans-Serif" font-size="10.00">HDF5SnapshotIO</text>
</a>
</g>
</g>
<!-- Node0&#45;&gt;Node1 -->
<g id="edge93_Node000000_Node000001" class="edge">
<title>Node0&#45;&gt;Node1</title>
<g id="a_edge93_Node000000_Node000001"><a xlink:title=" ">
<path fill="none" stroke="#63b8ff" d="M93.21,-27.5C101.67,-27.5 110.43,-27.5 118.84,-27.5"/>
<polygon fill="#63b8ff" stroke="#63b8ff" points="93.08,-24 83.08,-27.5 93.08,-31 93.08,-24"/>
</a>
</g>
</g>
<!-- Node2 -->
<g id="Node000002" class="node">
<title>Node2</title>
<g id="a_Node000002"><a xlink:href="classHDF5SnapshotInput.html" target="_top" xlink:title="Input class for reading most data from an HDF5 snapshot to a model part.">
<polygon fill="white" stroke="#666666" points="371.5,-56 258.5,-56 258.5,-37 371.5,-37 371.5,-56"/>
<text text-anchor="middle" x="315" y="-44" font-family="Helvetica,sans-Serif" font-size="10.00">HDF5SnapshotInput</text>
</a>
</g>
</g>
<!-- Node1&#45;&gt;Node2 -->
<g id="edge94_Node000001_Node000002" class="edge">
<title>Node1&#45;&gt;Node2</title>
<g id="a_edge94_Node000001_Node000002"><a xlink:title=" ">
<path fill="none" stroke="#63b8ff" d="M228.23,-35.22C238.19,-36.53 248.5,-37.89 258.38,-39.19"/>
<polygon fill="#63b8ff" stroke="#63b8ff" points="228.39,-31.71 218.02,-33.88 227.48,-38.65 228.39,-31.71"/>
</a>
</g>
</g>
<!-- Node3 -->
<g id="Node000003" class="node">
<title>Node3</title>
<g id="a_Node000003"><a xlink:href="classHDF5SnapshotOutput.html" target="_top" xlink:title="Output class for writing most data in the model part to an HDF5 snapshot.">
<polygon fill="white" stroke="#666666" points="376,-19 254,-19 254,0 376,0 376,-19"/>
<text text-anchor="middle" x="315" y="-7" font-family="Helvetica,sans-Serif" font-size="10.00">HDF5SnapshotOutput</text>
</a>
</g>
</g>
<!-- Node1&#45;&gt;Node3 -->
<g id="edge95_Node000001_Node000003" class="edge">
<title>Node1&#45;&gt;Node3</title>
<g id="a_edge95_Node000001_Node000003"><a xlink:title=" ">
<path fill="none" stroke="#63b8ff" d="M228.17,-20.19C236.62,-19.14 245.32,-18.06 253.8,-17"/>
<polygon fill="#63b8ff" stroke="#63b8ff" points="227.51,-16.75 218.02,-21.46 228.37,-23.69 227.51,-16.75"/>
</a>
</g>
</g>
</g>
</svg>
