<?xml version="1.0" encoding="UTF-8" standalone="no"?>
<!DOCTYPE svg PUBLIC "-//W3C//DTD SVG 1.1//EN"
 "http://www.w3.org/Graphics/SVG/1.1/DTD/svg11.dtd">
<!-- Generated by graphviz version 2.43.0 (0)
 -->
<!-- Title: Graphical Class Hierarchy Pages: 1 -->
<svg width="394pt" height="27pt"
 viewBox="0.00 0.00 394.00 27.00" xmlns="http://www.w3.org/2000/svg" xmlns:xlink="http://www.w3.org/1999/xlink">
<g id="graph0" class="graph" transform="scale(1 1) rotate(0) translate(4 23)">
<title>Graphical Class Hierarchy</title>
<!-- Node0 -->
<g id="Node000000" class="node">
<title>Node0</title>
<g id="a_Node000000"><a xlink:href="classKratos_1_1PlaceholderPattern.html" target="_top" xlink:title="A class for interfacing placeholders and regular expressions.">
<polygon fill="white" stroke="#666666" points="108,-19 0,-19 0,0 108,0 108,-19"/>
<text text-anchor="middle" x="54" y="-7" font-family="Helvetica,sans-Serif" font-size="10.00">PlaceholderPattern</text>
</a>
</g>
</g>
<!-- Node1 -->
<g id="Node000001" class="node">
<title>Node1</title>
<g id="a_Node000001"><a xlink:href="classKratos_1_1ModelPartPattern.html" target="_top" xlink:title="A class for working with formatted strings related to ModelParts.">
<polygon fill="white" stroke="#666666" points="244,-19 144,-19 144,0 244,0 244,-19"/>
<text text-anchor="middle" x="194" y="-7" font-family="Helvetica,sans-Serif" font-size="10.00">ModelPartPattern</text>
</a>
</g>
</g>
<!-- Node0&#45;&gt;Node1 -->
<g id="edge86_Node000000_Node000001" class="edge">
<title>Node0&#45;&gt;Node1</title>
<g id="a_edge86_Node000000_Node000001"><a xlink:title=" ">
<path fill="none" stroke="#63b8ff" d="M118.61,-9.5C127.09,-9.5 135.67,-9.5 143.85,-9.5"/>
<polygon fill="#63b8ff" stroke="#63b8ff" points="118.35,-6 108.35,-9.5 118.35,-13 118.35,-6"/>
</a>
</g>
</g>
<!-- Node2 -->
<g id="Node000002" class="node">
<title>Node2</title>
<g id="a_Node000002"><a xlink:href="classKratos_1_1CheckpointPattern.html" target="_top" xlink:title="A class for working with formatted strings related to Checkpoint.">
<polygon fill="white" stroke="#666666" points="386,-19 280,-19 280,0 386,0 386,-19"/>
<text text-anchor="middle" x="333" y="-7" font-family="Helvetica,sans-Serif" font-size="10.00">CheckpointPattern</text>
</a>
</g>
</g>
<!-- Node1&#45;&gt;Node2 -->
<g id="edge87_Node000001_Node000002" class="edge">
<title>Node1&#45;&gt;Node2</title>
<g id="a_edge87_Node000001_Node000002"><a xlink:title=" ">
<path fill="none" stroke="#63b8ff" d="M254.23,-9.5C262.65,-9.5 271.28,-9.5 279.56,-9.5"/>
<polygon fill="#63b8ff" stroke="#63b8ff" points="254.07,-6 244.07,-9.5 254.07,-13 254.07,-6"/>
</a>
</g>
</g>
</g>
</svg>
