<?xml version="1.0" encoding="UTF-8" standalone="no"?>
<!DOCTYPE svg PUBLIC "-//W3C//DTD SVG 1.1//EN"
 "http://www.w3.org/Graphics/SVG/1.1/DTD/svg11.dtd">
<!-- Generated by graphviz version 2.43.0 (0)
 -->
<!-- Title: Graphical Class Hierarchy Pages: 1 -->
<svg width="479pt" height="134pt"
 viewBox="0.00 0.00 479.00 134.00" xmlns="http://www.w3.org/2000/svg" xmlns:xlink="http://www.w3.org/1999/xlink">
<g id="graph0" class="graph" transform="scale(1 1) rotate(0) translate(4 130)">
<title>Graphical Class Hierarchy</title>
<!-- Node0 -->
<g id="Node000000" class="node">
<title>Node0</title>
<g id="a_Node000000"><a xlink:href="structKratos_1_1Pipes_1_1Traits.html" target="_top" xlink:title=" ">
<polygon fill="white" stroke="#666666" points="140,-78 0,-78 0,-48 140,-48 140,-78"/>
<text text-anchor="start" x="8" y="-66" font-family="Helvetica,sans-Serif" font-size="10.00">Traits&lt; const ProcessInfo</text>
<text text-anchor="middle" x="70" y="-55" font-family="Helvetica,sans-Serif" font-size="10.00"> &amp;, TVariable::Type &gt;</text>
</a>
</g>
</g>
<!-- Node1 -->
<g id="Node000001" class="node">
<title>Node1</title>
<g id="a_Node000001"><a xlink:href="classKratos_1_1Pipes_1_1VariableFromProcessInfo.html" target="_top" xlink:title=" ">
<polygon fill="white" stroke="#666666" points="313,-126 176,-126 176,-96 313,-96 313,-126"/>
<text text-anchor="start" x="184" y="-114" font-family="Helvetica,sans-Serif" font-size="10.00">VariableFromProcessInfo</text>
<text text-anchor="middle" x="244.5" y="-103" font-family="Helvetica,sans-Serif" font-size="10.00">&lt; decltype(STEP)&gt;</text>
</a>
</g>
</g>
<!-- Node0&#45;&gt;Node1 -->
<g id="edge107_Node000000_Node000001" class="edge">
<title>Node0&#45;&gt;Node1</title>
<g id="a_edge107_Node000000_Node000001"><a xlink:title=" ">
<path fill="none" stroke="#63b8ff" d="M134.93,-80.79C152.9,-85.79 172.26,-91.18 189.59,-96"/>
<polygon fill="#63b8ff" stroke="#63b8ff" points="135.68,-77.36 125.11,-78.06 133.8,-84.11 135.68,-77.36"/>
</a>
</g>
</g>
<!-- Node3 -->
<g id="Node000003" class="node">
<title>Node3</title>
<g id="a_Node000003"><a xlink:href="classKratos_1_1Pipes_1_1VariableFromProcessInfo.html" target="_top" xlink:title=" ">
<polygon fill="white" stroke="#666666" points="313,-78 176,-78 176,-48 313,-48 313,-78"/>
<text text-anchor="start" x="184" y="-66" font-family="Helvetica,sans-Serif" font-size="10.00">VariableFromProcessInfo</text>
<text text-anchor="middle" x="244.5" y="-55" font-family="Helvetica,sans-Serif" font-size="10.00">&lt; decltype(TIME)&gt;</text>
</a>
</g>
</g>
<!-- Node0&#45;&gt;Node3 -->
<g id="edge109_Node000000_Node000003" class="edge">
<title>Node0&#45;&gt;Node3</title>
<g id="a_edge109_Node000000_Node000003"><a xlink:title=" ">
<path fill="none" stroke="#63b8ff" d="M150.42,-63C158.87,-63 167.42,-63 175.72,-63"/>
<polygon fill="#63b8ff" stroke="#63b8ff" points="150.17,-59.5 140.17,-63 150.17,-66.5 150.17,-59.5"/>
</a>
</g>
</g>
<!-- Node5 -->
<g id="Node000005" class="node">
<title>Node5</title>
<g id="a_Node000005"><a xlink:href="classKratos_1_1Pipes_1_1VariableFromProcessInfo.html" target="_top" xlink:title="Get a variable from ProcessInfo.">
<polygon fill="white" stroke="#666666" points="313,-30 176,-30 176,0 313,0 313,-30"/>
<text text-anchor="start" x="184" y="-18" font-family="Helvetica,sans-Serif" font-size="10.00">VariableFromProcessInfo</text>
<text text-anchor="middle" x="244.5" y="-7" font-family="Helvetica,sans-Serif" font-size="10.00">&lt; TVariable &gt;</text>
</a>
</g>
</g>
<!-- Node0&#45;&gt;Node5 -->
<g id="edge111_Node000000_Node000005" class="edge">
<title>Node0&#45;&gt;Node5</title>
<g id="a_edge111_Node000000_Node000005"><a xlink:title=" ">
<path fill="none" stroke="#63b8ff" d="M134.93,-45.21C152.9,-40.21 172.26,-34.82 189.59,-30"/>
<polygon fill="#63b8ff" stroke="#63b8ff" points="133.8,-41.89 125.11,-47.94 135.68,-48.64 133.8,-41.89"/>
</a>
</g>
</g>
<!-- Node2 -->
<g id="Node000002" class="node">
<title>Node2</title>
<g id="a_Node000002"><a xlink:href="structKratos_1_1Pipes_1_1StepFromProcessInfo.html" target="_top" xlink:title="Get STEP from a ProcessInfo.">
<polygon fill="white" stroke="#666666" points="469.5,-120.5 350.5,-120.5 350.5,-101.5 469.5,-101.5 469.5,-120.5"/>
<text text-anchor="middle" x="410" y="-108.5" font-family="Helvetica,sans-Serif" font-size="10.00">StepFromProcessInfo</text>
</a>
</g>
</g>
<!-- Node1&#45;&gt;Node2 -->
<g id="edge108_Node000001_Node000002" class="edge">
<title>Node1&#45;&gt;Node2</title>
<g id="a_edge108_Node000001_Node000002"><a xlink:title=" ">
<path fill="none" stroke="#63b8ff" d="M323.57,-111C332.6,-111 341.69,-111 350.4,-111"/>
<polygon fill="#63b8ff" stroke="#63b8ff" points="323.42,-107.5 313.42,-111 323.42,-114.5 323.42,-107.5"/>
</a>
</g>
</g>
<!-- Node4 -->
<g id="Node000004" class="node">
<title>Node4</title>
<g id="a_Node000004"><a xlink:href="structKratos_1_1Pipes_1_1TimeFromProcessInfo.html" target="_top" xlink:title="Get TIME from a ProcessInfo.">
<polygon fill="white" stroke="#666666" points="471,-72.5 349,-72.5 349,-53.5 471,-53.5 471,-72.5"/>
<text text-anchor="middle" x="410" y="-60.5" font-family="Helvetica,sans-Serif" font-size="10.00">TimeFromProcessInfo</text>
</a>
</g>
</g>
<!-- Node3&#45;&gt;Node4 -->
<g id="edge110_Node000003_Node000004" class="edge">
<title>Node3&#45;&gt;Node4</title>
<g id="a_edge110_Node000003_Node000004"><a xlink:title=" ">
<path fill="none" stroke="#63b8ff" d="M323.69,-63C332.15,-63 340.66,-63 348.86,-63"/>
<polygon fill="#63b8ff" stroke="#63b8ff" points="323.42,-59.5 313.42,-63 323.42,-66.5 323.42,-59.5"/>
</a>
</g>
</g>
</g>
</svg>
