<?xml version="1.0" encoding="UTF-8" standalone="no"?>
<!DOCTYPE svg PUBLIC "-//W3C//DTD SVG 1.1//EN"
 "http://www.w3.org/Graphics/SVG/1.1/DTD/svg11.dtd">
<!-- Generated by graphviz version 2.43.0 (0)
 -->
<!-- Title: Graphical Class Hierarchy Pages: 1 -->
<svg width="412pt" height="64pt"
 viewBox="0.00 0.00 412.00 64.00" xmlns="http://www.w3.org/2000/svg" xmlns:xlink="http://www.w3.org/1999/xlink">
<g id="graph0" class="graph" transform="scale(1 1) rotate(0) translate(4 60)">
<title>Graphical Class Hierarchy</title>
<!-- Node0 -->
<g id="Node000000" class="node">
<title>Node0</title>
<g id="a_Node000000"><a xlink:title=" ">
<polygon fill="#e0e0e0" stroke="#999999" points="173,-37 0,-37 0,-18 173,-18 173,-37"/>
<text text-anchor="middle" x="86.5" y="-25" font-family="Helvetica,sans-Serif" font-size="10.00">SnapshotInMemoryIO.Operation</text>
</a>
</g>
</g>
<!-- Node1 -->
<g id="Node000001" class="node">
<title>Node1</title>
<g id="a_Node000001"><a xlink:href="classpython__scripts_1_1checkpoint_1_1SnapshotInMemoryIO_1_1SnapshotInMemoryInput_1_1Operation.html" target="_top" xlink:title="Read data from the static cache of SnapshotInMemoryIO.">
<polygon fill="white" stroke="#666666" points="400,-56 213,-56 213,-37 400,-37 400,-56"/>
<text text-anchor="middle" x="306.5" y="-44" font-family="Helvetica,sans-Serif" font-size="10.00">SnapshotInMemoryInput.Operation</text>
</a>
</g>
</g>
<!-- Node0&#45;&gt;Node1 -->
<g id="edge98_Node000000_Node000001" class="edge">
<title>Node0&#45;&gt;Node1</title>
<g id="a_edge98_Node000000_Node000001"><a xlink:title=" ">
<path fill="none" stroke="#63b8ff" d="M183.17,-35.84C192.96,-36.69 202.9,-37.56 212.65,-38.41"/>
<polygon fill="#63b8ff" stroke="#63b8ff" points="183.3,-32.34 173.03,-34.95 182.69,-39.31 183.3,-32.34"/>
</a>
</g>
</g>
<!-- Node2 -->
<g id="Node000002" class="node">
<title>Node2</title>
<g id="a_Node000002"><a xlink:href="classpython__scripts_1_1checkpoint_1_1SnapshotInMemoryIO_1_1SnapshotInMemoryOutput_1_1Operation.html" target="_top" xlink:title="Write data to the static cache of SnapshotInMemoryIO.">
<polygon fill="white" stroke="#666666" points="404,-19 209,-19 209,0 404,0 404,-19"/>
<text text-anchor="middle" x="306.5" y="-7" font-family="Helvetica,sans-Serif" font-size="10.00">SnapshotInMemoryOutput.Operation</text>
</a>
</g>
</g>
<!-- Node0&#45;&gt;Node2 -->
<g id="edge99_Node000000_Node000002" class="edge">
<title>Node0&#45;&gt;Node2</title>
<g id="a_edge99_Node000000_Node000002"><a xlink:title=" ">
<path fill="none" stroke="#63b8ff" d="M183.25,-19.59C191.68,-18.9 200.22,-18.19 208.66,-17.5"/>
<polygon fill="#63b8ff" stroke="#63b8ff" points="182.71,-16.13 173.03,-20.44 183.29,-23.1 182.71,-16.13"/>
</a>
</g>
</g>
</g>
</svg>
