<?xml version="1.0" encoding="UTF-8" standalone="no"?>
<!DOCTYPE svg PUBLIC "-//W3C//DTD SVG 1.1//EN"
 "http://www.w3.org/Graphics/SVG/1.1/DTD/svg11.dtd">
<!-- Generated by graphviz version 2.43.0 (0)
 -->
<!-- Title: Graphical Class Hierarchy Pages: 1 -->
<svg width="342pt" height="182pt"
 viewBox="0.00 0.00 342.00 182.00" xmlns="http://www.w3.org/2000/svg" xmlns:xlink="http://www.w3.org/1999/xlink">
<g id="graph0" class="graph" transform="scale(1 1) rotate(0) translate(4 178)">
<title>Graphical Class Hierarchy</title>
<polygon fill="white" stroke="transparent" points="-4,4 -4,-178 338,-178 338,4 -4,4"/>
<!-- Node0 -->
<g id="node1" class="node">
<title>Node0</title>
<g id="a_node1"><a xlink:href="structKratos_1_1WRApp_1_1ModelPredicate.html" target="_top" xlink:title="Base class for functors that take a Model and return a bool.">
<polygon fill="white" stroke="black" points="10.5,-154.5 10.5,-173.5 102.5,-173.5 102.5,-154.5 10.5,-154.5"/>
<text text-anchor="middle" x="56.5" y="-161.5" font-family="Helvetica,sans-Serif" font-size="10.00">ModelPredicate</text>
</a>
</g>
</g>
<!-- Node1 -->
<g id="node2" class="node">
<title>Node1</title>
<g id="a_node2"><a xlink:href="classKratos_1_1WRApp_1_1ModelPredicatePipe.html" target="_top" xlink:title=" ">
<polygon fill="white" stroke="black" points="185,-115 185,-145 298,-145 298,-115 185,-115"/>
<text text-anchor="start" x="193" y="-133" font-family="Helvetica,sans-Serif" font-size="10.00">ModelPredicatePipe</text>
<text text-anchor="middle" x="241.5" y="-122" font-family="Helvetica,sans-Serif" font-size="10.00">&lt; TPipe &gt;</text>
</a>
</g>
</g>
<!-- Node0&#45;&gt;Node1 -->
<g id="edge1" class="edge">
<title>Node0&#45;&gt;Node1</title>
<path fill="none" stroke="midnightblue" d="M112.6,-153.76C135.39,-149.53 161.79,-144.62 184.67,-140.37"/>
<polygon fill="midnightblue" stroke="midnightblue" points="111.93,-150.33 102.74,-155.6 113.21,-157.21 111.93,-150.33"/>
</g>
<!-- Node90 -->
<g id="node3" class="node">
<title>Node90</title>
<g id="a_node3"><a xlink:href="structKratos_1_1Pipes_1_1Traits.html" target="_top" xlink:title=" ">
<polygon fill="white" stroke="black" points="0,-105 0,-135 113,-135 113,-105 0,-105"/>
<text text-anchor="start" x="8" y="-123" font-family="Helvetica,sans-Serif" font-size="10.00">Traits&lt; const Model</text>
<text text-anchor="middle" x="56.5" y="-112" font-family="Helvetica,sans-Serif" font-size="10.00"> &amp;, bool &gt;</text>
</a>
</g>
</g>
<!-- Node90&#45;&gt;Node1 -->
<g id="edge2" class="edge">
<title>Node90&#45;&gt;Node1</title>
<path fill="none" stroke="midnightblue" d="M123.44,-123.6C143.6,-124.7 165.55,-125.9 184.94,-126.96"/>
<polygon fill="midnightblue" stroke="midnightblue" points="123.58,-120.11 113.4,-123.05 123.19,-127.1 123.58,-120.11"/>
</g>
<!-- Node115 -->
<g id="node4" class="node">
<title>Node115</title>
<g id="a_node4"><a xlink:href="structKratos_1_1WRApp_1_1WRAppClass.html" target="_top" xlink:title="Dummy base class for registering and exporting exposed classes in WRApplication.">
<polygon fill="white" stroke="black" points="17.5,-57.5 17.5,-76.5 95.5,-76.5 95.5,-57.5 17.5,-57.5"/>
<text text-anchor="middle" x="56.5" y="-64.5" font-family="Helvetica,sans-Serif" font-size="10.00">WRAppClass</text>
</a>
</g>
</g>
<!-- Node115&#45;&gt;Node1 -->
<g id="edge6" class="edge">
<title>Node115&#45;&gt;Node1</title>
<path fill="none" stroke="midnightblue" d="M87.53,-80.6C105.21,-88.32 128.13,-97.85 149,-105 160.53,-108.95 173.04,-112.71 185,-116.05"/>
<polygon fill="midnightblue" stroke="midnightblue" points="88.85,-77.36 78.29,-76.52 86.02,-83.76 88.85,-77.36"/>
</g>
<!-- Node116 -->
<g id="node5" class="node">
<title>Node116</title>
<g id="a_node5"><a xlink:href="classKratos_1_1WRApp_1_1Hdf5IdToIndexOperation.html" target="_top" xlink:title=" ">
<polygon fill="white" stroke="black" points="174.5,-76.5 174.5,-95.5 308.5,-95.5 308.5,-76.5 174.5,-76.5"/>
<text text-anchor="middle" x="241.5" y="-83.5" font-family="Helvetica,sans-Serif" font-size="10.00">Hdf5IdToIndexOperation</text>
</a>
</g>
</g>
<!-- Node115&#45;&gt;Node116 -->
<g id="edge3" class="edge">
<title>Node115&#45;&gt;Node116</title>
<path fill="none" stroke="midnightblue" d="M105.83,-72.02C126.83,-74.2 151.76,-76.79 174.43,-79.14"/>
<polygon fill="midnightblue" stroke="midnightblue" points="106.17,-68.53 95.86,-70.98 105.45,-75.5 106.17,-68.53"/>
</g>
<!-- Node117 -->
<g id="node6" class="node">
<title>Node117</title>
<g id="a_node6"><a xlink:href="classKratos_1_1WRApp_1_1Hdf5IndexConnectivitiesOperation.html" target="_top" xlink:title=" ">
<polygon fill="white" stroke="black" points="149,-38.5 149,-57.5 334,-57.5 334,-38.5 149,-38.5"/>
<text text-anchor="middle" x="241.5" y="-45.5" font-family="Helvetica,sans-Serif" font-size="10.00">Hdf5IndexConnectivitiesOperation</text>
</a>
</g>
</g>
<!-- Node115&#45;&gt;Node117 -->
<g id="edge4" class="edge">
<title>Node115&#45;&gt;Node117</title>
<path fill="none" stroke="midnightblue" d="M106.07,-61.96C119.23,-60.59 133.94,-59.06 148.65,-57.54"/>
<polygon fill="midnightblue" stroke="midnightblue" points="105.45,-58.5 95.86,-63.02 106.17,-65.47 105.45,-58.5"/>
</g>
<!-- Node118 -->
<g id="node7" class="node">
<title>Node118</title>
<g id="a_node7"><a xlink:href="classKratos_1_1WRApp_1_1Hdf5LinSpaceOperation.html" target="_top" xlink:title=" ">
<polygon fill="white" stroke="black" points="176,-0.5 176,-19.5 307,-19.5 307,-0.5 176,-0.5"/>
<text text-anchor="middle" x="241.5" y="-7.5" font-family="Helvetica,sans-Serif" font-size="10.00">Hdf5LinSpaceOperation</text>
</a>
</g>
</g>
<!-- Node115&#45;&gt;Node118 -->
<g id="edge5" class="edge">
<title>Node115&#45;&gt;Node118</title>
<path fill="none" stroke="midnightblue" d="M86.67,-53.22C104.39,-45.28 127.64,-35.59 149,-29 160.78,-25.37 173.63,-22.21 185.88,-19.58"/>
<polygon fill="midnightblue" stroke="midnightblue" points="85.1,-50.1 77.45,-57.43 88,-56.47 85.1,-50.1"/>
</g>
</g>
</svg>
