<?xml version="1.0" encoding="UTF-8" standalone="no"?>
<!DOCTYPE svg PUBLIC "-//W3C//DTD SVG 1.1//EN"
 "http://www.w3.org/Graphics/SVG/1.1/DTD/svg11.dtd">
<!-- Generated by graphviz version 2.43.0 (0)
 -->
<!-- Title: Graphical Class Hierarchy Pages: 1 -->
<svg width="291pt" height="86pt"
 viewBox="0.00 0.00 291.00 86.00" xmlns="http://www.w3.org/2000/svg" xmlns:xlink="http://www.w3.org/1999/xlink">
<g id="graph0" class="graph" transform="scale(1 1) rotate(0) translate(4 82)">
<title>Graphical Class Hierarchy</title>
<!-- Node0 -->
<g id="Node000000" class="node">
<title>Node0</title>
<g id="a_Node000000"><a xlink:href="structKratos_1_1Pipes_1_1Traits.html" target="_top" xlink:title=" ">
<polygon fill="white" stroke="#666666" points="125,-48.5 0,-48.5 0,-29.5 125,-29.5 125,-48.5"/>
<text text-anchor="middle" x="62.5" y="-36.5" font-family="Helvetica,sans-Serif" font-size="10.00">Traits&lt; TValue, bool &gt;</text>
</a>
</g>
</g>
<!-- Node1 -->
<g id="Node000001" class="node">
<title>Node1</title>
<g id="a_Node000001"><a xlink:href="classKratos_1_1Pipes_1_1Comparison.html" target="_top" xlink:title="Perform a comparison operation on the input as the left hand side.">
<polygon fill="white" stroke="#666666" points="283,-78 161,-78 161,-48 283,-48 283,-78"/>
<text text-anchor="start" x="169" y="-66" font-family="Helvetica,sans-Serif" font-size="10.00">Comparison&lt; TValue,</text>
<text text-anchor="middle" x="222" y="-55" font-family="Helvetica,sans-Serif" font-size="10.00"> TOperator &gt;</text>
</a>
</g>
</g>
<!-- Node0&#45;&gt;Node1 -->
<g id="edge115_Node000000_Node000001" class="edge">
<title>Node0&#45;&gt;Node1</title>
<g id="a_edge115_Node000000_Node000001"><a xlink:title=" ">
<path fill="none" stroke="#63b8ff" d="M135.29,-49.94C143.86,-51.25 152.54,-52.57 160.93,-53.85"/>
<polygon fill="#63b8ff" stroke="#63b8ff" points="135.71,-46.46 125.3,-48.42 134.65,-53.38 135.71,-46.46"/>
</a>
</g>
</g>
<!-- Node2 -->
<g id="Node000002" class="node">
<title>Node2</title>
<g id="a_Node000002"><a xlink:href="classKratos_1_1Pipes_1_1IntervalPredicate.html" target="_top" xlink:title="Pipe wrapper for Detail::IntervalUtility.">
<polygon fill="white" stroke="#666666" points="276,-30 168,-30 168,0 276,0 276,-30"/>
<text text-anchor="start" x="176" y="-18" font-family="Helvetica,sans-Serif" font-size="10.00">IntervalPredicate&lt;</text>
<text text-anchor="middle" x="222" y="-7" font-family="Helvetica,sans-Serif" font-size="10.00"> TValue &gt;</text>
</a>
</g>
</g>
<!-- Node0&#45;&gt;Node2 -->
<g id="edge116_Node000000_Node000002" class="edge">
<title>Node0&#45;&gt;Node2</title>
<g id="a_edge116_Node000000_Node000002"><a xlink:title=" ">
<path fill="none" stroke="#63b8ff" d="M135.27,-28.06C146.22,-26.4 157.35,-24.7 167.8,-23.11"/>
<polygon fill="#63b8ff" stroke="#63b8ff" points="134.65,-24.62 125.3,-29.58 135.71,-31.54 134.65,-24.62"/>
</a>
</g>
</g>
</g>
</svg>
