<?xml version="1.0" encoding="UTF-8" standalone="no"?>
<!DOCTYPE svg PUBLIC "-//W3C//DTD SVG 1.1//EN"
 "http://www.w3.org/Graphics/SVG/1.1/DTD/svg11.dtd">
<!-- Generated by graphviz version 2.43.0 (0)
 -->
<!-- Title: Graphical Class Hierarchy Pages: 1 -->
<svg width="270pt" height="116pt"
 viewBox="0.00 0.00 270.00 116.00" xmlns="http://www.w3.org/2000/svg" xmlns:xlink="http://www.w3.org/1999/xlink">
<g id="graph0" class="graph" transform="scale(1 1) rotate(0) translate(4 112)">
<title>Graphical Class Hierarchy</title>
<polygon fill="white" stroke="transparent" points="-4,4 -4,-112 266,-112 266,4 -4,4"/>
<!-- Node0 -->
<g id="node1" class="node">
<title>Node0</title>
<g id="a_node1"><a xlink:href="structKratos_1_1WRApp_1_1ModelPredicate.html" target="_top" xlink:title="Base class for functors that take a Model and return a bool.">
<polygon fill="white" stroke="black" points="10.5,-88.5 10.5,-107.5 102.5,-107.5 102.5,-88.5 10.5,-88.5"/>
<text text-anchor="middle" x="56.5" y="-95.5" font-family="Helvetica,sans-Serif" font-size="10.00">ModelPredicate</text>
</a>
</g>
</g>
<!-- Node1 -->
<g id="node2" class="node">
<title>Node1</title>
<g id="a_node2"><a xlink:href="classKratos_1_1WRApp_1_1ModelPredicatePipe.html" target="_top" xlink:title=" ">
<polygon fill="white" stroke="black" points="149,-39 149,-69 262,-69 262,-39 149,-39"/>
<text text-anchor="start" x="157" y="-57" font-family="Helvetica,sans-Serif" font-size="10.00">ModelPredicatePipe</text>
<text text-anchor="middle" x="205.5" y="-46" font-family="Helvetica,sans-Serif" font-size="10.00">&lt; TPipe &gt;</text>
</a>
</g>
</g>
<!-- Node0&#45;&gt;Node1 -->
<g id="edge1" class="edge">
<title>Node0&#45;&gt;Node1</title>
<path fill="none" stroke="midnightblue" d="M99.11,-85.54C116.24,-80.42 136.23,-74.44 154.17,-69.07"/>
<polygon fill="midnightblue" stroke="midnightblue" points="97.97,-82.23 89.4,-88.45 99.98,-88.94 97.97,-82.23"/>
</g>
<!-- Node51 -->
<g id="node3" class="node">
<title>Node51</title>
<g id="a_node3"><a xlink:href="structKratos_1_1Pipes_1_1Traits.html" target="_top" xlink:title=" ">
<polygon fill="white" stroke="black" points="0,-39 0,-69 113,-69 113,-39 0,-39"/>
<text text-anchor="start" x="8" y="-57" font-family="Helvetica,sans-Serif" font-size="10.00">Traits&lt; const Model</text>
<text text-anchor="middle" x="56.5" y="-46" font-family="Helvetica,sans-Serif" font-size="10.00"> &amp;, bool &gt;</text>
</a>
</g>
</g>
<!-- Node51&#45;&gt;Node1 -->
<g id="edge2" class="edge">
<title>Node51&#45;&gt;Node1</title>
<path fill="none" stroke="midnightblue" d="M123.08,-54C131.68,-54 140.43,-54 148.85,-54"/>
<polygon fill="midnightblue" stroke="midnightblue" points="123.07,-50.5 113.07,-54 123.07,-57.5 123.07,-50.5"/>
</g>
<!-- Node74 -->
<g id="node4" class="node">
<title>Node74</title>
<g id="a_node4"><a xlink:href="structKratos_1_1WRApp_1_1WRAppClass.html" target="_top" xlink:title="Dummy base class for registering and exporting exposed classes in WRApplication.">
<polygon fill="white" stroke="black" points="17.5,-0.5 17.5,-19.5 95.5,-19.5 95.5,-0.5 17.5,-0.5"/>
<text text-anchor="middle" x="56.5" y="-7.5" font-family="Helvetica,sans-Serif" font-size="10.00">WRAppClass</text>
</a>
</g>
</g>
<!-- Node74&#45;&gt;Node1 -->
<g id="edge3" class="edge">
<title>Node74&#45;&gt;Node1</title>
<path fill="none" stroke="midnightblue" d="M99.11,-22.46C116.24,-27.58 136.23,-33.56 154.17,-38.93"/>
<polygon fill="midnightblue" stroke="midnightblue" points="99.98,-19.06 89.4,-19.55 97.97,-25.77 99.98,-19.06"/>
</g>
</g>
</svg>
