<?xml version="1.0" encoding="UTF-8" standalone="no"?>
<!DOCTYPE svg PUBLIC "-//W3C//DTD SVG 1.1//EN"
 "http://www.w3.org/Graphics/SVG/1.1/DTD/svg11.dtd">
<!-- Generated by graphviz version 2.43.0 (0)
 -->
<!-- Title: Graphical Class Hierarchy Pages: 1 -->
<svg width="302pt" height="64pt"
 viewBox="0.00 0.00 302.00 64.00" xmlns="http://www.w3.org/2000/svg" xmlns:xlink="http://www.w3.org/1999/xlink">
<g id="graph0" class="graph" transform="scale(1 1) rotate(0) translate(4 60)">
<title>Graphical Class Hierarchy</title>
<!-- Node0 -->
<g id="Node000000" class="node">
<title>Node0</title>
<g id="a_Node000000"><a xlink:title=" ">
<polygon fill="#e0e0e0" stroke="#999999" points="104,-37 0,-37 0,-18 104,-18 104,-37"/>
<text text-anchor="middle" x="52" y="-25" font-family="Helvetica,sans-Serif" font-size="10.00">SnapshotManager</text>
</a>
</g>
</g>
<!-- Node1 -->
<g id="Node000001" class="node">
<title>Node1</title>
<g id="a_Node000001"><a xlink:href="classHDF5SnapshotManager.html" target="_top" xlink:title="Snapshot manager specialized for HDF5Snapshot.">
<polygon fill="white" stroke="#666666" points="282.5,-56 151.5,-56 151.5,-37 282.5,-37 282.5,-56"/>
<text text-anchor="middle" x="217" y="-44" font-family="Helvetica,sans-Serif" font-size="10.00">HDF5SnapshotManager</text>
</a>
</g>
</g>
<!-- Node0&#45;&gt;Node1 -->
<g id="edge100_Node000000_Node000001" class="edge">
<title>Node0&#45;&gt;Node1</title>
<g id="a_edge100_Node000000_Node000001"><a xlink:title=" ">
<path fill="none" stroke="#63b8ff" d="M114.13,-34.63C126.25,-36.04 139.02,-37.53 151.26,-38.95"/>
<polygon fill="#63b8ff" stroke="#63b8ff" points="114.47,-31.14 104.13,-33.46 113.65,-38.09 114.47,-31.14"/>
</a>
</g>
</g>
<!-- Node2 -->
<g id="Node000002" class="node">
<title>Node2</title>
<g id="a_Node000002"><a xlink:href="classpython__scripts_1_1checkpoint_1_1SnapshotInMemory_1_1SnapshotInMemoryManager.html" target="_top" xlink:title=" ">
<polygon fill="white" stroke="#666666" points="294,-19 140,-19 140,0 294,0 294,-19"/>
<text text-anchor="middle" x="217" y="-7" font-family="Helvetica,sans-Serif" font-size="10.00">SnapshotInMemoryManager</text>
</a>
</g>
</g>
<!-- Node0&#45;&gt;Node2 -->
<g id="edge101_Node000000_Node000002" class="edge">
<title>Node0&#45;&gt;Node2</title>
<g id="a_edge101_Node000000_Node000002"><a xlink:title=" ">
<path fill="none" stroke="#63b8ff" d="M114.21,-20.74C122.62,-19.81 131.34,-18.85 139.98,-17.89"/>
<polygon fill="#63b8ff" stroke="#63b8ff" points="113.68,-17.28 104.13,-21.85 114.45,-24.24 113.68,-17.28"/>
</a>
</g>
</g>
</g>
</svg>
