<?xml version="1.0" encoding="UTF-8" standalone="no"?>
<!DOCTYPE svg PUBLIC "-//W3C//DTD SVG 1.1//EN"
 "http://www.w3.org/Graphics/SVG/1.1/DTD/svg11.dtd">
<!-- Generated by graphviz version 2.43.0 (0)
 -->
<!-- Title: Graphical Class Hierarchy Pages: 1 -->
<svg width="394pt" height="28pt"
 viewBox="0.00 0.00 394.00 28.00" xmlns="http://www.w3.org/2000/svg" xmlns:xlink="http://www.w3.org/1999/xlink">
<g id="graph0" class="graph" transform="scale(1 1) rotate(0) translate(4 24)">
<title>Graphical Class Hierarchy</title>
<polygon fill="white" stroke="transparent" points="-4,4 -4,-24 390,-24 390,4 -4,4"/>
<!-- Node0 -->
<g id="node1" class="node">
<title>Node0</title>
<g id="a_node1"><a xlink:href="classKratos_1_1PlaceholderPattern.html" target="_top" xlink:title="A class for interfacing placeholders and regular expressions.">
<polygon fill="white" stroke="black" points="0,-0.5 0,-19.5 108,-19.5 108,-0.5 0,-0.5"/>
<text text-anchor="middle" x="54" y="-7.5" font-family="Helvetica,sans-Serif" font-size="10.00">PlaceholderPattern</text>
</a>
</g>
</g>
<!-- Node1 -->
<g id="node2" class="node">
<title>Node1</title>
<g id="a_node2"><a xlink:href="classKratos_1_1ModelPartPattern.html" target="_top" xlink:title="A class for working with formatted strings related to ModelParts.">
<polygon fill="white" stroke="black" points="144,-0.5 144,-19.5 244,-19.5 244,-0.5 144,-0.5"/>
<text text-anchor="middle" x="194" y="-7.5" font-family="Helvetica,sans-Serif" font-size="10.00">ModelPartPattern</text>
</a>
</g>
</g>
<!-- Node0&#45;&gt;Node1 -->
<g id="edge1" class="edge">
<title>Node0&#45;&gt;Node1</title>
<path fill="none" stroke="midnightblue" d="M118.61,-10C127.09,-10 135.67,-10 143.85,-10"/>
<polygon fill="midnightblue" stroke="midnightblue" points="118.35,-6.5 108.35,-10 118.35,-13.5 118.35,-6.5"/>
</g>
<!-- Node2 -->
<g id="node3" class="node">
<title>Node2</title>
<g id="a_node3"><a xlink:href="classKratos_1_1CheckpointPattern.html" target="_top" xlink:title="A class for working with formatted strings related to Checkpoint.">
<polygon fill="white" stroke="black" points="280,-0.5 280,-19.5 386,-19.5 386,-0.5 280,-0.5"/>
<text text-anchor="middle" x="333" y="-7.5" font-family="Helvetica,sans-Serif" font-size="10.00">CheckpointPattern</text>
</a>
</g>
</g>
<!-- Node1&#45;&gt;Node2 -->
<g id="edge2" class="edge">
<title>Node1&#45;&gt;Node2</title>
<path fill="none" stroke="midnightblue" d="M254.23,-10C262.65,-10 271.28,-10 279.56,-10"/>
<polygon fill="midnightblue" stroke="midnightblue" points="254.07,-6.5 244.07,-10 254.07,-13.5 254.07,-6.5"/>
</g>
</g>
</svg>
