<?xml version="1.0" encoding="UTF-8" standalone="no"?>
<!DOCTYPE svg PUBLIC "-//W3C//DTD SVG 1.1//EN"
 "http://www.w3.org/Graphics/SVG/1.1/DTD/svg11.dtd">
<!-- Generated by graphviz version 2.43.0 (0)
 -->
<!-- Title: Graphical Class Hierarchy Pages: 1 -->
<svg width="199pt" height="104pt"
 viewBox="0.00 0.00 199.00 104.00" xmlns="http://www.w3.org/2000/svg" xmlns:xlink="http://www.w3.org/1999/xlink">
<g id="graph0" class="graph" transform="scale(1 1) rotate(0) translate(4 100)">
<title>Graphical Class Hierarchy</title>
<polygon fill="white" stroke="transparent" points="-4,4 -4,-100 195,-100 195,4 -4,4"/>
<!-- Node164 -->
<g id="node1" class="node">
<title>Node164</title>
<g id="a_node1"><a xlink:title=" ">
<polygon fill="white" stroke="#bfbfbf" points="0,-38.5 0,-57.5 44,-57.5 44,-38.5 0,-38.5"/>
<text text-anchor="middle" x="22" y="-45.5" font-family="Helvetica,sans-Serif" font-size="10.00">Enum</text>
</a>
</g>
</g>
<!-- Node0 -->
<g id="node2" class="node">
<title>Node0</title>
<g id="a_node2"><a xlink:href="classpython__scripts_1_1xdmf_1_1Geometry_1_1Geometry_1_1Type.html" target="_top" xlink:title=" ">
<polygon fill="white" stroke="black" points="91,-76.5 91,-95.5 180,-95.5 180,-76.5 91,-76.5"/>
<text text-anchor="middle" x="135.5" y="-83.5" font-family="Helvetica,sans-Serif" font-size="10.00">Geometry.Type</text>
</a>
</g>
</g>
<!-- Node164&#45;&gt;Node0 -->
<g id="edge1" class="edge">
<title>Node164&#45;&gt;Node0</title>
<path fill="none" stroke="midnightblue" d="M53.97,-58.55C70.46,-64.17 90.59,-71.03 106.59,-76.49"/>
<polygon fill="midnightblue" stroke="midnightblue" points="54.83,-55.15 44.23,-55.24 52.57,-61.78 54.83,-55.15"/>
</g>
<!-- Node166 -->
<g id="node3" class="node">
<title>Node166</title>
<g id="a_node3"><a xlink:href="classpython__scripts_1_1xdmf_1_1Grid_1_1GridCollection_1_1Type.html" target="_top" xlink:title=" ">
<polygon fill="white" stroke="black" points="80,-38.5 80,-57.5 191,-57.5 191,-38.5 80,-38.5"/>
<text text-anchor="middle" x="135.5" y="-45.5" font-family="Helvetica,sans-Serif" font-size="10.00">GridCollection.Type</text>
</a>
</g>
</g>
<!-- Node164&#45;&gt;Node166 -->
<g id="edge2" class="edge">
<title>Node164&#45;&gt;Node166</title>
<path fill="none" stroke="midnightblue" d="M54.5,-48C62.46,-48 71.24,-48 79.98,-48"/>
<polygon fill="midnightblue" stroke="midnightblue" points="54.23,-44.5 44.23,-48 54.23,-51.5 54.23,-44.5"/>
</g>
<!-- Node167 -->
<g id="node4" class="node">
<title>Node167</title>
<g id="a_node4"><a xlink:href="classpython__scripts_1_1xdmf_1_1Topology_1_1Topology_1_1Type.html" target="_top" xlink:title=" ">
<polygon fill="white" stroke="black" points="93.5,-0.5 93.5,-19.5 177.5,-19.5 177.5,-0.5 93.5,-0.5"/>
<text text-anchor="middle" x="135.5" y="-7.5" font-family="Helvetica,sans-Serif" font-size="10.00">Topology.Type</text>
</a>
</g>
</g>
<!-- Node164&#45;&gt;Node167 -->
<g id="edge3" class="edge">
<title>Node164&#45;&gt;Node167</title>
<path fill="none" stroke="midnightblue" d="M53.97,-37.45C70.46,-31.83 90.59,-24.97 106.59,-19.51"/>
<polygon fill="midnightblue" stroke="midnightblue" points="52.57,-34.22 44.23,-40.76 54.83,-40.85 52.57,-34.22"/>
</g>
</g>
</svg>
