<?xml version="1.0" encoding="UTF-8" standalone="no"?>
<!DOCTYPE svg PUBLIC "-//W3C//DTD SVG 1.1//EN"
 "http://www.w3.org/Graphics/SVG/1.1/DTD/svg11.dtd">
<!-- Generated by graphviz version 2.43.0 (0)
 -->
<!-- Title: Graphical Class Hierarchy Pages: 1 -->
<svg width="237pt" height="64pt"
 viewBox="0.00 0.00 237.00 64.00" xmlns="http://www.w3.org/2000/svg" xmlns:xlink="http://www.w3.org/1999/xlink">
<g id="graph0" class="graph" transform="scale(1 1) rotate(0) translate(4 60)">
<title>Graphical Class Hierarchy</title>
<!-- Node0 -->
<g id="Node000000" class="node">
<title>Node0</title>
<g id="a_Node000000"><a xlink:title=" ">
<polygon fill="#e0e0e0" stroke="#999999" points="77,-37 0,-37 0,-18 77,-18 77,-37"/>
<text text-anchor="middle" x="38.5" y="-25" font-family="Helvetica,sans-Serif" font-size="10.00">AsyncSolver</text>
</a>
</g>
</g>
<!-- Node1 -->
<g id="Node000001" class="node">
<title>Node1</title>
<g id="a_Node000001"><a xlink:href="classCoupledAsyncSolver.html" target="_top" xlink:title="AsyncSolver with coupling directives from CoSimulationApplication.">
<polygon fill="white" stroke="#666666" points="229,-56 113,-56 113,-37 229,-37 229,-56"/>
<text text-anchor="middle" x="171" y="-44" font-family="Helvetica,sans-Serif" font-size="10.00">CoupledAsyncSolver</text>
</a>
</g>
</g>
<!-- Node0&#45;&gt;Node1 -->
<g id="edge71_Node000000_Node000001" class="edge">
<title>Node0&#45;&gt;Node1</title>
<g id="a_edge71_Node000000_Node000001"><a xlink:title=" ">
<path fill="none" stroke="#63b8ff" d="M87.19,-34.44C95.55,-35.66 104.33,-36.94 112.91,-38.19"/>
<polygon fill="#63b8ff" stroke="#63b8ff" points="87.65,-30.97 77.25,-33 86.64,-37.9 87.65,-30.97"/>
</a>
</g>
</g>
<!-- Node2 -->
<g id="Node000002" class="node">
<title>Node2</title>
<g id="a_Node000002"><a xlink:href="classWrappedAnalysis.html" target="_top" xlink:title="Integrate a KratosMultiphysics.AnalysisStage into AsyncSolver._Synchronize.">
<polygon fill="white" stroke="#666666" points="221.5,-19 120.5,-19 120.5,0 221.5,0 221.5,-19"/>
<text text-anchor="middle" x="171" y="-7" font-family="Helvetica,sans-Serif" font-size="10.00">WrappedAnalysis</text>
</a>
</g>
</g>
<!-- Node0&#45;&gt;Node2 -->
<g id="edge72_Node000000_Node000002" class="edge">
<title>Node0&#45;&gt;Node2</title>
<g id="a_edge72_Node000000_Node000002"><a xlink:title=" ">
<path fill="none" stroke="#63b8ff" d="M87.27,-20.91C97.99,-19.43 109.39,-17.86 120.19,-16.37"/>
<polygon fill="#63b8ff" stroke="#63b8ff" points="86.67,-17.46 77.25,-22.29 87.63,-24.39 86.67,-17.46"/>
</a>
</g>
</g>
</g>
</svg>
