<?xml version="1.0" encoding="UTF-8" standalone="no"?>
<!DOCTYPE svg PUBLIC "-//W3C//DTD SVG 1.1//EN"
 "http://www.w3.org/Graphics/SVG/1.1/DTD/svg11.dtd">
<!-- Generated by graphviz version 2.43.0 (0)
 -->
<!-- Title: Graphical Class Hierarchy Pages: 1 -->
<svg width="310pt" height="64pt"
 viewBox="0.00 0.00 310.00 64.00" xmlns="http://www.w3.org/2000/svg" xmlns:xlink="http://www.w3.org/1999/xlink">
<g id="graph0" class="graph" transform="scale(1 1) rotate(0) translate(4 60)">
<title>Graphical Class Hierarchy</title>
<!-- Node0 -->
<g id="Node000000" class="node">
<title>Node0</title>
<g id="a_Node000000"><a xlink:title=" ">
<polygon fill="#e0e0e0" stroke="#999999" points="122,-37 0,-37 0,-18 122,-18 122,-37"/>
<text text-anchor="middle" x="61" y="-25" font-family="Helvetica,sans-Serif" font-size="10.00">SnapshotInMemoryIO</text>
</a>
</g>
</g>
<!-- Node1 -->
<g id="Node000001" class="node">
<title>Node1</title>
<g id="a_Node000001"><a xlink:href="classpython__scripts_1_1checkpoint_1_1SnapshotInMemoryIO_1_1SnapshotInMemoryInput.html" target="_top" xlink:title="Implements Snapshot input operations in memory.">
<polygon fill="white" stroke="#666666" points="298,-56 162,-56 162,-37 298,-37 298,-56"/>
<text text-anchor="middle" x="230" y="-44" font-family="Helvetica,sans-Serif" font-size="10.00">SnapshotInMemoryInput</text>
</a>
</g>
</g>
<!-- Node0&#45;&gt;Node1 -->
<g id="edge96_Node000000_Node000001" class="edge">
<title>Node0&#45;&gt;Node1</title>
<g id="a_edge96_Node000000_Node000001"><a xlink:title=" ">
<path fill="none" stroke="#63b8ff" d="M132.33,-35.5C142.06,-36.61 152.04,-37.74 161.72,-38.85"/>
<polygon fill="#63b8ff" stroke="#63b8ff" points="132.62,-32.01 122.29,-34.36 131.83,-38.97 132.62,-32.01"/>
</a>
</g>
</g>
<!-- Node2 -->
<g id="Node000002" class="node">
<title>Node2</title>
<g id="a_Node000002"><a xlink:href="classpython__scripts_1_1checkpoint_1_1SnapshotInMemoryIO_1_1SnapshotInMemoryOutput.html" target="_top" xlink:title="Implements Snapshot output operations in memory.">
<polygon fill="white" stroke="#666666" points="302,-19 158,-19 158,0 302,0 302,-19"/>
<text text-anchor="middle" x="230" y="-7" font-family="Helvetica,sans-Serif" font-size="10.00">SnapshotInMemoryOutput</text>
</a>
</g>
</g>
<!-- Node0&#45;&gt;Node2 -->
<g id="edge97_Node000000_Node000002" class="edge">
<title>Node0&#45;&gt;Node2</title>
<g id="a_edge97_Node000000_Node000002"><a xlink:title=" ">
<path fill="none" stroke="#63b8ff" d="M132.48,-19.9C140.92,-18.99 149.54,-18.06 158,-17.15"/>
<polygon fill="#63b8ff" stroke="#63b8ff" points="131.86,-16.45 122.29,-21 132.61,-23.41 131.86,-16.45"/>
</a>
</g>
</g>
</g>
</svg>
