<?xml version="1.0" encoding="UTF-8" standalone="no"?>
<!DOCTYPE svg PUBLIC "-//W3C//DTD SVG 1.1//EN"
 "http://www.w3.org/Graphics/SVG/1.1/DTD/svg11.dtd">
<!-- Generated by graphviz version 2.43.0 (0)
 -->
<!-- Title: Graphical Class Hierarchy Pages: 1 -->
<svg width="1021pt" height="610pt"
 viewBox="0.00 0.00 1021.00 610.00" xmlns="http://www.w3.org/2000/svg" xmlns:xlink="http://www.w3.org/1999/xlink">
<g id="graph0" class="graph" transform="scale(1 1) rotate(0) translate(4 606)">
<title>Graphical Class Hierarchy</title>
<polygon fill="white" stroke="transparent" points="-4,4 -4,-606 1017,-606 1017,4 -4,4"/>
<!-- Node1 -->
<g id="node1" class="node">
<title>Node1</title>
<g id="a_node1"><a xlink:title=" ">
<polygon fill="white" stroke="#bfbfbf" points="0,-582.5 0,-601.5 89,-601.5 89,-582.5 0,-582.5"/>
<text text-anchor="middle" x="44.5" y="-589.5" font-family="Helvetica,sans-Serif" font-size="10.00">__WRAppClass</text>
</a>
</g>
</g>
<!-- Node0 -->
<g id="node2" class="node">
<title>Node0</title>
<g id="a_node2"><a xlink:href="classpython__scripts_1_1WRAppClass.html" target="_top" xlink:title="WRApp::WRAppClass with a replaced metaclass for compatibility with abc.">
<polygon fill="white" stroke="black" points="317,-544.5 317,-563.5 395,-563.5 395,-544.5 317,-544.5"/>
<text text-anchor="middle" x="356" y="-551.5" font-family="Helvetica,sans-Serif" font-size="10.00">WRAppClass</text>
</a>
</g>
</g>
<!-- Node1&#45;&gt;Node0 -->
<g id="edge1" class="edge">
<title>Node1&#45;&gt;Node0</title>
<path fill="none" stroke="midnightblue" d="M99.17,-587.61C137.84,-584.23 191.23,-579.1 238,-573 264.43,-569.55 294.06,-564.73 316.89,-560.81"/>
<polygon fill="midnightblue" stroke="midnightblue" points="98.83,-584.13 89.17,-588.47 99.43,-591.1 98.83,-584.13"/>
</g>
<!-- Node3 -->
<g id="node3" class="node">
<title>Node3</title>
<g id="a_node3"><a xlink:href="classpython__scripts_1_1WRAppMeta.html" target="_top" xlink:title="Metaclass replacing that of the C++ WRAppClass to provide derived classes access to abc....">
<polygon fill="white" stroke="black" points="143,-544.5 143,-563.5 220,-563.5 220,-544.5 143,-544.5"/>
<text text-anchor="middle" x="181.5" y="-551.5" font-family="Helvetica,sans-Serif" font-size="10.00">WRAppMeta</text>
</a>
</g>
</g>
<!-- Node1&#45;&gt;Node3 -->
<g id="edge2" class="edge">
<title>Node1&#45;&gt;Node3</title>
<path fill="none" stroke="midnightblue" d="M89.26,-579.68C107.81,-574.46 129.1,-568.47 146.44,-563.59"/>
<polygon fill="midnightblue" stroke="midnightblue" points="88.24,-576.33 79.57,-582.41 90.14,-583.07 88.24,-576.33"/>
</g>
<!-- Node3&#45;&gt;Node0 -->
<g id="edge3" class="edge">
<title>Node3&#45;&gt;Node0</title>
<path fill="none" stroke="midnightblue" d="M230.47,-554C257.77,-554 291.47,-554 316.93,-554"/>
<polygon fill="midnightblue" stroke="midnightblue" points="230.36,-550.5 220.36,-554 230.36,-557.5 230.36,-550.5"/>
</g>
<!-- Node5 -->
<g id="node4" class="node">
<title>Node5</title>
<g id="a_node4"><a xlink:title=" ">
<polygon fill="white" stroke="#bfbfbf" points="26,-430.5 26,-449.5 63,-449.5 63,-430.5 26,-430.5"/>
<text text-anchor="middle" x="44.5" y="-437.5" font-family="Helvetica,sans-Serif" font-size="10.00">ABC</text>
</a>
</g>
</g>
<!-- Node5&#45;&gt;Node3 -->
<g id="edge4" class="edge">
<title>Node5&#45;&gt;Node3</title>
<path fill="none" stroke="midnightblue" d="M56.4,-458.29C69.96,-479.57 95.02,-514.41 125,-535 130.54,-538.81 136.91,-541.91 143.32,-544.43"/>
<polygon fill="midnightblue" stroke="midnightblue" points="59.24,-456.23 51,-449.57 53.29,-459.91 59.24,-456.23"/>
</g>
<!-- Node6 -->
<g id="node5" class="node">
<title>Node6</title>
<g id="a_node5"><a xlink:href="classpython__scripts_1_1async__analysis_1_1SolutionStageScope_1_1SolutionStageScope.html" target="_top" xlink:title="RAII context manager for tasks during solver execution.">
<polygon fill="white" stroke="black" points="125,-354.5 125,-373.5 238,-373.5 238,-354.5 125,-354.5"/>
<text text-anchor="middle" x="181.5" y="-361.5" font-family="Helvetica,sans-Serif" font-size="10.00">SolutionStageScope</text>
</a>
</g>
</g>
<!-- Node5&#45;&gt;Node6 -->
<g id="edge5" class="edge">
<title>Node5&#45;&gt;Node6</title>
<path fill="none" stroke="midnightblue" d="M64.45,-423.97C79.95,-411.49 102.84,-394.42 125,-383 132.06,-379.36 139.97,-376.17 147.56,-373.5"/>
<polygon fill="midnightblue" stroke="midnightblue" points="62.17,-421.32 56.66,-430.37 66.61,-426.73 62.17,-421.32"/>
</g>
<!-- Node7 -->
<g id="node6" class="node">
<title>Node7</title>
<g id="a_node6"><a xlink:href="classpython__scripts_1_1async__analysis_1_1AsyncSolver_1_1AsyncSolver_1_1SolverScope.html" target="_top" xlink:title="Embed some part of AsyncSolver in a SolutionStageScope.">
<polygon fill="white" stroke="black" points="286.5,-392.5 286.5,-411.5 425.5,-411.5 425.5,-392.5 286.5,-392.5"/>
<text text-anchor="middle" x="356" y="-399.5" font-family="Helvetica,sans-Serif" font-size="10.00">AsyncSolver.SolverScope</text>
</a>
</g>
</g>
<!-- Node6&#45;&gt;Node7 -->
<g id="edge6" class="edge">
<title>Node6&#45;&gt;Node7</title>
<path fill="none" stroke="midnightblue" d="M235.85,-375.75C260.24,-381.13 288.76,-387.41 311.78,-392.48"/>
<polygon fill="midnightblue" stroke="midnightblue" points="236.55,-372.32 226.03,-373.59 235.04,-379.16 236.55,-372.32"/>
</g>
<!-- Node15 -->
<g id="node14" class="node">
<title>Node15</title>
<g id="a_node14"><a xlink:href="classpython__scripts_1_1async__analysis_1_1CoSimCoupling_1_1CoSimCoupling.html" target="_top" xlink:title="Wrapper for CoSimulationApplication coupling procedures.">
<polygon fill="white" stroke="black" points="310.5,-310.5 310.5,-329.5 401.5,-329.5 401.5,-310.5 310.5,-310.5"/>
<text text-anchor="middle" x="356" y="-317.5" font-family="Helvetica,sans-Serif" font-size="10.00">CoSimCoupling</text>
</a>
</g>
</g>
<!-- Node6&#45;&gt;Node15 -->
<g id="edge14" class="edge">
<title>Node6&#45;&gt;Node15</title>
<path fill="none" stroke="midnightblue" d="M229.79,-351.94C257.45,-344.88 291.89,-336.1 317.64,-329.53"/>
<polygon fill="midnightblue" stroke="midnightblue" points="228.75,-348.59 219.93,-354.45 230.48,-355.37 228.75,-348.59"/>
</g>
<!-- Node16 -->
<g id="node15" class="node">
<title>Node16</title>
<g id="a_node15"><a xlink:href="classpython__scripts_1_1async__analysis_1_1SolutionStageScope_1_1AggregateSolutionStageScope.html" target="_top" xlink:title="Enter multiple SolutionStageScope contexts at once.">
<polygon fill="white" stroke="black" points="274,-354.5 274,-373.5 438,-373.5 438,-354.5 274,-354.5"/>
<text text-anchor="middle" x="356" y="-361.5" font-family="Helvetica,sans-Serif" font-size="10.00">AggregateSolutionStageScope</text>
</a>
</g>
</g>
<!-- Node6&#45;&gt;Node16 -->
<g id="edge15" class="edge">
<title>Node6&#45;&gt;Node16</title>
<path fill="none" stroke="midnightblue" d="M248.12,-364C256.53,-364 265.21,-364 273.82,-364"/>
<polygon fill="midnightblue" stroke="midnightblue" points="248.03,-360.5 238.03,-364 248.03,-367.5 248.03,-360.5"/>
</g>
<!-- Node8 -->
<g id="node7" class="node">
<title>Node8</title>
<g id="a_node7"><a xlink:href="classpython__scripts_1_1async__analysis_1_1AsyncSolver_1_1AsyncSolver_1_1AdvanceScope.html" target="_top" xlink:title="Embed AsyncSolver._Advance in a SolutionStageScope.">
<polygon fill="white" stroke="black" points="482.5,-449.5 482.5,-468.5 632.5,-468.5 632.5,-449.5 482.5,-449.5"/>
<text text-anchor="middle" x="557.5" y="-456.5" font-family="Helvetica,sans-Serif" font-size="10.00">AsyncSolver.AdvanceScope</text>
</a>
</g>
</g>
<!-- Node7&#45;&gt;Node8 -->
<g id="edge7" class="edge">
<title>Node7&#45;&gt;Node8</title>
<path fill="none" stroke="midnightblue" d="M416.72,-414.17C423.97,-416.19 431.21,-418.46 438,-421 454.94,-427.34 457.04,-433.69 474,-440 484.06,-443.74 495.09,-446.89 505.72,-449.49"/>
<polygon fill="midnightblue" stroke="midnightblue" points="417.42,-410.74 406.86,-411.58 415.64,-417.51 417.42,-410.74"/>
</g>
<!-- Node9 -->
<g id="node8" class="node">
<title>Node9</title>
<g id="a_node8"><a xlink:href="classpython__scripts_1_1async__analysis_1_1AsyncSolver_1_1AsyncSolver_1_1PostprocessScope.html" target="_top" xlink:title="Embed AsyncSolver._Postprocess in a SolutionStageScope.">
<polygon fill="white" stroke="black" points="474,-411.5 474,-430.5 641,-430.5 641,-411.5 474,-411.5"/>
<text text-anchor="middle" x="557.5" y="-418.5" font-family="Helvetica,sans-Serif" font-size="10.00">AsyncSolver.PostprocessScope</text>
</a>
</g>
</g>
<!-- Node7&#45;&gt;Node9 -->
<g id="edge8" class="edge">
<title>Node7&#45;&gt;Node9</title>
<path fill="none" stroke="midnightblue" d="M435.63,-409.49C448.22,-410.69 461.27,-411.93 473.95,-413.14"/>
<polygon fill="midnightblue" stroke="midnightblue" points="435.94,-406 425.66,-408.54 435.28,-412.97 435.94,-406"/>
</g>
<!-- Node10 -->
<g id="node9" class="node">
<title>Node10</title>
<g id="a_node9"><a xlink:href="classpython__scripts_1_1async__analysis_1_1AsyncSolver_1_1AsyncSolver_1_1PreprocessScope.html" target="_top" xlink:title="Embed AsyncSolver._Preprocess in a SolutionStageScope.">
<polygon fill="white" stroke="black" points="477,-373.5 477,-392.5 638,-392.5 638,-373.5 477,-373.5"/>
<text text-anchor="middle" x="557.5" y="-380.5" font-family="Helvetica,sans-Serif" font-size="10.00">AsyncSolver.PreprocessScope</text>
</a>
</g>
</g>
<!-- Node7&#45;&gt;Node10 -->
<g id="edge9" class="edge">
<title>Node7&#45;&gt;Node10</title>
<path fill="none" stroke="midnightblue" d="M435.82,-394.49C449.27,-393.21 463.26,-391.88 476.73,-390.6"/>
<polygon fill="midnightblue" stroke="midnightblue" points="435.28,-391.03 425.66,-395.46 435.94,-398 435.28,-391.03"/>
</g>
<!-- Node11 -->
<g id="node10" class="node">
<title>Node11</title>
<g id="a_node10"><a xlink:href="classpython__scripts_1_1async__analysis_1_1AsyncSolver_1_1AsyncSolver_1_1SolutionLoopScope.html" target="_top" xlink:title="Embed AsyncSolver.Run in a SolutionStageScope.">
<polygon fill="white" stroke="black" points="486.5,-324 486.5,-354 628.5,-354 628.5,-324 486.5,-324"/>
<text text-anchor="start" x="494.5" y="-342" font-family="Helvetica,sans-Serif" font-size="10.00">AsyncSolver.SolutionLoop</text>
<text text-anchor="middle" x="557.5" y="-331" font-family="Helvetica,sans-Serif" font-size="10.00">Scope</text>
</a>
</g>
</g>
<!-- Node7&#45;&gt;Node11 -->
<g id="edge10" class="edge">
<title>Node7&#45;&gt;Node11</title>
<path fill="none" stroke="midnightblue" d="M416.72,-389.83C423.97,-387.81 431.21,-385.54 438,-383 454.94,-376.66 457.27,-370.88 474,-364 482.72,-360.42 492.15,-357.08 501.4,-354.09"/>
<polygon fill="midnightblue" stroke="midnightblue" points="415.64,-386.49 406.86,-392.42 417.42,-393.26 415.64,-386.49"/>
</g>
<!-- Node12 -->
<g id="node11" class="node">
<title>Node12</title>
<g id="a_node11"><a xlink:href="classpython__scripts_1_1async__analysis_1_1AsyncSolver_1_1AsyncSolver_1_1SynchronizeScope.html" target="_top" xlink:title="Embed AsyncSolver._Synchronize in a SolutionStageScope.">
<polygon fill="white" stroke="black" points="474,-487.5 474,-506.5 641,-506.5 641,-487.5 474,-487.5"/>
<text text-anchor="middle" x="557.5" y="-494.5" font-family="Helvetica,sans-Serif" font-size="10.00">AsyncSolver.SynchronizeScope</text>
</a>
</g>
</g>
<!-- Node7&#45;&gt;Node12 -->
<g id="edge11" class="edge">
<title>Node7&#45;&gt;Node12</title>
<path fill="none" stroke="midnightblue" d="M429.43,-415.78C432.42,-417.34 435.29,-419.07 438,-421 462.4,-438.38 449.56,-460.67 474,-478 479.39,-481.83 485.44,-484.89 491.75,-487.35"/>
<polygon fill="midnightblue" stroke="midnightblue" points="430.72,-412.52 420.17,-411.6 427.84,-418.9 430.72,-412.52"/>
</g>
<!-- Node13 -->
<g id="node12" class="node">
<title>Node13</title>
<g id="a_node12"><a xlink:href="classpython__scripts_1_1async__analysis_1_1CoupledAsyncSolver_1_1CoupledAsyncSolver_1_1SynchronizeScope.html" target="_top" xlink:title=" ">
<polygon fill="white" stroke="black" points="677,-506 677,-536 855,-536 855,-506 677,-506"/>
<text text-anchor="start" x="685" y="-524" font-family="Helvetica,sans-Serif" font-size="10.00">CoupledAsyncSolver.Synchronize</text>
<text text-anchor="middle" x="766" y="-513" font-family="Helvetica,sans-Serif" font-size="10.00">Scope</text>
</a>
</g>
</g>
<!-- Node12&#45;&gt;Node13 -->
<g id="edge12" class="edge">
<title>Node12&#45;&gt;Node13</title>
<path fill="none" stroke="midnightblue" d="M650.56,-507.7C659.26,-508.71 668.07,-509.73 676.74,-510.74"/>
<polygon fill="midnightblue" stroke="midnightblue" points="650.75,-504.2 640.41,-506.52 649.94,-511.15 650.75,-504.2"/>
</g>
<!-- Node14 -->
<g id="node13" class="node">
<title>Node14</title>
<g id="a_node13"><a xlink:href="classpython__scripts_1_1async__analysis_1_1WrappedAnalysis_1_1WrappedAnalysis_1_1SynchronizeScope.html" target="_top" xlink:title="Sandwich AnalysisStage.SolveSolutionStage between &quot;initialization&quot; and &quot;finalization&quot;.">
<polygon fill="white" stroke="black" points="684,-457 684,-487 848,-487 848,-457 684,-457"/>
<text text-anchor="start" x="692" y="-475" font-family="Helvetica,sans-Serif" font-size="10.00">WrappedAnalysis.Synchronize</text>
<text text-anchor="middle" x="766" y="-464" font-family="Helvetica,sans-Serif" font-size="10.00">Scope</text>
</a>
</g>
</g>
<!-- Node12&#45;&gt;Node14 -->
<g id="edge13" class="edge">
<title>Node12&#45;&gt;Node14</title>
<path fill="none" stroke="midnightblue" d="M647.28,-486.25C659.41,-484.78 671.82,-483.28 683.82,-481.83"/>
<polygon fill="midnightblue" stroke="midnightblue" points="646.66,-482.8 637.16,-487.48 647.51,-489.75 646.66,-482.8"/>
</g>
<!-- Node17 -->
<g id="node16" class="node">
<title>Node17</title>
<g id="a_node16"><a xlink:title=" ">
<polygon fill="white" stroke="#bfbfbf" points="150.5,-468.5 150.5,-487.5 212.5,-487.5 212.5,-468.5 150.5,-468.5"/>
<text text-anchor="middle" x="181.5" y="-475.5" font-family="Helvetica,sans-Serif" font-size="10.00">ABCMeta</text>
</a>
</g>
</g>
<!-- Node18 -->
<g id="node17" class="node">
<title>Node18</title>
<g id="a_node17"><a xlink:href="classpython__scripts_1_1checkpoint_1_1Snapshot_1_1SnapshotManager.html" target="_top" xlink:title="Interface for Snapshot lifetime management.">
<polygon fill="white" stroke="black" points="304,-506.5 304,-525.5 408,-525.5 408,-506.5 304,-506.5"/>
<text text-anchor="middle" x="356" y="-513.5" font-family="Helvetica,sans-Serif" font-size="10.00">SnapshotManager</text>
</a>
</g>
</g>
<!-- Node17&#45;&gt;Node18 -->
<g id="edge16" class="edge">
<title>Node17&#45;&gt;Node18</title>
<path fill="none" stroke="midnightblue" d="M222.35,-486.78C249.08,-492.67 284.3,-500.42 311.72,-506.47"/>
<polygon fill="midnightblue" stroke="midnightblue" points="223.07,-483.35 212.55,-484.62 221.56,-490.19 223.07,-483.35"/>
</g>
<!-- Node19 -->
<g id="node18" class="node">
<title>Node19</title>
<g id="a_node18"><a xlink:href="classpython__scripts_1_1checkpoint_1_1HDF5Snapshot_1_1HDF5SnapshotManager.html" target="_top" xlink:title="Snapshot manager specialized for HDF5Snapshot.">
<polygon fill="white" stroke="black" points="492,-525.5 492,-544.5 623,-544.5 623,-525.5 492,-525.5"/>
<text text-anchor="middle" x="557.5" y="-532.5" font-family="Helvetica,sans-Serif" font-size="10.00">HDF5SnapshotManager</text>
</a>
</g>
</g>
<!-- Node18&#45;&gt;Node19 -->
<g id="edge17" class="edge">
<title>Node18&#45;&gt;Node19</title>
<path fill="none" stroke="midnightblue" d="M418.24,-521.83C441.59,-524.06 468.26,-526.6 491.91,-528.85"/>
<polygon fill="midnightblue" stroke="midnightblue" points="418.4,-518.33 408.12,-520.87 417.74,-525.3 418.4,-518.33"/>
</g>
<!-- Node30 -->
<g id="node19" class="node">
<title>Node30</title>
<g id="a_node19"><a xlink:title=" ">
<polygon fill="white" stroke="#bfbfbf" points="148,-506.5 148,-525.5 215,-525.5 215,-506.5 148,-506.5"/>
<text text-anchor="middle" x="181.5" y="-513.5" font-family="Helvetica,sans-Serif" font-size="10.00">metaclass</text>
</a>
</g>
</g>
<!-- Node30&#45;&gt;Node0 -->
<g id="edge18" class="edge">
<title>Node30&#45;&gt;Node0</title>
<path fill="none" stroke="midnightblue" d="M225.29,-525.43C253.37,-531.61 289.77,-539.63 316.86,-545.6"/>
<polygon fill="midnightblue" stroke="midnightblue" points="225.87,-521.97 215.35,-523.24 224.36,-528.81 225.87,-521.97"/>
</g>
<!-- Node30&#45;&gt;Node18 -->
<g id="edge20" class="edge">
<title>Node30&#45;&gt;Node18</title>
<path fill="none" stroke="midnightblue" d="M225.49,-516C249.27,-516 278.98,-516 303.94,-516"/>
<polygon fill="midnightblue" stroke="midnightblue" points="225.35,-512.5 215.35,-516 225.35,-519.5 225.35,-512.5"/>
</g>
<!-- Node31 -->
<g id="node20" class="node">
<title>Node31</title>
<g id="a_node20"><a xlink:href="classpython__scripts_1_1checkpoint_1_1CheckpointProcess_1_1CheckpointProcess.html" target="_top" xlink:title="Main interface process for checkpointing.">
<polygon fill="white" stroke="black" points="301.5,-430.5 301.5,-449.5 410.5,-449.5 410.5,-430.5 301.5,-430.5"/>
<text text-anchor="middle" x="356" y="-437.5" font-family="Helvetica,sans-Serif" font-size="10.00">CheckpointProcess</text>
</a>
</g>
</g>
<!-- Node30&#45;&gt;Node31 -->
<g id="edge19" class="edge">
<title>Node30&#45;&gt;Node31</title>
<path fill="none" stroke="midnightblue" d="M222.21,-503.07C227.56,-501.14 232.94,-499.09 238,-497 273.92,-482.17 314.39,-461.54 337.08,-449.59"/>
<polygon fill="midnightblue" stroke="midnightblue" points="220.98,-499.8 212.71,-506.41 223.3,-506.4 220.98,-499.8"/>
</g>
<!-- Node42 -->
<g id="node21" class="node">
<title>Node42</title>
<g id="a_node21"><a xlink:title=" ">
<polygon fill="white" stroke="#bfbfbf" points="154.5,-430.5 154.5,-449.5 208.5,-449.5 208.5,-430.5 154.5,-430.5"/>
<text text-anchor="middle" x="181.5" y="-437.5" font-family="Helvetica,sans-Serif" font-size="10.00">Process</text>
</a>
</g>
</g>
<!-- Node42&#45;&gt;Node31 -->
<g id="edge21" class="edge">
<title>Node42&#45;&gt;Node31</title>
<path fill="none" stroke="midnightblue" d="M218.77,-440C242.72,-440 274.52,-440 301.37,-440"/>
<polygon fill="midnightblue" stroke="midnightblue" points="218.7,-436.5 208.7,-440 218.7,-443.5 218.7,-436.5"/>
</g>
<!-- Node73 -->
<g id="node22" class="node">
<title>Node73</title>
<g id="a_node22"><a xlink:title=" ">
<polygon fill="white" stroke="#bfbfbf" points="25.5,-544.5 25.5,-563.5 63.5,-563.5 63.5,-544.5 25.5,-544.5"/>
<text text-anchor="middle" x="44.5" y="-551.5" font-family="Helvetica,sans-Serif" font-size="10.00">type</text>
</a>
</g>
</g>
<!-- Node73&#45;&gt;Node3 -->
<g id="edge22" class="edge">
<title>Node73&#45;&gt;Node3</title>
<path fill="none" stroke="midnightblue" d="M73.78,-554C93.88,-554 121.07,-554 142.98,-554"/>
<polygon fill="midnightblue" stroke="midnightblue" points="73.71,-550.5 63.71,-554 73.71,-557.5 73.71,-550.5"/>
</g>
<!-- Node75 -->
<g id="node23" class="node">
<title>Node75</title>
<g id="a_node23"><a xlink:title=" ">
<polygon fill="white" stroke="#bfbfbf" points="142.5,-190.5 142.5,-209.5 220.5,-209.5 220.5,-190.5 142.5,-190.5"/>
<text text-anchor="middle" x="181.5" y="-197.5" font-family="Helvetica,sans-Serif" font-size="10.00">WRAppClass</text>
</a>
</g>
</g>
<!-- Node75&#45;&gt;Node15 -->
<g id="edge27" class="edge">
<title>Node75&#45;&gt;Node15</title>
<path fill="none" stroke="midnightblue" d="M200.06,-216.36C217.9,-232.55 246.72,-257.52 274,-276 293.74,-289.37 317.94,-302.08 334.72,-310.37"/>
<polygon fill="midnightblue" stroke="midnightblue" points="202.41,-213.77 192.68,-209.6 197.68,-218.93 202.41,-213.77"/>
</g>
<!-- Node75&#45;&gt;Node31 -->
<g id="edge29" class="edge">
<title>Node75&#45;&gt;Node31</title>
<path fill="none" stroke="midnightblue" d="M189.89,-219.18C210.18,-271.63 265.75,-413.99 274,-421 281.82,-427.64 291.53,-432.06 301.48,-434.98"/>
<polygon fill="midnightblue" stroke="midnightblue" points="193.1,-217.76 186.23,-209.7 186.57,-220.29 193.1,-217.76"/>
</g>
<!-- Node76 -->
<g id="node24" class="node">
<title>Node76</title>
<g id="a_node24"><a xlink:href="classpython__scripts_1_1async__analysis_1_1AsyncSolver_1_1AsyncSolver.html" target="_top" xlink:title="Base class for composable solvers that handle their domains asynchronously.">
<polygon fill="white" stroke="black" points="317.5,-247.5 317.5,-266.5 394.5,-266.5 394.5,-247.5 317.5,-247.5"/>
<text text-anchor="middle" x="356" y="-254.5" font-family="Helvetica,sans-Serif" font-size="10.00">AsyncSolver</text>
</a>
</g>
</g>
<!-- Node75&#45;&gt;Node76 -->
<g id="edge23" class="edge">
<title>Node75&#45;&gt;Node76</title>
<path fill="none" stroke="midnightblue" d="M212.08,-213.73C229.78,-221.58 252.87,-231.18 274,-238 287.88,-242.48 303.42,-246.38 317.15,-249.46"/>
<polygon fill="midnightblue" stroke="midnightblue" points="213.41,-210.49 202.85,-209.58 210.54,-216.87 213.41,-210.49"/>
</g>
<!-- Node80 -->
<g id="node28" class="node">
<title>Node80</title>
<g id="a_node28"><a xlink:href="classpython__scripts_1_1checkpoint_1_1Checkpoint_1_1Checkpoint.html" target="_top" xlink:title="Class representing a checkpoint, consisting of one or more consecutive Snapshot s.">
<polygon fill="white" stroke="black" points="320.5,-209.5 320.5,-228.5 391.5,-228.5 391.5,-209.5 320.5,-209.5"/>
<text text-anchor="middle" x="356" y="-216.5" font-family="Helvetica,sans-Serif" font-size="10.00">Checkpoint</text>
</a>
</g>
</g>
<!-- Node75&#45;&gt;Node80 -->
<g id="edge28" class="edge">
<title>Node75&#45;&gt;Node80</title>
<path fill="none" stroke="midnightblue" d="M230.92,-205.33C259.38,-208.47 294.67,-212.36 320.34,-215.18"/>
<polygon fill="midnightblue" stroke="midnightblue" points="231.11,-201.83 220.78,-204.22 230.34,-208.79 231.11,-201.83"/>
</g>
<!-- Node81 -->
<g id="node29" class="node">
<title>Node81</title>
<g id="a_node29"><a xlink:href="classpython__scripts_1_1checkpoint_1_1CheckpointProcess_1_1CheckpointSelector.html" target="_top" xlink:title="A functor taking a Model and returning a CheckpointID to load or None.">
<polygon fill="white" stroke="black" points="300.5,-171.5 300.5,-190.5 411.5,-190.5 411.5,-171.5 300.5,-171.5"/>
<text text-anchor="middle" x="356" y="-178.5" font-family="Helvetica,sans-Serif" font-size="10.00">CheckpointSelector</text>
</a>
</g>
</g>
<!-- Node75&#45;&gt;Node81 -->
<g id="edge30" class="edge">
<title>Node75&#45;&gt;Node81</title>
<path fill="none" stroke="midnightblue" d="M230.75,-194.69C252.42,-192.3 278.1,-189.47 300.46,-187.01"/>
<polygon fill="midnightblue" stroke="midnightblue" points="230.34,-191.21 220.78,-195.78 231.11,-198.17 230.34,-191.21"/>
</g>
<!-- Node83 -->
<g id="node31" class="node">
<title>Node83</title>
<g id="a_node31"><a xlink:href="classpython__scripts_1_1checkpoint_1_1Snapshot_1_1Snapshot.html" target="_top" xlink:title="Class representing a snapshot of a ModelPart state.">
<polygon fill="white" stroke="black" points="325,-133.5 325,-152.5 387,-152.5 387,-133.5 325,-133.5"/>
<text text-anchor="middle" x="356" y="-140.5" font-family="Helvetica,sans-Serif" font-size="10.00">Snapshot</text>
</a>
</g>
</g>
<!-- Node75&#45;&gt;Node83 -->
<g id="edge32" class="edge">
<title>Node75&#45;&gt;Node83</title>
<path fill="none" stroke="midnightblue" d="M212.08,-186.27C229.78,-178.42 252.87,-168.82 274,-162 290.5,-156.68 309.33,-152.17 324.68,-148.88"/>
<polygon fill="midnightblue" stroke="midnightblue" points="210.54,-183.13 202.85,-190.42 213.41,-189.51 210.54,-183.13"/>
</g>
<!-- Node87 -->
<g id="node35" class="node">
<title>Node87</title>
<g id="a_node35"><a xlink:href="classpython__scripts_1_1checkpoint_1_1Snapshot_1_1SnapshotPredicate.html" target="_top" xlink:title="Base class for a predicate that takes a CheckpointID.">
<polygon fill="white" stroke="black" points="302.5,-76.5 302.5,-95.5 409.5,-95.5 409.5,-76.5 302.5,-76.5"/>
<text text-anchor="middle" x="356" y="-83.5" font-family="Helvetica,sans-Serif" font-size="10.00">SnapshotPredicate</text>
</a>
</g>
</g>
<!-- Node75&#45;&gt;Node87 -->
<g id="edge36" class="edge">
<title>Node75&#45;&gt;Node87</title>
<path fill="none" stroke="midnightblue" d="M199.54,-183.56C217.19,-167.11 246.04,-141.76 274,-124 291.96,-112.59 313.9,-102.51 330.41,-95.6"/>
<polygon fill="midnightblue" stroke="midnightblue" points="197.13,-181.02 192.27,-190.43 201.94,-186.11 197.13,-181.02"/>
</g>
<!-- Node89 -->
<g id="node37" class="node">
<title>Node89</title>
<g id="a_node37"><a xlink:href="classpython__scripts_1_1checkpoint_1_1SnapshotIO_1_1SnapshotIO.html" target="_top" xlink:title="Interface for performing Snapshot input/output operations.">
<polygon fill="white" stroke="black" points="320,-38.5 320,-57.5 392,-57.5 392,-38.5 320,-38.5"/>
<text text-anchor="middle" x="356" y="-45.5" font-family="Helvetica,sans-Serif" font-size="10.00">SnapshotIO</text>
</a>
</g>
</g>
<!-- Node75&#45;&gt;Node89 -->
<g id="edge38" class="edge">
<title>Node75&#45;&gt;Node89</title>
<path fill="none" stroke="midnightblue" d="M190.15,-181.01C202.94,-151.75 231.54,-96 274,-67 287.36,-57.87 304.53,-53.1 319.63,-50.61"/>
<polygon fill="midnightblue" stroke="midnightblue" points="186.81,-179.91 186.15,-190.49 193.26,-182.63 186.81,-179.91"/>
</g>
<!-- Node77 -->
<g id="node25" class="node">
<title>Node77</title>
<g id="a_node25"><a xlink:href="classpython__scripts_1_1async__analysis_1_1CoupledAsyncSolver_1_1CoupledAsyncSolver.html" target="_top" xlink:title="AsyncSolver with coupling directives from CoSimulationApplication.">
<polygon fill="white" stroke="black" points="499.5,-285.5 499.5,-304.5 615.5,-304.5 615.5,-285.5 499.5,-285.5"/>
<text text-anchor="middle" x="557.5" y="-292.5" font-family="Helvetica,sans-Serif" font-size="10.00">CoupledAsyncSolver</text>
</a>
</g>
</g>
<!-- Node76&#45;&gt;Node77 -->
<g id="edge24" class="edge">
<title>Node76&#45;&gt;Node77</title>
<path fill="none" stroke="midnightblue" d="M404.56,-266.06C435.26,-271.91 475.13,-279.5 506.33,-285.44"/>
<polygon fill="midnightblue" stroke="midnightblue" points="405,-262.58 394.52,-264.15 403.69,-269.46 405,-262.58"/>
</g>
<!-- Node78 -->
<g id="node26" class="node">
<title>Node78</title>
<g id="a_node26"><a xlink:href="classpython__scripts_1_1async__analysis_1_1WrappedAnalysis_1_1WrappedAnalysis.html" target="_top" xlink:title="Integrate a KratosMultiphysics.AnalysisStage into AsyncSolver._Synchronize.">
<polygon fill="white" stroke="black" points="507,-247.5 507,-266.5 608,-266.5 608,-247.5 507,-247.5"/>
<text text-anchor="middle" x="557.5" y="-254.5" font-family="Helvetica,sans-Serif" font-size="10.00">WrappedAnalysis</text>
</a>
</g>
</g>
<!-- Node76&#45;&gt;Node78 -->
<g id="edge25" class="edge">
<title>Node76&#45;&gt;Node78</title>
<path fill="none" stroke="midnightblue" d="M404.59,-257C435.41,-257 475.46,-257 506.71,-257"/>
<polygon fill="midnightblue" stroke="midnightblue" points="404.52,-253.5 394.52,-257 404.52,-260.5 404.52,-253.5"/>
</g>
<!-- Node79 -->
<g id="node27" class="node">
<title>Node79</title>
<g id="a_node27"><a xlink:href="classpython__scripts_1_1async__analysis_1_1WrappedSolver_1_1WrappedSolver.html" target="_top" xlink:title="Specialization of AsyncSolver for wrapping a PythonSolver.">
<polygon fill="white" stroke="black" points="512,-209.5 512,-228.5 603,-228.5 603,-209.5 512,-209.5"/>
<text text-anchor="middle" x="557.5" y="-216.5" font-family="Helvetica,sans-Serif" font-size="10.00">WrappedSolver</text>
</a>
</g>
</g>
<!-- Node76&#45;&gt;Node79 -->
<g id="edge26" class="edge">
<title>Node76&#45;&gt;Node79</title>
<path fill="none" stroke="midnightblue" d="M404.69,-247.92C437.21,-241.72 479.97,-233.58 511.82,-227.51"/>
<polygon fill="midnightblue" stroke="midnightblue" points="403.69,-244.54 394.52,-249.85 405,-251.42 403.69,-244.54"/>
</g>
<!-- Node82 -->
<g id="node30" class="node">
<title>Node82</title>
<g id="a_node30"><a xlink:href="classpython__scripts_1_1checkpoint_1_1CheckpointProcess_1_1DefaultCheckpointSelector.html" target="_top" xlink:title="Always returns None, i.e.">
<polygon fill="white" stroke="black" points="484,-171.5 484,-190.5 631,-190.5 631,-171.5 484,-171.5"/>
<text text-anchor="middle" x="557.5" y="-178.5" font-family="Helvetica,sans-Serif" font-size="10.00">DefaultCheckpointSelector</text>
</a>
</g>
</g>
<!-- Node81&#45;&gt;Node82 -->
<g id="edge31" class="edge">
<title>Node81&#45;&gt;Node82</title>
<path fill="none" stroke="midnightblue" d="M421.66,-181C441.47,-181 463.4,-181 483.72,-181"/>
<polygon fill="midnightblue" stroke="midnightblue" points="421.51,-177.5 411.51,-181 421.51,-184.5 421.51,-177.5"/>
</g>
<!-- Node84 -->
<g id="node32" class="node">
<title>Node84</title>
<g id="a_node32"><a xlink:href="classpython__scripts_1_1checkpoint_1_1Snapshot_1_1SnapshotFS.html" target="_top" xlink:title="Class representing a snapshot of a ModelPart state and its associated output file on the filesystem.">
<polygon fill="white" stroke="black" points="521,-133.5 521,-152.5 594,-152.5 594,-133.5 521,-133.5"/>
<text text-anchor="middle" x="557.5" y="-140.5" font-family="Helvetica,sans-Serif" font-size="10.00">SnapshotFS</text>
</a>
</g>
</g>
<!-- Node83&#45;&gt;Node84 -->
<g id="edge33" class="edge">
<title>Node83&#45;&gt;Node84</title>
<path fill="none" stroke="midnightblue" d="M397.51,-143C433.7,-143 486.22,-143 520.85,-143"/>
<polygon fill="midnightblue" stroke="midnightblue" points="397.3,-139.5 387.3,-143 397.3,-146.5 397.3,-139.5"/>
</g>
<!-- Node86 -->
<g id="node34" class="node">
<title>Node86</title>
<g id="a_node34"><a xlink:href="classpython__scripts_1_1checkpoint_1_1Snapshot_1_1SnapshotInMemory.html" target="_top" xlink:title="Class representing a snapshot of a ModelPart state in memory (stores a deep copy of the model part).">
<polygon fill="white" stroke="black" points="502,-95.5 502,-114.5 613,-114.5 613,-95.5 502,-95.5"/>
<text text-anchor="middle" x="557.5" y="-102.5" font-family="Helvetica,sans-Serif" font-size="10.00">SnapshotInMemory</text>
</a>
</g>
</g>
<!-- Node83&#45;&gt;Node86 -->
<g id="edge35" class="edge">
<title>Node83&#45;&gt;Node86</title>
<path fill="none" stroke="midnightblue" d="M397.47,-135.29C428.95,-129.29 472.8,-120.94 506.48,-114.53"/>
<polygon fill="midnightblue" stroke="midnightblue" points="396.47,-131.92 387.3,-137.23 397.78,-138.8 396.47,-131.92"/>
</g>
<!-- Node85 -->
<g id="node33" class="node">
<title>Node85</title>
<g id="a_node33"><a xlink:href="classpython__scripts_1_1checkpoint_1_1HDF5Snapshot_1_1HDF5Snapshot.html" target="_top" xlink:title="Class representing a snapshot of a ModelPart state and its associated output file in HDF5 format.">
<polygon fill="white" stroke="black" points="721.5,-133.5 721.5,-152.5 810.5,-152.5 810.5,-133.5 721.5,-133.5"/>
<text text-anchor="middle" x="766" y="-140.5" font-family="Helvetica,sans-Serif" font-size="10.00">HDF5Snapshot</text>
</a>
</g>
</g>
<!-- Node84&#45;&gt;Node85 -->
<g id="edge34" class="edge">
<title>Node84&#45;&gt;Node85</title>
<path fill="none" stroke="midnightblue" d="M604.84,-143C639.65,-143 687.02,-143 721.2,-143"/>
<polygon fill="midnightblue" stroke="midnightblue" points="604.47,-139.5 594.47,-143 604.47,-146.5 604.47,-139.5"/>
</g>
<!-- Node88 -->
<g id="node36" class="node">
<title>Node88</title>
<g id="a_node36"><a xlink:href="classpython__scripts_1_1checkpoint_1_1Snapshot_1_1NeverEraseSnapshots.html" target="_top" xlink:title="Always returns false.">
<polygon fill="white" stroke="black" points="496,-57.5 496,-76.5 619,-76.5 619,-57.5 496,-57.5"/>
<text text-anchor="middle" x="557.5" y="-64.5" font-family="Helvetica,sans-Serif" font-size="10.00">NeverEraseSnapshots</text>
</a>
</g>
</g>
<!-- Node87&#45;&gt;Node88 -->
<g id="edge37" class="edge">
<title>Node87&#45;&gt;Node88</title>
<path fill="none" stroke="midnightblue" d="M419.84,-80.02C444.08,-77.71 471.71,-75.08 495.75,-72.79"/>
<polygon fill="midnightblue" stroke="midnightblue" points="419.3,-76.55 409.68,-80.98 419.96,-83.52 419.3,-76.55"/>
</g>
<!-- Node90 -->
<g id="node38" class="node">
<title>Node90</title>
<g id="a_node38"><a xlink:href="classpython__scripts_1_1checkpoint_1_1SnapshotIO_1_1SnapshotFSIO.html" target="_top" xlink:title="Base class for Snapshot s that store their data on the filesystem.">
<polygon fill="white" stroke="black" points="516,-19.5 516,-38.5 599,-38.5 599,-19.5 516,-19.5"/>
<text text-anchor="middle" x="557.5" y="-26.5" font-family="Helvetica,sans-Serif" font-size="10.00">SnapshotFSIO</text>
</a>
</g>
</g>
<!-- Node89&#45;&gt;Node90 -->
<g id="edge39" class="edge">
<title>Node89&#45;&gt;Node90</title>
<path fill="none" stroke="midnightblue" d="M402.38,-43.68C436.51,-40.43 482.86,-36.01 515.8,-32.88"/>
<polygon fill="midnightblue" stroke="midnightblue" points="401.83,-40.21 392.21,-44.65 402.49,-47.18 401.83,-40.21"/>
</g>
<!-- Node91 -->
<g id="node39" class="node">
<title>Node91</title>
<g id="a_node39"><a xlink:href="classpython__scripts_1_1checkpoint_1_1HDF5SnapshotIO_1_1HDF5SnapshotIO.html" target="_top" xlink:title="Base class with common functionality to writing/loading snapshots to/from disk.">
<polygon fill="white" stroke="black" points="716.5,-19.5 716.5,-38.5 815.5,-38.5 815.5,-19.5 716.5,-19.5"/>
<text text-anchor="middle" x="766" y="-26.5" font-family="Helvetica,sans-Serif" font-size="10.00">HDF5SnapshotIO</text>
</a>
</g>
</g>
<!-- Node90&#45;&gt;Node91 -->
<g id="edge40" class="edge">
<title>Node90&#45;&gt;Node91</title>
<path fill="none" stroke="midnightblue" d="M609.53,-29C642.13,-29 684.16,-29 716.3,-29"/>
<polygon fill="midnightblue" stroke="midnightblue" points="609.3,-25.5 599.3,-29 609.3,-32.5 609.3,-25.5"/>
</g>
<!-- Node92 -->
<g id="node40" class="node">
<title>Node92</title>
<g id="a_node40"><a xlink:href="classpython__scripts_1_1checkpoint_1_1HDF5SnapshotIO_1_1HDF5SnapshotInput.html" target="_top" xlink:title="Input class for reading most data from an HDF5 snapshot to a model part.">
<polygon fill="white" stroke="black" points="895.5,-38.5 895.5,-57.5 1008.5,-57.5 1008.5,-38.5 895.5,-38.5"/>
<text text-anchor="middle" x="952" y="-45.5" font-family="Helvetica,sans-Serif" font-size="10.00">HDF5SnapshotInput</text>
</a>
</g>
</g>
<!-- Node91&#45;&gt;Node92 -->
<g id="edge41" class="edge">
<title>Node91&#45;&gt;Node92</title>
<path fill="none" stroke="midnightblue" d="M825.84,-35.08C848.14,-37.38 873.45,-39.99 895.44,-42.26"/>
<polygon fill="midnightblue" stroke="midnightblue" points="826.13,-31.59 815.83,-34.04 825.41,-38.55 826.13,-31.59"/>
</g>
<!-- Node93 -->
<g id="node41" class="node">
<title>Node93</title>
<g id="a_node41"><a xlink:href="classpython__scripts_1_1checkpoint_1_1HDF5SnapshotIO_1_1HDF5SnapshotOutput.html" target="_top" xlink:title="Output class for writing most data in the model part to an HDF5 snapshot.">
<polygon fill="white" stroke="black" points="891,-0.5 891,-19.5 1013,-19.5 1013,-0.5 891,-0.5"/>
<text text-anchor="middle" x="952" y="-7.5" font-family="Helvetica,sans-Serif" font-size="10.00">HDF5SnapshotOutput</text>
</a>
</g>
</g>
<!-- Node91&#45;&gt;Node93 -->
<g id="edge42" class="edge">
<title>Node91&#45;&gt;Node93</title>
<path fill="none" stroke="midnightblue" d="M825.78,-22.93C846.53,-20.79 869.89,-18.38 890.76,-16.22"/>
<polygon fill="midnightblue" stroke="midnightblue" points="825.41,-19.45 815.83,-23.96 826.13,-26.41 825.41,-19.45"/>
</g>
<!-- Node94 -->
<g id="node42" class="node">
<title>Node94</title>
<g id="a_node42"><a xlink:title=" ">
<polygon fill="white" stroke="#bfbfbf" points="143,-392.5 143,-411.5 220,-411.5 220,-392.5 143,-392.5"/>
<text text-anchor="middle" x="181.5" y="-399.5" font-family="Helvetica,sans-Serif" font-size="10.00">WRAppMeta</text>
</a>
</g>
</g>
<!-- Node94&#45;&gt;Node31 -->
<g id="edge43" class="edge">
<title>Node94&#45;&gt;Node31</title>
<path fill="none" stroke="midnightblue" d="M230.2,-412.51C255.73,-418.13 286.94,-425.01 311.76,-430.48"/>
<polygon fill="midnightblue" stroke="midnightblue" points="230.87,-409.07 220.36,-410.34 229.37,-415.91 230.87,-409.07"/>
</g>
</g>
</svg>
