<?xml version="1.0" encoding="UTF-8" standalone="no"?>
<!DOCTYPE svg PUBLIC "-//W3C//DTD SVG 1.1//EN"
 "http://www.w3.org/Graphics/SVG/1.1/DTD/svg11.dtd">
<!-- Generated by graphviz version 2.43.0 (0)
 -->
<!-- Title: Graphical Class Hierarchy Pages: 1 -->
<svg width="199pt" height="180pt"
 viewBox="0.00 0.00 199.00 180.00" xmlns="http://www.w3.org/2000/svg" xmlns:xlink="http://www.w3.org/1999/xlink">
<g id="graph0" class="graph" transform="scale(1 1) rotate(0) translate(4 176)">
<title>Graphical Class Hierarchy</title>
<polygon fill="white" stroke="transparent" points="-4,4 -4,-176 195,-176 195,4 -4,4"/>
<!-- Node165 -->
<g id="node1" class="node">
<title>Node165</title>
<g id="a_node1"><a xlink:title=" ">
<polygon fill="white" stroke="#bfbfbf" points="0,-76.5 0,-95.5 44,-95.5 44,-76.5 0,-76.5"/>
<text text-anchor="middle" x="22" y="-83.5" font-family="Helvetica,sans-Serif" font-size="10.00">Enum</text>
</a>
</g>
</g>
<!-- Node0 -->
<g id="node2" class="node">
<title>Node0</title>
<g id="a_node2"><a xlink:href="classpython__scripts_1_1xdmf_1_1Attribute_1_1Attribute_1_1Center.html" target="_top" xlink:title=" ">
<polygon fill="white" stroke="black" points="88,-152.5 88,-171.5 183,-171.5 183,-152.5 88,-152.5"/>
<text text-anchor="middle" x="135.5" y="-159.5" font-family="Helvetica,sans-Serif" font-size="10.00">Attribute.Center</text>
</a>
</g>
</g>
<!-- Node165&#45;&gt;Node0 -->
<g id="edge1" class="edge">
<title>Node165&#45;&gt;Node0</title>
<path fill="none" stroke="midnightblue" d="M36.97,-103.72C47.61,-116.2 63.24,-132.48 80,-143 86.03,-146.78 92.9,-149.93 99.69,-152.5"/>
<polygon fill="midnightblue" stroke="midnightblue" points="39.51,-101.3 30.45,-95.81 34.11,-105.76 39.51,-101.3"/>
</g>
<!-- Node167 -->
<g id="node3" class="node">
<title>Node167</title>
<g id="a_node3"><a xlink:href="classpython__scripts_1_1xdmf_1_1Geometry_1_1Geometry_1_1Type.html" target="_top" xlink:title=" ">
<polygon fill="white" stroke="black" points="91,-114.5 91,-133.5 180,-133.5 180,-114.5 91,-114.5"/>
<text text-anchor="middle" x="135.5" y="-121.5" font-family="Helvetica,sans-Serif" font-size="10.00">Geometry.Type</text>
</a>
</g>
</g>
<!-- Node165&#45;&gt;Node167 -->
<g id="edge2" class="edge">
<title>Node165&#45;&gt;Node167</title>
<path fill="none" stroke="midnightblue" d="M53.97,-96.55C70.46,-102.17 90.59,-109.03 106.59,-114.49"/>
<polygon fill="midnightblue" stroke="midnightblue" points="54.83,-93.15 44.23,-93.24 52.57,-99.78 54.83,-93.15"/>
</g>
<!-- Node168 -->
<g id="node4" class="node">
<title>Node168</title>
<g id="a_node4"><a xlink:href="classpython__scripts_1_1xdmf_1_1Grid_1_1GridCollection_1_1Type.html" target="_top" xlink:title=" ">
<polygon fill="white" stroke="black" points="80,-76.5 80,-95.5 191,-95.5 191,-76.5 80,-76.5"/>
<text text-anchor="middle" x="135.5" y="-83.5" font-family="Helvetica,sans-Serif" font-size="10.00">GridCollection.Type</text>
</a>
</g>
</g>
<!-- Node165&#45;&gt;Node168 -->
<g id="edge3" class="edge">
<title>Node165&#45;&gt;Node168</title>
<path fill="none" stroke="midnightblue" d="M54.5,-86C62.46,-86 71.24,-86 79.98,-86"/>
<polygon fill="midnightblue" stroke="midnightblue" points="54.23,-82.5 44.23,-86 54.23,-89.5 54.23,-82.5"/>
</g>
<!-- Node169 -->
<g id="node5" class="node">
<title>Node169</title>
<g id="a_node5"><a xlink:href="classpython__scripts_1_1xdmf_1_1Topology_1_1Topology_1_1Type.html" target="_top" xlink:title=" ">
<polygon fill="white" stroke="black" points="93.5,-38.5 93.5,-57.5 177.5,-57.5 177.5,-38.5 93.5,-38.5"/>
<text text-anchor="middle" x="135.5" y="-45.5" font-family="Helvetica,sans-Serif" font-size="10.00">Topology.Type</text>
</a>
</g>
</g>
<!-- Node165&#45;&gt;Node169 -->
<g id="edge4" class="edge">
<title>Node165&#45;&gt;Node169</title>
<path fill="none" stroke="midnightblue" d="M53.97,-75.45C70.46,-69.83 90.59,-62.97 106.59,-57.51"/>
<polygon fill="midnightblue" stroke="midnightblue" points="52.57,-72.22 44.23,-78.76 54.83,-78.85 52.57,-72.22"/>
</g>
<!-- Node170 -->
<g id="node6" class="node">
<title>Node170</title>
<g id="a_node6"><a xlink:href="classpython__scripts_1_1xdmf_1_1kratos__interface_1_1SubgroupNaming.html" target="_top" xlink:title=" ">
<polygon fill="white" stroke="black" points="85,-0.5 85,-19.5 186,-19.5 186,-0.5 85,-0.5"/>
<text text-anchor="middle" x="135.5" y="-7.5" font-family="Helvetica,sans-Serif" font-size="10.00">SubgroupNaming</text>
</a>
</g>
</g>
<!-- Node165&#45;&gt;Node170 -->
<g id="edge5" class="edge">
<title>Node165&#45;&gt;Node170</title>
<path fill="none" stroke="midnightblue" d="M36.97,-68.28C47.61,-55.8 63.24,-39.52 80,-29 86.03,-25.22 92.9,-22.07 99.69,-19.5"/>
<polygon fill="midnightblue" stroke="midnightblue" points="34.11,-66.24 30.45,-76.19 39.51,-70.7 34.11,-66.24"/>
</g>
</g>
</svg>
