<?xml version="1.0" encoding="UTF-8" standalone="no"?>
<!DOCTYPE svg PUBLIC "-//W3C//DTD SVG 1.1//EN"
 "http://www.w3.org/Graphics/SVG/1.1/DTD/svg11.dtd">
<!-- Generated by graphviz version 2.43.0 (0)
 -->
<!-- Title: Graphical Class Hierarchy Pages: 1 -->
<svg width="479pt" height="137pt"
 viewBox="0.00 0.00 479.00 137.00" xmlns="http://www.w3.org/2000/svg" xmlns:xlink="http://www.w3.org/1999/xlink">
<g id="graph0" class="graph" transform="scale(1 1) rotate(0) translate(4 133)">
<title>Graphical Class Hierarchy</title>
<polygon fill="white" stroke="transparent" points="-4,4 -4,-133 475,-133 475,4 -4,4"/>
<!-- Node0 -->
<g id="node1" class="node">
<title>Node0</title>
<g id="a_node1"><a xlink:href="structKratos_1_1Pipes_1_1Traits.html" target="_top" xlink:title=" ">
<polygon fill="white" stroke="black" points="0,-49.5 0,-79.5 140,-79.5 140,-49.5 0,-49.5"/>
<text text-anchor="start" x="8" y="-67.5" font-family="Helvetica,sans-Serif" font-size="10.00">Traits&lt; const ProcessInfo</text>
<text text-anchor="middle" x="70" y="-56.5" font-family="Helvetica,sans-Serif" font-size="10.00"> &amp;, TVariable::Type &gt;</text>
</a>
</g>
</g>
<!-- Node1 -->
<g id="node2" class="node">
<title>Node1</title>
<g id="a_node2"><a xlink:href="classKratos_1_1Pipes_1_1VariableFromProcessInfo.html" target="_top" xlink:title=" ">
<polygon fill="white" stroke="black" points="176,-98.5 176,-128.5 313,-128.5 313,-98.5 176,-98.5"/>
<text text-anchor="start" x="184" y="-116.5" font-family="Helvetica,sans-Serif" font-size="10.00">VariableFromProcessInfo</text>
<text text-anchor="middle" x="244.5" y="-105.5" font-family="Helvetica,sans-Serif" font-size="10.00">&lt; decltype(TIME)&gt;</text>
</a>
</g>
</g>
<!-- Node0&#45;&gt;Node1 -->
<g id="edge1" class="edge">
<title>Node0&#45;&gt;Node1</title>
<path fill="none" stroke="midnightblue" d="M133.99,-82.39C152.55,-87.66 172.65,-93.38 190.51,-98.45"/>
<polygon fill="midnightblue" stroke="midnightblue" points="134.74,-78.97 124.16,-79.6 132.83,-85.7 134.74,-78.97"/>
</g>
<!-- Node3 -->
<g id="node4" class="node">
<title>Node3</title>
<g id="a_node4"><a xlink:href="classKratos_1_1Pipes_1_1VariableFromProcessInfo.html" target="_top" xlink:title=" ">
<polygon fill="white" stroke="black" points="176,-49.5 176,-79.5 313,-79.5 313,-49.5 176,-49.5"/>
<text text-anchor="start" x="184" y="-67.5" font-family="Helvetica,sans-Serif" font-size="10.00">VariableFromProcessInfo</text>
<text text-anchor="middle" x="244.5" y="-56.5" font-family="Helvetica,sans-Serif" font-size="10.00">&lt; decltype(STEP)&gt;</text>
</a>
</g>
</g>
<!-- Node0&#45;&gt;Node3 -->
<g id="edge3" class="edge">
<title>Node0&#45;&gt;Node3</title>
<path fill="none" stroke="midnightblue" d="M150.42,-64.5C158.87,-64.5 167.42,-64.5 175.72,-64.5"/>
<polygon fill="midnightblue" stroke="midnightblue" points="150.17,-61 140.17,-64.5 150.17,-68 150.17,-61"/>
</g>
<!-- Node5 -->
<g id="node6" class="node">
<title>Node5</title>
<g id="a_node6"><a xlink:href="classKratos_1_1Pipes_1_1VariableFromProcessInfo.html" target="_top" xlink:title="Get a variable from ProcessInfo.">
<polygon fill="white" stroke="black" points="176,-0.5 176,-30.5 313,-30.5 313,-0.5 176,-0.5"/>
<text text-anchor="start" x="184" y="-18.5" font-family="Helvetica,sans-Serif" font-size="10.00">VariableFromProcessInfo</text>
<text text-anchor="middle" x="244.5" y="-7.5" font-family="Helvetica,sans-Serif" font-size="10.00">&lt; TVariable &gt;</text>
</a>
</g>
</g>
<!-- Node0&#45;&gt;Node5 -->
<g id="edge5" class="edge">
<title>Node0&#45;&gt;Node5</title>
<path fill="none" stroke="midnightblue" d="M133.99,-46.61C152.55,-41.34 172.65,-35.62 190.51,-30.55"/>
<polygon fill="midnightblue" stroke="midnightblue" points="132.83,-43.3 124.16,-49.4 134.74,-50.03 132.83,-43.3"/>
</g>
<!-- Node2 -->
<g id="node3" class="node">
<title>Node2</title>
<g id="a_node3"><a xlink:href="structKratos_1_1Pipes_1_1TimeFromProcessInfo.html" target="_top" xlink:title="Get TIME from a ProcessInfo.">
<polygon fill="white" stroke="black" points="349,-104 349,-123 471,-123 471,-104 349,-104"/>
<text text-anchor="middle" x="410" y="-111" font-family="Helvetica,sans-Serif" font-size="10.00">TimeFromProcessInfo</text>
</a>
</g>
</g>
<!-- Node1&#45;&gt;Node2 -->
<g id="edge2" class="edge">
<title>Node1&#45;&gt;Node2</title>
<path fill="none" stroke="midnightblue" d="M323.69,-113.5C332.15,-113.5 340.66,-113.5 348.86,-113.5"/>
<polygon fill="midnightblue" stroke="midnightblue" points="323.42,-110 313.42,-113.5 323.42,-117 323.42,-110"/>
</g>
<!-- Node4 -->
<g id="node5" class="node">
<title>Node4</title>
<g id="a_node5"><a xlink:href="structKratos_1_1Pipes_1_1StepFromProcessInfo.html" target="_top" xlink:title="Get STEP from a ProcessInfo.">
<polygon fill="white" stroke="black" points="350.5,-55 350.5,-74 469.5,-74 469.5,-55 350.5,-55"/>
<text text-anchor="middle" x="410" y="-62" font-family="Helvetica,sans-Serif" font-size="10.00">StepFromProcessInfo</text>
</a>
</g>
</g>
<!-- Node3&#45;&gt;Node4 -->
<g id="edge4" class="edge">
<title>Node3&#45;&gt;Node4</title>
<path fill="none" stroke="midnightblue" d="M323.57,-64.5C332.6,-64.5 341.69,-64.5 350.4,-64.5"/>
<polygon fill="midnightblue" stroke="midnightblue" points="323.42,-61 313.42,-64.5 323.42,-68 323.42,-61"/>
</g>
</g>
</svg>
