<?xml version="1.0" encoding="UTF-8" standalone="no"?>
<!DOCTYPE svg PUBLIC "-//W3C//DTD SVG 1.1//EN"
 "http://www.w3.org/Graphics/SVG/1.1/DTD/svg11.dtd">
<!-- Generated by graphviz version 2.43.0 (0)
 -->
<!-- Title: Graphical Class Hierarchy Pages: 1 -->
<svg width="199pt" height="175pt"
 viewBox="0.00 0.00 199.00 175.00" xmlns="http://www.w3.org/2000/svg" xmlns:xlink="http://www.w3.org/1999/xlink">
<g id="graph0" class="graph" transform="scale(1 1) rotate(0) translate(4 171)">
<title>Graphical Class Hierarchy</title>
<!-- Node0 -->
<g id="Node000000" class="node">
<title>Node0</title>
<g id="a_Node000000"><a xlink:title=" ">
<polygon fill="#e0e0e0" stroke="#999999" points="44,-93 0,-93 0,-74 44,-74 44,-93"/>
<text text-anchor="middle" x="22" y="-81" font-family="Helvetica,sans-Serif" font-size="10.00">Enum</text>
</a>
</g>
</g>
<!-- Node1 -->
<g id="Node000001" class="node">
<title>Node1</title>
<g id="a_Node000001"><a xlink:href="classpython__scripts_1_1xdmf_1_1Attribute_1_1Attribute_1_1Center.html" target="_top" xlink:title=" ">
<polygon fill="white" stroke="#666666" points="183,-167 88,-167 88,-148 183,-148 183,-167"/>
<text text-anchor="middle" x="135.5" y="-155" font-family="Helvetica,sans-Serif" font-size="10.00">Attribute.Center</text>
</a>
</g>
</g>
<!-- Node0&#45;&gt;Node1 -->
<g id="edge73_Node000000_Node000001" class="edge">
<title>Node0&#45;&gt;Node1</title>
<g id="a_edge73_Node000000_Node000001"><a xlink:title=" ">
<path fill="none" stroke="#63b8ff" d="M36.98,-100.98C47.62,-113.27 63.26,-129.29 80,-139.5 85.44,-142.82 91.57,-145.61 97.7,-147.92"/>
<polygon fill="#63b8ff" stroke="#63b8ff" points="39.56,-98.61 30.46,-93.19 34.19,-103.1 39.56,-98.61"/>
</a>
</g>
</g>
<!-- Node2 -->
<g id="Node000002" class="node">
<title>Node2</title>
<g id="a_Node000002"><a xlink:href="classpython__scripts_1_1xdmf_1_1Geometry_1_1Geometry_1_1Type.html" target="_top" xlink:title=" ">
<polygon fill="white" stroke="#666666" points="180,-130 91,-130 91,-111 180,-111 180,-130"/>
<text text-anchor="middle" x="135.5" y="-118" font-family="Helvetica,sans-Serif" font-size="10.00">Geometry.Type</text>
</a>
</g>
</g>
<!-- Node0&#45;&gt;Node2 -->
<g id="edge74_Node000000_Node000002" class="edge">
<title>Node0&#45;&gt;Node2</title>
<g id="a_edge74_Node000000_Node000002"><a xlink:title=" ">
<path fill="none" stroke="#63b8ff" d="M53.69,-93.75C62.21,-96.59 71.46,-99.67 80,-102.5 88.32,-105.26 97.36,-108.25 105.65,-110.99"/>
<polygon fill="#63b8ff" stroke="#63b8ff" points="54.7,-90.4 44.11,-90.55 52.49,-97.04 54.7,-90.4"/>
</a>
</g>
</g>
<!-- Node3 -->
<g id="Node000003" class="node">
<title>Node3</title>
<g id="a_Node000003"><a xlink:href="classpython__scripts_1_1xdmf_1_1Grid_1_1GridCollection_1_1Type.html" target="_top" xlink:title=" ">
<polygon fill="white" stroke="#666666" points="191,-93 80,-93 80,-74 191,-74 191,-93"/>
<text text-anchor="middle" x="135.5" y="-81" font-family="Helvetica,sans-Serif" font-size="10.00">GridCollection.Type</text>
</a>
</g>
</g>
<!-- Node0&#45;&gt;Node3 -->
<g id="edge75_Node000000_Node000003" class="edge">
<title>Node0&#45;&gt;Node3</title>
<g id="a_edge75_Node000000_Node000003"><a xlink:title=" ">
<path fill="none" stroke="#63b8ff" d="M54.5,-83.5C62.46,-83.5 71.24,-83.5 79.98,-83.5"/>
<polygon fill="#63b8ff" stroke="#63b8ff" points="54.23,-80 44.23,-83.5 54.23,-87 54.23,-80"/>
</a>
</g>
</g>
<!-- Node4 -->
<g id="Node000004" class="node">
<title>Node4</title>
<g id="a_Node000004"><a xlink:href="classpython__scripts_1_1xdmf_1_1Topology_1_1Topology_1_1Type.html" target="_top" xlink:title=" ">
<polygon fill="white" stroke="#666666" points="177.5,-56 93.5,-56 93.5,-37 177.5,-37 177.5,-56"/>
<text text-anchor="middle" x="135.5" y="-44" font-family="Helvetica,sans-Serif" font-size="10.00">Topology.Type</text>
</a>
</g>
</g>
<!-- Node0&#45;&gt;Node4 -->
<g id="edge76_Node000000_Node000004" class="edge">
<title>Node0&#45;&gt;Node4</title>
<g id="a_edge76_Node000000_Node000004"><a xlink:title=" ">
<path fill="none" stroke="#63b8ff" d="M53.82,-73.27C70.06,-67.89 89.84,-61.32 105.76,-56.04"/>
<polygon fill="#63b8ff" stroke="#63b8ff" points="52.62,-69.98 44.23,-76.45 54.83,-76.63 52.62,-69.98"/>
</a>
</g>
</g>
<!-- Node5 -->
<g id="Node000005" class="node">
<title>Node5</title>
<g id="a_Node000005"><a xlink:href="classpython__scripts_1_1xdmf_1_1kratos__interface_1_1SubgroupNaming.html" target="_top" xlink:title=" ">
<polygon fill="white" stroke="#666666" points="186,-19 85,-19 85,0 186,0 186,-19"/>
<text text-anchor="middle" x="135.5" y="-7" font-family="Helvetica,sans-Serif" font-size="10.00">SubgroupNaming</text>
</a>
</g>
</g>
<!-- Node0&#45;&gt;Node5 -->
<g id="edge77_Node000000_Node000005" class="edge">
<title>Node0&#45;&gt;Node5</title>
<g id="a_edge77_Node000000_Node000005"><a xlink:title=" ">
<path fill="none" stroke="#63b8ff" d="M37.46,-66.01C48.15,-54.04 63.63,-38.57 80,-28.5 86.06,-24.77 92.95,-21.65 99.74,-19.09"/>
<polygon fill="#63b8ff" stroke="#63b8ff" points="34.77,-63.77 30.88,-73.62 40.06,-68.35 34.77,-63.77"/>
</a>
</g>
</g>
</g>
</svg>
