<?xml version="1.0" encoding="UTF-8" standalone="no"?>
<!DOCTYPE svg PUBLIC "-//W3C//DTD SVG 1.1//EN"
 "http://www.w3.org/Graphics/SVG/1.1/DTD/svg11.dtd">
<!-- Generated by graphviz version 2.43.0 (0)
 -->
<!-- Title: Journal.hpp Pages: 1 -->
<svg width="994pt" height="148pt"
 viewBox="0.00 0.00 994.00 148.00" xmlns="http://www.w3.org/2000/svg" xmlns:xlink="http://www.w3.org/1999/xlink">
<g id="graph0" class="graph" transform="scale(1 1) rotate(0) translate(4 144)">
<title>Journal.hpp</title>
<!-- Node1 -->
<g id="Node000001" class="node">
<title>Node1</title>
<g id="a_Node000001"><a xlink:title=" ">
<polygon fill="#999999" stroke="#666666" points="707,-140 636,-140 636,-121 707,-121 707,-140"/>
<text text-anchor="middle" x="671.5" y="-128" font-family="Helvetica,sans-Serif" font-size="10.00">Journal.hpp</text>
</a>
</g>
</g>
<!-- Node2 -->
<g id="Node000002" class="node">
<title>Node2</title>
<g id="a_Node000002"><a xlink:href="FileContentIterator_8hpp.html" target="_top" xlink:title=" ">
<polygon fill="white" stroke="#666666" points="346.5,-85 212.5,-85 212.5,-55 346.5,-55 346.5,-85"/>
<text text-anchor="start" x="220.5" y="-73" font-family="Helvetica,sans-Serif" font-size="10.00">wrapp/io/inc/FileContent</text>
<text text-anchor="middle" x="279.5" y="-62" font-family="Helvetica,sans-Serif" font-size="10.00">Iterator.hpp</text>
</a>
</g>
</g>
<!-- Node1&#45;&gt;Node2 -->
<g id="edge1_Node000001_Node000002" class="edge">
<title>Node1&#45;&gt;Node2</title>
<g id="a_edge1_Node000001_Node000002"><a xlink:title=" ">
<path fill="none" stroke="#63b8ff" d="M635.53,-124.89C578.73,-117.5 464.55,-102.25 356.74,-84.99"/>
<polygon fill="#63b8ff" stroke="#63b8ff" points="357.09,-81.51 346.66,-83.37 355.98,-88.42 357.09,-81.51"/>
</a>
</g>
</g>
<!-- Node9 -->
<g id="Node000009" class="node">
<title>Node9</title>
<g id="a_Node000009"><a xlink:title=" ">
<polygon fill="#e0e0e0" stroke="#999999" points="526,-79.5 365,-79.5 365,-60.5 526,-60.5 526,-79.5"/>
<text text-anchor="middle" x="445.5" y="-67.5" font-family="Helvetica,sans-Serif" font-size="10.00">includes/kratos_parameters.h</text>
</a>
</g>
</g>
<!-- Node1&#45;&gt;Node9 -->
<g id="edge8_Node000001_Node000009" class="edge">
<title>Node1&#45;&gt;Node9</title>
<g id="a_edge8_Node000001_Node000009"><a xlink:title=" ">
<path fill="none" stroke="#63b8ff" d="M638.64,-120.99C598.89,-110.7 531.87,-93.36 488.17,-82.04"/>
<polygon fill="#63b8ff" stroke="#63b8ff" points="488.96,-78.63 478.4,-79.52 487.21,-85.41 488.96,-78.63"/>
</a>
</g>
</g>
<!-- Node10 -->
<g id="Node000010" class="node">
<title>Node10</title>
<g id="a_Node000010"><a xlink:title=" ">
<polygon fill="#e0e0e0" stroke="#999999" points="654.5,-79.5 544.5,-79.5 544.5,-60.5 654.5,-60.5 654.5,-79.5"/>
<text text-anchor="middle" x="599.5" y="-67.5" font-family="Helvetica,sans-Serif" font-size="10.00">containers/model.h</text>
</a>
</g>
</g>
<!-- Node1&#45;&gt;Node10 -->
<g id="edge9_Node000001_Node000010" class="edge">
<title>Node1&#45;&gt;Node10</title>
<g id="a_edge9_Node000001_Node000010"><a xlink:title=" ">
<path fill="none" stroke="#63b8ff" d="M660.88,-120.87C649.6,-111.71 631.58,-97.06 617.97,-86.01"/>
<polygon fill="#63b8ff" stroke="#63b8ff" points="620.14,-83.26 610.17,-79.67 615.72,-88.69 620.14,-83.26"/>
</a>
</g>
</g>
<!-- Node11 -->
<g id="Node000011" class="node">
<title>Node11</title>
<g id="a_Node000011"><a xlink:title=" ">
<polygon fill="#e0e0e0" stroke="#999999" points="816,-79.5 673,-79.5 673,-60.5 816,-60.5 816,-79.5"/>
<text text-anchor="middle" x="744.5" y="-67.5" font-family="Helvetica,sans-Serif" font-size="10.00">includes/smart_pointers.h</text>
</a>
</g>
</g>
<!-- Node1&#45;&gt;Node11 -->
<g id="edge10_Node000001_Node000011" class="edge">
<title>Node1&#45;&gt;Node11</title>
<g id="a_edge10_Node000001_Node000011"><a xlink:title=" ">
<path fill="none" stroke="#63b8ff" d="M682.27,-120.87C693.7,-111.71 711.98,-97.06 725.78,-86.01"/>
<polygon fill="#63b8ff" stroke="#63b8ff" points="728.07,-88.65 733.68,-79.67 723.69,-83.19 728.07,-88.65"/>
</a>
</g>
</g>
<!-- Node12 -->
<g id="Node000012" class="node">
<title>Node12</title>
<g id="a_Node000012"><a xlink:title=" ">
<polygon fill="#e0e0e0" stroke="#999999" points="902.5,-79.5 834.5,-79.5 834.5,-60.5 902.5,-60.5 902.5,-79.5"/>
<text text-anchor="middle" x="868.5" y="-67.5" font-family="Helvetica,sans-Serif" font-size="10.00">filesystem</text>
</a>
</g>
</g>
<!-- Node1&#45;&gt;Node12 -->
<g id="edge11_Node000001_Node000012" class="edge">
<title>Node1&#45;&gt;Node12</title>
<g id="a_edge11_Node000001_Node000012"><a xlink:title=" ">
<path fill="none" stroke="#63b8ff" d="M702.27,-120.94C733.42,-112.19 782.93,-98.07 825.5,-85 827.93,-84.25 830.43,-83.47 832.95,-82.68"/>
<polygon fill="#63b8ff" stroke="#63b8ff" points="834.17,-85.96 842.62,-79.58 832.03,-79.3 834.17,-85.96"/>
</a>
</g>
</g>
<!-- Node13 -->
<g id="Node000013" class="node">
<title>Node13</title>
<g id="a_Node000013"><a xlink:title=" ">
<polygon fill="#e0e0e0" stroke="#999999" points="986,-79.5 921,-79.5 921,-60.5 986,-60.5 986,-79.5"/>
<text text-anchor="middle" x="953.5" y="-67.5" font-family="Helvetica,sans-Serif" font-size="10.00">functional</text>
</a>
</g>
</g>
<!-- Node1&#45;&gt;Node13 -->
<g id="edge12_Node000001_Node000013" class="edge">
<title>Node1&#45;&gt;Node13</title>
<g id="a_edge12_Node000001_Node000013"><a xlink:title=" ">
<path fill="none" stroke="#63b8ff" d="M707.21,-124.46C754.4,-117.44 839.9,-103.48 911.5,-85 914.29,-84.28 917.17,-83.47 920.04,-82.61"/>
<polygon fill="#63b8ff" stroke="#63b8ff" points="921.2,-85.92 929.68,-79.57 919.09,-79.24 921.2,-85.92"/>
</a>
</g>
</g>
<!-- Node3 -->
<g id="Node000003" class="node">
<title>Node3</title>
<g id="a_Node000003"><a xlink:title=" ">
<polygon fill="#e0e0e0" stroke="#999999" points="125,-19 0,-19 0,0 125,0 125,-19"/>
<text text-anchor="middle" x="62.5" y="-7" font-family="Helvetica,sans-Serif" font-size="10.00">includes/lock_object.h</text>
</a>
</g>
</g>
<!-- Node2&#45;&gt;Node3 -->
<g id="edge2_Node000002_Node000003" class="edge">
<title>Node2&#45;&gt;Node3</title>
<g id="a_edge2_Node000002_Node000003"><a xlink:title=" ">
<path fill="none" stroke="#63b8ff" d="M227.52,-54.99C189.75,-44.8 139.29,-31.2 104.16,-21.73"/>
<polygon fill="#63b8ff" stroke="#63b8ff" points="104.8,-18.28 94.23,-19.05 102.97,-25.04 104.8,-18.28"/>
</a>
</g>
</g>
<!-- Node4 -->
<g id="Node000004" class="node">
<title>Node4</title>
<g id="a_Node000004"><a xlink:title=" ">
<polygon fill="#e0e0e0" stroke="#999999" points="196,-19 143,-19 143,0 196,0 196,-19"/>
<text text-anchor="middle" x="169.5" y="-7" font-family="Helvetica,sans-Serif" font-size="10.00">iterator</text>
</a>
</g>
</g>
<!-- Node2&#45;&gt;Node4 -->
<g id="edge3_Node000002_Node000004" class="edge">
<title>Node2&#45;&gt;Node4</title>
<g id="a_edge3_Node000002_Node000004"><a xlink:title=" ">
<path fill="none" stroke="#63b8ff" d="M253.15,-54.99C235.45,-45.58 212.27,-33.24 194.79,-23.95"/>
<polygon fill="#63b8ff" stroke="#63b8ff" points="196.22,-20.74 185.74,-19.14 192.93,-26.92 196.22,-20.74"/>
</a>
</g>
</g>
<!-- Node5 -->
<g id="Node000005" class="node">
<title>Node5</title>
<g id="a_Node000005"><a xlink:title=" ">
<polygon fill="#e0e0e0" stroke="#999999" points="270.5,-19 214.5,-19 214.5,0 270.5,0 270.5,-19"/>
<text text-anchor="middle" x="242.5" y="-7" font-family="Helvetica,sans-Serif" font-size="10.00">optional</text>
</a>
</g>
</g>
<!-- Node2&#45;&gt;Node5 -->
<g id="edge4_Node000002_Node000005" class="edge">
<title>Node2&#45;&gt;Node5</title>
<g id="a_edge4_Node000002_Node000005"><a xlink:title=" ">
<path fill="none" stroke="#63b8ff" d="M270.54,-54.84C265.39,-46.69 258.88,-36.4 253.43,-27.78"/>
<polygon fill="#63b8ff" stroke="#63b8ff" points="256.35,-25.85 248.04,-19.27 250.43,-29.59 256.35,-25.85"/>
</a>
</g>
</g>
<!-- Node6 -->
<g id="Node000006" class="node">
<title>Node6</title>
<g id="a_Node000006"><a xlink:title=" ">
<polygon fill="#e0e0e0" stroke="#999999" points="344,-19 289,-19 289,0 344,0 344,-19"/>
<text text-anchor="middle" x="316.5" y="-7" font-family="Helvetica,sans-Serif" font-size="10.00">fstream</text>
</a>
</g>
</g>
<!-- Node2&#45;&gt;Node6 -->
<g id="edge5_Node000002_Node000006" class="edge">
<title>Node2&#45;&gt;Node6</title>
<g id="a_edge5_Node000002_Node000006"><a xlink:title=" ">
<path fill="none" stroke="#63b8ff" d="M288.46,-54.84C293.61,-46.69 300.12,-36.4 305.57,-27.78"/>
<polygon fill="#63b8ff" stroke="#63b8ff" points="308.57,-29.59 310.96,-19.27 302.65,-25.85 308.57,-29.59"/>
</a>
</g>
</g>
<!-- Node7 -->
<g id="Node000007" class="node">
<title>Node7</title>
<g id="a_Node000007"><a xlink:title=" ">
<polygon fill="#e0e0e0" stroke="#999999" points="407,-19 362,-19 362,0 407,0 407,-19"/>
<text text-anchor="middle" x="384.5" y="-7" font-family="Helvetica,sans-Serif" font-size="10.00">utility</text>
</a>
</g>
</g>
<!-- Node2&#45;&gt;Node7 -->
<g id="edge6_Node000002_Node000007" class="edge">
<title>Node2&#45;&gt;Node7</title>
<g id="a_edge6_Node000002_Node000007"><a xlink:title=" ">
<path fill="none" stroke="#63b8ff" d="M304.65,-54.99C321.39,-45.66 343.27,-33.47 359.89,-24.21"/>
<polygon fill="#63b8ff" stroke="#63b8ff" points="361.96,-27.06 368.99,-19.14 358.55,-20.95 361.96,-27.06"/>
</a>
</g>
</g>
<!-- Node8 -->
<g id="Node000008" class="node">
<title>Node8</title>
<g id="a_Node000008"><a xlink:title=" ">
<polygon fill="#e0e0e0" stroke="#999999" points="473.5,-19 425.5,-19 425.5,0 473.5,0 473.5,-19"/>
<text text-anchor="middle" x="449.5" y="-7" font-family="Helvetica,sans-Serif" font-size="10.00">mutex</text>
</a>
</g>
</g>
<!-- Node2&#45;&gt;Node8 -->
<g id="edge7_Node000002_Node000008" class="edge">
<title>Node2&#45;&gt;Node8</title>
<g id="a_edge7_Node000002_Node000008"><a xlink:title=" ">
<path fill="none" stroke="#63b8ff" d="M320.22,-54.99C349.44,-44.93 388.35,-31.54 415.82,-22.09"/>
<polygon fill="#63b8ff" stroke="#63b8ff" points="417.07,-25.36 425.38,-18.8 414.79,-18.74 417.07,-25.36"/>
</a>
</g>
</g>
</g>
</svg>
