<?xml version="1.0" encoding="UTF-8" standalone="no"?>
<!DOCTYPE svg PUBLIC "-//W3C//DTD SVG 1.1//EN"
 "http://www.w3.org/Graphics/SVG/1.1/DTD/svg11.dtd">
<!-- Generated by graphviz version 2.43.0 (0)
 -->
<!-- Title: Journal.hpp Pages: 1 -->
<svg width="994pt" height="151pt"
 viewBox="0.00 0.00 994.00 151.00" xmlns="http://www.w3.org/2000/svg" xmlns:xlink="http://www.w3.org/1999/xlink">
<g id="graph0" class="graph" transform="scale(1 1) rotate(0) translate(4 147)">
<title>Journal.hpp</title>
<polygon fill="white" stroke="transparent" points="-4,4 -4,-147 990,-147 990,4 -4,4"/>
<!-- Node1 -->
<g id="node1" class="node">
<title>Node1</title>
<g id="a_node1"><a xlink:title=" ">
<polygon fill="#bfbfbf" stroke="black" points="636,-123.5 636,-142.5 707,-142.5 707,-123.5 636,-123.5"/>
<text text-anchor="middle" x="671.5" y="-130.5" font-family="Helvetica,sans-Serif" font-size="10.00">Journal.hpp</text>
</a>
</g>
</g>
<!-- Node2 -->
<g id="node2" class="node">
<title>Node2</title>
<g id="a_node2"><a xlink:href="FileContentIterator_8hpp.html" target="_top" xlink:title=" ">
<polygon fill="white" stroke="black" points="212.5,-56.5 212.5,-86.5 346.5,-86.5 346.5,-56.5 212.5,-56.5"/>
<text text-anchor="start" x="220.5" y="-74.5" font-family="Helvetica,sans-Serif" font-size="10.00">wrapp/io/inc/FileContent</text>
<text text-anchor="middle" x="279.5" y="-63.5" font-family="Helvetica,sans-Serif" font-size="10.00">Iterator.hpp</text>
</a>
</g>
</g>
<!-- Node1&#45;&gt;Node2 -->
<g id="edge1" class="edge">
<title>Node1&#45;&gt;Node2</title>
<path fill="none" stroke="midnightblue" d="M635.99,-127.45C579.35,-120.07 464.81,-104.7 356.76,-86.99"/>
<polygon fill="midnightblue" stroke="midnightblue" points="357.1,-83.5 346.66,-85.33 355.96,-90.41 357.1,-83.5"/>
</g>
<!-- Node9 -->
<g id="node9" class="node">
<title>Node9</title>
<g id="a_node9"><a xlink:title=" ">
<polygon fill="white" stroke="#bfbfbf" points="365,-62 365,-81 526,-81 526,-62 365,-62"/>
<text text-anchor="middle" x="445.5" y="-69" font-family="Helvetica,sans-Serif" font-size="10.00">includes/kratos_parameters.h</text>
</a>
</g>
</g>
<!-- Node1&#45;&gt;Node9 -->
<g id="edge8" class="edge">
<title>Node1&#45;&gt;Node9</title>
<path fill="none" stroke="midnightblue" d="M639.12,-123.48C599.26,-112.98 531.48,-95.14 487.61,-83.59"/>
<polygon fill="midnightblue" stroke="midnightblue" points="488.38,-80.17 477.82,-81.01 486.6,-86.94 488.38,-80.17"/>
</g>
<!-- Node10 -->
<g id="node10" class="node">
<title>Node10</title>
<g id="a_node10"><a xlink:title=" ">
<polygon fill="white" stroke="#bfbfbf" points="544.5,-62 544.5,-81 654.5,-81 654.5,-62 544.5,-62"/>
<text text-anchor="middle" x="599.5" y="-69" font-family="Helvetica,sans-Serif" font-size="10.00">containers/model.h</text>
</a>
</g>
</g>
<!-- Node1&#45;&gt;Node10 -->
<g id="edge9" class="edge">
<title>Node1&#45;&gt;Node10</title>
<path fill="none" stroke="midnightblue" d="M661.18,-123.48C649.85,-114.11 631.43,-98.88 617.66,-87.51"/>
<polygon fill="midnightblue" stroke="midnightblue" points="619.73,-84.68 609.8,-81.01 615.28,-90.08 619.73,-84.68"/>
</g>
<!-- Node11 -->
<g id="node11" class="node">
<title>Node11</title>
<g id="a_node11"><a xlink:title=" ">
<polygon fill="white" stroke="#bfbfbf" points="673,-62 673,-81 816,-81 816,-62 673,-62"/>
<text text-anchor="middle" x="744.5" y="-69" font-family="Helvetica,sans-Serif" font-size="10.00">includes/smart_pointers.h</text>
</a>
</g>
</g>
<!-- Node1&#45;&gt;Node11 -->
<g id="edge10" class="edge">
<title>Node1&#45;&gt;Node11</title>
<path fill="none" stroke="midnightblue" d="M681.96,-123.48C693.45,-114.11 712.13,-98.88 726.09,-87.51"/>
<polygon fill="midnightblue" stroke="midnightblue" points="728.52,-90.04 734.06,-81.01 724.1,-84.61 728.52,-90.04"/>
</g>
<!-- Node12 -->
<g id="node12" class="node">
<title>Node12</title>
<g id="a_node12"><a xlink:title=" ">
<polygon fill="white" stroke="#bfbfbf" points="834.5,-62 834.5,-81 902.5,-81 902.5,-62 834.5,-62"/>
<text text-anchor="middle" x="868.5" y="-69" font-family="Helvetica,sans-Serif" font-size="10.00">filesystem</text>
</a>
</g>
</g>
<!-- Node1&#45;&gt;Node12 -->
<g id="edge11" class="edge">
<title>Node1&#45;&gt;Node12</title>
<path fill="none" stroke="midnightblue" d="M702,-123.49C733.15,-114.7 782.85,-100.41 825.5,-87 828.25,-86.14 831.09,-85.22 833.94,-84.29"/>
<polygon fill="midnightblue" stroke="midnightblue" points="835.15,-87.58 843.55,-81.11 832.95,-80.93 835.15,-87.58"/>
</g>
<!-- Node13 -->
<g id="node13" class="node">
<title>Node13</title>
<g id="a_node13"><a xlink:title=" ">
<polygon fill="white" stroke="#bfbfbf" points="921,-62 921,-81 986,-81 986,-62 921,-62"/>
<text text-anchor="middle" x="953.5" y="-69" font-family="Helvetica,sans-Serif" font-size="10.00">functional</text>
</a>
</g>
</g>
<!-- Node1&#45;&gt;Node13 -->
<g id="edge12" class="edge">
<title>Node1&#45;&gt;Node13</title>
<path fill="none" stroke="midnightblue" d="M707.24,-126.98C754.46,-119.97 839.99,-105.94 911.5,-87 914.53,-86.2 917.66,-85.28 920.78,-84.31"/>
<polygon fill="midnightblue" stroke="midnightblue" points="922.17,-87.54 930.58,-81.09 919.99,-80.89 922.17,-87.54"/>
</g>
<!-- Node3 -->
<g id="node3" class="node">
<title>Node3</title>
<g id="a_node3"><a xlink:title=" ">
<polygon fill="white" stroke="#bfbfbf" points="0,-0.5 0,-19.5 125,-19.5 125,-0.5 0,-0.5"/>
<text text-anchor="middle" x="62.5" y="-7.5" font-family="Helvetica,sans-Serif" font-size="10.00">includes/lock_object.h</text>
</a>
</g>
</g>
<!-- Node2&#45;&gt;Node3 -->
<g id="edge2" class="edge">
<title>Node2&#45;&gt;Node3</title>
<path fill="none" stroke="midnightblue" d="M228.35,-56.47C190.26,-46.03 138.93,-31.96 103.52,-22.25"/>
<polygon fill="midnightblue" stroke="midnightblue" points="104.09,-18.78 93.52,-19.51 102.24,-25.53 104.09,-18.78"/>
</g>
<!-- Node4 -->
<g id="node4" class="node">
<title>Node4</title>
<g id="a_node4"><a xlink:title=" ">
<polygon fill="white" stroke="#bfbfbf" points="143,-0.5 143,-19.5 196,-19.5 196,-0.5 143,-0.5"/>
<text text-anchor="middle" x="169.5" y="-7.5" font-family="Helvetica,sans-Serif" font-size="10.00">iterator</text>
</a>
</g>
</g>
<!-- Node2&#45;&gt;Node4 -->
<g id="edge3" class="edge">
<title>Node2&#45;&gt;Node4</title>
<path fill="none" stroke="midnightblue" d="M253.43,-56.4C235.63,-46.77 212.19,-34.09 194.6,-24.58"/>
<polygon fill="midnightblue" stroke="midnightblue" points="195.97,-21.34 185.51,-19.66 192.64,-27.49 195.97,-21.34"/>
</g>
<!-- Node5 -->
<g id="node5" class="node">
<title>Node5</title>
<g id="a_node5"><a xlink:title=" ">
<polygon fill="white" stroke="#bfbfbf" points="214.5,-0.5 214.5,-19.5 270.5,-19.5 270.5,-0.5 214.5,-0.5"/>
<text text-anchor="middle" x="242.5" y="-7.5" font-family="Helvetica,sans-Serif" font-size="10.00">optional</text>
</a>
</g>
</g>
<!-- Node2&#45;&gt;Node5 -->
<g id="edge4" class="edge">
<title>Node2&#45;&gt;Node5</title>
<path fill="none" stroke="midnightblue" d="M270.73,-56.4C265.52,-48.02 258.87,-37.33 253.33,-28.42"/>
<polygon fill="midnightblue" stroke="midnightblue" points="256.14,-26.3 247.88,-19.66 250.19,-30 256.14,-26.3"/>
</g>
<!-- Node6 -->
<g id="node6" class="node">
<title>Node6</title>
<g id="a_node6"><a xlink:title=" ">
<polygon fill="white" stroke="#bfbfbf" points="289,-0.5 289,-19.5 344,-19.5 344,-0.5 289,-0.5"/>
<text text-anchor="middle" x="316.5" y="-7.5" font-family="Helvetica,sans-Serif" font-size="10.00">fstream</text>
</a>
</g>
</g>
<!-- Node2&#45;&gt;Node6 -->
<g id="edge5" class="edge">
<title>Node2&#45;&gt;Node6</title>
<path fill="none" stroke="midnightblue" d="M288.27,-56.4C293.48,-48.02 300.13,-37.33 305.67,-28.42"/>
<polygon fill="midnightblue" stroke="midnightblue" points="308.81,-30 311.12,-19.66 302.86,-26.3 308.81,-30"/>
</g>
<!-- Node7 -->
<g id="node7" class="node">
<title>Node7</title>
<g id="a_node7"><a xlink:title=" ">
<polygon fill="white" stroke="#bfbfbf" points="362,-0.5 362,-19.5 407,-19.5 407,-0.5 362,-0.5"/>
<text text-anchor="middle" x="384.5" y="-7.5" font-family="Helvetica,sans-Serif" font-size="10.00">utility</text>
</a>
</g>
</g>
<!-- Node2&#45;&gt;Node7 -->
<g id="edge6" class="edge">
<title>Node2&#45;&gt;Node7</title>
<path fill="none" stroke="midnightblue" d="M304.38,-56.4C321.21,-46.86 343.34,-34.32 360.07,-24.84"/>
<polygon fill="midnightblue" stroke="midnightblue" points="362.25,-27.63 369.22,-19.66 358.8,-21.54 362.25,-27.63"/>
</g>
<!-- Node8 -->
<g id="node8" class="node">
<title>Node8</title>
<g id="a_node8"><a xlink:title=" ">
<polygon fill="white" stroke="#bfbfbf" points="425.5,-0.5 425.5,-19.5 473.5,-19.5 473.5,-0.5 425.5,-0.5"/>
<text text-anchor="middle" x="449.5" y="-7.5" font-family="Helvetica,sans-Serif" font-size="10.00">mutex</text>
</a>
</g>
</g>
<!-- Node2&#45;&gt;Node8 -->
<g id="edge7" class="edge">
<title>Node2&#45;&gt;Node8</title>
<path fill="none" stroke="midnightblue" d="M319.79,-56.4C348.99,-46.18 388.05,-32.51 415.65,-22.85"/>
<polygon fill="midnightblue" stroke="midnightblue" points="416.98,-26.09 425.26,-19.48 414.66,-19.48 416.98,-26.09"/>
</g>
</g>
</svg>
