<?xml version="1.0" encoding="UTF-8" standalone="no"?>
<!DOCTYPE svg PUBLIC "-//W3C//DTD SVG 1.1//EN"
 "http://www.w3.org/Graphics/SVG/1.1/DTD/svg11.dtd">
<!-- Generated by graphviz version 2.43.0 (0)
 -->
<!-- Title: MapKeyRange.hpp Pages: 1 -->
<svg width="203pt" height="140pt"
 viewBox="0.00 0.00 203.00 140.00" xmlns="http://www.w3.org/2000/svg" xmlns:xlink="http://www.w3.org/1999/xlink">
<g id="graph0" class="graph" transform="scale(1 1) rotate(0) translate(4 136)">
<title>MapKeyRange.hpp</title>
<polygon fill="white" stroke="transparent" points="-4,4 -4,-136 199,-136 199,4 -4,4"/>
<!-- Node1 -->
<g id="node1" class="node">
<title>Node1</title>
<g id="a_node1"><a xlink:title=" ">
<polygon fill="#bfbfbf" stroke="black" points="68,-112.5 68,-131.5 175,-131.5 175,-112.5 68,-112.5"/>
<text text-anchor="middle" x="121.5" y="-119.5" font-family="Helvetica,sans-Serif" font-size="10.00">MapKeyRange.hpp</text>
</a>
</g>
</g>
<!-- Node2 -->
<g id="node2" class="node">
<title>Node2</title>
<g id="a_node2"><a xlink:href="Range_8hpp.html" target="_top" xlink:title=" ">
<polygon fill="white" stroke="black" points="0,-56.5 0,-75.5 143,-75.5 143,-56.5 0,-56.5"/>
<text text-anchor="middle" x="71.5" y="-63.5" font-family="Helvetica,sans-Serif" font-size="10.00">wrapp/utils/inc/Range.hpp</text>
</a>
</g>
</g>
<!-- Node1&#45;&gt;Node2 -->
<g id="edge1" class="edge">
<title>Node1&#45;&gt;Node2</title>
<path fill="none" stroke="midnightblue" d="M113.24,-112.08C106.04,-104.3 95.39,-92.8 86.65,-83.37"/>
<polygon fill="midnightblue" stroke="midnightblue" points="88.97,-80.71 79.6,-75.75 83.83,-85.47 88.97,-80.71"/>
</g>
<!-- Node4 -->
<g id="node4" class="node">
<title>Node4</title>
<g id="a_node4"><a xlink:title=" ">
<polygon fill="white" stroke="#bfbfbf" points="126,-0.5 126,-19.5 195,-19.5 195,-0.5 126,-0.5"/>
<text text-anchor="middle" x="160.5" y="-7.5" font-family="Helvetica,sans-Serif" font-size="10.00">type_traits</text>
</a>
</g>
</g>
<!-- Node1&#45;&gt;Node4 -->
<g id="edge4" class="edge">
<title>Node1&#45;&gt;Node4</title>
<path fill="none" stroke="midnightblue" d="M129.31,-112.43C136.62,-103.87 147.18,-90.01 152.5,-76 158.12,-61.2 159.99,-43.28 160.53,-30"/>
<polygon fill="midnightblue" stroke="midnightblue" points="164.04,-29.79 160.72,-19.73 157.04,-29.66 164.04,-29.79"/>
</g>
<!-- Node3 -->
<g id="node3" class="node">
<title>Node3</title>
<g id="a_node3"><a xlink:title=" ">
<polygon fill="white" stroke="#bfbfbf" points="45,-0.5 45,-19.5 98,-19.5 98,-0.5 45,-0.5"/>
<text text-anchor="middle" x="71.5" y="-7.5" font-family="Helvetica,sans-Serif" font-size="10.00">iterator</text>
</a>
</g>
</g>
<!-- Node2&#45;&gt;Node3 -->
<g id="edge2" class="edge">
<title>Node2&#45;&gt;Node3</title>
<path fill="none" stroke="midnightblue" d="M71.5,-56.08C71.5,-49.01 71.5,-38.86 71.5,-29.99"/>
<polygon fill="midnightblue" stroke="midnightblue" points="75,-29.75 71.5,-19.75 68,-29.75 75,-29.75"/>
</g>
<!-- Node2&#45;&gt;Node4 -->
<g id="edge3" class="edge">
<title>Node2&#45;&gt;Node4</title>
<path fill="none" stroke="midnightblue" d="M85.8,-56.32C99.68,-47.9 120.99,-34.97 137.3,-25.07"/>
<polygon fill="midnightblue" stroke="midnightblue" points="139.5,-27.83 146.24,-19.65 135.87,-21.85 139.5,-27.83"/>
</g>
</g>
</svg>
