<?xml version="1.0" encoding="UTF-8" standalone="no"?>
<!DOCTYPE svg PUBLIC "-//W3C//DTD SVG 1.1//EN"
 "http://www.w3.org/Graphics/SVG/1.1/DTD/svg11.dtd">
<!-- Generated by graphviz version 2.43.0 (0)
 -->
<!-- Title: MapKeyRange.hpp Pages: 1 -->
<svg width="350pt" height="151pt"
 viewBox="0.00 0.00 349.50 151.00" xmlns="http://www.w3.org/2000/svg" xmlns:xlink="http://www.w3.org/1999/xlink">
<g id="graph0" class="graph" transform="scale(1 1) rotate(0) translate(4 147)">
<title>MapKeyRange.hpp</title>
<polygon fill="white" stroke="transparent" points="-4,4 -4,-147 345.5,-147 345.5,4 -4,4"/>
<!-- Node1 -->
<g id="node1" class="node">
<title>Node1</title>
<g id="a_node1"><a xlink:title=" ">
<polygon fill="#bfbfbf" stroke="black" points="164.5,-123.5 164.5,-142.5 271.5,-142.5 271.5,-123.5 164.5,-123.5"/>
<text text-anchor="middle" x="218" y="-130.5" font-family="Helvetica,sans-Serif" font-size="10.00">MapKeyRange.hpp</text>
</a>
</g>
</g>
<!-- Node2 -->
<g id="node2" class="node">
<title>Node2</title>
<g id="a_node2"><a xlink:title=" ">
<polygon fill="white" stroke="#bfbfbf" points="0,-56.5 0,-86.5 128,-86.5 128,-56.5 0,-56.5"/>
<text text-anchor="start" x="8" y="-74.5" font-family="Helvetica,sans-Serif" font-size="10.00">includes/kratos_export</text>
<text text-anchor="middle" x="64" y="-63.5" font-family="Helvetica,sans-Serif" font-size="10.00">_api.h</text>
</a>
</g>
</g>
<!-- Node1&#45;&gt;Node2 -->
<g id="edge1" class="edge">
<title>Node1&#45;&gt;Node2</title>
<path fill="none" stroke="midnightblue" d="M195.94,-123.48C173.52,-114.81 138.14,-101.15 109.66,-90.14"/>
<polygon fill="midnightblue" stroke="midnightblue" points="110.88,-86.86 100.29,-86.52 108.36,-93.39 110.88,-86.86"/>
</g>
<!-- Node3 -->
<g id="node3" class="node">
<title>Node3</title>
<g id="a_node3"><a xlink:href="Range_8hpp.html" target="_top" xlink:title=" ">
<polygon fill="white" stroke="black" points="146.5,-62 146.5,-81 289.5,-81 289.5,-62 146.5,-62"/>
<text text-anchor="middle" x="218" y="-69" font-family="Helvetica,sans-Serif" font-size="10.00">wrapp/utils/inc/Range.hpp</text>
</a>
</g>
</g>
<!-- Node1&#45;&gt;Node3 -->
<g id="edge2" class="edge">
<title>Node1&#45;&gt;Node3</title>
<path fill="none" stroke="midnightblue" d="M218,-123.48C218,-115.08 218,-101.98 218,-91.16"/>
<polygon fill="midnightblue" stroke="midnightblue" points="221.5,-91.01 218,-81.01 214.5,-91.01 221.5,-91.01"/>
</g>
<!-- Node5 -->
<g id="node5" class="node">
<title>Node5</title>
<g id="a_node5"><a xlink:title=" ">
<polygon fill="white" stroke="#bfbfbf" points="272.5,-0.5 272.5,-19.5 341.5,-19.5 341.5,-0.5 272.5,-0.5"/>
<text text-anchor="middle" x="307" y="-7.5" font-family="Helvetica,sans-Serif" font-size="10.00">type_traits</text>
</a>
</g>
</g>
<!-- Node1&#45;&gt;Node5 -->
<g id="edge5" class="edge">
<title>Node1&#45;&gt;Node5</title>
<path fill="none" stroke="midnightblue" d="M247.15,-123.48C265.15,-116.64 287.02,-105.11 299,-87 310.18,-70.1 310.87,-46.31 309.6,-29.87"/>
<polygon fill="midnightblue" stroke="midnightblue" points="313.07,-29.4 308.52,-19.83 306.11,-30.15 313.07,-29.4"/>
</g>
<!-- Node4 -->
<g id="node4" class="node">
<title>Node4</title>
<g id="a_node4"><a xlink:title=" ">
<polygon fill="white" stroke="#bfbfbf" points="191.5,-0.5 191.5,-19.5 244.5,-19.5 244.5,-0.5 191.5,-0.5"/>
<text text-anchor="middle" x="218" y="-7.5" font-family="Helvetica,sans-Serif" font-size="10.00">iterator</text>
</a>
</g>
</g>
<!-- Node3&#45;&gt;Node4 -->
<g id="edge3" class="edge">
<title>Node3&#45;&gt;Node4</title>
<path fill="none" stroke="midnightblue" d="M218,-61.98C218,-53.58 218,-40.48 218,-29.66"/>
<polygon fill="midnightblue" stroke="midnightblue" points="221.5,-29.51 218,-19.51 214.5,-29.51 221.5,-29.51"/>
</g>
<!-- Node3&#45;&gt;Node5 -->
<g id="edge4" class="edge">
<title>Node3&#45;&gt;Node5</title>
<path fill="none" stroke="midnightblue" d="M230.75,-61.98C245.03,-52.43 268.4,-36.81 285.51,-25.37"/>
<polygon fill="midnightblue" stroke="midnightblue" points="287.9,-27.98 294.27,-19.51 284.01,-22.16 287.9,-27.98"/>
</g>
</g>
</svg>
