<?xml version="1.0" encoding="UTF-8" standalone="no"?>
<!DOCTYPE svg PUBLIC "-//W3C//DTD SVG 1.1//EN"
 "http://www.w3.org/Graphics/SVG/1.1/DTD/svg11.dtd">
<!-- Generated by graphviz version 2.43.0 (0)
 -->
<!-- Title: ModelPredicatePipe.hpp Pages: 1 -->
<!--zoomable 214 -->

<svg id="main" version="1.1" xmlns="http://www.w3.org/2000/svg" xmlns:xlink="http://www.w3.org/1999/xlink" xml:space="preserve" onload="init(evt)">
<style type="text/css"><![CDATA[
.node, .edge {opacity: 0.7;}
.node.selected, .edge.selected {opacity: 1;}
.edge:hover path { stroke: red; }
.edge:hover polygon { stroke: red; fill: red; }
]]></style>

<defs>
  <circle id="rim" cx="0" cy="0" r="7"/>
  <circle id="rim2" cx="0" cy="0" r="3.5"/>
  <g id="zoomPlus">
    <use xlink:href="#rim" fill="#404040"><set attributeName="fill" to="#808080" begin="zoomplus.mouseover" end="zoomplus.mouseout"/></use>
    <path d="M-4,0h8M0,-4v8" fill="none" stroke="white" stroke-width="1.5" pointer-events="none"/>
  </g>
  <g id="zoomMin">
    <use xlink:href="#rim" fill="#404040"><set attributeName="fill" to="#808080" begin="zoomminus.mouseover" end="zoomminus.mouseout"/></use>
    <path d="M-4,0h8" fill="none" stroke="white" stroke-width="1.5" pointer-events="none"/>
  </g>
  <g id="arrowUp" transform="translate(30 24)">
    <use xlink:href="#rim"/>
    <path pointer-events="none" fill="none" stroke="white" stroke-width="1.5" d="M0,-3.0v7 M-2.5,-0.5L0,-3.0L2.5,-0.5"/>
  </g>
  <g id="arrowRight" transform="rotate(90) translate(36 -43)">
    <use xlink:href="#rim"/>
    <path pointer-events="none" fill="none" stroke="white" stroke-width="1.5" d="M0,-3.0v7 M-2.5,-0.5L0,-3.0L2.5,-0.5"/>
  </g>
  <g id="arrowDown" transform="rotate(180) translate(-30 -48)">
    <use xlink:href="#rim"/>
    <path pointer-events="none" fill="none" stroke="white" stroke-width="1.5" d="M0,-3.0v7 M-2.5,-0.5L0,-3.0L2.5,-0.5"/>
  </g>
  <g id="arrowLeft" transform="rotate(270) translate(-36 17)">
    <use xlink:href="#rim"/>
    <path pointer-events="none" fill="none" stroke="white" stroke-width="1.5" d="M0,-3.0v7 M-2.5,-0.5L0,-3.0L2.5,-0.5"/>
  </g>
  <g id="resetDef">
    <use xlink:href="#rim2" fill="#404040"><set attributeName="fill" to="#808080" begin="reset.mouseover" end="reset.mouseout"/></use>
  </g>
</defs>
<script type="application/ecmascript">
var viewWidth = 1986;
var viewHeight = 214;
var sectionId = 'dynsection-0';
</script>
<script type="application/ecmascript" xlink:href="svg.min.js"/>
<svg id="graph" class="graph">
<g id="viewport">
<title>ModelPredicatePipe.hpp</title>
<!-- Node1 -->
<g id="Node000001" class="node">
<title>Node1</title>
<g id="a_Node000001"><a xlink:title=" ">
<polygon fill="#999999" stroke="#666666" points="1332.5,-206 1198.5,-206 1198.5,-187 1332.5,-187 1332.5,-206"/>
<text text-anchor="middle" x="1265.5" y="-194" font-family="Helvetica,sans-Serif" font-size="10.00">ModelPredicatePipe.hpp</text>
</a>
</g>
</g>
<!-- Node2 -->
<g id="Node000002" class="node">
<title>Node2</title>
<g id="a_Node000002"><a xlink:href="basic__pipes_8hpp.html" target="_top" xlink:title=" ">
<polygon fill="white" stroke="#666666" points="844,-151 749,-151 749,-132 844,-132 844,-151"/>
<text text-anchor="middle" x="796.5" y="-139" font-family="Helvetica,sans-Serif" font-size="10.00">basic_pipes.hpp</text>
</a>
</g>
</g>
<!-- Node1&#45;&gt;Node2 -->
<g id="edge1_Node000001_Node000002" class="edge">
<title>Node1&#45;&gt;Node2</title>
<g id="a_edge1_Node000001_Node000002"><a xlink:title=" ">
<path fill="none" stroke="#63b8ff" d="M1198.3,-187.91C1105.96,-177.47 941.41,-158.88 854.29,-149.03"/>
<polygon fill="#63b8ff" stroke="#63b8ff" points="854.65,-145.55 844.32,-147.9 853.86,-152.5 854.65,-145.55"/>
</a>
</g>
</g>
<!-- Node6 -->
<g id="Node000006" class="node">
<title>Node6</title>
<g id="a_Node000006"><a xlink:title=" ">
<polygon fill="#e0e0e0" stroke="#999999" points="125,-90.5 0,-90.5 0,-71.5 125,-71.5 125,-90.5"/>
<text text-anchor="middle" x="62.5" y="-78.5" font-family="Helvetica,sans-Serif" font-size="10.00">includes/model_part.h</text>
</a>
</g>
</g>
<!-- Node1&#45;&gt;Node6 -->
<g id="edge30_Node000001_Node000006" class="edge">
<title>Node1&#45;&gt;Node6</title>
<g id="a_edge30_Node000001_Node000006"><a xlink:title=" ">
<path fill="none" stroke="#63b8ff" d="M1198.38,-193.78C1064.04,-189.86 752.68,-178.41 492.5,-151 355.86,-136.6 196.53,-107.88 115.58,-92.42"/>
<polygon fill="#63b8ff" stroke="#63b8ff" points="116.11,-88.96 105.63,-90.51 114.79,-95.83 116.11,-88.96"/>
</a>
</g>
</g>
<!-- Node7 -->
<g id="Node000007" class="node">
<title>Node7</title>
<g id="a_Node000007"><a xlink:title=" ">
<polygon fill="#e0e0e0" stroke="#999999" points="1264,-24.5 1103,-24.5 1103,-5.5 1264,-5.5 1264,-24.5"/>
<text text-anchor="middle" x="1183.5" y="-12.5" font-family="Helvetica,sans-Serif" font-size="10.00">includes/kratos_parameters.h</text>
</a>
</g>
</g>
<!-- Node1&#45;&gt;Node7 -->
<g id="edge31_Node000001_Node000007" class="edge">
<title>Node1&#45;&gt;Node7</title>
<g id="a_edge31_Node000001_Node000007"><a xlink:title=" ">
<path fill="none" stroke="#63b8ff" d="M1325.66,-186.94C1367.01,-179.68 1416.69,-167.76 1429.5,-151 1434.63,-144.29 1430.85,-140.34 1429.5,-132 1424.55,-101.48 1430.45,-86.72 1407.5,-66 1386.79,-47.31 1321.71,-34.1 1267,-25.98"/>
<polygon fill="#63b8ff" stroke="#63b8ff" points="1267.32,-22.49 1256.92,-24.52 1266.32,-29.41 1267.32,-22.49"/>
</a>
</g>
</g>
<!-- Node8 -->
<g id="Node000008" class="node">
<title>Node8</title>
<g id="a_Node000008"><a xlink:title=" ">
<polygon fill="#e0e0e0" stroke="#999999" points="237.5,-96 143.5,-96 143.5,-66 237.5,-66 237.5,-96"/>
<text text-anchor="start" x="151.5" y="-84" font-family="Helvetica,sans-Serif" font-size="10.00">utilities/interval</text>
<text text-anchor="middle" x="190.5" y="-73" font-family="Helvetica,sans-Serif" font-size="10.00">_utility.h</text>
</a>
</g>
</g>
<!-- Node1&#45;&gt;Node8 -->
<g id="edge32_Node000001_Node000008" class="edge">
<title>Node1&#45;&gt;Node8</title>
<g id="a_edge32_Node000001_Node000008"><a xlink:title=" ">
<path fill="none" stroke="#63b8ff" d="M1198.22,-192.69C1035.77,-185.1 609.43,-160.36 247.64,-96.06"/>
<polygon fill="#63b8ff" stroke="#63b8ff" points="248.22,-92.6 237.76,-94.29 246.99,-99.5 248.22,-92.6"/>
</a>
</g>
</g>
<!-- Node16 -->
<g id="Node000016" class="node">
<title>Node16</title>
<g id="a_Node000016"><a xlink:title=" ">
<polygon fill="#e0e0e0" stroke="#999999" points="1254,-90.5 1189,-90.5 1189,-71.5 1254,-71.5 1254,-90.5"/>
<text text-anchor="middle" x="1221.5" y="-78.5" font-family="Helvetica,sans-Serif" font-size="10.00">functional</text>
</a>
</g>
</g>
<!-- Node1&#45;&gt;Node16 -->
<g id="edge33_Node000001_Node000016" class="edge">
<title>Node1&#45;&gt;Node16</title>
<g id="a_edge33_Node000001_Node000016"><a xlink:title=" ">
<path fill="none" stroke="#63b8ff" d="M1253.4,-186.82C1243.33,-178.81 1229.68,-165.92 1223.5,-151 1216.91,-135.1 1217.09,-115.33 1218.51,-101.03"/>
<polygon fill="#63b8ff" stroke="#63b8ff" points="1222.01,-101.28 1219.81,-90.91 1215.06,-100.38 1222.01,-101.28"/>
</a>
</g>
</g>
<!-- Node19 -->
<g id="Node000019" class="node">
<title>Node19</title>
<g id="a_Node000019"><a xlink:href="WRAppClass_8hpp.html" target="_top" xlink:title=" ">
<polygon fill="white" stroke="#666666" points="1801,-151 1628,-151 1628,-132 1801,-132 1801,-151"/>
<text text-anchor="middle" x="1714.5" y="-139" font-family="Helvetica,sans-Serif" font-size="10.00">wrapp/utils/inc/WRAppClass.hpp</text>
</a>
</g>
</g>
<!-- Node1&#45;&gt;Node19 -->
<g id="edge21_Node000001_Node000019" class="edge">
<title>Node1&#45;&gt;Node19</title>
<g id="a_edge21_Node000001_Node000019"><a xlink:title=" ">
<path fill="none" stroke="#63b8ff" d="M1332.72,-187.57C1412.73,-178.12 1546.3,-162.35 1632.36,-152.2"/>
<polygon fill="#63b8ff" stroke="#63b8ff" points="1632.83,-155.66 1642.35,-151.02 1632.01,-148.71 1632.83,-155.66"/>
</a>
</g>
</g>
<!-- Node21 -->
<g id="Node000021" class="node">
<title>Node21</title>
<g id="a_Node000021"><a xlink:title=" ">
<polygon fill="#e0e0e0" stroke="#999999" points="1978,-90.5 1835,-90.5 1835,-71.5 1978,-71.5 1978,-90.5"/>
<text text-anchor="middle" x="1906.5" y="-78.5" font-family="Helvetica,sans-Serif" font-size="10.00">includes/smart_pointers.h</text>
</a>
</g>
</g>
<!-- Node1&#45;&gt;Node21 -->
<g id="edge29_Node000001_Node000021" class="edge">
<title>Node1&#45;&gt;Node21</title>
<g id="a_edge29_Node000001_Node000021"><a xlink:title=" ">
<path fill="none" stroke="#63b8ff" d="M1332.65,-194.49C1458.42,-191.85 1724.52,-182.61 1810.5,-151 1841.95,-139.43 1872.34,-114.55 1890.22,-98.05"/>
<polygon fill="#63b8ff" stroke="#63b8ff" points="1893.1,-100.13 1897.95,-90.71 1888.28,-95.06 1893.1,-100.13"/>
</a>
</g>
</g>
<!-- Node23 -->
<g id="Node000023" class="node">
<title>Node23</title>
<g id="a_Node000023"><a xlink:href="ModelPredicate_8hpp.html" target="_top" xlink:title=" ">
<polygon fill="white" stroke="#666666" points="1420.5,-151 1232.5,-151 1232.5,-132 1420.5,-132 1420.5,-151"/>
<text text-anchor="middle" x="1326.5" y="-139" font-family="Helvetica,sans-Serif" font-size="10.00">wrapp/utils/inc/ModelPredicate.hpp</text>
</a>
</g>
</g>
<!-- Node1&#45;&gt;Node23 -->
<g id="edge26_Node000001_Node000023" class="edge">
<title>Node1&#45;&gt;Node23</title>
<g id="a_edge26_Node000001_Node000023"><a xlink:title=" ">
<path fill="none" stroke="#63b8ff" d="M1275.3,-186.98C1284.32,-179.15 1297.91,-167.34 1308.82,-157.86"/>
<polygon fill="#63b8ff" stroke="#63b8ff" points="1311.27,-160.37 1316.52,-151.17 1306.68,-155.09 1311.27,-160.37"/>
</a>
</g>
</g>
<!-- Node3 -->
<g id="Node000003" class="node">
<title>Node3</title>
<g id="a_Node000003"><a xlink:title=" ">
<polygon fill="#e0e0e0" stroke="#999999" points="375,-90.5 256,-90.5 256,-71.5 375,-71.5 375,-90.5"/>
<text text-anchor="middle" x="315.5" y="-78.5" font-family="Helvetica,sans-Serif" font-size="10.00">containers/variable.h</text>
</a>
</g>
</g>
<!-- Node2&#45;&gt;Node3 -->
<g id="edge2_Node000002_Node000003" class="edge">
<title>Node2&#45;&gt;Node3</title>
<g id="a_edge2_Node000002_Node000003"><a xlink:title=" ">
<path fill="none" stroke="#63b8ff" d="M748.92,-136.86C671.87,-130.64 515.13,-116.59 383.5,-96 377.17,-95.01 370.54,-93.83 364,-92.57"/>
<polygon fill="#63b8ff" stroke="#63b8ff" points="364.35,-89.08 353.86,-90.57 362.99,-95.94 364.35,-89.08"/>
</a>
</g>
</g>
<!-- Node4 -->
<g id="Node000004" class="node">
<title>Node4</title>
<g id="a_Node000004"><a xlink:title=" ">
<polygon fill="#e0e0e0" stroke="#999999" points="524,-90.5 393,-90.5 393,-71.5 524,-71.5 524,-90.5"/>
<text text-anchor="middle" x="458.5" y="-78.5" font-family="Helvetica,sans-Serif" font-size="10.00">includes/process_info.h</text>
</a>
</g>
</g>
<!-- Node2&#45;&gt;Node4 -->
<g id="edge3_Node000002_Node000004" class="edge">
<title>Node2&#45;&gt;Node4</title>
<g id="a_edge3_Node000002_Node000004"><a xlink:title=" ">
<path fill="none" stroke="#63b8ff" d="M748.95,-132.7C696.24,-124 608.73,-109.38 533.5,-96 527.17,-94.87 520.54,-93.67 513.95,-92.46"/>
<polygon fill="#63b8ff" stroke="#63b8ff" points="514.16,-88.94 503.69,-90.56 512.89,-95.82 514.16,-88.94"/>
</a>
</g>
</g>
<!-- Node5 -->
<g id="Node000005" class="node">
<title>Node5</title>
<g id="a_Node000005"><a xlink:title=" ">
<polygon fill="#e0e0e0" stroke="#999999" points="1382.5,-90.5 1272.5,-90.5 1272.5,-71.5 1382.5,-71.5 1382.5,-90.5"/>
<text text-anchor="middle" x="1327.5" y="-78.5" font-family="Helvetica,sans-Serif" font-size="10.00">containers/model.h</text>
</a>
</g>
</g>
<!-- Node2&#45;&gt;Node5 -->
<g id="edge4_Node000002_Node000005" class="edge">
<title>Node2&#45;&gt;Node5</title>
<g id="a_edge4_Node000002_Node000005"><a xlink:title=" ">
<path fill="none" stroke="#63b8ff" d="M844.13,-137.86C928.87,-132.74 1111.22,-119.82 1263.5,-96 1269.48,-95.07 1275.73,-93.91 1281.89,-92.68"/>
<polygon fill="#63b8ff" stroke="#63b8ff" points="1283.03,-96.02 1292.1,-90.54 1281.59,-89.16 1283.03,-96.02"/>
</a>
</g>
</g>
<!-- Node2&#45;&gt;Node6 -->
<g id="edge5_Node000002_Node000006" class="edge">
<title>Node2&#45;&gt;Node6</title>
<g id="a_edge5_Node000002_Node000006"><a xlink:title=" ">
<path fill="none" stroke="#63b8ff" d="M748.94,-139.34C639.88,-136.24 363.52,-125.84 134.5,-96 127.04,-95.03 119.18,-93.76 111.51,-92.38"/>
<polygon fill="#63b8ff" stroke="#63b8ff" points="112.06,-88.92 101.59,-90.52 110.78,-95.8 112.06,-88.92"/>
</a>
</g>
</g>
<!-- Node2&#45;&gt;Node7 -->
<g id="edge6_Node000002_Node000007" class="edge">
<title>Node2&#45;&gt;Node7</title>
<g id="a_edge6_Node000002_Node000007"><a xlink:title=" ">
<path fill="none" stroke="#63b8ff" d="M844.08,-139.68C927.18,-137.41 1094.4,-128.76 1141.5,-96 1162.38,-81.47 1173.66,-53.25 1179.13,-34.51"/>
<polygon fill="#63b8ff" stroke="#63b8ff" points="1182.53,-35.31 1181.7,-24.75 1175.77,-33.52 1182.53,-35.31"/>
</a>
</g>
</g>
<!-- Node2&#45;&gt;Node8 -->
<g id="edge7_Node000002_Node000008" class="edge">
<title>Node2&#45;&gt;Node8</title>
<g id="a_edge7_Node000002_Node000008"><a xlink:title=" ">
<path fill="none" stroke="#63b8ff" d="M748.73,-139.27C654.53,-136.28 438.16,-126.59 247.66,-96"/>
<polygon fill="#63b8ff" stroke="#63b8ff" points="248.18,-92.54 237.74,-94.39 247.05,-99.45 248.18,-92.54"/>
</a>
</g>
</g>
<!-- Node9 -->
<g id="Node000009" class="node">
<title>Node9</title>
<g id="a_Node000009"><a xlink:href="pipe_8hpp.html" target="_top" xlink:title=" ">
<polygon fill="white" stroke="#666666" points="680.5,-90.5 542.5,-90.5 542.5,-71.5 680.5,-71.5 680.5,-90.5"/>
<text text-anchor="middle" x="611.5" y="-78.5" font-family="Helvetica,sans-Serif" font-size="10.00">wrapp/pipes/inc/pipe.hpp</text>
</a>
</g>
</g>
<!-- Node2&#45;&gt;Node9 -->
<g id="edge8_Node000002_Node000009" class="edge">
<title>Node2&#45;&gt;Node9</title>
<g id="a_edge8_Node000002_Node000009"><a xlink:title=" ">
<path fill="none" stroke="#63b8ff" d="M769.6,-131.99C737.54,-121.86 683.82,-104.87 648.02,-93.55"/>
<polygon fill="#63b8ff" stroke="#63b8ff" points="649.02,-90.19 638.43,-90.52 646.91,-96.87 649.02,-90.19"/>
</a>
</g>
</g>
<!-- Node14 -->
<g id="Node000014" class="node">
<title>Node14</title>
<g id="a_Node000014"><a xlink:href="IntervalUtility_8hpp.html" target="_top" xlink:title=" ">
<polygon fill="white" stroke="#666666" points="1132,-96 985,-96 985,-66 1132,-66 1132,-96"/>
<text text-anchor="start" x="993" y="-84" font-family="Helvetica,sans-Serif" font-size="10.00">wrapp/numeric/inc/Interval</text>
<text text-anchor="middle" x="1058.5" y="-73" font-family="Helvetica,sans-Serif" font-size="10.00">Utility.hpp</text>
</a>
</g>
</g>
<!-- Node2&#45;&gt;Node14 -->
<g id="edge14_Node000002_Node000014" class="edge">
<title>Node2&#45;&gt;Node14</title>
<g id="a_edge14_Node000002_Node000014"><a xlink:title=" ">
<path fill="none" stroke="#63b8ff" d="M834.6,-131.99C874.1,-123.17 936.82,-109.17 985.84,-98.22"/>
<polygon fill="#63b8ff" stroke="#63b8ff" points="986.77,-101.6 995.76,-96.01 985.24,-94.77 986.77,-101.6"/>
</a>
</g>
</g>
<!-- Node15 -->
<g id="Node000015" class="node">
<title>Node15</title>
<g id="a_Node000015"><a xlink:title=" ">
<polygon fill="#e0e0e0" stroke="#999999" points="754.5,-90.5 698.5,-90.5 698.5,-71.5 754.5,-71.5 754.5,-90.5"/>
<text text-anchor="middle" x="726.5" y="-78.5" font-family="Helvetica,sans-Serif" font-size="10.00">optional</text>
</a>
</g>
</g>
<!-- Node2&#45;&gt;Node15 -->
<g id="edge17_Node000002_Node000015" class="edge">
<title>Node2&#45;&gt;Node15</title>
<g id="a_edge17_Node000002_Node000015"><a xlink:title=" ">
<path fill="none" stroke="#63b8ff" d="M786.17,-131.87C775.31,-122.8 758.01,-108.34 744.83,-97.32"/>
<polygon fill="#63b8ff" stroke="#63b8ff" points="746.79,-94.39 736.87,-90.67 742.3,-99.77 746.79,-94.39"/>
</a>
</g>
</g>
<!-- Node2&#45;&gt;Node16 -->
<g id="edge18_Node000002_Node000016" class="edge">
<title>Node2&#45;&gt;Node16</title>
<g id="a_edge18_Node000002_Node000016"><a xlink:title=" ">
<path fill="none" stroke="#63b8ff" d="M844.06,-137.54C916.13,-132.46 1057.04,-120.22 1174.5,-96 1178.22,-95.23 1182.07,-94.31 1185.9,-93.3"/>
<polygon fill="#63b8ff" stroke="#63b8ff" points="1187.16,-96.58 1195.85,-90.51 1185.27,-89.84 1187.16,-96.58"/>
</a>
</g>
</g>
<!-- Node17 -->
<g id="Node000017" class="node">
<title>Node17</title>
<g id="a_Node000017"><a xlink:title=" ">
<polygon fill="#e0e0e0" stroke="#999999" points="820,-90.5 773,-90.5 773,-71.5 820,-71.5 820,-90.5"/>
<text text-anchor="middle" x="796.5" y="-78.5" font-family="Helvetica,sans-Serif" font-size="10.00">cmath</text>
</a>
</g>
</g>
<!-- Node2&#45;&gt;Node17 -->
<g id="edge19_Node000002_Node000017" class="edge">
<title>Node2&#45;&gt;Node17</title>
<g id="a_edge19_Node000002_Node000017"><a xlink:title=" ">
<path fill="none" stroke="#63b8ff" d="M796.5,-131.87C796.5,-123.75 796.5,-111.31 796.5,-100.89"/>
<polygon fill="#63b8ff" stroke="#63b8ff" points="800,-100.67 796.5,-90.67 793,-100.67 800,-100.67"/>
</a>
</g>
</g>
<!-- Node18 -->
<g id="Node000018" class="node">
<title>Node18</title>
<g id="a_Node000018"><a xlink:title=" ">
<polygon fill="#e0e0e0" stroke="#999999" points="967,-96 838,-96 838,-66 967,-66 967,-96"/>
<text text-anchor="start" x="846" y="-84" font-family="Helvetica,sans-Serif" font-size="10.00">wrapp/pipes/impl/basic</text>
<text text-anchor="middle" x="902.5" y="-73" font-family="Helvetica,sans-Serif" font-size="10.00">_pipes_impl.hpp</text>
</a>
</g>
</g>
<!-- Node2&#45;&gt;Node18 -->
<g id="edge20_Node000002_Node000018" class="edge">
<title>Node2&#45;&gt;Node18</title>
<g id="a_edge20_Node000002_Node000018"><a xlink:title=" ">
<path fill="none" stroke="#63b8ff" d="M812.14,-131.87C826.79,-123.78 849.19,-111.42 868.02,-101.03"/>
<polygon fill="#63b8ff" stroke="#63b8ff" points="869.86,-104.01 876.92,-96.11 866.48,-97.88 869.86,-104.01"/>
</a>
</g>
</g>
<!-- Node9&#45;&gt;Node7 -->
<g id="edge9_Node000009_Node000007" class="edge">
<title>Node9&#45;&gt;Node7</title>
<g id="a_edge9_Node000009_Node000007"><a xlink:title=" ">
<path fill="none" stroke="#63b8ff" d="M655.12,-71.46C666.3,-69.47 678.32,-67.5 689.5,-66 868.61,-42.01 915.14,-52.05 1094.5,-30 1103.83,-28.85 1113.69,-27.47 1123.31,-26.03"/>
<polygon fill="#63b8ff" stroke="#63b8ff" points="1123.86,-29.49 1133.22,-24.51 1122.81,-22.57 1123.86,-29.49"/>
</a>
</g>
</g>
<!-- Node10 -->
<g id="Node000010" class="node">
<title>Node10</title>
<g id="a_Node000010"><a xlink:title=" ">
<polygon fill="#e0e0e0" stroke="#999999" points="1085,-24.5 986,-24.5 986,-5.5 1085,-5.5 1085,-24.5"/>
<text text-anchor="middle" x="1035.5" y="-12.5" font-family="Helvetica,sans-Serif" font-size="10.00">includes/define.h</text>
</a>
</g>
</g>
<!-- Node9&#45;&gt;Node10 -->
<g id="edge10_Node000009_Node000010" class="edge">
<title>Node9&#45;&gt;Node10</title>
<g id="a_edge10_Node000009_Node000010"><a xlink:title=" ">
<path fill="none" stroke="#63b8ff" d="M657.65,-71.45C668.11,-69.58 679.18,-67.67 689.5,-66 789.66,-49.78 906.55,-33.42 975.61,-24.02"/>
<polygon fill="#63b8ff" stroke="#63b8ff" points="976.42,-27.45 985.86,-22.63 975.48,-20.51 976.42,-27.45"/>
</a>
</g>
</g>
<!-- Node11 -->
<g id="Node000011" class="node">
<title>Node11</title>
<g id="a_Node000011"><a xlink:title=" ">
<polygon fill="#e0e0e0" stroke="#999999" points="761,-24.5 692,-24.5 692,-5.5 761,-5.5 761,-24.5"/>
<text text-anchor="middle" x="726.5" y="-12.5" font-family="Helvetica,sans-Serif" font-size="10.00">type_traits</text>
</a>
</g>
</g>
<!-- Node9&#45;&gt;Node11 -->
<g id="edge11_Node000009_Node000011" class="edge">
<title>Node9&#45;&gt;Node11</title>
<g id="a_edge11_Node000009_Node000011"><a xlink:title=" ">
<path fill="none" stroke="#63b8ff" d="M627.01,-71.37C646.21,-60.68 679.16,-42.35 701.85,-29.72"/>
<polygon fill="#63b8ff" stroke="#63b8ff" points="703.83,-32.62 710.87,-24.7 700.43,-26.5 703.83,-32.62"/>
</a>
</g>
</g>
<!-- Node12 -->
<g id="Node000012" class="node">
<title>Node12</title>
<g id="a_Node000012"><a xlink:title=" ">
<polygon fill="#e0e0e0" stroke="#999999" points="531,-24.5 486,-24.5 486,-5.5 531,-5.5 531,-24.5"/>
<text text-anchor="middle" x="508.5" y="-12.5" font-family="Helvetica,sans-Serif" font-size="10.00">utility</text>
</a>
</g>
</g>
<!-- Node9&#45;&gt;Node12 -->
<g id="edge12_Node000009_Node000012" class="edge">
<title>Node9&#45;&gt;Node12</title>
<g id="a_edge12_Node000009_Node000012"><a xlink:title=" ">
<path fill="none" stroke="#63b8ff" d="M597.61,-71.37C580.56,-60.78 551.43,-42.67 531.13,-30.06"/>
<polygon fill="#63b8ff" stroke="#63b8ff" points="532.84,-27 522.5,-24.7 529.15,-32.95 532.84,-27"/>
</a>
</g>
</g>
<!-- Node13 -->
<g id="Node000013" class="node">
<title>Node13</title>
<g id="a_Node000013"><a xlink:title=" ">
<polygon fill="#e0e0e0" stroke="#999999" points="674,-30 549,-30 549,0 674,0 674,-30"/>
<text text-anchor="start" x="557" y="-18" font-family="Helvetica,sans-Serif" font-size="10.00">wrapp/pipes/impl/pipe</text>
<text text-anchor="middle" x="611.5" y="-7" font-family="Helvetica,sans-Serif" font-size="10.00">_impl.hpp</text>
</a>
</g>
</g>
<!-- Node9&#45;&gt;Node13 -->
<g id="edge13_Node000009_Node000013" class="edge">
<title>Node9&#45;&gt;Node13</title>
<g id="a_edge13_Node000009_Node000013"><a xlink:title=" ">
<path fill="none" stroke="#63b8ff" d="M611.5,-71.37C611.5,-63.49 611.5,-51.45 611.5,-40.6"/>
<polygon fill="#63b8ff" stroke="#63b8ff" points="615,-40.36 611.5,-30.36 608,-40.36 615,-40.36"/>
</a>
</g>
</g>
<!-- Node14&#45;&gt;Node7 -->
<g id="edge16_Node000014_Node000007" class="edge">
<title>Node14&#45;&gt;Node7</title>
<g id="a_edge16_Node000014_Node000007"><a xlink:title=" ">
<path fill="none" stroke="#63b8ff" d="M1085.93,-65.95C1107.37,-54.98 1136.95,-39.83 1157.9,-29.11"/>
<polygon fill="#63b8ff" stroke="#63b8ff" points="1159.56,-32.19 1166.86,-24.52 1156.37,-25.96 1159.56,-32.19"/>
</a>
</g>
</g>
<!-- Node14&#45;&gt;Node10 -->
<g id="edge15_Node000014_Node000010" class="edge">
<title>Node14&#45;&gt;Node10</title>
<g id="a_edge15_Node000014_Node000010"><a xlink:title=" ">
<path fill="none" stroke="#63b8ff" d="M1053.4,-65.8C1050.06,-56.5 1045.66,-44.27 1042.06,-34.26"/>
<polygon fill="#63b8ff" stroke="#63b8ff" points="1045.35,-33.07 1038.68,-24.84 1038.77,-35.44 1045.35,-33.07"/>
</a>
</g>
</g>
<!-- Node19&#45;&gt;Node7 -->
<g id="edge23_Node000019_Node000007" class="edge">
<title>Node19&#45;&gt;Node7</title>
<g id="a_edge23_Node000019_Node000007"><a xlink:title=" ">
<path fill="none" stroke="#63b8ff" d="M1741.07,-131.94C1757.63,-125.06 1777.62,-113.6 1787.5,-96 1794.03,-84.37 1796.53,-75.81 1787.5,-66 1753.5,-29.07 1434.63,-19.42 1274.44,-16.89"/>
<polygon fill="#63b8ff" stroke="#63b8ff" points="1274.17,-13.39 1264.12,-16.74 1274.07,-20.39 1274.17,-13.39"/>
</a>
</g>
</g>
<!-- Node20 -->
<g id="Node000020" class="node">
<title>Node20</title>
<g id="a_Node000020"><a xlink:href="common_8hpp.html" target="_top" xlink:title=" ">
<polygon fill="white" stroke="#666666" points="1632,-90.5 1477,-90.5 1477,-71.5 1632,-71.5 1632,-90.5"/>
<text text-anchor="middle" x="1554.5" y="-78.5" font-family="Helvetica,sans-Serif" font-size="10.00">wrapp/utils/inc/common.hpp</text>
</a>
</g>
</g>
<!-- Node19&#45;&gt;Node20 -->
<g id="edge22_Node000019_Node000020" class="edge">
<title>Node19&#45;&gt;Node20</title>
<g id="a_edge22_Node000019_Node000020"><a xlink:title=" ">
<path fill="none" stroke="#63b8ff" d="M1691.23,-131.99C1663.86,-121.99 1618.23,-105.3 1587.28,-93.99"/>
<polygon fill="#63b8ff" stroke="#63b8ff" points="1588.39,-90.66 1577.79,-90.52 1585.98,-97.24 1588.39,-90.66"/>
</a>
</g>
</g>
<!-- Node19&#45;&gt;Node21 -->
<g id="edge24_Node000019_Node000021" class="edge">
<title>Node19&#45;&gt;Node21</title>
<g id="a_edge24_Node000019_Node000021"><a xlink:title=" ">
<path fill="none" stroke="#63b8ff" d="M1742.42,-131.99C1775.69,-121.86 1831.45,-104.87 1868.6,-93.55"/>
<polygon fill="#63b8ff" stroke="#63b8ff" points="1870,-96.78 1878.55,-90.52 1867.96,-90.08 1870,-96.78"/>
</a>
</g>
</g>
<!-- Node22 -->
<g id="Node000022" class="node">
<title>Node22</title>
<g id="a_Node000022"><a xlink:title=" ">
<polygon fill="#e0e0e0" stroke="#999999" points="1778.5,-96 1650.5,-96 1650.5,-66 1778.5,-66 1778.5,-96"/>
<text text-anchor="start" x="1658.5" y="-84" font-family="Helvetica,sans-Serif" font-size="10.00">includes/kratos_export</text>
<text text-anchor="middle" x="1714.5" y="-73" font-family="Helvetica,sans-Serif" font-size="10.00">_api.h</text>
</a>
</g>
</g>
<!-- Node19&#45;&gt;Node22 -->
<g id="edge25_Node000019_Node000022" class="edge">
<title>Node19&#45;&gt;Node22</title>
<g id="a_edge25_Node000019_Node000022"><a xlink:title=" ">
<path fill="none" stroke="#63b8ff" d="M1714.5,-131.87C1714.5,-125.11 1714.5,-115.35 1714.5,-106.26"/>
<polygon fill="#63b8ff" stroke="#63b8ff" points="1718,-106.11 1714.5,-96.11 1711,-106.11 1718,-106.11"/>
</a>
</g>
</g>
<!-- Node23&#45;&gt;Node5 -->
<g id="edge27_Node000023_Node000005" class="edge">
<title>Node23&#45;&gt;Node5</title>
<g id="a_edge27_Node000023_Node000005"><a xlink:title=" ">
<path fill="none" stroke="#63b8ff" d="M1326.65,-131.87C1326.79,-123.75 1327,-111.31 1327.18,-100.89"/>
<polygon fill="#63b8ff" stroke="#63b8ff" points="1330.68,-100.73 1327.35,-90.67 1323.68,-100.61 1330.68,-100.73"/>
</a>
</g>
</g>
<!-- Node23&#45;&gt;Node10 -->
<g id="edge28_Node000023_Node000010" class="edge">
<title>Node23&#45;&gt;Node10</title>
<g id="a_edge28_Node000023_Node000010"><a xlink:title=" ">
<path fill="none" stroke="#63b8ff" d="M1348.62,-131.95C1363.7,-124.82 1382.51,-113.06 1391.5,-96 1397.72,-84.21 1400.34,-75.98 1391.5,-66 1347.41,-16.24 1159.95,-41.69 1094.5,-30 1089.32,-29.07 1083.92,-27.98 1078.57,-26.81"/>
<polygon fill="#63b8ff" stroke="#63b8ff" points="1078.97,-23.31 1068.44,-24.51 1077.42,-30.14 1078.97,-23.31"/>
</a>
</g>
</g>
</g>
</svg>

<g id="navigator" transform="translate(0 0)" fill="#404254">
  <rect fill="#f2f5e9" fill-opacity="0.5" stroke="#606060" stroke-width=".5" x="0" y="0" width="60" height="60"/>
  <use id="zoomplus" xlink:href="#zoomPlus" x="17" y="9" onmousedown="handleZoom(evt,'in')"/>
  <use id="zoomminus" xlink:href="#zoomMin" x="42" y="9" onmousedown="handleZoom(evt,'out')"/>
  <use id="reset" xlink:href="#resetDef" x="30" y="36" onmousedown="handleReset()"/>
   <use id="arrowup" xlink:href="#arrowUp" x="0" y="0" onmousedown="handlePan(0,-1)"/>
  <use id="arrowright" xlink:href="#arrowRight" x="0" y="0" onmousedown="handlePan(1,0)"/>
  <use id="arrowdown" xlink:href="#arrowDown" x="0" y="0" onmousedown="handlePan(0,1)"/>
  <use id="arrowleft" xlink:href="#arrowLeft" x="0" y="0" onmousedown="handlePan(-1,0)"/>
</g>
<svg viewBox="0 0 15 15" width="100%" height="30px" preserveAspectRatio="xMaxYMin meet">
 <g id="arrow_out" transform="scale(0.3 0.3)">
  <a xlink:href="ModelPredicatePipe_8hpp__incl_org.svg" target="_base">
   <rect id="button" ry="5" rx="5" y="6" x="6" height="38" width="38"
        fill="#f2f5e9" fill-opacity="0.5" stroke="#606060" stroke-width="1.0"/>
   <path id="arrow"
     d="M 11.500037,31.436501 C 11.940474,20.09759 22.043105,11.32322 32.158766,21.979434 L 37.068811,17.246167 C 37.068811,17.246167 37.088388,32 37.088388,32 L 22.160133,31.978069 C 22.160133,31.978069 26.997745,27.140456 26.997745,27.140456 C 18.528582,18.264221 13.291696,25.230495 11.500037,31.436501 z"
     style="fill:#404040;"/>
  </a>
 </g>
</svg>

<style type='text/css'>
<![CDATA[
[data-mouse-over-selected='false'] { opacity: 0.7; }
[data-mouse-over-selected='true']  { opacity: 1.0; }
]]>
</style>
<script type="application/ecmascript"><![CDATA[
document.addEventListener('DOMContentLoaded', (event) => {
  highlightEdges();
  highlightAdjacentNodes();
});
]]></script>
</svg>
