<?xml version="1.0" encoding="UTF-8" standalone="no"?>
<!DOCTYPE svg PUBLIC "-//W3C//DTD SVG 1.1//EN"
 "http://www.w3.org/Graphics/SVG/1.1/DTD/svg11.dtd">
<!-- Generated by graphviz version 2.43.0 (0)
 -->
<!-- Title: ModelPredicatePipe.hpp Pages: 1 -->
<!--zoomable 218 -->
<svg id="main" version="1.1" xmlns="http://www.w3.org/2000/svg" xmlns:xlink="http://www.w3.org/1999/xlink" xml:space="preserve" onload="init(evt)">
<style type="text/css"><![CDATA[
.edge:hover path { stroke: red; }
.edge:hover polygon { stroke: red; fill: red; }
]]></style>
<script type="text/javascript"><![CDATA[
var edges = document.getElementsByTagName('g');
if (edges && edges.length) {
  for (var i=0;i<edges.length;i++) {
    if (edges[i].id.substr(0,4)=='edge') {
      edges[i].setAttribute('class','edge');
    }
  }
}
]]></script>
        <defs>
                <circle id="rim" cx="0" cy="0" r="7"/>
                <circle id="rim2" cx="0" cy="0" r="3.5"/>
                <g id="zoomPlus">
                        <use xlink:href="#rim" fill="#404040">
                                <set attributeName="fill" to="#808080" begin="zoomplus.mouseover" end="zoomplus.mouseout"/>
                        </use>
                        <path d="M-4,0h8M0,-4v8" fill="none" stroke="white" stroke-width="1.5" pointer-events="none"/>
                </g>
                <g id="zoomMin">
                        <use xlink:href="#rim" fill="#404040">
                                <set attributeName="fill" to="#808080" begin="zoomminus.mouseover" end="zoomminus.mouseout"/>
                        </use>
                        <path d="M-4,0h8" fill="none" stroke="white" stroke-width="1.5" pointer-events="none"/>
                </g>
                <g id="dirArrow">
                        <path fill="none" stroke="white" stroke-width="1.5" d="M0,-3.0v7 M-2.5,-0.5L0,-3.0L2.5,-0.5"/>
                </g>
               <g id="resetDef">
                       <use xlink:href="#rim2" fill="#404040">
                               <set attributeName="fill" to="#808080" begin="reset.mouseover" end="reset.mouseout"/>
                       </use>
               </g>
        </defs>

<script type="text/javascript">
var viewWidth = 1986;
var viewHeight = 218;
var sectionId = 'dynsection-0';
</script>
<script xlink:href="svgpan.js"/>
<svg id="graph" class="graph">
<g id="viewport">
<title>ModelPredicatePipe.hpp</title>
<polygon fill="white" stroke="transparent" points="-4,4 -4,-214 1982,-214 1982,4 -4,4"/>
<!-- Node1 -->
<g id="node1" class="node">
<title>Node1</title>
<g id="a_node1"><a xlink:title=" ">
<polygon fill="#bfbfbf" stroke="black" points="1198.5,-190.5 1198.5,-209.5 1332.5,-209.5 1332.5,-190.5 1198.5,-190.5"/>
<text text-anchor="middle" x="1265.5" y="-197.5" font-family="Helvetica,sans-Serif" font-size="10.00">ModelPredicatePipe.hpp</text>
</a>
</g>
</g>
<!-- Node2 -->
<g id="node2" class="node">
<title>Node2</title>
<g id="a_node2"><a xlink:href="basic__pipes_8hpp.html" target="_top" xlink:title=" ">
<polygon fill="white" stroke="black" points="749,-134.5 749,-153.5 844,-153.5 844,-134.5 749,-134.5"/>
<text text-anchor="middle" x="796.5" y="-141.5" font-family="Helvetica,sans-Serif" font-size="10.00">basic_pipes.hpp</text>
</a>
</g>
</g>
<!-- Node1&#45;&gt;Node2 -->
<g id="edge1" class="edge">
<title>Node1&#45;&gt;Node2</title>
<path fill="none" stroke="midnightblue" d="M1198.3,-191.26C1105.96,-180.63 941.41,-161.68 854.29,-151.65"/>
<polygon fill="midnightblue" stroke="midnightblue" points="854.65,-148.17 844.32,-150.51 853.85,-155.13 854.65,-148.17"/>
</g>
<!-- Node6 -->
<g id="node6" class="node">
<title>Node6</title>
<g id="a_node6"><a xlink:title=" ">
<polygon fill="white" stroke="#bfbfbf" points="0,-73 0,-92 125,-92 125,-73 0,-73"/>
<text text-anchor="middle" x="62.5" y="-80" font-family="Helvetica,sans-Serif" font-size="10.00">includes/model_part.h</text>
</a>
</g>
</g>
<!-- Node1&#45;&gt;Node6 -->
<g id="edge30" class="edge">
<title>Node1&#45;&gt;Node6</title>
<path fill="none" stroke="midnightblue" d="M1198.37,-197.28C1064.02,-193.36 752.64,-181.85 492.5,-154 332.37,-136.86 293.03,-126.35 134.5,-98 127.67,-96.78 120.49,-95.42 113.42,-94.04"/>
<polygon fill="midnightblue" stroke="midnightblue" points="113.67,-90.52 103.18,-92.01 112.31,-97.39 113.67,-90.52"/>
</g>
<!-- Node7 -->
<g id="node7" class="node">
<title>Node7</title>
<g id="a_node7"><a xlink:title=" ">
<polygon fill="white" stroke="#bfbfbf" points="1103,-6 1103,-25 1264,-25 1264,-6 1103,-6"/>
<text text-anchor="middle" x="1183.5" y="-13" font-family="Helvetica,sans-Serif" font-size="10.00">includes/kratos_parameters.h</text>
</a>
</g>
</g>
<!-- Node1&#45;&gt;Node7 -->
<g id="edge31" class="edge">
<title>Node1&#45;&gt;Node7</title>
<path fill="none" stroke="midnightblue" d="M1324.37,-190.48C1365.98,-183.11 1416.57,-170.96 1429.5,-154 1434.89,-146.93 1430.9,-142.78 1429.5,-134 1424.55,-103.05 1430.7,-88.08 1407.5,-67 1386.7,-48.1 1320.88,-34.7 1265.93,-26.48"/>
<polygon fill="midnightblue" stroke="midnightblue" points="1266.21,-22.98 1255.81,-25 1265.2,-29.91 1266.21,-22.98"/>
</g>
<!-- Node8 -->
<g id="node8" class="node">
<title>Node8</title>
<g id="a_node8"><a xlink:title=" ">
<polygon fill="white" stroke="#bfbfbf" points="143.5,-67.5 143.5,-97.5 237.5,-97.5 237.5,-67.5 143.5,-67.5"/>
<text text-anchor="start" x="151.5" y="-85.5" font-family="Helvetica,sans-Serif" font-size="10.00">utilities/interval</text>
<text text-anchor="middle" x="190.5" y="-74.5" font-family="Helvetica,sans-Serif" font-size="10.00">_utility.h</text>
</a>
</g>
</g>
<!-- Node1&#45;&gt;Node8 -->
<g id="edge32" class="edge">
<title>Node1&#45;&gt;Node8</title>
<path fill="none" stroke="midnightblue" d="M1198.49,-196.27C1036.19,-188.84 609.37,-164.25 247.63,-98.05"/>
<polygon fill="midnightblue" stroke="midnightblue" points="248.22,-94.6 237.75,-96.23 246.95,-101.49 248.22,-94.6"/>
</g>
<!-- Node16 -->
<g id="node16" class="node">
<title>Node16</title>
<g id="a_node16"><a xlink:title=" ">
<polygon fill="white" stroke="#bfbfbf" points="1189,-73 1189,-92 1254,-92 1254,-73 1189,-73"/>
<text text-anchor="middle" x="1221.5" y="-80" font-family="Helvetica,sans-Serif" font-size="10.00">functional</text>
</a>
</g>
</g>
<!-- Node1&#45;&gt;Node16 -->
<g id="edge33" class="edge">
<title>Node1&#45;&gt;Node16</title>
<path fill="none" stroke="midnightblue" d="M1253.39,-190.19C1243.32,-182.07 1229.67,-169.03 1223.5,-154 1216.75,-137.56 1217.01,-117.09 1218.5,-102.45"/>
<polygon fill="midnightblue" stroke="midnightblue" points="1222.02,-102.52 1219.85,-92.15 1215.08,-101.61 1222.02,-102.52"/>
</g>
<!-- Node19 -->
<g id="node19" class="node">
<title>Node19</title>
<g id="a_node19"><a xlink:href="WRAppClass_8hpp.html" target="_top" xlink:title=" ">
<polygon fill="white" stroke="black" points="1628,-134.5 1628,-153.5 1801,-153.5 1801,-134.5 1628,-134.5"/>
<text text-anchor="middle" x="1714.5" y="-141.5" font-family="Helvetica,sans-Serif" font-size="10.00">wrapp/utils/inc/WRAppClass.hpp</text>
</a>
</g>
</g>
<!-- Node1&#45;&gt;Node19 -->
<g id="edge21" class="edge">
<title>Node1&#45;&gt;Node19</title>
<path fill="none" stroke="midnightblue" d="M1332.72,-190.92C1413.08,-181.25 1547.48,-165.09 1633.5,-154.74"/>
<polygon fill="midnightblue" stroke="midnightblue" points="1633.97,-158.21 1643.48,-153.54 1633.13,-151.26 1633.97,-158.21"/>
</g>
<!-- Node21 -->
<g id="node21" class="node">
<title>Node21</title>
<g id="a_node21"><a xlink:title=" ">
<polygon fill="white" stroke="#bfbfbf" points="1835,-73 1835,-92 1978,-92 1978,-73 1835,-73"/>
<text text-anchor="middle" x="1906.5" y="-80" font-family="Helvetica,sans-Serif" font-size="10.00">includes/smart_pointers.h</text>
</a>
</g>
</g>
<!-- Node1&#45;&gt;Node21 -->
<g id="edge29" class="edge">
<title>Node1&#45;&gt;Node21</title>
<path fill="none" stroke="midnightblue" d="M1332.68,-198C1458.5,-195.37 1724.69,-186.09 1810.5,-154 1842.58,-142 1873.33,-116.02 1891.05,-99.17"/>
<polygon fill="midnightblue" stroke="midnightblue" points="1893.52,-101.64 1898.23,-92.15 1888.63,-96.64 1893.52,-101.64"/>
</g>
<!-- Node23 -->
<g id="node23" class="node">
<title>Node23</title>
<g id="a_node23"><a xlink:href="ModelPredicate_8hpp.html" target="_top" xlink:title=" ">
<polygon fill="white" stroke="black" points="1232.5,-134.5 1232.5,-153.5 1420.5,-153.5 1420.5,-134.5 1232.5,-134.5"/>
<text text-anchor="middle" x="1326.5" y="-141.5" font-family="Helvetica,sans-Serif" font-size="10.00">wrapp/utils/inc/ModelPredicate.hpp</text>
</a>
</g>
</g>
<!-- Node1&#45;&gt;Node23 -->
<g id="edge26" class="edge">
<title>Node1&#45;&gt;Node23</title>
<path fill="none" stroke="midnightblue" d="M1275.3,-190.32C1284.32,-182.34 1297.91,-170.31 1308.82,-160.65"/>
<polygon fill="midnightblue" stroke="midnightblue" points="1311.35,-163.08 1316.52,-153.83 1306.71,-157.84 1311.35,-163.08"/>
</g>
<!-- Node3 -->
<g id="node3" class="node">
<title>Node3</title>
<g id="a_node3"><a xlink:title=" ">
<polygon fill="white" stroke="#bfbfbf" points="256,-73 256,-92 375,-92 375,-73 256,-73"/>
<text text-anchor="middle" x="315.5" y="-80" font-family="Helvetica,sans-Serif" font-size="10.00">containers/variable.h</text>
</a>
</g>
</g>
<!-- Node2&#45;&gt;Node3 -->
<g id="edge2" class="edge">
<title>Node2&#45;&gt;Node3</title>
<path fill="none" stroke="midnightblue" d="M748.91,-139.4C671.83,-133.2 515.06,-119.14 383.5,-98 376.61,-96.89 369.37,-95.55 362.29,-94.13"/>
<polygon fill="midnightblue" stroke="midnightblue" points="362.58,-90.61 352.07,-92.01 361.16,-97.47 362.58,-90.61"/>
</g>
<!-- Node4 -->
<g id="node4" class="node">
<title>Node4</title>
<g id="a_node4"><a xlink:title=" ">
<polygon fill="white" stroke="#bfbfbf" points="393,-73 393,-92 524,-92 524,-73 393,-73"/>
<text text-anchor="middle" x="458.5" y="-80" font-family="Helvetica,sans-Serif" font-size="10.00">includes/process_info.h</text>
</a>
</g>
</g>
<!-- Node2&#45;&gt;Node4 -->
<g id="edge3" class="edge">
<title>Node2&#45;&gt;Node4</title>
<path fill="none" stroke="midnightblue" d="M748.93,-135.18C696.21,-126.43 608.7,-111.7 533.5,-98 526.41,-96.71 518.96,-95.31 511.61,-93.91"/>
<polygon fill="midnightblue" stroke="midnightblue" points="512.18,-90.46 501.7,-92.02 510.86,-97.34 512.18,-90.46"/>
</g>
<!-- Node5 -->
<g id="node5" class="node">
<title>Node5</title>
<g id="a_node5"><a xlink:title=" ">
<polygon fill="white" stroke="#bfbfbf" points="1272.5,-73 1272.5,-92 1382.5,-92 1382.5,-73 1272.5,-73"/>
<text text-anchor="middle" x="1327.5" y="-80" font-family="Helvetica,sans-Serif" font-size="10.00">containers/model.h</text>
</a>
</g>
</g>
<!-- Node2&#45;&gt;Node5 -->
<g id="edge4" class="edge">
<title>Node2&#45;&gt;Node5</title>
<path fill="none" stroke="midnightblue" d="M844.15,-140.41C928.92,-135.35 1111.31,-122.47 1263.5,-98 1269.92,-96.97 1276.66,-95.67 1283.26,-94.29"/>
<polygon fill="midnightblue" stroke="midnightblue" points="1284.43,-97.62 1293.45,-92.06 1282.93,-90.78 1284.43,-97.62"/>
</g>
<!-- Node2&#45;&gt;Node6 -->
<g id="edge5" class="edge">
<title>Node2&#45;&gt;Node6</title>
<path fill="none" stroke="midnightblue" d="M748.93,-141.9C639.83,-138.91 363.42,-128.7 134.5,-98 126.59,-96.94 118.25,-95.53 110.15,-94.01"/>
<polygon fill="midnightblue" stroke="midnightblue" points="110.57,-90.52 100.08,-92.04 109.22,-97.39 110.57,-90.52"/>
</g>
<!-- Node2&#45;&gt;Node7 -->
<g id="edge6" class="edge">
<title>Node2&#45;&gt;Node7</title>
<path fill="none" stroke="midnightblue" d="M844.11,-142.15C927.25,-139.79 1094.54,-130.98 1141.5,-98 1162.73,-83.09 1173.95,-54.12 1179.31,-35.05"/>
<polygon fill="midnightblue" stroke="midnightblue" points="1182.75,-35.69 1181.81,-25.14 1175.97,-33.98 1182.75,-35.69"/>
</g>
<!-- Node2&#45;&gt;Node8 -->
<g id="edge7" class="edge">
<title>Node2&#45;&gt;Node8</title>
<path fill="none" stroke="midnightblue" d="M748.71,-141.85C654.47,-138.98 438.03,-129.44 247.64,-98"/>
<polygon fill="midnightblue" stroke="midnightblue" points="248.17,-94.54 237.73,-96.34 247.02,-101.44 248.17,-94.54"/>
</g>
<!-- Node9 -->
<g id="node9" class="node">
<title>Node9</title>
<g id="a_node9"><a xlink:href="pipe_8hpp.html" target="_top" xlink:title=" ">
<polygon fill="white" stroke="black" points="542.5,-73 542.5,-92 680.5,-92 680.5,-73 542.5,-73"/>
<text text-anchor="middle" x="611.5" y="-80" font-family="Helvetica,sans-Serif" font-size="10.00">wrapp/pipes/inc/pipe.hpp</text>
</a>
</g>
</g>
<!-- Node2&#45;&gt;Node9 -->
<g id="edge8" class="edge">
<title>Node2&#45;&gt;Node9</title>
<path fill="none" stroke="midnightblue" d="M769.99,-134.48C737.85,-124.14 683.51,-106.66 647.57,-95.1"/>
<polygon fill="midnightblue" stroke="midnightblue" points="648.55,-91.74 637.96,-92.01 646.4,-98.4 648.55,-91.74"/>
</g>
<!-- Node14 -->
<g id="node14" class="node">
<title>Node14</title>
<g id="a_node14"><a xlink:href="IntervalUtility_8hpp.html" target="_top" xlink:title=" ">
<polygon fill="white" stroke="black" points="985,-67.5 985,-97.5 1132,-97.5 1132,-67.5 985,-67.5"/>
<text text-anchor="start" x="993" y="-85.5" font-family="Helvetica,sans-Serif" font-size="10.00">wrapp/numeric/inc/Interval</text>
<text text-anchor="middle" x="1058.5" y="-74.5" font-family="Helvetica,sans-Serif" font-size="10.00">Utility.hpp</text>
</a>
</g>
</g>
<!-- Node2&#45;&gt;Node14 -->
<g id="edge14" class="edge">
<title>Node2&#45;&gt;Node14</title>
<path fill="none" stroke="midnightblue" d="M834.04,-134.48C873.75,-125.46 937.37,-111.01 986.76,-99.79"/>
<polygon fill="midnightblue" stroke="midnightblue" points="987.78,-103.15 996.75,-97.52 986.22,-96.32 987.78,-103.15"/>
</g>
<!-- Node15 -->
<g id="node15" class="node">
<title>Node15</title>
<g id="a_node15"><a xlink:title=" ">
<polygon fill="white" stroke="#bfbfbf" points="698.5,-73 698.5,-92 754.5,-92 754.5,-73 698.5,-73"/>
<text text-anchor="middle" x="726.5" y="-80" font-family="Helvetica,sans-Serif" font-size="10.00">optional</text>
</a>
</g>
</g>
<!-- Node2&#45;&gt;Node15 -->
<g id="edge17" class="edge">
<title>Node2&#45;&gt;Node15</title>
<path fill="none" stroke="midnightblue" d="M786.47,-134.48C775.45,-125.11 757.54,-109.88 744.16,-98.51"/>
<polygon fill="midnightblue" stroke="midnightblue" points="746.4,-95.82 736.51,-92.01 741.86,-101.15 746.4,-95.82"/>
</g>
<!-- Node2&#45;&gt;Node16 -->
<g id="edge18" class="edge">
<title>Node2&#45;&gt;Node16</title>
<path fill="none" stroke="midnightblue" d="M844.09,-140.1C916.2,-135.1 1057.16,-122.87 1174.5,-98 1178.64,-97.12 1182.93,-96.04 1187.16,-94.87"/>
<polygon fill="midnightblue" stroke="midnightblue" points="1188.24,-98.21 1196.84,-92.02 1186.26,-91.49 1188.24,-98.21"/>
</g>
<!-- Node17 -->
<g id="node17" class="node">
<title>Node17</title>
<g id="a_node17"><a xlink:title=" ">
<polygon fill="white" stroke="#bfbfbf" points="773,-73 773,-92 820,-92 820,-73 773,-73"/>
<text text-anchor="middle" x="796.5" y="-80" font-family="Helvetica,sans-Serif" font-size="10.00">cmath</text>
</a>
</g>
</g>
<!-- Node2&#45;&gt;Node17 -->
<g id="edge19" class="edge">
<title>Node2&#45;&gt;Node17</title>
<path fill="none" stroke="midnightblue" d="M796.5,-134.48C796.5,-126.08 796.5,-112.98 796.5,-102.16"/>
<polygon fill="midnightblue" stroke="midnightblue" points="800,-102.01 796.5,-92.01 793,-102.01 800,-102.01"/>
</g>
<!-- Node18 -->
<g id="node18" class="node">
<title>Node18</title>
<g id="a_node18"><a xlink:title=" ">
<polygon fill="white" stroke="#bfbfbf" points="838,-67.5 838,-97.5 967,-97.5 967,-67.5 838,-67.5"/>
<text text-anchor="start" x="846" y="-85.5" font-family="Helvetica,sans-Serif" font-size="10.00">wrapp/pipes/impl/basic</text>
<text text-anchor="middle" x="902.5" y="-74.5" font-family="Helvetica,sans-Serif" font-size="10.00">_pipes_impl.hpp</text>
</a>
</g>
</g>
<!-- Node2&#45;&gt;Node18 -->
<g id="edge20" class="edge">
<title>Node2&#45;&gt;Node18</title>
<path fill="none" stroke="midnightblue" d="M811.69,-134.48C826.51,-126.15 849.58,-113.21 868.75,-102.45"/>
<polygon fill="midnightblue" stroke="midnightblue" points="870.51,-105.47 877.52,-97.52 867.08,-99.37 870.51,-105.47"/>
</g>
<!-- Node9&#45;&gt;Node7 -->
<g id="edge9" class="edge">
<title>Node9&#45;&gt;Node7</title>
<path fill="none" stroke="midnightblue" d="M653.48,-72.94C665.11,-70.77 677.76,-68.61 689.5,-67 868.54,-42.46 915.2,-53.54 1094.5,-31 1104.4,-29.75 1114.89,-28.23 1125.06,-26.64"/>
<polygon fill="midnightblue" stroke="midnightblue" points="1125.77,-30.08 1135.09,-25.04 1124.67,-23.16 1125.77,-30.08"/>
</g>
<!-- Node10 -->
<g id="node10" class="node">
<title>Node10</title>
<g id="a_node10"><a xlink:title=" ">
<polygon fill="white" stroke="#bfbfbf" points="986,-6 986,-25 1085,-25 1085,-6 986,-6"/>
<text text-anchor="middle" x="1035.5" y="-13" font-family="Helvetica,sans-Serif" font-size="10.00">includes/define.h</text>
</a>
</g>
</g>
<!-- Node9&#45;&gt;Node10 -->
<g id="edge10" class="edge">
<title>Node9&#45;&gt;Node10</title>
<path fill="none" stroke="midnightblue" d="M655.59,-73C666.64,-70.95 678.49,-68.83 689.5,-67 789.61,-50.4 906.52,-33.94 975.59,-24.52"/>
<polygon fill="midnightblue" stroke="midnightblue" points="976.41,-27.95 985.84,-23.13 975.46,-21.01 976.41,-27.95"/>
</g>
<!-- Node11 -->
<g id="node11" class="node">
<title>Node11</title>
<g id="a_node11"><a xlink:title=" ">
<polygon fill="white" stroke="#bfbfbf" points="692,-6 692,-25 761,-25 761,-6 692,-6"/>
<text text-anchor="middle" x="726.5" y="-13" font-family="Helvetica,sans-Serif" font-size="10.00">type_traits</text>
</a>
</g>
</g>
<!-- Node9&#45;&gt;Node11 -->
<g id="edge11" class="edge">
<title>Node9&#45;&gt;Node11</title>
<path fill="none" stroke="midnightblue" d="M627.01,-72.73C646.41,-61.77 679.83,-42.88 702.53,-30.05"/>
<polygon fill="midnightblue" stroke="midnightblue" points="704.25,-33.09 711.24,-25.13 700.81,-27 704.25,-33.09"/>
</g>
<!-- Node12 -->
<g id="node12" class="node">
<title>Node12</title>
<g id="a_node12"><a xlink:title=" ">
<polygon fill="white" stroke="#bfbfbf" points="486,-6 486,-25 531,-25 531,-6 486,-6"/>
<text text-anchor="middle" x="508.5" y="-13" font-family="Helvetica,sans-Serif" font-size="10.00">utility</text>
</a>
</g>
</g>
<!-- Node9&#45;&gt;Node12 -->
<g id="edge12" class="edge">
<title>Node9&#45;&gt;Node12</title>
<path fill="none" stroke="midnightblue" d="M597.61,-72.73C580.47,-61.92 551.1,-43.38 530.79,-30.57"/>
<polygon fill="midnightblue" stroke="midnightblue" points="532.5,-27.5 522.17,-25.13 528.76,-33.42 532.5,-27.5"/>
</g>
<!-- Node13 -->
<g id="node13" class="node">
<title>Node13</title>
<g id="a_node13"><a xlink:title=" ">
<polygon fill="white" stroke="#bfbfbf" points="549,-0.5 549,-30.5 674,-30.5 674,-0.5 549,-0.5"/>
<text text-anchor="start" x="557" y="-18.5" font-family="Helvetica,sans-Serif" font-size="10.00">wrapp/pipes/impl/pipe</text>
<text text-anchor="middle" x="611.5" y="-7.5" font-family="Helvetica,sans-Serif" font-size="10.00">_impl.hpp</text>
</a>
</g>
</g>
<!-- Node9&#45;&gt;Node13 -->
<g id="edge13" class="edge">
<title>Node9&#45;&gt;Node13</title>
<path fill="none" stroke="midnightblue" d="M611.5,-72.73C611.5,-64.54 611.5,-51.92 611.5,-40.71"/>
<polygon fill="midnightblue" stroke="midnightblue" points="615,-40.59 611.5,-30.59 608,-40.59 615,-40.59"/>
</g>
<!-- Node14&#45;&gt;Node7 -->
<g id="edge16" class="edge">
<title>Node14&#45;&gt;Node7</title>
<path fill="none" stroke="midnightblue" d="M1085.62,-67.4C1107.17,-56.19 1137.07,-40.64 1158.14,-29.69"/>
<polygon fill="midnightblue" stroke="midnightblue" points="1159.88,-32.73 1167.14,-25.01 1156.65,-26.52 1159.88,-32.73"/>
</g>
<!-- Node14&#45;&gt;Node10 -->
<g id="edge15" class="edge">
<title>Node14&#45;&gt;Node10</title>
<path fill="none" stroke="midnightblue" d="M1053.51,-67.4C1050.14,-57.86 1045.65,-45.18 1042,-34.86"/>
<polygon fill="midnightblue" stroke="midnightblue" points="1045.21,-33.45 1038.58,-25.19 1038.61,-35.79 1045.21,-33.45"/>
</g>
<!-- Node19&#45;&gt;Node7 -->
<g id="edge23" class="edge">
<title>Node19&#45;&gt;Node7</title>
<path fill="none" stroke="midnightblue" d="M1740.71,-134.41C1757.35,-127.44 1777.56,-115.81 1787.5,-98 1794.22,-85.97 1796.83,-77.14 1787.5,-67 1753.52,-30.06 1434.64,-20.13 1274.44,-17.47"/>
<polygon fill="midnightblue" stroke="midnightblue" points="1274.18,-13.96 1264.12,-17.3 1274.07,-20.96 1274.18,-13.96"/>
</g>
<!-- Node20 -->
<g id="node20" class="node">
<title>Node20</title>
<g id="a_node20"><a xlink:href="common_8hpp.html" target="_top" xlink:title=" ">
<polygon fill="white" stroke="black" points="1477,-73 1477,-92 1632,-92 1632,-73 1477,-73"/>
<text text-anchor="middle" x="1554.5" y="-80" font-family="Helvetica,sans-Serif" font-size="10.00">wrapp/utils/inc/common.hpp</text>
</a>
</g>
</g>
<!-- Node19&#45;&gt;Node20 -->
<g id="edge22" class="edge">
<title>Node19&#45;&gt;Node20</title>
<path fill="none" stroke="midnightblue" d="M1691.58,-134.48C1664.13,-124.27 1617.98,-107.11 1586.9,-95.55"/>
<polygon fill="midnightblue" stroke="midnightblue" points="1587.97,-92.21 1577.38,-92.01 1585.53,-98.78 1587.97,-92.21"/>
</g>
<!-- Node19&#45;&gt;Node21 -->
<g id="edge24" class="edge">
<title>Node19&#45;&gt;Node21</title>
<path fill="none" stroke="midnightblue" d="M1742.01,-134.48C1775.37,-124.14 1831.76,-106.66 1869.06,-95.1"/>
<polygon fill="midnightblue" stroke="midnightblue" points="1870.53,-98.31 1879.04,-92.01 1868.45,-91.63 1870.53,-98.31"/>
</g>
<!-- Node22 -->
<g id="node22" class="node">
<title>Node22</title>
<g id="a_node22"><a xlink:title=" ">
<polygon fill="white" stroke="#bfbfbf" points="1650.5,-67.5 1650.5,-97.5 1778.5,-97.5 1778.5,-67.5 1650.5,-67.5"/>
<text text-anchor="start" x="1658.5" y="-85.5" font-family="Helvetica,sans-Serif" font-size="10.00">includes/kratos_export</text>
<text text-anchor="middle" x="1714.5" y="-74.5" font-family="Helvetica,sans-Serif" font-size="10.00">_api.h</text>
</a>
</g>
</g>
<!-- Node19&#45;&gt;Node22 -->
<g id="edge25" class="edge">
<title>Node19&#45;&gt;Node22</title>
<path fill="none" stroke="midnightblue" d="M1714.5,-134.48C1714.5,-127.47 1714.5,-117.19 1714.5,-107.7"/>
<polygon fill="midnightblue" stroke="midnightblue" points="1718,-107.52 1714.5,-97.52 1711,-107.52 1718,-107.52"/>
</g>
<!-- Node23&#45;&gt;Node5 -->
<g id="edge27" class="edge">
<title>Node23&#45;&gt;Node5</title>
<path fill="none" stroke="midnightblue" d="M1326.64,-134.48C1326.78,-126.08 1327,-112.98 1327.19,-102.16"/>
<polygon fill="midnightblue" stroke="midnightblue" points="1330.69,-102.07 1327.36,-92.01 1323.69,-101.95 1330.69,-102.07"/>
</g>
<!-- Node23&#45;&gt;Node10 -->
<g id="edge28" class="edge">
<title>Node23&#45;&gt;Node10</title>
<path fill="none" stroke="midnightblue" d="M1348.31,-134.45C1363.44,-127.22 1382.45,-115.26 1391.5,-98 1397.89,-85.8 1400.64,-77.31 1391.5,-67 1347.41,-17.24 1159.9,-42.96 1094.5,-31 1088.92,-29.98 1083.09,-28.75 1077.35,-27.44"/>
<polygon fill="midnightblue" stroke="midnightblue" points="1077.73,-23.94 1067.19,-25.03 1076.12,-30.75 1077.73,-23.94"/>
</g>
</g>
</svg>
        <g id="navigator" transform="translate(0 0)" fill="#404254">
                <rect fill="#f2f5e9" fill-opacity="0.5" stroke="#606060" stroke-width=".5" x="0" y="0" width="60" height="60"/>
                <use id="zoomplus" xlink:href="#zoomPlus" x="17" y="9" onmousedown="handleZoom(evt,'in')"/>
                <use id="zoomminus" xlink:href="#zoomMin" x="42" y="9" onmousedown="handleZoom(evt,'out')"/>
                <use id="reset" xlink:href="#resetDef" x="30" y="36" onmousedown="handleReset()"/>
                <g id="arrowUp" xlink:href="#dirArrow" transform="translate(30 24)" onmousedown="handlePan(0,-1)">
                  <use xlink:href="#rim" fill="#404040">
                        <set attributeName="fill" to="#808080" begin="arrowUp.mouseover" end="arrowUp.mouseout"/>
                  </use>
                  <path fill="none" stroke="white" stroke-width="1.5" d="M0,-3.0v7 M-2.5,-0.5L0,-3.0L2.5,-0.5"/>
                </g>
                <g id="arrowRight" xlink:href="#dirArrow" transform="rotate(90) translate(36 -43)" onmousedown="handlePan(1,0)">
                  <use xlink:href="#rim" fill="#404040">
                        <set attributeName="fill" to="#808080" begin="arrowRight.mouseover" end="arrowRight.mouseout"/>
                  </use>
                  <path fill="none" stroke="white" stroke-width="1.5" d="M0,-3.0v7 M-2.5,-0.5L0,-3.0L2.5,-0.5"/>
                </g>
                <g id="arrowDown" xlink:href="#dirArrow" transform="rotate(180) translate(-30 -48)" onmousedown="handlePan(0,1)">
                  <use xlink:href="#rim" fill="#404040">
                        <set attributeName="fill" to="#808080" begin="arrowDown.mouseover" end="arrowDown.mouseout"/>
                  </use>
                  <path fill="none" stroke="white" stroke-width="1.5" d="M0,-3.0v7 M-2.5,-0.5L0,-3.0L2.5,-0.5"/>
                </g>
                <g id="arrowLeft" xlink:href="#dirArrow" transform="rotate(270) translate(-36 17)" onmousedown="handlePan(-1,0)">
                  <use xlink:href="#rim" fill="#404040">
                        <set attributeName="fill" to="#808080" begin="arrowLeft.mouseover" end="arrowLeft.mouseout"/>
                  </use>
                  <path fill="none" stroke="white" stroke-width="1.5" d="M0,-3.0v7 M-2.5,-0.5L0,-3.0L2.5,-0.5"/>
                </g>
        </g>
        <svg viewBox="0 0 15 15" width="100%" height="30px" preserveAspectRatio="xMaxYMin meet">
         <g id="arrow_out" transform="scale(0.3 0.3)">
          <a xlink:href="ModelPredicatePipe_8hpp__incl_org.svg" target="_base">
           <rect id="button" ry="5" rx="5" y="6" x="6" height="38" width="38"
                fill="#f2f5e9" fill-opacity="0.5" stroke="#606060" stroke-width="1.0"/>
           <path id="arrow"
             d="M 11.500037,31.436501 C 11.940474,20.09759 22.043105,11.32322 32.158766,21.979434 L 37.068811,17.246167 C 37.068811,17.246167 37.088388,32 37.088388,32 L 22.160133,31.978069 C 22.160133,31.978069 26.997745,27.140456 26.997745,27.140456 C 18.528582,18.264221 13.291696,25.230495 11.500037,31.436501 z"
             style="fill:#404040;"/>
          </a>
         </g>
        </svg>
</svg>
