<?xml version="1.0" encoding="UTF-8" standalone="no"?>
<!DOCTYPE svg PUBLIC "-//W3C//DTD SVG 1.1//EN"
 "http://www.w3.org/Graphics/SVG/1.1/DTD/svg11.dtd">
<!-- Generated by graphviz version 2.43.0 (0)
 -->
<!-- Title: ModelPredicatePipe.hpp Pages: 1 -->
<svg width="1812pt" height="218pt"
 viewBox="0.00 0.00 1812.00 218.00" xmlns="http://www.w3.org/2000/svg" xmlns:xlink="http://www.w3.org/1999/xlink">
<g id="graph0" class="graph" transform="scale(1 1) rotate(0) translate(4 214)">
<title>ModelPredicatePipe.hpp</title>
<polygon fill="white" stroke="transparent" points="-4,4 -4,-214 1808,-214 1808,4 -4,4"/>
<!-- Node1 -->
<g id="node1" class="node">
<title>Node1</title>
<g id="a_node1"><a xlink:title=" ">
<polygon fill="#bfbfbf" stroke="black" points="1198.5,-190.5 1198.5,-209.5 1332.5,-209.5 1332.5,-190.5 1198.5,-190.5"/>
<text text-anchor="middle" x="1265.5" y="-197.5" font-family="Helvetica,sans-Serif" font-size="10.00">ModelPredicatePipe.hpp</text>
</a>
</g>
</g>
<!-- Node2 -->
<g id="node2" class="node">
<title>Node2</title>
<g id="a_node2"><a xlink:href="basic__pipes_8hpp.html" target="_top" xlink:title=" ">
<polygon fill="white" stroke="black" points="697,-134.5 697,-153.5 792,-153.5 792,-134.5 697,-134.5"/>
<text text-anchor="middle" x="744.5" y="-141.5" font-family="Helvetica,sans-Serif" font-size="10.00">basic_pipes.hpp</text>
</a>
</g>
</g>
<!-- Node1&#45;&gt;Node2 -->
<g id="edge1" class="edge">
<title>Node1&#45;&gt;Node2</title>
<path fill="none" stroke="midnightblue" d="M1198.45,-192.05C1095.44,-181.37 899.95,-161.11 802.6,-151.02"/>
<polygon fill="midnightblue" stroke="midnightblue" points="802.67,-147.51 792.36,-149.96 801.94,-154.47 802.67,-147.51"/>
</g>
<!-- Node6 -->
<g id="node6" class="node">
<title>Node6</title>
<g id="a_node6"><a xlink:title=" ">
<polygon fill="white" stroke="#bfbfbf" points="0,-73 0,-92 125,-92 125,-73 0,-73"/>
<text text-anchor="middle" x="62.5" y="-80" font-family="Helvetica,sans-Serif" font-size="10.00">includes/model_part.h</text>
</a>
</g>
</g>
<!-- Node1&#45;&gt;Node6 -->
<g id="edge29" class="edge">
<title>Node1&#45;&gt;Node6</title>
<path fill="none" stroke="midnightblue" d="M1198.3,-197.76C1060.36,-194.67 735.43,-184.5 464.5,-154 336.39,-139.58 187.32,-110.05 111.8,-94.17"/>
<polygon fill="midnightblue" stroke="midnightblue" points="112.15,-90.66 101.64,-92.02 110.7,-97.51 112.15,-90.66"/>
</g>
<!-- Node7 -->
<g id="node7" class="node">
<title>Node7</title>
<g id="a_node7"><a xlink:title=" ">
<polygon fill="white" stroke="#bfbfbf" points="1126,-6 1126,-25 1287,-25 1287,-6 1126,-6"/>
<text text-anchor="middle" x="1206.5" y="-13" font-family="Helvetica,sans-Serif" font-size="10.00">includes/kratos_parameters.h</text>
</a>
</g>
</g>
<!-- Node1&#45;&gt;Node7 -->
<g id="edge30" class="edge">
<title>Node1&#45;&gt;Node7</title>
<path fill="none" stroke="midnightblue" d="M1324.37,-190.48C1365.98,-183.11 1416.57,-170.96 1429.5,-154 1434.89,-146.93 1430.9,-142.78 1429.5,-134 1424.55,-103.05 1430.44,-88.36 1407.5,-67 1377.89,-39.43 1335.51,-26.33 1297.29,-20.32"/>
<polygon fill="midnightblue" stroke="midnightblue" points="1297.55,-16.82 1287.16,-18.87 1296.56,-23.75 1297.55,-16.82"/>
</g>
<!-- Node8 -->
<g id="node8" class="node">
<title>Node8</title>
<g id="a_node8"><a xlink:title=" ">
<polygon fill="white" stroke="#bfbfbf" points="143.5,-67.5 143.5,-97.5 237.5,-97.5 237.5,-67.5 143.5,-67.5"/>
<text text-anchor="start" x="151.5" y="-85.5" font-family="Helvetica,sans-Serif" font-size="10.00">utilities/interval</text>
<text text-anchor="middle" x="190.5" y="-74.5" font-family="Helvetica,sans-Serif" font-size="10.00">_utility.h</text>
</a>
</g>
</g>
<!-- Node1&#45;&gt;Node8 -->
<g id="edge31" class="edge">
<title>Node1&#45;&gt;Node8</title>
<path fill="none" stroke="midnightblue" d="M1198.43,-196.57C1036.01,-189.8 608.93,-166.57 247.62,-98.07"/>
<polygon fill="midnightblue" stroke="midnightblue" points="248.24,-94.63 237.76,-96.19 246.93,-101.5 248.24,-94.63"/>
</g>
<!-- Node16 -->
<g id="node16" class="node">
<title>Node16</title>
<g id="a_node16"><a xlink:title=" ">
<polygon fill="white" stroke="#bfbfbf" points="1189,-73 1189,-92 1254,-92 1254,-73 1189,-73"/>
<text text-anchor="middle" x="1221.5" y="-80" font-family="Helvetica,sans-Serif" font-size="10.00">functional</text>
</a>
</g>
</g>
<!-- Node1&#45;&gt;Node16 -->
<g id="edge32" class="edge">
<title>Node1&#45;&gt;Node16</title>
<path fill="none" stroke="midnightblue" d="M1253.39,-190.19C1243.32,-182.07 1229.67,-169.03 1223.5,-154 1216.75,-137.56 1217.01,-117.09 1218.5,-102.45"/>
<polygon fill="midnightblue" stroke="midnightblue" points="1222.02,-102.52 1219.85,-92.15 1215.08,-101.61 1222.02,-102.52"/>
</g>
<!-- Node19 -->
<g id="node19" class="node">
<title>Node19</title>
<g id="a_node19"><a xlink:href="WRAppClass_8hpp.html" target="_top" xlink:title=" ">
<polygon fill="white" stroke="black" points="1484,-134.5 1484,-153.5 1657,-153.5 1657,-134.5 1484,-134.5"/>
<text text-anchor="middle" x="1570.5" y="-141.5" font-family="Helvetica,sans-Serif" font-size="10.00">wrapp/utils/inc/WRAppClass.hpp</text>
</a>
</g>
</g>
<!-- Node1&#45;&gt;Node19 -->
<g id="edge21" class="edge">
<title>Node1&#45;&gt;Node19</title>
<path fill="none" stroke="midnightblue" d="M1313.83,-190.44C1367.7,-180.9 1454.81,-165.48 1512.36,-155.29"/>
<polygon fill="midnightblue" stroke="midnightblue" points="1513.16,-158.71 1522.4,-153.52 1511.94,-151.81 1513.16,-158.71"/>
</g>
<!-- Node20 -->
<g id="node20" class="node">
<title>Node20</title>
<g id="a_node20"><a xlink:title=" ">
<polygon fill="white" stroke="#bfbfbf" points="1661,-73 1661,-92 1804,-92 1804,-73 1661,-73"/>
<text text-anchor="middle" x="1732.5" y="-80" font-family="Helvetica,sans-Serif" font-size="10.00">includes/smart_pointers.h</text>
</a>
</g>
</g>
<!-- Node1&#45;&gt;Node20 -->
<g id="edge28" class="edge">
<title>Node1&#45;&gt;Node20</title>
<path fill="none" stroke="midnightblue" d="M1332.77,-197.04C1431.37,-193.24 1609.6,-182.55 1666.5,-154 1690.3,-142.06 1709.97,-117.8 1721.48,-101.1"/>
<polygon fill="midnightblue" stroke="midnightblue" points="1724.7,-102.57 1727.28,-92.29 1718.86,-98.72 1724.7,-102.57"/>
</g>
<!-- Node22 -->
<g id="node22" class="node">
<title>Node22</title>
<g id="a_node22"><a xlink:href="ModelPredicate_8hpp.html" target="_top" xlink:title=" ">
<polygon fill="white" stroke="black" points="1232.5,-134.5 1232.5,-153.5 1420.5,-153.5 1420.5,-134.5 1232.5,-134.5"/>
<text text-anchor="middle" x="1326.5" y="-141.5" font-family="Helvetica,sans-Serif" font-size="10.00">wrapp/utils/inc/ModelPredicate.hpp</text>
</a>
</g>
</g>
<!-- Node1&#45;&gt;Node22 -->
<g id="edge25" class="edge">
<title>Node1&#45;&gt;Node22</title>
<path fill="none" stroke="midnightblue" d="M1275.3,-190.32C1284.32,-182.34 1297.91,-170.31 1308.82,-160.65"/>
<polygon fill="midnightblue" stroke="midnightblue" points="1311.35,-163.08 1316.52,-153.83 1306.71,-157.84 1311.35,-163.08"/>
</g>
<!-- Node3 -->
<g id="node3" class="node">
<title>Node3</title>
<g id="a_node3"><a xlink:title=" ">
<polygon fill="white" stroke="#bfbfbf" points="542,-73 542,-92 661,-92 661,-73 542,-73"/>
<text text-anchor="middle" x="601.5" y="-80" font-family="Helvetica,sans-Serif" font-size="10.00">containers/variable.h</text>
</a>
</g>
</g>
<!-- Node2&#45;&gt;Node3 -->
<g id="edge2" class="edge">
<title>Node2&#45;&gt;Node3</title>
<path fill="none" stroke="midnightblue" d="M724.01,-134.48C699.69,-124.36 658.95,-107.4 631.18,-95.85"/>
<polygon fill="midnightblue" stroke="midnightblue" points="632.53,-92.62 621.95,-92.01 629.84,-99.08 632.53,-92.62"/>
</g>
<!-- Node4 -->
<g id="node4" class="node">
<title>Node4</title>
<g id="a_node4"><a xlink:title=" ">
<polygon fill="white" stroke="#bfbfbf" points="679,-73 679,-92 810,-92 810,-73 679,-73"/>
<text text-anchor="middle" x="744.5" y="-80" font-family="Helvetica,sans-Serif" font-size="10.00">includes/process_info.h</text>
</a>
</g>
</g>
<!-- Node2&#45;&gt;Node4 -->
<g id="edge3" class="edge">
<title>Node2&#45;&gt;Node4</title>
<path fill="none" stroke="midnightblue" d="M744.5,-134.48C744.5,-126.08 744.5,-112.98 744.5,-102.16"/>
<polygon fill="midnightblue" stroke="midnightblue" points="748,-102.01 744.5,-92.01 741,-102.01 748,-102.01"/>
</g>
<!-- Node5 -->
<g id="node5" class="node">
<title>Node5</title>
<g id="a_node5"><a xlink:title=" ">
<polygon fill="white" stroke="#bfbfbf" points="1272.5,-73 1272.5,-92 1382.5,-92 1382.5,-73 1272.5,-73"/>
<text text-anchor="middle" x="1327.5" y="-80" font-family="Helvetica,sans-Serif" font-size="10.00">containers/model.h</text>
</a>
</g>
</g>
<!-- Node2&#45;&gt;Node5 -->
<g id="edge4" class="edge">
<title>Node2&#45;&gt;Node5</title>
<path fill="none" stroke="midnightblue" d="M792.35,-141.03C884.16,-136.78 1091.25,-124.85 1263.5,-98 1270.16,-96.96 1277.15,-95.63 1283.97,-94.2"/>
<polygon fill="midnightblue" stroke="midnightblue" points="1284.77,-97.6 1293.79,-92.04 1283.27,-90.77 1284.77,-97.6"/>
</g>
<!-- Node2&#45;&gt;Node6 -->
<g id="edge5" class="edge">
<title>Node2&#45;&gt;Node6</title>
<path fill="none" stroke="midnightblue" d="M696.83,-141.51C593.8,-137.85 342.81,-126.55 134.5,-98 126.68,-96.93 118.44,-95.53 110.43,-94.02"/>
<polygon fill="midnightblue" stroke="midnightblue" points="110.95,-90.56 100.46,-92.07 109.6,-97.43 110.95,-90.56"/>
</g>
<!-- Node2&#45;&gt;Node7 -->
<g id="edge6" class="edge">
<title>Node2&#45;&gt;Node7</title>
<path fill="none" stroke="midnightblue" d="M792.01,-142.11C883.97,-139.66 1082.47,-130.65 1141.5,-98 1167.93,-83.38 1187.53,-53.18 1197.97,-33.93"/>
<polygon fill="midnightblue" stroke="midnightblue" points="1201.1,-35.49 1202.58,-25 1194.88,-32.28 1201.1,-35.49"/>
</g>
<!-- Node2&#45;&gt;Node8 -->
<g id="edge7" class="edge">
<title>Node2&#45;&gt;Node8</title>
<path fill="none" stroke="midnightblue" d="M696.78,-141.28C609.4,-137.57 417.78,-126.83 247.62,-98.01"/>
<polygon fill="midnightblue" stroke="midnightblue" points="248.19,-94.55 237.74,-96.31 247,-101.45 248.19,-94.55"/>
</g>
<!-- Node9 -->
<g id="node9" class="node">
<title>Node9</title>
<g id="a_node9"><a xlink:href="pipe_8hpp.html" target="_top" xlink:title=" ">
<polygon fill="white" stroke="black" points="828.5,-73 828.5,-92 966.5,-92 966.5,-73 828.5,-73"/>
<text text-anchor="middle" x="897.5" y="-80" font-family="Helvetica,sans-Serif" font-size="10.00">wrapp/pipes/inc/pipe.hpp</text>
</a>
</g>
</g>
<!-- Node2&#45;&gt;Node9 -->
<g id="edge8" class="edge">
<title>Node2&#45;&gt;Node9</title>
<path fill="none" stroke="midnightblue" d="M766.42,-134.48C792.55,-124.31 836.41,-107.26 866.13,-95.7"/>
<polygon fill="midnightblue" stroke="midnightblue" points="867.57,-98.9 875.62,-92.01 865.03,-92.37 867.57,-98.9"/>
</g>
<!-- Node14 -->
<g id="node14" class="node">
<title>Node14</title>
<g id="a_node14"><a xlink:href="IntervalUtility_8hpp.html" target="_top" xlink:title=" ">
<polygon fill="white" stroke="black" points="985,-67.5 985,-97.5 1132,-97.5 1132,-67.5 985,-67.5"/>
<text text-anchor="start" x="993" y="-85.5" font-family="Helvetica,sans-Serif" font-size="10.00">wrapp/numeric/inc/Interval</text>
<text text-anchor="middle" x="1058.5" y="-74.5" font-family="Helvetica,sans-Serif" font-size="10.00">Utility.hpp</text>
</a>
</g>
</g>
<!-- Node2&#45;&gt;Node14 -->
<g id="edge14" class="edge">
<title>Node2&#45;&gt;Node14</title>
<path fill="none" stroke="midnightblue" d="M789.49,-134.48C837.66,-125.35 915.19,-110.66 974.67,-99.39"/>
<polygon fill="midnightblue" stroke="midnightblue" points="975.63,-102.77 984.8,-97.47 974.32,-95.89 975.63,-102.77"/>
</g>
<!-- Node15 -->
<g id="node15" class="node">
<title>Node15</title>
<g id="a_node15"><a xlink:title=" ">
<polygon fill="white" stroke="#bfbfbf" points="255.5,-73 255.5,-92 311.5,-92 311.5,-73 255.5,-73"/>
<text text-anchor="middle" x="283.5" y="-80" font-family="Helvetica,sans-Serif" font-size="10.00">optional</text>
</a>
</g>
</g>
<!-- Node2&#45;&gt;Node15 -->
<g id="edge17" class="edge">
<title>Node2&#45;&gt;Node15</title>
<path fill="none" stroke="midnightblue" d="M696.73,-142.08C617.47,-139.63 454.25,-130.68 320.5,-98 317.67,-97.31 314.77,-96.45 311.9,-95.5"/>
<polygon fill="midnightblue" stroke="midnightblue" points="312.98,-92.17 302.39,-92.02 310.58,-98.75 312.98,-92.17"/>
</g>
<!-- Node2&#45;&gt;Node16 -->
<g id="edge18" class="edge">
<title>Node2&#45;&gt;Node16</title>
<path fill="none" stroke="midnightblue" d="M792.04,-141.05C871.82,-137.11 1037.35,-126.05 1174.5,-98 1178.64,-97.15 1182.94,-96.09 1187.18,-94.93"/>
<polygon fill="midnightblue" stroke="midnightblue" points="1188.24,-98.26 1196.85,-92.09 1186.27,-91.55 1188.24,-98.26"/>
</g>
<!-- Node17 -->
<g id="node17" class="node">
<title>Node17</title>
<g id="a_node17"><a xlink:title=" ">
<polygon fill="white" stroke="#bfbfbf" points="330,-73 330,-92 377,-92 377,-73 330,-73"/>
<text text-anchor="middle" x="353.5" y="-80" font-family="Helvetica,sans-Serif" font-size="10.00">cmath</text>
</a>
</g>
</g>
<!-- Node2&#45;&gt;Node17 -->
<g id="edge19" class="edge">
<title>Node2&#45;&gt;Node17</title>
<path fill="none" stroke="midnightblue" d="M696.85,-141.56C627.22,-138.45 494.16,-128.67 385.5,-98 383.35,-97.39 381.17,-96.67 379,-95.86"/>
<polygon fill="midnightblue" stroke="midnightblue" points="380.33,-92.62 369.75,-92 377.63,-99.08 380.33,-92.62"/>
</g>
<!-- Node18 -->
<g id="node18" class="node">
<title>Node18</title>
<g id="a_node18"><a xlink:title=" ">
<polygon fill="white" stroke="#bfbfbf" points="395,-67.5 395,-97.5 524,-97.5 524,-67.5 395,-67.5"/>
<text text-anchor="start" x="403" y="-85.5" font-family="Helvetica,sans-Serif" font-size="10.00">wrapp/pipes/impl/basic</text>
<text text-anchor="middle" x="459.5" y="-74.5" font-family="Helvetica,sans-Serif" font-size="10.00">_pipes_impl.hpp</text>
</a>
</g>
</g>
<!-- Node2&#45;&gt;Node18 -->
<g id="edge20" class="edge">
<title>Node2&#45;&gt;Node18</title>
<path fill="none" stroke="midnightblue" d="M703.67,-134.48C659.55,-125.26 588.29,-110.39 534.12,-99.08"/>
<polygon fill="midnightblue" stroke="midnightblue" points="534.72,-95.63 524.21,-97.01 533.28,-102.48 534.72,-95.63"/>
</g>
<!-- Node9&#45;&gt;Node7 -->
<g id="edge9" class="edge">
<title>Node9&#45;&gt;Node7</title>
<path fill="none" stroke="midnightblue" d="M938.21,-72.94C994.14,-61.17 1094.7,-40.02 1155.55,-27.22"/>
<polygon fill="midnightblue" stroke="midnightblue" points="1156.63,-30.57 1165.7,-25.08 1155.19,-23.72 1156.63,-30.57"/>
</g>
<!-- Node10 -->
<g id="node10" class="node">
<title>Node10</title>
<g id="a_node10"><a xlink:title=" ">
<polygon fill="white" stroke="#bfbfbf" points="1009,-6 1009,-25 1108,-25 1108,-6 1009,-6"/>
<text text-anchor="middle" x="1058.5" y="-13" font-family="Helvetica,sans-Serif" font-size="10.00">includes/define.h</text>
</a>
</g>
</g>
<!-- Node9&#45;&gt;Node10 -->
<g id="edge10" class="edge">
<title>Node9&#45;&gt;Node10</title>
<path fill="none" stroke="midnightblue" d="M918.88,-72.87C946.86,-61.57 996.09,-41.7 1027.99,-28.82"/>
<polygon fill="midnightblue" stroke="midnightblue" points="1029.33,-32.05 1037.29,-25.06 1026.71,-25.56 1029.33,-32.05"/>
</g>
<!-- Node11 -->
<g id="node11" class="node">
<title>Node11</title>
<g id="a_node11"><a xlink:title=" ">
<polygon fill="white" stroke="#bfbfbf" points="922,-6 922,-25 991,-25 991,-6 922,-6"/>
<text text-anchor="middle" x="956.5" y="-13" font-family="Helvetica,sans-Serif" font-size="10.00">type_traits</text>
</a>
</g>
</g>
<!-- Node9&#45;&gt;Node11 -->
<g id="edge11" class="edge">
<title>Node9&#45;&gt;Node11</title>
<path fill="none" stroke="midnightblue" d="M905.46,-72.73C914.75,-62.5 930.3,-45.36 941.8,-32.69"/>
<polygon fill="midnightblue" stroke="midnightblue" points="944.54,-34.88 948.67,-25.13 939.36,-30.18 944.54,-34.88"/>
</g>
<!-- Node12 -->
<g id="node12" class="node">
<title>Node12</title>
<g id="a_node12"><a xlink:title=" ">
<polygon fill="white" stroke="#bfbfbf" points="716,-6 716,-25 761,-25 761,-6 716,-6"/>
<text text-anchor="middle" x="738.5" y="-13" font-family="Helvetica,sans-Serif" font-size="10.00">utility</text>
</a>
</g>
</g>
<!-- Node9&#45;&gt;Node12 -->
<g id="edge12" class="edge">
<title>Node9&#45;&gt;Node12</title>
<path fill="none" stroke="midnightblue" d="M874.67,-72.98C848.93,-63.26 805.92,-46.69 769.5,-31 768.3,-30.48 767.08,-29.95 765.85,-29.41"/>
<polygon fill="midnightblue" stroke="midnightblue" points="767,-26.08 756.45,-25.12 764.1,-32.45 767,-26.08"/>
</g>
<!-- Node13 -->
<g id="node13" class="node">
<title>Node13</title>
<g id="a_node13"><a xlink:title=" ">
<polygon fill="white" stroke="#bfbfbf" points="779,-0.5 779,-30.5 904,-30.5 904,-0.5 779,-0.5"/>
<text text-anchor="start" x="787" y="-18.5" font-family="Helvetica,sans-Serif" font-size="10.00">wrapp/pipes/impl/pipe</text>
<text text-anchor="middle" x="841.5" y="-7.5" font-family="Helvetica,sans-Serif" font-size="10.00">_impl.hpp</text>
</a>
</g>
</g>
<!-- Node9&#45;&gt;Node13 -->
<g id="edge13" class="edge">
<title>Node9&#45;&gt;Node13</title>
<path fill="none" stroke="midnightblue" d="M889.95,-72.73C882.38,-63.95 870.43,-50.08 860.29,-38.31"/>
<polygon fill="midnightblue" stroke="midnightblue" points="862.82,-35.88 853.64,-30.59 857.51,-40.45 862.82,-35.88"/>
</g>
<!-- Node14&#45;&gt;Node7 -->
<g id="edge16" class="edge">
<title>Node14&#45;&gt;Node7</title>
<path fill="none" stroke="midnightblue" d="M1090.61,-67.4C1116.58,-55.99 1152.81,-40.08 1177.82,-29.1"/>
<polygon fill="midnightblue" stroke="midnightblue" points="1179.38,-32.23 1187.13,-25.01 1176.57,-25.82 1179.38,-32.23"/>
</g>
<!-- Node14&#45;&gt;Node10 -->
<g id="edge15" class="edge">
<title>Node14&#45;&gt;Node10</title>
<path fill="none" stroke="midnightblue" d="M1058.5,-67.4C1058.5,-58.06 1058.5,-45.71 1058.5,-35.52"/>
<polygon fill="midnightblue" stroke="midnightblue" points="1062,-35.19 1058.5,-25.19 1055,-35.19 1062,-35.19"/>
</g>
<!-- Node19&#45;&gt;Node7 -->
<g id="edge22" class="edge">
<title>Node19&#45;&gt;Node7</title>
<path fill="none" stroke="midnightblue" d="M1557.99,-134.44C1544.87,-125.44 1523.66,-110.83 1505.5,-98 1486.26,-84.41 1484.11,-76.38 1462.5,-67 1410.31,-44.34 1347.71,-31.76 1297.48,-24.82"/>
<polygon fill="midnightblue" stroke="midnightblue" points="1297.65,-21.31 1287.28,-23.46 1296.73,-28.25 1297.65,-21.31"/>
</g>
<!-- Node19&#45;&gt;Node20 -->
<g id="edge23" class="edge">
<title>Node19&#45;&gt;Node20</title>
<path fill="none" stroke="midnightblue" d="M1593.71,-134.48C1621.5,-124.27 1668.22,-107.11 1699.69,-95.55"/>
<polygon fill="midnightblue" stroke="midnightblue" points="1701.15,-98.74 1709.33,-92.01 1698.74,-92.17 1701.15,-98.74"/>
</g>
<!-- Node21 -->
<g id="node21" class="node">
<title>Node21</title>
<g id="a_node21"><a xlink:title=" ">
<polygon fill="white" stroke="#bfbfbf" points="1514.5,-67.5 1514.5,-97.5 1642.5,-97.5 1642.5,-67.5 1514.5,-67.5"/>
<text text-anchor="start" x="1522.5" y="-85.5" font-family="Helvetica,sans-Serif" font-size="10.00">includes/kratos_export</text>
<text text-anchor="middle" x="1578.5" y="-74.5" font-family="Helvetica,sans-Serif" font-size="10.00">_api.h</text>
</a>
</g>
</g>
<!-- Node19&#45;&gt;Node21 -->
<g id="edge24" class="edge">
<title>Node19&#45;&gt;Node21</title>
<path fill="none" stroke="midnightblue" d="M1571.65,-134.48C1572.59,-127.47 1573.97,-117.19 1575.25,-107.7"/>
<polygon fill="midnightblue" stroke="midnightblue" points="1578.75,-107.9 1576.61,-97.52 1571.81,-106.97 1578.75,-107.9"/>
</g>
<!-- Node22&#45;&gt;Node5 -->
<g id="edge26" class="edge">
<title>Node22&#45;&gt;Node5</title>
<path fill="none" stroke="midnightblue" d="M1326.64,-134.48C1326.78,-126.08 1327,-112.98 1327.19,-102.16"/>
<polygon fill="midnightblue" stroke="midnightblue" points="1330.69,-102.07 1327.36,-92.01 1323.69,-101.95 1330.69,-102.07"/>
</g>
<!-- Node22&#45;&gt;Node10 -->
<g id="edge27" class="edge">
<title>Node22&#45;&gt;Node10</title>
<path fill="none" stroke="midnightblue" d="M1348.31,-134.45C1363.44,-127.22 1382.45,-115.26 1391.5,-98 1397.89,-85.8 1400.59,-77.36 1391.5,-67 1351,-20.83 1177.86,-42.35 1117.5,-31 1111.99,-29.96 1106.23,-28.73 1100.56,-27.44"/>
<polygon fill="midnightblue" stroke="midnightblue" points="1101.05,-23.96 1090.51,-25.05 1099.43,-30.77 1101.05,-23.96"/>
</g>
</g>
</svg>
