<?xml version="1.0" encoding="UTF-8" standalone="no"?>
<!DOCTYPE svg PUBLIC "-//W3C//DTD SVG 1.1//EN"
 "http://www.w3.org/Graphics/SVG/1.1/DTD/svg11.dtd">
<!-- Generated by graphviz version 2.43.0 (0)
 -->
<!-- Title: MPIUtils.hpp Pages: 1 -->
<svg width="326pt" height="93pt"
 viewBox="0.00 0.00 325.50 93.00" xmlns="http://www.w3.org/2000/svg" xmlns:xlink="http://www.w3.org/1999/xlink">
<g id="graph0" class="graph" transform="scale(1 1) rotate(0) translate(4 89)">
<title>MPIUtils.hpp</title>
<!-- Node1 -->
<g id="Node000001" class="node">
<title>Node1</title>
<g id="a_Node000001"><a xlink:title=" ">
<polygon fill="#999999" stroke="#666666" points="206,-85 128,-85 128,-66 206,-66 206,-85"/>
<text text-anchor="middle" x="167" y="-73" font-family="Helvetica,sans-Serif" font-size="10.00">MPIUtils.hpp</text>
</a>
</g>
</g>
<!-- Node2 -->
<g id="Node000002" class="node">
<title>Node2</title>
<g id="a_Node000002"><a xlink:title=" ">
<polygon fill="#e0e0e0" stroke="#999999" points="166,-24.5 0,-24.5 0,-5.5 166,-5.5 166,-24.5"/>
<text text-anchor="middle" x="83" y="-12.5" font-family="Helvetica,sans-Serif" font-size="10.00">includes/data_communicator.h</text>
</a>
</g>
</g>
<!-- Node1&#45;&gt;Node2 -->
<g id="edge1_Node000001_Node000002" class="edge">
<title>Node1&#45;&gt;Node2</title>
<g id="a_edge1_Node000001_Node000002"><a xlink:title=" ">
<path fill="none" stroke="#63b8ff" d="M154.61,-65.87C141.21,-56.54 119.62,-41.51 103.65,-30.38"/>
<polygon fill="#63b8ff" stroke="#63b8ff" points="105.65,-27.51 95.45,-24.67 101.65,-33.25 105.65,-27.51"/>
</a>
</g>
</g>
<!-- Node3 -->
<g id="Node000003" class="node">
<title>Node3</title>
<g id="a_Node000003"><a xlink:title=" ">
<polygon fill="#e0e0e0" stroke="#999999" points="317.5,-30 184.5,-30 184.5,0 317.5,0 317.5,-30"/>
<text text-anchor="start" x="192.5" y="-18" font-family="Helvetica,sans-Serif" font-size="10.00">wrapp/multiprocessing</text>
<text text-anchor="middle" x="251" y="-7" font-family="Helvetica,sans-Serif" font-size="10.00">/impl/MPIUtils_impl.hpp</text>
</a>
</g>
</g>
<!-- Node1&#45;&gt;Node3 -->
<g id="edge2_Node000001_Node000003" class="edge">
<title>Node1&#45;&gt;Node3</title>
<g id="a_edge2_Node000001_Node000003"><a xlink:title=" ">
<path fill="none" stroke="#63b8ff" d="M179.39,-65.87C190.69,-58 207.79,-46.09 222.45,-35.89"/>
<polygon fill="#63b8ff" stroke="#63b8ff" points="224.53,-38.7 230.73,-30.11 220.53,-32.96 224.53,-38.7"/>
</a>
</g>
</g>
</g>
</svg>
