<?xml version="1.0" encoding="UTF-8" standalone="no"?>
<!DOCTYPE svg PUBLIC "-//W3C//DTD SVG 1.1//EN"
 "http://www.w3.org/Graphics/SVG/1.1/DTD/svg11.dtd">
<!-- Generated by graphviz version 2.43.0 (0)
 -->
<!-- Title: PatternUtility.hpp Pages: 1 -->
<svg width="776pt" height="95pt"
 viewBox="0.00 0.00 775.50 95.00" xmlns="http://www.w3.org/2000/svg" xmlns:xlink="http://www.w3.org/1999/xlink">
<g id="graph0" class="graph" transform="scale(1 1) rotate(0) translate(4 91)">
<title>PatternUtility.hpp</title>
<polygon fill="white" stroke="transparent" points="-4,4 -4,-91 771.5,-91 771.5,4 -4,4"/>
<!-- Node1 -->
<g id="node1" class="node">
<title>Node1</title>
<g id="a_node1"><a xlink:title=" ">
<polygon fill="#bfbfbf" stroke="black" points="355.5,-67.5 355.5,-86.5 456.5,-86.5 456.5,-67.5 355.5,-67.5"/>
<text text-anchor="middle" x="406" y="-74.5" font-family="Helvetica,sans-Serif" font-size="10.00">PatternUtility.hpp</text>
</a>
</g>
</g>
<!-- Node2 -->
<g id="node2" class="node">
<title>Node2</title>
<g id="a_node2"><a xlink:title=" ">
<polygon fill="white" stroke="#bfbfbf" points="0,-0.5 0,-30.5 128,-30.5 128,-0.5 0,-0.5"/>
<text text-anchor="start" x="8" y="-18.5" font-family="Helvetica,sans-Serif" font-size="10.00">includes/kratos_export</text>
<text text-anchor="middle" x="64" y="-7.5" font-family="Helvetica,sans-Serif" font-size="10.00">_api.h</text>
</a>
</g>
</g>
<!-- Node1&#45;&gt;Node2 -->
<g id="edge1" class="edge">
<title>Node1&#45;&gt;Node2</title>
<path fill="none" stroke="midnightblue" d="M355.35,-68C303.33,-59.67 219.77,-46.01 138.03,-31.16"/>
<polygon fill="midnightblue" stroke="midnightblue" points="138.54,-27.69 128.07,-29.34 137.28,-34.58 138.54,-27.69"/>
</g>
<!-- Node3 -->
<g id="node3" class="node">
<title>Node3</title>
<g id="a_node3"><a xlink:title=" ">
<polygon fill="white" stroke="#bfbfbf" points="146.5,-6 146.5,-25 271.5,-25 271.5,-6 146.5,-6"/>
<text text-anchor="middle" x="209" y="-13" font-family="Helvetica,sans-Serif" font-size="10.00">includes/model_part.h</text>
</a>
</g>
</g>
<!-- Node1&#45;&gt;Node3 -->
<g id="edge2" class="edge">
<title>Node1&#45;&gt;Node3</title>
<path fill="none" stroke="midnightblue" d="M377.77,-67.48C343.4,-57.09 285.19,-39.51 246.92,-27.95"/>
<polygon fill="midnightblue" stroke="midnightblue" points="247.76,-24.55 237.17,-25.01 245.73,-31.25 247.76,-24.55"/>
</g>
<!-- Node4 -->
<g id="node4" class="node">
<title>Node4</title>
<g id="a_node4"><a xlink:title=" ">
<polygon fill="white" stroke="#bfbfbf" points="290,-6 290,-25 334,-25 334,-6 290,-6"/>
<text text-anchor="middle" x="312" y="-13" font-family="Helvetica,sans-Serif" font-size="10.00">regex</text>
</a>
</g>
</g>
<!-- Node1&#45;&gt;Node4 -->
<g id="edge3" class="edge">
<title>Node1&#45;&gt;Node4</title>
<path fill="none" stroke="midnightblue" d="M392.53,-67.48C377.32,-57.84 352.31,-42.02 334.2,-30.55"/>
<polygon fill="midnightblue" stroke="midnightblue" points="335.76,-27.4 325.44,-25.01 332.02,-33.31 335.76,-27.4"/>
</g>
<!-- Node5 -->
<g id="node5" class="node">
<title>Node5</title>
<g id="a_node5"><a xlink:title=" ">
<polygon fill="white" stroke="#bfbfbf" points="352.5,-6 352.5,-25 399.5,-25 399.5,-6 352.5,-6"/>
<text text-anchor="middle" x="376" y="-13" font-family="Helvetica,sans-Serif" font-size="10.00">vector</text>
</a>
</g>
</g>
<!-- Node1&#45;&gt;Node5 -->
<g id="edge4" class="edge">
<title>Node1&#45;&gt;Node5</title>
<path fill="none" stroke="midnightblue" d="M401.7,-67.48C397.34,-58.82 390.44,-45.15 384.9,-34.15"/>
<polygon fill="midnightblue" stroke="midnightblue" points="387.92,-32.36 380.29,-25.01 381.67,-35.51 387.92,-32.36"/>
</g>
<!-- Node6 -->
<g id="node6" class="node">
<title>Node6</title>
<g id="a_node6"><a xlink:title=" ">
<polygon fill="white" stroke="#bfbfbf" points="418,-6 418,-25 456,-25 456,-6 418,-6"/>
<text text-anchor="middle" x="437" y="-13" font-family="Helvetica,sans-Serif" font-size="10.00">map</text>
</a>
</g>
</g>
<!-- Node1&#45;&gt;Node6 -->
<g id="edge5" class="edge">
<title>Node1&#45;&gt;Node6</title>
<path fill="none" stroke="midnightblue" d="M410.44,-67.48C414.95,-58.82 422.07,-45.15 427.81,-34.15"/>
<polygon fill="midnightblue" stroke="midnightblue" points="431.05,-35.49 432.57,-25.01 424.84,-32.26 431.05,-35.49"/>
</g>
<!-- Node7 -->
<g id="node7" class="node">
<title>Node7</title>
<g id="a_node7"><a xlink:title=" ">
<polygon fill="white" stroke="#bfbfbf" points="474,-6 474,-25 542,-25 542,-6 474,-6"/>
<text text-anchor="middle" x="508" y="-13" font-family="Helvetica,sans-Serif" font-size="10.00">filesystem</text>
</a>
</g>
</g>
<!-- Node1&#45;&gt;Node7 -->
<g id="edge6" class="edge">
<title>Node1&#45;&gt;Node7</title>
<path fill="none" stroke="midnightblue" d="M420.61,-67.48C437.35,-57.71 465,-41.58 484.72,-30.08"/>
<polygon fill="midnightblue" stroke="midnightblue" points="486.54,-33.07 493.41,-25.01 483.01,-27.02 486.54,-33.07"/>
</g>
<!-- Node8 -->
<g id="node8" class="node">
<title>Node8</title>
<g id="a_node8"><a xlink:title=" ">
<polygon fill="white" stroke="#bfbfbf" points="560,-6 560,-25 616,-25 616,-6 560,-6"/>
<text text-anchor="middle" x="588" y="-13" font-family="Helvetica,sans-Serif" font-size="10.00">optional</text>
</a>
</g>
</g>
<!-- Node1&#45;&gt;Node8 -->
<g id="edge7" class="edge">
<title>Node1&#45;&gt;Node8</title>
<path fill="none" stroke="midnightblue" d="M435.64,-67.49C465.09,-58.87 511.45,-44.87 551,-31 553.12,-30.26 555.29,-29.47 557.48,-28.66"/>
<polygon fill="midnightblue" stroke="midnightblue" points="558.87,-31.88 566.97,-25.05 556.38,-25.34 558.87,-31.88"/>
</g>
<!-- Node9 -->
<g id="node9" class="node">
<title>Node9</title>
<g id="a_node9"><a xlink:title=" ">
<polygon fill="white" stroke="#bfbfbf" points="634.5,-0.5 634.5,-30.5 767.5,-30.5 767.5,-0.5 634.5,-0.5"/>
<text text-anchor="start" x="642.5" y="-18.5" font-family="Helvetica,sans-Serif" font-size="10.00">wrapp/utils/impl/Pattern</text>
<text text-anchor="middle" x="701" y="-7.5" font-family="Helvetica,sans-Serif" font-size="10.00">Utility_impl.hpp</text>
</a>
</g>
</g>
<!-- Node1&#45;&gt;Node9 -->
<g id="edge8" class="edge">
<title>Node1&#45;&gt;Node9</title>
<path fill="none" stroke="midnightblue" d="M448.27,-67.48C494.11,-58.23 568.24,-43.28 624.39,-31.95"/>
<polygon fill="midnightblue" stroke="midnightblue" points="625.19,-35.36 634.3,-29.95 623.8,-28.5 625.19,-35.36"/>
</g>
</g>
</svg>
