<?xml version="1.0" encoding="UTF-8" standalone="no"?>
<!DOCTYPE svg PUBLIC "-//W3C//DTD SVG 1.1//EN"
 "http://www.w3.org/Graphics/SVG/1.1/DTD/svg11.dtd">
<!-- Generated by graphviz version 2.43.0 (0)
 -->
<!-- Title: pipe.hpp Pages: 1 -->
<svg width="579pt" height="95pt"
 viewBox="0.00 0.00 579.00 95.00" xmlns="http://www.w3.org/2000/svg" xmlns:xlink="http://www.w3.org/1999/xlink">
<g id="graph0" class="graph" transform="scale(1 1) rotate(0) translate(4 91)">
<title>pipe.hpp</title>
<polygon fill="white" stroke="transparent" points="-4,4 -4,-91 575,-91 575,4 -4,4"/>
<!-- Node1 -->
<g id="node1" class="node">
<title>Node1</title>
<g id="a_node1"><a xlink:title=" ">
<polygon fill="#bfbfbf" stroke="black" points="301,-67.5 301,-86.5 360,-86.5 360,-67.5 301,-67.5"/>
<text text-anchor="middle" x="330.5" y="-74.5" font-family="Helvetica,sans-Serif" font-size="10.00">pipe.hpp</text>
</a>
</g>
</g>
<!-- Node2 -->
<g id="node2" class="node">
<title>Node2</title>
<g id="a_node2"><a xlink:title=" ">
<polygon fill="white" stroke="#bfbfbf" points="0,-6 0,-25 161,-25 161,-6 0,-6"/>
<text text-anchor="middle" x="80.5" y="-13" font-family="Helvetica,sans-Serif" font-size="10.00">includes/kratos_parameters.h</text>
</a>
</g>
</g>
<!-- Node1&#45;&gt;Node2 -->
<g id="edge1" class="edge">
<title>Node1&#45;&gt;Node2</title>
<path fill="none" stroke="midnightblue" d="M300.84,-68.94C257.67,-58.67 177.16,-39.5 126.33,-27.41"/>
<polygon fill="midnightblue" stroke="midnightblue" points="127.12,-24 116.58,-25.09 125.49,-30.81 127.12,-24"/>
</g>
<!-- Node3 -->
<g id="node3" class="node">
<title>Node3</title>
<g id="a_node3"><a xlink:title=" ">
<polygon fill="white" stroke="#bfbfbf" points="179,-6 179,-25 278,-25 278,-6 179,-6"/>
<text text-anchor="middle" x="228.5" y="-13" font-family="Helvetica,sans-Serif" font-size="10.00">includes/define.h</text>
</a>
</g>
</g>
<!-- Node1&#45;&gt;Node3 -->
<g id="edge2" class="edge">
<title>Node1&#45;&gt;Node3</title>
<path fill="none" stroke="midnightblue" d="M315.89,-67.48C299.15,-57.71 271.5,-41.58 251.78,-30.08"/>
<polygon fill="midnightblue" stroke="midnightblue" points="253.49,-27.02 243.09,-25.01 249.96,-33.07 253.49,-27.02"/>
</g>
<!-- Node4 -->
<g id="node4" class="node">
<title>Node4</title>
<g id="a_node4"><a xlink:title=" ">
<polygon fill="white" stroke="#bfbfbf" points="296,-6 296,-25 365,-25 365,-6 296,-6"/>
<text text-anchor="middle" x="330.5" y="-13" font-family="Helvetica,sans-Serif" font-size="10.00">type_traits</text>
</a>
</g>
</g>
<!-- Node1&#45;&gt;Node4 -->
<g id="edge3" class="edge">
<title>Node1&#45;&gt;Node4</title>
<path fill="none" stroke="midnightblue" d="M330.5,-67.48C330.5,-59.08 330.5,-45.98 330.5,-35.16"/>
<polygon fill="midnightblue" stroke="midnightblue" points="334,-35.01 330.5,-25.01 327,-35.01 334,-35.01"/>
</g>
<!-- Node5 -->
<g id="node5" class="node">
<title>Node5</title>
<g id="a_node5"><a xlink:title=" ">
<polygon fill="white" stroke="#bfbfbf" points="383,-6 383,-25 428,-25 428,-6 383,-6"/>
<text text-anchor="middle" x="405.5" y="-13" font-family="Helvetica,sans-Serif" font-size="10.00">utility</text>
</a>
</g>
</g>
<!-- Node1&#45;&gt;Node5 -->
<g id="edge4" class="edge">
<title>Node1&#45;&gt;Node5</title>
<path fill="none" stroke="midnightblue" d="M341.25,-67.48C353.05,-58.11 372.24,-42.88 386.58,-31.51"/>
<polygon fill="midnightblue" stroke="midnightblue" points="389.12,-33.97 394.77,-25.01 384.76,-28.48 389.12,-33.97"/>
</g>
<!-- Node6 -->
<g id="node6" class="node">
<title>Node6</title>
<g id="a_node6"><a xlink:title=" ">
<polygon fill="white" stroke="#bfbfbf" points="446,-0.5 446,-30.5 571,-30.5 571,-0.5 446,-0.5"/>
<text text-anchor="start" x="454" y="-18.5" font-family="Helvetica,sans-Serif" font-size="10.00">wrapp/pipes/impl/pipe</text>
<text text-anchor="middle" x="508.5" y="-7.5" font-family="Helvetica,sans-Serif" font-size="10.00">_impl.hpp</text>
</a>
</g>
</g>
<!-- Node1&#45;&gt;Node6 -->
<g id="edge5" class="edge">
<title>Node1&#45;&gt;Node6</title>
<path fill="none" stroke="midnightblue" d="M356,-67.48C382.25,-58.7 423.87,-44.79 457.01,-33.71"/>
<polygon fill="midnightblue" stroke="midnightblue" points="458.17,-37.01 466.55,-30.52 455.96,-30.37 458.17,-37.01"/>
</g>
</g>
</svg>
