<?xml version="1.0" encoding="UTF-8" standalone="no"?>
<!DOCTYPE svg PUBLIC "-//W3C//DTD SVG 1.1//EN"
 "http://www.w3.org/Graphics/SVG/1.1/DTD/svg11.dtd">
<!-- Generated by graphviz version 2.43.0 (0)
 -->
<!-- Title: WRAppClass Pages: 1 -->
<svg width="712pt" height="400pt"
 viewBox="0.00 0.00 712.00 400.00" xmlns="http://www.w3.org/2000/svg" xmlns:xlink="http://www.w3.org/1999/xlink">
<g id="graph0" class="graph" transform="scale(1 1) rotate(0) translate(4 396)">
<title>WRAppClass</title>
<!-- Node1 -->
<g id="Node000001" class="node">
<title>Node1</title>
<g id="a_Node000001"><a xlink:title="Dummy base class for registering and exporting exposed classes in WRApplication.">
<polygon fill="#999999" stroke="transparent" points="440,-392 295,-392 295,-227 440,-227 440,-392"/>
<text text-anchor="start" x="337" y="-379.5" font-family="Helvetica,sans-Serif" font-size="10.00">WRAppClass</text>
<text text-anchor="start" x="366" y="-364.5" font-family="Helvetica,sans-Serif" font-size="10.00"> </text>
<text text-anchor="start" x="299.5" y="-349.5" font-family="Helvetica,sans-Serif" font-size="10.00">+</text>
<text text-anchor="start" x="312.5" y="-349.5" font-family="Helvetica,sans-Serif" font-size="10.00">KRATOS_CLASS_POINTER</text>
<text text-anchor="start" x="312.5" y="-338.5" font-family="Helvetica,sans-Serif" font-size="10.00">_DEFINITION()</text>
<text text-anchor="start" x="299.5" y="-323.5" font-family="Helvetica,sans-Serif" font-size="10.00">+</text>
<text text-anchor="start" x="312.5" y="-323.5" font-family="Helvetica,sans-Serif" font-size="10.00">WRAppClass()</text>
<text text-anchor="start" x="299.5" y="-308.5" font-family="Helvetica,sans-Serif" font-size="10.00">+</text>
<text text-anchor="start" x="312.5" y="-308.5" font-family="Helvetica,sans-Serif" font-size="10.00">WRAppClass()</text>
<text text-anchor="start" x="299.5" y="-293.5" font-family="Helvetica,sans-Serif" font-size="10.00">+</text>
<text text-anchor="start" x="312.5" y="-293.5" font-family="Helvetica,sans-Serif" font-size="10.00">WRAppClass()</text>
<text text-anchor="start" x="299.5" y="-278.5" font-family="Helvetica,sans-Serif" font-size="10.00">+</text>
<text text-anchor="start" x="312.5" y="-278.5" font-family="Helvetica,sans-Serif" font-size="10.00">~WRAppClass()</text>
<text text-anchor="start" x="299.5" y="-263.5" font-family="Helvetica,sans-Serif" font-size="10.00">+</text>
<text text-anchor="start" x="312.5" y="-263.5" font-family="Helvetica,sans-Serif" font-size="10.00">operator=()</text>
<text text-anchor="start" x="299.5" y="-248.5" font-family="Helvetica,sans-Serif" font-size="10.00">+</text>
<text text-anchor="start" x="312.5" y="-248.5" font-family="Helvetica,sans-Serif" font-size="10.00">operator=()</text>
<text text-anchor="start" x="299.5" y="-233.5" font-family="Helvetica,sans-Serif" font-size="10.00">+</text>
<text text-anchor="start" x="312.5" y="-233.5" font-family="Helvetica,sans-Serif" font-size="10.00">GetDefaultParameters()</text>
<polygon fill="#666666" stroke="#666666" points="295.5,-374.5 295.5,-374.5 440.5,-374.5 440.5,-374.5 295.5,-374.5"/>
<polygon fill="#666666" stroke="#666666" points="295.5,-359.5 295.5,-359.5 440.5,-359.5 440.5,-359.5 295.5,-359.5"/>
<polygon fill="none" stroke="#666666" points="295,-227 295,-392 440,-392 440,-227 295,-227"/>
</a>
</g>
</g>
<!-- Node2 -->
<g id="Node000002" class="node">
<title>Node2</title>
<g id="a_Node000002"><a xlink:href="classKratos_1_1WRApp_1_1Hdf5IdToIndexOperation.html" target="_top" xlink:title=" ">
<polygon fill="white" stroke="transparent" points="155,-185.5 0,-185.5 0,-5.5 155,-5.5 155,-185.5"/>
<text text-anchor="start" x="19" y="-173.5" font-family="Helvetica,sans-Serif" font-size="10.00">Hdf5IdToIndexOperation</text>
<text text-anchor="start" x="76" y="-158.5" font-family="Helvetica,sans-Serif" font-size="10.00"> </text>
<text text-anchor="start" x="4.5" y="-143.5" font-family="Helvetica,sans-Serif" font-size="10.00">+</text>
<text text-anchor="start" x="17.5" y="-143.5" font-family="Helvetica,sans-Serif" font-size="10.00">KRATOS_CLASS_POINTER</text>
<text text-anchor="start" x="17.5" y="-132.5" font-family="Helvetica,sans-Serif" font-size="10.00">_DEFINITION()</text>
<text text-anchor="start" x="4.5" y="-117.5" font-family="Helvetica,sans-Serif" font-size="10.00">+</text>
<text text-anchor="start" x="17.5" y="-117.5" font-family="Helvetica,sans-Serif" font-size="10.00">Hdf5IdToIndexOperation()</text>
<text text-anchor="start" x="4.5" y="-102.5" font-family="Helvetica,sans-Serif" font-size="10.00">+</text>
<text text-anchor="start" x="17.5" y="-102.5" font-family="Helvetica,sans-Serif" font-size="10.00">Hdf5IdToIndexOperation()</text>
<text text-anchor="start" x="4.5" y="-87.5" font-family="Helvetica,sans-Serif" font-size="10.00">+</text>
<text text-anchor="start" x="17.5" y="-87.5" font-family="Helvetica,sans-Serif" font-size="10.00">Hdf5IdToIndexOperation()</text>
<text text-anchor="start" x="4.5" y="-72.5" font-family="Helvetica,sans-Serif" font-size="10.00">+</text>
<text text-anchor="start" x="17.5" y="-72.5" font-family="Helvetica,sans-Serif" font-size="10.00">Hdf5IdToIndexOperation()</text>
<text text-anchor="start" x="4.5" y="-57.5" font-family="Helvetica,sans-Serif" font-size="10.00">+</text>
<text text-anchor="start" x="17.5" y="-57.5" font-family="Helvetica,sans-Serif" font-size="10.00">operator=()</text>
<text text-anchor="start" x="4.5" y="-42.5" font-family="Helvetica,sans-Serif" font-size="10.00">+</text>
<text text-anchor="start" x="17.5" y="-42.5" font-family="Helvetica,sans-Serif" font-size="10.00">~Hdf5IdToIndexOperation()</text>
<text text-anchor="start" x="4.5" y="-27.5" font-family="Helvetica,sans-Serif" font-size="10.00">+</text>
<text text-anchor="start" x="17.5" y="-27.5" font-family="Helvetica,sans-Serif" font-size="10.00">Execute()</text>
<text text-anchor="start" x="4.5" y="-12.5" font-family="Helvetica,sans-Serif" font-size="10.00">+</text>
<text text-anchor="start" x="17.5" y="-12.5" font-family="Helvetica,sans-Serif" font-size="10.00">GetDefaultParameters()</text>
<polygon fill="#666666" stroke="#666666" points="0.5,-168.5 0.5,-168.5 155.5,-168.5 155.5,-168.5 0.5,-168.5"/>
<polygon fill="#666666" stroke="#666666" points="0.5,-153.5 0.5,-153.5 155.5,-153.5 155.5,-153.5 0.5,-153.5"/>
<polygon fill="none" stroke="#666666" points="0,-5.5 0,-185.5 155,-185.5 155,-5.5 0,-5.5"/>
</a>
</g>
</g>
<!-- Node1&#45;&gt;Node2 -->
<g id="edge1_Node000001_Node000002" class="edge">
<title>Node1&#45;&gt;Node2</title>
<g id="a_edge1_Node000001_Node000002"><a xlink:title=" ">
<path fill="none" stroke="#63b8ff" d="M285.45,-268.77C246.66,-248.15 200.79,-221 163.5,-191 160.73,-188.78 157.98,-186.46 155.24,-184.07"/>
<polygon fill="none" stroke="#63b8ff" points="284.15,-272.04 294.63,-273.6 287.41,-265.84 284.15,-272.04"/>
</a>
</g>
</g>
<!-- Node3 -->
<g id="Node000003" class="node">
<title>Node3</title>
<g id="a_Node000003"><a xlink:href="classKratos_1_1WRApp_1_1Hdf5IndexConnectivitiesOperation.html" target="_top" xlink:title=" ">
<polygon fill="white" stroke="transparent" points="370,-191 173,-191 173,0 370,0 370,-191"/>
<text text-anchor="start" x="187.5" y="-178.5" font-family="Helvetica,sans-Serif" font-size="10.00">Hdf5IndexConnectivitiesOperation</text>
<text text-anchor="start" x="270" y="-163.5" font-family="Helvetica,sans-Serif" font-size="10.00"> </text>
<text text-anchor="start" x="177.5" y="-148.5" font-family="Helvetica,sans-Serif" font-size="10.00">+</text>
<text text-anchor="start" x="190.5" y="-148.5" font-family="Helvetica,sans-Serif" font-size="10.00">KRATOS_CLASS_POINTER</text>
<text text-anchor="start" x="190.5" y="-137.5" font-family="Helvetica,sans-Serif" font-size="10.00">_DEFINITION()</text>
<text text-anchor="start" x="177.5" y="-122.5" font-family="Helvetica,sans-Serif" font-size="10.00">+</text>
<text text-anchor="start" x="190.5" y="-122.5" font-family="Helvetica,sans-Serif" font-size="10.00">Hdf5IndexConnectivitiesOperation()</text>
<text text-anchor="start" x="177.5" y="-107.5" font-family="Helvetica,sans-Serif" font-size="10.00">+</text>
<text text-anchor="start" x="190.5" y="-107.5" font-family="Helvetica,sans-Serif" font-size="10.00">Hdf5IndexConnectivitiesOperation()</text>
<text text-anchor="start" x="177.5" y="-92.5" font-family="Helvetica,sans-Serif" font-size="10.00">+</text>
<text text-anchor="start" x="190.5" y="-92.5" font-family="Helvetica,sans-Serif" font-size="10.00">Hdf5IndexConnectivitiesOperation()</text>
<text text-anchor="start" x="177.5" y="-77.5" font-family="Helvetica,sans-Serif" font-size="10.00">+</text>
<text text-anchor="start" x="190.5" y="-77.5" font-family="Helvetica,sans-Serif" font-size="10.00">Hdf5IndexConnectivitiesOperation()</text>
<text text-anchor="start" x="177.5" y="-62.5" font-family="Helvetica,sans-Serif" font-size="10.00">+</text>
<text text-anchor="start" x="190.5" y="-62.5" font-family="Helvetica,sans-Serif" font-size="10.00">operator=()</text>
<text text-anchor="start" x="177.5" y="-47.5" font-family="Helvetica,sans-Serif" font-size="10.00">+</text>
<text text-anchor="start" x="190.5" y="-47.5" font-family="Helvetica,sans-Serif" font-size="10.00">~Hdf5IndexConnectivities</text>
<text text-anchor="start" x="190.5" y="-36.5" font-family="Helvetica,sans-Serif" font-size="10.00">Operation()</text>
<text text-anchor="start" x="177.5" y="-21.5" font-family="Helvetica,sans-Serif" font-size="10.00">+</text>
<text text-anchor="start" x="190.5" y="-21.5" font-family="Helvetica,sans-Serif" font-size="10.00">Execute()</text>
<text text-anchor="start" x="177.5" y="-6.5" font-family="Helvetica,sans-Serif" font-size="10.00">+</text>
<text text-anchor="start" x="190.5" y="-6.5" font-family="Helvetica,sans-Serif" font-size="10.00">GetDefaultParameters()</text>
<polygon fill="#666666" stroke="#666666" points="173.5,-173.5 173.5,-173.5 370.5,-173.5 370.5,-173.5 173.5,-173.5"/>
<polygon fill="#666666" stroke="#666666" points="173.5,-158.5 173.5,-158.5 370.5,-158.5 370.5,-158.5 173.5,-158.5"/>
<polygon fill="none" stroke="#666666" points="173,0 173,-191 370,-191 370,0 173,0"/>
</a>
</g>
</g>
<!-- Node1&#45;&gt;Node3 -->
<g id="edge2_Node000001_Node000003" class="edge">
<title>Node1&#45;&gt;Node3</title>
<g id="a_edge2_Node000001_Node000003"><a xlink:title=" ">
<path fill="none" stroke="#63b8ff" d="M326.28,-217.47C322.34,-208.77 318.34,-199.94 314.39,-191.21"/>
<polygon fill="none" stroke="#63b8ff" points="323.21,-219.17 330.52,-226.84 329.58,-216.29 323.21,-219.17"/>
</a>
</g>
</g>
<!-- Node4 -->
<g id="Node000004" class="node">
<title>Node4</title>
<g id="a_Node000004"><a xlink:href="classKratos_1_1WRApp_1_1Hdf5LinSpaceOperation.html" target="_top" xlink:title=" ">
<polygon fill="white" stroke="transparent" points="540.5,-185.5 388.5,-185.5 388.5,-5.5 540.5,-5.5 540.5,-185.5"/>
<text text-anchor="start" x="407" y="-173.5" font-family="Helvetica,sans-Serif" font-size="10.00">Hdf5LinSpaceOperation</text>
<text text-anchor="start" x="462.5" y="-158.5" font-family="Helvetica,sans-Serif" font-size="10.00"> </text>
<text text-anchor="start" x="392.5" y="-143.5" font-family="Helvetica,sans-Serif" font-size="10.00">+</text>
<text text-anchor="start" x="405.5" y="-143.5" font-family="Helvetica,sans-Serif" font-size="10.00">KRATOS_CLASS_POINTER</text>
<text text-anchor="start" x="405.5" y="-132.5" font-family="Helvetica,sans-Serif" font-size="10.00">_DEFINITION()</text>
<text text-anchor="start" x="392.5" y="-117.5" font-family="Helvetica,sans-Serif" font-size="10.00">+</text>
<text text-anchor="start" x="405.5" y="-117.5" font-family="Helvetica,sans-Serif" font-size="10.00">Hdf5LinSpaceOperation()</text>
<text text-anchor="start" x="392.5" y="-102.5" font-family="Helvetica,sans-Serif" font-size="10.00">+</text>
<text text-anchor="start" x="405.5" y="-102.5" font-family="Helvetica,sans-Serif" font-size="10.00">Hdf5LinSpaceOperation()</text>
<text text-anchor="start" x="392.5" y="-87.5" font-family="Helvetica,sans-Serif" font-size="10.00">+</text>
<text text-anchor="start" x="405.5" y="-87.5" font-family="Helvetica,sans-Serif" font-size="10.00">Hdf5LinSpaceOperation()</text>
<text text-anchor="start" x="392.5" y="-72.5" font-family="Helvetica,sans-Serif" font-size="10.00">+</text>
<text text-anchor="start" x="405.5" y="-72.5" font-family="Helvetica,sans-Serif" font-size="10.00">Hdf5LinSpaceOperation()</text>
<text text-anchor="start" x="392.5" y="-57.5" font-family="Helvetica,sans-Serif" font-size="10.00">+</text>
<text text-anchor="start" x="405.5" y="-57.5" font-family="Helvetica,sans-Serif" font-size="10.00">operator=()</text>
<text text-anchor="start" x="392.5" y="-42.5" font-family="Helvetica,sans-Serif" font-size="10.00">+</text>
<text text-anchor="start" x="405.5" y="-42.5" font-family="Helvetica,sans-Serif" font-size="10.00">~Hdf5LinSpaceOperation()</text>
<text text-anchor="start" x="392.5" y="-27.5" font-family="Helvetica,sans-Serif" font-size="10.00">+</text>
<text text-anchor="start" x="405.5" y="-27.5" font-family="Helvetica,sans-Serif" font-size="10.00">Execute()</text>
<text text-anchor="start" x="392.5" y="-12.5" font-family="Helvetica,sans-Serif" font-size="10.00">+</text>
<text text-anchor="start" x="405.5" y="-12.5" font-family="Helvetica,sans-Serif" font-size="10.00">GetDefaultParameters()</text>
<polygon fill="#666666" stroke="#666666" points="388.5,-168.5 388.5,-168.5 540.5,-168.5 540.5,-168.5 388.5,-168.5"/>
<polygon fill="#666666" stroke="#666666" points="388.5,-153.5 388.5,-153.5 540.5,-153.5 540.5,-153.5 388.5,-153.5"/>
<polygon fill="none" stroke="#666666" points="388.5,-5.5 388.5,-185.5 540.5,-185.5 540.5,-5.5 388.5,-5.5"/>
</a>
</g>
</g>
<!-- Node1&#45;&gt;Node4 -->
<g id="edge3_Node000001_Node000004" class="edge">
<title>Node1&#45;&gt;Node4</title>
<g id="a_edge3_Node000001_Node000004"><a xlink:title=" ">
<path fill="none" stroke="#63b8ff" d="M409.11,-217.57C413.97,-206.94 418.92,-196.11 423.77,-185.52"/>
<polygon fill="none" stroke="#63b8ff" points="405.84,-216.29 404.86,-226.84 412.21,-219.2 405.84,-216.29"/>
</a>
</g>
</g>
<!-- Node5 -->
<g id="Node000005" class="node">
<title>Node5</title>
<g id="a_Node000005"><a xlink:href="classKratos_1_1WRApp_1_1ModelPredicatePipe.html" target="_top" xlink:title=" ">
<polygon fill="white" stroke="transparent" points="704,-176 559,-176 559,-15 704,-15 704,-176"/>
<text text-anchor="start" x="583.5" y="-163.5" font-family="Helvetica,sans-Serif" font-size="10.00">ModelPredicatePipe</text>
<text text-anchor="start" x="607" y="-152.5" font-family="Helvetica,sans-Serif" font-size="10.00">&lt; TPipe &gt;</text>
<text text-anchor="start" x="630" y="-137.5" font-family="Helvetica,sans-Serif" font-size="10.00"> </text>
<text text-anchor="start" x="563.5" y="-122.5" font-family="Helvetica,sans-Serif" font-size="10.00">+</text>
<text text-anchor="start" x="576.5" y="-122.5" font-family="Helvetica,sans-Serif" font-size="10.00">KRATOS_CLASS_POINTER</text>
<text text-anchor="start" x="576.5" y="-111.5" font-family="Helvetica,sans-Serif" font-size="10.00">_DEFINITION()</text>
<text text-anchor="start" x="563.5" y="-96.5" font-family="Helvetica,sans-Serif" font-size="10.00">+</text>
<text text-anchor="start" x="576.5" y="-96.5" font-family="Helvetica,sans-Serif" font-size="10.00">ModelPredicatePipe()</text>
<text text-anchor="start" x="563.5" y="-81.5" font-family="Helvetica,sans-Serif" font-size="10.00">+</text>
<text text-anchor="start" x="576.5" y="-81.5" font-family="Helvetica,sans-Serif" font-size="10.00">ModelPredicatePipe()</text>
<text text-anchor="start" x="563.5" y="-66.5" font-family="Helvetica,sans-Serif" font-size="10.00">+</text>
<text text-anchor="start" x="576.5" y="-66.5" font-family="Helvetica,sans-Serif" font-size="10.00">ModelPredicatePipe()</text>
<text text-anchor="start" x="563.5" y="-51.5" font-family="Helvetica,sans-Serif" font-size="10.00">+</text>
<text text-anchor="start" x="576.5" y="-51.5" font-family="Helvetica,sans-Serif" font-size="10.00">ModelPredicatePipe()</text>
<text text-anchor="start" x="563.5" y="-36.5" font-family="Helvetica,sans-Serif" font-size="10.00">+</text>
<text text-anchor="start" x="576.5" y="-36.5" font-family="Helvetica,sans-Serif" font-size="10.00">operator()()</text>
<text text-anchor="start" x="563.5" y="-21.5" font-family="Helvetica,sans-Serif" font-size="10.00">+</text>
<text text-anchor="start" x="576.5" y="-21.5" font-family="Helvetica,sans-Serif" font-size="10.00">GetDefaultParameters()</text>
<polygon fill="#666666" stroke="#666666" points="559.5,-147.5 559.5,-147.5 704.5,-147.5 704.5,-147.5 559.5,-147.5"/>
<polygon fill="#666666" stroke="#666666" points="559.5,-132.5 559.5,-132.5 704.5,-132.5 704.5,-132.5 559.5,-132.5"/>
<polygon fill="none" stroke="#666666" points="559,-15 559,-176 704,-176 704,-15 559,-15"/>
</a>
</g>
</g>
<!-- Node1&#45;&gt;Node5 -->
<g id="edge4_Node000001_Node000005" class="edge">
<title>Node1&#45;&gt;Node5</title>
<g id="a_edge4_Node000001_Node000005"><a xlink:title=" ">
<path fill="none" stroke="#63b8ff" d="M449.02,-262.71C481.73,-242.63 518.86,-217.59 549.5,-191 554.75,-186.44 559.97,-181.55 565.08,-176.48"/>
<polygon fill="none" stroke="#63b8ff" points="447.09,-259.78 440.36,-267.97 450.73,-265.77 447.09,-259.78"/>
</a>
</g>
</g>
</g>
</svg>
