<?xml version="1.0" encoding="UTF-8" standalone="no"?>
<!DOCTYPE svg PUBLIC "-//W3C//DTD SVG 1.1//EN"
 "http://www.w3.org/Graphics/SVG/1.1/DTD/svg11.dtd">
<!-- Generated by graphviz version 2.43.0 (0)
 -->
<!-- Title: TimeFromProcessInfo Pages: 1 -->
<svg width="158pt" height="384pt"
 viewBox="0.00 0.00 158.00 384.00" xmlns="http://www.w3.org/2000/svg" xmlns:xlink="http://www.w3.org/1999/xlink">

<svg id="main" version="1.1" xmlns="http://www.w3.org/2000/svg" xmlns:xlink="http://www.w3.org/1999/xlink" xml:space="preserve" onload="init(evt)">
<style type="text/css"><![CDATA[
.node, .edge {opacity: 0.7;}
.node.selected, .edge.selected {opacity: 1;}
.edge:hover path { stroke: red; }
.edge:hover polygon { stroke: red; fill: red; }
]]></style>
<script type="application/ecmascript" xlink:href="svg.min.js"/>
<svg id="graph" class="graph">
<g id="graph0" class="graph" transform="scale(1 1) rotate(0) translate(4 380)">
<title>TimeFromProcessInfo</title>
<!-- Node1 -->
<g id="Node000001" class="node">
<title>Node1</title>
<g id="a_Node000001"><a xlink:title="Get TIME from a ProcessInfo.">
<polygon fill="#999999" stroke="transparent" points="142.5,-94 7.5,-94 7.5,0 142.5,0 142.5,-94"/>
<text text-anchor="start" x="22.5" y="-82" font-family="Helvetica,sans-Serif" font-size="10.00">TimeFromProcessInfo</text>
<text text-anchor="start" x="73.5" y="-67" font-family="Helvetica,sans-Serif" font-size="10.00"> </text>
<text text-anchor="start" x="12" y="-52" font-family="Helvetica,sans-Serif" font-size="10.00">+</text>
<text text-anchor="start" x="25" y="-52" font-family="Helvetica,sans-Serif" font-size="10.00">TimeFromProcessInfo()</text>
<text text-anchor="start" x="12" y="-37" font-family="Helvetica,sans-Serif" font-size="10.00">+</text>
<text text-anchor="start" x="25" y="-37" font-family="Helvetica,sans-Serif" font-size="10.00">TimeFromProcessInfo()</text>
<text text-anchor="start" x="12" y="-22" font-family="Helvetica,sans-Serif" font-size="10.00">+</text>
<text text-anchor="start" x="25" y="-22" font-family="Helvetica,sans-Serif" font-size="10.00">TimeFromProcessInfo()</text>
<text text-anchor="start" x="12" y="-7" font-family="Helvetica,sans-Serif" font-size="10.00">+</text>
<text text-anchor="start" x="25" y="-7" font-family="Helvetica,sans-Serif" font-size="10.00">TimeFromProcessInfo()</text>
<polygon fill="#666666" stroke="#666666" points="8,-77 8,-77 143,-77 143,-77 8,-77"/>
<polygon fill="#666666" stroke="#666666" points="8,-62 8,-62 143,-62 143,-62 8,-62"/>
<polygon fill="none" stroke="#666666" points="7.5,0 7.5,-94 142.5,-94 142.5,0 7.5,0"/>
</a>
</g>
</g>
<!-- Node2 -->
<g id="Node000002" class="node">
<title>Node2</title>
<g id="a_Node000002"><a xlink:href="classKratos_1_1Pipes_1_1VariableFromProcessInfo.html" target="_top" xlink:title=" ">
<polygon fill="white" stroke="transparent" points="150,-280 0,-280 0,-130 150,-130 150,-280"/>
<text text-anchor="start" x="14.5" y="-268" font-family="Helvetica,sans-Serif" font-size="10.00">VariableFromProcessInfo</text>
<text text-anchor="start" x="28" y="-257" font-family="Helvetica,sans-Serif" font-size="10.00">&lt; decltype(TIME)&gt;</text>
<text text-anchor="start" x="73" y="-242" font-family="Helvetica,sans-Serif" font-size="10.00"> </text>
<text text-anchor="start" x="4" y="-227" font-family="Helvetica,sans-Serif" font-size="10.00">+</text>
<text text-anchor="start" x="17" y="-227" font-family="Helvetica,sans-Serif" font-size="10.00">VariableFromProcessInfo()</text>
<text text-anchor="start" x="4" y="-212" font-family="Helvetica,sans-Serif" font-size="10.00">+</text>
<text text-anchor="start" x="17" y="-212" font-family="Helvetica,sans-Serif" font-size="10.00">VariableFromProcessInfo()</text>
<text text-anchor="start" x="4" y="-197" font-family="Helvetica,sans-Serif" font-size="10.00">+</text>
<text text-anchor="start" x="17" y="-197" font-family="Helvetica,sans-Serif" font-size="10.00">VariableFromProcessInfo()</text>
<text text-anchor="start" x="4" y="-182" font-family="Helvetica,sans-Serif" font-size="10.00">+</text>
<text text-anchor="start" x="17" y="-182" font-family="Helvetica,sans-Serif" font-size="10.00">VariableFromProcessInfo()</text>
<text text-anchor="start" x="4" y="-167" font-family="Helvetica,sans-Serif" font-size="10.00">+</text>
<text text-anchor="start" x="17" y="-167" font-family="Helvetica,sans-Serif" font-size="10.00">VariableFromProcessInfo()</text>
<text text-anchor="start" x="4" y="-152" font-family="Helvetica,sans-Serif" font-size="10.00">+</text>
<text text-anchor="start" x="17" y="-152" font-family="Helvetica,sans-Serif" font-size="10.00">operator()()</text>
<text text-anchor="start" x="4" y="-137" font-family="Helvetica,sans-Serif" font-size="10.00">+</text>
<text text-anchor="start" x="17" y="-137" font-family="Helvetica,sans-Serif" font-size="10.00">GetDefaultParameters()</text>
<polygon fill="#666666" stroke="#666666" points="0,-252 0,-252 150,-252 150,-252 0,-252"/>
<polygon fill="#666666" stroke="#666666" points="0,-237 0,-237 150,-237 150,-237 0,-237"/>
<polygon fill="none" stroke="#666666" points="0,-130 0,-280 150,-280 150,-130 0,-130"/>
</a>
</g>
</g>
<!-- Node2&#45;&gt;Node1 -->
<g id="edge1_Node000001_Node000002" class="edge">
<title>Node2&#45;&gt;Node1</title>
<g id="a_edge1_Node000001_Node000002"><a xlink:title=" ">
<path fill="none" stroke="#63b8ff" d="M75,-119.46C75,-110.79 75,-102.23 75,-94.21"/>
<polygon fill="none" stroke="#63b8ff" points="71.5,-119.66 75,-129.66 78.5,-119.66 71.5,-119.66"/>
</a>
</g>
</g>
<!-- Node3 -->
<g id="Node000003" class="node">
<title>Node3</title>
<g id="a_Node000003"><a xlink:href="structKratos_1_1Pipes_1_1Traits.html" target="_top" xlink:title=" ">
<polygon fill="white" stroke="transparent" points="142,-376 8,-376 8,-316 142,-316 142,-376"/>
<text text-anchor="start" x="13" y="-364" font-family="Helvetica,sans-Serif" font-size="10.00">Traits&lt; const ProcessInfo</text>
<text text-anchor="start" x="23.5" y="-353" font-family="Helvetica,sans-Serif" font-size="10.00"> &amp;, TVariable::Type &gt;</text>
<text text-anchor="start" x="73" y="-338" font-family="Helvetica,sans-Serif" font-size="10.00"> </text>
<text text-anchor="start" x="73" y="-323" font-family="Helvetica,sans-Serif" font-size="10.00"> </text>
<polygon fill="#666666" stroke="#666666" points="8,-348 8,-348 142,-348 142,-348 8,-348"/>
<polygon fill="#666666" stroke="#666666" points="8,-333 8,-333 142,-333 142,-333 8,-333"/>
<polygon fill="none" stroke="#666666" points="8,-316 8,-376 142,-376 142,-316 8,-316"/>
</a>
</g>
</g>
<!-- Node3&#45;&gt;Node2 -->
<g id="edge2_Node000002_Node000003" class="edge">
<title>Node3&#45;&gt;Node2</title>
<g id="a_edge2_Node000002_Node000003"><a xlink:title=" ">
<path fill="none" stroke="#63b8ff" d="M75,-305.7C75,-297.64 75,-288.9 75,-280.07"/>
<polygon fill="none" stroke="#63b8ff" points="71.5,-305.86 75,-315.86 78.5,-305.86 71.5,-305.86"/>
</a>
</g>
</g>
</g>
</svg>
</svg>

<style type='text/css'>
<![CDATA[
[data-mouse-over-selected='false'] { opacity: 0.7; }
[data-mouse-over-selected='true']  { opacity: 1.0; }
]]>
</style>
<script type="application/ecmascript"><![CDATA[
document.addEventListener('DOMContentLoaded', (event) => {
  highlightEdges();
  highlightAdjacentNodes();
});
]]></script>
</svg>
