<?xml version="1.0" encoding="UTF-8" standalone="no"?>
<!DOCTYPE svg PUBLIC "-//W3C//DTD SVG 1.1//EN"
 "http://www.w3.org/Graphics/SVG/1.1/DTD/svg11.dtd">
<!-- Generated by graphviz version 2.43.0 (0)
 -->
<!-- Title: StepFromProcessInfo Pages: 1 -->
<svg width="158pt" height="384pt"
 viewBox="0.00 0.00 158.00 384.00" xmlns="http://www.w3.org/2000/svg" xmlns:xlink="http://www.w3.org/1999/xlink">
<g id="graph0" class="graph" transform="scale(1 1) rotate(0) translate(4 380)">
<title>StepFromProcessInfo</title>
<!-- Node1 -->
<g id="Node000001" class="node">
<title>Node1</title>
<g id="a_Node000001"><a xlink:title="Get STEP from a ProcessInfo.">
<polygon fill="#999999" stroke="transparent" points="141,-94 9,-94 9,0 141,0 141,-94"/>
<text text-anchor="start" x="23.5" y="-82" font-family="Helvetica,sans-Serif" font-size="10.00">StepFromProcessInfo</text>
<text text-anchor="start" x="73" y="-67" font-family="Helvetica,sans-Serif" font-size="10.00"> </text>
<text text-anchor="start" x="13" y="-52" font-family="Helvetica,sans-Serif" font-size="10.00">+</text>
<text text-anchor="start" x="26" y="-52" font-family="Helvetica,sans-Serif" font-size="10.00">StepFromProcessInfo()</text>
<text text-anchor="start" x="13" y="-37" font-family="Helvetica,sans-Serif" font-size="10.00">+</text>
<text text-anchor="start" x="26" y="-37" font-family="Helvetica,sans-Serif" font-size="10.00">StepFromProcessInfo()</text>
<text text-anchor="start" x="13" y="-22" font-family="Helvetica,sans-Serif" font-size="10.00">+</text>
<text text-anchor="start" x="26" y="-22" font-family="Helvetica,sans-Serif" font-size="10.00">StepFromProcessInfo()</text>
<text text-anchor="start" x="13" y="-7" font-family="Helvetica,sans-Serif" font-size="10.00">+</text>
<text text-anchor="start" x="26" y="-7" font-family="Helvetica,sans-Serif" font-size="10.00">StepFromProcessInfo()</text>
<polygon fill="#666666" stroke="#666666" points="9,-77 9,-77 141,-77 141,-77 9,-77"/>
<polygon fill="#666666" stroke="#666666" points="9,-62 9,-62 141,-62 141,-62 9,-62"/>
<polygon fill="none" stroke="#666666" points="9,0 9,-94 141,-94 141,0 9,0"/>
</a>
</g>
</g>
<!-- Node2 -->
<g id="Node000002" class="node">
<title>Node2</title>
<g id="a_Node000002"><a xlink:href="classKratos_1_1Pipes_1_1VariableFromProcessInfo.html" target="_top" xlink:title=" ">
<polygon fill="white" stroke="transparent" points="150,-280 0,-280 0,-130 150,-130 150,-280"/>
<text text-anchor="start" x="14.5" y="-268" font-family="Helvetica,sans-Serif" font-size="10.00">VariableFromProcessInfo</text>
<text text-anchor="start" x="28" y="-257" font-family="Helvetica,sans-Serif" font-size="10.00">&lt; decltype(STEP)&gt;</text>
<text text-anchor="start" x="73" y="-242" font-family="Helvetica,sans-Serif" font-size="10.00"> </text>
<text text-anchor="start" x="4" y="-227" font-family="Helvetica,sans-Serif" font-size="10.00">+</text>
<text text-anchor="start" x="17" y="-227" font-family="Helvetica,sans-Serif" font-size="10.00">VariableFromProcessInfo()</text>
<text text-anchor="start" x="4" y="-212" font-family="Helvetica,sans-Serif" font-size="10.00">+</text>
<text text-anchor="start" x="17" y="-212" font-family="Helvetica,sans-Serif" font-size="10.00">VariableFromProcessInfo()</text>
<text text-anchor="start" x="4" y="-197" font-family="Helvetica,sans-Serif" font-size="10.00">+</text>
<text text-anchor="start" x="17" y="-197" font-family="Helvetica,sans-Serif" font-size="10.00">VariableFromProcessInfo()</text>
<text text-anchor="start" x="4" y="-182" font-family="Helvetica,sans-Serif" font-size="10.00">+</text>
<text text-anchor="start" x="17" y="-182" font-family="Helvetica,sans-Serif" font-size="10.00">VariableFromProcessInfo()</text>
<text text-anchor="start" x="4" y="-167" font-family="Helvetica,sans-Serif" font-size="10.00">+</text>
<text text-anchor="start" x="17" y="-167" font-family="Helvetica,sans-Serif" font-size="10.00">VariableFromProcessInfo()</text>
<text text-anchor="start" x="4" y="-152" font-family="Helvetica,sans-Serif" font-size="10.00">+</text>
<text text-anchor="start" x="17" y="-152" font-family="Helvetica,sans-Serif" font-size="10.00">operator()()</text>
<text text-anchor="start" x="4" y="-137" font-family="Helvetica,sans-Serif" font-size="10.00">+</text>
<text text-anchor="start" x="17" y="-137" font-family="Helvetica,sans-Serif" font-size="10.00">GetDefaultParameters()</text>
<polygon fill="#666666" stroke="#666666" points="0,-252 0,-252 150,-252 150,-252 0,-252"/>
<polygon fill="#666666" stroke="#666666" points="0,-237 0,-237 150,-237 150,-237 0,-237"/>
<polygon fill="none" stroke="#666666" points="0,-130 0,-280 150,-280 150,-130 0,-130"/>
</a>
</g>
</g>
<!-- Node2&#45;&gt;Node1 -->
<g id="edge1_Node000001_Node000002" class="edge">
<title>Node2&#45;&gt;Node1</title>
<g id="a_edge1_Node000001_Node000002"><a xlink:title=" ">
<path fill="none" stroke="#63b8ff" d="M75,-119.46C75,-110.79 75,-102.23 75,-94.21"/>
<polygon fill="none" stroke="#63b8ff" points="71.5,-119.66 75,-129.66 78.5,-119.66 71.5,-119.66"/>
</a>
</g>
</g>
<!-- Node3 -->
<g id="Node000003" class="node">
<title>Node3</title>
<g id="a_Node000003"><a xlink:href="structKratos_1_1Pipes_1_1Traits.html" target="_top" xlink:title=" ">
<polygon fill="white" stroke="transparent" points="142,-376 8,-376 8,-316 142,-316 142,-376"/>
<text text-anchor="start" x="13" y="-364" font-family="Helvetica,sans-Serif" font-size="10.00">Traits&lt; const ProcessInfo</text>
<text text-anchor="start" x="23.5" y="-353" font-family="Helvetica,sans-Serif" font-size="10.00"> &amp;, TVariable::Type &gt;</text>
<text text-anchor="start" x="73" y="-338" font-family="Helvetica,sans-Serif" font-size="10.00"> </text>
<text text-anchor="start" x="73" y="-323" font-family="Helvetica,sans-Serif" font-size="10.00"> </text>
<polygon fill="#666666" stroke="#666666" points="8,-348 8,-348 142,-348 142,-348 8,-348"/>
<polygon fill="#666666" stroke="#666666" points="8,-333 8,-333 142,-333 142,-333 8,-333"/>
<polygon fill="none" stroke="#666666" points="8,-316 8,-376 142,-376 142,-316 8,-316"/>
</a>
</g>
</g>
<!-- Node3&#45;&gt;Node2 -->
<g id="edge2_Node000002_Node000003" class="edge">
<title>Node3&#45;&gt;Node2</title>
<g id="a_edge2_Node000002_Node000003"><a xlink:title=" ">
<path fill="none" stroke="#63b8ff" d="M75,-305.7C75,-297.64 75,-288.9 75,-280.07"/>
<polygon fill="none" stroke="#63b8ff" points="71.5,-305.86 75,-315.86 78.5,-305.86 71.5,-305.86"/>
</a>
</g>
</g>
</g>
</svg>
