<?xml version="1.0" encoding="UTF-8" standalone="no"?>
<!DOCTYPE svg PUBLIC "-//W3C//DTD SVG 1.1//EN"
 "http://www.w3.org/Graphics/SVG/1.1/DTD/svg11.dtd">
<!-- Generated by graphviz version 2.43.0 (0)
 -->
<!-- Title: WRAppClass Pages: 1 -->
<svg width="736pt" height="358pt"
 viewBox="0.00 0.00 735.50 358.00" xmlns="http://www.w3.org/2000/svg" xmlns:xlink="http://www.w3.org/1999/xlink">
<g id="graph0" class="graph" transform="scale(1 1) rotate(0) translate(4 354)">
<title>WRAppClass</title>
<polygon fill="white" stroke="transparent" points="-4,4 -4,-354 731.5,-354 731.5,4 -4,4"/>
<!-- Node1 -->
<g id="node1" class="node">
<title>Node1</title>
<g id="a_node1"><a xlink:title="Dummy base class for registering and exporting exposed classes in WRApplication.">
<polygon fill="#bfbfbf" stroke="black" points="303.5,-204.5 303.5,-349.5 455.5,-349.5 455.5,-204.5 303.5,-204.5"/>
<text text-anchor="middle" x="379.5" y="-337.5" font-family="Helvetica,sans-Serif" font-size="10.00">WRAppClass</text>
<polyline fill="none" stroke="black" points="303.5,-330.5 455.5,-330.5 "/>
<text text-anchor="middle" x="379.5" y="-318.5" font-family="Helvetica,sans-Serif" font-size="10.00"> </text>
<polyline fill="none" stroke="black" points="303.5,-311.5 455.5,-311.5 "/>
<text text-anchor="start" x="311.5" y="-299.5" font-family="Helvetica,sans-Serif" font-size="10.00">+ KRATOS_CLASS_POINTER</text>
<text text-anchor="start" x="311.5" y="-288.5" font-family="Helvetica,sans-Serif" font-size="10.00">_DEFINITION()</text>
<text text-anchor="start" x="311.5" y="-277.5" font-family="Helvetica,sans-Serif" font-size="10.00">+ WRAppClass()</text>
<text text-anchor="start" x="311.5" y="-266.5" font-family="Helvetica,sans-Serif" font-size="10.00">+ WRAppClass()</text>
<text text-anchor="start" x="311.5" y="-255.5" font-family="Helvetica,sans-Serif" font-size="10.00">+ WRAppClass()</text>
<text text-anchor="start" x="311.5" y="-244.5" font-family="Helvetica,sans-Serif" font-size="10.00">+ ~WRAppClass()</text>
<text text-anchor="start" x="311.5" y="-233.5" font-family="Helvetica,sans-Serif" font-size="10.00">+ operator=()</text>
<text text-anchor="start" x="311.5" y="-222.5" font-family="Helvetica,sans-Serif" font-size="10.00">+ operator=()</text>
<text text-anchor="start" x="311.5" y="-211.5" font-family="Helvetica,sans-Serif" font-size="10.00">+ GetDefaultParameters()</text>
</a>
</g>
</g>
<!-- Node2 -->
<g id="node2" class="node">
<title>Node2</title>
<g id="a_node2"><a xlink:href="classKratos_1_1WRApp_1_1Hdf5IdToIndexOperation.html" target="_top" xlink:title=" ">
<polygon fill="white" stroke="black" points="0,-6 0,-162 161,-162 161,-6 0,-6"/>
<text text-anchor="middle" x="80.5" y="-150" font-family="Helvetica,sans-Serif" font-size="10.00">Hdf5IdToIndexOperation</text>
<polyline fill="none" stroke="black" points="0,-143 161,-143 "/>
<text text-anchor="middle" x="80.5" y="-131" font-family="Helvetica,sans-Serif" font-size="10.00"> </text>
<polyline fill="none" stroke="black" points="0,-124 161,-124 "/>
<text text-anchor="start" x="8" y="-112" font-family="Helvetica,sans-Serif" font-size="10.00">+ KRATOS_CLASS_POINTER</text>
<text text-anchor="start" x="8" y="-101" font-family="Helvetica,sans-Serif" font-size="10.00">_DEFINITION()</text>
<text text-anchor="start" x="8" y="-90" font-family="Helvetica,sans-Serif" font-size="10.00">+ Hdf5IdToIndexOperation()</text>
<text text-anchor="start" x="8" y="-79" font-family="Helvetica,sans-Serif" font-size="10.00">+ Hdf5IdToIndexOperation()</text>
<text text-anchor="start" x="8" y="-68" font-family="Helvetica,sans-Serif" font-size="10.00">+ Hdf5IdToIndexOperation()</text>
<text text-anchor="start" x="8" y="-57" font-family="Helvetica,sans-Serif" font-size="10.00">+ Hdf5IdToIndexOperation()</text>
<text text-anchor="start" x="8" y="-46" font-family="Helvetica,sans-Serif" font-size="10.00">+ operator=()</text>
<text text-anchor="start" x="8" y="-35" font-family="Helvetica,sans-Serif" font-size="10.00">+ ~Hdf5IdToIndexOperation()</text>
<text text-anchor="start" x="8" y="-24" font-family="Helvetica,sans-Serif" font-size="10.00">+ Execute()</text>
<text text-anchor="start" x="8" y="-13" font-family="Helvetica,sans-Serif" font-size="10.00">+ GetDefaultParameters()</text>
</a>
</g>
</g>
<!-- Node1&#45;&gt;Node2 -->
<g id="edge1" class="edge">
<title>Node1&#45;&gt;Node2</title>
<path fill="none" stroke="midnightblue" d="M293.93,-238.61C254.57,-219.77 208.16,-195.18 169.5,-168 166.73,-166.06 163.97,-164.03 161.21,-161.94"/>
<polygon fill="none" stroke="midnightblue" points="292.71,-241.9 303.25,-243.02 295.71,-235.58 292.71,-241.9"/>
</g>
<!-- Node3 -->
<g id="node3" class="node">
<title>Node3</title>
<g id="a_node3"><a xlink:href="classKratos_1_1WRApp_1_1Hdf5IndexConnectivitiesOperation.html" target="_top" xlink:title=" ">
<polygon fill="white" stroke="black" points="179,-0.5 179,-167.5 382,-167.5 382,-0.5 179,-0.5"/>
<text text-anchor="middle" x="280.5" y="-155.5" font-family="Helvetica,sans-Serif" font-size="10.00">Hdf5IndexConnectivitiesOperation</text>
<polyline fill="none" stroke="black" points="179,-148.5 382,-148.5 "/>
<text text-anchor="middle" x="280.5" y="-136.5" font-family="Helvetica,sans-Serif" font-size="10.00"> </text>
<polyline fill="none" stroke="black" points="179,-129.5 382,-129.5 "/>
<text text-anchor="start" x="187" y="-117.5" font-family="Helvetica,sans-Serif" font-size="10.00">+ KRATOS_CLASS_POINTER</text>
<text text-anchor="start" x="187" y="-106.5" font-family="Helvetica,sans-Serif" font-size="10.00">_DEFINITION()</text>
<text text-anchor="start" x="187" y="-95.5" font-family="Helvetica,sans-Serif" font-size="10.00">+ Hdf5IndexConnectivitiesOperation()</text>
<text text-anchor="start" x="187" y="-84.5" font-family="Helvetica,sans-Serif" font-size="10.00">+ Hdf5IndexConnectivitiesOperation()</text>
<text text-anchor="start" x="187" y="-73.5" font-family="Helvetica,sans-Serif" font-size="10.00">+ Hdf5IndexConnectivitiesOperation()</text>
<text text-anchor="start" x="187" y="-62.5" font-family="Helvetica,sans-Serif" font-size="10.00">+ Hdf5IndexConnectivitiesOperation()</text>
<text text-anchor="start" x="187" y="-51.5" font-family="Helvetica,sans-Serif" font-size="10.00">+ operator=()</text>
<text text-anchor="start" x="187" y="-40.5" font-family="Helvetica,sans-Serif" font-size="10.00">+ ~Hdf5IndexConnectivities</text>
<text text-anchor="start" x="187" y="-29.5" font-family="Helvetica,sans-Serif" font-size="10.00">Operation()</text>
<text text-anchor="start" x="187" y="-18.5" font-family="Helvetica,sans-Serif" font-size="10.00">+ Execute()</text>
<text text-anchor="start" x="187" y="-7.5" font-family="Helvetica,sans-Serif" font-size="10.00">+ GetDefaultParameters()</text>
</a>
</g>
</g>
<!-- Node1&#45;&gt;Node3 -->
<g id="edge2" class="edge">
<title>Node1&#45;&gt;Node3</title>
<path fill="none" stroke="midnightblue" d="M337.66,-195.28C332.93,-186.14 328.1,-176.83 323.35,-167.67"/>
<polygon fill="none" stroke="midnightblue" points="334.65,-197.07 342.35,-204.34 340.86,-193.85 334.65,-197.07"/>
</g>
<!-- Node4 -->
<g id="node4" class="node">
<title>Node4</title>
<g id="a_node4"><a xlink:href="classKratos_1_1WRApp_1_1Hdf5LinSpaceOperation.html" target="_top" xlink:title=" ">
<polygon fill="white" stroke="black" points="399.5,-6 399.5,-162 557.5,-162 557.5,-6 399.5,-6"/>
<text text-anchor="middle" x="478.5" y="-150" font-family="Helvetica,sans-Serif" font-size="10.00">Hdf5LinSpaceOperation</text>
<polyline fill="none" stroke="black" points="399.5,-143 557.5,-143 "/>
<text text-anchor="middle" x="478.5" y="-131" font-family="Helvetica,sans-Serif" font-size="10.00"> </text>
<polyline fill="none" stroke="black" points="399.5,-124 557.5,-124 "/>
<text text-anchor="start" x="407.5" y="-112" font-family="Helvetica,sans-Serif" font-size="10.00">+ KRATOS_CLASS_POINTER</text>
<text text-anchor="start" x="407.5" y="-101" font-family="Helvetica,sans-Serif" font-size="10.00">_DEFINITION()</text>
<text text-anchor="start" x="407.5" y="-90" font-family="Helvetica,sans-Serif" font-size="10.00">+ Hdf5LinSpaceOperation()</text>
<text text-anchor="start" x="407.5" y="-79" font-family="Helvetica,sans-Serif" font-size="10.00">+ Hdf5LinSpaceOperation()</text>
<text text-anchor="start" x="407.5" y="-68" font-family="Helvetica,sans-Serif" font-size="10.00">+ Hdf5LinSpaceOperation()</text>
<text text-anchor="start" x="407.5" y="-57" font-family="Helvetica,sans-Serif" font-size="10.00">+ Hdf5LinSpaceOperation()</text>
<text text-anchor="start" x="407.5" y="-46" font-family="Helvetica,sans-Serif" font-size="10.00">+ operator=()</text>
<text text-anchor="start" x="407.5" y="-35" font-family="Helvetica,sans-Serif" font-size="10.00">+ ~Hdf5LinSpaceOperation()</text>
<text text-anchor="start" x="407.5" y="-24" font-family="Helvetica,sans-Serif" font-size="10.00">+ Execute()</text>
<text text-anchor="start" x="407.5" y="-13" font-family="Helvetica,sans-Serif" font-size="10.00">+ GetDefaultParameters()</text>
</a>
</g>
</g>
<!-- Node1&#45;&gt;Node4 -->
<g id="edge3" class="edge">
<title>Node1&#45;&gt;Node4</title>
<path fill="none" stroke="midnightblue" d="M421.37,-195.22C427.05,-184.27 432.86,-173.06 438.49,-162.18"/>
<polygon fill="none" stroke="midnightblue" points="418.14,-193.85 416.65,-204.34 424.35,-197.07 418.14,-193.85"/>
</g>
<!-- Node5 -->
<g id="node5" class="node">
<title>Node5</title>
<g id="a_node5"><a xlink:href="classKratos_1_1WRApp_1_1ModelPredicatePipe.html" target="_top" xlink:title=" ">
<polygon fill="white" stroke="black" points="575.5,-11.5 575.5,-156.5 727.5,-156.5 727.5,-11.5 575.5,-11.5"/>
<text text-anchor="start" x="583.5" y="-144.5" font-family="Helvetica,sans-Serif" font-size="10.00">ModelPredicatePipe</text>
<text text-anchor="middle" x="651.5" y="-133.5" font-family="Helvetica,sans-Serif" font-size="10.00">&lt; TPipe &gt;</text>
<polyline fill="none" stroke="black" points="575.5,-126.5 727.5,-126.5 "/>
<text text-anchor="middle" x="651.5" y="-114.5" font-family="Helvetica,sans-Serif" font-size="10.00"> </text>
<polyline fill="none" stroke="black" points="575.5,-107.5 727.5,-107.5 "/>
<text text-anchor="start" x="583.5" y="-95.5" font-family="Helvetica,sans-Serif" font-size="10.00">+ KRATOS_CLASS_POINTER</text>
<text text-anchor="start" x="583.5" y="-84.5" font-family="Helvetica,sans-Serif" font-size="10.00">_DEFINITION()</text>
<text text-anchor="start" x="583.5" y="-73.5" font-family="Helvetica,sans-Serif" font-size="10.00">+ ModelPredicatePipe()</text>
<text text-anchor="start" x="583.5" y="-62.5" font-family="Helvetica,sans-Serif" font-size="10.00">+ ModelPredicatePipe()</text>
<text text-anchor="start" x="583.5" y="-51.5" font-family="Helvetica,sans-Serif" font-size="10.00">+ ModelPredicatePipe()</text>
<text text-anchor="start" x="583.5" y="-40.5" font-family="Helvetica,sans-Serif" font-size="10.00">+ ModelPredicatePipe()</text>
<text text-anchor="start" x="583.5" y="-29.5" font-family="Helvetica,sans-Serif" font-size="10.00">+ operator()()</text>
<text text-anchor="start" x="583.5" y="-18.5" font-family="Helvetica,sans-Serif" font-size="10.00">+ GetDefaultParameters()</text>
</a>
</g>
</g>
<!-- Node1&#45;&gt;Node5 -->
<g id="edge4" class="edge">
<title>Node1&#45;&gt;Node5</title>
<path fill="none" stroke="midnightblue" d="M465.08,-232.48C497.95,-214.27 535.09,-191.81 566.5,-168 571.27,-164.39 576.04,-160.53 580.77,-156.52"/>
<polygon fill="none" stroke="midnightblue" points="463.01,-229.63 455.93,-237.5 466.38,-235.76 463.01,-229.63"/>
</g>
</g>
</svg>
