<?xml version="1.0" encoding="UTF-8" standalone="no"?>
<!DOCTYPE svg PUBLIC "-//W3C//DTD SVG 1.1//EN"
 "http://www.w3.org/Graphics/SVG/1.1/DTD/svg11.dtd">
<!-- Generated by graphviz version 2.43.0 (0)
 -->
<!-- Title: ProcessInfoFromModelPart Pages: 1 -->
<svg width="173pt" height="226pt"
 viewBox="0.00 0.00 173.00 226.00" xmlns="http://www.w3.org/2000/svg" xmlns:xlink="http://www.w3.org/1999/xlink">
<g id="graph0" class="graph" transform="scale(1 1) rotate(0) translate(4 222)">
<title>ProcessInfoFromModelPart</title>
<polygon fill="white" stroke="transparent" points="-4,4 -4,-222 169,-222 169,4 -4,4"/>
<!-- Node1 -->
<g id="node1" class="node">
<title>Node1</title>
<g id="a_node1"><a xlink:title="Get the ProcessInfo of a ModelPart.">
<polygon fill="#bfbfbf" stroke="black" points="0,-0.5 0,-112.5 165,-112.5 165,-0.5 0,-0.5"/>
<text text-anchor="middle" x="82.5" y="-100.5" font-family="Helvetica,sans-Serif" font-size="10.00">ProcessInfoFromModelPart</text>
<polyline fill="none" stroke="black" points="0,-93.5 165,-93.5 "/>
<text text-anchor="middle" x="82.5" y="-81.5" font-family="Helvetica,sans-Serif" font-size="10.00"> </text>
<polyline fill="none" stroke="black" points="0,-74.5 165,-74.5 "/>
<text text-anchor="start" x="8" y="-62.5" font-family="Helvetica,sans-Serif" font-size="10.00">+ ProcessInfoFromModelPart()</text>
<text text-anchor="start" x="8" y="-51.5" font-family="Helvetica,sans-Serif" font-size="10.00">+ ProcessInfoFromModelPart()</text>
<text text-anchor="start" x="8" y="-40.5" font-family="Helvetica,sans-Serif" font-size="10.00">+ ProcessInfoFromModelPart()</text>
<text text-anchor="start" x="8" y="-29.5" font-family="Helvetica,sans-Serif" font-size="10.00">+ ProcessInfoFromModelPart()</text>
<text text-anchor="start" x="8" y="-18.5" font-family="Helvetica,sans-Serif" font-size="10.00">+ operator()()</text>
<text text-anchor="start" x="8" y="-7.5" font-family="Helvetica,sans-Serif" font-size="10.00">+ GetDefaultParameters()</text>
</a>
</g>
</g>
<!-- Node2 -->
<g id="node2" class="node">
<title>Node2</title>
<g id="a_node2"><a xlink:href="structKratos_1_1Pipes_1_1Traits.html" target="_top" xlink:title=" ">
<polygon fill="white" stroke="black" points="12.5,-149.5 12.5,-217.5 152.5,-217.5 152.5,-149.5 12.5,-149.5"/>
<text text-anchor="start" x="20.5" y="-205.5" font-family="Helvetica,sans-Serif" font-size="10.00">Traits&lt; const ModelPart</text>
<text text-anchor="middle" x="82.5" y="-194.5" font-family="Helvetica,sans-Serif" font-size="10.00"> &amp;, const ProcessInfo &amp; &gt;</text>
<polyline fill="none" stroke="black" points="12.5,-187.5 152.5,-187.5 "/>
<text text-anchor="middle" x="82.5" y="-175.5" font-family="Helvetica,sans-Serif" font-size="10.00"> </text>
<polyline fill="none" stroke="black" points="12.5,-168.5 152.5,-168.5 "/>
<text text-anchor="middle" x="82.5" y="-156.5" font-family="Helvetica,sans-Serif" font-size="10.00"> </text>
</a>
</g>
</g>
<!-- Node2&#45;&gt;Node1 -->
<g id="edge1" class="edge">
<title>Node2&#45;&gt;Node1</title>
<path fill="none" stroke="midnightblue" d="M82.5,-139.18C82.5,-130.6 82.5,-121.49 82.5,-112.59"/>
<polygon fill="none" stroke="midnightblue" points="79,-139.33 82.5,-149.33 86,-139.33 79,-139.33"/>
</g>
</g>
</svg>
