<?xml version="1.0" encoding="UTF-8" standalone="no"?>
<!DOCTYPE svg PUBLIC "-//W3C//DTD SVG 1.1//EN"
 "http://www.w3.org/Graphics/SVG/1.1/DTD/svg11.dtd">
<!-- Generated by graphviz version 2.43.0 (0)
 -->
<!-- Title: StepFromProcessInfo Pages: 1 -->
<svg width="164pt" height="375pt"
 viewBox="0.00 0.00 164.00 375.00" xmlns="http://www.w3.org/2000/svg" xmlns:xlink="http://www.w3.org/1999/xlink">
<g id="graph0" class="graph" transform="scale(1 1) rotate(0) translate(4 371)">
<title>StepFromProcessInfo</title>
<polygon fill="white" stroke="transparent" points="-4,4 -4,-371 160,-371 160,4 -4,4"/>
<!-- Node1 -->
<g id="node1" class="node">
<title>Node1</title>
<g id="a_node1"><a xlink:title="Get STEP from a ProcessInfo.">
<polygon fill="#bfbfbf" stroke="black" points="9,-0.5 9,-90.5 147,-90.5 147,-0.5 9,-0.5"/>
<text text-anchor="middle" x="78" y="-78.5" font-family="Helvetica,sans-Serif" font-size="10.00">StepFromProcessInfo</text>
<polyline fill="none" stroke="black" points="9,-71.5 147,-71.5 "/>
<text text-anchor="middle" x="78" y="-59.5" font-family="Helvetica,sans-Serif" font-size="10.00"> </text>
<polyline fill="none" stroke="black" points="9,-52.5 147,-52.5 "/>
<text text-anchor="start" x="17" y="-40.5" font-family="Helvetica,sans-Serif" font-size="10.00">+ StepFromProcessInfo()</text>
<text text-anchor="start" x="17" y="-29.5" font-family="Helvetica,sans-Serif" font-size="10.00">+ StepFromProcessInfo()</text>
<text text-anchor="start" x="17" y="-18.5" font-family="Helvetica,sans-Serif" font-size="10.00">+ StepFromProcessInfo()</text>
<text text-anchor="start" x="17" y="-7.5" font-family="Helvetica,sans-Serif" font-size="10.00">+ StepFromProcessInfo()</text>
</a>
</g>
</g>
<!-- Node2 -->
<g id="node2" class="node">
<title>Node2</title>
<g id="a_node2"><a xlink:href="classKratos_1_1Pipes_1_1VariableFromProcessInfo.html" target="_top" xlink:title=" ">
<polygon fill="white" stroke="black" points="0,-127.5 0,-261.5 156,-261.5 156,-127.5 0,-127.5"/>
<text text-anchor="start" x="8" y="-249.5" font-family="Helvetica,sans-Serif" font-size="10.00">VariableFromProcessInfo</text>
<text text-anchor="middle" x="78" y="-238.5" font-family="Helvetica,sans-Serif" font-size="10.00">&lt; decltype(STEP)&gt;</text>
<polyline fill="none" stroke="black" points="0,-231.5 156,-231.5 "/>
<text text-anchor="middle" x="78" y="-219.5" font-family="Helvetica,sans-Serif" font-size="10.00"> </text>
<polyline fill="none" stroke="black" points="0,-212.5 156,-212.5 "/>
<text text-anchor="start" x="8" y="-200.5" font-family="Helvetica,sans-Serif" font-size="10.00">+ VariableFromProcessInfo()</text>
<text text-anchor="start" x="8" y="-189.5" font-family="Helvetica,sans-Serif" font-size="10.00">+ VariableFromProcessInfo()</text>
<text text-anchor="start" x="8" y="-178.5" font-family="Helvetica,sans-Serif" font-size="10.00">+ VariableFromProcessInfo()</text>
<text text-anchor="start" x="8" y="-167.5" font-family="Helvetica,sans-Serif" font-size="10.00">+ VariableFromProcessInfo()</text>
<text text-anchor="start" x="8" y="-156.5" font-family="Helvetica,sans-Serif" font-size="10.00">+ VariableFromProcessInfo()</text>
<text text-anchor="start" x="8" y="-145.5" font-family="Helvetica,sans-Serif" font-size="10.00">+ operator()()</text>
<text text-anchor="start" x="8" y="-134.5" font-family="Helvetica,sans-Serif" font-size="10.00">+ GetDefaultParameters()</text>
</a>
</g>
</g>
<!-- Node2&#45;&gt;Node1 -->
<g id="edge1" class="edge">
<title>Node2&#45;&gt;Node1</title>
<path fill="none" stroke="midnightblue" d="M78,-117.15C78,-108.15 78,-99.2 78,-90.85"/>
<polygon fill="none" stroke="midnightblue" points="74.5,-117.31 78,-127.31 81.5,-117.31 74.5,-117.31"/>
</g>
<!-- Node3 -->
<g id="node3" class="node">
<title>Node3</title>
<g id="a_node3"><a xlink:href="structKratos_1_1Pipes_1_1Traits.html" target="_top" xlink:title=" ">
<polygon fill="white" stroke="black" points="8,-298.5 8,-366.5 148,-366.5 148,-298.5 8,-298.5"/>
<text text-anchor="start" x="16" y="-354.5" font-family="Helvetica,sans-Serif" font-size="10.00">Traits&lt; const ProcessInfo</text>
<text text-anchor="middle" x="78" y="-343.5" font-family="Helvetica,sans-Serif" font-size="10.00"> &amp;, TVariable::Type &gt;</text>
<polyline fill="none" stroke="black" points="8,-336.5 148,-336.5 "/>
<text text-anchor="middle" x="78" y="-324.5" font-family="Helvetica,sans-Serif" font-size="10.00"> </text>
<polyline fill="none" stroke="black" points="8,-317.5 148,-317.5 "/>
<text text-anchor="middle" x="78" y="-305.5" font-family="Helvetica,sans-Serif" font-size="10.00"> </text>
</a>
</g>
</g>
<!-- Node3&#45;&gt;Node2 -->
<g id="edge2" class="edge">
<title>Node3&#45;&gt;Node2</title>
<path fill="none" stroke="midnightblue" d="M78,-287.96C78,-279.57 78,-270.6 78,-261.68"/>
<polygon fill="none" stroke="midnightblue" points="74.5,-288.23 78,-298.23 81.5,-288.23 74.5,-288.23"/>
</g>
</g>
</svg>
