<?xml version="1.0" encoding="UTF-8" standalone="no"?>
<!DOCTYPE svg PUBLIC "-//W3C//DTD SVG 1.1//EN"
 "http://www.w3.org/Graphics/SVG/1.1/DTD/svg11.dtd">
<!-- Generated by graphviz version 2.43.0 (0)
 -->
<!-- Title: WRAppClass Pages: 1 -->
<!--zoomable 400 -->

<svg id="main" version="1.1" xmlns="http://www.w3.org/2000/svg" xmlns:xlink="http://www.w3.org/1999/xlink" xml:space="preserve" onload="init(evt)">
<style type="text/css"><![CDATA[
.node, .edge {opacity: 0.7;}
.node.selected, .edge.selected {opacity: 1;}
.edge:hover path { stroke: red; }
.edge:hover polygon { stroke: red; fill: red; }
]]></style>

<defs>
  <circle id="rim" cx="0" cy="0" r="7"/>
  <circle id="rim2" cx="0" cy="0" r="3.5"/>
  <g id="zoomPlus">
    <use xlink:href="#rim" fill="#404040"><set attributeName="fill" to="#808080" begin="zoomplus.mouseover" end="zoomplus.mouseout"/></use>
    <path d="M-4,0h8M0,-4v8" fill="none" stroke="white" stroke-width="1.5" pointer-events="none"/>
  </g>
  <g id="zoomMin">
    <use xlink:href="#rim" fill="#404040"><set attributeName="fill" to="#808080" begin="zoomminus.mouseover" end="zoomminus.mouseout"/></use>
    <path d="M-4,0h8" fill="none" stroke="white" stroke-width="1.5" pointer-events="none"/>
  </g>
  <g id="arrowUp" transform="translate(30 24)">
    <use xlink:href="#rim"/>
    <path pointer-events="none" fill="none" stroke="white" stroke-width="1.5" d="M0,-3.0v7 M-2.5,-0.5L0,-3.0L2.5,-0.5"/>
  </g>
  <g id="arrowRight" transform="rotate(90) translate(36 -43)">
    <use xlink:href="#rim"/>
    <path pointer-events="none" fill="none" stroke="white" stroke-width="1.5" d="M0,-3.0v7 M-2.5,-0.5L0,-3.0L2.5,-0.5"/>
  </g>
  <g id="arrowDown" transform="rotate(180) translate(-30 -48)">
    <use xlink:href="#rim"/>
    <path pointer-events="none" fill="none" stroke="white" stroke-width="1.5" d="M0,-3.0v7 M-2.5,-0.5L0,-3.0L2.5,-0.5"/>
  </g>
  <g id="arrowLeft" transform="rotate(270) translate(-36 17)">
    <use xlink:href="#rim"/>
    <path pointer-events="none" fill="none" stroke="white" stroke-width="1.5" d="M0,-3.0v7 M-2.5,-0.5L0,-3.0L2.5,-0.5"/>
  </g>
  <g id="resetDef">
    <use xlink:href="#rim2" fill="#404040"><set attributeName="fill" to="#808080" begin="reset.mouseover" end="reset.mouseout"/></use>
  </g>
</defs>
<script type="application/ecmascript">
var viewWidth = 712;
var viewHeight = 400;
var sectionId = 'dynsection-0';
</script>
<script type="application/ecmascript" xlink:href="svg.min.js"/>
<svg id="graph" class="graph">
<g id="viewport">
<title>WRAppClass</title>
<!-- Node1 -->
<g id="Node000001" class="node">
<title>Node1</title>
<g id="a_Node000001"><a xlink:title="Dummy base class for registering and exporting exposed classes in WRApplication.">
<polygon fill="#999999" stroke="transparent" points="440,-392 295,-392 295,-227 440,-227 440,-392"/>
<text text-anchor="start" x="337" y="-379.5" font-family="Helvetica,sans-Serif" font-size="10.00">WRAppClass</text>
<text text-anchor="start" x="366" y="-364.5" font-family="Helvetica,sans-Serif" font-size="10.00"> </text>
<text text-anchor="start" x="299.5" y="-349.5" font-family="Helvetica,sans-Serif" font-size="10.00">+</text>
<text text-anchor="start" x="312.5" y="-349.5" font-family="Helvetica,sans-Serif" font-size="10.00">KRATOS_CLASS_POINTER</text>
<text text-anchor="start" x="312.5" y="-338.5" font-family="Helvetica,sans-Serif" font-size="10.00">_DEFINITION()</text>
<text text-anchor="start" x="299.5" y="-323.5" font-family="Helvetica,sans-Serif" font-size="10.00">+</text>
<text text-anchor="start" x="312.5" y="-323.5" font-family="Helvetica,sans-Serif" font-size="10.00">WRAppClass()</text>
<text text-anchor="start" x="299.5" y="-308.5" font-family="Helvetica,sans-Serif" font-size="10.00">+</text>
<text text-anchor="start" x="312.5" y="-308.5" font-family="Helvetica,sans-Serif" font-size="10.00">WRAppClass()</text>
<text text-anchor="start" x="299.5" y="-293.5" font-family="Helvetica,sans-Serif" font-size="10.00">+</text>
<text text-anchor="start" x="312.5" y="-293.5" font-family="Helvetica,sans-Serif" font-size="10.00">WRAppClass()</text>
<text text-anchor="start" x="299.5" y="-278.5" font-family="Helvetica,sans-Serif" font-size="10.00">+</text>
<text text-anchor="start" x="312.5" y="-278.5" font-family="Helvetica,sans-Serif" font-size="10.00">~WRAppClass()</text>
<text text-anchor="start" x="299.5" y="-263.5" font-family="Helvetica,sans-Serif" font-size="10.00">+</text>
<text text-anchor="start" x="312.5" y="-263.5" font-family="Helvetica,sans-Serif" font-size="10.00">operator=()</text>
<text text-anchor="start" x="299.5" y="-248.5" font-family="Helvetica,sans-Serif" font-size="10.00">+</text>
<text text-anchor="start" x="312.5" y="-248.5" font-family="Helvetica,sans-Serif" font-size="10.00">operator=()</text>
<text text-anchor="start" x="299.5" y="-233.5" font-family="Helvetica,sans-Serif" font-size="10.00">+</text>
<text text-anchor="start" x="312.5" y="-233.5" font-family="Helvetica,sans-Serif" font-size="10.00">GetDefaultParameters()</text>
<polygon fill="#666666" stroke="#666666" points="295.5,-374.5 295.5,-374.5 440.5,-374.5 440.5,-374.5 295.5,-374.5"/>
<polygon fill="#666666" stroke="#666666" points="295.5,-359.5 295.5,-359.5 440.5,-359.5 440.5,-359.5 295.5,-359.5"/>
<polygon fill="none" stroke="#666666" points="295,-227 295,-392 440,-392 440,-227 295,-227"/>
</a>
</g>
</g>
<!-- Node2 -->
<g id="Node000002" class="node">
<title>Node2</title>
<g id="a_Node000002"><a xlink:href="classKratos_1_1WRApp_1_1Hdf5IdToIndexOperation.html" target="_top" xlink:title=" ">
<polygon fill="white" stroke="transparent" points="155,-185.5 0,-185.5 0,-5.5 155,-5.5 155,-185.5"/>
<text text-anchor="start" x="19" y="-173.5" font-family="Helvetica,sans-Serif" font-size="10.00">Hdf5IdToIndexOperation</text>
<text text-anchor="start" x="76" y="-158.5" font-family="Helvetica,sans-Serif" font-size="10.00"> </text>
<text text-anchor="start" x="4.5" y="-143.5" font-family="Helvetica,sans-Serif" font-size="10.00">+</text>
<text text-anchor="start" x="17.5" y="-143.5" font-family="Helvetica,sans-Serif" font-size="10.00">KRATOS_CLASS_POINTER</text>
<text text-anchor="start" x="17.5" y="-132.5" font-family="Helvetica,sans-Serif" font-size="10.00">_DEFINITION()</text>
<text text-anchor="start" x="4.5" y="-117.5" font-family="Helvetica,sans-Serif" font-size="10.00">+</text>
<text text-anchor="start" x="17.5" y="-117.5" font-family="Helvetica,sans-Serif" font-size="10.00">Hdf5IdToIndexOperation()</text>
<text text-anchor="start" x="4.5" y="-102.5" font-family="Helvetica,sans-Serif" font-size="10.00">+</text>
<text text-anchor="start" x="17.5" y="-102.5" font-family="Helvetica,sans-Serif" font-size="10.00">Hdf5IdToIndexOperation()</text>
<text text-anchor="start" x="4.5" y="-87.5" font-family="Helvetica,sans-Serif" font-size="10.00">+</text>
<text text-anchor="start" x="17.5" y="-87.5" font-family="Helvetica,sans-Serif" font-size="10.00">Hdf5IdToIndexOperation()</text>
<text text-anchor="start" x="4.5" y="-72.5" font-family="Helvetica,sans-Serif" font-size="10.00">+</text>
<text text-anchor="start" x="17.5" y="-72.5" font-family="Helvetica,sans-Serif" font-size="10.00">Hdf5IdToIndexOperation()</text>
<text text-anchor="start" x="4.5" y="-57.5" font-family="Helvetica,sans-Serif" font-size="10.00">+</text>
<text text-anchor="start" x="17.5" y="-57.5" font-family="Helvetica,sans-Serif" font-size="10.00">operator=()</text>
<text text-anchor="start" x="4.5" y="-42.5" font-family="Helvetica,sans-Serif" font-size="10.00">+</text>
<text text-anchor="start" x="17.5" y="-42.5" font-family="Helvetica,sans-Serif" font-size="10.00">~Hdf5IdToIndexOperation()</text>
<text text-anchor="start" x="4.5" y="-27.5" font-family="Helvetica,sans-Serif" font-size="10.00">+</text>
<text text-anchor="start" x="17.5" y="-27.5" font-family="Helvetica,sans-Serif" font-size="10.00">Execute()</text>
<text text-anchor="start" x="4.5" y="-12.5" font-family="Helvetica,sans-Serif" font-size="10.00">+</text>
<text text-anchor="start" x="17.5" y="-12.5" font-family="Helvetica,sans-Serif" font-size="10.00">GetDefaultParameters()</text>
<polygon fill="#666666" stroke="#666666" points="0.5,-168.5 0.5,-168.5 155.5,-168.5 155.5,-168.5 0.5,-168.5"/>
<polygon fill="#666666" stroke="#666666" points="0.5,-153.5 0.5,-153.5 155.5,-153.5 155.5,-153.5 0.5,-153.5"/>
<polygon fill="none" stroke="#666666" points="0,-5.5 0,-185.5 155,-185.5 155,-5.5 0,-5.5"/>
</a>
</g>
</g>
<!-- Node1&#45;&gt;Node2 -->
<g id="edge1_Node000001_Node000002" class="edge">
<title>Node1&#45;&gt;Node2</title>
<g id="a_edge1_Node000001_Node000002"><a xlink:title=" ">
<path fill="none" stroke="#63b8ff" d="M285.45,-268.77C246.66,-248.15 200.79,-221 163.5,-191 160.73,-188.78 157.98,-186.46 155.24,-184.07"/>
<polygon fill="none" stroke="#63b8ff" points="284.15,-272.04 294.63,-273.6 287.41,-265.84 284.15,-272.04"/>
</a>
</g>
</g>
<!-- Node3 -->
<g id="Node000003" class="node">
<title>Node3</title>
<g id="a_Node000003"><a xlink:href="classKratos_1_1WRApp_1_1Hdf5IndexConnectivitiesOperation.html" target="_top" xlink:title=" ">
<polygon fill="white" stroke="transparent" points="370,-191 173,-191 173,0 370,0 370,-191"/>
<text text-anchor="start" x="187.5" y="-178.5" font-family="Helvetica,sans-Serif" font-size="10.00">Hdf5IndexConnectivitiesOperation</text>
<text text-anchor="start" x="270" y="-163.5" font-family="Helvetica,sans-Serif" font-size="10.00"> </text>
<text text-anchor="start" x="177.5" y="-148.5" font-family="Helvetica,sans-Serif" font-size="10.00">+</text>
<text text-anchor="start" x="190.5" y="-148.5" font-family="Helvetica,sans-Serif" font-size="10.00">KRATOS_CLASS_POINTER</text>
<text text-anchor="start" x="190.5" y="-137.5" font-family="Helvetica,sans-Serif" font-size="10.00">_DEFINITION()</text>
<text text-anchor="start" x="177.5" y="-122.5" font-family="Helvetica,sans-Serif" font-size="10.00">+</text>
<text text-anchor="start" x="190.5" y="-122.5" font-family="Helvetica,sans-Serif" font-size="10.00">Hdf5IndexConnectivitiesOperation()</text>
<text text-anchor="start" x="177.5" y="-107.5" font-family="Helvetica,sans-Serif" font-size="10.00">+</text>
<text text-anchor="start" x="190.5" y="-107.5" font-family="Helvetica,sans-Serif" font-size="10.00">Hdf5IndexConnectivitiesOperation()</text>
<text text-anchor="start" x="177.5" y="-92.5" font-family="Helvetica,sans-Serif" font-size="10.00">+</text>
<text text-anchor="start" x="190.5" y="-92.5" font-family="Helvetica,sans-Serif" font-size="10.00">Hdf5IndexConnectivitiesOperation()</text>
<text text-anchor="start" x="177.5" y="-77.5" font-family="Helvetica,sans-Serif" font-size="10.00">+</text>
<text text-anchor="start" x="190.5" y="-77.5" font-family="Helvetica,sans-Serif" font-size="10.00">Hdf5IndexConnectivitiesOperation()</text>
<text text-anchor="start" x="177.5" y="-62.5" font-family="Helvetica,sans-Serif" font-size="10.00">+</text>
<text text-anchor="start" x="190.5" y="-62.5" font-family="Helvetica,sans-Serif" font-size="10.00">operator=()</text>
<text text-anchor="start" x="177.5" y="-47.5" font-family="Helvetica,sans-Serif" font-size="10.00">+</text>
<text text-anchor="start" x="190.5" y="-47.5" font-family="Helvetica,sans-Serif" font-size="10.00">~Hdf5IndexConnectivities</text>
<text text-anchor="start" x="190.5" y="-36.5" font-family="Helvetica,sans-Serif" font-size="10.00">Operation()</text>
<text text-anchor="start" x="177.5" y="-21.5" font-family="Helvetica,sans-Serif" font-size="10.00">+</text>
<text text-anchor="start" x="190.5" y="-21.5" font-family="Helvetica,sans-Serif" font-size="10.00">Execute()</text>
<text text-anchor="start" x="177.5" y="-6.5" font-family="Helvetica,sans-Serif" font-size="10.00">+</text>
<text text-anchor="start" x="190.5" y="-6.5" font-family="Helvetica,sans-Serif" font-size="10.00">GetDefaultParameters()</text>
<polygon fill="#666666" stroke="#666666" points="173.5,-173.5 173.5,-173.5 370.5,-173.5 370.5,-173.5 173.5,-173.5"/>
<polygon fill="#666666" stroke="#666666" points="173.5,-158.5 173.5,-158.5 370.5,-158.5 370.5,-158.5 173.5,-158.5"/>
<polygon fill="none" stroke="#666666" points="173,0 173,-191 370,-191 370,0 173,0"/>
</a>
</g>
</g>
<!-- Node1&#45;&gt;Node3 -->
<g id="edge2_Node000001_Node000003" class="edge">
<title>Node1&#45;&gt;Node3</title>
<g id="a_edge2_Node000001_Node000003"><a xlink:title=" ">
<path fill="none" stroke="#63b8ff" d="M326.28,-217.47C322.34,-208.77 318.34,-199.94 314.39,-191.21"/>
<polygon fill="none" stroke="#63b8ff" points="323.21,-219.17 330.52,-226.84 329.58,-216.29 323.21,-219.17"/>
</a>
</g>
</g>
<!-- Node4 -->
<g id="Node000004" class="node">
<title>Node4</title>
<g id="a_Node000004"><a xlink:href="classKratos_1_1WRApp_1_1Hdf5LinSpaceOperation.html" target="_top" xlink:title=" ">
<polygon fill="white" stroke="transparent" points="540.5,-185.5 388.5,-185.5 388.5,-5.5 540.5,-5.5 540.5,-185.5"/>
<text text-anchor="start" x="407" y="-173.5" font-family="Helvetica,sans-Serif" font-size="10.00">Hdf5LinSpaceOperation</text>
<text text-anchor="start" x="462.5" y="-158.5" font-family="Helvetica,sans-Serif" font-size="10.00"> </text>
<text text-anchor="start" x="392.5" y="-143.5" font-family="Helvetica,sans-Serif" font-size="10.00">+</text>
<text text-anchor="start" x="405.5" y="-143.5" font-family="Helvetica,sans-Serif" font-size="10.00">KRATOS_CLASS_POINTER</text>
<text text-anchor="start" x="405.5" y="-132.5" font-family="Helvetica,sans-Serif" font-size="10.00">_DEFINITION()</text>
<text text-anchor="start" x="392.5" y="-117.5" font-family="Helvetica,sans-Serif" font-size="10.00">+</text>
<text text-anchor="start" x="405.5" y="-117.5" font-family="Helvetica,sans-Serif" font-size="10.00">Hdf5LinSpaceOperation()</text>
<text text-anchor="start" x="392.5" y="-102.5" font-family="Helvetica,sans-Serif" font-size="10.00">+</text>
<text text-anchor="start" x="405.5" y="-102.5" font-family="Helvetica,sans-Serif" font-size="10.00">Hdf5LinSpaceOperation()</text>
<text text-anchor="start" x="392.5" y="-87.5" font-family="Helvetica,sans-Serif" font-size="10.00">+</text>
<text text-anchor="start" x="405.5" y="-87.5" font-family="Helvetica,sans-Serif" font-size="10.00">Hdf5LinSpaceOperation()</text>
<text text-anchor="start" x="392.5" y="-72.5" font-family="Helvetica,sans-Serif" font-size="10.00">+</text>
<text text-anchor="start" x="405.5" y="-72.5" font-family="Helvetica,sans-Serif" font-size="10.00">Hdf5LinSpaceOperation()</text>
<text text-anchor="start" x="392.5" y="-57.5" font-family="Helvetica,sans-Serif" font-size="10.00">+</text>
<text text-anchor="start" x="405.5" y="-57.5" font-family="Helvetica,sans-Serif" font-size="10.00">operator=()</text>
<text text-anchor="start" x="392.5" y="-42.5" font-family="Helvetica,sans-Serif" font-size="10.00">+</text>
<text text-anchor="start" x="405.5" y="-42.5" font-family="Helvetica,sans-Serif" font-size="10.00">~Hdf5LinSpaceOperation()</text>
<text text-anchor="start" x="392.5" y="-27.5" font-family="Helvetica,sans-Serif" font-size="10.00">+</text>
<text text-anchor="start" x="405.5" y="-27.5" font-family="Helvetica,sans-Serif" font-size="10.00">Execute()</text>
<text text-anchor="start" x="392.5" y="-12.5" font-family="Helvetica,sans-Serif" font-size="10.00">+</text>
<text text-anchor="start" x="405.5" y="-12.5" font-family="Helvetica,sans-Serif" font-size="10.00">GetDefaultParameters()</text>
<polygon fill="#666666" stroke="#666666" points="388.5,-168.5 388.5,-168.5 540.5,-168.5 540.5,-168.5 388.5,-168.5"/>
<polygon fill="#666666" stroke="#666666" points="388.5,-153.5 388.5,-153.5 540.5,-153.5 540.5,-153.5 388.5,-153.5"/>
<polygon fill="none" stroke="#666666" points="388.5,-5.5 388.5,-185.5 540.5,-185.5 540.5,-5.5 388.5,-5.5"/>
</a>
</g>
</g>
<!-- Node1&#45;&gt;Node4 -->
<g id="edge3_Node000001_Node000004" class="edge">
<title>Node1&#45;&gt;Node4</title>
<g id="a_edge3_Node000001_Node000004"><a xlink:title=" ">
<path fill="none" stroke="#63b8ff" d="M409.11,-217.57C413.97,-206.94 418.92,-196.11 423.77,-185.52"/>
<polygon fill="none" stroke="#63b8ff" points="405.84,-216.29 404.86,-226.84 412.21,-219.2 405.84,-216.29"/>
</a>
</g>
</g>
<!-- Node5 -->
<g id="Node000005" class="node">
<title>Node5</title>
<g id="a_Node000005"><a xlink:href="classKratos_1_1WRApp_1_1ModelPredicatePipe.html" target="_top" xlink:title=" ">
<polygon fill="white" stroke="transparent" points="704,-176 559,-176 559,-15 704,-15 704,-176"/>
<text text-anchor="start" x="583.5" y="-163.5" font-family="Helvetica,sans-Serif" font-size="10.00">ModelPredicatePipe</text>
<text text-anchor="start" x="607" y="-152.5" font-family="Helvetica,sans-Serif" font-size="10.00">&lt; TPipe &gt;</text>
<text text-anchor="start" x="630" y="-137.5" font-family="Helvetica,sans-Serif" font-size="10.00"> </text>
<text text-anchor="start" x="563.5" y="-122.5" font-family="Helvetica,sans-Serif" font-size="10.00">+</text>
<text text-anchor="start" x="576.5" y="-122.5" font-family="Helvetica,sans-Serif" font-size="10.00">KRATOS_CLASS_POINTER</text>
<text text-anchor="start" x="576.5" y="-111.5" font-family="Helvetica,sans-Serif" font-size="10.00">_DEFINITION()</text>
<text text-anchor="start" x="563.5" y="-96.5" font-family="Helvetica,sans-Serif" font-size="10.00">+</text>
<text text-anchor="start" x="576.5" y="-96.5" font-family="Helvetica,sans-Serif" font-size="10.00">ModelPredicatePipe()</text>
<text text-anchor="start" x="563.5" y="-81.5" font-family="Helvetica,sans-Serif" font-size="10.00">+</text>
<text text-anchor="start" x="576.5" y="-81.5" font-family="Helvetica,sans-Serif" font-size="10.00">ModelPredicatePipe()</text>
<text text-anchor="start" x="563.5" y="-66.5" font-family="Helvetica,sans-Serif" font-size="10.00">+</text>
<text text-anchor="start" x="576.5" y="-66.5" font-family="Helvetica,sans-Serif" font-size="10.00">ModelPredicatePipe()</text>
<text text-anchor="start" x="563.5" y="-51.5" font-family="Helvetica,sans-Serif" font-size="10.00">+</text>
<text text-anchor="start" x="576.5" y="-51.5" font-family="Helvetica,sans-Serif" font-size="10.00">ModelPredicatePipe()</text>
<text text-anchor="start" x="563.5" y="-36.5" font-family="Helvetica,sans-Serif" font-size="10.00">+</text>
<text text-anchor="start" x="576.5" y="-36.5" font-family="Helvetica,sans-Serif" font-size="10.00">operator()()</text>
<text text-anchor="start" x="563.5" y="-21.5" font-family="Helvetica,sans-Serif" font-size="10.00">+</text>
<text text-anchor="start" x="576.5" y="-21.5" font-family="Helvetica,sans-Serif" font-size="10.00">GetDefaultParameters()</text>
<polygon fill="#666666" stroke="#666666" points="559.5,-147.5 559.5,-147.5 704.5,-147.5 704.5,-147.5 559.5,-147.5"/>
<polygon fill="#666666" stroke="#666666" points="559.5,-132.5 559.5,-132.5 704.5,-132.5 704.5,-132.5 559.5,-132.5"/>
<polygon fill="none" stroke="#666666" points="559,-15 559,-176 704,-176 704,-15 559,-15"/>
</a>
</g>
</g>
<!-- Node1&#45;&gt;Node5 -->
<g id="edge4_Node000001_Node000005" class="edge">
<title>Node1&#45;&gt;Node5</title>
<g id="a_edge4_Node000001_Node000005"><a xlink:title=" ">
<path fill="none" stroke="#63b8ff" d="M449.02,-262.71C481.73,-242.63 518.86,-217.59 549.5,-191 554.75,-186.44 559.97,-181.55 565.08,-176.48"/>
<polygon fill="none" stroke="#63b8ff" points="447.09,-259.78 440.36,-267.97 450.73,-265.77 447.09,-259.78"/>
</a>
</g>
</g>
</g>
</svg>

<g id="navigator" transform="translate(0 0)" fill="#404254">
  <rect fill="#f2f5e9" fill-opacity="0.5" stroke="#606060" stroke-width=".5" x="0" y="0" width="60" height="60"/>
  <use id="zoomplus" xlink:href="#zoomPlus" x="17" y="9" onmousedown="handleZoom(evt,'in')"/>
  <use id="zoomminus" xlink:href="#zoomMin" x="42" y="9" onmousedown="handleZoom(evt,'out')"/>
  <use id="reset" xlink:href="#resetDef" x="30" y="36" onmousedown="handleReset()"/>
   <use id="arrowup" xlink:href="#arrowUp" x="0" y="0" onmousedown="handlePan(0,-1)"/>
  <use id="arrowright" xlink:href="#arrowRight" x="0" y="0" onmousedown="handlePan(1,0)"/>
  <use id="arrowdown" xlink:href="#arrowDown" x="0" y="0" onmousedown="handlePan(0,1)"/>
  <use id="arrowleft" xlink:href="#arrowLeft" x="0" y="0" onmousedown="handlePan(-1,0)"/>
</g>
<svg viewBox="0 0 15 15" width="100%" height="30px" preserveAspectRatio="xMaxYMin meet">
 <g id="arrow_out" transform="scale(0.3 0.3)">
  <a xlink:href="structKratos_1_1WRApp_1_1WRAppClass__inherit__graph_org.svg" target="_base">
   <rect id="button" ry="5" rx="5" y="6" x="6" height="38" width="38"
        fill="#f2f5e9" fill-opacity="0.5" stroke="#606060" stroke-width="1.0"/>
   <path id="arrow"
     d="M 11.500037,31.436501 C 11.940474,20.09759 22.043105,11.32322 32.158766,21.979434 L 37.068811,17.246167 C 37.068811,17.246167 37.088388,32 37.088388,32 L 22.160133,31.978069 C 22.160133,31.978069 26.997745,27.140456 26.997745,27.140456 C 18.528582,18.264221 13.291696,25.230495 11.500037,31.436501 z"
     style="fill:#404040;"/>
  </a>
 </g>
</svg>

<style type='text/css'>
<![CDATA[
[data-mouse-over-selected='false'] { opacity: 0.7; }
[data-mouse-over-selected='true']  { opacity: 1.0; }
]]>
</style>
<script type="application/ecmascript"><![CDATA[
document.addEventListener('DOMContentLoaded', (event) => {
  highlightEdges();
  highlightAdjacentNodes();
});
]]></script>
</svg>
