<?xml version="1.0" encoding="UTF-8" standalone="no"?>
<!DOCTYPE svg PUBLIC "-//W3C//DTD SVG 1.1//EN"
 "http://www.w3.org/Graphics/SVG/1.1/DTD/svg11.dtd">
<!-- Generated by graphviz version 2.43.0 (0)
 -->
<!-- Title: WRAppClass.hpp Pages: 1 -->
<svg width="650pt" height="93pt"
 viewBox="0.00 0.00 649.50 93.00" xmlns="http://www.w3.org/2000/svg" xmlns:xlink="http://www.w3.org/1999/xlink">
<g id="graph0" class="graph" transform="scale(1 1) rotate(0) translate(4 89)">
<title>WRAppClass.hpp</title>
<!-- Node1 -->
<g id="Node000001" class="node">
<title>Node1</title>
<g id="a_Node000001"><a xlink:title=" ">
<polygon fill="#999999" stroke="#666666" points="388,-85 289,-85 289,-66 388,-66 388,-85"/>
<text text-anchor="middle" x="338.5" y="-73" font-family="Helvetica,sans-Serif" font-size="10.00">WRAppClass.hpp</text>
</a>
</g>
</g>
<!-- Node2 -->
<g id="Node000002" class="node">
<title>Node2</title>
<g id="a_Node000002"><a xlink:href="common_8hpp.html" target="_top" xlink:title=" ">
<polygon fill="white" stroke="#666666" points="155,-24.5 0,-24.5 0,-5.5 155,-5.5 155,-24.5"/>
<text text-anchor="middle" x="77.5" y="-12.5" font-family="Helvetica,sans-Serif" font-size="10.00">wrapp/utils/inc/common.hpp</text>
</a>
</g>
</g>
<!-- Node1&#45;&gt;Node2 -->
<g id="edge1_Node000001_Node000002" class="edge">
<title>Node1&#45;&gt;Node2</title>
<g id="a_edge1_Node000001_Node000002"><a xlink:title=" ">
<path fill="none" stroke="#63b8ff" d="M300.55,-65.99C254.25,-55.62 175.95,-38.07 125.51,-26.76"/>
<polygon fill="#63b8ff" stroke="#63b8ff" points="126.02,-23.29 115.5,-24.52 124.49,-30.12 126.02,-23.29"/>
</a>
</g>
</g>
<!-- Node3 -->
<g id="Node000003" class="node">
<title>Node3</title>
<g id="a_Node000003"><a xlink:title=" ">
<polygon fill="#e0e0e0" stroke="#999999" points="334,-24.5 173,-24.5 173,-5.5 334,-5.5 334,-24.5"/>
<text text-anchor="middle" x="253.5" y="-12.5" font-family="Helvetica,sans-Serif" font-size="10.00">includes/kratos_parameters.h</text>
</a>
</g>
</g>
<!-- Node1&#45;&gt;Node3 -->
<g id="edge2_Node000001_Node000003" class="edge">
<title>Node1&#45;&gt;Node3</title>
<g id="a_edge2_Node000001_Node000003"><a xlink:title=" ">
<path fill="none" stroke="#63b8ff" d="M325.96,-65.87C312.4,-56.54 290.56,-41.51 274.4,-30.38"/>
<polygon fill="#63b8ff" stroke="#63b8ff" points="276.32,-27.45 266.09,-24.67 272.35,-33.22 276.32,-27.45"/>
</a>
</g>
</g>
<!-- Node4 -->
<g id="Node000004" class="node">
<title>Node4</title>
<g id="a_Node000004"><a xlink:title=" ">
<polygon fill="#e0e0e0" stroke="#999999" points="495,-24.5 352,-24.5 352,-5.5 495,-5.5 495,-24.5"/>
<text text-anchor="middle" x="423.5" y="-12.5" font-family="Helvetica,sans-Serif" font-size="10.00">includes/smart_pointers.h</text>
</a>
</g>
</g>
<!-- Node1&#45;&gt;Node4 -->
<g id="edge3_Node000001_Node000004" class="edge">
<title>Node1&#45;&gt;Node4</title>
<g id="a_edge3_Node000001_Node000004"><a xlink:title=" ">
<path fill="none" stroke="#63b8ff" d="M351.04,-65.87C364.6,-56.54 386.44,-41.51 402.6,-30.38"/>
<polygon fill="#63b8ff" stroke="#63b8ff" points="404.65,-33.22 410.91,-24.67 400.68,-27.45 404.65,-33.22"/>
</a>
</g>
</g>
<!-- Node5 -->
<g id="Node000005" class="node">
<title>Node5</title>
<g id="a_Node000005"><a xlink:title=" ">
<polygon fill="#e0e0e0" stroke="#999999" points="641.5,-30 513.5,-30 513.5,0 641.5,0 641.5,-30"/>
<text text-anchor="start" x="521.5" y="-18" font-family="Helvetica,sans-Serif" font-size="10.00">includes/kratos_export</text>
<text text-anchor="middle" x="577.5" y="-7" font-family="Helvetica,sans-Serif" font-size="10.00">_api.h</text>
</a>
</g>
</g>
<!-- Node1&#45;&gt;Node5 -->
<g id="edge4_Node000001_Node000005" class="edge">
<title>Node1&#45;&gt;Node5</title>
<g id="a_edge4_Node000001_Node000005"><a xlink:title=" ">
<path fill="none" stroke="#63b8ff" d="M373.25,-65.99C409,-57.24 465.59,-43.39 510.15,-32.48"/>
<polygon fill="#63b8ff" stroke="#63b8ff" points="511.16,-35.84 520.04,-30.06 509.5,-29.04 511.16,-35.84"/>
</a>
</g>
</g>
</g>
</svg>
